<svg width="715" height="407" viewBox="0 0 715 407" fill="none" xmlns="http://www.w3.org/2000/svg">
<g clip-path="url(#clip0_1_349)">
<path d="M144.746 148.881L143.927 149.254L142.437 149.981C141.469 150.465 140.594 150.95 139.662 151.435C137.893 152.422 136.199 153.429 134.541 154.472C131.226 156.559 128.098 158.796 125.099 161.144C119.084 165.859 113.553 171.058 108.544 176.667C103.515 182.277 98.9715 188.259 94.9303 194.521C90.9078 200.801 87.4067 207.342 84.3153 214.051C81.1866 220.741 78.7657 227.674 76.5495 234.606C75.5625 238.11 74.4638 241.595 73.7002 245.117L72.4525 250.409L71.4283 255.721C69.8081 264.442 68.7652 273.201 68.1879 281.941V248.695C69.3611 241.986 71.5214 233.768 74.6873 224.561C79.4175 210.398 86.4197 193.98 94.1854 176.22C100.554 161.703 105.992 148.937 111.02 138.576C116.03 128.233 121.04 120.592 125.118 116.511C121.077 120.555 113.479 125.792 105.285 134.569C97.1278 143.272 88.1143 155.218 81.3915 170.555C73.7189 188.073 69.8267 205.273 68.1879 219.977V148.304C69.3797 144.167 71.5959 139.247 74.6686 134.01C79.3988 125.885 85.9168 116.884 92.4721 106.541C97.8168 98.0802 101.653 89.9363 104.707 83.0783C107.724 76.2017 110.182 70.7973 112.194 67.7783C110.145 70.816 105.024 73.9468 99.1577 78.8107C93.2542 83.6188 86.3452 90.0481 80.6466 99.0679C73.7934 109.877 69.8639 121.356 68.1693 131.159V103.708C70.0874 91.0545 74.1658 71.9714 74.1658 49.9066C74.1658 26.2763 67.1823 8.60959 67.1823 0.260742C67.1823 8.60959 60.1987 26.2763 60.1987 49.9066C60.1987 71.9714 64.2585 91.0545 66.1952 103.708V133.6C64.4074 117.555 60.1614 98.6579 51.8556 79.4257C44.5555 62.8398 35.2068 49.7388 26.6217 40.0855C18.0365 30.3576 10.1591 24.2078 5.48475 20.1265C10.2336 24.2823 15.448 32.743 20.83 43.9804C26.2678 55.2364 32.0968 69.2319 39.0617 85.0351C47.4234 104.435 54.7422 122.344 59.6772 137.812C62.9735 147.931 65.0779 156.969 66.2139 164.312V210.454C65.5993 204.733 64.7985 199.049 63.8115 193.44C61.5768 180.823 58.4854 168.486 54.5746 156.466C50.701 144.427 46.1384 132.65 40.8495 121.114C38.2237 115.337 35.3186 109.653 32.2458 103.988C29.0054 98.3038 25.765 92.7317 21.4632 86.8987C26.4913 93.6821 27.1617 100.745 26.5658 107.547C26.1561 110.958 25.4112 114.256 24.4242 117.424C23.4186 120.611 22.2267 123.63 21.1093 126.444C19.4333 130.507 19.694 133.581 21.0721 136.135C22.3757 138.725 24.7035 140.831 27.1059 142.843C31.7802 146.906 36.7339 150.726 33.2887 156.336C29.9365 161.908 25.8395 167.126 26.1561 173.183C26.2678 176.239 27.4038 179.519 30.2904 183.32C32.9907 187.178 37.5533 191.52 44.0154 197.185C48.1869 200.689 51.5391 204.621 54.6677 208.516C57.7032 212.411 60.0311 216.362 62.0423 219.847C63.9232 223.35 65.2082 226.425 66.1208 228.605C66.158 228.699 66.1952 228.773 66.2325 228.866V281.643C66.0463 280.469 60.2359 247.185 40.4771 228.792C21.9101 211.498 4.59085 206 0.046875 203.466C4.64672 206 30.7746 238.296 39.3038 249.422C52.4702 266.585 66.2325 288.072 66.2325 311.852C66.2325 311.852 66.2325 311.87 66.2325 311.889V383.898H68.2251V292.936C68.579 290.812 69.119 288.781 69.8453 286.842C71.2607 283.32 73.0671 280.115 75.3018 277.208C77.5738 274.301 80.0693 271.71 82.6578 269.381C85.3395 267.07 88.0585 265.001 90.6098 263.138C94.3716 260.473 95.9359 257.584 96.4015 254.453C96.9788 251.378 96.2711 248.005 95.7683 244.744C95.489 243.104 95.191 241.446 94.9862 239.862C94.8186 238.277 94.7999 236.768 94.9862 235.37C95.3028 232.556 96.6995 230.283 99.8653 229.09C106.216 226.705 112.771 225.381 116.849 220.629C117.911 219.474 118.805 218.058 119.55 216.343C120.369 214.684 120.909 212.635 121.431 210.249C122.418 205.404 122.92 199.068 123.703 189.973C124.727 178.717 129.438 167.853 134.616 160.417C139.718 152.888 144.989 148.714 145.882 148.397L144.765 148.881H144.746Z" fill="url(#paint0_linear_1_349)"/>
<path d="M600.28 199.18L600.932 199.478L602.105 200.055C602.868 200.428 603.557 200.819 604.284 201.192C605.662 201.956 607.003 202.758 608.306 203.578C610.913 205.218 613.372 206.969 615.737 208.833C620.467 212.541 624.806 216.623 628.754 221.021C632.702 225.419 636.278 230.134 639.444 235.053C642.609 239.992 645.366 245.135 647.787 250.409C650.245 255.665 652.144 261.106 653.895 266.567C654.658 269.325 655.534 272.064 656.13 274.822L657.098 278.978L657.899 283.153C659.165 290.011 660.003 296.887 660.45 303.764V277.636C659.538 272.362 657.824 265.896 655.348 258.665C651.623 247.521 646.129 234.625 640.021 220.685C635.011 209.28 630.747 199.235 626.78 191.092C622.832 182.966 618.903 176.947 615.699 173.742C618.865 176.91 624.843 181.028 631.287 187.942C637.693 194.781 644.77 204.174 650.059 216.231C656.092 230.003 659.147 243.514 660.432 255.068V198.732C659.5 195.471 657.75 191.613 655.329 187.495C651.623 181.103 646.483 174.021 641.343 165.896C637.134 159.243 634.136 152.851 631.734 147.465C629.369 142.061 627.432 137.812 625.849 135.445C627.45 137.83 631.473 140.29 636.091 144.111C640.729 147.894 646.148 152.944 650.636 160.026C656.037 168.524 659.109 177.543 660.432 185.24V163.66C658.923 153.708 655.72 138.725 655.72 121.375C655.72 102.795 661.214 88.9114 661.214 82.3516C661.214 88.9114 666.707 102.795 666.707 121.375C666.707 138.725 663.504 153.708 661.996 163.66V187.159C663.393 174.543 666.745 159.69 673.263 144.577C678.999 131.532 686.355 121.245 693.096 113.66C699.856 106.019 706.039 101.174 709.726 97.987C706.002 101.248 701.905 107.901 697.659 116.735C693.375 125.587 688.794 136.582 683.338 148.993C676.764 164.237 671.009 178.307 667.136 190.477C664.547 198.434 662.89 205.534 661.996 211.293V247.558C662.48 243.067 663.113 238.594 663.877 234.178C665.627 224.263 668.067 214.573 671.14 205.106C674.194 195.639 677.769 186.377 681.922 177.32C683.989 172.791 686.261 168.319 688.682 163.846C691.215 159.392 693.785 154.994 697.156 150.41C693.208 155.739 692.668 161.293 693.152 166.641C693.468 169.325 694.064 171.915 694.828 174.413C695.629 176.91 696.541 179.295 697.435 181.494C698.757 184.681 698.534 187.104 697.472 189.116C696.448 191.147 694.623 192.806 692.724 194.39C689.055 197.577 685.144 200.577 687.863 204.994C690.507 209.373 693.729 213.473 693.468 218.244C693.375 220.648 692.5 223.22 690.209 226.22C688.086 229.258 684.492 232.668 679.427 237.122C676.149 239.862 673.505 242.955 671.065 246.03C668.681 249.105 666.856 252.198 665.273 254.938C663.784 257.677 662.778 260.1 662.07 261.815C662.033 261.889 662.014 261.945 661.977 262.02V303.503C662.126 302.571 666.689 276.425 682.22 261.964C696.802 248.378 710.415 244.055 714.009 242.061C710.397 244.055 689.856 269.437 683.151 278.177C672.797 291.669 661.996 308.553 661.996 327.245C661.996 327.245 661.996 327.245 661.996 327.264V383.861H660.432V312.373C660.152 310.715 659.724 309.112 659.147 307.584C658.029 304.826 656.614 302.292 654.863 300.018C653.076 297.744 651.12 295.694 649.072 293.868C646.967 292.042 644.826 290.439 642.833 288.967C639.872 286.88 638.643 284.587 638.27 282.146C637.805 279.724 638.382 277.077 638.755 274.506C638.978 273.22 639.22 271.915 639.369 270.667C639.499 269.418 639.518 268.244 639.369 267.144C639.127 264.927 638.028 263.138 635.533 262.206C630.542 260.342 625.383 259.28 622.18 255.572C621.342 254.658 620.635 253.559 620.057 252.198C619.424 250.894 618.996 249.273 618.567 247.409C617.804 243.607 617.394 238.613 616.78 231.475C615.979 222.623 612.273 214.088 608.213 208.255C604.191 202.329 600.056 199.049 599.367 198.807L600.242 199.18H600.28Z" fill="url(#paint1_linear_1_349)"/>
<path d="M247.938 359.969C250.992 372.883 255.48 387.382 260.136 401.061H337.458C339.208 395.433 340.94 389.394 342.579 382.984C352.077 345.954 342.076 313.938 333.081 299.439C324.087 284.922 316.339 267.665 330.064 246.514C343.79 225.362 345.093 208.888 345.093 208.888C343.1 200.875 336.843 198.135 320.623 190.383C320.623 190.383 319.654 190.066 318.146 189.544C314.701 203.521 307.456 214.628 294.607 216.883C277.865 219.827 262.743 209.615 255.108 191.668C247.733 193.849 239.52 196.16 235.609 198.377C235.609 198.377 256.113 242.898 260.005 268.075C263.916 293.252 238.608 320.442 247.938 359.969Z" fill="url(#paint2_linear_1_349)"/>
<path d="M294.589 216.902C307.439 214.628 314.702 203.521 318.128 189.563C312.746 187.737 300.101 183.395 296.582 181.643C292.075 179.388 293.341 161.125 293.341 161.125L269.578 167.908V185.631C269.578 187.29 262.781 189.414 255.09 191.688C262.725 209.634 277.847 219.846 294.589 216.902Z" fill="url(#paint3_linear_1_349)"/>
<path d="M293.341 161.404L269.578 168.188V183.264C279.616 188.687 290.883 198.769 294.7 217.163C307.476 214.852 314.701 203.764 318.128 189.843C312.746 188.016 300.101 183.674 296.581 181.922C292.075 179.667 293.341 161.404 293.341 161.404Z" fill="#CB9EAE"/>
<path d="M307.998 271.859C297.402 275.102 287.382 278.68 282.094 278.68C271.59 278.68 256.096 263.92 248.759 272.94C241.421 281.96 240.341 287.923 246.077 291.93C251.813 295.937 270.082 290.42 278.835 292.172C282.745 292.955 296.061 293.626 310.214 293.421C311.425 287.793 311.238 277.506 307.998 271.859Z" fill="url(#paint4_linear_1_349)"/>
<path d="M345.484 208.888C343.026 199.03 322.745 217.144 327.736 233.655C332.02 247.819 330.455 266.827 330.455 266.827L350.307 286.935C357.049 278.68 347.477 216.902 345.465 208.888H345.484Z" fill="url(#paint5_linear_1_349)"/>
<path d="M337.085 266.92C329.412 265.802 318.406 268.672 307.996 271.859C311.236 277.505 311.423 287.792 310.212 293.42C327.755 293.141 346.601 291.501 350.326 286.916C350.326 286.916 359.321 270.163 337.085 266.902V266.92Z" fill="url(#paint6_linear_1_349)"/>
<path d="M264.103 133.805C259.932 141.912 260.397 169.511 271.981 172.064C282.093 174.301 287.736 164.405 287.736 164.405V146.105C287.736 146.105 282.037 143.123 281.255 136.116C280.622 130.507 277.307 129.91 277.307 129.91C277.307 129.91 270.36 134.029 264.103 133.786V133.805Z" fill="url(#paint7_linear_1_349)"/>
<path d="M246.077 268.094C240.844 257.565 237.38 244.277 234.307 236.767C228.534 222.622 227.585 202.887 235.592 198.396C250.342 190.83 256.58 216.827 257.586 224.374C258.592 231.922 260.584 249.551 266.078 255.869L246.077 268.112V268.094Z" fill="url(#paint8_linear_1_349)"/>
<path d="M311.444 176.835C301.444 170.592 312.599 136.097 295.82 122.828C282.02 111.907 260.008 120.126 260.008 140.756V190.197C265.464 188.482 269.58 186.917 269.58 185.631V171.113C260.38 165.243 260.194 141.427 264.105 133.823C270.362 134.047 277.308 129.947 277.308 129.947C277.308 129.947 280.623 130.543 281.238 136.153C282.02 143.16 287.719 146.141 287.719 146.141V164.442C287.719 181.624 291.853 200.409 301.649 201.453C311.444 202.496 313.102 189.582 320.607 190.402C320.607 190.402 321.445 183.115 311.444 176.853V176.835Z" fill="#0060FF"/>
<path d="M260.38 243.159C254.924 250.632 246.376 257.155 246.078 268.094C250.715 277.449 256.749 284.624 265.092 283.692C277.383 282.313 281.648 267.833 283.1 254.564C274.888 255.198 264.422 248.694 260.38 243.159Z" fill="url(#paint9_linear_1_349)"/>
<path d="M278.946 175.754C276.599 176.816 268.294 184.065 268.294 185.892C268.294 187.718 272.018 201.359 272.018 205.515C272.018 209.671 268.201 227.804 263.21 238.519C262.465 240.141 261.478 241.669 260.379 243.16C264.42 248.694 274.886 255.198 283.099 254.565C283.751 248.694 283.844 243.066 283.844 238.911C283.844 238.911 284.682 208.59 286.06 206.428C287.308 204.453 287.308 201.21 287.308 198.452V192.843C287.308 192.843 289.207 192.712 289.319 189.433C289.319 189.339 289.319 189.228 289.319 189.134C289.319 185.556 281.292 174.673 278.946 175.754Z" fill="url(#paint10_linear_1_349)"/>
<path d="M480.145 189.153V277.655C480.145 277.655 509.662 278.549 508.749 277.655C507.855 276.76 508.749 236.544 508.749 236.544L480.145 189.153Z" fill="url(#paint11_linear_1_349)"/>
<path d="M538.471 287.104C540.91 303.671 539.383 322.549 538.471 329.668C537.558 336.806 516.57 400.521 516.57 400.521H567.727L581.825 333.004L563.127 281.42L538.471 287.085V287.104Z" fill="url(#paint12_linear_1_349)"/>
<path d="M538.473 287.104C540.913 303.671 539.386 322.549 538.473 329.668C537.561 336.806 512.383 401.062 512.383 401.062H567.73L581.827 333.004L563.13 281.42L538.473 287.085V287.104Z" fill="url(#paint13_linear_1_349)"/>
<path d="M598.753 269.53C606.295 293.179 640.058 300.82 630.747 339.005C624.024 366.567 610.299 401.062 610.299 401.062H546.441C546.441 401.062 566.461 340.961 566.461 333.004C566.461 325.046 553.891 284.141 553.891 284.141L598.753 269.53Z" fill="url(#paint14_linear_1_349)"/>
<path d="M490.481 169.139C482.939 172.735 476.067 188.744 482.939 203.783C489.83 218.822 490.798 216.12 493.424 227.916C496.031 239.713 495.007 246.254 516.591 260.957C538.175 275.661 537.504 279.575 538.491 287.103C539.478 294.632 600.207 292.992 599.22 264.89C598.233 236.787 599.798 204.342 581.715 189.042C563.632 173.742 490.5 169.157 490.5 169.157L490.481 169.139Z" fill="url(#paint15_linear_1_349)"/>
<path d="M482.938 134.346V218.691C482.938 218.691 513.535 202.255 513.274 186.191C512.995 170.108 499.437 134.346 499.437 134.346H482.938Z" fill="#001462"/>
<path d="M504.43 184.961C504.43 184.961 508.508 191.558 509.886 194.391C511.264 197.223 505.137 209.765 507.167 220.518C509.197 231.271 522.475 229.445 525.455 220.518C526.349 217.835 528.732 198.752 528.732 198.752V167.201L504.448 184.942L504.43 184.961Z" fill="url(#paint16_linear_1_349)"/>
<path d="M509.887 194.391C518.491 184.756 527.393 225.569 513.295 227.637C513.332 227.637 513.37 227.637 513.407 227.656L515.418 227.879C519.534 227.879 523.892 225.177 525.456 220.518C526.35 217.835 528.733 198.752 528.733 198.752V167.201L504.449 184.942C504.449 184.942 508.528 191.54 509.906 194.372L509.887 194.391Z" fill="#CB9EAE"/>
<path d="M486.514 131.942C482.324 157.883 486.924 181.811 499.438 184.644C511.934 187.476 529.868 173.798 529.868 161.722C529.868 149.646 541.954 118.188 528.192 111.014C514.43 103.839 489.177 115.412 486.514 131.942Z" fill="url(#paint17_linear_1_349)"/>
<path d="M497.018 129.575C497.018 129.575 490.481 135.073 485.695 137.905C480.909 140.757 482.082 124.301 491.356 116.567C500.63 108.833 512.81 102.255 517.726 106.69C517.726 106.69 533.183 102.404 542.55 118.207C551.918 134.01 552.588 148.155 555.531 152.106C558.492 156.057 563.427 158.517 561.117 165.934C561.117 165.934 577.561 162.635 580.02 174.003C582.478 185.352 581.658 189.023 581.658 189.023C581.658 189.023 576.556 185.017 566.071 181.345C566.071 181.345 559.013 186.918 552.272 186.918C545.53 186.918 537.038 214.126 525.194 214.126L525.101 149.31C525.101 149.31 498.358 145.9 496.98 129.575H497.018Z" fill="#001462"/>
<path d="M346.972 267.462C315.909 299.832 289.148 398.565 289.148 398.565H333.75L361.629 333.004L346.972 267.443V267.462Z" fill="url(#paint18_linear_1_349)"/>
<path d="M508.768 272.811C502.269 265.412 467.649 241.111 423.513 243.739C384.591 246.068 353.119 258.107 346.973 267.462C342.485 274.302 352.318 320.5 359.153 338.893C365.987 357.287 368.985 376.966 368.985 393.645C368.985 393.645 479.046 393.012 479.698 393.645C480.331 394.279 493.367 353.019 495.081 332.483C496.794 311.946 492.939 289.285 508.75 272.811H508.768Z" fill="url(#paint19_linear_1_349)"/>
<path d="M449.214 205.404C449.214 205.404 449.754 239.638 449.214 249.851C448.674 260.063 432.844 269.269 426.959 269.512C421.093 269.772 408.076 261.088 406.027 246.515V215.598L449.214 205.386V205.404Z" fill="url(#paint20_linear_1_349)"/>
<path d="M449.419 224.003C449.344 214.089 449.214 205.404 449.214 205.404L406.027 215.617V240.961C409.622 256.802 433.496 252.478 439.195 237.458C442.454 228.848 445.247 226.295 449.419 223.984V224.003Z" fill="#CB9EAE"/>
<path d="M394.574 192.117C396.194 217.201 406.418 241.483 422.602 238.911C442.677 235.743 448.767 205.274 447.985 188.669C447.184 172.065 437.742 161.685 423.347 161.666C409.659 161.666 393.215 170.872 394.593 192.117H394.574Z" fill="url(#paint21_linear_1_349)"/>
<path d="M452.693 200.466C451.613 205.46 449.192 209.262 447.255 208.945C445.318 208.628 444.648 204.305 445.709 199.31C446.789 194.316 449.21 190.514 451.147 190.831C453.065 191.148 453.754 195.471 452.693 200.466Z" fill="url(#paint22_linear_1_349)"/>
<path d="M394.907 196.031C391.853 191.353 391.629 189.508 391.853 181.737C392.076 173.966 398.631 173.686 398.501 170.369C398.371 167.052 402.598 158.107 419.899 157.399C437.199 156.672 436.156 164.611 441.52 165.132C446.883 165.654 455.189 171.152 451.148 190.831C451.148 190.831 446.436 191.278 444.592 200.801C444.462 201.472 443.475 201.677 443.084 201.081C442.544 200.28 441.948 199.087 441.501 197.428C440.216 192.676 435.039 199.814 434.089 190.328C433.419 183.563 416.938 195.975 404.721 185.017C404.721 185.017 402.915 187.439 397.7 187.29C394.683 187.197 394.907 196.031 394.907 196.031Z" fill="#0060FF"/>
<path d="M406.009 286.786C406.009 286.786 407.443 288.613 410.087 284.55C412.75 280.487 421.857 268.132 425.004 269.362C418.598 268.001 407.852 259.69 406.009 246.552V245.489C400.925 246.197 396.045 247.073 391.408 248.042C390.123 255.292 395.561 278.773 406.009 286.786Z" fill="#385FD4"/>
<path d="M449.193 249.851C448.709 258.74 436.679 266.846 429.695 268.971C432.992 267.685 445.134 283.656 447.219 287.178C449.324 290.7 453.179 285.929 457.015 276.127C459.808 269.008 464.11 256.727 462.304 248.043C458.17 246.887 453.831 245.9 449.324 245.154C449.287 246.999 449.231 248.621 449.175 249.851H449.193Z" fill="#385FD4"/>
<path d="M406.024 246.533V239.098C399.58 241.93 393.584 244.334 392.932 248.024C391.647 255.274 397.457 276.313 406.024 283.749C406.024 283.749 407.458 285.575 410.102 281.513C412.747 277.45 421.872 268.132 425.019 269.362C418.613 268.002 407.867 259.69 406.024 246.552V246.533Z" fill="url(#paint23_linear_1_349)"/>
<path d="M459.996 245.267C458.208 241.223 452.416 237.943 449.455 236.526C449.455 242.024 449.381 246.925 449.213 249.851C448.729 258.74 436.698 266.847 429.715 268.971C433.011 267.685 445.153 280.619 447.239 284.141C449.343 287.663 451.932 283.563 456.197 273.91C460.536 264.089 462.901 251.845 459.977 245.248L459.996 245.267Z" fill="url(#paint24_linear_1_349)"/>
<path d="M530.127 373.127C530.127 344.745 521.858 287.85 508.748 272.811C508.748 272.811 488.225 283.787 481.745 318.599C479.808 328.998 483.104 358.722 483.961 371.264L530.127 373.127Z" fill="url(#paint25_linear_1_349)"/>
<path d="M450.126 401.062H512.382C521.6 401.062 531.526 393.533 530.129 373.127C528.733 352.721 495.361 355.572 483.963 371.264L449.66 376.5L450.126 401.062Z" fill="url(#paint26_linear_1_349)"/>
<path d="M418.763 399.814L421.706 397.055L430.663 400.224C432.209 400.783 433.848 401.062 435.505 401.062H453.272C453.272 401.062 461.689 399.255 461.95 389.322C462.229 379.389 453.681 376.5 449.957 376.5H430.477C429.509 376.5 428.522 376.407 427.572 376.202L413.717 373.313C411.668 372.885 409.526 373.22 407.72 374.264L399.861 378.774C398.334 379.65 396.937 380.712 395.708 381.96L381.462 396.254C379.693 398.025 380.94 401.062 383.455 401.062H415.598C416.771 401.062 417.888 400.615 418.745 399.814H418.763Z" fill="url(#paint27_linear_1_349)"/>
<path d="M583.873 192.583C570.521 184.868 547.13 206.821 552.177 232.781C557.224 258.74 528.731 290.924 528.731 290.924C528.731 290.924 496.458 303.895 483.496 306.355C486.606 310.772 490.144 317.331 491.765 325.773C512.957 324.022 543.387 319.717 555.678 309.467C574.264 293.981 593.986 236.843 594.004 218.692C594.004 197.578 583.911 192.583 583.911 192.583H583.873Z" fill="url(#paint28_linear_1_349)"/>
<path d="M480.106 306.765H438.372C438.372 306.765 408.576 316.866 407.794 318.599C407.012 320.332 405.466 330.6 407.794 333.023C410.122 335.446 425.206 339.695 429.08 338.931C432.953 338.148 463.141 326.929 470.106 326.929C472.471 326.929 480.907 326.706 491.746 325.811C490.144 317.369 486.587 310.809 483.477 306.393C482.118 306.653 480.982 306.784 480.106 306.784V306.765Z" fill="url(#paint29_linear_1_349)"/>
<path d="M212.648 279.016C212.648 279.016 223.114 287.29 233.804 279.016C244.494 270.741 237.137 256.597 237.137 256.597L212.648 269.642V279.016Z" fill="url(#paint30_linear_1_349)"/>
<path d="M227.733 201.416V263.343H207.602V204.808L227.733 201.416Z" fill="url(#paint31_linear_1_349)"/>
<path d="M194.922 355.273C192.985 365.597 181.979 380.115 174.977 401.061H214.96C218.796 375.884 222.26 342.098 216.785 312.075H193.73C195.853 322.194 196.728 345.545 194.903 355.273H194.922Z" fill="url(#paint32_linear_1_349)"/>
<path d="M156.574 353.018C156.574 353.018 161.193 375.493 164.359 401.061H174.974C181.976 380.115 192.982 365.597 194.919 355.273C196.744 345.545 195.868 322.213 193.745 312.075H157.524L156.574 353.018Z" fill="url(#paint33_linear_1_349)"/>
<path d="M193.747 312.075C193.467 310.771 193.188 309.69 192.872 308.87H123.371C124.321 342.34 126.965 375.661 128.548 401.062H174.994C181.996 380.115 193.002 365.598 194.939 355.273C196.764 345.545 195.888 322.213 193.765 312.075H193.747Z" fill="url(#paint34_linear_1_349)"/>
<path d="M170.746 146.329C129.627 135.296 101.86 153.653 97.2974 180.041C93.1258 204.137 123.369 278.717 123.369 308.889C123.369 308.889 172.105 334.029 216.8 312.094C216.8 312.094 210.096 280.097 216.8 251.77C223.504 223.425 232.425 207.193 224.845 186.862C218.234 169.102 189.965 151.491 170.727 146.329H170.746Z" fill="url(#paint35_linear_1_349)"/>
<path d="M186.109 119.064C186.109 119.064 170.596 138.594 164.041 144.818C157.485 151.043 169.572 163.771 178.734 169.175C184.786 172.753 197.562 176.704 193.781 165.579C193.781 165.579 191.658 159.354 201.957 150.502C201.957 150.502 190.504 116.268 186.09 119.064H186.109Z" fill="url(#paint36_linear_1_349)"/>
<path d="M201.978 150.521C201.978 150.521 196.67 134.662 191.884 125.4L186.837 127.786C180.952 139.88 179.891 162.653 193.802 165.579C193.802 165.579 191.679 159.355 201.978 150.503V150.521Z" fill="#CB9EAE"/>
<path d="M192.218 115.561C193.54 108.107 186.873 107.548 184.787 113.772C182.404 120.872 185.029 125.792 187.767 124.152C187.767 124.152 182.46 140.198 189.145 149.851C195.831 159.504 204.323 155.796 214.975 145.304C224.137 136.284 230.097 125.27 231.009 121.021C233.43 109.952 221.921 100.988 211.139 101.566C197.935 102.274 192.218 115.561 192.218 115.561Z" fill="url(#paint37_linear_1_349)"/>
<path d="M192.219 115.561C191.809 119.94 192.517 123.35 195.105 121.841C197.675 120.35 203.783 111.535 209.352 117.909C214.92 124.282 219.427 130.227 229.297 129.165C242.053 127.804 244.996 110.548 233.766 107.454C233.766 107.454 238.645 101.528 229.967 98.7697C222.015 96.2539 221.699 97.8193 216.149 91.5763C212.946 87.9796 193.764 89.8991 188.531 109.616C188.531 109.616 192.889 108.721 192.237 115.561H192.219Z" fill="#001462"/>
<path d="M129.18 242.88C129.589 234.308 134.897 212.038 142.365 197.819C149.851 183.6 146.182 165.318 136.014 158.162C125.921 151.043 111.767 152.31 105.063 162.225C87.0361 188.855 92.2691 248.732 101.99 268.933C103.927 272.94 108.583 275.549 114.896 277.114C101.208 270.853 114.933 239.619 129.198 242.88H129.18Z" fill="url(#paint38_linear_1_349)"/>
<path d="M182.198 267.275L209.201 234.569C210.374 233.153 212.255 232.556 214.006 233.041L259.837 245.676C260.973 245.993 261.308 247.428 260.433 248.211L225.775 279.519C225.049 280.19 224.025 280.45 223.075 280.208L183.39 270.816C181.788 270.443 181.155 268.524 182.198 267.256V267.275Z" fill="url(#paint39_linear_1_349)"/>
<path d="M214.622 254.323C213.058 249.832 208.57 246.459 205.944 245.713C204.044 245.173 189.91 245.415 182.311 245.583C179.35 245.657 176.482 246.496 173.987 248.061C171.603 249.571 168.605 251.229 167.134 251.229H143.259C143.259 251.229 136.648 246.216 129.18 242.862C114.915 239.601 101.19 270.834 114.878 277.096C137.896 282.799 183.317 274.468 202.405 267.946C206.633 266.492 210.395 263.846 212.927 260.175C214.287 258.199 215.218 256.075 214.603 254.323H214.622Z" fill="url(#paint40_linear_1_349)"/>
<path d="M52.8984 401.043L129.587 400.596L206.258 400.428L359.635 400.111L513.013 400.428L589.702 400.596L666.372 401.043L589.702 401.509L513.013 401.658L359.635 401.975L206.258 401.658L129.587 401.49L52.8984 401.043Z" fill="#001462"/>
<path d="M376.658 406.26H442.043C445.786 406.26 448.84 403.222 448.84 399.458C448.84 397.743 447.462 396.364 445.749 396.364H376.658C374.945 396.364 373.566 397.743 373.566 399.458V403.148C373.566 404.862 374.945 406.241 376.658 406.241V406.26Z" fill="url(#paint41_linear_1_349)"/>
<path d="M260.917 406.26H397.516C402.786 406.26 406.604 401.247 405.207 396.16L381.09 308.329C379.526 302.645 374.367 298.694 368.464 298.694H231.884C226.614 298.694 222.796 303.707 224.193 308.795L248.309 396.626C249.874 402.31 255.032 406.26 260.936 406.26H260.917Z" fill="url(#paint42_linear_1_349)"/>
<path d="M661.55 338.259C659.482 338.818 656.633 341.11 653.486 344.129C650.283 347.129 646.838 350.708 642.48 353.969C639.835 356.019 637.228 357.864 634.695 359.671C632.237 361.516 629.779 363.231 627.656 365.001C623.354 368.449 620.058 371.859 618.922 374.412C620.058 371.878 620.542 367.2 622.684 361.498C623.708 358.646 625.235 355.627 627.246 352.608C629.295 349.645 631.921 346.738 635.142 344.278C640.469 340.29 646.409 338.874 651.121 338.538C655.87 338.147 659.501 338.836 661.55 338.259Z" fill="#0060FF"/>
<path d="M617.245 372.474C617.45 369.921 616.202 365.84 615.383 360.454C614.545 355.087 614.079 348.359 615.718 341.073C617.748 332.165 621.659 324.599 625.383 318.747C629.108 312.858 632.609 308.59 633.969 305.534C632.628 308.59 631.901 314.088 631.119 320.797C630.3 327.524 629.499 335.426 627.581 343.775C626.054 350.596 623.577 356.391 621.417 361.237C619.238 366.063 617.45 369.94 617.264 372.493L617.245 372.474Z" fill="#0060FF"/>
<path d="M579.273 328.456C581.322 329.406 585.233 329.425 590.093 330.879C594.917 332.258 600.764 335.016 605.494 340.234C611.212 346.663 614.117 354.248 615.253 360.547C616.482 366.883 616.128 371.896 616.761 374.766C616.147 371.84 613.484 367.591 609.74 363.063C606.016 358.478 601.23 353.726 596.481 348.359C592.533 344.017 589.572 339.638 586.76 335.948C584.004 332.22 581.378 329.406 579.292 328.456H579.273Z" fill="#0060FF"/>
<path d="M641.716 357.864H601.397C599.256 357.864 597.598 359.728 597.859 361.852L602.776 403.112C602.98 404.901 604.507 406.261 606.314 406.261H636.799C638.606 406.261 640.133 404.901 640.338 403.112L645.254 361.852C645.515 359.728 643.858 357.864 641.716 357.864Z" fill="url(#paint43_linear_1_349)"/>
<path d="M595.867 358.013L597.692 373.294C597.785 374.133 598.512 374.785 599.368 374.785H643.765C644.622 374.785 645.329 374.152 645.441 373.294L647.266 358.013C647.378 357.007 646.596 356.131 645.59 356.131H597.562C596.556 356.131 595.774 357.007 595.886 358.013H595.867Z" fill="url(#paint44_linear_1_349)"/>
</g>
<defs>
<linearGradient id="paint0_linear_1_349" x1="72.9553" y1="-14.5361" x2="72.9553" y2="367.722" gradientUnits="userSpaceOnUse">
<stop offset="0.24" stop-color="#8CC6FF"/>
<stop offset="1" stop-color="#0060FF" stop-opacity="0"/>
</linearGradient>
<linearGradient id="paint1_linear_1_349" x1="656.726" y1="70.7414" x2="656.726" y2="371.17" gradientUnits="userSpaceOnUse">
<stop offset="0.24" stop-color="#8CC6FF"/>
<stop offset="1" stop-color="#0060FF" stop-opacity="0"/>
</linearGradient>
<linearGradient id="paint2_linear_1_349" x1="315.911" y1="66.6034" x2="275.593" y2="410.055" gradientUnits="userSpaceOnUse">
<stop offset="0.08" stop-color="#385FD4"/>
<stop offset="0.21" stop-color="#3257C8"/>
<stop offset="0.45" stop-color="#2344AB"/>
<stop offset="0.75" stop-color="#0C247B"/>
<stop offset="0.9" stop-color="#001462"/>
</linearGradient>
<linearGradient id="paint3_linear_1_349" x1="306.805" y1="172.642" x2="273.562" y2="202.529" gradientUnits="userSpaceOnUse">
<stop stop-color="#F6B3B5"/>
<stop offset="1" stop-color="#FAD1D3"/>
</linearGradient>
<linearGradient id="paint4_linear_1_349" x1="267.456" y1="267.275" x2="281.288" y2="289.499" gradientUnits="userSpaceOnUse">
<stop stop-color="#F6B3B5"/>
<stop offset="1" stop-color="#FAD1D3"/>
</linearGradient>
<linearGradient id="paint5_linear_1_349" x1="360.941" y1="71.8033" x2="320.604" y2="415.479" gradientUnits="userSpaceOnUse">
<stop stop-color="#385FD4"/>
<stop offset="0.16" stop-color="#3257C8"/>
<stop offset="0.44" stop-color="#2344AB"/>
<stop offset="0.81" stop-color="#0C247B"/>
<stop offset="0.99" stop-color="#001462"/>
</linearGradient>
<linearGradient id="paint6_linear_1_349" x1="309.058" y1="214.162" x2="344.094" y2="327.212" gradientUnits="userSpaceOnUse">
<stop stop-color="#385FD4"/>
<stop offset="0.16" stop-color="#3257C8"/>
<stop offset="0.44" stop-color="#2344AB"/>
<stop offset="0.81" stop-color="#0C247B"/>
<stop offset="0.99" stop-color="#001462"/>
</linearGradient>
<linearGradient id="paint7_linear_1_349" x1="282" y1="125.083" x2="266.019" y2="186.427" gradientUnits="userSpaceOnUse">
<stop stop-color="#F6B3B5"/>
<stop offset="1" stop-color="#FAD1D3"/>
</linearGradient>
<linearGradient id="paint8_linear_1_349" x1="268.201" y1="60.994" x2="227.883" y2="404.464" gradientUnits="userSpaceOnUse">
<stop stop-color="#385FD4"/>
<stop offset="0.16" stop-color="#3257C8"/>
<stop offset="0.44" stop-color="#2344AB"/>
<stop offset="0.81" stop-color="#0C247B"/>
<stop offset="0.99" stop-color="#001462"/>
</linearGradient>
<linearGradient id="paint9_linear_1_349" x1="314.07" y1="254.434" x2="203.166" y2="273.845" gradientUnits="userSpaceOnUse">
<stop stop-color="#385FD4"/>
<stop offset="0.16" stop-color="#3257C8"/>
<stop offset="0.44" stop-color="#2344AB"/>
<stop offset="0.81" stop-color="#0C247B"/>
<stop offset="0.99" stop-color="#001462"/>
</linearGradient>
<linearGradient id="paint10_linear_1_349" x1="249.559" y1="215.131" x2="292.354" y2="215.131" gradientUnits="userSpaceOnUse">
<stop stop-color="#F6B3B5"/>
<stop offset="1" stop-color="#FAD1D3"/>
</linearGradient>
<linearGradient id="paint11_linear_1_349" x1="494.466" y1="308.274" x2="494.466" y2="175.698" gradientUnits="userSpaceOnUse">
<stop stop-color="#385FD4"/>
<stop offset="0.28" stop-color="#2C5FDC"/>
<stop offset="0.77" stop-color="#0F5FF3"/>
<stop offset="0.99" stop-color="#0060FF"/>
</linearGradient>
<linearGradient id="paint12_linear_1_349" x1="548.713" y1="428.587" x2="550.131" y2="248.267" gradientUnits="userSpaceOnUse">
<stop stop-color="#001462"/>
<stop offset="0.07" stop-color="#071E71"/>
<stop offset="0.25" stop-color="#183594"/>
<stop offset="0.44" stop-color="#2647B0"/>
<stop offset="0.62" stop-color="#3054C4"/>
<stop offset="0.81" stop-color="#365CD0"/>
<stop offset="1" stop-color="#385FD4"/>
</linearGradient>
<linearGradient id="paint13_linear_1_349" x1="635.517" y1="341.241" x2="506.275" y2="341.241" gradientUnits="userSpaceOnUse">
<stop stop-color="#385FD4"/>
<stop offset="0.17" stop-color="#416AD8"/>
<stop offset="0.48" stop-color="#5987E5"/>
<stop offset="0.88" stop-color="#80B7F8"/>
<stop offset="0.99" stop-color="#8CC6FF"/>
</linearGradient>
<linearGradient id="paint14_linear_1_349" x1="589.404" y1="244.484" x2="589.404" y2="429.444" gradientUnits="userSpaceOnUse">
<stop stop-color="#385FD4"/>
<stop offset="0.17" stop-color="#4F7CE0"/>
<stop offset="0.4" stop-color="#699CED"/>
<stop offset="0.62" stop-color="#7CB3F7"/>
<stop offset="0.82" stop-color="#88C1FD"/>
<stop offset="1" stop-color="#8CC6FF"/>
</linearGradient>
<linearGradient id="paint15_linear_1_349" x1="539.162" y1="290.831" x2="540.131" y2="169.53" gradientUnits="userSpaceOnUse">
<stop stop-color="#385FD4"/>
<stop offset="0.28" stop-color="#2C5FDC"/>
<stop offset="0.77" stop-color="#0F5FF3"/>
<stop offset="0.99" stop-color="#0060FF"/>
</linearGradient>
<linearGradient id="paint16_linear_1_349" x1="530.837" y1="192.527" x2="500.71" y2="213.734" gradientUnits="userSpaceOnUse">
<stop stop-color="#F6B3B5"/>
<stop offset="0.99" stop-color="#FAD1D3"/>
</linearGradient>
<linearGradient id="paint17_linear_1_349" x1="512.94" y1="141.837" x2="490.22" y2="168.974" gradientUnits="userSpaceOnUse">
<stop stop-color="#F6B3B5"/>
<stop offset="0.99" stop-color="#FAD1D3"/>
</linearGradient>
<linearGradient id="paint18_linear_1_349" x1="325.388" y1="-35.2396" x2="325.388" y2="644.931" gradientUnits="userSpaceOnUse">
<stop stop-color="#8CC6FF"/>
<stop offset="1" stop-color="#385FD4"/>
</linearGradient>
<linearGradient id="paint19_linear_1_349" x1="427.312" y1="72.1587" x2="427.312" y2="463.399" gradientUnits="userSpaceOnUse">
<stop stop-color="#8CC6FF"/>
<stop offset="0.17" stop-color="#82BAFA"/>
<stop offset="0.48" stop-color="#6A9DED"/>
<stop offset="0.88" stop-color="#436DDA"/>
<stop offset="0.99" stop-color="#385FD4"/>
</linearGradient>
<linearGradient id="paint20_linear_1_349" x1="456.141" y1="227.227" x2="399.871" y2="249.414" gradientUnits="userSpaceOnUse">
<stop stop-color="#F6B3B5"/>
<stop offset="0.99" stop-color="#FAD1D3"/>
</linearGradient>
<linearGradient id="paint21_linear_1_349" x1="424.874" y1="153.634" x2="416.967" y2="236.6" gradientUnits="userSpaceOnUse">
<stop stop-color="#F6B3B5"/>
<stop offset="0.99" stop-color="#FAD1D3"/>
</linearGradient>
<linearGradient id="paint22_linear_1_349" x1="416.825" y1="313.268" x2="451.919" y2="190.527" gradientUnits="userSpaceOnUse">
<stop stop-color="#8CC6FF"/>
<stop offset="1" stop-color="#F6B3B5"/>
</linearGradient>
<linearGradient id="paint23_linear_1_349" x1="408.892" y1="362.877" x2="408.892" y2="202.199" gradientUnits="userSpaceOnUse">
<stop stop-color="#8CC6FF"/>
<stop offset="1" stop-color="#385FD4"/>
</linearGradient>
<linearGradient id="paint24_linear_1_349" x1="445.488" y1="362.877" x2="445.488" y2="202.199" gradientUnits="userSpaceOnUse">
<stop stop-color="#8CC6FF"/>
<stop offset="1" stop-color="#385FD4"/>
</linearGradient>
<linearGradient id="paint25_linear_1_349" x1="505.638" y1="5.25607" x2="505.638" y2="631.886" gradientUnits="userSpaceOnUse">
<stop stop-color="#8CC6FF"/>
<stop offset="1" stop-color="#385FD4"/>
</linearGradient>
<linearGradient id="paint26_linear_1_349" x1="489.979" y1="5.25597" x2="489.979" y2="631.886" gradientUnits="userSpaceOnUse">
<stop stop-color="#8CC6FF"/>
<stop offset="1" stop-color="#385FD4"/>
</linearGradient>
<linearGradient id="paint27_linear_1_349" x1="421.296" y1="403.112" x2="421.296" y2="368.505" gradientUnits="userSpaceOnUse">
<stop stop-color="#F6B3B5"/>
<stop offset="0.99" stop-color="#FAD1D3"/>
</linearGradient>
<linearGradient id="paint28_linear_1_349" x1="537.987" y1="357.678" x2="539.59" y2="153.243" gradientUnits="userSpaceOnUse">
<stop stop-color="#385FD4"/>
<stop offset="0.28" stop-color="#2C5FDC"/>
<stop offset="0.77" stop-color="#0F5FF3"/>
<stop offset="0.99" stop-color="#0060FF"/>
</linearGradient>
<linearGradient id="paint29_linear_1_349" x1="457.684" y1="352.069" x2="441.872" y2="306.138" gradientUnits="userSpaceOnUse">
<stop stop-color="#F6B3B5"/>
<stop offset="0.99" stop-color="#FAD1D3"/>
</linearGradient>
<linearGradient id="paint30_linear_1_349" x1="273.731" y1="260.38" x2="213.594" y2="273.445" gradientUnits="userSpaceOnUse">
<stop stop-color="#97C4F7"/>
<stop offset="0.02" stop-color="#B4BEE2"/>
<stop offset="0.03" stop-color="#F6B3B5"/>
<stop offset="0.99" stop-color="#0060FF"/>
</linearGradient>
<linearGradient id="paint31_linear_1_349" x1="265.742" y1="223.611" x2="205.605" y2="236.676" gradientUnits="userSpaceOnUse">
<stop stop-color="#97C4F7"/>
<stop offset="0.02" stop-color="#B4BEE2"/>
<stop offset="0.03" stop-color="#F6B3B5"/>
<stop offset="0.99" stop-color="#0060FF"/>
</linearGradient>
<linearGradient id="paint32_linear_1_349" x1="72.1971" y1="332.798" x2="392.489" y2="394.251" gradientUnits="userSpaceOnUse">
<stop offset="0.1" stop-color="#001462"/>
<stop offset="0.3" stop-color="#132E89"/>
<stop offset="0.49" stop-color="#2343AA"/>
<stop offset="0.68" stop-color="#2E52C1"/>
<stop offset="0.85" stop-color="#355BCF"/>
<stop offset="1" stop-color="#385FD4"/>
</linearGradient>
<linearGradient id="paint33_linear_1_349" x1="71.5982" y1="335.929" x2="391.89" y2="397.363" gradientUnits="userSpaceOnUse">
<stop offset="0.1" stop-color="#001462"/>
<stop offset="0.3" stop-color="#132E89"/>
<stop offset="0.49" stop-color="#2343AA"/>
<stop offset="0.68" stop-color="#2E52C1"/>
<stop offset="0.85" stop-color="#355BCF"/>
<stop offset="1" stop-color="#385FD4"/>
</linearGradient>
<linearGradient id="paint34_linear_1_349" x1="50.9282" y1="241.036" x2="336.548" y2="537.035" gradientUnits="userSpaceOnUse">
<stop offset="0.1" stop-color="#001462"/>
<stop offset="0.3" stop-color="#132E89"/>
<stop offset="0.49" stop-color="#2343AA"/>
<stop offset="0.68" stop-color="#2E52C1"/>
<stop offset="0.85" stop-color="#355BCF"/>
<stop offset="1" stop-color="#385FD4"/>
</linearGradient>
<linearGradient id="paint35_linear_1_349" x1="292.204" y1="65.5423" x2="117.033" y2="294.012" gradientUnits="userSpaceOnUse">
<stop stop-color="#F6B3B5"/>
<stop offset="0.09" stop-color="#EAAFB8"/>
<stop offset="0.24" stop-color="#CDA5C1"/>
<stop offset="0.45" stop-color="#9C94CF"/>
<stop offset="0.69" stop-color="#597EE3"/>
<stop offset="0.97" stop-color="#0561FD"/>
<stop offset="0.99" stop-color="#0060FF"/>
</linearGradient>
<linearGradient id="paint36_linear_1_349" x1="178.66" y1="122.362" x2="185.149" y2="174.97" gradientUnits="userSpaceOnUse">
<stop stop-color="#F6B3B5"/>
<stop offset="1" stop-color="#FAD1D3"/>
</linearGradient>
<linearGradient id="paint37_linear_1_349" x1="231.605" y1="93.198" x2="182.999" y2="148.252" gradientUnits="userSpaceOnUse">
<stop stop-color="#F6B3B5"/>
<stop offset="1" stop-color="#FAD1D3"/>
</linearGradient>
<linearGradient id="paint38_linear_1_349" x1="211.269" y1="-104.957" x2="75.4292" y2="332.782" gradientUnits="userSpaceOnUse">
<stop stop-color="#F6B3B5"/>
<stop offset="0.09" stop-color="#EAAFB8"/>
<stop offset="0.24" stop-color="#CDA5C1"/>
<stop offset="0.45" stop-color="#9C94CF"/>
<stop offset="0.69" stop-color="#597EE3"/>
<stop offset="0.97" stop-color="#0561FD"/>
<stop offset="0.99" stop-color="#0060FF"/>
</linearGradient>
<linearGradient id="paint39_linear_1_349" x1="168.789" y1="289.619" x2="269.62" y2="222.074" gradientUnits="userSpaceOnUse">
<stop stop-color="#001462"/>
<stop offset="0.12" stop-color="#0E277F"/>
<stop offset="0.27" stop-color="#1D3B9E"/>
<stop offset="0.42" stop-color="#294BB5"/>
<stop offset="0.59" stop-color="#3156C6"/>
<stop offset="0.77" stop-color="#365CD0"/>
<stop offset="1" stop-color="#385FD4"/>
</linearGradient>
<linearGradient id="paint40_linear_1_349" x1="162.031" y1="277.674" x2="162.031" y2="244.558" gradientUnits="userSpaceOnUse">
<stop stop-color="#F6B3B5"/>
<stop offset="1" stop-color="#FAD1D3"/>
</linearGradient>
<linearGradient id="paint41_linear_1_349" x1="410.421" y1="402.067" x2="422.131" y2="367.633" gradientUnits="userSpaceOnUse">
<stop stop-color="#001462"/>
<stop offset="0.12" stop-color="#0E277F"/>
<stop offset="0.27" stop-color="#1D3B9E"/>
<stop offset="0.42" stop-color="#294BB5"/>
<stop offset="0.59" stop-color="#3156C6"/>
<stop offset="0.77" stop-color="#365CD0"/>
<stop offset="1" stop-color="#385FD4"/>
</linearGradient>
<linearGradient id="paint42_linear_1_349" x1="318.48" y1="398.992" x2="304.251" y2="224.637" gradientUnits="userSpaceOnUse">
<stop stop-color="#001462"/>
<stop offset="0.12" stop-color="#0E277F"/>
<stop offset="0.27" stop-color="#1D3B9E"/>
<stop offset="0.42" stop-color="#294BB5"/>
<stop offset="0.59" stop-color="#3156C6"/>
<stop offset="0.77" stop-color="#365CD0"/>
<stop offset="1" stop-color="#385FD4"/>
</linearGradient>
<linearGradient id="paint43_linear_1_349" x1="682.221" y1="382.054" x2="552.345" y2="382.054" gradientUnits="userSpaceOnUse">
<stop stop-color="#0060FF"/>
<stop offset="0.09" stop-color="#0B63FB"/>
<stop offset="0.25" stop-color="#286DF2"/>
<stop offset="0.45" stop-color="#587DE4"/>
<stop offset="0.7" stop-color="#9B94D0"/>
<stop offset="0.98" stop-color="#EFB0B6"/>
<stop offset="1" stop-color="#F6B3B5"/>
</linearGradient>
<linearGradient id="paint44_linear_1_349" x1="705.798" y1="365.449" x2="565.158" y2="365.449" gradientUnits="userSpaceOnUse">
<stop stop-color="#0060FF"/>
<stop offset="0.09" stop-color="#0B63FB"/>
<stop offset="0.25" stop-color="#286DF2"/>
<stop offset="0.45" stop-color="#587DE4"/>
<stop offset="0.7" stop-color="#9B94D0"/>
<stop offset="0.98" stop-color="#EFB0B6"/>
<stop offset="1" stop-color="#F6B3B5"/>
</linearGradient>
<clipPath id="clip0_1_349">
<rect width="714" height="406" fill="white" transform="translate(0.0273438 0.260742)"/>
</clipPath>
</defs>
</svg>
