<svg width="1200" height="1200" viewBox="0 0 1200 1200" fill="none" xmlns="http://www.w3.org/2000/svg">
<rect width="1200" height="1200" fill="white"/>
<path fill-rule="evenodd" clip-rule="evenodd" d="M301.939 700.427H216.286C170.191 700.427 132.468 738.151 132.468 784.245C132.468 830.339 170.175 868.063 216.286 868.063H940.533C1015.17 868.063 1076.25 806.983 1076.25 732.343C1076.25 657.703 1015.17 596.624 940.533 596.624C908.965 596.624 883.156 570.8 883.156 539.232C883.156 507.664 908.981 481.84 940.549 481.84H1009.62C1042.44 481.84 1069.27 454.987 1069.27 422.185C1069.27 389.366 1042.42 362.53 1009.62 362.53H922.288C909.519 362.53 899.059 352.07 899.059 339.3C899.059 326.531 909.519 316.071 922.288 316.071H937.685C946.498 316.071 953.714 308.856 953.714 300.042C953.714 291.228 946.498 284.013 937.685 284.013H836.667C815.384 284.013 813.026 309.141 759.289 309.141H604.455C592.951 309.141 583.536 318.556 583.536 330.059C583.536 341.563 592.951 350.978 604.455 350.978H624.535C641.213 350.978 654.837 364.618 654.837 381.281C654.837 397.943 641.197 411.583 624.535 411.583H594.312C512.678 411.583 501.142 432.913 486.854 475.352C472.549 517.791 398.305 521.209 398.305 521.209H296.764C271.637 521.209 251.098 541.764 251.098 566.876C251.098 592.004 271.652 612.543 296.764 612.543H301.986C326.149 612.543 345.913 632.306 345.913 656.469C345.913 680.632 326.149 700.396 301.986 700.396L301.939 700.427ZM982.64 316.071C973.778 316.071 966.61 308.887 966.61 300.042C966.61 291.197 973.794 284.013 982.64 284.013C991.485 284.013 998.669 291.197 998.669 300.042C998.669 308.887 991.485 316.071 982.64 316.071Z" fill="#E2E8F5"/>
<path fill-rule="evenodd" clip-rule="evenodd" d="M309.155 868.044H316.498V823.485L344.316 851.303L327.574 868.044H334.489L347.781 854.768L361.057 868.044H367.972L351.231 851.303L379.048 823.485V868.044H386.391V521.206H379.048V529.656L370.599 521.206H363.684L379.048 536.571V536.998L347.765 568.281L316.482 536.998V536.571L331.847 521.206H324.932L316.482 529.656V521.206H309.14V613.157C311.656 613.584 314.124 614.217 316.482 615.056V613.806L318.507 615.816C329.394 620.294 338.129 629.028 342.607 639.915L344.316 641.624L343.54 642.399C344.142 644.171 344.632 645.991 345.012 647.843L347.765 645.089L379.048 676.373V676.8L347.765 708.083L329.964 690.282C328.698 691.342 327.368 692.323 325.992 693.225L344.316 711.548L316.498 739.366V697.956C314.14 698.795 311.687 699.428 309.155 699.855V868.076V868.044ZM316.498 809.228V753.592L344.316 781.41L316.498 809.228ZM316.498 599.549V543.913L344.316 571.731L316.498 599.549ZM379.048 543.913V599.549L351.231 571.731L379.048 543.913ZM379.048 613.806V669.442L351.231 641.624L379.048 613.806ZM379.048 683.699V739.335L351.231 711.517L379.048 683.699ZM379.048 753.592V809.228L351.231 781.41L379.048 753.592ZM316.498 606.464L347.781 575.18L379.064 606.464V606.891L347.781 638.174L316.498 606.891V606.464ZM316.498 746.25L347.781 714.966L379.064 746.25V746.677L347.781 777.96L316.498 746.677V746.25ZM316.498 816.143L347.781 784.859L379.064 816.143V816.57L347.781 847.853L316.498 816.57V816.143Z" fill="#BFCCE8"/>
<path fill-rule="evenodd" clip-rule="evenodd" d="M822.331 868.046H829.673V823.487L857.491 851.304L840.75 868.046H847.665L860.957 854.77L874.248 868.046H881.163L864.422 851.304L892.24 823.487V868.046H899.582V579.312C896.845 576.511 894.376 573.426 892.24 570.119V599.551L864.422 571.733L884.518 551.637C884.091 549.69 883.758 547.712 883.521 545.719L860.957 568.283L829.673 537V536.573L860.957 505.289L884.17 528.503C884.534 526.62 884.977 524.752 885.531 522.948L864.422 501.84L892.24 474.022V508.343C894.376 505.036 896.829 501.951 899.582 499.15V344.252C899.234 342.654 899.044 341.008 899.044 339.299C899.044 337.606 899.234 335.945 899.582 334.347V284.012H892.24V319.979L864.422 292.161L872.571 284.012H865.656L860.957 288.711L856.257 284.012H849.342L857.491 292.161L829.673 319.979V285.009C827.078 285.784 824.705 286.971 822.331 288.411V868.062V868.046ZM829.673 809.229V753.594L857.491 781.412L829.673 809.229ZM829.673 739.337V683.701L857.491 711.519L829.673 739.337ZM829.673 669.444V613.808L857.491 641.626L829.673 669.444ZM829.673 599.551V543.915L857.491 571.733L829.673 599.551ZM829.673 529.658V474.022L857.491 501.84L829.673 529.658ZM829.673 459.765V404.129L857.491 431.947L829.673 459.765ZM829.673 389.872V334.236L857.491 362.054L829.673 389.872ZM892.224 334.236V389.872L864.406 362.054L892.224 334.236ZM892.224 404.129V459.765L864.406 431.947L892.224 404.129ZM892.224 613.808V669.444L864.406 641.626L892.224 613.808ZM892.224 683.701V739.337L864.406 711.519L892.224 683.701ZM892.224 753.594V809.229L864.406 781.412L892.224 753.594ZM829.673 326.894L860.957 295.61L892.24 326.894V327.321L860.957 358.604L829.673 327.321V326.894ZM829.673 396.787L860.957 365.503L892.24 396.787V397.214L860.957 428.497L829.673 397.214V396.787ZM829.673 466.68L860.957 435.396L892.24 466.68V467.107L860.957 498.39L829.673 467.107V466.68ZM829.673 606.466L860.957 575.182L892.24 606.466V606.893L860.957 638.176L829.673 606.893V606.466ZM829.673 676.359L860.957 645.075L892.24 676.359V676.786L860.957 708.069L829.673 676.786V676.359ZM829.673 746.251L860.957 714.968L892.24 746.251V746.679L860.957 777.962L829.673 746.679V746.251ZM829.673 816.144L860.957 784.861L892.24 816.144V816.572L860.957 847.855L829.673 816.572V816.144Z" fill="#BFCCE8"/>
<path fill-rule="evenodd" clip-rule="evenodd" d="M283.173 700.429H272.365V713.689L259.105 700.429H248.915L272.365 723.879V724.496L226.271 770.575L180.177 724.496V723.879L202.472 701.584C197.757 702.375 193.168 703.562 188.753 705.113L180.177 713.689V708.657C176.411 710.461 172.803 712.55 169.369 714.891V853.601C172.803 855.927 176.411 858.016 180.177 859.836V837.683L210.336 867.859C212.299 868.001 214.277 868.064 216.27 868.064H220.748L180.177 827.492V826.875L226.271 780.781L272.365 826.875V827.492L231.793 868.064H241.984L272.365 837.683V868.064H283.173V700.429ZM283.173 523.283C272.318 526.669 263.172 534.027 257.443 543.632L272.349 528.727V605.503C275.688 607.623 279.312 609.316 283.157 610.519V523.283H283.173ZM180.192 816.685V734.703L221.192 775.686L180.192 816.685ZM272.365 734.703V816.685L231.366 775.686L272.365 734.703Z" fill="#BFCCE8"/>
<path fill-rule="evenodd" clip-rule="evenodd" d="M925.547 868.05H936.355V837.669L964.584 865.898C967.416 865.392 970.201 864.775 972.97 864.094L936.355 827.478V826.861L982.433 780.767L1028.51 826.861V827.478L1003.6 852.385C1016.98 845.312 1029.03 836.055 1039.32 825.121V639.557C1034.65 634.588 1029.62 629.968 1024.27 625.743L982.417 667.596L936.339 621.518V620.901L959.299 597.941C956.261 597.514 953.175 597.181 950.074 596.975L936.339 610.71V596.485C932.62 596.216 929.012 595.583 925.531 594.634V868.066L925.547 868.05ZM925.547 483.837C929.028 482.887 932.652 482.254 936.355 481.985V425.716L977.338 466.715L962.21 481.843H972.401L982.433 471.811L992.465 481.843H1002.66L987.528 466.715L1028.51 425.716V478.741C1032.29 477.46 1035.92 475.814 1039.32 473.836V370.524C1035.92 368.546 1032.29 366.9 1028.51 365.618V404.718L987.528 363.735L988.731 362.533H976.119L977.322 363.735L936.339 404.718V362.517H925.531V483.837H925.547ZM925.547 316.059H937.652C938.364 316.059 939.06 316.011 939.741 315.916L936.355 312.53V311.913L952.969 295.298C952.21 292.877 950.897 290.693 949.172 288.905L936.355 301.722V284H925.547V316.059ZM936.355 816.655V734.673L977.338 775.656L936.355 816.655ZM936.355 713.659V631.677L977.338 672.66L936.355 713.659ZM1028.53 631.677V713.659L987.544 672.66L1028.53 631.677ZM1028.53 734.657V816.639L987.544 775.64L1028.53 734.657ZM936.355 414.877L982.433 368.799L1028.51 414.877V415.494L982.433 461.589L936.355 415.494V414.877ZM936.355 723.834L982.433 677.739L1028.51 723.834V724.451L982.433 770.529L936.355 724.451V723.834Z" fill="#BFCCE8"/>
<path d="M341.027 734.652H267.304C264.307 734.652 261.877 737.082 261.877 740.08V792.076C261.877 795.074 264.307 797.504 267.304 797.504H341.027C344.024 797.504 346.454 795.074 346.454 792.076V740.08C346.454 737.082 344.024 734.652 341.027 734.652Z" fill="#90A9D5"/>
<path d="M389.401 734.652H315.678C312.681 734.652 310.251 737.082 310.251 740.08V792.076C310.251 795.074 312.681 797.504 315.678 797.504H389.401C392.398 797.504 394.828 795.074 394.828 792.076V740.08C394.828 737.082 392.398 734.652 389.401 734.652Z" fill="#B6C7E6"/>
<path d="M325.251 755.396H379.827C381.535 755.396 382.928 756.788 382.928 758.497V773.624C382.928 775.333 381.535 776.726 379.827 776.726H325.251C323.542 776.726 322.149 775.333 322.149 773.624V758.497C322.149 756.788 323.542 755.396 325.251 755.396Z" fill="#90A9D5"/>
<path d="M329.159 759.019H355.996C356.376 759.019 356.676 759.319 356.676 759.699V763.006C356.676 763.386 356.376 763.686 355.996 763.686H329.159C328.779 763.686 328.479 763.386 328.479 763.006V759.699C328.479 759.319 328.779 759.019 329.159 759.019Z" fill="#E6E4EB"/>
<path d="M329.159 766.398H342.419C342.799 766.398 343.1 766.699 343.1 767.079V770.386C343.1 770.766 342.799 771.066 342.419 771.066H329.159C328.779 771.066 328.479 770.766 328.479 770.386V767.079C328.479 766.699 328.779 766.398 329.159 766.398Z" fill="#E6E4EB"/>
<path d="M315.565 797.489H403.893C407.484 797.489 410.396 800.401 410.396 803.993V866.29C410.396 869.882 407.484 872.794 403.893 872.794H315.565C311.973 872.794 309.062 869.882 309.062 866.29V803.993C309.062 800.401 311.973 797.489 315.565 797.489Z" fill="#90A9D5"/>
<path d="M257.62 797.489H345.947C349.539 797.489 352.451 800.401 352.451 803.993V866.29C352.451 869.882 349.539 872.794 345.947 872.794H257.62C254.028 872.794 251.116 869.882 251.116 866.29V803.993C251.116 800.401 254.028 797.489 257.62 797.489Z" fill="#B6C7E6"/>
<path d="M334.476 822.362H269.077C267.023 822.362 265.358 824.027 265.358 826.081V844.215C265.358 846.268 267.023 847.933 269.077 847.933H334.476C336.53 847.933 338.195 846.268 338.195 844.215V826.081C338.195 824.027 336.53 822.362 334.476 822.362Z" fill="#90A9D5"/>
<path d="M329.793 826.702H297.623C297.178 826.702 296.816 827.063 296.816 827.509V831.481C296.816 831.927 297.178 832.288 297.623 832.288H329.793C330.239 832.288 330.6 831.927 330.6 831.481V827.509C330.6 827.063 330.239 826.702 329.793 826.702Z" fill="#E6E4EB"/>
<path d="M329.807 835.54H313.905C313.459 835.54 313.098 835.901 313.098 836.347V840.319C313.098 840.764 313.459 841.126 313.905 841.126H329.807C330.253 841.126 330.614 840.764 330.614 840.319V836.347C330.614 835.901 330.253 835.54 329.807 835.54Z" fill="#E6E4EB"/>
<path fill-rule="evenodd" clip-rule="evenodd" d="M1087.66 321.69C1087.66 320.74 1086.89 319.949 1085.92 319.949C1084.95 319.949 1084.18 320.725 1084.18 321.69V325.772H1080.1C1079.13 325.772 1078.36 326.548 1078.36 327.513C1078.36 328.478 1079.13 329.254 1080.1 329.254H1084.18V333.336C1084.18 334.285 1084.95 335.077 1085.92 335.077C1086.89 335.077 1087.66 334.301 1087.66 333.336V329.254H1091.74C1092.69 329.254 1093.48 328.478 1093.48 327.513C1093.48 326.548 1092.71 325.772 1091.74 325.772H1087.66V321.69Z" fill="#BFCCE8"/>
<path fill-rule="evenodd" clip-rule="evenodd" d="M566.525 433.297C566.525 432.332 565.75 431.557 564.784 431.557C563.819 431.557 563.044 432.332 563.044 433.297V437.38H558.961C557.996 437.38 557.221 438.155 557.221 439.12C557.221 440.086 557.996 440.861 558.961 440.861H563.044V444.943C563.044 445.893 563.819 446.684 564.784 446.684C565.75 446.684 566.525 445.909 566.525 444.943V440.861H570.607C571.573 440.861 572.348 440.086 572.348 439.12C572.348 438.155 571.573 437.38 570.607 437.38H566.525V433.297Z" fill="#BFCCE8"/>
<path fill-rule="evenodd" clip-rule="evenodd" d="M573.6 625.33C573.6 624.381 572.825 623.59 571.86 623.59C570.894 623.59 570.119 624.365 570.119 625.33V629.413H566.036C565.071 629.413 564.296 630.188 564.296 631.154C564.296 632.119 565.071 632.894 566.036 632.894H570.119V636.977C570.119 637.942 570.894 638.717 571.86 638.717C572.825 638.717 573.6 637.942 573.6 636.977V632.894H577.683C578.632 632.894 579.423 632.119 579.423 631.154C579.423 630.188 578.648 629.413 577.683 629.413H573.6V625.33Z" fill="#BFCCE8"/>
<path fill-rule="evenodd" clip-rule="evenodd" d="M421.597 539.327C421.597 538.377 420.822 537.586 419.857 537.586C418.891 537.586 418.116 538.361 418.116 539.327V543.409H414.034C413.084 543.409 412.293 544.184 412.293 545.15C412.293 546.115 413.068 546.89 414.034 546.89H418.116V550.973C418.116 551.938 418.891 552.713 419.857 552.713C420.822 552.713 421.597 551.938 421.597 550.973V546.89H425.68C426.629 546.89 427.42 546.115 427.42 545.15C427.42 544.184 426.645 543.409 425.68 543.409H421.597V539.327Z" fill="#BFCCE8"/>
<path fill-rule="evenodd" clip-rule="evenodd" d="M998.115 529.067C998.115 528.117 997.339 527.326 996.374 527.326C995.409 527.326 994.634 528.102 994.634 529.067V533.149H990.551C989.586 533.149 988.811 533.925 988.811 534.89C988.811 535.855 989.586 536.63 990.551 536.63H994.634V540.713C994.634 541.678 995.409 542.454 996.374 542.454C997.339 542.454 998.115 541.678 998.115 540.713V536.63H1002.2C1003.16 536.63 1003.94 535.855 1003.94 534.89C1003.94 533.925 1003.16 533.149 1002.2 533.149H998.115V529.067Z" fill="#BFCCE8"/>
<path fill-rule="evenodd" clip-rule="evenodd" d="M743.738 656.981C743.738 656.981 754.071 660.399 762.22 670.305C766.825 675.907 823.22 783.919 826.844 790.96C830.467 798.002 830.452 815.772 821.907 826.706C818.584 830.962 809.058 842.846 798.63 855.805H764.847C777.11 837.402 793.124 813.335 794.279 811.388C796.162 808.224 797.095 805.154 793.677 799.806C790.244 794.457 745.115 739.423 745.115 739.423C745.115 739.423 722.93 677.394 743.738 656.981Z" fill="#0F1630" stroke="#0E1632" stroke-width="0.34812" stroke-miterlimit="22.93"/>
<path fill-rule="evenodd" clip-rule="evenodd" d="M684.431 648.292C684.431 648.292 741.285 656.378 743.738 656.979C746.191 657.58 750.336 663.309 752.567 667.17C754.799 671.031 757.425 726.524 758.707 742.063C759.989 757.602 754.973 825.343 756.46 843.54C756.713 846.562 757.172 850.803 757.773 855.803H587.701C585.517 835.675 570.358 772.729 569.108 757.602C567.842 742.063 561.386 686.87 562.969 682.708C564.551 678.547 567.716 672.217 570.026 671.22C572.352 670.224 627.798 652.944 627.798 652.944L656.217 656.077L684.415 648.292H684.431Z" fill="#CEC9D0"/>
<path fill-rule="evenodd" clip-rule="evenodd" d="M684.431 648.292C684.431 648.292 688.197 648.83 693.83 649.637C693.577 651.014 692.913 652.311 691.884 653.498C669.794 678.816 647.214 680.667 621.295 659.289C620.076 658.277 619.222 657.106 618.731 655.777C624.159 654.083 627.798 652.944 627.798 652.944L656.218 656.077L684.415 648.292H684.431Z" fill="white"/>
<path fill-rule="evenodd" clip-rule="evenodd" d="M674.479 593.526L674.969 607.689C674.969 607.689 677.343 636.567 677.691 640.966C677.865 643.086 680.318 645.966 684.416 648.308C665.823 669.606 649.604 670.936 627.783 652.944C631.454 649.969 633.401 646.725 633.227 644.605C632.863 640.222 630.505 611.328 630.505 611.328L628.685 597.277C628.685 597.277 640.094 598.163 651.93 599.777C663.339 596.264 674.463 593.526 674.463 593.526H674.479Z" fill="#E8685B"/>
<path fill-rule="evenodd" clip-rule="evenodd" d="M689.13 648.958C689.13 648.958 682.563 677.377 682.073 683.153C681.582 688.929 673.86 747.144 674.667 756.986C675.031 761.464 683.924 806.941 693.608 855.804H771.081C769.182 843.889 767.552 833.636 766.666 827.828C763.517 806.989 761.413 763.664 762.093 736.906C762.773 710.148 756.127 669.988 755.336 666.174C754.545 662.361 746.95 657.598 744.592 656.712L689.13 648.958Z" fill="url(#paint0_linear_81_132)"/>
<path fill-rule="evenodd" clip-rule="evenodd" d="M680.65 695.316C678.324 714.494 674.052 749.544 674.669 756.981C674.669 756.981 712.345 715.966 711.775 711.915C711.205 707.864 695.872 677.688 695.872 677.688C695.872 677.688 689.29 685.268 680.65 695.3V695.316Z" fill="#3D4155"/>
<path fill-rule="evenodd" clip-rule="evenodd" d="M687.231 648.689C687.231 648.689 688.893 647.201 689.494 647.154C690.095 647.106 700.317 650.572 700.317 650.572C700.317 650.572 715.223 674.022 715.476 677.013C715.714 680.004 678.86 710.163 678.86 710.163L682.136 682.583C682.136 682.583 687.484 655.619 689.13 648.974L687.247 648.705L687.231 648.689Z" fill="#545A6C"/>
<path fill-rule="evenodd" clip-rule="evenodd" d="M570.691 671.161C570.691 671.161 561.054 676.225 554.63 687.317C550.991 693.583 512.951 809.349 510.514 816.881C508.093 824.413 510.988 841.946 521.195 851.361C522.302 852.373 523.98 853.908 526.1 855.823H568.254C557.083 843.844 546.971 832.974 545.959 831.755C543.585 828.939 542.161 826.059 544.677 820.22C547.193 814.381 582.764 752.732 582.764 752.732C582.764 752.732 594.553 687.918 570.691 671.161Z" fill="url(#paint1_linear_81_132)"/>
<path fill-rule="evenodd" clip-rule="evenodd" d="M623.274 654.373C623.274 654.373 634.382 681.337 635.806 686.954C637.23 692.571 654.32 748.745 655.127 758.587C655.491 762.955 654.177 807.324 652.627 855.808H575.993C575.961 850.744 575.93 846.504 575.882 843.465C575.597 822.388 570.629 779.301 565.581 753.002C560.549 726.719 560.565 686.004 560.739 682.128C560.897 678.235 567.622 672.301 569.79 671.051L623.258 654.373H623.274Z" fill="url(#paint2_linear_81_132)"/>
<path fill-rule="evenodd" clip-rule="evenodd" d="M639.193 698.722C644.62 717.267 654.526 751.162 655.143 758.599C655.143 758.599 611.296 724.261 611.201 720.179C611.106 716.096 621.312 683.832 621.312 683.832C621.312 683.832 629.034 690.225 639.193 698.738V698.722Z" fill="#3D4155"/>
<path fill-rule="evenodd" clip-rule="evenodd" d="M625.091 653.786C625.091 653.786 623.208 652.584 622.607 652.631C622.006 652.679 612.48 657.758 612.48 657.758C612.48 657.758 601.577 683.313 601.831 686.32C602.068 689.31 643.352 713.078 643.352 713.078L635.646 686.399C635.646 686.399 625.977 660.67 623.272 654.372L625.091 653.802V653.786Z" fill="#545A6C"/>
<path fill-rule="evenodd" clip-rule="evenodd" d="M604.204 602.155C603.919 602.219 603.634 602.298 603.365 602.377C598.27 603.943 594.741 608.849 595.137 614.403C595.596 620.843 601.197 625.685 607.637 625.226C614.078 624.767 618.92 619.166 618.461 612.725C618.192 608.975 616.182 605.779 613.286 603.833C613.903 607.25 613.745 611.555 609.394 612.377L608.903 605.652C608.713 602.931 606.055 601.902 604.204 602.155Z" fill="#E8685B"/>
<path fill-rule="evenodd" clip-rule="evenodd" d="M688.275 594.494C688.56 594.494 688.861 594.526 689.146 594.558C694.431 595.175 698.798 599.368 699.415 604.89C700.127 611.315 695.491 617.091 689.066 617.803C682.642 618.515 676.867 613.878 676.154 607.454C675.743 603.72 677.135 600.207 679.636 597.786C679.651 601.251 680.585 605.46 685.016 605.476L684.272 598.767C683.971 596.045 686.392 594.573 688.26 594.479L688.275 594.494Z" fill="#E8685B"/>
<path fill-rule="evenodd" clip-rule="evenodd" d="M640.931 540.14C619 542.134 602.702 561.724 604.695 583.655L608.003 619.923C609.996 641.854 629.586 658.169 651.517 656.159C673.449 654.165 689.763 634.576 687.754 612.644L684.446 576.376C682.453 554.445 662.863 538.131 640.931 540.14Z" fill="#F4AD85"/>
<path fill-rule="evenodd" clip-rule="evenodd" d="M607.164 565.807C605.044 571.329 604.126 577.389 604.696 583.656L608.003 619.923C609.886 640.573 627.371 656.239 647.72 656.333C624.539 654.545 620.251 627.155 618.478 612.724C616.706 598.292 622.118 595.064 624.254 594.352C626.406 593.64 660.063 588.055 667.516 587.184C674.969 586.33 678.719 590.46 678.719 590.46L681.852 585.903L678.845 576.155C678.845 576.155 681.409 576.234 684.447 576.155C684.194 573.56 683.703 571.028 682.975 568.623C678.671 567.104 673.829 565.269 669.826 562.689C660.949 556.961 618.542 564.129 611.658 564.129C610.63 564.129 609.079 564.746 607.18 565.807H607.164Z" fill="#ED9072"/>
<path fill-rule="evenodd" clip-rule="evenodd" d="M681.963 595.62C681.963 595.62 682.201 598.278 682.438 600.762C682.66 603.231 685.207 605.794 687.106 605.62L686.6 600.003C686.6 600.003 687.027 595.794 692.138 595.319C706.189 575.84 701.506 547.389 683.388 534.066C665.269 520.742 629.207 523.068 623.115 525.743C617.023 528.417 611.517 539.667 611.517 539.667C611.517 539.667 605.741 535.395 601.026 538.322C596.294 541.25 582.591 573.989 583.303 581.79C584.015 589.591 600.535 603.69 600.535 603.69C605.646 603.231 606.833 607.298 606.833 607.298L607.339 612.915C609.238 612.741 611.279 609.766 611.058 607.298C610.836 604.829 610.583 602.155 610.583 602.155C610.757 602.06 610.931 601.949 611.105 601.854C615.947 598.705 614.982 589.116 614.982 589.116L610.52 582.882L619.365 571.251L629.54 567.897L652.658 568.783C652.658 568.783 679.922 572.169 677.533 580.113C675.143 588.056 681.932 595.651 681.932 595.651L681.963 595.62Z" fill="#0E1632"/>
<path fill-rule="evenodd" clip-rule="evenodd" d="M681.961 595.617C682.246 598.671 684.288 612.311 687.848 611.994C698.45 589.651 708.245 566.327 692.453 543.446C690.601 558.178 675.917 567.166 661.233 570.252C669.002 571.945 679.066 575.125 677.578 580.078C675.189 588.021 681.977 595.617 681.977 595.617H681.961ZM584.314 574.919C583.554 577.863 583.159 580.284 583.301 581.771C583.855 587.784 603.888 616.836 608.334 623.435C610.644 623.229 610.961 606.013 610.597 602.12C610.771 602.025 610.945 601.915 611.119 601.82C615.961 598.671 614.996 589.082 614.996 589.082L610.534 582.847L619.379 571.217L629.095 568.02C624.205 566.042 622.797 563.97 622.797 563.97C602.733 584.271 591.086 583.164 584.314 574.919Z" fill="#010518"/>
<path fill-rule="evenodd" clip-rule="evenodd" d="M600.866 596.248C600.866 596.248 584.093 559.885 617.829 553.666C617.829 553.666 626.753 536.039 644.65 540.453C662.546 544.868 673.75 544.758 681.772 536.846C681.772 536.846 686.377 545.501 680.791 553.081C697.738 566.23 691.852 583.082 684.921 592.165C682.152 573.319 632.482 594.301 625.994 576.183C625.345 593.494 607.195 589.19 600.866 596.248Z" fill="#0E1632"/>
<path fill-rule="evenodd" clip-rule="evenodd" d="M600.866 596.258C600.866 596.258 597.527 588.995 596.831 580.418C603.35 579.801 611.816 575.117 622.813 563.993C622.813 563.993 627.307 570.592 648.02 571.446C660.616 571.968 676.614 567.3 685.633 557.601C696.425 569.896 691.092 584.105 684.921 592.191C682.152 573.345 632.497 594.327 625.994 576.209C625.345 593.52 607.196 589.216 600.866 596.274V596.258Z" fill="#010518"/>
<path fill-rule="evenodd" clip-rule="evenodd" d="M1088.55 600.167C1081.46 573.568 1056.67 588.189 1046.06 610.975C1035.46 633.745 1011.14 722.595 990.128 745.586C981.979 754.495 984.479 755.255 991.964 750.903C1029.31 729.256 1098.31 636.783 1088.55 600.167Z" fill="#05304B"/>
<path fill-rule="evenodd" clip-rule="evenodd" d="M985.096 752.498C984.843 753.701 985.966 753.748 988.086 752.862C1044.72 704.964 1074.78 597.901 1074.88 597.569C1075.05 596.984 1074.7 596.366 1074.12 596.192C1073.53 596.018 1072.92 596.366 1072.74 596.952C1072.65 597.3 1042.16 705.818 985.08 752.482L985.096 752.498Z" fill="#0076BD"/>
<path fill-rule="evenodd" clip-rule="evenodd" d="M1025.79 614.34C1013.42 594.94 997.375 612.853 994.685 633.677C991.995 654.5 995.08 731.403 984.146 755.028C979.906 764.19 982.089 764.158 986.947 758.81C1011.22 732.131 1042.82 641.035 1025.79 614.34Z" fill="#0076BD"/>
<path fill-rule="evenodd" clip-rule="evenodd" d="M981.899 761.839C981.994 762.851 982.912 762.614 984.384 761.38C1017.39 708.924 1014.29 616.056 1014.27 615.755C1014.27 615.249 1013.83 614.837 1013.33 614.853C1012.82 614.853 1012.41 615.296 1012.42 615.802C1012.42 616.103 1015.57 710.238 981.899 761.839Z" fill="#05304B"/>
<path fill-rule="evenodd" clip-rule="evenodd" d="M1087.14 680.35C1108.52 682.581 1100.26 703.484 1083.99 714.45C1067.71 725.415 1002.15 754.99 986.979 774.01C981.093 781.384 980.206 779.548 982.643 773.25C994.796 741.793 1057.71 677.296 1087.14 680.366V680.35Z" fill="#0076BD"/>
<path fill-rule="evenodd" clip-rule="evenodd" d="M982.247 778.73C981.361 779.078 981.171 778.208 981.599 776.467C1011.63 726.955 1090.56 690.703 1090.81 690.576C1091.24 690.371 1091.76 690.576 1091.97 691.004C1092.17 691.431 1091.97 691.953 1091.54 692.159C1091.29 692.27 1011.3 729.028 982.247 778.746V778.73Z" fill="#05304B"/>
<path fill-rule="evenodd" clip-rule="evenodd" d="M781.729 653.644L776.412 700.307C776.412 700.307 784.435 809.585 788.391 855.822H847.982L849.296 669.847L781.729 653.659V653.644Z" fill="#0E1632"/>
<path fill-rule="evenodd" clip-rule="evenodd" d="M813.329 694.102L810.702 710.59L815.924 855.803H888.57C889.789 845.755 890.88 837.163 891.767 830.96C897.226 792.762 899.093 739.69 899.061 727.126C899.03 714.562 884.488 695.921 879.487 694.561C874.487 693.2 813.329 694.102 813.329 694.102Z" fill="#0E1632"/>
<path fill-rule="evenodd" clip-rule="evenodd" d="M789.039 469.894C789.039 469.894 786.554 465.273 784.592 466.143C782.63 467.014 716.851 563.791 714.62 572.13C712.389 580.453 713.307 595.217 726.045 615.708C738.767 636.2 766.015 686.487 766.981 687.563C767.946 688.655 782.82 678.56 784.418 675.743C784.418 675.743 785.067 674.809 784.118 672.926C783.168 671.043 750.777 594.331 748.736 588.824C746.695 583.317 804.372 515.038 807.125 509.563C809.878 504.104 820.48 475.448 789.039 469.878V469.894Z" fill="#171C3A"/>
<path fill-rule="evenodd" clip-rule="evenodd" d="M841.748 442.176L813.108 462.636C813.108 462.636 792.679 542.64 792.6 546.279C792.521 549.919 784.688 594.035 784.688 594.035C784.688 594.035 813.329 605.397 817.428 594.494C821.526 583.576 867.446 505.375 869.725 493.096C872.003 480.817 866.544 451.717 863.807 448.537C861.085 445.356 841.748 442.176 841.748 442.176Z" fill="#C9C4D1"/>
<path fill-rule="evenodd" clip-rule="evenodd" d="M812.917 455.65C812.917 455.65 786.967 464.781 784.593 466.141C782.204 467.502 768.2 518.565 767.061 523.344C765.921 528.123 773.422 615.643 773.422 623.381C773.422 631.119 763.643 727.738 763.421 729.32C763.2 730.918 764.102 732.738 766.38 732.738C768.659 732.738 794.119 684.761 796.16 679.317C798.202 673.858 791.587 591.56 791.587 591.56L808.898 473.784L812.933 455.65H812.917Z" fill="#171C3A"/>
<path fill-rule="evenodd" clip-rule="evenodd" d="M889.929 468.594C889.929 468.594 927.114 506.08 928.475 508.343C929.836 510.621 891.195 638.619 890.736 644.521C890.277 650.439 909.835 737.5 910.515 739.779C910.515 739.779 910.626 740.681 909.945 742.058C909.265 743.419 907.667 744.226 906.876 744.779C906.085 745.349 815.146 730.68 807.867 726.139C800.588 721.598 784.907 650.882 784.907 641.34C784.907 631.799 790.414 595.246 790.414 595.246L835.163 519.483C835.163 519.483 867.491 470.999 889.945 468.594H889.929Z" fill="#1C2344"/>
<path fill-rule="evenodd" clip-rule="evenodd" d="M884.042 462.71C884.042 462.71 927.114 506.083 928.474 508.361C929.835 510.64 891.194 638.637 890.735 644.539C890.276 650.457 909.834 737.519 910.515 739.797C910.515 739.797 910.625 740.699 909.945 742.076C909.264 743.437 907.666 744.244 906.875 744.798C906.464 745.083 882.269 741.364 857.854 737.06C879.041 706.536 877.934 655.948 876.082 652.878C873.93 649.302 862.616 641.564 864.341 640.995C866.066 640.425 877.665 640.14 878.519 637.276C879.374 634.412 895.704 543.774 895.704 543.774L906.606 536.432C906.606 536.432 911.48 501.193 908.046 496.035C904.612 490.892 881.937 471.381 881.747 471.223C884.564 469.831 881.431 463.042 884.042 462.757V462.71Z" fill="#101937"/>
<path fill-rule="evenodd" clip-rule="evenodd" d="M923.286 502.64C923.286 502.64 928.919 507.134 932.812 512.213C936.705 517.292 985.22 618.722 986.233 628.216C987.229 637.726 983.685 653.739 966.2 673.978C948.715 694.216 910.2 744.599 908.966 745.611C907.732 746.64 893.158 733.016 891.908 729.645C891.908 729.645 891.354 728.522 892.731 726.623C894.107 724.724 942.813 646.302 946.009 640.622C949.205 634.941 897.794 550.19 895.721 543.734C893.649 537.278 887.889 503.304 923.286 502.64Z" fill="#383D5D"/>
<path fill-rule="evenodd" clip-rule="evenodd" d="M868.963 406.572C869.232 420.75 865.545 435.387 866.479 449.581C866.669 452.477 868.061 453.442 871.622 455.768C876.574 463.126 863.045 486.418 854.136 487.795C853.551 487.89 839.056 476.513 828.787 473.886C823.518 472.525 819.182 479.266 818.786 478.981C816.65 477.43 821.239 465.389 819.752 460.816C821.556 460.325 823.17 456.29 824.451 455.119C832.775 447.445 830.053 428.298 823.249 421.067C818.153 415.671 868.979 406.588 868.979 406.588L868.963 406.572Z" fill="#ED9072"/>
<path fill-rule="evenodd" clip-rule="evenodd" d="M878.347 461.325C877.223 464.537 849.738 501.216 849.738 501.216C849.738 501.216 848.757 502.53 847.317 500.868C845.877 499.207 828.945 475.566 828.945 475.566L866.558 447.542L865.704 441.102C866.257 440.517 879.518 458.049 878.363 461.341L878.347 461.325Z" fill="white"/>
<path fill-rule="evenodd" clip-rule="evenodd" d="M827.947 449.388C827.947 449.388 827.9 449.341 827.805 449.325C814.956 448.423 813.01 484.833 815.257 491.986C815.257 492.033 823.073 480.07 828.438 475.307C830.874 473.155 823.263 456.699 827.931 449.388H827.947Z" fill="white"/>
<path fill-rule="evenodd" clip-rule="evenodd" d="M875.104 450.841C875.104 450.841 827.016 510.448 823.614 515.449C820.212 520.449 794.055 582.066 790.416 595.247C790.416 595.247 830.656 545.007 836.336 540.45C842.017 535.909 863.046 518.392 863.046 518.392C863.046 518.392 863.616 517.253 863.331 516.461C863.046 515.67 857.192 502.426 857.192 502.426C857.192 502.426 874.693 505.037 876.291 504.926C877.889 504.815 885.738 465.762 885.975 464.623C886.196 463.484 875.104 450.841 875.104 450.841Z" fill="url(#paint3_linear_81_132)"/>
<path fill-rule="evenodd" clip-rule="evenodd" d="M828.045 449.309C828.045 449.309 815.323 452.252 813.281 453.391C811.24 454.53 795.1 481.351 794.641 483.63C794.641 483.63 794.42 484.706 795.322 485.165C796.239 485.624 799.578 487.728 799.926 488.061C800.259 488.409 794.293 489.089 794.293 489.089C794.293 489.089 793.613 489.342 793.723 490.403C793.834 491.447 791.571 591.579 791.571 591.579C791.571 591.579 811.414 480.877 814.357 473.582C817.301 466.303 825.196 454.768 825.196 454.768L828.045 449.324V449.309Z" fill="url(#paint4_linear_81_132)"/>
<path fill-rule="evenodd" clip-rule="evenodd" d="M806.414 385.941C812.68 385.909 817.776 390.957 817.823 397.223C817.855 403.489 812.807 408.584 806.541 408.632C800.275 408.663 795.179 403.616 795.132 397.349C795.1 391.083 800.148 385.988 806.414 385.941Z" fill="#E8685B"/>
<path fill-rule="evenodd" clip-rule="evenodd" d="M882.095 385.507C888.361 385.475 893.457 390.523 893.488 396.789C893.52 403.055 888.472 408.151 882.206 408.198C875.94 408.23 870.844 403.182 870.797 396.916C870.765 390.65 875.813 385.554 882.079 385.523L882.095 385.507Z" fill="#E8685B"/>
<path fill-rule="evenodd" clip-rule="evenodd" d="M840.337 327.653C861.699 327.526 879.279 346.483 879.39 369.775L879.58 408.274C879.69 431.567 862.316 450.729 840.954 450.872C819.592 450.998 802.012 432.041 801.902 408.749L801.712 370.25C801.585 346.958 818.975 327.795 840.337 327.653Z" fill="#F4AD85"/>
<path fill-rule="evenodd" clip-rule="evenodd" d="M877.89 358.342C878.855 361.982 879.378 365.827 879.409 369.783L879.599 408.282C879.71 429.707 865.026 447.635 846.053 450.483C844.186 450.673 842.999 450.8 842.73 450.816H842.714C863.934 448.711 868.412 420.846 868.412 412.443V390.623C868.412 370.004 857.003 367.852 849.202 367.852H810.466C805.465 367.852 803.662 372.457 803.662 372.457L801.731 370.985V370.242C801.668 357.899 806.51 346.728 814.248 338.927C833.695 342.724 866.038 349.18 868.269 350.589C869.488 351.348 873.444 354.592 877.89 358.342Z" fill="#ED9072"/>
<path fill-rule="evenodd" clip-rule="evenodd" d="M796.427 358.669L803.405 365.679C803.405 365.679 806.744 352.656 834.879 356.675C863.013 360.694 808.944 330.535 802.82 333.826C796.696 337.117 791.364 346.801 796.427 358.685V358.669Z" fill="#01020E"/>
<path fill-rule="evenodd" clip-rule="evenodd" d="M869.503 359.304C869.503 359.304 841.811 362.342 827.728 353.402C813.645 344.461 801.714 340.316 798.106 345.173C794.689 349.778 808.455 362.231 802.917 383.403C802.616 384.558 801.888 404.132 801.477 405.335C801.35 397.676 798.882 378.087 796.35 373.197C788.771 358.576 776.919 347.579 792.315 325.631C801.762 312.165 817.823 305.852 825.276 312.672C849.581 334.872 883.032 306.026 883.222 342.816C883.222 342.816 901.245 348.876 884.488 385.761C880.69 385.777 879.519 388.657 879.535 391.078L879.677 410.762C866.148 410.762 865.863 375.286 869.503 359.32V359.304Z" fill="#0E1632"/>
<path d="M857.587 692.708H935.93C939.728 692.708 942.813 695.794 942.813 699.591V834.282C942.813 838.08 939.728 841.165 935.93 841.165H857.587C853.79 841.165 850.704 838.08 850.704 834.282V699.591C850.704 695.794 853.79 692.708 857.587 692.708Z" fill="#E2E1E7"/>
<path d="M1001.01 692.708H937.638C934.44 692.708 931.847 695.301 931.847 698.499V835.374C931.847 838.572 934.44 841.165 937.638 841.165H1001.01C1004.21 841.165 1006.8 838.572 1006.8 835.374V698.499C1006.8 695.301 1004.21 692.708 1001.01 692.708Z" fill="white"/>
<path fill-rule="evenodd" clip-rule="evenodd" d="M835.022 749.09H916.182C916.182 734.549 931.863 732.935 931.863 732.935H850.704C850.704 732.935 835.022 734.549 835.022 749.09Z" fill="white"/>
<path d="M934.678 817.27H850.703C848.194 817.27 846.161 819.303 846.161 821.811V851.259C846.161 853.767 848.194 855.8 850.703 855.8H934.678C937.187 855.8 939.22 853.767 939.22 851.259V821.811C939.22 819.303 937.187 817.27 934.678 817.27Z" fill="url(#paint5_linear_81_132)"/>
<path fill-rule="evenodd" clip-rule="evenodd" d="M932.036 817.27H950.487C950.898 817.27 955.392 817.444 957.908 822.934C960.55 828.694 960.266 834.454 968.114 834.454C975.535 834.454 964.823 834.454 971.485 834.454C979.317 834.454 979.096 828.552 981.691 822.934C984.27 817.301 988.701 817.27 989.128 817.27H1006.63C1009.13 817.27 1011.17 819.311 1011.17 821.811V851.274C1011.17 853.775 1009.13 855.816 1006.63 855.816H932.052C929.552 855.816 927.511 853.775 927.511 851.274V821.811C927.511 819.311 929.552 817.27 932.052 817.27H932.036Z" fill="url(#paint6_linear_81_132)"/>
<path fill-rule="evenodd" clip-rule="evenodd" d="M835.022 799.948H916.182C916.182 785.406 931.863 783.792 931.863 783.792H850.704C850.704 783.792 835.022 785.39 835.022 799.948Z" fill="white"/>
<path fill-rule="evenodd" clip-rule="evenodd" d="M1020.02 775.706H946.199C946.199 761.164 931.847 759.55 931.847 759.55H1005.65C1005.65 759.55 1020 761.148 1020 775.706H1020.02Z" fill="#ACABBB"/>
<path fill-rule="evenodd" clip-rule="evenodd" d="M943.603 708.828H1000.17C1001.55 708.828 1002.67 709.952 1002.67 711.328C1002.67 712.705 1001.55 713.828 1000.17 713.828H943.603C942.226 713.828 941.103 712.705 941.103 711.328C941.103 709.952 942.226 708.828 943.603 708.828Z" fill="#E2E1E7"/>
<path fill-rule="evenodd" clip-rule="evenodd" d="M943.603 736.322H1000.17C1001.55 736.322 1002.67 737.446 1002.67 738.822C1002.67 740.199 1001.55 741.323 1000.17 741.323H943.603C942.226 741.323 941.103 740.199 941.103 738.822C941.103 737.446 942.226 736.322 943.603 736.322Z" fill="#E2E1E7"/>
<path fill-rule="evenodd" clip-rule="evenodd" d="M943.603 793.695H1000.17C1001.55 793.695 1002.67 794.819 1002.67 796.195C1002.67 797.572 1001.55 798.696 1000.17 798.696H943.603C942.226 798.696 941.103 797.572 941.103 796.195C941.103 794.819 942.226 793.695 943.603 793.695Z" fill="#E2E1E7"/>
<path fill-rule="evenodd" clip-rule="evenodd" d="M862.683 706.801H917.338C918.714 706.801 919.838 707.924 919.838 709.301C919.838 710.678 918.714 711.801 917.338 711.801H862.683C861.306 711.801 860.183 710.678 860.183 709.301C860.183 707.924 861.306 706.801 862.683 706.801Z" fill="#ACABBB"/>
<path d="M917.337 768.711H862.698C861.318 768.711 860.198 769.827 860.198 771.203C860.198 772.58 861.318 773.695 862.698 773.695H917.337C918.718 773.695 919.837 772.58 919.837 771.203C919.837 769.827 918.718 768.711 917.337 768.711Z" fill="#ACABBB"/>
<path fill-rule="evenodd" clip-rule="evenodd" d="M862.683 808.319H917.338C918.714 808.319 919.838 809.443 919.838 810.819C919.838 812.196 918.714 813.32 917.338 813.32H862.683C861.306 813.32 860.183 812.196 860.183 810.819C860.183 809.443 861.306 808.319 862.683 808.319Z" fill="#ACABBB"/>
<path d="M864.85 757.091H817.426C815.128 757.091 813.265 758.954 813.265 761.252V842.776C813.265 845.074 815.128 846.937 817.426 846.937H864.85C867.148 846.937 869.011 845.074 869.011 842.776V761.252C869.011 758.954 867.148 757.091 864.85 757.091Z" fill="#E2E1E7"/>
<path d="M865.893 757.094H904.249C906.18 757.094 907.747 758.66 907.747 760.591V843.428C907.747 845.358 906.18 846.941 904.234 846.941H865.877C863.947 846.941 862.364 845.374 862.364 843.428V760.591C862.364 758.66 863.931 757.078 865.877 757.078L865.893 757.094Z" fill="white"/>
<path fill-rule="evenodd" clip-rule="evenodd" d="M803.786 791.223H852.903C852.903 782.425 862.397 781.444 862.397 781.444H813.28C813.28 781.444 803.786 782.41 803.786 791.223Z" fill="white"/>
<path d="M813.265 832.487H864.09C865.609 832.487 866.828 833.722 866.828 835.225V853.058C866.828 854.577 865.594 855.795 864.09 855.795H813.265C811.746 855.795 810.527 854.561 810.527 853.058V835.225C810.527 833.706 811.762 832.487 813.265 832.487Z" fill="url(#paint7_linear_81_132)"/>
<path fill-rule="evenodd" clip-rule="evenodd" d="M862.491 832.487H873.646C873.899 832.487 876.621 832.598 878.14 835.921C879.738 839.402 879.564 842.899 884.311 842.899C888.805 842.899 882.318 842.899 886.353 842.899C891.1 842.899 890.957 839.339 892.524 835.921C894.09 832.519 896.765 832.487 897.018 832.487H907.604C909.107 832.487 910.341 833.722 910.341 835.225V853.058C910.341 854.561 909.107 855.795 907.604 855.795H862.475C860.972 855.795 859.737 854.561 859.737 853.058V835.225C859.737 833.722 860.972 832.487 862.475 832.487H862.491Z" fill="url(#paint8_linear_81_132)"/>
<path fill-rule="evenodd" clip-rule="evenodd" d="M803.786 822.006H852.903C852.903 813.208 862.397 812.227 862.397 812.227H813.28C813.28 812.227 803.786 813.192 803.786 822.006Z" fill="white"/>
<path fill-rule="evenodd" clip-rule="evenodd" d="M915.737 807.332H871.067C871.067 798.534 862.38 797.553 862.38 797.553H907.05C907.05 797.553 915.737 798.518 915.737 807.332Z" fill="#ACABBB"/>
<path fill-rule="evenodd" clip-rule="evenodd" d="M869.487 766.857H903.729C904.568 766.857 905.232 767.538 905.232 768.361C905.232 769.184 904.552 769.864 903.729 769.864H869.487C868.664 769.864 867.983 769.184 867.983 768.361C867.983 767.538 868.664 766.857 869.487 766.857Z" fill="#E2E1E7"/>
<path fill-rule="evenodd" clip-rule="evenodd" d="M869.487 783.484H903.729C904.568 783.484 905.232 784.165 905.232 784.988C905.232 785.81 904.552 786.491 903.729 786.491H869.487C868.664 786.491 867.983 785.81 867.983 784.988C867.983 784.149 868.664 783.484 869.487 783.484Z" fill="#E2E1E7"/>
<path fill-rule="evenodd" clip-rule="evenodd" d="M869.487 818.222H903.729C904.568 818.222 905.232 818.902 905.232 819.725C905.232 820.548 904.552 821.228 903.729 821.228H869.487C868.664 821.228 867.983 820.548 867.983 819.725C867.983 818.902 868.664 818.222 869.487 818.222Z" fill="#E2E1E7"/>
<path d="M820.53 765.633H853.601C854.44 765.633 855.104 766.313 855.104 767.136C855.104 767.975 854.424 768.655 853.601 768.655H820.53C819.691 768.655 819.026 767.975 819.026 767.152C819.026 766.313 819.707 765.649 820.53 765.649V765.633Z" fill="#ACABBB"/>
<path d="M820.53 803.091H853.601C854.44 803.091 855.104 803.771 855.104 804.594C855.104 805.433 854.424 806.113 853.601 806.113H820.53C819.691 806.113 819.026 805.433 819.026 804.61C819.026 803.771 819.707 803.107 820.53 803.107V803.091Z" fill="#ACABBB"/>
<path fill-rule="evenodd" clip-rule="evenodd" d="M820.53 827.061H853.601C854.424 827.061 855.104 827.741 855.104 828.564C855.104 829.387 854.424 830.067 853.601 830.067H820.53C819.691 830.067 819.026 829.387 819.026 828.564C819.026 827.741 819.707 827.061 820.53 827.061Z" fill="#ACABBB"/>
<path fill-rule="evenodd" clip-rule="evenodd" d="M285.819 635.026L350.664 635.327C351.518 635.327 352.214 636.023 352.214 636.878V643.666C352.214 644.521 351.502 645.217 350.648 645.217L285.803 644.916C284.948 644.916 284.252 644.22 284.252 643.365V636.577C284.252 635.723 284.964 635.026 285.819 635.026ZM349.113 638.428L287.369 638.128V641.815L349.113 642.115V638.428Z" fill="#0E1632"/>
<path fill-rule="evenodd" clip-rule="evenodd" d="M200.624 731.912L286.293 634.296C286.847 633.647 287.828 633.584 288.477 634.154L293.572 638.632C294.221 639.185 294.284 640.167 293.715 640.815L208.046 738.431C207.492 739.08 206.511 739.143 205.862 738.574L200.767 734.096C200.118 733.542 200.055 732.561 200.624 731.912ZM287.607 637.492L203.979 732.782L206.748 735.219L290.376 639.929L287.607 637.492Z" fill="#0E1632"/>
<path fill-rule="evenodd" clip-rule="evenodd" d="M286.688 631.523C291.419 630.922 295.739 634.276 296.341 639.007C296.942 643.739 293.587 648.059 288.856 648.66C284.125 649.261 279.805 645.907 279.204 641.175C278.602 636.444 281.957 632.124 286.688 631.523Z" fill="#383D5D"/>
<path fill-rule="evenodd" clip-rule="evenodd" d="M200.577 732.363L260.817 847.433C261.213 848.192 262.147 848.493 262.906 848.097L268.919 844.948C269.679 844.553 269.963 843.619 269.584 842.86L209.343 727.79C208.948 727.031 208.014 726.73 207.254 727.126L201.241 730.275C200.482 730.67 200.181 731.604 200.577 732.363ZM262.843 844.632L204.042 732.3L207.318 730.591L266.118 842.923L262.843 844.632Z" fill="#0E1632"/>
<path fill-rule="evenodd" clip-rule="evenodd" d="M260.532 850.204C264.995 851.897 269.979 849.666 271.672 845.22C273.365 840.758 271.134 835.773 266.688 834.08C262.225 832.387 257.241 834.618 255.548 839.064C253.855 843.527 256.086 848.511 260.532 850.204Z" fill="#383D5D"/>
<path fill-rule="evenodd" clip-rule="evenodd" d="M205.497 724.042C210.228 723.441 214.548 726.796 215.149 731.527C215.75 736.258 212.396 740.578 207.665 741.179C202.933 741.781 198.613 738.426 198.012 733.695C197.411 728.964 200.765 724.644 205.497 724.042Z" fill="#383D5D"/>
<path d="M306.388 842.896H186.033C180.012 842.896 175.131 847.778 175.131 853.799C175.131 859.82 180.012 864.701 186.033 864.701H306.388C312.409 864.701 317.29 859.82 317.29 853.799C317.29 847.778 312.409 842.896 306.388 842.896Z" fill="#383D5D"/>
<path d="M349.269 842.896H228.914C222.893 842.896 218.012 847.778 218.012 853.799C218.012 859.82 222.893 864.701 228.914 864.701H349.269C355.29 864.701 360.171 859.82 360.171 853.799C360.171 847.778 355.29 842.896 349.269 842.896Z" fill="#0E1632"/>
<path fill-rule="evenodd" clip-rule="evenodd" d="M336.704 657.154H368.43C377.64 657.154 385.156 649.622 385.156 640.429H319.979C319.979 649.638 327.511 657.154 336.704 657.154Z" fill="white"/>
<path fill-rule="evenodd" clip-rule="evenodd" d="M337.308 653.814H356.36C361.882 653.814 366.408 649.288 366.408 643.766H327.244C327.244 649.288 331.77 653.814 337.292 653.814H337.308Z" fill="#DFF0F2"/>
<path fill-rule="evenodd" clip-rule="evenodd" d="M326.039 632.752H379.096C386.138 632.752 391.897 638.512 391.897 645.553H313.254C313.254 638.512 319.014 632.752 326.055 632.752H326.039Z" fill="#383D5D"/>
<path fill-rule="evenodd" clip-rule="evenodd" d="M326.039 632.752H350.297C357.339 632.752 363.098 638.512 363.098 645.553H313.254C313.254 638.512 319.014 632.752 326.055 632.752H326.039Z" fill="#01020E"/>
<path fill-rule="evenodd" clip-rule="evenodd" d="M966.392 394.713C966.012 395.236 965.284 395.362 964.762 394.982C964.24 394.603 964.113 393.875 964.493 393.353C969.082 386.944 975.142 381.675 982.2 378.051C988.988 374.554 996.71 372.576 1004.86 372.576C1018.56 372.576 1030.95 378.13 1039.92 387.102C1048.9 396.074 1054.45 408.48 1054.45 422.183C1054.45 435.887 1048.9 448.276 1039.92 457.248C1030.95 466.22 1018.55 471.774 1004.86 471.774C993.355 471.774 982.754 467.85 974.335 461.268C965.743 454.543 959.414 445.048 956.708 434.13C956.55 433.497 956.945 432.864 957.562 432.722C958.195 432.564 958.828 432.959 958.986 433.576C961.566 443.988 967.595 453.023 975.775 459.432C983.798 465.698 993.893 469.433 1004.86 469.433C1017.91 469.433 1029.72 464.148 1038.28 455.587C1046.82 447.042 1052.12 435.222 1052.12 422.167C1052.12 409.113 1046.84 397.308 1038.28 388.748C1029.73 380.203 1017.91 374.902 1004.86 374.902C997.074 374.902 989.732 376.785 983.276 380.108C976.551 383.574 970.775 388.59 966.408 394.682L966.392 394.713Z" fill="#0E1632"/>
<path fill-rule="evenodd" clip-rule="evenodd" d="M1027.63 400.396C1026.32 401.536 1022.76 405.191 1020.51 412.944C1022.45 414.242 1027.82 418.34 1025.3 422.708L1014.83 440.826C1012.28 445.066 1006.12 442.503 1004.04 441.474C998.434 447.298 997.058 452.219 996.725 453.912C1000.33 455.795 1003.61 456.27 1006.33 455.937C1010.21 455.478 1012.94 453.437 1013.97 451.649L1034.31 416.441C1035.32 414.638 1035.7 411.267 1034.18 407.707C1033.1 405.191 1031.06 402.596 1027.61 400.412L1027.63 400.396ZM1018.37 413.134C1021.16 402.802 1026.39 398.782 1026.93 398.387C1027.25 398.134 1027.71 398.086 1028.07 398.308C1032.3 400.808 1034.77 403.909 1036.05 406.916C1037.84 411.109 1037.33 415.191 1036.08 417.423L1015.75 452.646C1014.46 454.877 1011.16 457.393 1006.6 457.947C1003.36 458.342 999.463 457.757 995.19 455.368C994.842 455.194 994.605 454.814 994.637 454.387C994.637 454.371 995.175 447.551 1003.1 439.56C1003.42 439.212 1003.94 439.117 1004.35 439.37C1004.37 439.37 1011.08 443.247 1013.12 439.781L1023.56 421.695C1025.51 418.325 1019.42 414.606 1018.88 414.289C1018.47 414.084 1018.25 413.593 1018.37 413.134Z" fill="#0E1632"/>
<path d="M974.641 430.775H964.804V428.365L968.114 425.018C969.06 424.029 969.678 423.355 969.968 422.996C970.259 422.632 970.46 422.32 970.571 422.06C970.688 421.8 970.747 421.528 970.747 421.244C970.747 420.892 970.633 420.614 970.404 420.41C970.175 420.206 969.854 420.104 969.44 420.104C969.013 420.104 968.581 420.227 968.142 420.475C967.709 420.716 967.218 421.074 966.667 421.55L964.656 419.195C965.354 418.571 965.941 418.126 966.417 417.86C966.893 417.588 967.409 417.381 967.965 417.239C968.528 417.097 969.158 417.026 969.857 417.026C970.735 417.026 971.517 417.18 972.203 417.489C972.895 417.798 973.43 418.24 973.807 418.815C974.19 419.384 974.381 420.023 974.381 420.734C974.381 421.266 974.313 421.757 974.177 422.208C974.048 422.66 973.844 423.105 973.566 423.543C973.287 423.976 972.917 424.434 972.453 424.916C971.996 425.398 971.016 426.313 969.514 427.66V427.753H974.641V430.775ZM986.203 428.152H984.71V430.775H981.094V428.152H975.689V425.463L981.326 417.22H984.71V425.416H986.203V428.152ZM981.094 425.416V423.84C981.094 423.543 981.103 423.145 981.122 422.644C981.147 422.137 981.165 421.872 981.178 421.847H981.076C980.865 422.323 980.627 422.768 980.362 423.182L978.86 425.416H981.094Z" fill="#0E1632"/>
<path fill-rule="evenodd" clip-rule="evenodd" d="M690.54 340.509H758.107C763.899 340.509 768.63 345.24 768.63 351.032V409.88C768.63 410.37 768.361 410.782 767.902 410.971C767.459 411.161 766.969 411.066 766.62 410.718L748.676 392.774H690.525C684.733 392.774 680.002 388.043 680.002 382.252V351.032C680.002 345.24 684.733 340.509 690.525 340.509H690.54Z" fill="#BFCCE8"/>
<path fill-rule="evenodd" clip-rule="evenodd" d="M682.564 333.66H750.131C753.407 333.66 756.397 335.005 758.549 337.157C760.701 339.325 762.046 342.3 762.046 345.575V404.423C762.046 404.946 761.888 405.436 761.619 405.848C761.35 406.259 760.955 406.591 760.464 406.797C759.974 407.003 759.467 407.05 758.992 406.955C758.502 406.86 758.043 406.623 757.679 406.243L740.147 388.711H682.58C679.305 388.711 676.314 387.366 674.162 385.214C672.01 383.046 670.665 380.071 670.665 376.795V345.575C670.665 342.3 672.01 339.309 674.162 337.157C676.33 334.989 679.305 333.66 682.58 333.66H682.564ZM750.131 336.445H682.564C680.048 336.445 677.77 337.474 676.108 339.135C674.447 340.797 673.418 343.075 673.418 345.591V376.811C673.418 379.327 674.447 381.606 676.108 383.267C677.77 384.929 680.048 385.957 682.564 385.957H741.286L759.262 403.933V345.591C759.262 343.075 758.233 340.797 756.571 339.135C754.91 337.474 752.631 336.445 750.115 336.445H750.131Z" fill="white"/>
<path fill-rule="evenodd" clip-rule="evenodd" d="M681.994 345.304C681.567 345.304 681.234 344.956 681.234 344.545C681.234 344.133 681.582 343.785 681.994 343.785H750.684C751.111 343.785 751.444 344.133 751.444 344.545C751.444 344.956 751.096 345.304 750.684 345.304H681.994Z" fill="white"/>
<path fill-rule="evenodd" clip-rule="evenodd" d="M681.994 352.733C681.567 352.733 681.234 352.385 681.234 351.973C681.234 351.562 681.582 351.214 681.994 351.214H689.273C689.7 351.214 690.032 351.562 690.032 351.973C690.032 352.385 689.7 352.733 689.273 352.733H681.994ZM698.957 352.733C698.53 352.733 698.197 352.385 698.197 351.973C698.197 351.562 698.53 351.214 698.957 351.214H750.684C751.111 351.214 751.444 351.562 751.444 351.973C751.444 352.385 751.096 352.733 750.684 352.733H698.957Z" fill="white"/>
<path fill-rule="evenodd" clip-rule="evenodd" d="M681.994 360.15C681.567 360.15 681.234 359.818 681.234 359.39C681.234 358.963 681.582 358.631 681.994 358.631H750.684C751.111 358.631 751.444 358.979 751.444 359.39C751.444 359.802 751.096 360.15 750.684 360.15H681.994Z" fill="white"/>
<path fill-rule="evenodd" clip-rule="evenodd" d="M701.109 370.213C700.682 370.213 700.35 369.865 700.35 369.454C700.35 369.042 700.698 368.694 701.109 368.694H750.7C751.128 368.694 751.46 369.042 751.46 369.454C751.46 369.865 751.112 370.213 750.7 370.213H701.109Z" fill="white"/>
<path fill-rule="evenodd" clip-rule="evenodd" d="M723.247 378.261C722.835 378.261 722.487 377.913 722.487 377.502C722.487 377.09 722.835 376.742 723.247 376.742H750.685C751.112 376.742 751.445 377.09 751.445 377.502C751.445 377.913 751.096 378.261 750.685 378.261H723.247Z" fill="white"/>
<path fill-rule="evenodd" clip-rule="evenodd" d="M707.519 378.261C707.092 378.261 706.76 377.913 706.76 377.502C706.76 377.09 707.108 376.742 707.519 376.742H717.33C717.757 376.742 718.089 377.09 718.089 377.502C718.089 377.913 717.741 378.261 717.33 378.261H707.519Z" fill="white"/>
<path fill-rule="evenodd" clip-rule="evenodd" d="M1080.59 863.688C1080.59 862.723 1079.82 861.947 1078.85 861.947C1077.89 861.947 1077.11 862.723 1077.11 863.688V867.77H1073.03C1072.06 867.77 1071.29 868.546 1071.29 869.511C1071.29 870.476 1072.06 871.236 1073.03 871.236H1077.11V875.318C1077.11 876.268 1077.89 877.059 1078.85 877.059C1079.82 877.059 1080.59 876.283 1080.59 875.318V871.236H1084.67C1085.64 871.236 1086.41 870.46 1086.41 869.511C1086.41 868.562 1085.64 867.77 1084.67 867.77H1080.59V863.688Z" fill="#BFCCE8"/>
<path fill-rule="evenodd" clip-rule="evenodd" d="M403.526 836.232H344.773C342.352 836.232 340.169 837.213 338.57 838.812C336.972 840.41 335.991 842.594 335.991 845.015C335.991 847.436 336.972 849.635 338.57 851.217C340.169 852.816 342.352 853.797 344.773 853.797H403.526C405.947 853.797 408.131 852.816 409.729 851.217C411.327 849.635 412.309 847.436 412.309 845.015C412.309 842.594 411.327 840.41 409.729 838.812C408.147 837.213 405.947 836.232 403.526 836.232Z" fill="#0076BD"/>
<path fill-rule="evenodd" clip-rule="evenodd" d="M272.097 837.262H347.227C351.5 837.262 354.981 840.759 354.981 845.015C354.981 849.288 351.484 852.769 347.227 852.769H272.097V837.246V837.262Z" fill="white"/>
<path fill-rule="evenodd" clip-rule="evenodd" d="M272.096 836.232C271.526 836.232 271.067 836.691 271.067 837.261C271.067 837.831 271.526 838.29 272.096 838.29H347.227C349.078 838.29 350.755 839.049 351.989 840.267C353.208 841.486 353.967 843.179 353.967 845.03C353.967 846.882 353.208 848.575 351.989 849.793C350.771 851.012 349.078 851.771 347.227 851.771H272.096C271.526 851.771 271.067 852.23 271.067 852.8C271.067 853.369 271.526 853.828 272.096 853.828H347.227C349.648 853.828 351.831 852.847 353.429 851.249C355.028 849.667 356.009 847.467 356.009 845.046C356.009 842.625 355.028 840.441 353.429 838.843C351.831 837.245 349.648 836.264 347.227 836.264H272.096V836.232Z" fill="#004A82"/>
<path fill-rule="evenodd" clip-rule="evenodd" d="M400.82 845.015C400.82 842.594 399.839 840.41 398.241 838.812C396.643 837.213 394.459 836.232 392.038 836.232H399.681C402.102 836.232 404.286 837.213 405.884 838.812C407.482 840.41 408.463 842.594 408.463 845.015C408.463 847.436 407.482 849.635 405.884 851.217C404.301 852.816 402.102 853.797 399.681 853.797H392.038C394.459 853.797 396.643 852.816 398.241 851.217C399.839 849.635 400.82 847.436 400.82 845.015Z" fill="#004A82"/>
<path fill-rule="evenodd" clip-rule="evenodd" d="M389.744 845.015C389.744 842.594 388.763 840.41 387.165 838.812C385.567 837.213 383.383 836.232 380.962 836.232H388.605C391.026 836.232 393.225 837.213 394.808 838.812C396.406 840.41 397.387 842.594 397.387 845.015C397.387 847.436 396.406 849.635 394.808 851.217C393.209 852.816 391.026 853.797 388.605 853.797H380.962C383.383 853.797 385.582 852.816 387.165 851.217C388.763 849.635 389.744 847.436 389.744 845.015Z" fill="#004A82"/>
<path fill-rule="evenodd" clip-rule="evenodd" d="M287.556 820.854H338.999C341.119 820.854 343.034 821.725 344.427 823.117C345.819 824.51 346.689 826.44 346.689 828.545C346.689 830.649 345.819 832.58 344.427 833.972C343.034 835.365 341.104 836.235 338.999 836.235H287.556C285.436 836.235 283.521 835.365 282.129 833.972C280.737 832.58 279.866 830.649 279.866 828.545C279.866 826.44 280.737 824.51 282.129 823.117C283.521 821.725 285.452 820.854 287.556 820.854Z" fill="url(#paint9_linear_81_132)"/>
<path fill-rule="evenodd" clip-rule="evenodd" d="M402.628 821.761H336.833C333.099 821.761 330.045 824.815 330.045 828.549C330.045 832.284 333.099 835.338 336.833 835.338H402.628V821.745V821.761Z" fill="white"/>
<path fill-rule="evenodd" clip-rule="evenodd" d="M402.628 820.854C403.118 820.854 403.529 821.25 403.529 821.756C403.529 822.263 403.134 822.658 402.628 822.658H336.833C335.219 822.658 333.731 823.323 332.671 824.383C331.595 825.459 330.931 826.931 330.931 828.545C330.931 830.159 331.595 831.646 332.671 832.706C333.747 833.767 335.219 834.431 336.833 834.431H402.628C403.118 834.431 403.529 834.827 403.529 835.333C403.529 835.839 403.134 836.235 402.628 836.235H336.833C334.712 836.235 332.798 835.365 331.405 833.972C330.013 832.58 329.143 830.649 329.143 828.545C329.143 826.44 330.013 824.51 331.405 823.117C332.798 821.725 334.728 820.854 336.833 820.854H402.628Z" fill="url(#paint10_linear_81_132)"/>
<path fill-rule="evenodd" clip-rule="evenodd" d="M289.913 828.545C289.913 826.424 290.783 824.51 292.176 823.117C293.568 821.725 295.499 820.854 297.603 820.854H290.91C288.79 820.854 286.875 821.725 285.482 823.117C284.09 824.51 283.22 826.44 283.22 828.545C283.22 830.649 284.09 832.58 285.482 833.972C286.875 835.365 288.805 836.235 290.91 836.235H297.603C295.483 836.235 293.568 835.365 292.176 833.972C290.783 832.58 289.913 830.649 289.913 828.545Z" fill="url(#paint11_linear_81_132)"/>
<path fill-rule="evenodd" clip-rule="evenodd" d="M299.614 828.545C299.614 826.424 300.485 824.51 301.877 823.117C303.27 821.725 305.2 820.854 307.305 820.854H300.611C298.491 820.854 296.576 821.725 295.184 823.117C293.791 824.51 292.921 826.44 292.921 828.545C292.921 830.649 293.791 832.58 295.184 833.972C296.576 835.365 298.507 836.235 300.611 836.235H307.305C305.184 836.235 303.27 835.365 301.877 833.972C300.485 832.58 299.614 830.649 299.614 828.545Z" fill="url(#paint12_linear_81_132)"/>
<path d="M498.946 839.757H751.634C756.065 839.757 759.656 843.349 759.656 847.779C759.656 852.21 756.065 855.802 751.634 855.802H498.946C494.516 855.802 490.924 852.21 490.924 847.779C490.924 843.349 494.516 839.757 498.946 839.757Z" fill="#A8A6B5"/>
<path fill-rule="evenodd" clip-rule="evenodd" d="M752.123 855.801H499.436C496.572 855.801 493.961 854.282 492.41 852.019C493.692 849.756 496.129 848.237 498.993 848.237H751.68C754.544 848.237 757.155 849.756 758.706 852.019C757.424 854.282 754.987 855.801 752.123 855.801Z" fill="#96929F"/>
<path fill-rule="evenodd" clip-rule="evenodd" d="M757.394 839.756H555.279C549.504 839.756 545.073 835.025 545.437 829.25L553.713 698.341C554.077 692.565 559.093 687.85 564.868 687.85H766.984C772.759 687.85 777.19 692.581 776.826 698.341L768.55 829.25C768.186 835.025 763.17 839.756 757.394 839.756Z" fill="#96929F"/>
<path fill-rule="evenodd" clip-rule="evenodd" d="M757.395 839.756H561.245C555.469 839.756 551.039 835.025 551.403 829.25L559.679 698.341C560.042 692.565 565.059 687.85 570.834 687.85H766.984C772.759 687.85 777.19 692.581 776.81 698.341L768.535 829.25C768.171 835.025 763.155 839.756 757.379 839.756H757.395Z" fill="white"/>
<path fill-rule="evenodd" clip-rule="evenodd" d="M746.713 839.761H726.522L559.203 706.019L559.694 698.345C559.836 696.05 560.722 693.93 562.083 692.189L746.713 839.761ZM584.742 687.854L767.268 833.732C767.996 832.371 768.455 830.852 768.55 829.254L769.831 808.889L618.368 687.838H584.727L584.742 687.854Z" fill="#F0EEF0"/>
<path d="M498.946 839.757H544.867C549.297 839.757 552.889 843.349 552.889 847.779C552.889 852.21 549.297 855.802 544.867 855.802H498.946C494.516 855.802 490.924 852.21 490.924 847.779C490.924 843.349 494.516 839.757 498.946 839.757Z" fill="white"/>
<path fill-rule="evenodd" clip-rule="evenodd" d="M755.416 843.765H545.152C542.952 843.765 541.038 841.961 540.895 839.746C540.769 837.53 542.462 835.727 544.661 835.727H754.926C757.125 835.727 759.04 837.53 759.182 839.746C759.309 841.961 757.616 843.765 755.416 843.765Z" fill="#D2CED6"/>
<path fill-rule="evenodd" clip-rule="evenodd" d="M516.115 677.55C514.564 669.829 514.96 665.525 516.431 658.198L483.296 655.397L529.422 635.191C529.422 635.191 539.217 623.18 543.822 611.392C548.442 599.587 535.926 569.602 531.226 562.165C526.527 554.727 516.763 555.835 510.323 559.87C510.323 559.87 500.671 545.312 489.135 544.347C477.6 543.366 440.952 546.752 430.303 573.653C419.654 600.553 436.791 627.437 419.638 655.113C419.638 655.113 418.135 658.61 420.35 661.569C422.581 664.512 449.608 696.032 511.241 683.326C511.241 683.326 516.146 682.187 516.13 677.582L516.115 677.55Z" fill="#0E1632"/>
<path fill-rule="evenodd" clip-rule="evenodd" d="M472.679 685.791C476.081 648.732 478.47 616.531 478.47 616.531L475.322 606.087C475.322 606.087 446.95 629.016 426.806 604.9C427.756 621.452 430.129 638.114 419.622 655.077C419.622 655.077 418.119 658.574 420.334 661.533L420.429 661.66L420.461 661.707L420.54 661.802L420.619 661.897L420.667 661.96L420.809 662.134L420.983 662.356L421.031 662.419L421.173 662.593L421.3 662.736L421.395 662.846L421.6 663.084L421.632 663.116L421.885 663.4L421.948 663.464L422.17 663.701L422.328 663.875L422.471 664.033L422.581 664.144L422.803 664.366L423.151 664.714L423.388 664.951L423.578 665.125C429.48 670.822 443.2 681.376 466.349 685.031H466.413C468.422 685.364 470.495 685.617 472.647 685.822H472.663L472.679 685.791Z" fill="#010518"/>
<path fill-rule="evenodd" clip-rule="evenodd" d="M516.115 677.549C514.01 667.074 515.482 662.849 518.425 648.845L465.701 640.554L442.661 645.016C442.661 645.016 440.652 657.928 434.623 673.546C448.659 682.233 473.438 691.079 511.241 683.293C511.241 683.293 516.146 682.154 516.131 677.549H516.115Z" fill="#010518"/>
<path fill-rule="evenodd" clip-rule="evenodd" d="M446.159 679.829C460.748 684.402 480.702 689.877 497.902 698.327C499.089 698.912 496.668 703.485 497.775 704.102C499.453 705.036 502.253 707.204 505.323 710.242C513.362 718.185 529.707 780.356 528.236 786.543C525.894 796.512 505.244 823.887 505.244 823.887C501.146 831.815 496.051 843.35 491.066 855.819H388.497C395.65 832.59 398.308 816.861 398.498 802.683C403.973 754.485 378.054 743.994 378.054 743.994L404.891 680.826C415.334 677.123 436.158 678.515 436.158 678.515C441.665 678.515 441.237 678.278 446.174 679.829H446.159Z" fill="#E74D91"/>
<path fill-rule="evenodd" clip-rule="evenodd" d="M491.049 855.801H476.571C479.261 848.585 491.824 814.438 494.499 807.143C482.299 805.023 465.51 802.111 462.551 801.399C459.592 800.687 448.246 807.175 448.246 807.175L449.512 799.801L437.344 812.064L458.152 773.186C458.152 773.186 492.125 780.86 499.341 782.173C506.556 783.487 502.157 782.49 503.502 782.379C507.522 771.097 500.939 767.932 501.73 762.473C502.505 757.014 502.743 704.021 502.743 704.021C507.126 706.299 509.12 711.236 511.604 719.037C513.234 724.164 521.905 757.9 525.497 777.838C526.352 782.585 527.032 786.129 527.459 788.962C519.405 809.485 501.35 830.135 491.081 855.785L491.049 855.801Z" fill="#B92F6D"/>
<path fill-rule="evenodd" clip-rule="evenodd" d="M471.475 621.593L466.332 637.021C466.332 637.021 458.563 673.431 456.774 678.147C456.157 679.792 454.1 680.283 450.936 680.204C455.477 686.707 464.307 696.644 477.06 699.065C485.21 700.616 490.906 699.081 494.767 696.803C492.045 695.363 489.434 693.654 489.45 692.245C489.561 679.824 491.697 657.956 498.422 653.905C506.128 649.268 471.459 621.577 471.459 621.577L471.475 621.593Z" fill="#E8685B"/>
<path fill-rule="evenodd" clip-rule="evenodd" d="M453.5 680.112C451.664 680.349 449.18 680.175 446.142 679.827C449.275 684.353 454.354 689.432 462.472 694.591C482.583 707.344 492.283 700.398 495.337 697.122C493.454 696.157 491.54 695.049 490.432 693.973C471.649 703.151 453.484 680.128 453.484 680.128L453.5 680.112Z" fill="white"/>
<path fill-rule="evenodd" clip-rule="evenodd" d="M497.079 697.927C497.079 697.927 505.101 778.675 504.12 785.479C503.139 792.299 490.385 825.893 479.214 855.799H498.44C502.237 848.489 505.133 842.776 505.671 841.4C506.019 840.514 507.348 837.934 509.168 834.548C512.459 828.472 517.365 819.8 521.052 813.724C532.84 794.372 532.809 798.897 528.726 776.222C525.134 756.269 514.121 719.368 512.491 714.225C510.007 706.424 499.167 697.357 497.079 697.927Z" fill="url(#paint13_linear_81_132)"/>
<path fill-rule="evenodd" clip-rule="evenodd" d="M495.939 810.305C493.296 817.694 490.227 826.097 487.03 834.736C492.869 835.243 497.537 835.828 499.199 836.477C505.038 838.771 505.655 841.398 505.655 841.398C506.003 840.512 507.332 837.933 509.152 834.547C512.443 828.47 517.348 819.799 521.035 813.723C524.58 807.9 527.048 804.244 528.678 801.349C526.415 803.342 522.792 806.349 521.035 806.871C518.899 807.52 502.522 809.514 495.939 810.305Z" fill="url(#paint14_linear_81_132)"/>
<path fill-rule="evenodd" clip-rule="evenodd" d="M443.134 678.108C443.134 678.108 457.85 749.425 459.875 770.154C461.9 790.883 455.413 805.726 448.118 821.296C445.665 826.55 437.769 839.952 428.07 855.807H382.751L387.593 743.776L374.602 740.77C375.377 735.136 376.01 730.484 376.437 727.209L402.024 681.969C402.024 681.969 411.676 674.136 443.15 678.108H443.134Z" fill="url(#paint15_linear_81_132)"/>
<path fill-rule="evenodd" clip-rule="evenodd" d="M415.57 712.423C408.339 741.459 413.355 753.501 413.355 753.501L417.232 735.43C417.232 735.43 420.903 762.109 424.969 765.511C426.995 767.204 451.094 771.824 460.114 773.502C460.731 784.816 458.8 794.389 455.683 803.377C449.195 804.041 410.222 798.551 408.355 811.146C407.421 817.428 407.642 797.221 407.642 797.221L405.332 855.8H382.736L387.578 743.769L374.587 740.763L374.619 740.494L374.65 740.24L374.682 739.971L374.714 739.718L374.745 739.465L374.777 739.212L374.808 738.959L374.84 738.706L374.872 738.452L374.903 738.199L374.935 737.946L374.967 737.693L374.998 737.44L375.03 737.202L375.062 736.965L375.093 736.728L375.125 736.49L375.157 736.253L375.188 736.016L375.22 735.778L375.252 735.541L375.283 735.303L375.315 735.082L375.346 734.86L375.378 734.639L375.41 734.417L375.441 734.196L375.473 733.974L375.505 733.753L375.536 733.531L375.568 733.31L375.6 733.088L375.631 732.882L375.663 732.677L375.695 732.471L375.726 732.265L375.758 732.06L375.79 731.854L375.821 731.648L375.853 731.443L375.884 731.253L375.916 731.063L375.948 730.873L375.979 730.683L376.011 730.493L376.043 730.303L376.074 730.113L376.106 729.923L376.138 729.734L376.169 729.544L376.201 729.37L376.233 729.196L376.264 729.022L376.28 728.847V728.673H376.296V728.499H376.312V728.325H376.328V728.167H376.343V728.009H376.359V727.851H376.375V727.692H376.391V727.534H376.407V727.376H376.422V727.218L390.3 702.723L415.602 712.438L415.57 712.423Z" fill="url(#paint16_linear_81_132)"/>
<path fill-rule="evenodd" clip-rule="evenodd" d="M379.729 713.614C371.438 736.289 369.175 814.047 376.011 855.805H412.421C397.531 772.937 428.814 713.662 421.931 692.664C410.934 659.038 385.189 698.724 379.729 713.63V713.614Z" fill="url(#paint17_linear_81_132)"/>
<path fill-rule="evenodd" clip-rule="evenodd" d="M525.356 636.96L529.407 635.188C529.407 635.188 536.274 626.77 541.211 617.102C540.246 618.937 533.853 630.124 524.485 623.289C514.311 615.851 513.899 627.624 513.899 627.624C513.899 627.624 520.055 634.618 523.631 636.248C524.09 636.454 524.675 636.707 525.34 636.96H525.356Z" fill="#010518"/>
<path fill-rule="evenodd" clip-rule="evenodd" d="M521.036 630.208C514.659 629.543 508.962 634.18 508.298 640.557C507.633 646.933 512.27 652.63 518.646 653.295C525.023 653.959 530.72 649.323 531.384 642.946C532.049 636.569 527.413 630.873 521.036 630.208Z" fill="#E8685B"/>
<path fill-rule="evenodd" clip-rule="evenodd" d="M440.192 621.96C439.907 621.96 439.623 621.992 439.338 622.039C434.084 622.688 429.78 626.881 429.226 632.356C428.562 638.733 433.198 644.43 439.575 645.094C445.952 645.759 451.649 641.122 452.313 634.745C452.693 631.043 451.3 627.562 448.8 625.172C448.8 628.606 447.914 632.783 443.515 632.847L444.211 626.185C444.496 623.495 442.075 622.039 440.224 621.96H440.192Z" fill="#E8685B"/>
<path fill-rule="evenodd" clip-rule="evenodd" d="M490.178 568C468.42 565.753 448.799 581.703 446.536 603.445L442.818 639.381C440.571 661.122 456.521 680.759 478.262 683.022C500.004 685.269 519.641 669.319 521.904 647.577L525.623 611.642C527.87 589.9 511.919 570.263 490.178 568Z" fill="#F4AD85"/>
<path fill-rule="evenodd" clip-rule="evenodd" d="M445.888 609.752L442.818 639.39C440.935 657.603 451.806 674.329 468.152 680.611C445.017 671.021 456.869 630.814 456.869 630.814C461.553 630.022 468.943 621.288 473.247 616.193C477.535 611.113 480.874 605.986 488.279 606.129C495.685 606.271 511.366 610.164 511.366 610.164C514.641 617.902 520.67 623.535 524.104 626.304L525.623 611.635C526.082 607.252 525.797 602.964 524.863 598.866C523.898 598.296 522.917 597.726 521.873 597.141C490.036 579.244 463.009 593.723 445.872 609.737L445.888 609.752Z" fill="#ED9072"/>
<path fill-rule="evenodd" clip-rule="evenodd" d="M519.704 600.4L513.28 603.137C513.28 603.137 507.299 599.45 500.32 601.048C500.32 601.048 486.206 595.858 478.721 598.754C471.237 601.65 475.636 591.254 477.012 590.811C478.389 590.352 492.551 589.45 498.738 590.652C504.925 591.839 514.229 593.295 514.229 593.295L519.72 600.416L519.704 600.4Z" fill="#010518"/>
<path fill-rule="evenodd" clip-rule="evenodd" d="M444.527 620.047L448.341 620.712C448.341 620.712 450.983 632.753 443.515 632.848L444.211 626.187C444.258 625.728 444.211 625.301 444.132 624.905L444.543 620.031L444.527 620.047Z" fill="#010518"/>
<path fill-rule="evenodd" clip-rule="evenodd" d="M500.321 601.039C494.514 593.19 485.02 591.592 477.63 602.605C470.889 612.669 460.873 630.075 444.005 628.651L443.926 628.335H443.973L444.923 617.1C444.923 617.1 443.499 617.464 441.774 617.875C440.872 612.005 440.255 604.568 441.188 597.748C443.135 583.633 462.788 563.015 484.941 562.224C507.094 561.432 523.123 574.582 526.288 582.082C529.468 589.583 532.601 606.609 532.601 606.609L528.709 612.179L524.516 623.255C514.325 613.35 515.369 603.966 510.939 599.251C508.534 596.687 504.958 596.687 500.321 601.023V601.039Z" fill="#0E1632"/>
<path fill-rule="evenodd" clip-rule="evenodd" d="M475.322 606.09C468.644 616.201 459.039 629.92 444.007 628.655L443.928 628.338H443.975L444.925 617.103C444.925 617.103 443.5 617.467 441.776 617.879C441.633 616.913 441.491 615.901 441.364 614.84C458.343 619.762 475.274 606.122 475.338 606.074L475.322 606.09Z" fill="#010518"/>
<path fill-rule="evenodd" clip-rule="evenodd" d="M492.792 695.689C492.792 695.689 503.141 780.551 502.935 783.304C502.73 786.058 499.976 799.334 499.976 799.334C499.976 799.334 504.976 790.963 506.195 784.016C507.413 777.07 510.689 730.137 510.689 730.137L505.182 727.178L510.277 726.877L501.859 700.515C501.859 700.515 500.894 698.553 499.565 697.794C498.236 697.034 493.409 694.597 493.33 694.566C493.251 694.534 492.049 694.391 491.447 694.787C491.447 694.787 492.444 695.467 492.808 695.689H492.792Z" fill="#484E6A"/>
<path fill-rule="evenodd" clip-rule="evenodd" d="M443.136 678.105C443.136 678.105 457.852 749.422 459.877 770.151C460.7 778.649 460.099 786.149 458.596 793.127C461.301 771.924 431.474 722.032 431.474 722.032L439.227 718.361L428.815 713.661C428.815 713.661 433.61 686.824 433.911 682.33C434.211 677.963 431.901 677.156 431.759 677.108C435.177 677.267 438.958 677.583 443.12 678.105H443.136Z" fill="#484E6A"/>
<path fill-rule="evenodd" clip-rule="evenodd" d="M148.61 887.312H161.491C166.633 887.312 170.827 883.103 170.827 877.976C170.827 872.833 166.617 868.64 161.491 868.64H127.438C123.372 868.64 120.017 865.301 120.017 861.235C120.017 857.152 123.356 853.813 127.438 853.813H1026.88C1030.97 853.813 1034.29 857.152 1034.29 861.235C1034.29 865.317 1030.95 868.64 1026.88 868.64H980.189C975.046 868.64 970.853 872.849 970.853 877.976C970.853 883.119 975.062 887.312 980.189 887.312H991.139C999.288 887.312 1005.97 893.99 1005.97 902.139C1005.97 910.288 999.288 916.966 991.139 916.966H148.61C140.461 916.966 133.783 910.288 133.783 902.139C133.783 893.99 140.461 887.312 148.61 887.312ZM107.421 853.813C111.52 853.813 114.843 857.136 114.843 861.235C114.843 865.333 111.52 868.64 107.421 868.64C103.323 868.64 100 865.317 100 861.235C100 857.152 103.323 853.813 107.421 853.813Z" fill="#01020E"/>
<path fill-rule="evenodd" clip-rule="evenodd" d="M608.998 465.244H541.431C538.155 465.244 535.165 466.589 533.013 468.741C530.845 470.909 529.516 473.884 529.516 477.159V536.007C529.516 536.53 529.674 537.02 529.943 537.432C530.212 537.843 530.607 538.175 531.098 538.381C531.589 538.587 532.095 538.634 532.57 538.539C533.06 538.444 533.519 538.207 533.883 537.827L551.416 520.295H608.982C612.257 520.295 615.248 518.95 617.4 516.798C619.568 514.63 620.897 511.655 620.897 508.379V477.159C620.897 473.884 619.552 470.893 617.4 468.741C615.248 466.573 612.257 465.244 608.982 465.244H608.998ZM541.431 468.029H608.998C611.514 468.029 613.792 469.058 615.454 470.719C617.115 472.381 618.144 474.659 618.144 477.175V508.395C618.144 510.911 617.115 513.19 615.454 514.851C613.792 516.513 611.514 517.541 608.998 517.541H550.276L532.301 535.517V477.175C532.301 474.659 533.329 472.381 534.991 470.719C536.652 469.058 538.931 468.029 541.447 468.029H541.431Z" fill="#1A293D"/>
<path fill-rule="evenodd" clip-rule="evenodd" d="M609.55 476.876C609.978 476.876 610.31 476.527 610.31 476.116C610.31 475.705 609.978 475.356 609.55 475.356H540.86C540.433 475.356 540.101 475.705 540.101 476.116C540.101 476.527 540.449 476.876 540.86 476.876H609.55Z" fill="#1A293D"/>
<path fill-rule="evenodd" clip-rule="evenodd" d="M609.55 484.317C609.978 484.317 610.31 483.969 610.31 483.557C610.31 483.146 609.978 482.798 609.55 482.798H602.272C601.86 482.798 601.512 483.146 601.512 483.557C601.512 483.969 601.86 484.317 602.272 484.317H609.55ZM592.588 484.317C593.015 484.317 593.347 483.969 593.347 483.557C593.347 483.146 593.015 482.798 592.588 482.798H540.86C540.433 482.798 540.101 483.146 540.101 483.557C540.101 483.969 540.449 484.317 540.86 484.317H592.588Z" fill="#1A293D"/>
<path fill-rule="evenodd" clip-rule="evenodd" d="M609.55 491.735C609.978 491.735 610.31 491.387 610.31 490.975C610.31 490.564 609.978 490.216 609.55 490.216H540.86C540.433 490.216 540.101 490.564 540.101 490.975C540.101 491.387 540.449 491.735 540.86 491.735H609.55Z" fill="#1A293D"/>
<path fill-rule="evenodd" clip-rule="evenodd" d="M590.451 501.797C590.879 501.797 591.211 501.449 591.211 501.038C591.211 500.626 590.879 500.278 590.451 500.278H540.86C540.433 500.278 540.101 500.611 540.101 501.038C540.101 501.465 540.449 501.797 540.86 501.797H590.451Z" fill="#1A293D"/>
<path fill-rule="evenodd" clip-rule="evenodd" d="M568.314 509.845C568.741 509.845 569.074 509.497 569.074 509.086C569.074 508.674 568.726 508.326 568.314 508.326H540.86C540.433 508.326 540.101 508.674 540.101 509.086C540.101 509.497 540.449 509.845 540.86 509.845H568.314Z" fill="#1A293D"/>
<path fill-rule="evenodd" clip-rule="evenodd" d="M584.043 509.845C584.47 509.845 584.802 509.497 584.802 509.086C584.802 508.674 584.454 508.326 584.043 508.326H574.232C573.805 508.326 573.473 508.674 573.473 509.086C573.473 509.497 573.821 509.845 574.232 509.845H584.043Z" fill="#1A293D"/>
<defs>
<linearGradient id="paint0_linear_81_132" x1="674.855" y1="757.41" x2="772.691" y2="754.485" gradientUnits="userSpaceOnUse">
<stop stop-color="#3855E1"/>
<stop offset="1" stop-color="#5C7EF7"/>
</linearGradient>
<linearGradient id="paint1_linear_81_132" x1="509.904" y1="767.981" x2="586.959" y2="765.949" gradientUnits="userSpaceOnUse">
<stop stop-color="#3855E1"/>
<stop offset="1" stop-color="#5C7EF7"/>
</linearGradient>
<linearGradient id="paint2_linear_81_132" x1="560.929" y1="759.987" x2="656.764" y2="757.106" gradientUnits="userSpaceOnUse">
<stop stop-color="#3855E1"/>
<stop offset="1" stop-color="#5C7EF7"/>
</linearGradient>
<linearGradient id="paint3_linear_81_132" x1="790.661" y1="526.554" x2="887.485" y2="522.448" gradientUnits="userSpaceOnUse">
<stop stop-color="#3855E1"/>
<stop offset="1" stop-color="#5C7EF7"/>
</linearGradient>
<linearGradient id="paint4_linear_81_132" x1="791.665" y1="523.902" x2="828.676" y2="523.294" gradientUnits="userSpaceOnUse">
<stop stop-color="#3855E1"/>
<stop offset="1" stop-color="#5C7EF7"/>
</linearGradient>
<linearGradient id="paint5_linear_81_132" x1="846.399" y1="837.471" x2="938.647" y2="823.192" gradientUnits="userSpaceOnUse">
<stop stop-color="#3855E1"/>
<stop offset="1" stop-color="#5C7EF7"/>
</linearGradient>
<linearGradient id="paint6_linear_81_132" x1="927.725" y1="837.48" x2="1011.03" y2="825.892" gradientUnits="userSpaceOnUse">
<stop stop-color="#3855E1"/>
<stop offset="1" stop-color="#5C7EF7"/>
</linearGradient>
<linearGradient id="paint7_linear_81_132" x1="810.672" y1="844.708" x2="866.481" y2="836.068" gradientUnits="userSpaceOnUse">
<stop stop-color="#3855E1"/>
<stop offset="1" stop-color="#5C7EF7"/>
</linearGradient>
<linearGradient id="paint8_linear_81_132" x1="859.867" y1="844.708" x2="910.256" y2="837.697" gradientUnits="userSpaceOnUse">
<stop stop-color="#3855E1"/>
<stop offset="1" stop-color="#5C7EF7"/>
</linearGradient>
<linearGradient id="paint9_linear_81_132" x1="280.037" y1="828.919" x2="342.984" y2="811.391" gradientUnits="userSpaceOnUse">
<stop stop-color="#3855E1"/>
<stop offset="1" stop-color="#5C7EF7"/>
</linearGradient>
<linearGradient id="paint10_linear_81_132" x1="329.333" y1="828.919" x2="398.219" y2="807.566" gradientUnits="userSpaceOnUse">
<stop stop-color="#3855E1"/>
<stop offset="1" stop-color="#5C7EF7"/>
</linearGradient>
<linearGradient id="paint11_linear_81_132" x1="283.257" y1="828.919" x2="297.804" y2="828.047" gradientUnits="userSpaceOnUse">
<stop stop-color="#3855E1"/>
<stop offset="1" stop-color="#5C7EF7"/>
</linearGradient>
<linearGradient id="paint12_linear_81_132" x1="292.958" y1="828.919" x2="307.505" y2="828.047" gradientUnits="userSpaceOnUse">
<stop stop-color="#3855E1"/>
<stop offset="1" stop-color="#5C7EF7"/>
</linearGradient>
<linearGradient id="paint13_linear_81_132" x1="479.347" y1="780.689" x2="532.092" y2="779.576" gradientUnits="userSpaceOnUse">
<stop stop-color="#3855E1"/>
<stop offset="1" stop-color="#5C7EF7"/>
</linearGradient>
<linearGradient id="paint14_linear_81_132" x1="487.137" y1="822.347" x2="529.224" y2="819.542" gradientUnits="userSpaceOnUse">
<stop stop-color="#3855E1"/>
<stop offset="1" stop-color="#5C7EF7"/>
</linearGradient>
<linearGradient id="paint15_linear_81_132" x1="374.821" y1="770.743" x2="461.676" y2="768.077" gradientUnits="userSpaceOnUse">
<stop stop-color="#3855E1"/>
<stop offset="1" stop-color="#5C7EF7"/>
</linearGradient>
<linearGradient id="paint16_linear_81_132" x1="374.806" y1="782.983" x2="461.623" y2="779.87" gradientUnits="userSpaceOnUse">
<stop stop-color="#3855E1"/>
<stop offset="1" stop-color="#5C7EF7"/>
</linearGradient>
<linearGradient id="paint17_linear_81_132" x1="372.109" y1="771.942" x2="423.814" y2="770.984" gradientUnits="userSpaceOnUse">
<stop stop-color="#3855E1"/>
<stop offset="1" stop-color="#5C7EF7"/>
</linearGradient>
</defs>
</svg>
