<?xml version="1.0" encoding="UTF-8"?><svg id="Layer_1" xmlns="http://www.w3.org/2000/svg" viewBox="0 0 1046 641"><defs><style>.cls-1{fill:#e6e4eb;}.cls-2,.cls-3{fill:#e2e1e7;}.cls-4,.cls-5{fill:#fff;}.cls-6{fill:#90a9d5;}.cls-7{fill:#b6c7e6;}.cls-8,.cls-9{fill:#acabbb;}.cls-10{fill:#a8a6b5;}.cls-11,.cls-12{fill:#0e1632;}.cls-13,.cls-14{fill:#1bb9f5;}.cls-15,.cls-16{fill:#383d5d;}.cls-17{fill:#0f1630;stroke:#0e1632;stroke-miterlimit:22.9;stroke-width:.3px;}.cls-17,.cls-18,.cls-16,.cls-19,.cls-20,.cls-21,.cls-22,.cls-23,.cls-24,.cls-12,.cls-25,.cls-14,.cls-26,.cls-27,.cls-28,.cls-29,.cls-30,.cls-31,.cls-32,.cls-9,.cls-33,.cls-34,.cls-35,.cls-36,.cls-5,.cls-3,.cls-37,.cls-38,.cls-39,.cls-40,.cls-41,.cls-42,.cls-43{fill-rule:evenodd;}.cls-18{fill:#f4ad85;}.cls-19{fill:#3d4155;}.cls-20{fill:#484e6a;}.cls-21{fill:#545a6c;}.cls-22{fill:#96929f;}.cls-23{fill:#1a293d;}.cls-24{fill:#17a9e1;}.cls-25{fill:#1c2344;}.cls-26{fill:#101937;}.cls-27{fill:#171c3a;}.cls-28{fill:#dff0f2;}.cls-29{fill:#c9c4d1;}.cls-30{fill:#d2ced6;}.cls-31{fill:#cec9d0;}.cls-32{fill:#bfcce8;}.cls-33{fill:#b92f6d;}.cls-34{fill:#f0eef0;}.cls-35{fill:#ed9072;}.cls-36{fill:#e74d91;}.cls-37{fill:#e2e8f5;}.cls-38{fill:#e8685b;}.cls-39{fill:#0076bd;}.cls-40{fill:#004a82;}.cls-41{fill:#01020e;}.cls-42{fill:#010518;}.cls-43{fill:#05304b;}</style></defs><rect class="cls-4" x="-83" width="1200" height="641"/><path class="cls-37" d="m218.9,419.4h-85.7c-46.1,0-83.8,37.7-83.8,83.8s37.7,83.8,83.8,83.8h724.2c74.6,0,135.7-61.1,135.7-135.7s-61.1-135.7-135.7-135.7-57.4-25.8-57.4-57.4,25.8-57.4,57.4-57.4h69.1c32.8,0,59.7-26.9,59.7-59.7s-26.8-59.7-59.7-59.7h-87.3c-12.8,0-23.2-10.5-23.2-23.2s10.5-23.2,23.2-23.2h15.4c8.8,0,16-7.2,16-16s-7.2-16-16-16h-101c-21.3,0-23.6,25.1-77.4,25.1h-154.8c-11.5,0-20.9,9.4-20.9,20.9s9.4,20.9,20.9,20.9h20.1c16.7,0,30.3,13.6,30.3,30.3s-13.6,30.3-30.3,30.3h-30.2c-81.6,0-93.2,21.3-107.5,63.8-14.3,42.4-88.5,45.9-88.5,45.9h-101.5c-25.1,0-45.7,20.6-45.7,45.7s20.6,45.7,45.7,45.7h5.2c24.2,0,43.9,19.8,43.9,43.9s-19.8,43.9-43.9,43.9h0ZM899.6,35.1c-8.9,0-16-7.2-16-16s7.2-16,16-16,16,7.2,16,16-7.2,16-16,16Z"/><path class="cls-32" d="m226.2,587h7.3v-44.6l27.8,27.8-16.7,16.7h6.9l13.3-13.3,13.3,13.3h6.9l-16.7-16.7,27.8-27.8v44.6h7.3V240.2h-7.3v8.4l-8.4-8.4h-6.9l15.4,15.4v.4l-31.3,31.3-31.3-31.3v-.4l15.4-15.4h-6.9l-8.5,8.4v-8.4h-7.3v92c2.5.4,5,1.1,7.3,1.9v-1.2l2,2c10.9,4.5,19.6,13.2,24.1,24.1l1.7,1.7-.8.8c.6,1.8,1.1,3.6,1.5,5.4l2.8-2.8,31.3,31.3v.4l-31.3,31.3-17.8-17.8c-1.3,1.1-2.6,2-4,2.9l18.3,18.3-27.8,27.8v-41.4c-2.4.8-4.8,1.5-7.3,1.9v168.2h0Zm7.3-58.8v-55.6l27.8,27.8-27.8,27.8Zm0-209.7v-55.6l27.8,27.8-27.8,27.8Zm62.6-55.6v55.6l-27.8-27.8,27.8-27.8Zm0,69.9v55.6l-27.8-27.8,27.8-27.8Zm0,69.9v55.6l-27.8-27.8,27.8-27.8Zm0,69.9v55.6l-27.8-27.8,27.8-27.8Zm-62.6-147.1l31.3-31.3,31.3,31.3v.4l-31.3,31.3-31.3-31.3v-.4Zm0,139.8l31.3-31.3,31.3,31.3v.4l-31.3,31.3-31.3-31.3v-.4Zm0,69.9l31.3-31.3,31.3,31.3v.4l-31.3,31.3-31.3-31.3v-.4Z"/><path class="cls-32" d="m739.3,587h7.3v-44.6l27.8,27.8-16.7,16.7h6.9l13.3-13.3,13.3,13.3h6.9l-16.7-16.7,27.8-27.8v44.6h7.3v-288.7c-2.7-2.8-5.2-5.9-7.3-9.2v29.4l-27.8-27.8,20.1-20.1c-.4-1.9-.8-3.9-1-5.9l-22.6,22.6-31.3-31.3v-.4l31.3-31.3,23.2,23.2c.4-1.9.8-3.8,1.4-5.6l-21.1-21.1,27.8-27.8v34.3c2.1-3.3,4.6-6.4,7.3-9.2V63.3c-.3-1.6-.5-3.2-.5-5s.2-3.4.5-5V3h-7.3v36l-27.8-27.8,8.1-8.1h-6.9l-4.7,4.7-4.7-4.7h-6.9l8.1,8.1-27.8,27.8V4c-2.6.8-5,2-7.3,3.4v579.7h0Zm7.3-58.8v-55.6l27.8,27.8-27.8,27.8Zm0-69.9v-55.6l27.8,27.8-27.8,27.8Zm0-69.9v-55.6l27.8,27.8-27.8,27.8Zm0-69.9v-55.6l27.8,27.8-27.8,27.8Zm0-69.9v-55.6l27.8,27.8-27.8,27.8Zm0-69.9v-55.6l27.8,27.8-27.8,27.8Zm0-69.9v-55.6l27.8,27.8-27.8,27.8Zm62.6-55.6v55.6l-27.8-27.8,27.8-27.8Zm0,69.9v55.6l-27.8-27.8,27.8-27.8Zm0,209.7v55.6l-27.8-27.8,27.8-27.8Zm0,69.9v55.6l-27.8-27.8,27.8-27.8Zm0,69.9v55.6l-27.8-27.8,27.8-27.8Zm-62.6-426.7l31.3-31.3,31.3,31.3v.4l-31.3,31.3-31.3-31.3v-.4Zm0,69.9l31.3-31.3,31.3,31.3v.4l-31.3,31.3-31.3-31.3v-.4Zm0,69.9l31.3-31.3,31.3,31.3v.4l-31.3,31.3-31.3-31.3v-.4Zm0,139.8l31.3-31.3,31.3,31.3v.4l-31.3,31.3-31.3-31.3v-.4Zm0,69.9l31.3-31.3,31.3,31.3v.4l-31.3,31.3-31.3-31.3v-.4Zm0,69.9l31.3-31.3,31.3,31.3v.4l-31.3,31.3-31.3-31.3v-.4Zm0,69.9l31.3-31.3,31.3,31.3v.4l-31.3,31.3-31.3-31.3v-.4Z"/><path class="cls-32" d="m200.2,419.4h-10.8v13.3l-13.3-13.3h-10.2l23.4,23.5v.6l-46.1,46.1-46.1-46.1v-.6l22.3-22.3c-4.7.8-9.3,2-13.7,3.5l-8.6,8.6v-5c-3.8,1.8-7.4,3.9-10.8,6.2v138.7c3.4,2.3,7,4.4,10.8,6.2v-22.2l30.2,30.2c2,.1,3.9.2,5.9.2h4.5l-40.6-40.6v-.6l46.1-46.1,46.1,46.1v.6l-40.6,40.6h10.2l30.4-30.4v30.4h10.8v-167.6Zm0-177.1c-10.9,3.4-20,10.7-25.7,20.3l14.9-14.9v76.8c3.3,2.1,7,3.8,10.8,5v-87.2h0Zm-103,293.4v-82l41,41-41,41Zm92.2-82v82l-41-41,41-41Z"/><path class="cls-32" d="m842.5,587h10.8v-30.4l28.2,28.2c2.8-.5,5.6-1.1,8.4-1.8l-36.6-36.6v-.6l46.1-46.1,46.1,46.1v.6l-24.9,24.9c13.4-7.1,25.4-16.3,35.7-27.3v-185.6c-4.7-5-9.7-9.6-15-13.8l-41.9,41.9-46.1-46.1v-.6l23-23c-3-.4-6.1-.8-9.2-1l-13.7,13.7v-14.2c-3.7-.3-7.3-.9-10.8-1.9v273.4h0Zm0-384.2c3.5-1,7.1-1.6,10.8-1.9v-56.3l41,41-15.1,15.1h10.2l10-10,10,10h10.2l-15.1-15.1,41-41v53c3.8-1.3,7.4-2.9,10.8-4.9v-103.3c-3.4-2-7-3.6-10.8-4.9v39.1l-41-41,1.2-1.2h-12.6l1.2,1.2-41,41v-42.2h-10.8v121.3h0Zm0-167.8h12.1c.7,0,1.4,0,2.1-.1l-3.4-3.4v-.6l16.6-16.6c-.8-2.4-2.1-4.6-3.8-6.4l-12.8,12.8V3h-10.8v32.1Zm10.8,500.6v-82l41,41-41,41Zm0-103v-82l41,41-41,41Zm92.2-82v82l-41-41,41-41Zm0,103v82l-41-41,41-41Zm-92.2-319.8l46.1-46.1,46.1,46.1v.6l-46.1,46.1-46.1-46.1v-.6Zm0,309l46.1-46.1,46.1,46.1v.6l-46.1,46.1-46.1-46.1v-.6Z"/><path class="cls-6" d="m258,453.7h-73.7c-3,0-5.4,2.4-5.4,5.4v52c0,3,2.4,5.4,5.4,5.4h73.7c3,0,5.4-2.4,5.4-5.4v-52c0-3-2.4-5.4-5.4-5.4Z"/><path class="cls-7" d="m306.4,453.7h-73.7c-3,0-5.4,2.4-5.4,5.4v52c0,3,2.4,5.4,5.4,5.4h73.7c3,0,5.4-2.4,5.4-5.4v-52c0-3-2.4-5.4-5.4-5.4Z"/><path class="cls-6" d="m242.3,474.4h54.6c1.7,0,3.1,1.4,3.1,3.1v15.1c0,1.7-1.4,3.1-3.1,3.1h-54.6c-1.7,0-3.1-1.4-3.1-3.1v-15.1c0-1.7,1.4-3.1,3.1-3.1Z"/><path class="cls-1" d="m246.2,478h26.8c.4,0,.7.3.7.7v3.3c0,.4-.3.7-.7.7h-26.8c-.4,0-.7-.3-.7-.7v-3.3c0-.4.3-.7.7-.7Z"/><path class="cls-1" d="m246.2,485.4h13.3c.4,0,.7.3.7.7v3.3c0,.4-.3.7-.7.7h-13.3c-.4,0-.7-.3-.7-.7v-3.3c0-.4.3-.7.7-.7Z"/><path class="cls-6" d="m232.6,516.5h88.3c3.6,0,6.5,2.9,6.5,6.5v62.3c0,3.6-2.9,6.5-6.5,6.5h-88.3c-3.6,0-6.5-2.9-6.5-6.5v-62.3c0-3.6,2.9-6.5,6.5-6.5Z"/><path class="cls-7" d="m174.6,516.5h88.3c3.6,0,6.5,2.9,6.5,6.5v62.3c0,3.6-2.9,6.5-6.5,6.5h-88.3c-3.6,0-6.5-2.9-6.5-6.5v-62.3c0-3.6,2.9-6.5,6.5-6.5Z"/><path class="cls-6" d="m251.5,541.4h-65.4c-2.1,0-3.7,1.7-3.7,3.7v18.1c0,2.1,1.7,3.7,3.7,3.7h65.4c2.1,0,3.7-1.7,3.7-3.7v-18.1c0-2.1-1.7-3.7-3.7-3.7Z"/><path class="cls-1" d="m246.8,545.7h-32.2c-.4,0-.8.4-.8.8v4c0,.4.4.8.8.8h32.2c.4,0,.8-.4.8-.8v-4c0-.4-.4-.8-.8-.8Z"/><path class="cls-1" d="m246.8,554.5h-15.9c-.4,0-.8.4-.8.8v4c0,.4.4.8.8.8h15.9c.4,0,.8-.4.8-.8v-4c0-.4-.4-.8-.8-.8Z"/><path class="cls-32" d="m1004.7,40.7c0-.9-.8-1.7-1.7-1.7s-1.7.8-1.7,1.7v4.1h-4.1c-1,0-1.7.8-1.7,1.7s.8,1.7,1.7,1.7h4.1v4.1c0,.9.8,1.7,1.7,1.7s1.7-.8,1.7-1.7v-4.1h4.1c.9,0,1.7-.8,1.7-1.7s-.8-1.7-1.7-1.7h-4.1v-4.1Z"/><path class="cls-32" d="m483.5,152.3c0-1-.8-1.7-1.7-1.7s-1.7.8-1.7,1.7v4.1h-4.1c-1,0-1.7.8-1.7,1.7s.8,1.7,1.7,1.7h4.1v4.1c0,1,.8,1.7,1.7,1.7s1.7-.8,1.7-1.7v-4.1h4.1c1,0,1.7-.8,1.7-1.7s-.8-1.7-1.7-1.7h-4.1v-4.1Z"/><path class="cls-32" d="m490.6,344.3c0-.9-.8-1.7-1.7-1.7s-1.7.8-1.7,1.7v4.1h-4.1c-1,0-1.7.8-1.7,1.7s.8,1.7,1.7,1.7h4.1v4.1c0,1,.8,1.7,1.7,1.7s1.7-.8,1.7-1.7v-4.1h4.1c.9,0,1.7-.8,1.7-1.7s-.8-1.7-1.7-1.7h-4.1v-4.1Z"/><path class="cls-32" d="m338.6,258.3c0-.9-.8-1.7-1.7-1.7s-1.7.8-1.7,1.7v4.1h-4.1c-.9,0-1.7.8-1.7,1.7s.8,1.7,1.7,1.7h4.1v4.1c0,1,.8,1.7,1.7,1.7s1.7-.8,1.7-1.7v-4.1h4.1c.9,0,1.7-.8,1.7-1.7s-.8-1.7-1.7-1.7h-4.1v-4.1Z"/><path class="cls-32" d="m915.1,248.1c0-.9-.8-1.7-1.7-1.7s-1.7.8-1.7,1.7v4.1h-4.1c-1,0-1.7.8-1.7,1.7s.8,1.7,1.7,1.7h4.1v4.1c0,1,.8,1.7,1.7,1.7s1.7-.8,1.7-1.7v-4.1h4.1c1,0,1.7-.8,1.7-1.7s-.8-1.7-1.7-1.7h-4.1v-4.1Z"/><path class="cls-17" d="m660.7,376s10.3,3.4,18.5,13.3c4.6,5.6,61,113.6,64.6,120.7,3.6,7,3.6,24.8-4.9,35.7-3.3,4.3-12.8,16.1-23.3,29.1h-33.8c12.3-18.4,28.3-42.5,29.4-44.4,1.9-3.2,2.8-6.2-.6-11.6-3.4-5.3-48.6-60.4-48.6-60.4,0,0-22.2-62-1.4-82.4Z"/><path class="cls-31" d="m601.4,367.3s56.9,8.1,59.3,8.7c2.5.6,6.6,6.3,8.8,10.2,2.2,3.9,4.9,59.4,6.1,74.9,1.3,15.5-3.7,83.3-2.2,101.5.3,3,.7,7.3,1.3,12.3h-170.1c-2.2-20.1-17.3-83.1-18.6-98.2-1.3-15.5-7.7-70.7-6.1-74.9,1.6-4.2,4.7-10.5,7.1-11.5,2.3-1,57.8-18.3,57.8-18.3l28.4,3.1,28.2-7.8h0Z"/><path class="cls-5" d="m601.4,367.3s3.8.5,9.4,1.3c-.3,1.4-.9,2.7-1.9,3.9-22.1,25.3-44.7,27.2-70.6,5.8-1.2-1-2.1-2.2-2.6-3.5,5.4-1.7,9.1-2.8,9.1-2.8l28.4,3.1,28.2-7.8h0Z"/><path class="cls-38" d="m591.5,312.5l.5,14.2s2.4,28.9,2.7,33.3c.2,2.1,2.6,5,6.7,7.3-18.6,21.3-34.8,22.6-56.6,4.6,3.7-3,5.6-6.2,5.4-8.3-.4-4.4-2.7-33.3-2.7-33.3l-1.8-14.1s11.4.9,23.2,2.5c11.4-3.5,22.5-6.3,22.5-6.3h0Z"/><path class="cls-24" d="m606.1,368s-6.6,28.4-7.1,34.2c-.5,5.8-8.2,64-7.4,73.8.4,4.5,9.3,50,18.9,98.8h77.5c-1.9-11.9-3.5-22.2-4.4-28-3.1-20.8-5.3-64.2-4.6-90.9.7-26.8-6-66.9-6.8-70.7-.8-3.8-8.4-8.6-10.7-9.5l-55.5-7.8Z"/><path class="cls-19" d="m597.7,414.3c-2.3,19.2-6.6,54.2-6,61.7,0,0,37.7-41,37.1-45.1-.6-4.1-15.9-34.2-15.9-34.2,0,0-6.6,7.6-15.2,17.6h0Z"/><path class="cls-21" d="m604.2,367.7s1.7-1.5,2.3-1.5c.6,0,10.8,3.4,10.8,3.4,0,0,14.9,23.5,15.2,26.4.2,3-36.6,33.1-36.6,33.1l3.3-27.6s5.3-27,7-33.6l-1.9-.3h0Z"/><path class="cls-24" d="m487.7,390.2s-9.6,5.1-16.1,16.2c-3.6,6.3-41.7,122-44.1,129.6-2.4,7.5.5,25.1,10.7,34.5,1.1,1,2.8,2.5,4.9,4.5h42.2c-11.2-12-21.3-22.8-22.3-24.1-2.4-2.8-3.8-5.7-1.3-11.5s38.1-67.5,38.1-67.5c0,0,11.8-64.8-12.1-81.6Z"/><path class="cls-24" d="m540.3,373.4s11.1,27,12.5,32.6c1.4,5.6,18.5,61.8,19.3,71.6.4,4.4-1,48.7-2.5,97.2h-76.6c0-5.1,0-9.3-.1-12.3-.3-21.1-5.3-64.2-10.3-90.5-5-26.3-5-67-4.8-70.9.2-3.9,6.9-9.8,9.1-11.1l53.5-16.7h0Z"/><path class="cls-19" d="m556.2,417.7c5.4,18.5,15.3,52.4,16,59.9,0,0-43.8-34.3-43.9-38.4,0-4.1,10.1-36.3,10.1-36.3,0,0,7.7,6.4,17.9,14.9h0Z"/><path class="cls-21" d="m542.1,372.8s-1.9-1.2-2.5-1.2c-.6,0-10.1,5.1-10.1,5.1,0,0-10.9,25.6-10.6,28.6.2,3,41.5,26.8,41.5,26.8l-7.7-26.7s-9.7-25.7-12.4-32l1.8-.6h0Z"/><path class="cls-38" d="m521.2,321.2c-.3,0-.6.1-.8.2-5.1,1.6-8.6,6.5-8.2,12,.5,6.4,6.1,11.3,12.5,10.8,6.4-.5,11.3-6.1,10.8-12.5-.3-3.8-2.3-6.9-5.2-8.9.6,3.4.5,7.7-3.9,8.5l-.5-6.7c-.2-2.7-2.8-3.8-4.7-3.5Z"/><path class="cls-38" d="m605.3,313.5c.3,0,.6,0,.9,0,5.3.6,9.7,4.8,10.3,10.3.7,6.4-3.9,12.2-10.3,12.9-6.4.7-12.2-3.9-12.9-10.3-.4-3.7,1-7.2,3.5-9.7,0,3.5.9,7.7,5.4,7.7l-.7-6.7c-.3-2.7,2.1-4.2,4-4.3h0Z"/><path class="cls-18" d="m557.9,259.1c-21.9,2-38.2,21.6-36.2,43.5l3.3,36.3c2,21.9,21.6,38.2,43.5,36.2,21.9-2,38.2-21.6,36.2-43.5l-3.3-36.3c-2-21.9-21.6-38.2-43.5-36.2Z"/><path class="cls-35" d="m524.2,284.8c-2.1,5.5-3,11.6-2.5,17.8l3.3,36.3c1.9,20.6,19.4,36.3,39.7,36.4-23.2-1.8-27.5-29.2-29.2-43.6-1.8-14.4,3.6-17.7,5.8-18.4,2.2-.7,35.8-6.3,43.3-7.2,7.5-.9,11.2,3.3,11.2,3.3l3.1-4.6-3-9.7s2.6,0,5.6,0c-.3-2.6-.7-5.1-1.5-7.5-4.3-1.5-9.1-3.4-13.1-5.9-8.9-5.7-51.3,1.4-58.2,1.4s-2.6.6-4.5,1.7h0Z"/><path class="cls-12" d="m599,314.6s.2,2.7.5,5.1c.2,2.5,2.8,5,4.7,4.9l-.5-5.6s.4-4.2,5.5-4.7c14.1-19.5,9.4-47.9-8.8-61.3-18.1-13.3-54.2-11-60.3-8.3-6.1,2.7-11.6,13.9-11.6,13.9,0,0-5.8-4.3-10.5-1.3-4.7,2.9-18.4,35.7-17.7,43.5.7,7.8,17.2,21.9,17.2,21.9,5.1-.5,6.3,3.6,6.3,3.6l.5,5.6c1.9-.2,3.9-3.1,3.7-5.6-.2-2.5-.5-5.1-.5-5.1.2,0,.3-.2.5-.3,4.8-3.1,3.9-12.7,3.9-12.7l-4.5-6.2,8.8-11.6,10.2-3.4,23.1.9s27.3,3.4,24.9,11.3c-2.4,7.9,4.4,15.5,4.4,15.5h0Z"/><path class="cls-42" d="m599,314.6c.3,3.1,2.3,16.7,5.9,16.4,10.6-22.3,20.4-45.7,4.6-68.5-1.9,14.7-16.5,23.7-31.2,26.8,7.8,1.7,17.8,4.9,16.3,9.8-2.4,7.9,4.4,15.5,4.4,15.5h0Zm-97.6-20.7c-.8,2.9-1.2,5.4-1,6.9.6,6,20.6,35.1,25,41.7,2.3-.2,2.6-17.4,2.3-21.3.2,0,.3-.2.5-.3,4.8-3.1,3.9-12.7,3.9-12.7l-4.5-6.2,8.8-11.6,9.7-3.2c-4.9-2-6.3-4-6.3-4-20.1,20.3-31.7,19.2-38.5,10.9Z"/><path class="cls-12" d="m517.9,315.2s-16.8-36.4,17-42.6c0,0,8.9-17.6,26.8-13.2,17.9,4.4,29.1,4.3,37.1-3.6,0,0,4.6,8.7-1,16.2,16.9,13.1,11.1,30,4.1,39.1-2.8-18.8-52.4,2.1-58.9-16-.6,17.3-18.8,13-25.1,20.1Z"/><path class="cls-42" d="m517.9,315.3s-3.3-7.3-4-15.8c6.5-.6,15-5.3,26-16.4,0,0,4.5,6.6,25.2,7.5,12.6.5,28.6-4.1,37.6-13.8,10.8,12.3,5.5,26.5-.7,34.6-2.8-18.8-52.4,2.1-58.9-16-.6,17.3-18.8,13-25.1,20.1h0Z"/><path class="cls-43" d="m1005.6,319.2c-7.1-26.6-31.9-12-42.5,10.8-10.6,22.8-34.9,111.6-55.9,134.6-8.1,8.9-5.6,9.7,1.8,5.3,37.3-21.6,106.3-114.1,96.6-150.7Z"/><path class="cls-39" d="m902.1,471.5c-.3,1.2.9,1.2,3,.4,56.6-47.9,86.7-155,86.8-155.3.2-.6-.2-1.2-.8-1.4-.6-.2-1.2.2-1.4.8,0,.3-30.6,108.9-87.7,155.5h0Z"/><path class="cls-39" d="m942.8,333.3c-12.4-19.4-28.4-1.5-31.1,19.3-2.7,20.8.4,97.7-10.5,121.4-4.2,9.2-2.1,9.1,2.8,3.8,24.3-26.7,55.9-117.8,38.8-144.5Z"/><path class="cls-43" d="m898.9,480.8c0,1,1,.8,2.5-.5,33-52.5,29.9-145.3,29.9-145.6,0-.5-.4-.9-.9-.9-.5,0-.9.4-.9.9,0,.3,3.2,94.4-30.5,146Z"/><path class="cls-39" d="m1004.1,399.4c21.4,2.2,13.1,23.1-3.2,34.1-16.3,11-81.8,40.5-97,59.6-5.9,7.4-6.8,5.5-4.3-.8,12.2-31.5,75.1-96,104.5-92.9h0Z"/><path class="cls-43" d="m899.2,497.7c-.9.3-1.1-.5-.6-2.3,30-49.5,109-85.8,109.2-85.9.4-.2.9,0,1.2.4.2.4,0,.9-.4,1.2-.2.1-80.2,36.9-109.3,86.6h0Z"/><path class="cls-12" d="m698.7,372.6l-5.3,46.7s8,109.3,12,155.5h59.6l1.3-186-67.6-16.2h0Z"/><path class="cls-12" d="m730.3,413.1l-2.6,16.5,5.2,145.2h72.6c1.2-10,2.3-18.6,3.2-24.8,5.5-38.2,7.3-91.3,7.3-103.8,0-12.6-14.6-31.2-19.6-32.6-5-1.4-66.2-.5-66.2-.5Z"/><path class="cls-27" d="m706,188.9s-2.5-4.6-4.4-3.8c-2,.9-67.7,97.6-70,106-2.2,8.3-1.3,23.1,11.4,43.6,12.7,20.5,40,70.8,40.9,71.9,1,1.1,15.8-9,17.4-11.8,0,0,.6-.9-.3-2.8-.9-1.9-33.3-78.6-35.4-84.1-2-5.5,55.6-73.8,58.4-79.3,2.8-5.5,13.4-34.1-18.1-39.7h0Z"/><path class="cls-29" d="m758.7,161.2l-28.6,20.5s-20.4,80-20.5,83.6c0,3.6-7.9,47.8-7.9,47.8,0,0,28.6,11.4,32.7.5,4.1-10.9,50-89.1,52.3-101.4,2.3-12.3-3.2-41.4-5.9-44.6-2.7-3.2-22.1-6.4-22.1-6.4Z"/><path class="cls-27" d="m729.9,174.6s-26,9.1-28.3,10.5c-2.4,1.4-16.4,52.4-17.5,57.2-1.1,4.8,6.4,92.3,6.4,100s-9.8,104.4-10,105.9c-.2,1.6.7,3.4,3,3.4s27.7-48,29.8-53.4c2-5.5-4.6-87.8-4.6-87.8l17.3-117.8,4-18.1h0Z"/><path class="cls-25" d="m806.9,187.6s37.2,37.5,38.5,39.7c1.4,2.3-37.3,130.3-37.7,136.2-.5,5.9,19.1,93,19.8,95.3,0,0,.1.9-.6,2.3-.7,1.4-2.3,2.2-3.1,2.7-.8.6-91.7-14.1-99-18.6-7.3-4.5-23-75.3-23-84.8s5.5-46.1,5.5-46.1l44.7-75.8s32.3-48.5,54.8-50.9h0Z"/><path class="cls-26" d="m801,181.7s43.1,43.4,44.4,45.7c1.4,2.3-37.3,130.3-37.7,136.2-.5,5.9,19.1,93,19.8,95.3,0,0,.1.9-.6,2.3-.7,1.4-2.3,2.2-3.1,2.7-.4.3-24.6-3.4-49-7.7,21.2-30.5,20.1-81.1,18.2-84.2-2.2-3.6-13.5-11.3-11.7-11.9,1.7-.6,13.3-.9,14.2-3.7.9-2.9,17.2-93.5,17.2-93.5l10.9-7.3s4.9-35.2,1.4-40.4c-3.4-5.1-26.1-24.7-26.3-24.8,2.8-1.4-.3-8.2,2.3-8.5h0Z"/><path class="cls-16" d="m840.3,221.6s5.6,4.5,9.5,9.6c3.9,5.1,52.4,106.5,53.4,116,1,9.5-2.5,25.5-20,45.8-17.5,20.2-56,70.6-57.2,71.6-1.2,1-15.8-12.6-17.1-16,0,0-.6-1.1.8-3,1.4-1.9,50.1-80.3,53.3-86,3.2-5.7-48.2-90.4-50.3-96.9-2.1-6.5-7.8-40.4,27.6-41.1Z"/><path class="cls-35" d="m786,125.6c.3,14.2-3.4,28.8-2.5,43,.2,2.9,1.6,3.9,5.1,6.2,5,7.4-8.6,30.6-17.5,32-.6,0-15.1-11.3-25.3-13.9-5.3-1.4-9.6,5.4-10,5.1-2.1-1.6,2.5-13.6,1-18.2,1.8-.5,3.4-4.5,4.7-5.7,8.3-7.7,5.6-26.8-1.2-34.1-5.1-5.4,45.7-14.5,45.7-14.5h0Z"/><path class="cls-5" d="m795.3,180.3c-1.1,3.2-28.6,39.9-28.6,39.9,0,0-1,1.3-2.4-.3-1.4-1.7-18.4-25.3-18.4-25.3l37.6-28-.9-6.4c.6-.6,13.8,16.9,12.7,20.2h0Z"/><path class="cls-5" d="m744.9,168.4s0,0-.1,0c-12.8-.9-14.8,35.5-12.5,42.7,0,0,7.8-11.9,13.2-16.7,2.4-2.2-5.2-18.6-.5-25.9h0Z"/><path class="cls-43" d="m792.1,169.8s-48.1,59.6-51.5,64.6c-3.4,5-29.6,66.6-33.2,79.8,0,0,40.2-50.2,45.9-54.8,5.7-4.5,26.7-22.1,26.7-22.1,0,0,.6-1.1.3-1.9-.3-.8-6.1-14-6.1-14,0,0,17.5,2.6,19.1,2.5,1.6-.1,9.4-39.2,9.7-40.3.2-1.1-10.9-13.8-10.9-13.8Z"/><path class="cls-43" d="m745,168.3s-12.7,2.9-14.8,4.1c-2,1.1-18.2,28-18.6,30.2,0,0-.2,1.1.7,1.5.9.5,4.3,2.6,4.6,2.9.3.3-5.6,1-5.6,1,0,0-.7.3-.6,1.3.1,1-2.2,101.2-2.2,101.2,0,0,19.8-110.7,22.8-118,2.9-7.3,10.8-18.8,10.8-18.8l2.8-5.4h0Z"/><path class="cls-38" d="m723.4,104.9c6.3,0,11.4,5,11.4,11.3,0,6.3-5,11.4-11.3,11.4-6.3,0-11.4-5-11.4-11.3,0-6.3,5-11.4,11.3-11.4Z"/><path class="cls-38" d="m799.1,104.5c6.3,0,11.4,5,11.4,11.3,0,6.3-5,11.4-11.3,11.4-6.3,0-11.4-5-11.4-11.3,0-6.3,5-11.4,11.3-11.4h0Z"/><path class="cls-18" d="m757.3,46.7c21.4-.1,38.9,18.8,39.1,42.1l.2,38.5c.1,23.3-17.3,42.5-38.6,42.6-21.4.1-38.9-18.8-39.1-42.1l-.2-38.5c-.1-23.3,17.3-42.5,38.6-42.6Z"/><path class="cls-35" d="m794.9,77.3c1,3.6,1.5,7.5,1.5,11.4l.2,38.5c.1,21.4-14.6,39.4-33.5,42.2-1.9.2-3.1.3-3.3.3h0c21.2-2.1,25.7-30,25.7-38.4v-21.8c0-20.6-11.4-22.8-19.2-22.8h-38.7c-5,0-6.8,4.6-6.8,4.6l-1.9-1.5v-.7c0-12.3,4.8-23.5,12.5-31.3,19.4,3.8,51.8,10.3,54,11.7,1.2.8,5.2,4,9.6,7.8Z"/><path class="cls-41" d="m713.4,77.7l7,7s3.3-13,31.5-9c28.1,4-25.9-26.1-32.1-22.8-6.1,3.3-11.5,13-6.4,24.9h0Z"/><path class="cls-12" d="m786.5,78.3s-27.7,3-41.8-5.9c-14.1-8.9-26-13.1-29.6-8.2-3.4,4.6,10.3,17.1,4.8,38.2-.3,1.2-1,20.7-1.4,21.9-.1-7.7-2.6-27.2-5.1-32.1-7.6-14.6-19.4-25.6-4-47.6,9.4-13.5,25.5-19.8,33-13,24.3,22.2,57.8-6.6,57.9,30.1,0,0,18,6.1,1.3,42.9-3.8,0-5,2.9-5,5.3v19.7c-13.4,0-13.7-35.5-10-51.4h0Z"/><path class="cls-2" d="m774.6,411.7h78.3c3.8,0,6.9,3.1,6.9,6.9v134.7c0,3.8-3.1,6.9-6.9,6.9h-78.3c-3.8,0-6.9-3.1-6.9-6.9v-134.7c0-3.8,3.1-6.9,6.9-6.9Z"/><path class="cls-4" d="m918,411.7h-63.4c-3.2,0-5.8,2.6-5.8,5.8v136.9c0,3.2,2.6,5.8,5.8,5.8h63.4c3.2,0,5.8-2.6,5.8-5.8v-136.9c0-3.2-2.6-5.8-5.8-5.8Z"/><path class="cls-5" d="m752,468.1h81.2c0-14.5,15.7-16.2,15.7-16.2h-81.2s-15.7,1.6-15.7,16.2Z"/><path class="cls-13" d="m851.7,536.3h-84c-2.5,0-4.5,2-4.5,4.5v29.4c0,2.5,2,4.5,4.5,4.5h84c2.5,0,4.5-2,4.5-4.5v-29.4c0-2.5-2-4.5-4.5-4.5Z"/><path class="cls-24" d="m849,536.3h18.5c.4,0,4.9.2,7.4,5.7,2.6,5.8,2.4,11.5,10.2,11.5s-3.3,0,3.4,0,7.6-5.9,10.2-11.5c2.6-5.6,7-5.7,7.4-5.7h17.5c2.5,0,4.5,2,4.5,4.5v29.5c0,2.5-2,4.5-4.5,4.5h-74.6c-2.5,0-4.5-2-4.5-4.5v-29.5c0-2.5,2-4.5,4.5-4.5h0Z"/><path class="cls-5" d="m752,518.9h81.2c0-14.5,15.7-16.2,15.7-16.2h-81.2s-15.7,1.6-15.7,16.2Z"/><path class="cls-9" d="m937,494.7h-73.8c0-14.5-14.4-16.2-14.4-16.2h73.8s14.3,1.6,14.3,16.2h0Z"/><path class="cls-3" d="m860.6,427.8h56.6c1.4,0,2.5,1.1,2.5,2.5s-1.1,2.5-2.5,2.5h-56.6c-1.4,0-2.5-1.1-2.5-2.5s1.1-2.5,2.5-2.5Z"/><path class="cls-3" d="m860.6,455.3h56.6c1.4,0,2.5,1.1,2.5,2.5s-1.1,2.5-2.5,2.5h-56.6c-1.4,0-2.5-1.1-2.5-2.5s1.1-2.5,2.5-2.5Z"/><path class="cls-3" d="m860.6,512.7h56.6c1.4,0,2.5,1.1,2.5,2.5s-1.1,2.5-2.5,2.5h-56.6c-1.4,0-2.5-1.1-2.5-2.5s1.1-2.5,2.5-2.5Z"/><path class="cls-9" d="m779.7,425.8h54.7c1.4,0,2.5,1.1,2.5,2.5s-1.1,2.5-2.5,2.5h-54.7c-1.4,0-2.5-1.1-2.5-2.5s1.1-2.5,2.5-2.5Z"/><path class="cls-8" d="m834.3,487.7h-54.6c-1.4,0-2.5,1.1-2.5,2.5s1.1,2.5,2.5,2.5h54.6c1.4,0,2.5-1.1,2.5-2.5s-1.1-2.5-2.5-2.5Z"/><path class="cls-9" d="m779.7,527.3h54.7c1.4,0,2.5,1.1,2.5,2.5s-1.1,2.5-2.5,2.5h-54.7c-1.4,0-2.5-1.1-2.5-2.5s1.1-2.5,2.5-2.5Z"/><path class="cls-2" d="m781.9,476.1h-47.4c-2.3,0-4.2,1.9-4.2,4.2v81.5c0,2.3,1.9,4.2,4.2,4.2h47.4c2.3,0,4.2-1.9,4.2-4.2v-81.5c0-2.3-1.9-4.2-4.2-4.2Z"/><path class="cls-4" d="m782.9,476.1h38.4c1.9,0,3.5,1.6,3.5,3.5v82.8c0,1.9-1.6,3.5-3.5,3.5h-38.4c-1.9,0-3.5-1.6-3.5-3.5v-82.8c0-1.9,1.6-3.5,3.5-3.5h0Z"/><path class="cls-5" d="m720.8,510.2h49.1c0-8.8,9.5-9.8,9.5-9.8h-49.1s-9.5,1-9.5,9.8Z"/><path class="cls-13" d="m730.3,551.5h50.8c1.5,0,2.7,1.2,2.7,2.7v17.8c0,1.5-1.2,2.7-2.7,2.7h-50.8c-1.5,0-2.7-1.2-2.7-2.7v-17.8c0-1.5,1.2-2.7,2.7-2.7Z"/><path class="cls-24" d="m779.5,551.5h11.2c.3,0,3,.1,4.5,3.4,1.6,3.5,1.4,7,6.2,7s-2,0,2,0,4.6-3.6,6.2-7c1.6-3.4,4.2-3.4,4.5-3.4h10.6c1.5,0,2.7,1.2,2.7,2.7v17.8c0,1.5-1.2,2.7-2.7,2.7h-45.1c-1.5,0-2.7-1.2-2.7-2.7v-17.8c0-1.5,1.2-2.7,2.7-2.7h0Z"/><path class="cls-5" d="m720.8,541h49.1c0-8.8,9.5-9.8,9.5-9.8h-49.1s-9.5,1-9.5,9.8Z"/><path class="cls-9" d="m832.7,526.3h-44.7c0-8.8-8.7-9.8-8.7-9.8h44.7s8.7,1,8.7,9.8Z"/><path class="cls-3" d="m786.5,485.9h34.2c.8,0,1.5.7,1.5,1.5s-.7,1.5-1.5,1.5h-34.2c-.8,0-1.5-.7-1.5-1.5s.7-1.5,1.5-1.5Z"/><path class="cls-3" d="m786.5,502.5h34.2c.8,0,1.5.7,1.5,1.5s-.7,1.5-1.5,1.5h-34.2c-.8,0-1.5-.7-1.5-1.5s.7-1.5,1.5-1.5Z"/><path class="cls-3" d="m786.5,537.2h34.2c.8,0,1.5.7,1.5,1.5s-.7,1.5-1.5,1.5h-34.2c-.8,0-1.5-.7-1.5-1.5s.7-1.5,1.5-1.5Z"/><path class="cls-8" d="m737.5,484.6h33.1c.8,0,1.5.7,1.5,1.5s-.7,1.5-1.5,1.5h-33.1c-.8,0-1.5-.7-1.5-1.5s.7-1.5,1.5-1.5h0Z"/><path class="cls-8" d="m737.5,522.1h33.1c.8,0,1.5.7,1.5,1.5s-.7,1.5-1.5,1.5h-33.1c-.8,0-1.5-.7-1.5-1.5s.7-1.5,1.5-1.5h0Z"/><path class="cls-9" d="m737.5,546.1h33.1c.8,0,1.5.7,1.5,1.5s-.7,1.5-1.5,1.5h-33.1c-.8,0-1.5-.7-1.5-1.5s.7-1.5,1.5-1.5Z"/><path class="cls-12" d="m202.8,354l64.8.3c.9,0,1.5.7,1.5,1.6v6.8c0,.9-.7,1.6-1.6,1.6l-64.8-.3c-.9,0-1.6-.7-1.6-1.6v-6.8c0-.9.7-1.6,1.6-1.6Zm63.3,3.4l-61.7-.3v3.7l61.7.3v-3.7Z"/><path class="cls-12" d="m117.6,450.9l85.7-97.6c.6-.6,1.5-.7,2.2-.1l5.1,4.5c.6.6.7,1.5.1,2.2l-85.7,97.6c-.6.6-1.5.7-2.2.1l-5.1-4.5c-.6-.6-.7-1.5-.1-2.2Zm87-94.4l-83.6,95.3,2.8,2.4,83.6-95.3-2.8-2.4Z"/><path class="cls-16" d="m203.7,350.5c4.7-.6,9.1,2.8,9.7,7.5.6,4.7-2.8,9.1-7.5,9.7-4.7.6-9.1-2.8-9.7-7.5-.6-4.7,2.8-9.1,7.5-9.7Z"/><path class="cls-12" d="m117.6,451.4l60.2,115.1c.4.8,1.3,1.1,2.1.7l6-3.1c.8-.4,1-1.3.7-2.1l-60.2-115.1c-.4-.8-1.3-1.1-2.1-.7l-6,3.1c-.8.4-1.1,1.3-.7,2.1Zm62.3,112.3l-58.8-112.3,3.3-1.7,58.8,112.3-3.3,1.7Z"/><path class="cls-16" d="m177.5,569.2c4.5,1.7,9.4-.5,11.1-5,1.7-4.5-.5-9.4-5-11.1-4.5-1.7-9.4.5-11.1,5-1.7,4.5.5,9.4,5,11.1Z"/><path class="cls-16" d="m122.5,443c4.7-.6,9.1,2.8,9.7,7.5.6,4.7-2.8,9.1-7.5,9.7-4.7.6-9.1-2.8-9.7-7.5-.6-4.7,2.8-9.1,7.5-9.7Z"/><path class="cls-15" d="m223.4,561.9h-120.4c-6,0-10.9,4.9-10.9,10.9s4.9,10.9,10.9,10.9h120.4c6,0,10.9-4.9,10.9-10.9s-4.9-10.9-10.9-10.9Z"/><path class="cls-11" d="m266.3,561.9h-120.4c-6,0-10.9,4.9-10.9,10.9s4.9,10.9,10.9,10.9h120.4c6,0,10.9-4.9,10.9-10.9s-4.9-10.9-10.9-10.9Z"/><path class="cls-5" d="m253.7,376.2h31.7c9.2,0,16.7-7.5,16.7-16.7h-65.2c0,9.2,7.5,16.7,16.7,16.7Z"/><path class="cls-28" d="m254.3,372.8h19.1c5.5,0,10-4.5,10-10h-39.2c0,5.5,4.5,10,10,10h0Z"/><path class="cls-16" d="m243,351.8h53.1c7,0,12.8,5.8,12.8,12.8h-78.6c0-7,5.8-12.8,12.8-12.8h0Z"/><path class="cls-41" d="m243,351.8h24.3c7,0,12.8,5.8,12.8,12.8h-49.8c0-7,5.8-12.8,12.8-12.8h0Z"/><path class="cls-12" d="m883.4,113.7c-.4.5-1.1.6-1.6.3-.5-.4-.6-1.1-.3-1.6,4.6-6.4,10.6-11.7,17.7-15.3,6.8-3.5,14.5-5.5,22.7-5.5,13.7,0,26.1,5.6,35.1,14.5,9,9,14.5,21.4,14.5,35.1s-5.5,26.1-14.5,35.1c-9,9-21.4,14.5-35.1,14.5s-22.1-3.9-30.5-10.5c-8.6-6.7-14.9-16.2-17.6-27.1-.2-.6.2-1.3.9-1.4.6-.2,1.3.2,1.4.9,2.6,10.4,8.6,19.4,16.8,25.9,8,6.3,18.1,10,29.1,10s24.9-5.3,33.4-13.8c8.5-8.5,13.8-20.4,13.8-33.4s-5.3-24.9-13.8-33.4c-8.6-8.5-20.4-13.8-33.4-13.8s-15.1,1.9-21.6,5.2c-6.7,3.5-12.5,8.5-16.9,14.6h0Z"/><path class="cls-12" d="m944.6,119.4c-1.3,1.1-4.9,4.8-7.1,12.5,1.9,1.3,7.3,5.4,4.8,9.8l-10.5,18.1c-2.5,4.2-8.7,1.7-10.8.6-5.6,5.8-7,10.7-7.3,12.4,3.6,1.9,6.9,2.4,9.6,2,3.9-.5,6.6-2.5,7.6-4.3l20.3-35.2c1-1.8,1.4-5.2-.1-8.7-1.1-2.5-3.1-5.1-6.6-7.3h0Zm-9.3,12.7c2.8-10.3,8-14.4,8.6-14.7.3-.3.8-.3,1.1,0,4.2,2.5,6.7,5.6,8,8.6,1.8,4.2,1.3,8.3,0,10.5l-20.3,35.2c-1.3,2.2-4.6,4.7-9.2,5.3-3.2.4-7.1-.2-11.4-2.6-.3-.2-.6-.6-.6-1,0,0,.5-6.8,8.5-14.8.3-.3.8-.4,1.2-.2,0,0,6.7,3.9,8.8.4l10.4-18.1c2-3.4-4.1-7.1-4.7-7.4-.4-.2-.6-.7-.5-1.2Z"/><path class="cls-11" d="m891.6,149.8h-9.8v-2.4l3.3-3.3c.9-1,1.6-1.7,1.9-2,.3-.4.5-.7.6-.9.1-.3.2-.5.2-.8s-.1-.6-.3-.8c-.2-.2-.5-.3-1-.3s-.9.1-1.3.4c-.4.2-.9.6-1.5,1.1l-2-2.4c.7-.6,1.3-1.1,1.8-1.3.5-.3,1-.5,1.5-.6.6-.1,1.2-.2,1.9-.2s1.7.2,2.3.5c.7.3,1.2.8,1.6,1.3.4.6.6,1.2.6,1.9s0,1-.2,1.5c-.1.5-.3.9-.6,1.3-.3.4-.6.9-1.1,1.4-.5.5-1.4,1.4-2.9,2.7h0c0,0,5.1,0,5.1,0v3Zm11.6-2.6h-1.5v2.6h-3.6v-2.6h-5.4v-2.7l5.6-8.2h3.4v8.2h1.5v2.7Zm-5.1-2.7v-1.6c0-.3,0-.7,0-1.2,0-.5,0-.8,0-.8h-.1c-.2.5-.4.9-.7,1.3l-1.5,2.2h2.2Z"/><path class="cls-32" d="m607.5,59.5h67.6c5.8,0,10.5,4.7,10.5,10.5v58.8c0,.5-.3.9-.7,1.1-.4.2-.9,0-1.3-.3l-17.9-17.9h-58.2c-5.8,0-10.5-4.7-10.5-10.5v-31.2c0-5.8,4.7-10.5,10.5-10.5h0Z"/><path class="cls-5" d="m599.6,52.7h67.6c3.3,0,6.3,1.3,8.4,3.5,2.2,2.2,3.5,5.1,3.5,8.4v58.8c0,.5-.2,1-.4,1.4-.3.4-.7.7-1.2.9-.5.2-1,.3-1.5.2-.5,0-.9-.3-1.3-.7l-17.5-17.5h-57.6c-3.3,0-6.3-1.3-8.4-3.5-2.2-2.2-3.5-5.1-3.5-8.4v-31.2c0-3.3,1.3-6.3,3.5-8.4,2.2-2.2,5.1-3.5,8.4-3.5h0Zm67.6,2.8h-67.6c-2.5,0-4.8,1-6.5,2.7-1.7,1.7-2.7,3.9-2.7,6.5v31.2c0,2.5,1,4.8,2.7,6.5,1.7,1.7,3.9,2.7,6.5,2.7h58.7l18,18v-58.3c0-2.5-1-4.8-2.7-6.5-1.7-1.7-3.9-2.7-6.5-2.7h0Z"/><path class="cls-5" d="m599,64.3c-.4,0-.8-.3-.8-.8s.3-.8.8-.8h68.7c.4,0,.8.3.8.8s-.3.8-.8.8h-68.7Z"/><path class="cls-5" d="m599,71.7c-.4,0-.8-.3-.8-.8s.3-.8.8-.8h7.3c.4,0,.8.3.8.8s-.3.8-.8.8h-7.3Zm17,0c-.4,0-.8-.3-.8-.8s.3-.8.8-.8h51.7c.4,0,.8.3.8.8s-.3.8-.8.8h-51.7Z"/><path class="cls-5" d="m599,79.1c-.4,0-.8-.3-.8-.8s.3-.8.8-.8h68.7c.4,0,.8.3.8.8s-.3.8-.8.8h-68.7Z"/><path class="cls-5" d="m618.1,89.2c-.4,0-.8-.3-.8-.8s.3-.8.8-.8h49.6c.4,0,.8.3.8.8s-.3.8-.8.8h-49.6Z"/><path class="cls-5" d="m640.2,97.3c-.4,0-.8-.3-.8-.8s.3-.8.8-.8h27.4c.4,0,.8.3.8.8s-.3.8-.8.8h-27.4Z"/><path class="cls-5" d="m624.5,97.3c-.4,0-.8-.3-.8-.8s.3-.8.8-.8h9.8c.4,0,.8.3.8.8s-.3.8-.8.8h-9.8Z"/><path class="cls-32" d="m997.6,582.7c0-1-.8-1.7-1.7-1.7s-1.7.8-1.7,1.7v4.1h-4.1c-1,0-1.7.8-1.7,1.7s.8,1.7,1.7,1.7h4.1v4.1c0,1,.8,1.7,1.7,1.7s1.7-.8,1.7-1.7v-4.1h4.1c1,0,1.7-.8,1.7-1.7s-.8-1.7-1.7-1.7h-4.1v-4.1Z"/><path class="cls-39" d="m320.5,555.2h-58.8c-2.4,0-4.6,1-6.2,2.6-1.6,1.6-2.6,3.8-2.6,6.2s1,4.6,2.6,6.2c1.6,1.6,3.8,2.6,6.2,2.6h58.8c2.4,0,4.6-1,6.2-2.6,1.6-1.6,2.6-3.8,2.6-6.2s-1-4.6-2.6-6.2c-1.6-1.6-3.8-2.6-6.2-2.6Z"/><path class="cls-5" d="m189.1,556.3h75.1c4.3,0,7.8,3.5,7.8,7.8s-3.5,7.8-7.8,7.8h-75.1v-15.5h0Z"/><path class="cls-40" d="m189.1,555.2c-.6,0-1,.5-1,1s.5,1,1,1h75.1c1.9,0,3.5.8,4.8,2,1.2,1.2,2,2.9,2,4.8s-.8,3.5-2,4.8c-1.2,1.2-2.9,2-4.8,2h-75.1c-.6,0-1,.5-1,1s.5,1,1,1h75.1c2.4,0,4.6-1,6.2-2.6,1.6-1.6,2.6-3.8,2.6-6.2s-1-4.6-2.6-6.2c-1.6-1.6-3.8-2.6-6.2-2.6h-75.1Z"/><path class="cls-40" d="m317.8,564c0-2.4-1-4.6-2.6-6.2-1.6-1.6-3.8-2.6-6.2-2.6h7.6c2.4,0,4.6,1,6.2,2.6,1.6,1.6,2.6,3.8,2.6,6.2s-1,4.6-2.6,6.2c-1.6,1.6-3.8,2.6-6.2,2.6h-7.6c2.4,0,4.6-1,6.2-2.6,1.6-1.6,2.6-3.8,2.6-6.2Z"/><path class="cls-40" d="m306.7,564c0-2.4-1-4.6-2.6-6.2-1.6-1.6-3.8-2.6-6.2-2.6h7.6c2.4,0,4.6,1,6.2,2.6,1.6,1.6,2.6,3.8,2.6,6.2s-1,4.6-2.6,6.2c-1.6,1.6-3.8,2.6-6.2,2.6h-7.6c2.4,0,4.6-1,6.2-2.6,1.6-1.6,2.6-3.8,2.6-6.2Z"/><path class="cls-24" d="m204.6,539.9h51.4c2.1,0,4,.9,5.4,2.3,1.4,1.4,2.3,3.3,2.3,5.4s-.9,4-2.3,5.4c-1.4,1.4-3.3,2.3-5.4,2.3h-51.4c-2.1,0-4-.9-5.4-2.3-1.4-1.4-2.3-3.3-2.3-5.4s.9-4,2.3-5.4c1.4-1.4,3.3-2.3,5.4-2.3Z"/><path class="cls-5" d="m319.6,540.8h-65.8c-3.7,0-6.8,3.1-6.8,6.8s3.1,6.8,6.8,6.8h65.8v-13.6h0Z"/><path class="cls-14" d="m319.6,539.9c.5,0,.9.4.9.9s-.4.9-.9.9h-65.8c-1.6,0-3.1.7-4.2,1.7s-1.7,2.5-1.7,4.2.7,3.1,1.7,4.2c1.1,1.1,2.5,1.7,4.2,1.7h65.8c.5,0,.9.4.9.9s-.4.9-.9.9h-65.8c-2.1,0-4-.9-5.4-2.3-1.4-1.4-2.3-3.3-2.3-5.4s.9-4,2.3-5.4c1.4-1.4,3.3-2.3,5.4-2.3h65.8Z"/><path class="cls-14" d="m206.9,547.5c0-2.1.9-4,2.3-5.4,1.4-1.4,3.3-2.3,5.4-2.3h-6.7c-2.1,0-4,.9-5.4,2.3-1.4,1.4-2.3,3.3-2.3,5.4s.9,4,2.3,5.4c1.4,1.4,3.3,2.3,5.4,2.3h6.7c-2.1,0-4-.9-5.4-2.3-1.4-1.4-2.3-3.3-2.3-5.4Z"/><path class="cls-14" d="m216.6,547.5c0-2.1.9-4,2.3-5.4,1.4-1.4,3.3-2.3,5.4-2.3h-6.7c-2.1,0-4,.9-5.4,2.3-1.4,1.4-2.3,3.3-2.3,5.4s.9,4,2.3,5.4c1.4,1.4,3.3,2.3,5.4,2.3h6.7c-2.1,0-4-.9-5.4-2.3-1.4-1.4-2.3-3.3-2.3-5.4Z"/><path class="cls-10" d="m415.9,558.8h252.7c4.4,0,8,3.6,8,8s-3.6,8-8,8h-252.7c-4.4,0-8-3.6-8-8s3.6-8,8-8Z"/><path class="cls-22" d="m669.1,574.8h-252.7c-2.9,0-5.5-1.5-7-3.8,1.3-2.3,3.7-3.8,6.6-3.8h252.7c2.9,0,5.5,1.5,7,3.8-1.3,2.3-3.7,3.8-6.6,3.8Z"/><path class="cls-22" d="m674.4,558.8h-202.1c-5.8,0-10.2-4.7-9.8-10.5l8.3-130.9c.4-5.8,5.4-10.5,11.2-10.5h202.1c5.8,0,10.2,4.7,9.8,10.5l-8.3,130.9c-.4,5.8-5.4,10.5-11.2,10.5Z"/><path class="cls-5" d="m674.4,558.8h-196.2c-5.8,0-10.2-4.7-9.8-10.5l8.3-130.9c.4-5.8,5.4-10.5,11.2-10.5h196.2c5.8,0,10.2,4.7,9.8,10.5l-8.3,130.9c-.4,5.8-5.4,10.5-11.2,10.5h0Z"/><path class="cls-34" d="m663.7,558.8h-20.2l-167.3-133.7.5-7.7c.1-2.3,1-4.4,2.4-6.2l184.6,147.6Zm-162-151.9l182.5,145.9c.7-1.4,1.2-2.9,1.3-4.5l1.3-20.4-151.5-121.1h-33.6,0Z"/><path class="cls-4" d="m415.9,558.8h45.9c4.4,0,8,3.6,8,8s-3.6,8-8,8h-45.9c-4.4,0-8-3.6-8-8s3.6-8,8-8Z"/><path class="cls-30" d="m672.4,562.8h-210.3c-2.2,0-4.1-1.8-4.3-4-.1-2.2,1.6-4,3.8-4h210.3c2.2,0,4.1,1.8,4.3,4,.1,2.2-1.6,4-3.8,4Z"/><path class="cls-12" d="m433.1,396.5c-1.6-7.7-1.2-12,.3-19.4l-33.1-2.8,46.1-20.2s9.8-12,14.4-23.8c4.6-11.8-7.9-41.8-12.6-49.2-4.7-7.4-14.5-6.3-20.9-2.3,0,0-9.7-14.6-21.2-15.5-11.5-1-48.2,2.4-58.8,29.3-10.6,26.9,6.5,53.8-10.7,81.5,0,0-1.5,3.5.7,6.5,2.2,2.9,29.3,34.5,90.9,21.8,0,0,4.9-1.1,4.9-5.7h0Z"/><path class="cls-42" d="m389.7,404.8c3.4-37.1,5.8-69.3,5.8-69.3l-3.1-10.4s-28.4,22.9-48.5-1.2c1,16.6,3.3,33.2-7.2,50.2,0,0-1.5,3.5.7,6.5h0c0,.1,0,.2,0,.2h0c0,0,0,.2,0,.2h0c0,0,.1.2.1.2l.2.2h0c0,0,.1.2.1.2h.1c0,.1,0,.3,0,.3l.2.2h0s.3.3.3.3h0c0,0,.2.3.2.3l.2.2v.2c.1,0,.3.1.3.1l.2.2.3.3.2.2.2.2c5.9,5.7,19.6,16.3,42.8,19.9h0c2,.3,4.1.6,6.2.8h0Z"/><path class="cls-42" d="m433.1,396.5c-2.1-10.5-.6-14.7,2.3-28.7l-52.7-8.3-23,4.5s-2,12.9-8,28.5c14,8.7,38.8,17.5,76.6,9.7,0,0,4.9-1.1,4.9-5.7h0Z"/><path class="cls-36" d="m363.2,398.8c14.6,4.6,34.5,10,51.7,18.5,1.2.6-1.2,5.2-.1,5.8,1.7.9,4.5,3.1,7.5,6.1,8,7.9,24.4,70.1,22.9,76.3-2.3,10-23,37.3-23,37.3-4.1,7.9-9.2,19.5-14.2,31.9h-102.6c7.2-23.2,9.8-39,10-53.1,5.5-48.2-20.4-58.7-20.4-58.7l26.8-63.2c10.4-3.7,31.3-2.3,31.3-2.3,5.5,0,5.1-.2,10,1.3h0Z"/><path class="cls-33" d="m408,574.8h-14.5c2.7-7.2,15.3-41.4,17.9-48.7-12.2-2.1-29-5-31.9-5.7-3-.7-14.3,5.8-14.3,5.8l1.3-7.4-12.2,12.3,20.8-38.9s34,7.7,41.2,9c7.2,1.3,2.8.3,4.2.2,4-11.3-2.6-14.4-1.8-19.9.8-5.5,1-58.5,1-58.5,4.4,2.3,6.4,7.2,8.9,15,1.6,5.1,10.3,38.9,13.9,58.8.9,4.7,1.5,8.3,2,11.1-8.1,20.5-26.1,41.2-36.4,66.8h0Z"/><path class="cls-38" d="m388.5,340.6l-5.1,15.4s-7.8,36.4-9.6,41.1c-.6,1.6-2.7,2.1-5.8,2.1,4.5,6.5,13.4,16.4,26.1,18.9,8.1,1.6,13.8,0,17.7-2.3-2.7-1.4-5.3-3.1-5.3-4.6.1-12.4,2.2-34.3,9-38.3,7.7-4.6-27-32.3-27-32.3h0Z"/><path class="cls-5" d="m370.5,399.1c-1.8.2-4.3,0-7.4-.3,3.1,4.5,8.2,9.6,16.3,14.8,20.1,12.8,29.8,5.8,32.9,2.5-1.9-1-3.8-2.1-4.9-3.1-18.8,9.2-36.9-13.8-36.9-13.8h0Z"/><path class="cls-14" d="m414.1,416.9s8,80.7,7,87.6c-1,6.8-13.7,40.4-24.9,70.3h19.2c3.8-7.3,6.7-13,7.2-14.4.3-.9,1.7-3.5,3.5-6.9,3.3-6.1,8.2-14.7,11.9-20.8,11.8-19.4,11.8-14.8,7.7-37.5-3.6-20-14.6-56.9-16.2-62-2.5-7.8-13.3-16.9-15.4-16.3Z"/><path class="cls-14" d="m412.9,529.3c-2.6,7.4-5.7,15.8-8.9,24.4,5.8.5,10.5,1.1,12.2,1.7,5.8,2.3,6.5,4.9,6.5,4.9.3-.9,1.7-3.5,3.5-6.9,3.3-6.1,8.2-14.7,11.9-20.8,3.5-5.8,6-9.5,7.6-12.4-2.3,2-5.9,5-7.6,5.5-2.1.6-18.5,2.6-25.1,3.4Z"/><path class="cls-24" d="m360.1,397.1s14.7,71.3,16.7,92-4.5,35.6-11.8,51.1c-2.5,5.3-10.3,18.7-20,34.5h-45.3l4.8-112-13-3c.8-5.6,1.4-10.3,1.8-13.6l25.6-45.2s9.7-7.8,41.1-3.9h0Z"/><path class="cls-24" d="m332.6,431.4c-7.2,29-2.2,41.1-2.2,41.1l3.9-18.1s3.7,26.7,7.7,30.1c2,1.7,26.1,6.3,35.1,8,.6,11.3-1.3,20.9-4.4,29.9-6.5.7-45.5-4.8-47.3,7.8-.9,6.3-.7-13.9-.7-13.9l-2.3,58.6h-22.6l4.8-112-13-3v-.3s0-.3,0-.3v-.3s0-.3,0-.3v-.3s0-.3,0-.3v-.3s0-.3,0-.3v-.3s0-.3,0-.3v-.3s0-.3,0-.3v-.3s0-.2,0-.2v-.2s0-.2,0-.2v-.2s0-.2,0-.2v-.2s0-.2,0-.2v-.2s0-.2,0-.2v-.2s0-.2,0-.2v-.2s0-.2,0-.2v-.2s0-.2,0-.2v-.2s0-.2,0-.2v-.2s0-.2,0-.2v-.2s0-.2,0-.2v-.2s0-.2,0-.2v-.2s0-.2,0-.2v-.2s0-.2,0-.2v-.2s0-.2,0-.2v-.2s0-.2,0-.2v-.2s0-.2,0-.2v-.2s0-.2,0-.2v-.2s0-.2,0-.2v-.2s0-.2,0-.2v-.2s0-.2,0-.2v-.2h0v-.2h0v-.2h0v-.2h0v-.2h0v-.2h0v-.2h0v-.2h0v-.2h0v-.2l13.9-24.5,25.3,9.7h0Z"/><path class="cls-14" d="m296.7,432.6c-8.3,22.7-10.6,100.4-3.7,142.2h36.4c-14.9-82.9,16.4-142.1,9.5-163.1-11-33.6-36.7,6.1-42.2,21h0Z"/><path class="cls-42" d="m442.4,356l4.1-1.8s6.9-8.4,11.8-18.1c-1,1.8-7.4,13-16.7,6.2-10.2-7.4-10.6,4.3-10.6,4.3,0,0,6.2,7,9.7,8.6.5.2,1,.5,1.7.7h0Z"/><path class="cls-38" d="m438,349.2c-6.4-.7-12.1,4-12.7,10.3-.7,6.4,4,12.1,10.3,12.7,6.4.7,12.1-4,12.7-10.3.7-6.4-4-12.1-10.3-12.7Z"/><path class="cls-38" d="m357.2,341c-.3,0-.6,0-.9,0-5.3.6-9.6,4.8-10.1,10.3-.7,6.4,4,12.1,10.3,12.7,6.4.7,12.1-4,12.7-10.3.4-3.7-1-7.2-3.5-9.6,0,3.4-.9,7.6-5.3,7.7l.7-6.7c.3-2.7-2.1-4.1-4-4.2h0Z"/><path class="cls-18" d="m407.2,287c-21.8-2.2-41.4,13.7-43.6,35.4l-3.7,35.9c-2.2,21.7,13.7,41.4,35.4,43.6,21.7,2.2,41.4-13.7,43.6-35.4l3.7-35.9c2.2-21.7-13.7-41.4-35.4-43.6Z"/><path class="cls-35" d="m362.9,328.8l-3.1,29.6c-1.9,18.2,9,34.9,25.3,41.2-23.1-9.6-11.3-49.8-11.3-49.8,4.7-.8,12.1-9.5,16.4-14.6,4.3-5.1,7.6-10.2,15-10.1,7.4.1,23.1,4,23.1,4,3.3,7.7,9.3,13.4,12.7,16.1l1.5-14.7c.5-4.4.2-8.7-.8-12.8-1-.6-1.9-1.1-3-1.7-31.8-17.9-58.9-3.4-76,12.6h0Z"/><path class="cls-42" d="m436.7,319.4l-6.4,2.7s-6-3.7-13-2.1c0,0-14.1-5.2-21.6-2.3-7.5,2.9-3.1-7.5-1.7-7.9,1.4-.5,15.5-1.4,21.7-.2,6.2,1.2,15.5,2.6,15.5,2.6l5.5,7.1h0Z"/><path class="cls-42" d="m361.5,339l3.8.7s2.6,12-4.8,12.1l.7-6.7c0-.5,0-.9,0-1.3l.4-4.9h0Z"/><path class="cls-12" d="m417.3,320c-5.8-7.8-15.3-9.4-22.7,1.6-6.7,10.1-16.8,27.5-33.6,26v-.3c0,0,0,0,0,0l1-11.2s-1.4.4-3.1.8c-.9-5.9-1.5-13.3-.6-20.1,1.9-14.1,21.6-34.7,43.8-35.5,22.2-.8,38.2,12.4,41.3,19.9,3.2,7.5,6.3,24.5,6.3,24.5l-3.9,5.6-4.2,11.1c-10.2-9.9-9.1-19.3-13.6-24-2.4-2.6-6-2.6-10.6,1.8h0Z"/><path class="cls-42" d="m392.3,325.1c-6.7,10.1-16.3,23.8-31.3,22.6v-.3c0,0,0,0,0,0l.9-11.2s-1.4.4-3.1.8c-.1-1-.3-2-.4-3,17,4.9,33.9-8.7,34-8.8h0Z"/><path class="cls-20" d="m409.8,414.7s10.3,84.9,10.1,87.6c-.2,2.8-3,16-3,16,0,0,5-8.4,6.2-15.3,1.2-6.9,4.5-53.9,4.5-53.9l-5.5-3,5.1-.3-8.4-26.4s-1-2-2.3-2.7c-1.3-.8-6.2-3.2-6.2-3.2,0,0-1.3-.2-1.9.2,0,0,1,.7,1.4.9h0Z"/><path class="cls-20" d="m360.1,397.1s14.7,71.3,16.7,92c.8,8.5.2,16-1.3,23,2.7-21.2-27.1-71.1-27.1-71.1l7.8-3.7-10.4-4.7s4.8-26.8,5.1-31.3c.3-4.4-2-5.2-2.2-5.2,3.4.2,7.2.5,11.4,1h0Z"/><path class="cls-24" d="m65.6,606.3h12.9c5.1,0,9.3-4.2,9.3-9.3s-4.2-9.3-9.3-9.3h-34.1c-4.1,0-7.4-3.3-7.4-7.4s3.3-7.4,7.4-7.4h899.4c4.1,0,7.4,3.3,7.4,7.4s-3.3,7.4-7.4,7.4h-46.7c-5.1,0-9.3,4.2-9.3,9.3s4.2,9.3,9.3,9.3h10.9c8.1,0,14.8,6.7,14.8,14.8s-6.7,14.8-14.8,14.8H65.6c-8.1,0-14.8-6.7-14.8-14.8s6.7-14.8,14.8-14.8Zm-41.2-33.5c4.1,0,7.4,3.3,7.4,7.4s-3.3,7.4-7.4,7.4-7.4-3.3-7.4-7.4,3.3-7.4,7.4-7.4Z"/><path class="cls-23" d="m526,184.2h-67.6c-3.3,0-6.3,1.3-8.4,3.5-2.2,2.2-3.5,5.1-3.5,8.4v58.8c0,.5.2,1,.4,1.4.3.4.7.7,1.2.9.5.2,1,.3,1.5.2.5,0,.9-.3,1.3-.7l17.5-17.5h57.6c3.3,0,6.3-1.3,8.4-3.5,2.2-2.2,3.5-5.1,3.5-8.4v-31.2c0-3.3-1.3-6.3-3.5-8.4-2.2-2.2-5.1-3.5-8.4-3.5h0Zm-67.6,2.8h67.6c2.5,0,4.8,1,6.5,2.7,1.7,1.7,2.7,3.9,2.7,6.5v31.2c0,2.5-1,4.8-2.7,6.5-1.7,1.7-3.9,2.7-6.5,2.7h-58.7l-18,18v-58.3c0-2.5,1-4.8,2.7-6.5,1.7-1.7,3.9-2.7,6.5-2.7h0Z"/><path class="cls-23" d="m526.5,195.9c.4,0,.8-.3.8-.8s-.3-.8-.8-.8h-68.7c-.4,0-.8.3-.8.8s.3.8.8.8h68.7Z"/><path class="cls-23" d="m526.5,203.3c.4,0,.8-.3.8-.8s-.3-.8-.8-.8h-7.3c-.4,0-.8.3-.8.8s.3.8.8.8h7.3Zm-17,0c.4,0,.8-.3.8-.8s-.3-.8-.8-.8h-51.7c-.4,0-.8.3-.8.8s.3.8.8.8h51.7Z"/><path class="cls-23" d="m526.5,210.7c.4,0,.8-.3.8-.8s-.3-.8-.8-.8h-68.7c-.4,0-.8.3-.8.8s.3.8.8.8h68.7Z"/><path class="cls-23" d="m507.5,220.8c.4,0,.8-.3.8-.8s-.3-.8-.8-.8h-49.6c-.4,0-.8.3-.8.8s.3.8.8.8h49.6Z"/><path class="cls-23" d="m485.3,228.8c.4,0,.8-.3.8-.8s-.3-.8-.8-.8h-27.5c-.4,0-.8.3-.8.8s.3.8.8.8h27.5Z"/><path class="cls-23" d="m501,228.8c.4,0,.8-.3.8-.8s-.3-.8-.8-.8h-9.8c-.4,0-.8.3-.8.8s.3.8.8.8h9.8Z"/></svg>