<svg width="1200" height="641" viewBox="0 0 1200 641" fill="none" xmlns="http://www.w3.org/2000/svg">
<rect width="1200" height="641" fill="white"/>
<path fill-rule="evenodd" clip-rule="evenodd" d="M301.939 419.428H216.286C170.191 419.428 132.468 457.152 132.468 503.246C132.468 549.34 170.175 587.064 216.286 587.064H940.533C1015.17 587.064 1076.25 525.984 1076.25 451.344C1076.25 376.704 1015.17 315.625 940.533 315.625C908.965 315.625 883.156 289.801 883.156 258.233C883.156 226.665 908.981 200.841 940.549 200.841H1009.62C1042.44 200.841 1069.27 173.988 1069.27 141.186C1069.27 108.367 1042.42 81.5305 1009.62 81.5305H922.288C909.519 81.5305 899.059 71.0711 899.059 58.3014C899.059 45.5317 909.519 35.0723 922.288 35.0723H937.685C946.498 35.0723 953.714 27.8568 953.714 19.043C953.714 10.2292 946.498 3.01367 937.685 3.01367H836.667C815.384 3.01367 813.026 28.1416 759.289 28.1416H604.455C592.951 28.1416 583.536 37.5566 583.536 49.0604C583.536 60.5642 592.951 69.9792 604.455 69.9792H624.535C641.213 69.9792 654.837 83.6192 654.837 100.281C654.837 116.944 641.197 130.584 624.535 130.584H594.312C512.678 130.584 501.142 151.914 486.854 194.353C472.549 236.792 398.305 240.21 398.305 240.21H296.764C271.637 240.21 251.098 260.765 251.098 285.877C251.098 311.005 271.652 331.544 296.764 331.544H301.986C326.149 331.544 345.913 351.307 345.913 375.47C345.913 399.633 326.149 419.397 301.986 419.397L301.939 419.428ZM982.64 35.0723C973.778 35.0723 966.61 27.8884 966.61 19.043C966.61 10.1976 973.794 3.01367 982.64 3.01367C991.485 3.01367 998.669 10.1976 998.669 19.043C998.669 27.8884 991.485 35.0723 982.64 35.0723Z" fill="#E2E8F5"/>
<path fill-rule="evenodd" clip-rule="evenodd" d="M309.155 587.043H316.498V542.484L344.316 570.302L327.574 587.043H334.489L347.781 573.767L361.057 587.043H367.972L351.231 570.302L379.048 542.484V587.043H386.391V240.205H379.048V248.655L370.599 240.205H363.684L379.048 255.57V255.997L347.765 287.28L316.482 255.997V255.57L331.847 240.205H324.932L316.482 248.655V240.205H309.14V332.156C311.656 332.583 314.124 333.216 316.482 334.055V332.805L318.507 334.815C329.394 339.293 338.129 348.027 342.607 358.914L344.316 360.623L343.54 361.398C344.142 363.17 344.632 364.99 345.012 366.842L347.765 364.088L379.048 395.372V395.799L347.765 427.082L329.964 409.281C328.698 410.341 327.368 411.322 325.992 412.224L344.316 430.547L316.498 458.365V416.955C314.14 417.794 311.687 418.427 309.155 418.854V587.075V587.043ZM316.498 528.227V472.591L344.316 500.409L316.498 528.227ZM316.498 318.548V262.912L344.316 290.73L316.498 318.548ZM379.048 262.912V318.548L351.231 290.73L379.048 262.912ZM379.048 332.805V388.441L351.231 360.623L379.048 332.805ZM379.048 402.698V458.334L351.231 430.516L379.048 402.698ZM379.048 472.591V528.227L351.231 500.409L379.048 472.591ZM316.498 325.463L347.781 294.179L379.064 325.463V325.89L347.781 357.173L316.498 325.89V325.463ZM316.498 465.249L347.781 433.965L379.064 465.249V465.676L347.781 496.959L316.498 465.676V465.249ZM316.498 535.142L347.781 503.858L379.064 535.142V535.569L347.781 566.852L316.498 535.569V535.142Z" fill="#BFCCE8"/>
<path fill-rule="evenodd" clip-rule="evenodd" d="M822.332 587.046H829.674V542.487L857.492 570.305L840.751 587.046H847.666L860.958 573.77L874.249 587.046H881.164L864.423 570.305L892.241 542.487V587.046H899.583V298.312C896.845 295.511 894.377 292.426 892.241 289.119V318.551L864.423 290.733L884.519 270.637C884.092 268.69 883.759 266.712 883.522 264.719L860.958 287.283L829.674 256V255.573L860.958 224.289L884.171 247.503C884.535 245.62 884.978 243.752 885.532 241.948L864.423 220.84L892.241 193.022V227.343C894.377 224.036 896.83 220.951 899.583 218.15V63.2523C899.235 61.6541 899.045 60.0084 899.045 58.2995C899.045 56.6063 899.235 54.9449 899.583 53.3467V3.01172H892.241V38.9788L864.423 11.1609L872.572 3.01172H865.657L860.958 7.71133L856.258 3.01172H849.343L857.492 11.1609L829.674 38.9788V4.00861C827.079 4.78397 824.706 5.97073 822.332 7.41068V587.062V587.046ZM829.674 528.229V472.594L857.492 500.412L829.674 528.229ZM829.674 458.337V402.701L857.492 430.519L829.674 458.337ZM829.674 388.444V332.808L857.492 360.626L829.674 388.444ZM829.674 318.551V262.915L857.492 290.733L829.674 318.551ZM829.674 248.658V193.022L857.492 220.84L829.674 248.658ZM829.674 178.765V123.129L857.492 150.947L829.674 178.765ZM829.674 108.872V53.2359L857.492 81.0538L829.674 108.872ZM892.225 53.2359V108.872L864.407 81.0538L892.225 53.2359ZM892.225 123.129V178.765L864.407 150.947L892.225 123.129ZM892.225 332.808V388.444L864.407 360.626L892.225 332.808ZM892.225 402.701V458.337L864.407 430.519L892.225 402.701ZM892.225 472.594V528.229L864.407 500.412L892.225 472.594ZM829.674 45.8937L860.958 14.6104L892.241 45.8937V46.321L860.958 77.6043L829.674 46.321V45.8937ZM829.674 115.787L860.958 84.5034L892.241 115.787V116.214L860.958 147.497L829.674 116.214V115.787ZM829.674 185.68L860.958 154.396L892.241 185.68V186.107L860.958 217.39L829.674 186.107V185.68ZM829.674 325.466L860.958 294.182L892.241 325.466V325.893L860.958 357.176L829.674 325.893V325.466ZM829.674 395.358L860.958 364.075L892.241 395.358V395.786L860.958 427.069L829.674 395.786V395.358ZM829.674 465.251L860.958 433.968L892.241 465.251V465.679L860.958 496.962L829.674 465.679V465.251ZM829.674 535.144L860.958 503.861L892.241 535.144V535.572L860.958 566.855L829.674 535.572V535.144Z" fill="#BFCCE8"/>
<path fill-rule="evenodd" clip-rule="evenodd" d="M283.173 419.429H272.365V432.689L259.105 419.429H248.915L272.365 442.879V443.496L226.271 489.575L180.177 443.496V442.879L202.472 420.584C197.757 421.375 193.168 422.562 188.753 424.113L180.177 432.689V427.657C176.411 429.461 172.803 431.55 169.369 433.891V572.601C172.803 574.927 176.411 577.016 180.177 578.836V556.683L210.336 586.859C212.299 587.001 214.277 587.064 216.27 587.064H220.748L180.177 546.492V545.875L226.271 499.781L272.365 545.875V546.492L231.793 587.064H241.984L272.365 556.683V587.064H283.173V419.429ZM283.173 242.283C272.318 245.669 263.172 253.027 257.443 262.632L272.349 247.727V324.503C275.688 326.623 279.312 328.316 283.157 329.519V242.283H283.173ZM180.192 535.685V453.703L221.192 494.686L180.192 535.685ZM272.365 453.703V535.685L231.366 494.686L272.365 453.703Z" fill="#BFCCE8"/>
<path fill-rule="evenodd" clip-rule="evenodd" d="M925.547 587.05H936.355V556.669L964.584 584.898C967.416 584.392 970.201 583.775 972.97 583.094L936.355 546.478V545.861L982.433 499.767L1028.51 545.861V546.478L1003.6 571.385C1016.98 564.312 1029.03 555.055 1039.32 544.121V358.557C1034.65 353.588 1029.62 348.968 1024.27 344.743L982.417 386.596L936.339 340.518V339.901L959.299 316.941C956.261 316.513 953.175 316.181 950.074 315.975L936.339 329.71V315.485C932.62 315.216 929.012 314.583 925.531 313.634V587.066L925.547 587.05ZM925.547 202.837C929.028 201.887 932.652 201.254 936.355 200.985V144.716L977.338 185.715L962.21 200.843H972.401L982.433 190.811L992.465 200.843H1002.66L987.528 185.715L1028.51 144.716V197.741C1032.29 196.46 1035.92 194.814 1039.32 192.836V89.5236C1035.92 87.5456 1032.29 85.9 1028.51 84.6183V123.718L987.528 82.7353L988.731 81.5327H976.119L977.322 82.7353L936.339 123.718V81.5168H925.531V202.837H925.547ZM925.547 35.0587H937.652C938.364 35.0587 939.06 35.0112 939.741 34.9163L936.355 31.53V30.9129L952.969 14.2981C952.21 11.8771 950.897 9.6934 949.172 7.90533L936.355 20.7225V3H925.547V35.0587ZM936.355 535.655V453.673L977.338 494.656L936.355 535.655ZM936.355 432.659V350.677L977.338 391.66L936.355 432.659ZM1028.53 350.677V432.659L987.544 391.66L1028.53 350.677ZM1028.53 453.657V535.639L987.544 494.64L1028.53 453.657ZM936.355 133.877L982.433 87.7988L1028.51 133.877V134.494L982.433 180.589L936.355 134.494V133.877ZM936.355 442.833L982.433 396.739L1028.51 442.833V443.451L982.433 489.529L936.355 443.451V442.833Z" fill="#BFCCE8"/>
<path d="M341.027 453.652H267.304C264.307 453.652 261.877 456.082 261.877 459.08V511.076C261.877 514.074 264.307 516.504 267.304 516.504H341.027C344.024 516.504 346.454 514.074 346.454 511.076V459.08C346.454 456.082 344.024 453.652 341.027 453.652Z" fill="#90A9D5"/>
<path d="M389.401 453.652H315.678C312.681 453.652 310.251 456.082 310.251 459.08V511.076C310.251 514.074 312.681 516.504 315.678 516.504H389.401C392.398 516.504 394.828 514.074 394.828 511.076V459.08C394.828 456.082 392.398 453.652 389.401 453.652Z" fill="#B6C7E6"/>
<path d="M325.251 474.396H379.827C381.535 474.396 382.928 475.789 382.928 477.498V492.625C382.928 494.334 381.535 495.727 379.827 495.727H325.251C323.542 495.727 322.149 494.334 322.149 492.625V477.498C322.149 475.789 323.542 474.396 325.251 474.396Z" fill="#90A9D5"/>
<path d="M329.159 478.018H355.996C356.376 478.018 356.676 478.318 356.676 478.698V482.005C356.676 482.385 356.376 482.686 355.996 482.686H329.159C328.779 482.686 328.479 482.385 328.479 482.005V478.698C328.479 478.318 328.779 478.018 329.159 478.018Z" fill="#E6E4EB"/>
<path d="M329.159 485.398H342.419C342.799 485.398 343.1 485.699 343.1 486.079V489.386C343.1 489.766 342.799 490.066 342.419 490.066H329.159C328.779 490.066 328.479 489.766 328.479 489.386V486.079C328.479 485.699 328.779 485.398 329.159 485.398Z" fill="#E6E4EB"/>
<path d="M315.565 516.488H403.893C407.484 516.488 410.396 519.4 410.396 522.992V585.289C410.396 588.881 407.484 591.793 403.893 591.793H315.565C311.973 591.793 309.062 588.881 309.062 585.289V522.992C309.062 519.4 311.973 516.488 315.565 516.488Z" fill="#90A9D5"/>
<path d="M257.62 516.488H345.947C349.539 516.488 352.451 519.4 352.451 522.992V585.289C352.451 588.881 349.539 591.793 345.947 591.793H257.62C254.028 591.793 251.116 588.881 251.116 585.289V522.992C251.116 519.4 254.028 516.488 257.62 516.488Z" fill="#B6C7E6"/>
<path d="M334.475 541.361H269.076C267.022 541.361 265.357 543.026 265.357 545.08V563.214C265.357 565.267 267.022 566.932 269.076 566.932H334.475C336.529 566.932 338.194 565.267 338.194 563.214V545.08C338.194 543.026 336.529 541.361 334.475 541.361Z" fill="#90A9D5"/>
<path d="M329.793 545.701H297.623C297.178 545.701 296.816 546.062 296.816 546.508V550.48C296.816 550.926 297.178 551.287 297.623 551.287H329.793C330.239 551.287 330.6 550.926 330.6 550.48V546.508C330.6 546.062 330.239 545.701 329.793 545.701Z" fill="#E6E4EB"/>
<path d="M329.807 554.539H313.905C313.459 554.539 313.098 554.9 313.098 555.346V559.318C313.098 559.763 313.459 560.125 313.905 560.125H329.807C330.253 560.125 330.614 559.763 330.614 559.318V555.346C330.614 554.9 330.253 554.539 329.807 554.539Z" fill="#E6E4EB"/>
<path fill-rule="evenodd" clip-rule="evenodd" d="M1087.66 40.6898C1087.66 39.7404 1086.88 38.9492 1085.92 38.9492C1084.95 38.9492 1084.18 39.7246 1084.18 40.6898V44.7723H1080.1C1079.13 44.7723 1078.36 45.5477 1078.36 46.5129C1078.36 47.4782 1079.13 48.2535 1080.1 48.2535H1084.18V52.336C1084.18 53.2854 1084.95 54.0766 1085.92 54.0766C1086.88 54.0766 1087.66 53.3012 1087.66 52.336V48.2535H1091.74C1092.69 48.2535 1093.48 47.4782 1093.48 46.5129C1093.48 45.5477 1092.71 44.7723 1091.74 44.7723H1087.66V40.6898Z" fill="#BFCCE8"/>
<path fill-rule="evenodd" clip-rule="evenodd" d="M566.525 152.297C566.525 151.332 565.75 150.557 564.784 150.557C563.819 150.557 563.044 151.332 563.044 152.297V156.38H558.961C557.996 156.38 557.221 157.155 557.221 158.12C557.221 159.086 557.996 159.861 558.961 159.861H563.044V163.943C563.044 164.893 563.819 165.684 564.784 165.684C565.75 165.684 566.525 164.909 566.525 163.943V159.861H570.607C571.573 159.861 572.348 159.086 572.348 158.12C572.348 157.155 571.573 156.38 570.607 156.38H566.525V152.297Z" fill="#BFCCE8"/>
<path fill-rule="evenodd" clip-rule="evenodd" d="M573.6 344.33C573.6 343.381 572.825 342.59 571.86 342.59C570.894 342.59 570.119 343.365 570.119 344.33V348.413H566.036C565.071 348.413 564.296 349.188 564.296 350.154C564.296 351.119 565.071 351.894 566.036 351.894H570.119V355.977C570.119 356.942 570.894 357.717 571.86 357.717C572.825 357.717 573.6 356.942 573.6 355.977V351.894H577.683C578.632 351.894 579.423 351.119 579.423 350.154C579.423 349.188 578.648 348.413 577.683 348.413H573.6V344.33Z" fill="#BFCCE8"/>
<path fill-rule="evenodd" clip-rule="evenodd" d="M421.597 258.327C421.597 257.377 420.822 256.586 419.857 256.586C418.891 256.586 418.116 257.361 418.116 258.327V262.409H414.034C413.084 262.409 412.293 263.184 412.293 264.15C412.293 265.115 413.068 265.89 414.034 265.89H418.116V269.973C418.116 270.938 418.891 271.713 419.857 271.713C420.822 271.713 421.597 270.938 421.597 269.973V265.89H425.68C426.629 265.89 427.42 265.115 427.42 264.15C427.42 263.184 426.645 262.409 425.68 262.409H421.597V258.327Z" fill="#BFCCE8"/>
<path fill-rule="evenodd" clip-rule="evenodd" d="M998.115 248.067C998.115 247.117 997.339 246.326 996.374 246.326C995.409 246.326 994.634 247.102 994.634 248.067V252.149H990.551C989.586 252.149 988.811 252.925 988.811 253.89C988.811 254.855 989.586 255.63 990.551 255.63H994.634V259.713C994.634 260.678 995.409 261.454 996.374 261.454C997.339 261.454 998.115 260.678 998.115 259.713V255.63H1002.2C1003.16 255.63 1003.94 254.855 1003.94 253.89C1003.94 252.925 1003.16 252.149 1002.2 252.149H998.115V248.067Z" fill="#BFCCE8"/>
<path fill-rule="evenodd" clip-rule="evenodd" d="M743.738 375.982C743.738 375.982 754.071 379.4 762.22 389.306C766.825 394.908 823.22 502.92 826.844 509.961C830.467 517.003 830.452 534.773 821.907 545.707C818.584 549.963 809.058 561.847 798.63 574.806H764.847C777.11 556.403 793.124 532.336 794.279 530.389C796.162 527.225 797.095 524.155 793.677 518.806C790.244 513.458 745.115 458.424 745.115 458.424C745.115 458.424 722.93 396.395 743.738 375.982Z" fill="#0F1630" stroke="#0E1632" stroke-width="0.34812" stroke-miterlimit="22.93"/>
<path fill-rule="evenodd" clip-rule="evenodd" d="M684.431 367.293C684.431 367.293 741.285 375.379 743.738 375.98C746.191 376.581 750.336 382.31 752.567 386.171C754.799 390.032 757.425 445.525 758.707 461.064C759.989 476.603 754.973 544.344 756.46 562.541C756.713 565.563 757.172 569.804 757.773 574.804H587.701C585.517 554.676 570.358 491.73 569.108 476.603C567.842 461.064 561.386 405.871 562.969 401.709C564.551 397.548 567.716 391.218 570.026 390.221C572.352 389.224 627.798 371.945 627.798 371.945L656.217 375.078L684.415 367.293H684.431Z" fill="#CEC9D0"/>
<path fill-rule="evenodd" clip-rule="evenodd" d="M684.432 367.293C684.432 367.293 688.198 367.831 693.831 368.638C693.578 370.015 692.914 371.312 691.885 372.499C669.795 397.817 647.215 399.668 621.296 378.29C620.077 377.278 619.223 376.107 618.732 374.778C624.16 373.084 627.799 371.945 627.799 371.945L656.219 375.078L684.416 367.293H684.432Z" fill="white"/>
<path fill-rule="evenodd" clip-rule="evenodd" d="M674.479 312.527L674.969 326.689C674.969 326.689 677.343 355.568 677.691 359.967C677.865 362.087 680.318 364.967 684.416 367.309C665.823 388.607 649.604 389.937 627.783 371.945C631.454 368.97 633.401 365.726 633.227 363.606C632.863 359.223 630.505 330.329 630.505 330.329L628.685 316.278C628.685 316.278 640.094 317.164 651.93 318.778C663.339 315.265 674.463 312.527 674.463 312.527H674.479Z" fill="#E8685B"/>
<path fill-rule="evenodd" clip-rule="evenodd" d="M689.13 367.959C689.13 367.959 682.563 396.378 682.073 402.154C681.582 407.929 673.86 466.145 674.667 475.987C675.031 480.465 683.924 525.942 693.608 574.805H771.081C769.182 562.89 767.552 552.637 766.666 546.829C763.517 525.99 761.413 482.664 762.093 455.907C762.773 429.149 756.127 388.989 755.336 385.175C754.545 381.362 746.95 376.599 744.592 375.713L689.13 367.959Z" fill="#17A9E1"/>
<path fill-rule="evenodd" clip-rule="evenodd" d="M680.65 414.317C678.324 433.495 674.052 468.545 674.669 475.982C674.669 475.982 712.345 434.967 711.775 430.916C711.205 426.865 695.872 396.689 695.872 396.689C695.872 396.689 689.29 404.269 680.65 414.301V414.317Z" fill="#3D4155"/>
<path fill-rule="evenodd" clip-rule="evenodd" d="M687.231 367.69C687.231 367.69 688.893 366.202 689.494 366.155C690.095 366.107 700.317 369.573 700.317 369.573C700.317 369.573 715.223 393.023 715.476 396.014C715.714 399.005 678.86 429.164 678.86 429.164L682.136 401.584C682.136 401.584 687.484 374.62 689.13 367.974L687.247 367.706L687.231 367.69Z" fill="#545A6C"/>
<path fill-rule="evenodd" clip-rule="evenodd" d="M570.691 390.162C570.691 390.162 561.054 395.226 554.63 406.318C550.991 412.584 512.951 528.35 510.514 535.882C508.093 543.414 510.988 560.947 521.195 570.362C522.302 571.374 523.98 572.909 526.1 574.824H568.254C557.083 562.845 546.971 551.975 545.959 550.756C543.585 547.94 542.161 545.06 544.677 539.221C547.193 533.382 582.764 471.733 582.764 471.733C582.764 471.733 594.553 406.919 570.691 390.162Z" fill="#17A9E1"/>
<path fill-rule="evenodd" clip-rule="evenodd" d="M623.274 373.375C623.274 373.375 634.382 400.338 635.806 405.956C637.23 411.573 654.32 467.747 655.127 477.589C655.491 481.957 654.177 526.326 652.627 574.81H575.993C575.961 569.746 575.93 565.505 575.882 562.467C575.597 541.39 570.629 498.303 565.581 472.004C560.549 445.721 560.565 405.006 560.739 401.13C560.897 397.237 567.622 391.303 569.79 390.053L623.258 373.375H623.274Z" fill="#17A9E1"/>
<path fill-rule="evenodd" clip-rule="evenodd" d="M639.193 417.722C644.62 436.267 654.526 470.162 655.143 477.599C655.143 477.599 611.296 443.261 611.201 439.179C611.106 435.096 621.312 402.832 621.312 402.832C621.312 402.832 629.034 409.225 639.193 417.738V417.722Z" fill="#3D4155"/>
<path fill-rule="evenodd" clip-rule="evenodd" d="M625.091 372.787C625.091 372.787 623.208 371.585 622.607 371.632C622.006 371.68 612.48 376.759 612.48 376.759C612.48 376.759 601.577 402.314 601.831 405.321C602.068 408.311 643.352 432.078 643.352 432.078L635.646 405.4C635.646 405.4 625.977 379.671 623.272 373.373L625.091 372.803V372.787Z" fill="#545A6C"/>
<path fill-rule="evenodd" clip-rule="evenodd" d="M604.204 321.154C603.919 321.218 603.634 321.297 603.365 321.376C598.27 322.942 594.741 327.848 595.137 333.402C595.596 339.842 601.197 344.684 607.637 344.225C614.078 343.766 618.92 338.165 618.461 331.724C618.192 327.974 616.182 324.778 613.286 322.832C613.903 326.25 613.745 330.554 609.394 331.376L608.903 324.651C608.713 321.93 606.055 320.901 604.204 321.154Z" fill="#E8685B"/>
<path fill-rule="evenodd" clip-rule="evenodd" d="M688.275 313.494C688.56 313.494 688.861 313.526 689.146 313.558C694.431 314.175 698.798 318.368 699.415 323.89C700.127 330.315 695.491 336.091 689.066 336.803C682.642 337.515 676.867 332.878 676.154 326.454C675.743 322.72 677.135 319.207 679.636 316.786C679.651 320.251 680.585 324.46 685.016 324.476L684.272 317.767C683.971 315.045 686.392 313.573 688.26 313.479L688.275 313.494Z" fill="#E8685B"/>
<path fill-rule="evenodd" clip-rule="evenodd" d="M640.931 259.14C619 261.134 602.702 280.724 604.695 302.655L608.003 338.923C609.996 360.854 629.586 377.169 651.517 375.159C673.449 373.165 689.763 353.576 687.754 331.644L684.446 295.376C682.453 273.445 662.863 257.131 640.931 259.14Z" fill="#F4AD85"/>
<path fill-rule="evenodd" clip-rule="evenodd" d="M607.164 284.806C605.044 290.328 604.126 296.388 604.696 302.655L608.003 338.922C609.886 359.572 627.371 375.238 647.72 375.333C624.539 373.544 620.251 346.154 618.478 331.723C616.706 317.291 622.118 314.063 624.254 313.351C626.406 312.639 660.063 307.054 667.516 306.183C674.969 305.329 678.719 309.459 678.719 309.459L681.852 304.902L678.845 295.154C678.845 295.154 681.409 295.233 684.447 295.154C684.194 292.559 683.703 290.027 682.975 287.622C678.671 286.103 673.829 284.268 669.826 281.688C660.949 275.96 618.542 283.128 611.658 283.128C610.63 283.128 609.079 283.745 607.18 284.806H607.164Z" fill="#ED9072"/>
<path fill-rule="evenodd" clip-rule="evenodd" d="M681.963 314.62C681.963 314.62 682.201 317.278 682.438 319.762C682.66 322.231 685.207 324.794 687.106 324.62L686.6 319.003C686.6 319.003 687.027 314.794 692.138 314.319C706.189 294.84 701.506 266.389 683.388 253.066C665.269 239.742 629.207 242.068 623.115 244.743C617.023 247.417 611.517 258.667 611.517 258.667C611.517 258.667 605.741 254.395 601.026 257.322C596.294 260.25 582.591 292.989 583.303 300.79C584.015 308.591 600.535 322.69 600.535 322.69C605.646 322.231 606.833 326.298 606.833 326.298L607.339 331.915C609.238 331.741 611.279 328.766 611.058 326.298C610.836 323.829 610.583 321.155 610.583 321.155C610.757 321.06 610.931 320.949 611.105 320.854C615.947 317.705 614.982 308.116 614.982 308.116L610.52 301.882L619.365 290.251L629.54 286.897L652.658 287.783C652.658 287.783 679.922 291.169 677.533 299.113C675.143 307.056 681.932 314.651 681.932 314.651L681.963 314.62Z" fill="#0E1632"/>
<path fill-rule="evenodd" clip-rule="evenodd" d="M681.961 314.618C682.246 317.672 684.288 331.312 687.848 330.995C698.45 308.652 708.245 285.328 692.453 262.447C690.601 277.179 675.917 286.167 661.233 289.252C669.002 290.946 679.066 294.126 677.578 299.079C675.189 307.022 681.977 314.618 681.977 314.618H681.961ZM584.314 293.92C583.554 296.864 583.159 299.285 583.301 300.772C583.855 306.785 603.888 335.837 608.334 342.436C610.644 342.23 610.961 325.014 610.597 321.121C610.771 321.026 610.945 320.916 611.119 320.821C615.961 317.672 614.996 308.083 614.996 308.083L610.534 301.848L619.379 290.218L629.095 287.021C624.205 285.043 622.797 282.971 622.797 282.971C602.733 303.272 591.086 302.165 584.314 293.92Z" fill="#010518"/>
<path fill-rule="evenodd" clip-rule="evenodd" d="M600.866 315.248C600.866 315.248 584.093 278.885 617.829 272.666C617.829 272.666 626.753 255.039 644.65 259.453C662.546 263.868 673.75 263.758 681.772 255.846C681.772 255.846 686.377 264.501 680.791 272.081C697.738 285.23 691.852 302.082 684.921 311.165C682.152 292.319 632.482 313.301 625.994 295.183C625.345 312.494 607.195 308.19 600.866 315.248Z" fill="#0E1632"/>
<path fill-rule="evenodd" clip-rule="evenodd" d="M600.866 315.259C600.866 315.259 597.527 307.996 596.831 299.419C603.35 298.802 611.816 294.118 622.813 282.994C622.813 282.994 627.307 289.593 648.02 290.447C660.616 290.969 676.614 286.301 685.633 276.602C696.425 288.897 691.092 303.106 684.921 311.192C682.152 292.346 632.497 313.328 625.994 295.21C625.345 312.521 607.196 308.217 600.866 315.275V315.259Z" fill="#010518"/>
<path fill-rule="evenodd" clip-rule="evenodd" d="M1088.55 319.167C1081.46 292.568 1056.67 307.189 1046.06 329.975C1035.46 352.745 1011.14 441.595 990.128 464.586C981.979 473.495 984.479 474.255 991.964 469.903C1029.31 448.256 1098.31 355.783 1088.55 319.167Z" fill="#05304B"/>
<path fill-rule="evenodd" clip-rule="evenodd" d="M985.096 471.497C984.843 472.7 985.966 472.747 988.086 471.861C1044.72 423.963 1074.78 316.9 1074.88 316.568C1075.05 315.983 1074.7 315.365 1074.12 315.191C1073.53 315.017 1072.92 315.365 1072.74 315.951C1072.65 316.299 1042.16 424.818 985.08 471.481L985.096 471.497Z" fill="#0076BD"/>
<path fill-rule="evenodd" clip-rule="evenodd" d="M1025.79 333.34C1013.42 313.94 997.375 331.853 994.685 352.677C991.995 373.5 995.08 450.403 984.146 474.028C979.906 483.19 982.089 483.158 986.947 477.81C1011.22 451.131 1042.82 360.035 1025.79 333.34Z" fill="#0076BD"/>
<path fill-rule="evenodd" clip-rule="evenodd" d="M981.899 480.838C981.994 481.85 982.912 481.613 984.384 480.379C1017.39 427.923 1014.29 335.055 1014.27 334.754C1014.27 334.248 1013.83 333.836 1013.33 333.852C1012.82 333.852 1012.41 334.295 1012.42 334.801C1012.42 335.102 1015.57 429.237 981.899 480.838Z" fill="#05304B"/>
<path fill-rule="evenodd" clip-rule="evenodd" d="M1087.14 399.35C1108.52 401.581 1100.26 422.484 1083.99 433.45C1067.71 444.415 1002.15 473.99 986.979 493.01C981.093 500.384 980.206 498.548 982.643 492.25C994.796 460.793 1057.71 396.296 1087.14 399.366V399.35Z" fill="#0076BD"/>
<path fill-rule="evenodd" clip-rule="evenodd" d="M982.247 497.73C981.361 498.078 981.171 497.208 981.599 495.467C1011.63 445.955 1090.56 409.703 1090.81 409.576C1091.24 409.371 1091.76 409.576 1091.97 410.004C1092.17 410.431 1091.97 410.953 1091.54 411.159C1091.29 411.27 1011.3 448.028 982.247 497.746V497.73Z" fill="#05304B"/>
<path fill-rule="evenodd" clip-rule="evenodd" d="M781.729 372.645L776.412 419.308C776.412 419.308 784.435 528.586 788.391 574.823H847.982L849.296 388.848L781.729 372.66V372.645Z" fill="#0E1632"/>
<path fill-rule="evenodd" clip-rule="evenodd" d="M813.329 413.102L810.702 429.59L815.924 574.803H888.57C889.789 564.755 890.88 556.163 891.767 549.96C897.226 511.762 899.093 458.69 899.061 446.126C899.03 433.562 884.488 414.921 879.487 413.561C874.487 412.2 813.329 413.102 813.329 413.102Z" fill="#0E1632"/>
<path fill-rule="evenodd" clip-rule="evenodd" d="M789.039 188.894C789.039 188.894 786.554 184.274 784.592 185.144C782.63 186.015 716.851 282.792 714.62 291.131C712.389 299.454 713.307 314.218 726.045 334.709C738.767 355.201 766.015 405.488 766.981 406.564C767.946 407.656 782.82 397.561 784.418 394.744C784.418 394.744 785.067 393.81 784.118 391.927C783.168 390.044 750.777 313.331 748.736 307.825C746.695 302.318 804.372 234.039 807.125 228.564C809.878 223.105 820.48 194.449 789.039 188.879V188.894Z" fill="#171C3A"/>
<path fill-rule="evenodd" clip-rule="evenodd" d="M841.748 161.176L813.108 181.636C813.108 181.636 792.679 261.64 792.6 265.279C792.521 268.919 784.688 313.035 784.688 313.035C784.688 313.035 813.329 324.396 817.428 313.494C821.526 302.576 867.446 224.375 869.725 212.096C872.003 199.817 866.544 170.717 863.807 167.537C861.085 164.356 841.748 161.176 841.748 161.176Z" fill="#C9C4D1"/>
<path fill-rule="evenodd" clip-rule="evenodd" d="M812.917 174.65C812.917 174.65 786.967 183.781 784.593 185.141C782.204 186.502 768.2 237.565 767.061 242.344C765.921 247.123 773.422 334.643 773.422 342.381C773.422 350.119 763.643 446.738 763.421 448.32C763.2 449.918 764.102 451.738 766.38 451.738C768.659 451.738 794.119 403.761 796.16 398.317C798.202 392.858 791.587 310.56 791.587 310.56L808.898 192.784L812.933 174.65H812.917Z" fill="#171C3A"/>
<path fill-rule="evenodd" clip-rule="evenodd" d="M889.929 187.594C889.929 187.594 927.114 225.08 928.475 227.343C929.836 229.621 891.195 357.619 890.736 363.521C890.277 369.439 909.835 456.5 910.515 458.779C910.515 458.779 910.626 459.681 909.945 461.058C909.265 462.419 907.667 463.226 906.876 463.779C906.085 464.349 815.146 449.68 807.867 445.139C800.588 440.598 784.907 369.882 784.907 360.34C784.907 350.799 790.414 314.246 790.414 314.246L835.163 238.483C835.163 238.483 867.491 189.999 889.945 187.594H889.929Z" fill="#1C2344"/>
<path fill-rule="evenodd" clip-rule="evenodd" d="M884.042 181.711C884.042 181.711 927.114 225.083 928.474 227.362C929.835 229.641 891.194 357.638 890.735 363.54C890.276 369.458 909.834 456.52 910.515 458.798C910.515 458.798 910.625 459.7 909.945 461.077C909.264 462.438 907.666 463.245 906.875 463.799C906.464 464.084 882.269 460.365 857.854 456.061C879.041 425.537 877.934 374.949 876.082 371.879C873.93 368.303 862.616 360.565 864.341 359.996C866.066 359.426 877.665 359.141 878.519 356.277C879.374 353.413 895.704 262.775 895.704 262.775L906.606 255.433C906.606 255.433 911.48 220.194 908.046 215.035C904.612 209.893 881.937 190.382 881.747 190.224C884.564 188.832 881.431 182.043 884.042 181.758V181.711Z" fill="#101937"/>
<path fill-rule="evenodd" clip-rule="evenodd" d="M923.286 221.641C923.286 221.641 928.919 226.135 932.812 231.214C936.705 236.293 985.22 337.723 986.233 347.217C987.229 356.727 983.685 372.74 966.2 392.979C948.715 413.217 910.2 463.6 908.966 464.612C907.732 465.641 893.158 452.017 891.908 448.646C891.908 448.646 891.354 447.523 892.731 445.624C894.107 443.725 942.813 365.303 946.009 359.623C949.205 353.942 897.794 269.191 895.721 262.735C893.649 256.279 887.889 222.305 923.286 221.641Z" fill="#383D5D"/>
<path fill-rule="evenodd" clip-rule="evenodd" d="M868.963 125.572C869.232 139.75 865.545 154.387 866.479 168.581C866.669 171.477 868.061 172.442 871.622 174.768C876.574 182.126 863.045 205.418 854.136 206.795C853.551 206.89 839.056 195.513 828.787 192.886C823.518 191.525 819.182 198.266 818.786 197.981C816.65 196.43 821.239 184.389 819.752 179.816C821.556 179.325 823.17 175.29 824.451 174.119C832.775 166.445 830.053 147.298 823.249 140.067C818.153 134.671 868.979 125.588 868.979 125.588L868.963 125.572Z" fill="#ED9072"/>
<path fill-rule="evenodd" clip-rule="evenodd" d="M878.347 180.325C877.223 183.537 849.738 220.216 849.738 220.216C849.738 220.216 848.757 221.53 847.317 219.868C845.877 218.207 828.945 194.566 828.945 194.566L866.558 166.542L865.704 160.102C866.257 159.517 879.518 177.049 878.363 180.341L878.347 180.325Z" fill="white"/>
<path fill-rule="evenodd" clip-rule="evenodd" d="M827.947 168.388C827.947 168.388 827.9 168.341 827.805 168.325C814.956 167.423 813.01 203.833 815.257 210.986C815.257 211.033 823.073 199.07 828.438 194.307C830.874 192.155 823.263 175.699 827.931 168.388H827.947Z" fill="white"/>
<path fill-rule="evenodd" clip-rule="evenodd" d="M875.104 169.842C875.104 169.842 827.016 229.449 823.614 234.45C820.212 239.45 794.055 301.067 790.416 314.248C790.416 314.248 830.656 264.008 836.336 259.451C842.017 254.91 863.047 237.393 863.047 237.393C863.047 237.393 863.616 236.254 863.331 235.462C863.046 234.671 857.192 221.427 857.192 221.427C857.192 221.427 874.693 224.038 876.291 223.927C877.889 223.816 885.738 184.763 885.975 183.624C886.196 182.485 875.104 169.842 875.104 169.842Z" fill="#05304B"/>
<path fill-rule="evenodd" clip-rule="evenodd" d="M828.045 168.309C828.045 168.309 815.323 171.252 813.281 172.391C811.24 173.53 795.1 200.351 794.641 202.63C794.641 202.63 794.42 203.706 795.322 204.165C796.239 204.624 799.578 206.728 799.926 207.061C800.259 207.409 794.293 208.089 794.293 208.089C794.293 208.089 793.613 208.342 793.723 209.403C793.834 210.447 791.571 310.579 791.571 310.579C791.571 310.579 811.414 199.877 814.357 192.582C817.301 185.303 825.196 173.768 825.196 173.768L828.045 168.324V168.309Z" fill="#05304B"/>
<path fill-rule="evenodd" clip-rule="evenodd" d="M806.414 104.94C812.68 104.908 817.776 109.956 817.823 116.222C817.855 122.488 812.807 127.583 806.541 127.631C800.275 127.662 795.179 122.615 795.132 116.348C795.1 110.082 800.148 104.987 806.414 104.94Z" fill="#E8685B"/>
<path fill-rule="evenodd" clip-rule="evenodd" d="M882.095 104.508C888.361 104.476 893.457 109.524 893.488 115.79C893.52 122.056 888.472 127.152 882.206 127.199C875.94 127.231 870.844 122.183 870.797 115.917C870.765 109.651 875.813 104.555 882.079 104.524L882.095 104.508Z" fill="#E8685B"/>
<path fill-rule="evenodd" clip-rule="evenodd" d="M840.337 46.653C861.699 46.5264 879.279 65.4831 879.39 88.7755L879.58 127.274C879.69 150.567 862.316 169.729 840.954 169.872C819.592 169.998 802.012 151.041 801.902 127.749L801.712 89.2502C801.585 65.9578 818.975 46.7954 840.337 46.653Z" fill="#F4AD85"/>
<path fill-rule="evenodd" clip-rule="evenodd" d="M877.89 77.3433C878.855 80.9828 879.378 84.8279 879.409 88.7838L879.599 127.283C879.71 148.708 865.026 166.636 846.053 169.484C844.186 169.674 842.999 169.801 842.73 169.817H842.714C863.934 167.712 868.412 139.847 868.412 131.444V109.624C868.412 89.0053 857.003 86.8533 849.202 86.8533H810.466C805.465 86.8533 803.662 91.458 803.662 91.458L801.731 89.9864V89.2427C801.668 76.9003 806.51 65.7288 814.248 57.9277C833.695 61.7254 866.038 68.1814 868.269 69.5897C869.488 70.3493 873.444 73.5931 877.89 77.3433Z" fill="#ED9072"/>
<path fill-rule="evenodd" clip-rule="evenodd" d="M796.427 77.6689L803.405 84.6788C803.405 84.6788 806.744 71.6559 834.879 75.6751C863.013 79.6943 808.944 49.5345 802.82 52.8258C796.696 56.1171 791.364 65.8012 796.427 77.6847V77.6689Z" fill="#01020E"/>
<path fill-rule="evenodd" clip-rule="evenodd" d="M869.503 78.304C869.503 78.304 841.811 81.3421 827.728 72.4018C813.645 63.4614 801.714 59.3156 798.106 64.1735C794.689 68.7781 808.455 81.2313 802.917 102.403C802.616 103.558 801.888 123.132 801.477 124.335C801.35 116.676 798.882 97.0866 796.35 92.1971C788.771 77.5761 776.919 66.5787 792.315 44.6313C801.762 31.1654 817.823 24.8518 825.276 31.6717C849.581 53.8723 883.032 25.0258 883.222 61.8158C883.222 61.8158 901.245 67.8762 884.488 104.761C880.69 104.777 879.519 107.657 879.535 110.078L879.677 129.762C866.148 129.762 865.863 94.2858 869.503 78.3198V78.304Z" fill="#0E1632"/>
<path d="M857.587 411.707H935.93C939.728 411.707 942.813 414.793 942.813 418.59V553.281C942.813 557.079 939.728 560.164 935.93 560.164H857.587C853.79 560.164 850.704 557.079 850.704 553.281V418.59C850.704 414.793 853.79 411.707 857.587 411.707Z" fill="#E2E1E7"/>
<path d="M1001.01 411.707H937.638C934.44 411.707 931.847 414.3 931.847 417.498V554.373C931.847 557.571 934.44 560.164 937.638 560.164H1001.01C1004.21 560.164 1006.8 557.571 1006.8 554.373V417.498C1006.8 414.3 1004.21 411.707 1001.01 411.707Z" fill="white"/>
<path fill-rule="evenodd" clip-rule="evenodd" d="M835.022 468.09H916.182C916.182 453.548 931.863 451.934 931.863 451.934H850.704C850.704 451.934 835.022 453.548 835.022 468.09Z" fill="white"/>
<path d="M934.678 536.27H850.703C848.194 536.27 846.161 538.303 846.161 540.811V570.259C846.161 572.767 848.194 574.8 850.703 574.8H934.678C937.187 574.8 939.22 572.767 939.22 570.259V540.811C939.22 538.303 937.187 536.27 934.678 536.27Z" fill="#1BB9F5"/>
<path fill-rule="evenodd" clip-rule="evenodd" d="M932.036 536.27H950.487C950.898 536.27 955.392 536.444 957.908 541.934C960.55 547.694 960.266 553.454 968.114 553.454C975.535 553.454 964.823 553.454 971.485 553.454C979.317 553.454 979.096 547.552 981.691 541.934C984.27 536.301 988.701 536.27 989.128 536.27H1006.63C1009.13 536.27 1011.17 538.311 1011.17 540.811V570.274C1011.17 572.775 1009.13 574.816 1006.63 574.816H932.052C929.552 574.816 927.511 572.775 927.511 570.274V540.811C927.511 538.311 929.552 536.27 932.052 536.27H932.036Z" fill="#17A9E1"/>
<path fill-rule="evenodd" clip-rule="evenodd" d="M835.022 518.947H916.182C916.182 504.405 931.863 502.791 931.863 502.791H850.704C850.704 502.791 835.022 504.389 835.022 518.947Z" fill="white"/>
<path fill-rule="evenodd" clip-rule="evenodd" d="M1020.02 494.705H946.199C946.199 480.163 931.847 478.549 931.847 478.549H1005.65C1005.65 478.549 1020 480.147 1020 494.705H1020.02Z" fill="#ACABBB"/>
<path fill-rule="evenodd" clip-rule="evenodd" d="M943.603 427.828H1000.17C1001.55 427.828 1002.67 428.952 1002.67 430.328C1002.67 431.705 1001.55 432.828 1000.17 432.828H943.603C942.226 432.828 941.103 431.705 941.103 430.328C941.103 428.952 942.226 427.828 943.603 427.828Z" fill="#E2E1E7"/>
<path fill-rule="evenodd" clip-rule="evenodd" d="M943.603 455.32H1000.17C1001.55 455.32 1002.67 456.444 1002.67 457.82C1002.67 459.197 1001.55 460.321 1000.17 460.321H943.603C942.226 460.321 941.103 459.197 941.103 457.82C941.103 456.444 942.226 455.32 943.603 455.32Z" fill="#E2E1E7"/>
<path fill-rule="evenodd" clip-rule="evenodd" d="M943.603 512.693H1000.17C1001.55 512.693 1002.67 513.817 1002.67 515.194C1002.67 516.57 1001.55 517.694 1000.17 517.694H943.603C942.226 517.694 941.103 516.57 941.103 515.194C941.103 513.817 942.226 512.693 943.603 512.693Z" fill="#E2E1E7"/>
<path fill-rule="evenodd" clip-rule="evenodd" d="M862.683 425.801H917.338C918.714 425.801 919.838 426.924 919.838 428.301C919.838 429.678 918.714 430.801 917.338 430.801H862.683C861.306 430.801 860.183 429.678 860.183 428.301C860.183 426.924 861.306 425.801 862.683 425.801Z" fill="#ACABBB"/>
<path d="M917.337 487.709H862.698C861.318 487.709 860.198 488.825 860.198 490.201C860.198 491.578 861.318 492.693 862.698 492.693H917.337C918.718 492.693 919.837 491.578 919.837 490.201C919.837 488.825 918.718 487.709 917.337 487.709Z" fill="#ACABBB"/>
<path fill-rule="evenodd" clip-rule="evenodd" d="M862.683 527.318H917.338C918.714 527.318 919.838 528.442 919.838 529.818C919.838 531.195 918.714 532.319 917.338 532.319H862.683C861.306 532.319 860.183 531.195 860.183 529.818C860.183 528.442 861.306 527.318 862.683 527.318Z" fill="#ACABBB"/>
<path d="M864.851 476.092H817.427C815.129 476.092 813.266 477.955 813.266 480.253V561.777C813.266 564.075 815.129 565.938 817.427 565.938H864.851C867.149 565.938 869.012 564.075 869.012 561.777V480.253C869.012 477.955 867.149 476.092 864.851 476.092Z" fill="#E2E1E7"/>
<path d="M865.893 476.094H904.249C906.18 476.094 907.747 477.66 907.747 479.591V562.428C907.747 564.358 906.18 565.941 904.234 565.941H865.877C863.947 565.941 862.364 564.374 862.364 562.428V479.591C862.364 477.66 863.931 476.078 865.877 476.078L865.893 476.094Z" fill="white"/>
<path fill-rule="evenodd" clip-rule="evenodd" d="M803.786 510.222H852.903C852.903 501.424 862.397 500.443 862.397 500.443H813.28C813.28 500.443 803.786 501.409 803.786 510.222Z" fill="white"/>
<path d="M813.265 551.488H864.09C865.609 551.488 866.828 552.722 866.828 554.226V572.059C866.828 573.578 865.594 574.796 864.09 574.796H813.265C811.746 574.796 810.527 573.562 810.527 572.059V554.226C810.527 552.707 811.762 551.488 813.265 551.488Z" fill="#1BB9F5"/>
<path fill-rule="evenodd" clip-rule="evenodd" d="M862.491 551.488H873.646C873.899 551.488 876.621 551.599 878.14 554.922C879.738 558.403 879.564 561.9 884.311 561.9C888.805 561.9 882.318 561.9 886.353 561.9C891.1 561.9 890.957 558.34 892.524 554.922C894.09 551.52 896.765 551.488 897.018 551.488H907.604C909.107 551.488 910.341 552.722 910.341 554.226V572.059C910.341 573.562 909.107 574.796 907.604 574.796H862.475C860.972 574.796 859.737 573.562 859.737 572.059V554.226C859.737 552.722 860.972 551.488 862.475 551.488H862.491Z" fill="#17A9E1"/>
<path fill-rule="evenodd" clip-rule="evenodd" d="M803.786 541.006H852.903C852.903 532.208 862.397 531.227 862.397 531.227H813.28C813.28 531.227 803.786 532.192 803.786 541.006Z" fill="white"/>
<path fill-rule="evenodd" clip-rule="evenodd" d="M915.736 526.332H871.066C871.066 517.534 862.379 516.553 862.379 516.553H907.049C907.049 516.553 915.736 517.518 915.736 526.332Z" fill="#ACABBB"/>
<path fill-rule="evenodd" clip-rule="evenodd" d="M869.487 485.857H903.729C904.568 485.857 905.232 486.538 905.232 487.361C905.232 488.184 904.552 488.864 903.729 488.864H869.487C868.664 488.864 867.983 488.184 867.983 487.361C867.983 486.538 868.664 485.857 869.487 485.857Z" fill="#E2E1E7"/>
<path fill-rule="evenodd" clip-rule="evenodd" d="M869.487 502.484H903.729C904.568 502.484 905.232 503.165 905.232 503.988C905.232 504.81 904.552 505.491 903.729 505.491H869.487C868.664 505.491 867.983 504.81 867.983 503.988C867.983 503.149 868.664 502.484 869.487 502.484Z" fill="#E2E1E7"/>
<path fill-rule="evenodd" clip-rule="evenodd" d="M869.487 537.221H903.729C904.568 537.221 905.232 537.901 905.232 538.724C905.232 539.547 904.552 540.227 903.729 540.227H869.487C868.664 540.227 867.983 539.547 867.983 538.724C867.983 537.901 868.664 537.221 869.487 537.221Z" fill="#E2E1E7"/>
<path d="M820.529 484.633H853.6C854.439 484.633 855.103 485.313 855.103 486.136C855.103 486.975 854.423 487.655 853.6 487.655H820.529C819.69 487.655 819.025 486.975 819.025 486.152C819.025 485.313 819.706 484.649 820.529 484.649V484.633Z" fill="#ACABBB"/>
<path d="M820.529 522.09H853.6C854.439 522.09 855.103 522.77 855.103 523.593C855.103 524.432 854.423 525.112 853.6 525.112H820.529C819.69 525.112 819.025 524.432 819.025 523.609C819.025 522.77 819.706 522.106 820.529 522.106V522.09Z" fill="#ACABBB"/>
<path fill-rule="evenodd" clip-rule="evenodd" d="M820.53 546.061H853.601C854.424 546.061 855.104 546.741 855.104 547.564C855.104 548.387 854.424 549.067 853.601 549.067H820.53C819.691 549.067 819.026 548.387 819.026 547.564C819.026 546.741 819.707 546.061 820.53 546.061Z" fill="#ACABBB"/>
<path fill-rule="evenodd" clip-rule="evenodd" d="M285.819 354.027L350.664 354.328C351.518 354.328 352.214 355.024 352.214 355.879V362.667C352.214 363.522 351.502 364.218 350.648 364.218L285.803 363.917C284.948 363.917 284.252 363.221 284.252 362.366V355.578C284.252 354.724 284.964 354.027 285.819 354.027ZM349.113 357.429L287.369 357.129V360.816L349.113 361.116V357.429Z" fill="#0E1632"/>
<path fill-rule="evenodd" clip-rule="evenodd" d="M200.624 450.913L286.293 353.297C286.847 352.648 287.828 352.585 288.477 353.155L293.572 357.633C294.221 358.186 294.284 359.168 293.715 359.816L208.046 457.432C207.492 458.081 206.511 458.144 205.862 457.575L200.767 453.097C200.118 452.543 200.055 451.562 200.624 450.913ZM287.607 356.493L203.979 451.783L206.748 454.22L290.376 358.93L287.607 356.493Z" fill="#0E1632"/>
<path fill-rule="evenodd" clip-rule="evenodd" d="M286.688 350.523C291.419 349.922 295.739 353.276 296.341 358.007C296.942 362.739 293.587 367.059 288.856 367.66C284.125 368.261 279.805 364.907 279.204 360.175C278.602 355.444 281.957 351.124 286.688 350.523Z" fill="#383D5D"/>
<path fill-rule="evenodd" clip-rule="evenodd" d="M200.577 451.363L260.817 566.433C261.213 567.192 262.147 567.493 262.906 567.097L268.919 563.948C269.679 563.553 269.963 562.619 269.584 561.86L209.343 446.79C208.948 446.031 208.014 445.73 207.254 446.126L201.241 449.275C200.482 449.67 200.181 450.604 200.577 451.363ZM262.843 563.632L204.042 451.3L207.318 449.591L266.118 561.923L262.843 563.632Z" fill="#0E1632"/>
<path fill-rule="evenodd" clip-rule="evenodd" d="M260.532 569.204C264.995 570.897 269.979 568.666 271.672 564.22C273.365 559.758 271.134 554.773 266.688 553.08C262.225 551.387 257.241 553.618 255.548 558.064C253.855 562.527 256.086 567.511 260.532 569.204Z" fill="#383D5D"/>
<path fill-rule="evenodd" clip-rule="evenodd" d="M205.497 443.042C210.228 442.441 214.548 445.796 215.149 450.527C215.75 455.258 212.396 459.578 207.665 460.179C202.933 460.781 198.613 457.426 198.012 452.695C197.411 447.964 200.765 443.644 205.497 443.042Z" fill="#383D5D"/>
<path d="M306.388 561.896H186.033C180.012 561.896 175.131 566.778 175.131 572.799C175.131 578.82 180.012 583.701 186.033 583.701H306.388C312.409 583.701 317.29 578.82 317.29 572.799C317.29 566.778 312.409 561.896 306.388 561.896Z" fill="#383D5D"/>
<path d="M349.269 561.896H228.914C222.893 561.896 218.012 566.778 218.012 572.799C218.012 578.82 222.893 583.701 228.914 583.701H349.269C355.29 583.701 360.171 578.82 360.171 572.799C360.171 566.778 355.29 561.896 349.269 561.896Z" fill="#0E1632"/>
<path fill-rule="evenodd" clip-rule="evenodd" d="M336.704 376.153H368.43C377.64 376.153 385.156 368.621 385.156 359.428H319.979C319.979 368.637 327.511 376.153 336.704 376.153Z" fill="white"/>
<path fill-rule="evenodd" clip-rule="evenodd" d="M337.308 372.814H356.36C361.882 372.814 366.408 368.288 366.408 362.766H327.244C327.244 368.288 331.77 372.814 337.292 372.814H337.308Z" fill="#DFF0F2"/>
<path fill-rule="evenodd" clip-rule="evenodd" d="M326.039 351.752H379.096C386.138 351.752 391.897 357.512 391.897 364.553H313.254C313.254 357.512 319.014 351.752 326.055 351.752H326.039Z" fill="#383D5D"/>
<path fill-rule="evenodd" clip-rule="evenodd" d="M326.039 351.752H350.297C357.339 351.752 363.098 357.512 363.098 364.553H313.254C313.254 357.512 319.014 351.752 326.055 351.752H326.039Z" fill="#01020E"/>
<path fill-rule="evenodd" clip-rule="evenodd" d="M966.392 113.713C966.012 114.236 965.284 114.362 964.762 113.982C964.24 113.603 964.113 112.875 964.493 112.353C969.082 105.944 975.142 100.675 982.2 97.0511C988.988 93.5541 996.71 91.5762 1004.86 91.5762C1018.56 91.5762 1030.95 97.1303 1039.92 106.102C1048.9 115.074 1054.45 127.48 1054.45 141.183C1054.45 154.887 1048.9 167.276 1039.92 176.248C1030.95 185.22 1018.55 190.774 1004.86 190.774C993.355 190.774 982.754 186.85 974.335 180.268C965.743 173.543 959.414 164.048 956.708 153.13C956.55 152.497 956.945 151.864 957.562 151.722C958.195 151.564 958.828 151.959 958.986 152.576C961.566 162.988 967.595 172.023 975.775 178.432C983.798 184.698 993.893 188.433 1004.86 188.433C1017.91 188.433 1029.72 183.147 1038.28 174.587C1046.82 166.042 1052.12 154.222 1052.12 141.167C1052.12 128.113 1046.84 116.309 1038.28 107.748C1029.73 99.2032 1017.91 93.9022 1004.86 93.9022C997.074 93.9022 989.732 95.7853 983.276 99.1082C976.551 102.574 970.775 107.59 966.408 113.682L966.392 113.713Z" fill="#0E1632"/>
<path fill-rule="evenodd" clip-rule="evenodd" d="M1027.63 119.396C1026.32 120.536 1022.76 124.191 1020.51 131.944C1022.45 133.242 1027.82 137.34 1025.3 141.708L1014.83 159.826C1012.28 164.066 1006.12 161.503 1004.04 160.474C998.434 166.298 997.058 171.219 996.725 172.912C1000.33 174.795 1003.61 175.27 1006.33 174.937C1010.21 174.478 1012.94 172.437 1013.97 170.649L1034.31 135.441C1035.32 133.638 1035.7 130.267 1034.18 126.707C1033.1 124.191 1031.06 121.596 1027.61 119.412L1027.63 119.396ZM1018.37 132.134C1021.16 121.802 1026.39 117.782 1026.93 117.387C1027.25 117.134 1027.71 117.086 1028.07 117.308C1032.3 119.808 1034.77 122.909 1036.05 125.916C1037.84 130.109 1037.33 134.191 1036.08 136.423L1015.75 171.646C1014.46 173.877 1011.16 176.393 1006.6 176.947C1003.36 177.342 999.463 176.757 995.19 174.368C994.842 174.194 994.605 173.814 994.637 173.387C994.637 173.371 995.175 166.551 1003.1 158.56C1003.42 158.212 1003.94 158.117 1004.35 158.37C1004.37 158.37 1011.08 162.247 1013.12 158.781L1023.56 140.695C1025.51 137.325 1019.42 133.606 1018.88 133.289C1018.47 133.084 1018.25 132.593 1018.37 132.134Z" fill="#0E1632"/>
<path d="M974.641 149.775H964.804V147.365L968.114 144.018C969.06 143.029 969.678 142.355 969.968 141.996C970.259 141.632 970.46 141.32 970.571 141.06C970.688 140.8 970.747 140.528 970.747 140.244C970.747 139.892 970.633 139.614 970.404 139.41C970.175 139.206 969.854 139.104 969.44 139.104C969.013 139.104 968.581 139.227 968.142 139.475C967.709 139.716 967.218 140.074 966.667 140.55L964.656 138.195C965.354 137.571 965.941 137.126 966.417 136.86C966.893 136.588 967.409 136.381 967.965 136.239C968.528 136.097 969.158 136.026 969.857 136.026C970.735 136.026 971.517 136.18 972.203 136.489C972.895 136.798 973.43 137.24 973.807 137.815C974.19 138.384 974.381 139.023 974.381 139.734C974.381 140.266 974.313 140.757 974.177 141.208C974.048 141.66 973.844 142.105 973.566 142.543C973.287 142.976 972.917 143.434 972.453 143.916C971.996 144.398 971.016 145.313 969.514 146.66V146.753H974.641V149.775ZM986.203 147.152H984.71V149.775H981.094V147.152H975.689V144.463L981.326 136.22H984.71V144.416H986.203V147.152ZM981.094 144.416V142.84C981.094 142.543 981.103 142.145 981.122 141.644C981.147 141.137 981.165 140.872 981.178 140.847H981.076C980.865 141.323 980.627 141.768 980.362 142.182L978.86 144.416H981.094Z" fill="#0E1632"/>
<path fill-rule="evenodd" clip-rule="evenodd" d="M690.54 59.5078H758.107C763.899 59.5078 768.63 64.2391 768.63 70.0305V128.879C768.63 129.369 768.361 129.781 767.902 129.97C767.459 130.16 766.969 130.065 766.62 129.717L748.676 111.773H690.525C684.733 111.773 680.002 107.042 680.002 101.251V70.0305C680.002 64.2391 684.733 59.5078 690.525 59.5078H690.54Z" fill="#BFCCE8"/>
<path fill-rule="evenodd" clip-rule="evenodd" d="M682.564 52.6602H750.131C753.407 52.6602 756.397 54.0052 758.549 56.1572C760.701 58.325 762.046 61.2999 762.046 64.5753V123.423C762.046 123.946 761.888 124.436 761.619 124.848C761.35 125.259 760.955 125.591 760.464 125.797C759.974 126.003 759.467 126.05 758.992 125.955C758.502 125.86 758.043 125.623 757.679 125.243L740.147 107.711H682.58C679.305 107.711 676.314 106.366 674.162 104.214C672.01 102.046 670.665 99.0709 670.665 95.7954V64.5753C670.665 61.2999 672.01 58.3092 674.162 56.1572C676.33 53.9893 679.305 52.6602 682.58 52.6602H682.564ZM750.131 55.4451H682.564C680.048 55.4451 677.77 56.4736 676.108 58.1351C674.447 59.7966 673.418 62.0752 673.418 64.5912V95.8112C673.418 98.3271 674.447 100.606 676.108 102.267C677.77 103.929 680.048 104.957 682.564 104.957H741.286L759.262 122.933V64.5912C759.262 62.0752 758.233 59.7966 756.571 58.1351C754.91 56.4736 752.631 55.4451 750.115 55.4451H750.131Z" fill="white"/>
<path fill-rule="evenodd" clip-rule="evenodd" d="M681.994 64.3042C681.567 64.3042 681.234 63.9561 681.234 63.5447C681.234 63.1333 681.582 62.7852 681.994 62.7852H750.684C751.111 62.7852 751.444 63.1333 751.444 63.5447C751.444 63.9561 751.096 64.3042 750.684 64.3042H681.994Z" fill="white"/>
<path fill-rule="evenodd" clip-rule="evenodd" d="M681.994 71.7339C681.567 71.7339 681.234 71.3858 681.234 70.9744C681.234 70.563 681.582 70.2148 681.994 70.2148H689.273C689.7 70.2148 690.032 70.563 690.032 70.9744C690.032 71.3858 689.7 71.7339 689.273 71.7339H681.994ZM698.957 71.7339C698.53 71.7339 698.197 71.3858 698.197 70.9744C698.197 70.563 698.53 70.2148 698.957 70.2148H750.684C751.111 70.2148 751.444 70.563 751.444 70.9744C751.444 71.3858 751.096 71.7339 750.684 71.7339H698.957Z" fill="white"/>
<path fill-rule="evenodd" clip-rule="evenodd" d="M681.994 79.1499C681.567 79.1499 681.234 78.8176 681.234 78.3904C681.234 77.9632 681.582 77.6309 681.994 77.6309H750.684C751.111 77.6309 751.444 77.979 751.444 78.3904C751.444 78.8018 751.096 79.1499 750.684 79.1499H681.994Z" fill="white"/>
<path fill-rule="evenodd" clip-rule="evenodd" d="M701.109 89.2124C700.682 89.2124 700.35 88.8643 700.35 88.4529C700.35 88.0415 700.698 87.6934 701.109 87.6934H750.7C751.128 87.6934 751.46 88.0415 751.46 88.4529C751.46 88.8643 751.112 89.2124 750.7 89.2124H701.109Z" fill="white"/>
<path fill-rule="evenodd" clip-rule="evenodd" d="M723.247 97.2613C722.835 97.2613 722.487 96.9131 722.487 96.5017C722.487 96.0903 722.835 95.7422 723.247 95.7422H750.685C751.112 95.7422 751.445 96.0903 751.445 96.5017C751.445 96.9131 751.096 97.2613 750.685 97.2613H723.247Z" fill="white"/>
<path fill-rule="evenodd" clip-rule="evenodd" d="M707.519 97.2613C707.092 97.2613 706.76 96.9131 706.76 96.5017C706.76 96.0903 707.108 95.7422 707.519 95.7422H717.33C717.757 95.7422 718.089 96.0903 718.089 96.5017C718.089 96.9131 717.741 97.2613 717.33 97.2613H707.519Z" fill="white"/>
<path fill-rule="evenodd" clip-rule="evenodd" d="M1080.59 582.688C1080.59 581.723 1079.82 580.947 1078.85 580.947C1077.89 580.947 1077.11 581.723 1077.11 582.688V586.77H1073.03C1072.06 586.77 1071.29 587.546 1071.29 588.511C1071.29 589.476 1072.06 590.236 1073.03 590.236H1077.11V594.318C1077.11 595.268 1077.89 596.059 1078.85 596.059C1079.82 596.059 1080.59 595.283 1080.59 594.318V590.236H1084.67C1085.64 590.236 1086.41 589.46 1086.41 588.511C1086.41 587.562 1085.64 586.77 1084.67 586.77H1080.59V582.688Z" fill="#BFCCE8"/>
<path fill-rule="evenodd" clip-rule="evenodd" d="M403.526 555.232H344.773C342.352 555.232 340.169 556.213 338.57 557.812C336.972 559.41 335.991 561.594 335.991 564.015C335.991 566.436 336.972 568.635 338.57 570.217C340.169 571.816 342.352 572.797 344.773 572.797H403.526C405.947 572.797 408.131 571.816 409.729 570.217C411.327 568.635 412.309 566.436 412.309 564.015C412.309 561.594 411.327 559.41 409.729 557.812C408.147 556.213 405.947 555.232 403.526 555.232Z" fill="#0076BD"/>
<path fill-rule="evenodd" clip-rule="evenodd" d="M272.097 556.262H347.227C351.5 556.262 354.981 559.759 354.981 564.015C354.981 568.288 351.484 571.769 347.227 571.769H272.097V556.246V556.262Z" fill="white"/>
<path fill-rule="evenodd" clip-rule="evenodd" d="M272.096 555.232C271.526 555.232 271.067 555.691 271.067 556.261C271.067 556.831 271.526 557.29 272.096 557.29H347.227C349.078 557.29 350.755 558.049 351.989 559.267C353.208 560.486 353.967 562.179 353.967 564.03C353.967 565.882 353.208 567.575 351.989 568.793C350.771 570.012 349.078 570.771 347.227 570.771H272.096C271.526 570.771 271.067 571.23 271.067 571.8C271.067 572.369 271.526 572.828 272.096 572.828H347.227C349.648 572.828 351.831 571.847 353.429 570.249C355.028 568.667 356.009 566.467 356.009 564.046C356.009 561.625 355.028 559.441 353.429 557.843C351.831 556.245 349.648 555.264 347.227 555.264H272.096V555.232Z" fill="#004A82"/>
<path fill-rule="evenodd" clip-rule="evenodd" d="M400.82 564.015C400.82 561.594 399.839 559.41 398.241 557.812C396.643 556.213 394.459 555.232 392.038 555.232H399.681C402.102 555.232 404.286 556.213 405.884 557.812C407.482 559.41 408.463 561.594 408.463 564.015C408.463 566.436 407.482 568.635 405.884 570.217C404.301 571.816 402.102 572.797 399.681 572.797H392.038C394.459 572.797 396.643 571.816 398.241 570.217C399.839 568.635 400.82 566.436 400.82 564.015Z" fill="#004A82"/>
<path fill-rule="evenodd" clip-rule="evenodd" d="M389.744 564.015C389.744 561.594 388.763 559.41 387.165 557.812C385.567 556.213 383.383 555.232 380.962 555.232H388.605C391.026 555.232 393.225 556.213 394.808 557.812C396.406 559.41 397.387 561.594 397.387 564.015C397.387 566.436 396.406 568.635 394.808 570.217C393.209 571.816 391.026 572.797 388.605 572.797H380.962C383.383 572.797 385.582 571.816 387.165 570.217C388.763 568.635 389.744 566.436 389.744 564.015Z" fill="#004A82"/>
<path fill-rule="evenodd" clip-rule="evenodd" d="M287.556 539.854H338.999C341.119 539.854 343.034 540.724 344.427 542.116C345.819 543.509 346.689 545.439 346.689 547.544C346.689 549.648 345.819 551.579 344.427 552.971C343.034 554.364 341.104 555.234 338.999 555.234H287.556C285.436 555.234 283.521 554.364 282.129 552.971C280.737 551.579 279.866 549.648 279.866 547.544C279.866 545.439 280.737 543.509 282.129 542.116C283.521 540.724 285.452 539.854 287.556 539.854Z" fill="#17A9E1"/>
<path fill-rule="evenodd" clip-rule="evenodd" d="M402.628 540.76H336.833C333.099 540.76 330.045 543.814 330.045 547.548C330.045 551.283 333.099 554.337 336.833 554.337H402.628V540.744V540.76Z" fill="white"/>
<path fill-rule="evenodd" clip-rule="evenodd" d="M402.628 539.854C403.118 539.854 403.529 540.249 403.529 540.755C403.529 541.262 403.134 541.657 402.628 541.657H336.833C335.219 541.657 333.731 542.322 332.671 543.382C331.595 544.458 330.931 545.93 330.931 547.544C330.931 549.158 331.595 550.645 332.671 551.705C333.747 552.766 335.219 553.43 336.833 553.43H402.628C403.118 553.43 403.529 553.826 403.529 554.332C403.529 554.838 403.134 555.234 402.628 555.234H336.833C334.712 555.234 332.798 554.364 331.405 552.971C330.013 551.579 329.143 549.648 329.143 547.544C329.143 545.439 330.013 543.509 331.405 542.116C332.798 540.724 334.728 539.854 336.833 539.854H402.628Z" fill="#1BB9F5"/>
<path fill-rule="evenodd" clip-rule="evenodd" d="M289.913 547.544C289.913 545.423 290.783 543.509 292.176 542.116C293.568 540.724 295.499 539.854 297.603 539.854H290.91C288.79 539.854 286.875 540.724 285.482 542.116C284.09 543.509 283.22 545.439 283.22 547.544C283.22 549.648 284.09 551.579 285.482 552.971C286.875 554.364 288.805 555.234 290.91 555.234H297.603C295.483 555.234 293.568 554.364 292.176 552.971C290.783 551.579 289.913 549.648 289.913 547.544Z" fill="#1BB9F5"/>
<path fill-rule="evenodd" clip-rule="evenodd" d="M299.614 547.544C299.614 545.423 300.485 543.509 301.877 542.116C303.27 540.724 305.2 539.854 307.305 539.854H300.611C298.491 539.854 296.576 540.724 295.184 542.116C293.791 543.509 292.921 545.439 292.921 547.544C292.921 549.648 293.791 551.579 295.184 552.971C296.576 554.364 298.507 555.234 300.611 555.234H307.305C305.184 555.234 303.27 554.364 301.877 552.971C300.485 551.579 299.614 549.648 299.614 547.544Z" fill="#1BB9F5"/>
<path d="M498.946 558.758H751.634C756.065 558.758 759.656 562.35 759.656 566.78C759.656 571.211 756.065 574.803 751.634 574.803H498.946C494.516 574.803 490.924 571.211 490.924 566.78C490.924 562.35 494.516 558.758 498.946 558.758Z" fill="#A8A6B5"/>
<path fill-rule="evenodd" clip-rule="evenodd" d="M752.123 574.8H499.436C496.572 574.8 493.961 573.281 492.41 571.018C493.692 568.755 496.129 567.236 498.993 567.236H751.68C754.544 567.236 757.155 568.755 758.706 571.018C757.424 573.281 754.987 574.8 752.123 574.8Z" fill="#96929F"/>
<path fill-rule="evenodd" clip-rule="evenodd" d="M757.394 558.756H555.279C549.504 558.756 545.073 554.025 545.437 548.25L553.713 417.341C554.077 411.565 559.093 406.85 564.868 406.85H766.984C772.759 406.85 777.19 411.581 776.826 417.341L768.55 548.25C768.186 554.025 763.17 558.756 757.394 558.756Z" fill="#96929F"/>
<path fill-rule="evenodd" clip-rule="evenodd" d="M757.395 558.756H561.245C555.469 558.756 551.039 554.025 551.403 548.25L559.679 417.341C560.042 411.565 565.059 406.85 570.834 406.85H766.984C772.759 406.85 777.19 411.581 776.81 417.341L768.535 548.25C768.171 554.025 763.155 558.756 757.379 558.756H757.395Z" fill="white"/>
<path fill-rule="evenodd" clip-rule="evenodd" d="M746.713 558.761H726.522L559.203 425.019L559.694 417.345C559.836 415.05 560.722 412.93 562.083 411.189L746.713 558.761ZM584.742 406.854L767.268 552.732C767.996 551.371 768.455 549.852 768.55 548.254L769.831 527.889L618.368 406.838H584.727L584.742 406.854Z" fill="#F0EEF0"/>
<path d="M498.946 558.758H544.867C549.297 558.758 552.889 562.35 552.889 566.78C552.889 571.211 549.297 574.803 544.867 574.803H498.946C494.516 574.803 490.924 571.211 490.924 566.78C490.924 562.35 494.516 558.758 498.946 558.758Z" fill="white"/>
<path fill-rule="evenodd" clip-rule="evenodd" d="M755.416 562.765H545.152C542.952 562.765 541.038 560.961 540.895 558.746C540.769 556.53 542.462 554.727 544.661 554.727H754.926C757.125 554.727 759.04 556.53 759.182 558.746C759.309 560.961 757.616 562.765 755.416 562.765Z" fill="#D2CED6"/>
<path fill-rule="evenodd" clip-rule="evenodd" d="M516.115 396.549C514.564 388.828 514.96 384.524 516.431 377.197L483.296 374.396L529.422 354.19C529.422 354.19 539.217 342.179 543.822 330.391C548.442 318.586 535.926 288.601 531.226 281.164C526.527 273.726 516.763 274.834 510.323 278.869C510.323 278.869 500.671 264.311 489.135 263.346C477.6 262.365 440.952 265.751 430.303 292.652C419.654 319.552 436.791 346.436 419.638 374.112C419.638 374.112 418.135 377.609 420.35 380.568C422.581 383.511 449.608 415.031 511.241 402.325C511.241 402.325 516.146 401.186 516.13 396.581L516.115 396.549Z" fill="#0E1632"/>
<path fill-rule="evenodd" clip-rule="evenodd" d="M472.679 404.791C476.081 367.732 478.47 335.531 478.47 335.531L475.322 325.087C475.322 325.087 446.95 348.016 426.806 323.9C427.756 340.452 430.129 357.114 419.622 374.077C419.622 374.077 418.119 377.574 420.334 380.533L420.429 380.66L420.461 380.707L420.54 380.802L420.619 380.897L420.667 380.96L420.809 381.134L420.983 381.356L421.031 381.419L421.173 381.593L421.3 381.736L421.395 381.846L421.6 382.084L421.632 382.116L421.885 382.4L421.948 382.464L422.17 382.701L422.328 382.875L422.471 383.033L422.581 383.144L422.803 383.366L423.151 383.714L423.388 383.951L423.578 384.125C429.48 389.822 443.2 400.376 466.349 404.031H466.413C468.422 404.364 470.495 404.617 472.647 404.822H472.663L472.679 404.791Z" fill="#010518"/>
<path fill-rule="evenodd" clip-rule="evenodd" d="M516.115 396.548C514.01 386.073 515.482 381.848 518.425 367.844L465.701 359.553L442.661 364.015C442.661 364.015 440.652 376.927 434.623 392.545C448.659 401.232 473.438 410.078 511.241 402.292C511.241 402.292 516.146 401.153 516.131 396.548H516.115Z" fill="#010518"/>
<path fill-rule="evenodd" clip-rule="evenodd" d="M446.159 398.828C460.748 403.401 480.702 408.876 497.902 417.326C499.089 417.911 496.668 422.484 497.775 423.101C499.453 424.035 502.253 426.203 505.323 429.241C513.362 437.184 529.707 499.355 528.236 505.542C525.894 515.511 505.244 542.886 505.244 542.886C501.146 550.814 496.051 562.349 491.066 574.818H388.497C395.65 551.589 398.308 535.86 398.498 521.682C403.973 473.484 378.054 462.993 378.054 462.993L404.891 399.825C415.334 396.122 436.158 397.514 436.158 397.514C441.665 397.514 441.237 397.277 446.174 398.828H446.159Z" fill="#E74D91"/>
<path fill-rule="evenodd" clip-rule="evenodd" d="M491.049 574.8H476.571C479.261 567.584 491.824 533.437 494.499 526.142C482.299 524.022 465.51 521.11 462.551 520.398C459.592 519.686 448.246 526.174 448.246 526.174L449.512 518.8L437.344 531.063L458.152 492.185C458.152 492.185 492.125 499.859 499.341 501.172C506.556 502.486 502.157 501.489 503.502 501.378C507.522 490.096 500.939 486.931 501.73 481.472C502.505 476.013 502.743 423.02 502.743 423.02C507.126 425.298 509.12 430.235 511.604 438.036C513.234 443.163 521.905 476.899 525.497 496.837C526.352 501.584 527.032 505.128 527.459 507.961C519.405 528.484 501.35 549.134 491.081 574.784L491.049 574.8Z" fill="#B92F6D"/>
<path fill-rule="evenodd" clip-rule="evenodd" d="M471.475 340.592L466.332 356.02C466.332 356.02 458.563 392.43 456.774 397.146C456.157 398.791 454.1 399.282 450.936 399.203C455.477 405.706 464.307 415.643 477.06 418.064C485.21 419.615 490.906 418.08 494.767 415.802C492.045 414.362 489.434 412.653 489.45 411.244C489.561 398.823 491.697 376.955 498.422 372.904C506.128 368.268 471.459 340.576 471.459 340.576L471.475 340.592Z" fill="#E8685B"/>
<path fill-rule="evenodd" clip-rule="evenodd" d="M453.5 399.111C451.664 399.348 449.18 399.174 446.142 398.826C449.275 403.352 454.354 408.431 462.472 413.59C482.583 426.343 492.283 419.397 495.337 416.121C493.454 415.156 491.54 414.049 490.432 412.972C471.649 422.15 453.484 399.127 453.484 399.127L453.5 399.111Z" fill="white"/>
<path fill-rule="evenodd" clip-rule="evenodd" d="M497.08 416.926C497.08 416.926 505.102 497.674 504.121 504.478C503.14 511.298 490.386 544.892 479.215 574.798H498.441C502.238 567.488 505.134 561.775 505.672 560.399C506.02 559.513 507.349 556.933 509.169 553.547C512.46 547.471 517.366 538.799 521.053 532.723C532.841 513.371 532.809 517.897 528.727 495.221C525.135 475.268 514.122 438.367 512.492 433.224C510.008 425.423 499.168 416.356 497.08 416.926Z" fill="#1BB9F5"/>
<path fill-rule="evenodd" clip-rule="evenodd" d="M495.939 529.304C493.296 536.693 490.227 545.096 487.03 553.735C492.869 554.242 497.537 554.827 499.199 555.476C505.038 557.771 505.655 560.397 505.655 560.397C506.003 559.511 507.332 556.932 509.152 553.546C512.443 547.469 517.348 538.798 521.035 532.722C524.58 526.899 527.048 523.243 528.678 520.348C526.415 522.341 522.792 525.348 521.035 525.87C518.899 526.519 502.522 528.513 495.939 529.304Z" fill="#1BB9F5"/>
<path fill-rule="evenodd" clip-rule="evenodd" d="M443.134 397.106C443.134 397.106 457.85 468.423 459.875 489.152C461.9 509.881 455.413 524.724 448.118 540.294C445.665 545.548 437.769 558.95 428.07 574.805H382.751L387.593 462.774L374.602 459.768C375.377 454.135 376.01 449.482 376.437 446.207L402.024 400.967C402.024 400.967 411.676 393.134 443.15 397.106H443.134Z" fill="#17A9E1"/>
<path fill-rule="evenodd" clip-rule="evenodd" d="M415.57 431.421C408.339 460.457 413.355 472.499 413.355 472.499L417.232 454.428C417.232 454.428 420.903 481.107 424.969 484.509C426.995 486.202 451.094 490.822 460.114 492.5C460.731 503.814 458.8 513.387 455.683 522.375C449.195 523.039 410.222 517.549 408.355 530.144C407.421 536.426 407.642 516.219 407.642 516.219L405.332 574.798H382.736L387.578 462.767L374.587 459.761L374.619 459.492L374.65 459.239L374.682 458.97L374.714 458.716L374.745 458.463L374.777 458.21L374.808 457.957L374.84 457.704L374.872 457.45L374.903 457.197L374.935 456.944L374.967 456.691L374.998 456.438L375.03 456.2L375.062 455.963L375.093 455.726L375.125 455.488L375.157 455.251L375.188 455.014L375.22 454.776L375.252 454.539L375.283 454.302L375.315 454.08L375.346 453.858L375.378 453.637L375.41 453.415L375.441 453.194L375.473 452.972L375.505 452.751L375.536 452.529L375.568 452.308L375.6 452.086L375.631 451.881L375.663 451.675L375.695 451.469L375.726 451.263L375.758 451.058L375.79 450.852L375.821 450.646L375.853 450.441L375.884 450.251L375.916 450.061L375.948 449.871L375.979 449.681L376.011 449.491L376.043 449.301L376.074 449.111L376.106 448.922L376.138 448.732L376.169 448.542L376.201 448.368L376.233 448.194L376.264 448.02L376.28 447.846V447.671H376.296V447.497H376.312V447.323H376.328V447.165H376.343V447.007H376.359V446.849H376.375V446.69H376.391V446.532H376.407V446.374H376.422V446.216L390.3 421.721L415.602 431.436L415.57 431.421Z" fill="#17A9E1"/>
<path fill-rule="evenodd" clip-rule="evenodd" d="M379.729 432.613C371.438 455.288 369.175 533.046 376.011 574.804H412.421C397.531 491.936 428.814 432.661 421.931 411.663C410.934 378.038 385.189 417.723 379.729 432.629V432.613Z" fill="#1BB9F5"/>
<path fill-rule="evenodd" clip-rule="evenodd" d="M525.355 355.96L529.406 354.188C529.406 354.188 536.273 345.77 541.21 336.102C540.245 337.937 533.852 349.124 524.484 342.289C514.31 334.851 513.898 346.624 513.898 346.624C513.898 346.624 520.054 353.618 523.63 355.248C524.089 355.454 524.674 355.707 525.339 355.96H525.355Z" fill="#010518"/>
<path fill-rule="evenodd" clip-rule="evenodd" d="M521.036 349.208C514.659 348.543 508.962 353.18 508.298 359.557C507.633 365.933 512.27 371.63 518.646 372.295C525.023 372.959 530.72 368.323 531.384 361.946C532.049 355.569 527.413 349.873 521.036 349.208Z" fill="#E8685B"/>
<path fill-rule="evenodd" clip-rule="evenodd" d="M440.192 340.959C439.907 340.959 439.623 340.991 439.338 341.038C434.084 341.687 429.78 345.88 429.226 351.355C428.562 357.732 433.198 363.429 439.575 364.093C445.952 364.758 451.649 360.121 452.313 353.745C452.693 350.042 451.3 346.561 448.8 344.171C448.8 347.605 447.914 351.782 443.515 351.846L444.211 345.184C444.496 342.494 442.075 341.038 440.224 340.959H440.192Z" fill="#E8685B"/>
<path fill-rule="evenodd" clip-rule="evenodd" d="M490.178 286.998C468.42 284.751 448.799 300.701 446.536 322.443L442.818 358.379C440.571 380.12 456.521 399.757 478.262 402.02C500.004 404.267 519.641 388.317 521.904 366.575L525.623 330.64C527.87 308.898 511.919 289.261 490.178 286.998Z" fill="#F4AD85"/>
<path fill-rule="evenodd" clip-rule="evenodd" d="M445.888 328.751L442.818 358.389C440.935 376.602 451.806 393.328 468.152 399.61C445.017 390.02 456.869 349.813 456.869 349.813C461.553 349.021 468.943 340.287 473.247 335.192C477.535 330.112 480.874 324.985 488.279 325.128C495.685 325.27 511.366 329.163 511.366 329.163C514.641 336.901 520.67 342.534 524.104 345.303L525.623 330.634C526.082 326.251 525.797 321.963 524.863 317.865C523.898 317.295 522.917 316.725 521.873 316.14C490.036 298.243 463.009 312.722 445.872 328.736L445.888 328.751Z" fill="#ED9072"/>
<path fill-rule="evenodd" clip-rule="evenodd" d="M519.704 319.4L513.28 322.137C513.28 322.137 507.299 318.45 500.32 320.048C500.32 320.048 486.206 314.858 478.721 317.754C471.237 320.65 475.636 310.254 477.012 309.811C478.389 309.352 492.551 308.45 498.738 309.652C504.925 310.839 514.229 312.295 514.229 312.295L519.72 319.416L519.704 319.4Z" fill="#010518"/>
<path fill-rule="evenodd" clip-rule="evenodd" d="M444.527 339.047L448.341 339.712C448.341 339.712 450.983 351.753 443.515 351.848L444.211 345.187C444.258 344.728 444.211 344.301 444.132 343.905L444.543 339.031L444.527 339.047Z" fill="#010518"/>
<path fill-rule="evenodd" clip-rule="evenodd" d="M500.322 320.039C494.515 312.19 485.021 310.592 477.631 321.605C470.89 331.669 460.874 349.075 444.006 347.651L443.927 347.335H443.974L444.924 336.1C444.924 336.1 443.5 336.464 441.775 336.875C440.873 331.005 440.256 323.568 441.189 316.748C443.136 302.633 462.789 282.015 484.942 281.224C507.095 280.432 523.124 293.582 526.289 301.082C529.469 308.583 532.602 325.609 532.602 325.609L528.71 331.179L524.517 342.255C514.326 332.35 515.37 322.966 510.94 318.251C508.535 315.687 504.958 315.687 500.322 320.023V320.039Z" fill="#0E1632"/>
<path fill-rule="evenodd" clip-rule="evenodd" d="M475.322 325.09C468.644 335.201 459.039 348.92 444.007 347.655L443.928 347.338H443.975L444.925 336.103C444.925 336.103 443.5 336.467 441.776 336.879C441.633 335.913 441.491 334.901 441.364 333.84C458.343 338.762 475.274 325.122 475.338 325.074L475.322 325.09Z" fill="#010518"/>
<path fill-rule="evenodd" clip-rule="evenodd" d="M492.792 414.688C492.792 414.688 503.141 499.55 502.935 502.303C502.73 505.057 499.976 518.333 499.976 518.333C499.976 518.333 504.976 509.962 506.195 503.016C507.413 496.069 510.689 449.136 510.689 449.136L505.182 446.177L510.277 445.876L501.859 419.514C501.859 419.514 500.894 417.552 499.565 416.793C498.236 416.033 493.409 413.596 493.33 413.565C493.251 413.533 492.049 413.391 491.447 413.786C491.447 413.786 492.444 414.466 492.808 414.688H492.792Z" fill="#484E6A"/>
<path fill-rule="evenodd" clip-rule="evenodd" d="M443.136 397.104C443.136 397.104 457.852 468.421 459.877 489.15C460.7 497.648 460.099 505.148 458.596 512.126C461.301 490.923 431.474 441.031 431.474 441.031L439.227 437.36L428.815 432.66C428.815 432.66 433.61 405.823 433.911 401.329C434.211 396.962 431.901 396.155 431.759 396.107C435.177 396.266 438.958 396.582 443.12 397.104H443.136Z" fill="#484E6A"/>
<path fill-rule="evenodd" clip-rule="evenodd" d="M148.61 606.311H161.491C166.633 606.311 170.827 602.102 170.827 596.975C170.827 591.832 166.617 587.639 161.491 587.639H127.438C123.372 587.639 120.017 584.3 120.017 580.234C120.017 576.151 123.356 572.812 127.438 572.812H1026.88C1030.97 572.812 1034.29 576.151 1034.29 580.234C1034.29 584.316 1030.95 587.639 1026.88 587.639H980.189C975.047 587.639 970.853 591.848 970.853 596.975C970.853 602.118 975.062 606.311 980.189 606.311H991.139C999.288 606.311 1005.97 612.989 1005.97 621.138C1005.97 629.287 999.288 635.965 991.139 635.965H148.61C140.461 635.965 133.783 629.287 133.783 621.138C133.783 612.989 140.461 606.311 148.61 606.311ZM107.421 572.812C111.52 572.812 114.843 576.135 114.843 580.234C114.843 584.332 111.52 587.639 107.421 587.639C103.323 587.639 100 584.316 100 580.234C100 576.151 103.323 572.812 107.421 572.812Z" fill="#17A9E1"/>
<path fill-rule="evenodd" clip-rule="evenodd" d="M608.998 184.244H541.431C538.155 184.244 535.165 185.589 533.013 187.741C530.845 189.909 529.516 192.884 529.516 196.159V255.007C529.516 255.53 529.674 256.02 529.943 256.432C530.212 256.843 530.607 257.175 531.098 257.381C531.589 257.587 532.095 257.634 532.57 257.539C533.06 257.444 533.519 257.207 533.883 256.827L551.416 239.295H608.982C612.257 239.295 615.248 237.95 617.4 235.798C619.568 233.63 620.897 230.655 620.897 227.379V196.159C620.897 192.884 619.552 189.893 617.4 187.741C615.248 185.573 612.257 184.244 608.982 184.244H608.998ZM541.431 187.029H608.998C611.514 187.029 613.792 188.058 615.454 189.719C617.115 191.381 618.144 193.659 618.144 196.175V227.395C618.144 229.911 617.115 232.19 615.454 233.851C613.792 235.513 611.514 236.541 608.998 236.541H550.276L532.301 254.517V196.175C532.301 193.659 533.329 191.381 534.991 189.719C536.652 188.058 538.931 187.029 541.447 187.029H541.431Z" fill="#1A293D"/>
<path fill-rule="evenodd" clip-rule="evenodd" d="M609.55 195.875C609.978 195.875 610.31 195.526 610.31 195.115C610.31 194.704 609.978 194.355 609.55 194.355H540.86C540.433 194.355 540.101 194.704 540.101 195.115C540.101 195.526 540.449 195.875 540.86 195.875H609.55Z" fill="#1A293D"/>
<path fill-rule="evenodd" clip-rule="evenodd" d="M609.55 203.318C609.978 203.318 610.31 202.97 610.31 202.558C610.31 202.147 609.978 201.799 609.55 201.799H602.272C601.86 201.799 601.512 202.147 601.512 202.558C601.512 202.97 601.86 203.318 602.272 203.318H609.55ZM592.588 203.318C593.015 203.318 593.347 202.97 593.347 202.558C593.347 202.147 593.015 201.799 592.588 201.799H540.86C540.433 201.799 540.101 202.147 540.101 202.558C540.101 202.97 540.449 203.318 540.86 203.318H592.588Z" fill="#1A293D"/>
<path fill-rule="evenodd" clip-rule="evenodd" d="M609.55 210.734C609.978 210.734 610.31 210.386 610.31 209.974C610.31 209.563 609.978 209.215 609.55 209.215H540.86C540.433 209.215 540.101 209.563 540.101 209.974C540.101 210.386 540.449 210.734 540.86 210.734H609.55Z" fill="#1A293D"/>
<path fill-rule="evenodd" clip-rule="evenodd" d="M590.451 220.796C590.879 220.796 591.211 220.448 591.211 220.037C591.211 219.625 590.879 219.277 590.451 219.277H540.86C540.433 219.277 540.101 219.61 540.101 220.037C540.101 220.464 540.449 220.796 540.86 220.796H590.451Z" fill="#1A293D"/>
<path fill-rule="evenodd" clip-rule="evenodd" d="M568.314 228.845C568.741 228.845 569.074 228.497 569.074 228.086C569.074 227.674 568.726 227.326 568.314 227.326H540.86C540.433 227.326 540.101 227.674 540.101 228.086C540.101 228.497 540.449 228.845 540.86 228.845H568.314Z" fill="#1A293D"/>
<path fill-rule="evenodd" clip-rule="evenodd" d="M584.043 228.845C584.47 228.845 584.802 228.497 584.802 228.086C584.802 227.674 584.454 227.326 584.043 227.326H574.232C573.805 227.326 573.473 227.674 573.473 228.086C573.473 228.497 573.821 228.845 574.232 228.845H584.043Z" fill="#1A293D"/>
</svg>
