<svg width="1200" height="873" viewBox="0 0 1200 873" fill="none" xmlns="http://www.w3.org/2000/svg">
<g clip-path="url(#clip0_306_1130)">
<rect width="1200" height="873" fill="white"/>
<g style="mix-blend-mode:multiply">
<path d="M1062.37 641.703H435.192C425.145 641.703 417 649.848 417 659.895V868.087C417 878.134 425.145 886.279 435.192 886.279H1062.37C1072.41 886.279 1080.56 878.134 1080.56 868.087V659.895C1080.56 649.848 1072.41 641.703 1062.37 641.703Z" fill="#FAFAFA"/>
</g>
<path d="M453.582 623.95H1080.76C1090.28 623.95 1098 631.669 1098 641.192V849.384C1098 858.906 1090.28 866.625 1080.76 866.625H453.582C444.06 866.625 436.341 858.906 436.341 849.384V641.192C436.341 631.67 444.06 623.95 453.582 623.95Z" fill="white" stroke="#C9C9C9" stroke-width="1.90079"/>
<path d="M564.752 836.617C615.178 836.617 656.056 795.738 656.056 745.312C656.056 694.886 615.178 654.008 564.752 654.008C514.326 654.008 473.447 694.886 473.447 745.312C473.447 795.738 514.326 836.617 564.752 836.617Z" fill="#FFFFF8"/>
<path d="M882.497 680.469H696.712C691.705 680.469 687.646 684.528 687.646 689.536V710.673C687.646 715.68 691.705 719.739 696.712 719.739H882.497C887.505 719.739 891.564 715.68 891.564 710.673V689.536C891.564 684.528 887.505 680.469 882.497 680.469Z" fill="#29B7EE"/>
<path d="M1040.22 752.654H690.648C688.99 752.654 687.646 753.999 687.646 755.657V757.563C687.646 759.222 688.99 760.566 690.648 760.566H1040.22C1041.87 760.566 1043.22 759.222 1043.22 757.563V755.657C1043.22 753.999 1041.87 752.654 1040.22 752.654Z" fill="#1BB9F5"/>
<path d="M1040.22 785.459H690.648C688.99 785.459 687.646 786.804 687.646 788.462V790.368C687.646 792.026 688.99 793.371 690.648 793.371H1040.22C1041.87 793.371 1043.22 792.026 1043.22 790.368V788.462C1043.22 786.804 1041.87 785.459 1040.22 785.459Z" fill="#1BB9F5"/>
<path d="M1040.22 818.203H690.648C688.99 818.203 687.646 819.548 687.646 821.206V823.112C687.646 824.771 688.99 826.115 690.648 826.115H1040.22C1041.87 826.115 1043.22 824.771 1043.22 823.112V821.206C1043.22 819.548 1041.87 818.203 1040.22 818.203Z" fill="#1BB9F5"/>
<path d="M564.752 836.617C615.178 836.617 656.056 795.738 656.056 745.312C656.056 694.886 615.178 654.008 564.752 654.008C514.326 654.008 473.447 694.886 473.447 745.312C473.447 795.738 514.326 836.617 564.752 836.617Z" fill="#E5F7FF"/>
<mask id="mask0_306_1130" style="mask-type:luminance" maskUnits="userSpaceOnUse" x="473" y="654" width="184" height="183">
<path d="M564.755 836.615C615.181 836.615 656.059 795.736 656.059 745.31C656.059 694.884 615.181 654.006 564.755 654.006C514.329 654.006 473.45 694.884 473.45 745.31C473.45 795.736 514.329 836.615 564.755 836.615Z" fill="white"/>
</mask>
<g mask="url(#mask0_306_1130)">
<path d="M570.111 684.262C589.862 684.262 605.859 700.259 605.859 720.01V812.527H534.421V720.01C534.421 700.259 550.418 684.262 570.169 684.262H570.111Z" fill="#001C45"/>
<path d="M554.749 815.708H523.506V728.504C523.506 713.085 536.038 700.553 551.457 700.553H554.691V815.708H554.749Z" fill="#001C45"/>
<path d="M532.924 740.735C532.924 740.735 526.686 737.789 522.99 741.89C519.294 746.048 521.085 755.461 527.437 758.176C533.501 760.774 536.273 757.656 536.273 757.656L532.866 740.735H532.924Z" fill="#FF9A8D"/>
<path d="M526.398 743.571C528.015 743.109 530.383 743.283 531.596 744.438C532.058 744.842 531.191 745.65 530.729 745.419C528.131 744.264 524.839 743.976 523.337 746.979C523.28 747.152 523.164 746.979 523.164 746.863C523.626 745.188 524.608 744.033 526.34 743.514L526.398 743.571Z" fill="#BA5964"/>
<path d="M527.611 743.91C527.9 743.795 528.535 744.546 528.477 744.777C528.015 744.95 527.322 745.412 526.975 745.989C526.34 746.971 526.167 747.838 526.167 748.993C526.225 751.649 527.611 753.67 530.21 754.421C530.21 754.421 530.325 754.594 530.21 754.594C527.9 755.056 525.474 752.573 525.07 750.494C524.608 748.242 524.954 745.066 527.611 743.968V743.91Z" fill="#BA5964"/>
<path d="M596.682 740.447C596.682 740.447 602.919 737.732 606.615 741.89C610.311 746.048 608.521 755.462 602.168 758.176C596.104 760.775 593.332 757.656 593.332 757.656L596.739 740.447H596.682Z" fill="#FF9A8D"/>
<path d="M603.206 743.569C601.589 743.107 599.222 743.281 597.951 744.436C597.489 744.84 598.355 745.649 598.817 745.418C601.416 744.263 604.708 743.974 606.209 746.977C606.267 747.15 606.383 746.977 606.383 746.861C605.921 745.187 604.939 744.031 603.206 743.512V743.569Z" fill="#BA5964"/>
<path d="M601.936 743.908C601.647 743.793 601.012 744.544 601.07 744.775C601.532 744.948 602.225 745.41 602.572 745.987C603.207 746.969 603.38 747.836 603.38 748.991C603.322 751.647 601.936 753.668 599.337 754.419C599.337 754.419 599.222 754.592 599.337 754.592C601.648 755.054 604.073 752.571 604.477 750.492C604.939 748.24 604.593 745.064 601.936 743.966V743.908Z" fill="#BA5964"/>
<path d="M501.39 836.202C501.39 822.169 503.642 813.795 510.976 811.369C514.326 810.272 534.423 804.035 540.718 802.129C547.071 800.223 548.746 796.47 548.746 793.236V778.855H580.855V793.236C580.855 796.47 582.588 800.223 588.882 802.129C595.177 804.035 615.275 810.272 618.624 811.369C625.959 813.737 628.211 822.169 628.211 836.202H501.332H501.39Z" fill="#FF9A8D"/>
<path d="M548.804 783.072C548.804 783.072 551.98 792.312 564.858 792.312C577.737 792.312 580.913 783.13 580.913 783.072V778.914H548.804V783.072Z" fill="#BA5964"/>
<path d="M579.816 704.708C575.196 702.051 570.056 700.492 564.801 700.492C559.546 700.492 554.348 702.051 549.786 704.708C538.986 710.887 532.749 722.553 532.749 734.796V734.912C532.749 738.377 532.98 741.842 533.327 745.249L533.904 750.1C534.366 753.912 535.059 757.666 536.272 761.304C540.892 775.684 553.713 785.328 564.801 785.328C575.889 785.328 588.71 775.684 593.33 761.304C594.485 757.666 595.236 753.912 595.698 750.1L596.275 745.249C596.679 741.784 596.91 738.261 596.853 734.796C596.853 722.553 590.616 710.887 579.816 704.708Z" fill="#FF9A8D"/>
<path d="M564.802 703.487C564.802 703.487 571.443 726.01 596.911 731.207C596.911 731.207 599.164 716.596 588.249 707.703C577.334 698.809 564.802 699.387 564.802 699.387V703.545V703.487Z" fill="#001C45"/>
<path d="M564.802 703.606C564.802 703.606 558.16 726.129 532.692 731.327C532.692 731.327 530.44 716.716 541.355 707.822C552.27 698.928 564.802 699.506 564.802 699.506V703.664V703.606Z" fill="#001C45"/>
<path d="M618.683 811.418C615.333 810.321 595.236 804.084 588.941 802.178C587.266 801.658 585.938 801.081 584.898 800.33C585.072 801.023 585.187 801.774 585.187 802.525C585.187 808.184 576.062 812.747 564.859 812.747C553.655 812.747 544.53 808.184 544.53 802.525C544.53 801.774 544.588 801.081 544.761 800.388C543.722 801.081 542.394 801.658 540.834 802.12C534.482 804.026 514.442 810.263 511.092 811.361C503.758 813.728 501.506 822.16 501.506 836.194H628.385C628.385 822.16 626.133 813.786 618.798 811.361L618.683 811.418Z" fill="#FABA50"/>
<path d="M517.676 809.285C514.5 810.267 511.959 811.075 510.977 811.422C503.643 813.79 501.391 822.221 501.391 836.255H517.85V809.343H517.676V809.285Z" fill="#3ED9C7"/>
<path d="M611.984 809.285C615.16 810.267 617.701 811.075 618.683 811.422C626.017 813.79 628.27 822.221 628.27 836.255H611.811V809.343H611.984V809.285Z" fill="#3ED9C7"/>
<path d="M564.8 815.063C577.448 815.063 587.381 809.576 587.381 802.589C587.381 802.589 587.381 802.184 587.381 801.607C585.302 800.798 583.8 799.701 582.819 798.488C582.876 799.759 582.934 801.78 582.934 802.531C582.934 806.342 575.484 810.558 564.8 810.558C554.116 810.558 546.666 806.342 546.666 802.531C546.666 801.78 546.667 799.874 546.782 798.604C545.743 799.759 544.299 800.798 542.22 801.607C542.22 802.126 542.22 802.531 542.22 802.531C542.22 809.519 552.153 815.005 564.8 815.005V815.063Z" fill="#228C7E"/>
<path d="M523.972 698.59C523.972 698.59 536.215 698.59 539.507 705.462" stroke="#001C45" stroke-width="2.14155" stroke-miterlimit="10" stroke-linecap="round"/>
<path d="M525.876 686.918C525.876 686.918 540.025 692.173 539.563 706.611" stroke="#001C45" stroke-width="2.14155" stroke-miterlimit="10" stroke-linecap="round"/>
</g>
<g style="mix-blend-mode:multiply">
<path d="M912.368 326.703H285.192C275.145 326.703 267 334.848 267 344.895V553.087C267 563.134 275.145 571.279 285.192 571.279H912.368C922.415 571.279 930.56 563.134 930.56 553.087V344.895C930.56 334.848 922.415 326.703 912.368 326.703Z" fill="#FAFAFA"/>
</g>
<path d="M303.582 308.95H930.759C940.281 308.95 948 316.669 948 326.192V534.384C948 543.906 940.281 551.625 930.759 551.625H303.582C294.06 551.625 286.341 543.906 286.341 534.384V326.192C286.341 316.67 294.06 308.95 303.582 308.95Z" fill="white" stroke="#C9C9C9" stroke-width="1.90079"/>
<path d="M414.752 521.617C465.178 521.617 506.056 480.738 506.056 430.312C506.056 379.886 465.178 339.008 414.752 339.008C364.326 339.008 323.447 379.886 323.447 430.312C323.447 480.738 364.326 521.617 414.752 521.617Z" fill="#FFFFF8"/>
<path d="M732.497 365.469H546.712C541.705 365.469 537.646 369.528 537.646 374.536V395.673C537.646 400.68 541.705 404.739 546.712 404.739H732.497C737.505 404.739 741.564 400.68 741.564 395.673V374.536C741.564 369.528 737.505 365.469 732.497 365.469Z" fill="#29B7EE"/>
<path d="M890.216 437.654H540.648C538.99 437.654 537.646 438.999 537.646 440.657V442.563C537.646 444.222 538.99 445.566 540.648 445.566H890.216C891.874 445.566 893.219 444.222 893.219 442.563V440.657C893.219 438.999 891.874 437.654 890.216 437.654Z" fill="#1BB9F5"/>
<path d="M890.216 470.459H540.648C538.99 470.459 537.646 471.804 537.646 473.462V475.368C537.646 477.026 538.99 478.371 540.648 478.371H890.216C891.874 478.371 893.219 477.026 893.219 475.368V473.462C893.219 471.804 891.874 470.459 890.216 470.459Z" fill="#1BB9F5"/>
<path d="M890.216 503.203H540.648C538.99 503.203 537.646 504.548 537.646 506.206V508.112C537.646 509.771 538.99 511.115 540.648 511.115H890.216C891.874 511.115 893.219 509.771 893.219 508.112V506.206C893.219 504.548 891.874 503.203 890.216 503.203Z" fill="#1BB9F5"/>
<path d="M414.752 521.617C465.178 521.617 506.056 480.738 506.056 430.312C506.056 379.886 465.178 339.008 414.752 339.008C364.326 339.008 323.447 379.886 323.447 430.312C323.447 480.738 364.326 521.617 414.752 521.617Z" fill="#E5F7FF"/>
<mask id="mask1_306_1130" style="mask-type:luminance" maskUnits="userSpaceOnUse" x="323" y="339" width="184" height="183">
<path d="M414.755 521.615C465.181 521.615 506.059 480.736 506.059 430.31C506.059 379.884 465.181 339.006 414.755 339.006C364.329 339.006 323.45 379.884 323.45 430.31C323.45 480.736 364.329 521.615 414.755 521.615Z" fill="white"/>
</mask>
<g mask="url(#mask1_306_1130)">
<path d="M382.867 425.34C382.867 425.34 376.687 423.146 372.991 427.246C369.295 431.347 371.086 440.818 377.438 443.532C383.502 446.131 386.274 443.012 386.274 443.012L382.809 425.34H382.867Z" fill="#FF9A8D"/>
<path d="M376.398 428.985C378.015 428.523 380.383 428.697 381.653 429.852C382.115 430.256 381.249 431.064 380.787 430.833C378.188 429.678 374.896 429.39 373.395 432.393C373.337 432.566 373.222 432.393 373.222 432.277C373.684 430.602 374.665 429.448 376.398 428.928V428.985Z" fill="#BA5964"/>
<path d="M377.668 429.266C377.957 429.15 378.593 429.901 378.535 430.132C378.073 430.305 377.38 430.767 377.033 431.345C376.398 432.327 376.225 433.193 376.225 434.348C376.282 437.004 377.668 439.026 380.267 439.777C380.267 439.777 380.383 439.95 380.267 439.95C377.957 440.412 375.532 437.929 375.127 435.85C374.665 433.597 375.012 430.421 377.668 429.324V429.266Z" fill="#BA5964"/>
<path d="M446.74 425.34C446.74 425.34 452.92 423.146 456.616 427.246C460.312 431.404 458.522 440.818 452.169 443.532C446.105 446.131 443.333 443.012 443.333 443.012L446.798 425.34H446.74Z" fill="#FF9A8D"/>
<path d="M453.207 428.985C451.59 428.523 449.223 428.697 447.952 429.852C447.49 430.256 448.356 431.064 448.818 430.833C451.417 429.678 454.709 429.39 456.21 432.393C456.268 432.566 456.384 432.393 456.384 432.277C455.922 430.602 454.94 429.448 453.207 428.928V428.985Z" fill="#BA5964"/>
<path d="M451.996 429.266C451.707 429.15 451.072 429.901 451.129 430.132C451.592 430.305 452.285 430.767 452.631 431.345C453.266 432.327 453.44 433.193 453.44 434.348C453.382 437.004 451.996 439.026 449.397 439.777C449.397 439.777 449.282 439.95 449.397 439.95C451.707 440.412 454.133 437.929 454.537 435.85C454.999 433.597 454.652 430.421 451.996 429.324V429.266Z" fill="#BA5964"/>
<path d="M339.555 521.62C339.555 507.587 346.196 499.213 353.531 496.787C356.88 495.69 381.367 489.453 387.719 487.547C394.072 485.641 395.747 481.887 395.747 478.653V461.328H433.747V478.653C433.747 481.887 435.479 485.641 441.774 487.547C448.127 489.453 472.613 495.69 475.963 496.787C483.297 499.155 489.938 507.587 489.938 521.62H339.497H339.555Z" fill="#FF9A8D"/>
<path d="M395.805 461.387V467.451C395.805 467.451 402.677 478.25 414.862 478.25C427.048 478.25 433.805 467.566 433.805 467.566V461.444H395.805V461.387Z" fill="#BA5964"/>
<path d="M476.02 496.788C472.671 495.691 448.184 489.453 441.832 487.548C441.081 487.317 440.388 487.086 439.753 486.797C440.388 488.298 440.677 489.858 440.677 491.475C440.677 500.599 429.069 507.992 414.804 507.992C400.54 507.992 388.932 500.599 388.932 491.475C388.932 489.858 389.278 488.298 389.856 486.797C389.221 487.086 388.527 487.317 387.777 487.548C381.424 489.453 356.938 495.691 353.588 496.788C346.254 499.156 339.612 507.587 339.612 521.621H490.054C490.054 507.587 483.412 499.213 476.078 496.788H476.02Z" fill="#3ED9C7"/>
<path d="M429.879 390.122C425.259 387.466 420.119 385.906 414.863 385.906C409.608 385.906 404.179 387.177 399.559 389.833C388.76 396.013 382.812 407.909 382.812 420.095C382.812 423.618 382.985 427.141 383.389 430.606L383.966 435.457C384.428 439.268 385.641 446.603 388.529 453.648C394.246 467.624 407.009 472.186 414.863 472.186C422.717 472.186 435.48 467.624 441.198 453.648C444.085 446.603 445.298 439.268 445.76 435.457L446.338 430.606C446.742 427.141 446.973 423.618 446.915 420.153C446.915 407.909 440.678 396.244 429.879 390.064V390.122Z" fill="#FF9A8D"/>
<path d="M382.752 426.097C382.752 426.097 383.676 425.808 384.6 425C385.351 424.307 387.083 422.517 387.083 415.991C387.083 409.465 388.816 397.626 394.995 393.526C394.995 393.526 395.284 390.407 393.725 389.714C391.588 388.848 386.159 390.003 382.406 393.583C374.32 401.264 377.612 424.884 377.612 424.884C378.998 424.769 381.424 425.115 382.868 426.097H382.752Z" fill="#001C45"/>
<path d="M447.956 425.755C447.956 425.755 446.397 425.582 445.531 424.947C444.665 424.253 442.643 422.521 442.643 415.995C442.643 409.469 440.911 397.63 434.731 393.53C434.731 393.53 439.756 388.506 446.917 393.53C454.136 398.612 452.172 424.889 452.172 424.889C450.671 424.831 449.285 425.12 447.956 425.755Z" fill="#001C45"/>
<path d="M447.954 407.038V425.75C449.224 425.114 450.61 424.826 452.112 424.883C456.386 378.798 434.671 368.98 411.571 373.139C394.534 376.199 392.397 391.965 392.397 391.965L394.939 393.525C397.942 393.525 399.443 395.488 401.753 397.278C404.121 399.126 406.546 400.859 409.203 402.303C413.592 404.728 418.501 406.461 423.468 406.345C424.738 406.345 426.124 406.114 426.932 405.19C427.972 403.978 427.683 402.187 427.164 400.686C426.471 398.78 425.547 396.99 424.334 395.43C427.51 398.029 430.629 400.628 436.75 401.263C439.753 401.552 441.659 399.762 440.562 396.585C440.504 396.412 447.954 403.169 447.954 407.038Z" fill="#001C45"/>
<path d="M390.783 391.786C390.783 391.786 391.534 376.655 411.4 370.649C428.379 365.509 446.224 372.44 451.479 377.637C458.583 384.625 452.808 391.324 445.416 389.938C441.835 389.245 390.783 391.786 390.783 391.786Z" fill="#001C45"/>
<path d="M376.865 383.943C376.865 383.943 389.108 383.943 392.4 390.816" stroke="#001C45" stroke-width="2.14155" stroke-miterlimit="10" stroke-linecap="round"/>
<path d="M378.714 372.271C378.714 372.271 392.863 377.527 392.401 391.965" stroke="#001C45" stroke-width="2.14155" stroke-miterlimit="10" stroke-linecap="round"/>
</g>
<g style="mix-blend-mode:multiply">
<path d="M758.368 21.7031H131.192C121.145 21.7031 113 29.8478 113 39.8948V248.087C113 258.134 121.145 266.279 131.192 266.279H758.368C768.415 266.279 776.56 258.134 776.56 248.087V39.8948C776.56 29.8478 768.415 21.7031 758.368 21.7031Z" fill="#FAFAFA"/>
</g>
<path d="M149.582 3.9504H776.759C786.281 3.9504 794 11.6695 794 21.1915V229.384C794 238.906 786.281 246.625 776.759 246.625H149.582C140.06 246.625 132.341 238.906 132.341 229.384V21.1915C132.341 11.6695 140.06 3.9504 149.582 3.9504Z" fill="white" stroke="#C9C9C9" stroke-width="1.90079"/>
<path d="M260.752 216.617C311.178 216.617 352.056 175.738 352.056 125.312C352.056 74.8862 311.178 34.0078 260.752 34.0078C210.326 34.0078 169.447 74.8862 169.447 125.312C169.447 175.738 210.326 216.617 260.752 216.617Z" fill="#FFFFF8"/>
<path d="M578.497 60.4688H392.712C387.705 60.4688 383.646 64.5281 383.646 69.5356V90.6725C383.646 95.68 387.705 99.7395 392.712 99.7395H578.497C583.505 99.7395 587.564 95.68 587.564 90.6725V69.5356C587.564 64.5281 583.505 60.4688 578.497 60.4688Z" fill="#29B7EE"/>
<path d="M736.216 132.654H386.648C384.99 132.654 383.646 133.999 383.646 135.657V137.563C383.646 139.222 384.99 140.566 386.648 140.566H736.216C737.874 140.566 739.219 139.222 739.219 137.563V135.657C739.219 133.999 737.874 132.654 736.216 132.654Z" fill="#1BB9F5"/>
<path d="M736.216 165.459H386.648C384.99 165.459 383.646 166.804 383.646 168.462V170.368C383.646 172.026 384.99 173.371 386.648 173.371H736.216C737.874 173.371 739.219 172.026 739.219 170.368V168.462C739.219 166.804 737.874 165.459 736.216 165.459Z" fill="#1BB9F5"/>
<path d="M736.216 198.203H386.648C384.99 198.203 383.646 199.548 383.646 201.206V203.112C383.646 204.771 384.99 206.115 386.648 206.115H736.216C737.874 206.115 739.219 204.771 739.219 203.112V201.206C739.219 199.548 737.874 198.203 736.216 198.203Z" fill="#1BB9F5"/>
<path d="M260.752 216.617C311.178 216.617 352.056 175.738 352.056 125.312C352.056 74.8862 311.178 34.0078 260.752 34.0078C210.326 34.0078 169.447 74.8862 169.447 125.312C169.447 175.738 210.326 216.617 260.752 216.617Z" fill="#E5F7FF"/>
<mask id="mask2_306_1130" style="mask-type:luminance" maskUnits="userSpaceOnUse" x="169" y="34" width="184" height="183">
<path d="M260.755 216.615C311.181 216.615 352.059 175.736 352.059 125.31C352.059 74.8842 311.181 34.0059 260.755 34.0059C210.329 34.0059 169.45 74.8842 169.45 125.31C169.45 175.736 210.329 216.615 260.755 216.615Z" fill="white"/>
</mask>
<g mask="url(#mask2_306_1130)">
<path d="M293.086 127.501C293.086 127.501 302.38 83.4336 261.223 83.4336C220.067 83.4336 228.288 127.501 228.288 127.501H293.086Z" fill="#001C45"/>
<path d="M239.624 84.6069C238.756 76.7433 245.7 69.5434 255.198 68.5222C264.645 67.5009 273.019 73.0157 273.887 80.8282C274.755 88.6919 267.811 95.8916 258.313 96.9129C248.866 97.9341 240.492 92.4195 239.624 84.6069Z" fill="#001C45"/>
<path d="M232.884 126.879C232.884 126.879 227.471 124.581 224.203 128.258C220.935 131.934 222.518 140.258 228.135 142.657C233.497 144.955 235.948 142.198 235.948 142.198L232.833 126.93L232.884 126.879Z" fill="#BA5964"/>
<path d="M227.217 129.741C228.647 129.333 230.74 129.486 231.812 130.507C232.221 130.865 231.455 131.579 231.047 131.375C228.749 130.354 225.838 130.099 224.511 132.754C224.46 132.907 224.357 132.754 224.357 132.652C224.766 131.171 225.634 130.15 227.166 129.69L227.217 129.741Z" fill="#893A47"/>
<path d="M228.289 129.989C228.544 129.887 229.106 130.551 229.055 130.755C228.646 130.908 228.033 131.317 227.727 131.827C227.165 132.695 227.012 133.461 227.012 134.483C227.063 136.831 228.289 138.619 230.587 139.282C230.587 139.282 230.689 139.436 230.587 139.436C228.544 139.844 226.399 137.648 226.042 135.81C225.633 133.819 225.94 131.01 228.289 130.04V129.989Z" fill="#893A47"/>
<path d="M289.408 126.888C289.408 126.888 294.82 124.59 298.088 128.216C301.356 131.841 299.773 140.215 294.156 142.615C288.795 144.913 286.344 142.156 286.344 142.156L289.408 126.888Z" fill="#BA5964"/>
<path d="M295.128 129.753C293.699 129.344 291.605 129.498 290.482 130.519C290.073 130.876 290.839 131.591 291.248 131.387C293.545 130.366 296.456 130.11 297.784 132.766C297.835 132.919 297.937 132.766 297.937 132.663C297.528 131.183 296.66 130.161 295.128 129.702V129.753Z" fill="#893A47"/>
<path d="M294.003 129.999C293.748 129.897 293.186 130.561 293.237 130.765C293.646 130.918 294.259 131.327 294.565 131.837C295.127 132.705 295.28 133.471 295.28 134.492C295.229 136.841 294.003 138.628 291.706 139.292C291.706 139.292 291.603 139.445 291.706 139.445C293.748 139.854 295.893 137.658 296.25 135.82C296.659 133.829 296.352 131.02 294.003 130.05V129.999Z" fill="#893A47"/>
<path d="M291.757 185.663L277.664 174.123H244.371L230.533 185.663H291.757Z" fill="#3ED9C7"/>
<path d="M244.371 174.123L243.4 181.221H278.889L277.663 174.123H244.371Z" fill="#228C7E"/>
<path d="M205.104 212.923C205.104 200.515 207.095 193.111 213.58 191.017C216.542 190.047 234.311 184.532 239.877 182.847C245.494 181.162 246.975 177.843 246.975 174.984V162.32H275.366V174.984C275.366 177.843 276.898 181.162 282.463 182.847C288.08 184.532 305.799 190.047 308.761 191.017C315.246 193.111 317.237 200.566 317.237 212.923H205.053H205.104Z" fill="#BA5964"/>
<path d="M247.026 165.997C247.026 165.997 249.835 174.167 261.222 174.167C272.609 174.167 275.417 166.048 275.417 165.997V162.32H247.026V165.997Z" fill="#893A47"/>
<path d="M247.592 198.467C247.592 198.467 252.8 201.684 261.174 201.684C269.549 201.684 274.706 198.467 274.706 198.467L270.876 212.969H251.421L247.592 198.467Z" fill="#FABA50"/>
<path d="M243.147 183.21C243.147 182.546 243.198 181.933 243.351 181.32C242.432 181.933 241.258 182.444 239.879 182.852C234.262 184.537 216.543 190.052 213.582 191.022C207.097 193.116 205.105 200.571 205.105 212.979H251.419L245.496 190.001C241.819 188.316 243.198 185.916 243.198 183.261L243.147 183.21Z" fill="#228C7E"/>
<path d="M308.814 191.019C305.852 190.049 288.083 184.534 282.517 182.849C281.036 182.389 279.862 181.879 278.942 181.215C279.096 181.828 279.198 182.491 279.198 183.155C279.198 185.861 280.525 188.261 276.849 189.895L270.977 212.874H317.392C317.392 200.465 315.401 193.061 308.916 190.917L308.814 191.019Z" fill="#228C7E"/>
<path d="M278.891 181.215L291.759 185.657L287.01 191.887L278.635 194.185L285.223 199.189L270.874 212.925L278.891 181.215Z" fill="#3ED9C7"/>
<path d="M243.403 181.215L230.535 185.657L235.284 191.887L243.658 194.185L237.071 198.168L251.42 212.925L243.403 181.215Z" fill="#3ED9C7"/>
<path d="M274.446 96.7061C270.361 94.3572 265.817 92.9785 261.17 92.9785C256.523 92.9785 251.928 94.3572 247.894 96.7061C238.345 102.17 232.83 112.484 232.83 123.31V123.412C232.83 126.475 233.034 129.539 233.341 132.552L233.851 136.841C234.26 140.211 234.873 143.53 235.945 146.747C240.03 159.462 251.366 169.011 261.17 169.011C270.974 169.011 282.31 159.462 286.395 146.747C287.416 143.53 288.08 140.211 288.488 136.841L288.999 132.552C289.356 129.488 289.561 126.373 289.509 123.31C289.509 112.484 283.995 102.17 274.446 96.7061Z" fill="#BA5964"/>
<path d="M232.475 116.006H251.419C251.419 116.006 252.031 107.529 256.014 100.279V116.006H270.108V100.279C270.108 100.279 273.937 109.521 273.937 116.006H289.818C289.818 116.006 288.286 90.1172 261.172 90.1172C234.058 90.1172 232.526 116.006 232.526 116.006H232.475Z" fill="#001C45"/>
<path d="M274.653 70.5137C274.653 70.5137 278.533 80.6241 273.887 85.5261" stroke="#001C45" stroke-width="2.14155" stroke-miterlimit="10" stroke-linecap="round"/>
<path d="M284.865 70.5137C284.865 70.5137 284.967 83.841 272.916 87.977" stroke="#001C45" stroke-width="2.14155" stroke-miterlimit="10" stroke-linecap="round"/>
</g>
</g>
<defs>
<clipPath id="clip0_306_1130">
<rect width="1200" height="873" fill="white"/>
</clipPath>
</defs>
</svg>
