<svg width="1200" height="1200" viewBox="0 0 1200 1200" fill="none" xmlns="http://www.w3.org/2000/svg">
<rect width="1200" height="1200" fill="white"/>
<g style="mix-blend-mode:multiply">
<path d="M1060.9 798.473H433.725C423.678 798.473 415.533 806.617 415.533 816.664V1024.86C415.533 1034.9 423.678 1043.05 433.725 1043.05H1060.9C1070.95 1043.05 1079.09 1034.9 1079.09 1024.86V816.664C1079.09 806.617 1070.95 798.473 1060.9 798.473Z" fill="#FAFAFA"/>
</g>
<path d="M454.637 778.515H1081.81C1091.34 778.515 1099.05 786.234 1099.05 795.756V1003.95C1099.05 1013.47 1091.34 1021.19 1081.81 1021.19H454.637C445.115 1021.19 437.396 1013.47 437.396 1003.95V795.756C437.396 786.234 445.115 778.515 454.637 778.515Z" fill="white" stroke="#C9C9C9" stroke-width="1.90079"/>
<path d="M654.47 920.817C666.131 871.758 635.813 822.535 586.753 810.874C537.694 799.214 488.471 829.532 476.81 878.591C465.15 927.65 495.468 976.874 544.527 988.534C593.586 1000.19 642.81 969.877 654.47 920.817Z" fill="#FFFFF8"/>
<path d="M883.553 835.033H697.768C692.761 835.033 688.701 839.092 688.701 844.1V865.237C688.701 870.244 692.761 874.304 697.768 874.304H883.553C888.561 874.304 892.62 870.244 892.62 865.237V844.1C892.62 839.092 888.561 835.033 883.553 835.033Z" fill="url(#paint0_linear_81_262)"/>
<path d="M1041.27 907.22H691.704C690.046 907.22 688.701 908.564 688.701 910.223V912.128C688.701 913.787 690.046 915.132 691.704 915.132H1041.27C1042.93 915.132 1044.27 913.787 1044.27 912.128V910.223C1044.27 908.564 1042.93 907.22 1041.27 907.22Z" fill="#ABDAF7"/>
<path d="M1041.27 939.963H691.704C690.046 939.963 688.701 941.307 688.701 942.966V944.872C688.701 946.53 690.046 947.875 691.704 947.875H1041.27C1042.93 947.875 1044.27 946.53 1044.27 944.872V942.966C1044.27 941.307 1042.93 939.963 1041.27 939.963Z" fill="#ABDAF7"/>
<path d="M1041.27 972.767H691.704C690.046 972.767 688.701 974.111 688.701 975.77V977.675C688.701 979.334 690.046 980.678 691.704 980.678H1041.27C1042.93 980.678 1044.27 979.334 1044.27 977.675V975.77C1044.27 974.111 1042.93 972.767 1041.27 972.767Z" fill="#ABDAF7"/>
<path d="M654.47 920.817C666.131 871.758 635.813 822.535 586.753 810.874C537.694 799.214 488.471 829.532 476.81 878.591C465.15 927.65 495.468 976.874 544.527 988.534C593.586 1000.19 642.81 969.877 654.47 920.817Z" fill="#E5F7FF"/>
<mask id="mask0_81_262" style="mask-type:luminance" maskUnits="userSpaceOnUse" x="474" y="808" width="183" height="184">
<path d="M654.468 920.816C666.129 871.757 635.811 822.534 586.751 810.873C537.692 799.213 488.469 829.531 476.808 878.59C465.148 927.649 495.466 976.873 544.525 988.533C593.584 1000.19 642.808 969.876 654.468 920.816Z" fill="white"/>
</mask>
<g mask="url(#mask0_81_262)">
<path d="M571.11 839.194C590.861 839.194 606.858 855.191 606.858 874.942V967.46H535.42V874.942C535.42 855.191 551.417 839.194 571.168 839.194H571.11Z" fill="#001C45"/>
<path d="M555.749 970.641H524.506V883.437C524.506 868.017 537.038 855.485 552.457 855.485H555.691V970.641H555.749Z" fill="#001C45"/>
<path d="M533.924 895.667C533.924 895.667 527.686 892.722 523.99 896.822C520.294 900.98 522.085 910.394 528.437 913.108C534.501 915.707 537.273 912.588 537.273 912.588L533.866 895.667H533.924Z" fill="#FF9A8D"/>
<path d="M527.398 898.504C529.015 898.042 531.383 898.215 532.596 899.37C533.058 899.775 532.191 900.583 531.729 900.352C529.131 899.197 525.839 898.908 524.337 901.911C524.28 902.085 524.164 901.911 524.164 901.796C524.626 900.121 525.608 898.966 527.34 898.446L527.398 898.504Z" fill="#BA5964"/>
<path d="M528.612 898.843C528.901 898.728 529.536 899.478 529.478 899.709C529.016 899.883 528.323 900.344 527.976 900.922C527.341 901.904 527.168 902.77 527.168 903.925C527.226 906.582 528.612 908.603 531.211 909.354C531.211 909.354 531.326 909.527 531.211 909.527C528.901 909.989 526.475 907.506 526.071 905.427C525.609 903.174 525.955 899.998 528.612 898.901V898.843Z" fill="#BA5964"/>
<path d="M597.682 895.38C597.682 895.38 603.919 892.666 607.615 896.824C611.311 900.982 609.521 910.395 603.168 913.11C597.104 915.709 594.332 912.59 594.332 912.59L597.739 895.38H597.682Z" fill="#FF9A8D"/>
<path d="M604.207 898.504C602.59 898.042 600.223 898.215 598.952 899.37C598.49 899.775 599.356 900.583 599.818 900.352C602.417 899.197 605.709 898.908 607.21 901.911C607.268 902.085 607.384 901.911 607.384 901.796C606.922 900.121 605.94 898.966 604.207 898.446V898.504Z" fill="#BA5964"/>
<path d="M602.935 898.843C602.646 898.728 602.011 899.478 602.069 899.709C602.531 899.883 603.224 900.344 603.571 900.922C604.206 901.904 604.379 902.77 604.379 903.925C604.321 906.582 602.935 908.603 600.336 909.354C600.336 909.354 600.221 909.527 600.336 909.527C602.647 909.989 605.072 907.506 605.476 905.427C605.938 903.174 605.592 899.998 602.935 898.901V898.843Z" fill="#BA5964"/>
<path d="M502.39 991.134C502.39 977.101 504.642 968.727 511.976 966.301C515.326 965.204 535.423 958.967 541.718 957.061C548.071 955.155 549.746 951.401 549.746 948.167V933.787H581.855V948.167C581.855 951.401 583.588 955.155 589.882 957.061C596.177 958.967 616.275 965.204 619.624 966.301C626.959 968.669 629.211 977.101 629.211 991.134H502.332H502.39Z" fill="#FF9A8D"/>
<path d="M549.803 938.004C549.803 938.004 552.979 947.244 565.858 947.244C578.736 947.244 581.912 938.062 581.912 938.004V933.846H549.803V938.004Z" fill="#BA5964"/>
<path d="M580.817 859.641C576.197 856.984 571.057 855.425 565.802 855.425C560.547 855.425 555.349 856.984 550.787 859.641C539.987 865.82 533.75 877.486 533.75 889.729V889.844C533.75 893.309 533.981 896.775 534.328 900.182L534.905 905.033C535.367 908.845 536.06 912.598 537.273 916.237C541.893 930.617 554.714 940.261 565.802 940.261C576.89 940.261 589.711 930.617 594.331 916.237C595.486 912.598 596.237 908.845 596.699 905.033L597.276 900.182C597.68 896.717 597.911 893.194 597.854 889.729C597.854 877.486 591.617 865.82 580.817 859.641Z" fill="#FF9A8D"/>
<path d="M565.803 858.418C565.803 858.418 572.444 880.941 597.912 886.139C597.912 886.139 600.165 871.528 589.25 862.634C578.335 853.741 565.803 854.318 565.803 854.318V858.476V858.418Z" fill="#001C45"/>
<path d="M565.802 858.538C565.802 858.538 559.16 881.061 533.692 886.258C533.692 886.258 531.44 871.647 542.355 862.753C553.27 853.86 565.802 854.437 565.802 854.437V858.595V858.538Z" fill="#001C45"/>
<path d="M619.683 966.35C616.333 965.253 596.236 959.016 589.941 957.11C588.266 956.59 586.938 956.012 585.898 955.262C586.072 955.955 586.187 956.706 586.187 957.456C586.187 963.116 577.062 967.678 565.859 967.678C554.655 967.678 545.53 963.116 545.53 957.456C545.53 956.706 545.588 956.013 545.761 955.32C544.722 956.013 543.394 956.59 541.834 957.052C535.482 958.958 515.442 965.195 512.092 966.292C504.758 968.66 502.506 977.092 502.506 991.125H629.385C629.385 977.092 627.133 968.718 619.798 966.292L619.683 966.35Z" fill="#FABA50"/>
<path d="M518.676 964.216C515.5 965.198 512.959 966.006 511.977 966.353C504.643 968.72 502.391 977.152 502.391 991.185H518.85V964.273H518.676V964.216Z" fill="#3ED9C7"/>
<path d="M612.984 964.216C616.16 965.198 618.701 966.006 619.683 966.353C627.017 968.72 629.27 977.152 629.27 991.185H612.811V964.273H612.984V964.216Z" fill="#3ED9C7"/>
<path d="M565.799 969.994C578.447 969.994 588.38 964.508 588.38 957.52C588.38 957.52 588.38 957.116 588.38 956.538C586.301 955.73 584.799 954.633 583.818 953.42C583.875 954.69 583.933 956.712 583.933 957.462C583.933 961.274 576.483 965.49 565.799 965.49C555.115 965.49 547.666 961.274 547.666 957.462C547.666 956.712 547.666 954.806 547.781 953.535C546.742 954.69 545.298 955.73 543.219 956.538C543.219 957.058 543.219 957.462 543.219 957.462C543.219 964.45 553.152 969.937 565.799 969.937V969.994Z" fill="#228C7E"/>
<path d="M524.973 853.523C524.973 853.523 537.216 853.523 540.508 860.396" stroke="#001C45" stroke-width="2.14155" stroke-miterlimit="10" stroke-linecap="round"/>
<path d="M526.877 841.851C526.877 841.851 541.026 847.106 540.564 861.544" stroke="#001C45" stroke-width="2.14155" stroke-miterlimit="10" stroke-linecap="round"/>
</g>
<g style="mix-blend-mode:multiply">
<path d="M906.937 500.062H279.761C269.714 500.062 261.569 508.207 261.569 518.254V726.447C261.569 736.494 269.714 744.638 279.761 744.638H906.937C916.984 744.638 925.129 736.494 925.129 726.447V518.254C925.129 508.207 916.984 500.062 906.937 500.062Z" fill="#FAFAFA"/>
</g>
<path d="M303.582 464.882H930.759C940.281 464.882 948 472.601 948 482.123V690.316C948 699.838 940.281 707.557 930.759 707.557H303.582C294.06 707.557 286.341 699.838 286.341 690.316V482.123C286.341 472.601 294.06 464.882 303.582 464.882Z" fill="white" stroke="#C9C9C9" stroke-width="1.90079"/>
<path d="M414.752 677.547C465.178 677.547 506.056 636.669 506.056 586.243C506.056 535.817 465.178 494.938 414.752 494.938C364.326 494.938 323.447 535.817 323.447 586.243C323.447 636.669 364.326 677.547 414.752 677.547Z" fill="#FFFFF8"/>
<path d="M732.498 521.4H546.713C541.706 521.4 537.646 525.46 537.646 530.467V551.604C537.646 556.612 541.706 560.671 546.713 560.671H732.498C737.506 560.671 741.565 556.612 741.565 551.604V530.467C741.565 525.46 737.506 521.4 732.498 521.4Z" fill="url(#paint1_linear_81_262)"/>
<path d="M890.217 593.587H540.649C538.991 593.587 537.646 594.931 537.646 596.59V598.496C537.646 600.154 538.991 601.499 540.649 601.499H890.217C891.875 601.499 893.22 600.154 893.22 598.496V596.59C893.22 594.931 891.875 593.587 890.217 593.587Z" fill="#ABDAF7"/>
<path d="M890.217 626.391H540.649C538.991 626.391 537.646 627.735 537.646 629.394V631.299C537.646 632.958 538.991 634.303 540.649 634.303H890.217C891.875 634.303 893.22 632.958 893.22 631.299V629.394C893.22 627.735 891.875 626.391 890.217 626.391Z" fill="#ABDAF7"/>
<path d="M890.217 659.134H540.649C538.991 659.134 537.646 660.478 537.646 662.137V664.043C537.646 665.701 538.991 667.046 540.649 667.046H890.217C891.875 667.046 893.22 665.701 893.22 664.043V662.137C893.22 660.478 891.875 659.134 890.217 659.134Z" fill="#ABDAF7"/>
<path d="M414.752 677.546C465.178 677.546 506.056 636.668 506.056 586.242C506.056 535.816 465.178 494.938 414.752 494.938C364.326 494.938 323.447 535.816 323.447 586.242C323.447 636.668 364.326 677.546 414.752 677.546Z" fill="#E5F7FF"/>
<mask id="mask1_81_262" style="mask-type:luminance" maskUnits="userSpaceOnUse" x="323" y="494" width="184" height="184">
<path d="M414.755 677.545C465.181 677.545 506.059 636.667 506.059 586.241C506.059 535.815 465.181 494.937 414.755 494.937C364.329 494.937 323.45 535.815 323.45 586.241C323.45 636.667 364.329 677.545 414.755 677.545Z" fill="white"/>
</mask>
<g mask="url(#mask1_81_262)">
<path d="M382.867 581.269C382.867 581.269 376.687 579.075 372.991 583.175C369.295 587.275 371.086 596.747 377.438 599.461C383.502 602.06 386.274 598.941 386.274 598.941L382.809 581.269H382.867Z" fill="#FF9A8D"/>
<path d="M376.398 584.914C378.015 584.452 380.383 584.625 381.653 585.78C382.115 586.185 381.249 586.993 380.787 586.762C378.188 585.607 374.896 585.318 373.395 588.321C373.337 588.495 373.222 588.321 373.222 588.206C373.684 586.531 374.665 585.376 376.398 584.856V584.914Z" fill="#BA5964"/>
<path d="M377.668 585.195C377.957 585.079 378.593 585.83 378.535 586.061C378.073 586.234 377.38 586.696 377.033 587.274C376.398 588.255 376.225 589.122 376.225 590.277C376.282 592.933 377.668 594.954 380.267 595.705C380.267 595.705 380.383 595.879 380.267 595.879C377.957 596.341 375.532 593.857 375.127 591.778C374.665 589.526 375.012 586.35 377.668 585.252V585.195Z" fill="#BA5964"/>
<path d="M446.741 581.269C446.741 581.269 452.921 579.075 456.617 583.175C460.313 587.333 458.523 596.747 452.17 599.461C446.106 602.06 443.334 598.941 443.334 598.941L446.799 581.269H446.741Z" fill="#FF9A8D"/>
<path d="M453.209 584.914C451.592 584.452 449.224 584.625 447.954 585.78C447.492 586.185 448.358 586.993 448.82 586.762C451.419 585.607 454.711 585.318 456.212 588.321C456.27 588.495 456.386 588.321 456.386 588.206C455.924 586.531 454.942 585.376 453.209 584.856V584.914Z" fill="#BA5964"/>
<path d="M451.998 585.195C451.709 585.079 451.074 585.83 451.131 586.061C451.593 586.234 452.287 586.696 452.633 587.274C453.268 588.255 453.441 589.122 453.441 590.277C453.384 592.933 451.998 594.954 449.399 595.705C449.399 595.705 449.283 595.879 449.399 595.879C451.709 596.341 454.134 593.857 454.539 591.778C455.001 589.526 454.654 586.35 451.998 585.252V585.195Z" fill="#BA5964"/>
<path d="M339.555 677.55C339.555 663.516 346.196 655.142 353.531 652.717C356.88 651.62 381.367 645.383 387.719 643.477C394.072 641.571 395.747 637.817 395.747 634.583V617.258H433.747V634.583C433.747 637.817 435.479 641.571 441.774 643.477C448.127 645.383 472.613 651.62 475.963 652.717C483.297 655.085 489.938 663.516 489.938 677.55H339.497H339.555Z" fill="#FF9A8D"/>
<path d="M395.805 617.316V623.38C395.805 623.38 402.677 634.18 414.862 634.18C427.048 634.18 433.805 623.496 433.805 623.496V617.374H395.805V617.316Z" fill="#BA5964"/>
<path d="M476.02 652.717C472.671 651.619 448.184 645.382 441.832 643.476C441.081 643.245 440.388 643.014 439.753 642.726C440.388 644.227 440.677 645.786 440.677 647.403C440.677 656.528 429.069 663.92 414.804 663.92C400.54 663.92 388.932 656.528 388.932 647.403C388.932 645.786 389.278 644.227 389.856 642.726C389.221 643.014 388.527 643.245 387.777 643.476C381.424 645.382 356.938 651.619 353.588 652.717C346.254 655.084 339.612 663.516 339.612 677.549H490.054C490.054 663.516 483.412 655.142 476.078 652.717H476.02Z" fill="#3ED9C7"/>
<path d="M429.879 546.051C425.259 543.394 420.119 541.835 414.863 541.835C409.608 541.835 404.179 543.106 399.559 545.762C388.76 551.941 382.812 563.838 382.812 576.024C382.812 579.546 382.985 583.069 383.389 586.534L383.966 591.385C384.428 595.197 385.641 602.531 388.529 609.577C394.246 623.553 407.009 628.115 414.863 628.115C422.717 628.115 435.48 623.553 441.198 609.577C444.085 602.531 445.298 595.197 445.76 591.385L446.338 586.534C446.742 583.069 446.973 579.546 446.915 576.081C446.915 563.838 440.678 552.172 429.879 545.993V546.051Z" fill="#FF9A8D"/>
<path d="M382.752 582.027C382.752 582.027 383.676 581.738 384.6 580.93C385.351 580.237 387.083 578.446 387.083 571.92C387.083 565.395 388.816 553.556 394.995 549.455C394.995 549.455 395.284 546.337 393.725 545.644C391.588 544.777 386.159 545.932 382.406 549.513C374.32 557.194 377.612 580.814 377.612 580.814C378.998 580.699 381.424 581.045 382.868 582.027H382.752Z" fill="#001C45"/>
<path d="M447.957 581.685C447.957 581.685 446.398 581.511 445.532 580.876C444.666 580.183 442.644 578.451 442.644 571.925C442.644 565.399 440.912 553.56 434.732 549.46C434.732 549.46 439.757 544.435 446.918 549.46C454.137 554.542 452.173 580.818 452.173 580.818C450.672 580.761 449.286 581.049 447.957 581.685Z" fill="#001C45"/>
<path d="M447.954 562.968V581.679C449.224 581.044 450.61 580.755 452.112 580.813C456.386 534.728 434.671 524.91 411.571 529.068C394.534 532.129 392.397 547.895 392.397 547.895L394.939 549.454C397.942 549.454 399.443 551.418 401.753 553.208C404.121 555.056 406.546 556.789 409.203 558.232C413.592 560.658 418.501 562.391 423.468 562.275C424.738 562.275 426.124 562.044 426.932 561.12C427.972 559.907 427.683 558.117 427.164 556.615C426.471 554.71 425.547 552.919 424.334 551.36C427.51 553.959 430.629 556.558 436.75 557.193C439.753 557.482 441.659 555.691 440.562 552.515C440.504 552.342 447.954 559.099 447.954 562.968Z" fill="#001C45"/>
<path d="M390.782 547.716C390.782 547.716 391.533 532.585 411.399 526.579C428.378 521.439 446.223 528.369 451.478 533.567C458.582 540.555 452.807 547.254 445.415 545.868C441.834 545.175 390.782 547.716 390.782 547.716Z" fill="#001C45"/>
<path d="M376.864 539.874C376.864 539.874 389.107 539.874 392.399 546.746" stroke="#001C45" stroke-width="2.14155" stroke-miterlimit="10" stroke-linecap="round"/>
<path d="M378.713 528.201C378.713 528.201 392.862 533.457 392.4 547.894" stroke="#001C45" stroke-width="2.14155" stroke-miterlimit="10" stroke-linecap="round"/>
</g>
<g style="mix-blend-mode:multiply">
<path d="M745.368 187.636H118.192C108.145 187.636 100 195.78 100 205.827V414.02C100 424.067 108.145 432.211 118.192 432.211H745.368C755.415 432.211 763.56 424.067 763.56 414.02V205.827C763.56 195.78 755.415 187.636 745.368 187.636Z" fill="#FAFAFA"/>
</g>
<path d="M149.614 163.771H776.791C786.313 163.771 794.032 171.49 794.032 181.012V389.204C794.032 398.726 786.313 406.446 776.791 406.446H149.614C140.092 406.446 132.373 398.726 132.373 389.204V181.012C132.373 171.49 140.092 163.771 149.614 163.771Z" fill="white" stroke="#C9C9C9" stroke-width="1.90079"/>
<path d="M325.345 349.687C361.002 314.03 361.002 256.22 325.345 220.563C289.688 184.906 231.878 184.906 196.221 220.563C160.565 256.22 160.565 314.03 196.221 349.687C231.878 385.344 289.688 385.344 325.345 349.687Z" fill="#FFFFF8"/>
<path d="M578.531 220.291H392.746C387.738 220.291 383.679 224.35 383.679 229.358V250.495C383.679 255.502 387.738 259.562 392.746 259.562H578.531C583.538 259.562 587.598 255.502 587.598 250.495V229.358C587.598 224.35 583.538 220.291 578.531 220.291Z" fill="url(#paint2_linear_81_262)"/>
<path d="M736.249 292.476H386.682C385.023 292.476 383.679 293.82 383.679 295.479V297.384C383.679 299.043 385.023 300.388 386.682 300.388H736.249C737.907 300.388 739.252 299.043 739.252 297.384V295.479C739.252 293.82 737.907 292.476 736.249 292.476Z" fill="#ABDAF7"/>
<path d="M736.249 325.221H386.682C385.023 325.221 383.679 326.565 383.679 328.224V330.13C383.679 331.788 385.023 333.133 386.682 333.133H736.249C737.907 333.133 739.252 331.788 739.252 330.13V328.224C739.252 326.565 737.907 325.221 736.249 325.221Z" fill="#ABDAF7"/>
<path d="M736.249 358.022H386.682C385.023 358.022 383.679 359.367 383.679 361.026V362.931C383.679 364.59 385.023 365.934 386.682 365.934H736.249C737.907 365.934 739.252 364.59 739.252 362.931V361.026C739.252 359.367 737.907 358.022 736.249 358.022Z" fill="#ABDAF7"/>
<path d="M325.346 349.686C361.003 314.029 361.003 256.219 325.346 220.562C289.689 184.905 231.879 184.905 196.222 220.562C160.566 256.219 160.566 314.029 196.222 349.686C231.879 385.343 289.689 385.343 325.346 349.686Z" fill="#E5F7FF"/>
<mask id="mask2_81_262" style="mask-type:luminance" maskUnits="userSpaceOnUse" x="169" y="193" width="184" height="184">
<path d="M325.348 349.686C361.005 314.029 361.005 256.219 325.348 220.562C289.691 184.905 231.881 184.905 196.224 220.562C160.567 256.219 160.567 314.029 196.224 349.686C231.881 385.343 289.691 385.343 325.348 349.686Z" fill="white"/>
</mask>
<g mask="url(#mask2_81_262)">
<path d="M296.882 279.765C296.882 279.765 307.392 229.926 260.845 229.926C214.298 229.926 223.596 279.765 223.596 279.765H296.882Z" fill="#001C45"/>
<path d="M236.416 231.251C235.434 222.358 243.288 214.215 254.03 213.06C264.714 211.905 274.185 218.142 275.167 226.978C276.149 235.871 268.294 244.014 257.553 245.169C246.869 246.324 237.398 240.087 236.416 231.251Z" fill="#001C45"/>
<path d="M228.793 279.063C228.793 279.063 222.672 276.464 218.976 280.622C215.28 284.78 217.07 294.194 223.422 296.908C229.486 299.507 232.258 296.388 232.258 296.388L228.735 279.121L228.793 279.063Z" fill="#BA5964"/>
<path d="M222.383 282.3C224 281.838 226.368 282.011 227.581 283.166C228.043 283.57 227.177 284.379 226.715 284.148C224.116 282.993 220.824 282.704 219.323 285.707C219.265 285.88 219.149 285.707 219.149 285.592C219.611 283.917 220.593 282.762 222.326 282.242L222.383 282.3Z" fill="#893A47"/>
<path d="M223.596 282.579C223.885 282.464 224.52 283.215 224.462 283.446C224 283.619 223.307 284.081 222.961 284.658C222.326 285.64 222.152 286.506 222.152 287.661C222.21 290.318 223.596 292.339 226.195 293.09C226.195 293.09 226.311 293.263 226.195 293.263C223.885 293.725 221.459 291.242 221.055 289.163C220.593 286.911 220.94 283.734 223.596 282.637V282.579Z" fill="#893A47"/>
<path d="M292.722 279.073C292.722 279.073 298.844 276.474 302.54 280.574C306.236 284.675 304.445 294.146 298.093 296.86C292.029 299.459 289.257 296.34 289.257 296.34L292.722 279.073Z" fill="#BA5964"/>
<path d="M299.193 282.315C297.576 281.853 295.208 282.026 293.937 283.181C293.475 283.585 294.342 284.394 294.804 284.163C297.402 283.008 300.694 282.719 302.196 285.722C302.253 285.895 302.369 285.722 302.369 285.606C301.907 283.932 300.925 282.777 299.193 282.257V282.315Z" fill="#893A47"/>
<path d="M297.92 282.594C297.631 282.479 296.996 283.229 297.053 283.46C297.515 283.634 298.208 284.096 298.555 284.673C299.19 285.655 299.363 286.521 299.363 287.676C299.306 290.333 297.92 292.354 295.321 293.105C295.321 293.105 295.205 293.278 295.321 293.278C297.631 293.74 300.056 291.257 300.461 289.178C300.923 286.925 300.576 283.749 297.92 282.652V282.594Z" fill="#893A47"/>
<path d="M295.378 345.546L279.439 332.494H241.785L226.135 345.546H295.378Z" fill="#3ED9C7"/>
<path d="M241.785 332.494L240.688 340.522H280.825L279.439 332.494H241.785Z" fill="#228C7E"/>
<path d="M197.375 376.375C197.375 362.341 199.627 353.967 206.962 351.6C210.311 350.502 230.409 344.265 236.703 342.359C243.056 340.454 244.731 336.7 244.731 333.466V319.144H276.841V333.466C276.841 336.7 278.573 340.454 284.868 342.359C291.22 344.265 311.26 350.502 314.61 351.6C321.944 353.967 324.196 362.399 324.196 376.375H197.317H197.375Z" fill="#BA5964"/>
<path d="M244.789 323.302C244.789 323.302 247.965 332.542 260.844 332.542C273.722 332.542 276.899 323.359 276.899 323.302V319.144H244.789V323.302Z" fill="#893A47"/>
<path d="M245.428 360.026C245.428 360.026 251.318 363.665 260.79 363.665C270.261 363.665 276.094 360.026 276.094 360.026L271.762 376.428H249.759L245.428 360.026Z" fill="#FABA50"/>
<path d="M240.402 342.769C240.402 342.018 240.459 341.325 240.633 340.632C239.593 341.325 238.265 341.902 236.705 342.364C230.353 344.27 210.313 350.507 206.964 351.605C199.629 353.972 197.377 362.404 197.377 376.438H249.757L243.058 350.45C238.9 348.544 240.459 345.829 240.459 342.826L240.402 342.769Z" fill="#228C7E"/>
<path d="M314.67 351.601C311.32 350.504 291.223 344.266 284.928 342.361C283.253 341.841 281.925 341.263 280.885 340.513C281.059 341.206 281.174 341.956 281.174 342.707C281.174 345.768 282.676 348.482 278.517 350.33L271.876 376.318H324.372C324.372 362.285 322.12 353.911 314.785 351.485L314.67 351.601Z" fill="#228C7E"/>
<path d="M280.828 340.513L295.381 345.537L290.01 352.583L280.539 355.181L287.989 360.841L271.761 376.376L280.828 340.513Z" fill="#3ED9C7"/>
<path d="M240.691 340.513L226.138 345.537L231.509 352.583L240.98 355.181L233.53 359.686L249.758 376.376L240.691 340.513Z" fill="#3ED9C7"/>
<path d="M275.801 244.937C271.181 242.281 266.041 240.722 260.785 240.722C255.53 240.722 250.332 242.281 245.77 244.937C234.971 251.117 228.733 262.783 228.733 275.026V275.141C228.733 278.606 228.964 282.071 229.311 285.479L229.888 290.33C230.35 294.141 231.044 297.895 232.256 301.534C236.876 315.914 249.697 326.713 260.785 326.713C271.874 326.713 284.694 315.914 289.314 301.534C290.469 297.895 291.22 294.141 291.682 290.33L292.26 285.479C292.664 282.014 292.895 278.491 292.837 275.026C292.837 262.783 286.6 251.117 275.801 244.937Z" fill="#BA5964"/>
<path d="M228.332 266.764H249.758C249.758 266.764 250.451 257.177 254.955 248.977V266.764H270.895V248.977C270.895 248.977 275.226 259.43 275.226 266.764H293.186C293.186 266.764 291.454 237.484 260.788 237.484C230.122 237.484 228.39 266.764 228.39 266.764H228.332Z" fill="#001C45"/>
<path d="M276.035 215.313C276.035 215.313 280.424 226.748 275.169 232.292" stroke="#001C45" stroke-width="2.14155" stroke-miterlimit="10" stroke-linecap="round"/>
<path d="M287.584 215.313C287.584 215.313 287.7 230.386 274.07 235.064" stroke="#001C45" stroke-width="2.14155" stroke-miterlimit="10" stroke-linecap="round"/>
</g>
<defs>
<linearGradient id="paint0_linear_81_262" x1="689.223" y1="855.623" x2="875.569" y2="793.607" gradientUnits="userSpaceOnUse">
<stop stop-color="#3855E1"/>
<stop offset="1" stop-color="#5C7EF7"/>
</linearGradient>
<linearGradient id="paint1_linear_81_262" x1="538.169" y1="541.99" x2="724.514" y2="479.975" gradientUnits="userSpaceOnUse">
<stop stop-color="#3855E1"/>
<stop offset="1" stop-color="#5C7EF7"/>
</linearGradient>
<linearGradient id="paint2_linear_81_262" x1="384.201" y1="240.881" x2="570.546" y2="178.865" gradientUnits="userSpaceOnUse">
<stop stop-color="#3855E1"/>
<stop offset="1" stop-color="#5C7EF7"/>
</linearGradient>
</defs>
</svg>
