<svg width="856" height="916" viewBox="0 0 856 916" fill="none" xmlns="http://www.w3.org/2000/svg">
<mask id="mask0_536_522" style="mask-type:luminance" maskUnits="userSpaceOnUse" x="0" y="0" width="856" height="916">
<path d="M855.118 0.162109H0.883362V915.203H855.118V0.162109Z" fill="white"/>
</mask>
<g mask="url(#mask0_536_522)">
<mask id="mask1_536_522" style="mask-type:luminance" maskUnits="userSpaceOnUse" x="0" y="0" width="856" height="916">
<path d="M855.118 0.164062H0.883362V915.205H855.118V0.164062Z" fill="white"/>
</mask>
<g mask="url(#mask1_536_522)">
<path d="M359.247 146.538V287.769H297.204C294.559 287.767 292.022 286.714 290.153 284.842C288.284 282.97 287.234 280.432 287.236 277.786V156.503C287.236 155.194 287.493 153.898 287.994 152.689C288.495 151.479 289.229 150.38 290.155 149.454C291.081 148.529 292.18 147.794 293.389 147.294C294.599 146.793 295.895 146.535 297.204 146.535L359.247 146.538Z" fill="#1D253D"/>
<path d="M600.788 213.408C594.407 273.457 560.307 287.771 560.307 287.771H359.247V146.539C415.663 135.691 442.533 66.2061 436.718 31.3661C437.749 24.3043 437.763 17.131 436.758 10.0653C440.746 -1.85639 452.503 0.536106 452.503 0.536106C491.292 6.61444 493.503 87.0969 493.204 113.332C493.175 115.525 493.987 117.646 495.472 119.26C496.958 120.873 499.005 121.857 501.193 122.009C516.015 123.009 548.342 125.941 576.67 133.352C595.259 138.22 602.974 143.087 605.253 153.732C607.67 164.951 604.058 182.594 600.786 213.408" fill="#FEA30A"/>
<path d="M359.247 146.538V266.263H297.204C294.561 266.261 292.027 265.21 290.157 263.341C288.288 261.472 287.238 258.938 287.236 256.294V156.503C287.236 155.194 287.493 153.898 287.994 152.689C288.495 151.479 289.229 150.38 290.155 149.454C291.081 148.529 292.18 147.794 293.389 147.294C294.599 146.793 295.895 146.535 297.204 146.535L359.247 146.538Z" fill="#465A94"/>
<path d="M605.256 153.731C604.267 163.549 602.478 175.965 600.788 191.903C594.408 251.949 560.305 266.265 560.305 266.265H359.245V146.538C387.368 141.133 409.259 120.335 422.526 95.7659C432.096 78.0401 435.088 58.0459 436.359 38.1926C437.103 26.5901 432.583 -3.51742 452.504 0.536747C491.295 6.61341 493.504 87.0951 493.206 113.331C493.177 115.524 493.988 117.645 495.474 119.259C496.96 120.872 499.007 121.856 501.195 122.008C516.018 123.012 548.346 125.94 576.672 133.353C595.263 138.219 602.976 143.088 605.255 153.73" fill="#FEB12F"/>
<path d="M524.896 287.768H555.158L540.536 303.738V321.042H519.029V306.092C519.029 302.666 519.752 299.279 521.15 296.152L524.896 287.768Z" fill="#BF6D3E"/>
<path d="M524.035 301.59C525.698 300.78 527.091 299.504 528.044 297.919C528.998 296.333 529.471 294.505 529.407 292.656C529.343 290.807 528.744 289.017 527.683 287.501C526.622 285.985 525.145 284.81 523.429 284.117C522.84 278.2 517.483 273.568 511.63 272.533C515.829 282.228 518.535 292.502 519.656 303.007L524.035 301.59Z" fill="#BF6D3E"/>
<path d="M519.295 275.401C521.433 276.204 522.158 278.541 522.628 280.563C522.799 281.776 523.236 282.936 523.909 283.959C524.699 284.947 525.987 285.39 527.002 286.093C528.024 286.762 528.888 287.646 529.532 288.685C530.176 289.723 530.585 290.889 530.731 292.103C531.024 294.842 530.031 297.549 529.088 300.07C528.778 300.897 527.563 300.248 527.872 299.429C528.758 297.058 529.712 294.445 529.322 291.871C528.938 289.339 527.124 287.69 525.003 286.486C524.062 286.019 523.242 285.34 522.607 284.503C522.075 283.657 521.7 282.723 521.498 281.744C521.031 279.87 520.731 277.396 518.658 276.618C517.831 276.308 518.478 275.096 519.298 275.4" fill="#80410E"/>
<path d="M328.827 287.768H298.562L313.184 303.738V321.042H334.691V306.092C334.691 302.666 333.969 299.279 332.57 296.152L328.827 287.768Z" fill="#BF6D3E"/>
<path d="M457.538 444.925C475.61 433.161 492.013 419.015 506.304 402.869C511.335 374.446 514.253 343.98 516.341 315.192C525.159 314.303 535.065 313.84 543.892 314.656C550.525 353.36 553.121 392.18 550.475 431.36C526.178 455.378 500.247 482.193 475.949 506.209L457.538 444.925Z" fill="#21A9E1"/>
<path d="M547.807 413.725C549.213 411.753 550.429 409.654 551.439 407.453C551.328 415.408 551.008 423.376 550.478 431.356C526.18 455.375 500.249 482.19 475.952 506.206L471.668 491.964C498.563 467.752 525.131 443.01 547.803 413.724" fill="#1B94C7"/>
<path d="M518.559 328.833L536.941 329.27C537.821 329.291 537.888 330.666 537.001 330.645C530.873 330.499 524.746 330.353 518.619 330.206C517.739 330.186 517.673 328.812 518.559 328.833Z" fill="#1D253D"/>
<path d="M395.928 444.925C377.856 433.161 361.452 419.015 347.158 402.869C342.129 374.446 339.212 343.98 337.124 315.192C328.306 314.303 318.4 313.84 309.573 314.656C302.94 353.36 300.344 392.18 302.99 431.36C327.288 455.378 353.218 482.193 377.516 506.209L395.928 444.925Z" fill="#21A9E1"/>
<path d="M378.676 485.228C379.085 489.827 379.415 494.432 379.668 499.045L377.515 506.205C353.22 482.187 327.288 455.372 302.992 431.356C302.291 420.967 301.955 410.6 301.983 400.256C315.316 435.864 345.516 463.122 378.676 485.228" fill="#1B94C7"/>
<path d="M311.066 329.88C319.177 329.469 327.29 329.058 335.406 328.648C335.583 328.648 335.754 328.716 335.882 328.839C336.01 328.961 336.086 329.129 336.094 329.306C336.102 329.483 336.041 329.656 335.924 329.79C335.807 329.923 335.643 330.006 335.466 330.021C327.35 330.432 319.237 330.843 311.126 331.253C310.949 331.253 310.778 331.185 310.65 331.062C310.521 330.94 310.445 330.772 310.438 330.595C310.43 330.418 310.491 330.245 310.608 330.111C310.725 329.978 310.889 329.895 311.066 329.88Z" fill="#1D253D"/>
<path d="M366.927 873.303C366.935 876.668 366.957 879.94 366.999 883.083H386.518L387.608 873.303H366.927Z" fill="#001E4A"/>
<path d="M463.577 873.303C463.585 876.668 463.607 879.94 463.649 883.083H483.168L484.258 873.303H463.577Z" fill="#001E4A"/>
<path d="M484.936 607.223C433.221 612.912 425.731 642.501 425.731 642.501L446.616 765.834L457.58 878.8H492.377C502.885 737.55 484.936 607.217 484.936 607.217" fill="#259B45"/>
<path d="M439.628 640.808C439.628 640.808 462.634 626.069 465.328 613.172L372.096 616.243C372.096 616.243 359.114 782.801 359.483 873.305H395.054L439.628 640.808Z" fill="#465A94"/>
<path d="M437.011 654.46L395.054 878.802H359.483C359.208 811.458 366.326 696.52 369.988 644.912C391.666 651.892 414.314 655.412 437.011 654.46Z" fill="#28A44A"/>
<path d="M369.988 644.914C371.248 627.164 372.098 616.24 372.098 616.24L465.328 613.168C462.63 626.067 439.63 640.808 439.63 640.808L437.011 654.462C414.316 655.417 391.668 651.894 369.988 644.914Z" fill="#259B45"/>
<path d="M457.419 626.128C461.986 621.545 465.983 616.313 467.019 611.348L379.749 607.223C379.749 607.223 379.04 616.602 378.706 620.502C404.725 626.555 431.34 628.818 457.419 626.128Z" fill="#1D253D"/>
<path d="M387.627 881.62L364.779 880.992C358.404 887.674 353.881 895.903 351.654 904.866H392.904C392.106 896.93 390.333 889.122 387.627 881.62Z" fill="#001E4A"/>
<path d="M351.654 904.863C351.443 905.718 351.223 906.568 351.054 907.433C350.989 907.75 350.995 908.076 351.072 908.39C351.148 908.704 351.294 908.997 351.497 909.247C351.701 909.498 351.957 909.701 352.248 909.84C352.539 909.98 352.858 910.053 353.181 910.055H390.999C391.298 910.056 391.594 909.995 391.868 909.876C392.142 909.758 392.389 909.584 392.593 909.365C392.797 909.147 392.954 908.889 393.054 908.608C393.153 908.326 393.194 908.027 393.173 907.729C393.098 906.772 393.007 905.812 392.903 904.863H351.654Z" fill="#A86114"/>
<path d="M462.343 881.62L485.19 880.992C491.556 887.617 529.895 895.953 532.116 904.866H457.066C457.864 896.93 459.636 889.122 462.343 881.62Z" fill="#001E4A"/>
<path d="M532.115 904.863C532.327 905.718 532.543 906.568 532.715 907.433C532.78 907.75 532.773 908.077 532.697 908.39C532.62 908.704 532.474 908.997 532.271 909.248C532.067 909.499 531.81 909.701 531.519 909.841C531.228 909.98 530.909 910.053 530.586 910.055H458.969C458.67 910.056 458.375 909.995 458.101 909.876C457.826 909.758 457.58 909.584 457.376 909.365C457.172 909.147 457.015 908.889 456.915 908.608C456.815 908.326 456.774 908.027 456.795 907.729C456.873 906.772 456.962 905.812 457.063 904.863H532.115Z" fill="#A86114"/>
<path d="M385.033 774.88C382.199 770.012 379.237 765.269 376.889 760.136C374.635 754.92 372.704 749.571 371.106 744.119C371.063 743.989 370.971 743.88 370.85 743.815C370.729 743.75 370.588 743.735 370.455 743.771C370.323 743.808 370.21 743.894 370.139 744.012C370.068 744.13 370.046 744.27 370.076 744.404C371.222 750.047 373.031 755.535 375.463 760.755C377.672 766.066 380.55 771.073 384.026 775.656C384.488 776.234 385.39 775.489 385.033 774.881" fill="#1D253D"/>
<path d="M365.158 869.975H387.832C388.714 869.975 388.778 871.347 387.892 871.347H365.218C364.336 871.347 364.272 869.975 365.158 869.975Z" fill="#1D253D"/>
<path d="M475.701 461.582C475.418 455.519 471.197 450.277 464.936 447.999C451.654 443.165 436.758 441.68 422.244 442.646C408.926 443.533 395.85 446.371 383.078 450.129C374.753 452.579 369.548 460.019 370.828 467.671C378.52 513.473 380.957 560.003 378.091 606.358C412.264 616.274 446.358 619.162 478.668 607.874C479.768 560.673 477.918 508.861 475.701 461.582Z" fill="#A6F3FF"/>
<path d="M427.548 455.782C423.805 457.68 420.298 460.012 417.1 462.731C415.717 460.162 414.433 457.532 413.106 454.939C412.375 453.514 411.642 452.092 410.906 450.672C410.264 449.211 409.483 447.816 408.573 446.506C408.17 446.006 407.39 446.551 407.54 447.106C408.049 448.565 408.697 449.971 409.476 451.306C410.215 452.793 410.957 454.276 411.703 455.755C413.166 458.663 414.719 461.542 416.09 464.493C416.158 464.604 416.249 464.699 416.358 464.77C416.467 464.841 416.591 464.886 416.72 464.903C416.849 464.92 416.98 464.907 417.104 464.866C417.227 464.825 417.34 464.757 417.433 464.666C420.804 461.796 424.462 459.283 428.35 457.166C429.26 456.676 428.457 455.32 427.543 455.785" fill="#47BED1"/>
<path d="M441.04 455.801C440.984 454.559 440.95 453.314 440.935 452.068C440.918 450.96 441.185 449.476 440.654 448.476C440.604 448.392 440.532 448.323 440.447 448.275C440.361 448.226 440.265 448.201 440.167 448.201C440.069 448.201 439.973 448.226 439.888 448.275C439.802 448.323 439.731 448.392 439.68 448.476C439.144 449.431 439.391 450.862 439.403 451.922C439.418 453.216 439.452 454.509 439.504 455.801C439.588 457.874 439.736 459.939 439.915 462.003C438.208 461.029 436.499 460.057 434.788 459.087C433.738 458.491 432.682 457.908 431.621 457.33C430.618 456.657 429.514 456.151 428.35 455.83C428.262 455.809 428.169 455.817 428.085 455.852C428.002 455.888 427.932 455.95 427.886 456.029C427.84 456.107 427.821 456.199 427.832 456.289C427.842 456.379 427.881 456.464 427.943 456.53C428.808 457.368 429.802 458.06 430.888 458.58C431.928 459.195 432.964 459.809 434.009 460.409C436.143 461.631 438.277 462.854 440.413 464.076C440.531 464.142 440.665 464.176 440.8 464.176C440.935 464.175 441.068 464.139 441.185 464.072C441.303 464.005 441.401 463.909 441.47 463.793C441.539 463.677 441.577 463.544 441.58 463.409C441.327 460.882 441.146 458.348 441.036 455.808" fill="#47BED1"/>
<path d="M427.947 456.531L423.093 460.37L425.52 464.167L425.07 593.398L434.708 598.419L442.897 593.398L431.601 464.904L432.995 459.82L427.947 456.531Z" fill="#FC9426"/>
<path d="M367.888 476.837C366.249 465.802 370.766 453.847 379.67 450.611C386.337 448.188 394.744 445.905 402.17 445.37C408.198 470.485 432.998 521.819 432.998 521.819C432.998 521.819 452.287 463.075 440.942 442.827C448.192 442.451 462 444.5 469.266 448.203C476.099 451.686 480.391 462.932 480.903 471.65C484.069 525.55 494.139 581.574 498.38 636.245C493.122 638.706 486.233 638.764 480.568 639.273C471.337 640.107 462.068 640.523 452.808 640.869C422.777 641.982 393.088 641.019 364.7 630.102C368.819 578.898 375.465 527.841 367.889 476.837" fill="#21A9E1"/>
<path d="M378.676 485.227C383.003 533.914 378.815 583.448 369.466 631.826C367.873 631.278 366.283 630.71 364.698 630.1C368.789 579.24 375.365 528.516 368.032 477.85C371.536 480.368 375.085 482.827 378.679 485.224" fill="#1B94C7"/>
<path d="M450.497 488.209L460.679 484.722C461.528 484.431 462.376 484.141 463.226 483.851C463.998 483.641 464.751 483.364 465.476 483.024C466.941 482.214 466.369 480.48 465.952 479.201C463.702 472.306 461.418 465.422 459.152 458.534C459.104 458.363 459.125 458.181 459.209 458.024C459.293 457.868 459.434 457.75 459.603 457.696C459.772 457.641 459.955 457.654 460.115 457.731C460.274 457.808 460.398 457.944 460.46 458.11L466.243 475.684C466.693 477.051 467.22 478.412 467.571 479.807C467.91 480.822 467.876 481.924 467.474 482.915C466.925 483.801 466.049 484.436 465.037 484.684C463.62 485.184 462.203 485.654 460.787 486.141L450.923 489.518C450.752 489.566 450.57 489.545 450.414 489.461C450.257 489.377 450.14 489.236 450.085 489.067C450.03 488.898 450.043 488.715 450.12 488.555C450.197 488.396 450.333 488.272 450.499 488.21" fill="#1B94C7"/>
<path d="M451.37 488.564L462.861 500.48C463.473 501.114 462.548 502.132 461.933 501.494C458.1 497.52 454.269 493.548 450.44 489.577C449.829 488.941 450.755 487.924 451.369 488.562" fill="#1B94C7"/>
<path d="M435.823 533.193L461.891 500.489C462.443 499.795 463.454 500.727 462.906 501.417C454.216 512.319 445.526 523.221 436.835 534.122C436.283 534.814 435.272 533.882 435.822 533.193" fill="#1B94C7"/>
<path d="M408.539 490.62L397.972 488.585C397.089 488.414 396.208 488.244 395.328 488.075C394.534 487.975 393.75 487.806 392.985 487.569C391.419 486.969 391.745 485.173 391.981 483.849C393.251 476.709 394.553 469.574 395.838 462.437C395.862 462.261 395.817 462.082 395.712 461.938C395.608 461.795 395.451 461.697 395.276 461.667C395.101 461.636 394.921 461.674 394.773 461.774C394.626 461.873 394.522 462.026 394.485 462.199C393.391 468.269 392.297 474.339 391.203 480.407C390.948 481.824 390.62 483.245 390.463 484.675C390.267 485.726 390.454 486.813 390.989 487.738C391.656 488.541 392.611 489.05 393.649 489.154C395.118 489.45 396.592 489.72 398.066 490.004C401.478 490.662 404.891 491.319 408.304 491.975C408.48 491.999 408.659 491.954 408.803 491.849C408.946 491.744 409.044 491.588 409.074 491.413C409.105 491.238 409.067 491.057 408.968 490.91C408.868 490.762 408.716 490.659 408.542 490.622" fill="#1B94C7"/>
<path d="M407.725 491.089C404.484 495.557 401.244 500.024 398.003 504.491C397.485 505.206 398.543 506.084 399.063 505.367L408.785 491.963C409.303 491.25 408.245 490.372 407.725 491.089Z" fill="#1B94C7"/>
<path d="M429.329 533.124C419.207 523.539 409.085 513.953 398.962 504.365C398.319 503.757 397.448 504.821 398.088 505.428L428.455 534.184C429.098 534.794 429.969 533.73 429.329 533.124" fill="#1B94C7"/>
<path d="M433.655 524.104C434.636 539.493 435.401 554.891 435.951 570.3C436.5 585.708 436.834 601.123 436.951 616.545C437.015 625.224 437.012 633.903 436.94 642.583C436.932 643.466 435.558 643.532 435.565 642.643C435.693 627.226 435.606 611.809 435.302 596.393C434.998 580.977 434.477 565.568 433.738 550.166C433.323 541.496 432.839 532.829 432.286 524.166C432.285 523.988 432.354 523.817 432.476 523.689C432.599 523.561 432.766 523.485 432.943 523.477C433.121 523.469 433.294 523.531 433.427 523.648C433.56 523.765 433.643 523.929 433.658 524.105" fill="#1D253D"/>
<path d="M457.504 594.066C465.614 596.332 474.232 595.982 482.131 593.066C482.964 592.759 483.381 594.07 482.555 594.374C474.42 597.368 465.549 597.728 457.198 595.402C456.349 595.165 456.647 593.819 457.504 594.062" fill="#1B94C7"/>
<path d="M383.585 595.873C391.694 598.14 400.312 597.792 408.212 594.879C409.045 594.57 409.462 595.879 408.636 596.187C400.5 599.18 391.629 599.538 383.278 597.213C382.43 596.975 382.73 595.63 383.585 595.873Z" fill="#1B94C7"/>
<path d="M452.433 399.52C454.858 391.081 454.269 382.062 450.766 374.011C451.202 371.983 450.88 369.866 449.86 368.061C448.825 366.331 447.342 364.912 445.568 363.955C444.41 363.258 443.126 362.799 441.789 362.602C440.453 362.406 439.091 362.477 437.782 362.811C436.48 363.176 435.319 363.925 434.45 364.961C433.582 365.997 433.046 367.27 432.913 368.616C431.075 367.36 429.109 366.305 427.047 365.467C424.856 364.629 422.462 364.479 420.184 365.039C419.053 365.332 418.014 365.903 417.16 366.7C416.307 367.498 415.667 368.497 415.298 369.606C414.973 370.728 415.046 371.928 415.504 373.003C415.963 374.078 416.778 374.962 417.813 375.505C416.098 373.416 412.147 373.018 409.67 374.093C407.219 375.301 405.319 377.395 404.354 379.951C403.451 381.917 403.138 384.102 403.455 386.242C403.624 387.306 404.042 388.315 404.675 389.187C405.308 390.059 406.139 390.768 407.098 391.258C403.408 393.098 402.213 397.585 402.978 401.636C403.743 405.686 406.291 409.158 408.978 412.283C411.664 415.408 414.615 418.398 416.463 422.084L452.433 399.52Z" fill="#7A2923"/>
<path d="M451.25 400.371C453.406 392.24 452.887 383.632 449.77 375.819C450.158 373.874 449.873 371.854 448.963 370.092C448.071 368.453 446.753 367.087 445.148 366.137C444.139 365.472 443.001 365.03 441.808 364.84C440.615 364.65 439.396 364.717 438.231 365.037C437.037 365.435 435.989 366.18 435.218 367.175C434.448 368.17 433.99 369.371 433.903 370.627C432.282 369.426 430.534 368.409 428.689 367.594C426.757 366.788 424.612 366.644 422.589 367.183C421.555 367.493 420.616 368.058 419.857 368.826C419.099 369.594 418.545 370.541 418.248 371.578C417.684 373.735 418.588 376.337 420.478 377.254C418.953 375.245 415.442 374.859 413.24 375.894C411.038 376.929 409.453 379.139 408.513 381.532C407.709 383.442 407.433 385.533 407.714 387.587C407.847 388.587 408.208 389.543 408.769 390.381C409.331 391.219 410.078 391.917 410.953 392.42C407.673 394.192 406.611 398.509 407.286 402.407C407.961 406.306 410.231 409.647 412.619 412.657C415.008 415.668 417.629 418.543 419.27 422.092L451.25 400.371Z" fill="#3B1411"/>
<path d="M413.213 410.963C414.082 422.089 413.826 433.275 412.448 444.35C412.305 445.447 412.464 446.562 412.907 447.575C413.351 448.589 414.062 449.462 414.965 450.1C420.125 453.698 426.456 455.209 432.684 454.329C434.185 454.088 435.538 453.288 436.472 452.089C437.406 450.89 437.851 449.382 437.718 447.869C437.13 440.732 436.928 433.568 437.112 426.41C431.028 418.69 422.571 413.976 413.213 410.967" fill="#BF6D3E"/>
<path d="M437.113 426.401C431.029 418.682 422.572 413.97 413.213 410.959C413.441 413.885 413.589 416.815 413.659 419.749C417.339 432.111 426.945 439.796 437.393 442.826C437.085 437.421 436.983 432.086 437.113 426.402" fill="#80410E"/>
<path d="M452.558 392.832C454.629 408.356 451.384 434.947 439.664 436.153C425.886 437.57 417.428 425.309 414.354 414.017C414.408 414.21 413.093 414.942 411.752 414.863C410.426 414.786 408.668 413.222 407.939 412.135C406.536 410.036 405.106 406.763 406.618 404.36C408.432 401.471 412.451 400.879 414.146 404.276C414.019 398.628 415.855 393.398 417.813 388.122C418.123 387.265 418.62 386.487 419.267 385.843C419.914 385.2 420.695 384.708 421.554 384.402C429.917 381.638 438.919 381.455 447.388 383.877C448.377 384.187 449.273 384.739 449.994 385.483C450.715 386.228 451.239 387.141 451.517 388.14C451.972 389.679 452.32 391.248 452.558 392.835" fill="#BF6D3E"/>
<path d="M435.949 393.8C433.449 390.628 426.577 392.817 424.045 394.854C423.584 395.227 423.026 395.703 423.081 396.36C423.086 396.526 423.143 396.686 423.243 396.818C423.344 396.95 423.483 397.047 423.642 397.095C424.417 397.318 425.156 396.674 425.803 396.335C427.725 395.324 429.905 394.906 432.065 395.134C433.211 395.255 434.315 395.791 435.468 395.618C436.373 395.483 436.385 394.359 435.948 393.801" fill="#3B1411"/>
<path d="M432.293 399.363C432.231 399.175 432.123 399.006 431.978 398.872C431.844 398.726 431.674 398.617 431.485 398.557C431.306 398.462 431.104 398.417 430.902 398.425L430.497 398.481C430.241 398.549 430.008 398.684 429.822 398.872L429.584 399.181C429.448 399.414 429.376 399.679 429.377 399.95V400.116C429.368 400.319 429.413 400.52 429.508 400.7C429.576 400.884 429.684 401.052 429.823 401.191C429.963 401.331 430.13 401.438 430.315 401.507C430.495 401.601 430.696 401.647 430.898 401.638L431.303 401.585C431.559 401.514 431.792 401.379 431.978 401.191C432.062 401.09 432.137 400.985 432.216 400.882C432.353 400.649 432.425 400.383 432.423 400.113V399.946C432.433 399.744 432.388 399.542 432.293 399.363Z" fill="#3B1411"/>
<path d="M448.988 400.309C448.927 400.122 448.819 399.952 448.673 399.819C448.376 399.547 447.992 399.389 447.59 399.371L447.185 399.427C446.93 399.496 446.697 399.631 446.51 399.819L446.273 400.127C446.136 400.36 446.064 400.626 446.065 400.896V401.063C446.057 401.265 446.102 401.467 446.196 401.646C446.315 401.919 446.51 402.152 446.756 402.318C447.003 402.484 447.293 402.577 447.59 402.584L447.995 402.531C448.251 402.461 448.483 402.325 448.67 402.137L448.908 401.829C449.044 401.595 449.116 401.33 449.115 401.059V400.893C449.125 400.69 449.079 400.489 448.984 400.309" fill="#3B1411"/>
<path d="M452.01 396.004C451.666 395.466 451.215 395.005 450.684 394.65C450.154 394.295 449.555 394.054 448.927 393.942C447.749 393.612 446.506 393.589 445.316 393.873C445.052 393.948 444.823 394.116 444.673 394.345C444.523 394.575 444.46 394.851 444.498 395.123C444.622 396.051 445.408 396.082 446.143 396.092C447.12 396.078 448.09 396.259 448.998 396.622C449.614 396.884 452.851 398.503 452.202 396.456C452.151 396.299 452.088 396.147 452.013 396" fill="#3B1411"/>
<path d="M437.768 426.401C437.276 426.331 436.777 426.331 436.285 426.401C435.848 426.401 435.411 426.373 434.977 426.318C434.521 426.252 434.07 426.161 433.625 426.044C433.161 425.862 432.669 425.762 432.171 425.748C432.056 425.752 431.945 425.789 431.851 425.854C431.757 425.919 431.684 426.01 431.64 426.116C431.596 426.222 431.583 426.338 431.604 426.451C431.624 426.564 431.676 426.668 431.754 426.752C432.137 427.144 432.628 427.413 433.163 427.527C433.646 427.691 434.142 427.811 434.646 427.887C435.172 427.972 435.703 428.021 436.235 428.033C436.817 428.109 437.408 428.032 437.951 427.811C438.078 427.732 438.18 427.617 438.245 427.482C438.309 427.346 438.333 427.195 438.313 427.047C438.294 426.898 438.232 426.758 438.135 426.643C438.038 426.529 437.911 426.445 437.768 426.401Z" fill="#804E26"/>
<path d="M412.892 410.102C412.767 410.146 412.635 410.165 412.502 410.157C412.37 410.148 412.241 410.113 412.123 410.053C412.005 409.993 411.9 409.909 411.816 409.808C411.731 409.706 411.668 409.588 411.63 409.461C411.616 409.326 411.633 409.189 411.679 409.061C411.725 408.932 411.799 408.816 411.896 408.72C411.976 408.618 412.078 408.534 412.194 408.475C412.311 408.416 412.438 408.383 412.568 408.378C412.662 408.376 412.753 408.354 412.836 408.311C412.919 408.269 412.991 408.209 413.048 408.134C413.104 408.06 413.142 407.974 413.16 407.883C413.178 407.791 413.175 407.697 413.152 407.607C412.696 405.975 411.391 404.309 409.511 404.497C409.098 404.528 408.7 404.668 408.359 404.902C408.017 405.136 407.743 405.457 407.564 405.83C407.4 406.189 407.364 406.592 407.463 406.974C407.519 407.196 407.797 407.769 408.114 407.484C408.301 407.317 408.243 407.062 408.303 406.841C408.367 406.608 408.468 406.387 408.603 406.186C408.741 405.995 408.929 405.846 409.146 405.755C409.363 405.663 409.601 405.633 409.834 405.668C410.279 405.745 410.695 405.942 411.035 406.239C411.376 406.536 411.628 406.921 411.764 407.351C411.328 407.539 410.972 407.876 410.762 408.302C410.551 408.728 410.499 409.214 410.614 409.675C410.768 410.201 411.121 410.646 411.598 410.915C412.075 411.185 412.638 411.258 413.168 411.119C413.817 410.922 413.529 409.89 412.889 410.105" fill="#804E26"/>
<path d="M445.15 408.16C444.396 407.559 443.604 407.007 442.779 406.508C442.379 406.269 442.06 405.916 441.862 405.494C441.665 405.071 441.599 404.6 441.672 404.139C441.744 403.415 440.77 403.328 440.429 403.806C439.393 405.258 440.806 407.063 441.965 407.905C442.705 408.342 443.409 408.837 444.071 409.385C444.613 409.935 445.016 410.606 445.247 411.343C445.491 412.074 445.551 412.854 445.42 413.614C445.289 414.374 444.972 415.089 444.497 415.697C443.437 417.023 442.017 417.372 440.458 417.77C440.354 417.802 440.263 417.867 440.198 417.955C440.134 418.042 440.099 418.148 440.099 418.257C440.099 418.366 440.134 418.472 440.198 418.56C440.263 418.647 440.354 418.712 440.458 418.744C442.077 419.235 443.908 418.357 445.103 417.305C445.75 416.73 446.265 416.023 446.614 415.231C446.962 414.438 447.135 413.58 447.121 412.715C447.111 411.863 446.932 411.022 446.595 410.241C446.257 409.459 445.766 408.752 445.153 408.162" fill="#80410E"/>
<path d="M439.933 423.262C437.524 423.973 434.951 423.893 432.591 423.035C430.231 422.176 428.208 420.583 426.82 418.49C426.721 418.337 426.686 418.151 426.724 417.973C426.761 417.795 426.868 417.638 427.021 417.539C427.174 417.44 427.36 417.405 427.539 417.443C427.717 417.48 427.873 417.587 427.973 417.74C429.192 419.584 430.97 420.988 433.046 421.747C435.122 422.506 437.386 422.579 439.507 421.955C440.355 421.705 440.783 423.011 439.933 423.262Z" fill="#3B1411"/>
<path d="M481.158 469.787C482.218 490.342 484.083 510.832 486.751 531.256C487.499 536.975 488.31 542.684 489.184 548.384C489.317 549.258 487.944 549.312 487.811 548.444C484.694 528.101 482.378 507.656 480.863 487.111C480.441 481.358 480.082 475.602 479.785 469.843C479.785 469.666 479.853 469.495 479.975 469.367C480.098 469.239 480.265 469.163 480.443 469.155C480.62 469.147 480.793 469.208 480.926 469.325C481.06 469.442 481.142 469.606 481.158 469.783" fill="#1B94C7"/>
<path d="M329.688 301.59C328.024 300.78 326.632 299.504 325.678 297.919C324.725 296.333 324.251 294.505 324.316 292.656C324.38 290.807 324.978 289.017 326.039 287.501C327.1 285.985 328.578 284.81 330.293 284.117C330.883 278.2 336.239 273.568 342.093 272.533C337.894 282.228 335.188 292.502 334.067 303.007L329.688 301.59Z" fill="#BF6D3E"/>
<path d="M334.427 275.401C332.289 276.204 331.563 278.541 331.093 280.563C330.923 281.776 330.486 282.936 329.813 283.959C329.023 284.947 327.735 285.39 326.72 286.093C325.698 286.762 324.834 287.646 324.19 288.685C323.546 289.723 323.136 290.889 322.991 292.103C322.698 294.842 323.691 297.549 324.633 300.07C324.944 300.897 326.158 300.248 325.85 299.429C324.963 297.058 324.01 294.445 324.4 291.871C324.783 289.339 326.598 287.69 328.718 286.486C329.66 286.019 330.48 285.34 331.115 284.503C331.647 283.657 332.022 282.723 332.224 281.744C332.691 279.87 332.991 277.396 335.064 276.618C335.891 276.308 335.244 275.096 334.424 275.4" fill="#80410E"/>
<path d="M678.493 393.37C683.417 394.848 687.832 397.668 691.244 401.513C694.656 405.359 696.93 410.079 697.811 415.144C698.183 417.477 698.291 419.977 699.623 421.927C701.039 423.996 703.722 425.266 704.277 427.71C704.868 430.313 702.722 433.2 703.958 435.562C705.217 437.972 709.104 437.979 710.313 440.411C711.651 443.108 708.614 446.462 709.842 449.212C710.958 451.712 714.503 451.66 716.852 453.07C719.023 454.372 720.116 457.028 720.102 459.56C719.966 462.098 719.245 464.571 717.994 466.784C711.226 480.175 697.458 489.292 682.757 492.296C668.055 495.299 652.59 492.655 638.75 486.853C635.458 485.471 632.121 483.825 629.911 481.02C627.701 478.215 626.951 473.965 629.078 471.095C629.877 470.017 631.023 469.186 631.592 467.972C633.597 463.691 627.22 459.345 628.167 454.712C628.678 452.206 631.127 450.677 633.222 449.212C635.317 447.747 637.461 445.507 636.918 443.007C636.653 441.776 635.76 440.757 635.468 439.531C634.718 436.353 638.038 433.905 640.135 431.401C643.873 426.941 644.095 420.633 644.819 414.859C646.819 398.928 662.879 388.931 678.491 393.372" fill="#96432A"/>
<path d="M678.235 399.047C682.88 400.442 687.045 403.102 690.264 406.73C693.483 410.357 695.628 414.809 696.46 419.587C696.812 421.789 696.912 424.145 698.169 425.985C699.503 427.938 702.038 429.136 702.56 431.442C703.117 433.895 701.093 436.619 702.258 438.849C703.447 441.122 707.114 441.126 708.253 443.422C709.515 445.966 706.651 449.132 707.808 451.726C708.862 454.086 712.205 454.035 714.422 455.365C715.41 456.041 716.21 456.958 716.747 458.029C717.284 459.1 717.539 460.29 717.489 461.487C717.362 463.881 716.681 466.213 715.502 468.3C709.117 480.932 696.128 489.534 682.263 492.368C668.397 495.202 653.802 492.702 640.749 487.232C637.643 485.93 634.499 484.375 632.411 481.732C630.323 479.09 629.618 475.076 631.621 472.368C632.371 471.353 633.454 470.569 633.992 469.423C635.883 465.384 629.868 461.284 630.762 456.915C631.243 454.55 633.553 453.109 635.529 451.723C637.506 450.337 639.529 448.23 639.018 445.872C638.768 444.711 637.922 443.747 637.65 442.592C636.941 439.592 640.074 437.282 642.053 434.926C645.581 430.717 645.788 424.769 646.47 419.322C648.359 404.293 663.507 394.865 678.233 399.052" fill="#6C301E"/>
<path d="M770.373 432.716C770.342 431.836 770.089 430.977 769.638 430.22C769.186 429.464 768.55 428.834 767.789 428.39C766.257 427.519 764.573 426.95 762.827 426.715C757.77 425.757 752.639 425.247 747.493 425.19C746.202 425.182 744.949 425.626 743.95 426.444C742.952 427.262 742.27 428.403 742.023 429.67C741.737 430.968 741.542 432.284 741.44 433.61C737.951 436.002 738.083 441.415 738.673 445.604C730.547 452.783 717.256 462.961 706.744 465.62C696.233 468.278 684.994 472.673 679.941 482.266C676.433 488.919 676.6 496.831 676.918 504.345C677.15 509.815 677.711 516.005 684.905 517.798C687.179 518.313 689.538 518.326 691.817 517.835C706.537 514.988 715.938 502.251 728.742 494.559C740.97 487.212 753.425 479.358 761.624 467.685C769.823 456.011 778.163 444.666 770.374 432.717" fill="#FF941E"/>
<path d="M771.658 451.173C774.106 445.096 774.465 438.99 770.374 432.716C770.344 431.835 770.092 430.977 769.64 430.22C769.188 429.463 768.552 428.834 767.791 428.39C766.259 427.519 764.575 426.95 762.828 426.715C757.772 425.756 752.641 425.246 747.495 425.19C746.204 425.182 744.951 425.625 743.952 426.443C742.953 427.262 742.272 428.403 742.025 429.67C741.739 430.968 741.544 432.284 741.442 433.61C737.953 436 738.085 441.415 738.677 445.602C730.548 452.781 717.26 462.96 706.748 465.618C696.237 468.276 684.998 472.671 679.943 482.265C676.438 488.917 676.602 496.829 676.921 504.343C676.974 505.566 677.048 506.825 677.202 508.063C711.778 496.646 747.054 478.685 771.659 451.173" fill="#F89939"/>
<path d="M677.2 508.062C677.738 512.36 679.321 516.404 684.907 517.797C687.181 518.311 689.539 518.324 691.818 517.834C706.539 514.987 715.94 502.25 728.744 494.558C740.972 487.211 753.429 479.357 761.628 467.684C765.523 462.139 769.444 456.668 771.658 451.172C747.051 478.684 711.777 496.649 677.201 508.062" fill="#F88108"/>
<path d="M744.728 380.264L743.478 428.374C743.424 430.087 744.027 431.756 745.166 433.038C746.304 434.319 747.89 435.116 749.598 435.264C753.143 435.535 756.696 434.862 759.898 433.315C761.177 432.686 762.222 431.665 762.88 430.4C763.538 429.135 763.774 427.693 763.553 426.284L756.553 379.388C752.591 379.118 748.61 379.413 744.73 380.264" fill="#FFC9B9"/>
<path d="M754.767 455.913C752.02 455.484 749.387 454.512 747.021 453.052C744.655 451.593 742.604 449.675 740.988 447.413C740.474 446.693 739.466 447.63 739.975 448.341C741.711 450.738 743.908 452.764 746.438 454.3C748.968 455.835 751.779 456.85 754.707 457.283C755.581 457.414 755.634 456.041 754.767 455.911" fill="#A86114"/>
<path d="M758.343 439.074C754.157 439.092 750.046 437.972 746.447 435.835C745.687 435.384 744.941 436.538 745.702 436.992C749.507 439.259 753.856 440.453 758.285 440.447C759.168 440.447 759.232 439.072 758.345 439.075" fill="#A86114"/>
<path d="M673.214 461.094C663.955 458.648 654.159 459.208 645.239 462.694C641.101 464.324 636.661 467.476 636.83 471.921C636.976 475.776 640.546 478.531 643.943 480.362C656.643 487.149 671.364 489.133 685.408 485.95C692.169 484.391 698.895 478.788 692.831 472.219C687.81 466.779 680.279 462.981 673.213 461.094" fill="#FF941E"/>
<path d="M643.712 477.859C633.896 479.427 625.949 487.412 620.183 496.181C614.418 504.95 610.143 514.848 603.82 523.149C598.626 529.969 592.132 535.596 587.487 542.865C582.842 550.134 580.282 559.987 584.058 567.831C587.653 575.302 596.001 578.761 603.763 578.855C609.408 578.922 615.455 577.288 619.122 572.624C621.855 569.15 622.913 564.391 622.754 559.824C622.722 558.899 622.645 557.98 622.529 557.068C622.231 554.496 622.517 551.891 623.367 549.446C624.217 547.001 625.608 544.779 627.436 542.947C628.54 541.805 629.554 540.579 630.468 539.28C636.806 530.419 642.718 520.947 645.772 510.233C648.825 499.519 648.978 487.512 643.713 477.861" fill="#FF941E"/>
<path d="M644.873 513.014C645.184 512.093 645.498 511.172 645.767 510.231C648.817 499.514 648.975 487.51 643.711 477.859C633.895 479.427 625.948 487.414 620.183 496.181C614.417 504.948 610.142 514.848 603.819 523.149C598.625 529.969 592.129 535.598 587.481 542.867C582.833 550.136 580.278 559.989 584.054 567.83C587.65 575.301 595.995 578.762 603.759 578.854C609.405 578.923 615.452 577.287 619.118 572.626C621.852 569.15 622.909 564.39 622.751 559.824C622.719 558.899 622.643 557.98 622.524 557.068C622.498 556.86 622.503 556.656 622.486 556.449C620.601 552.392 618.304 548.541 615.63 544.955C626.725 535.94 637.119 525.173 644.875 513.014" fill="#F89939"/>
<path d="M615.628 544.955C618.302 548.541 620.599 552.392 622.484 556.448C622.287 553.974 622.628 551.487 623.482 549.157C624.336 546.827 625.683 544.709 627.432 542.948C628.534 541.805 629.548 540.579 630.464 539.281C636.245 531.198 641.649 522.596 644.872 513.016C637.117 525.175 626.724 535.942 615.628 544.957" fill="#A86114"/>
<path d="M686.087 632C691.379 625.596 695.804 619.01 696.593 614.157L625.813 601.098C623.598 606.859 620.303 612.711 618.604 618.623C639.912 626.597 663.735 632.289 686.088 632.001" fill="#1B94C7"/>
<path d="M675.866 891.781L690.55 891.379C694.641 895.637 719.281 900.994 720.708 906.721H672.473C672.987 901.621 674.126 896.604 675.866 891.782" fill="#21A9E1"/>
<path d="M720.71 906.719C720.847 907.267 720.988 907.815 721.096 908.37C721.138 908.574 721.134 908.784 721.085 908.986C721.036 909.187 720.942 909.376 720.812 909.537C720.681 909.698 720.516 909.829 720.329 909.918C720.142 910.008 719.937 910.055 719.729 910.056H673.698C673.506 910.057 673.316 910.018 673.14 909.942C672.964 909.865 672.805 909.754 672.674 909.613C672.543 909.473 672.442 909.307 672.378 909.126C672.314 908.945 672.288 908.753 672.302 908.561C672.348 907.946 672.411 907.332 672.475 906.72L720.71 906.719Z" fill="#465A94"/>
<path d="M711.811 609.574C690.502 617.548 680.638 614.445 658.286 614.158C656.333 626.773 664.146 653.694 664.146 653.694L665.052 673.412H719.663C719.438 651.058 717.296 628.647 711.81 609.578" fill="#1B94C7"/>
<path d="M665.052 673.412L665.679 682.779L719.084 683.391C719.551 680.086 719.743 676.749 719.66 673.412H665.052Z" fill="#006CB0"/>
<path d="M652.878 891.781L638.195 891.379C634.102 895.637 627.338 900.994 625.909 906.721H656.27C655.756 901.621 654.617 896.604 652.878 891.782" fill="#21A9E1"/>
<path d="M625.909 906.719C625.773 907.267 625.633 907.815 625.523 908.37C625.481 908.574 625.485 908.784 625.534 908.986C625.583 909.187 625.677 909.376 625.808 909.537C625.938 909.698 626.103 909.829 626.29 909.918C626.478 910.008 626.682 910.055 626.89 910.056H655.045C655.237 910.057 655.427 910.018 655.603 909.942C655.78 909.865 655.938 909.754 656.069 909.613C656.201 909.473 656.301 909.307 656.365 909.126C656.429 908.945 656.455 908.753 656.442 908.561C656.394 907.946 656.334 907.332 656.27 906.72L625.909 906.719Z" fill="#465A94"/>
<path d="M665.084 653.69C672.543 646.919 679.558 639.674 686.084 631.999C663.73 632.286 639.908 626.595 618.598 618.621C613.479 636.42 610.965 654.831 610.211 673.408H664.175L665.084 653.69Z" fill="#21A9E1"/>
<path d="M610.212 673.412C609.859 676.73 609.873 680.076 610.253 683.391H664.176V673.412H610.212Z" fill="#0081C9"/>
<path d="M706.059 561.311C706.149 535.12 708.906 513.858 709.955 487.681C710.071 484.798 709.18 481.525 706.669 480.242C669.24 461.135 641.586 476.622 635.496 481.042C633.966 482.17 632.827 483.749 632.238 485.557C631.649 487.365 631.64 489.312 632.213 491.125C639.018 512.858 638.448 532.964 634.826 555.438C631.993 572.995 613.093 593.621 617.848 616.284C647.983 629.784 684.098 628.451 717.139 622.151C725.917 606.412 706.006 575.6 706.056 561.309" fill="#F89939"/>
<path d="M661.74 438.352C663.116 449.241 663.741 460.211 663.61 471.186C663.562 472.201 663.723 473.215 664.083 474.166C664.444 475.116 664.996 475.982 665.705 476.71C669.372 479.97 673.836 481.206 677.86 480.004C679.908 479.394 681.163 476.478 680.764 473.413C679.854 466.377 679.246 459.677 678.828 452.359C674.838 445.928 668.829 441.003 661.74 438.352Z" fill="#FFC9B9"/>
<path d="M678.828 452.359C674.838 445.929 668.828 441.002 661.74 438.352C662.1 441.213 662.408 444.084 662.665 446.964C667.082 455.754 673.353 464.487 680.188 468.481C679.594 463.186 679.144 457.949 678.828 452.359Z" fill="#FFAB90"/>
<path d="M705.25 618.354C695.226 621.241 684.88 622.862 674.453 623.18C664.025 623.503 653.597 622.537 643.407 620.303C637.657 619.036 632.004 617.363 626.49 615.297C625.657 614.986 625.24 616.297 626.066 616.606C635.906 620.279 646.165 622.713 656.607 623.851C667.1 624.998 677.695 624.844 688.15 623.393C694.032 622.575 699.849 621.339 705.555 619.694C706.401 619.45 706.103 618.111 705.248 618.353" fill="#A86114"/>
<path d="M690.921 418.029C694.754 434.937 690.358 454.618 685.898 455.308C671.107 457.598 661.272 443.781 661.177 443.608C661.271 443.781 659.056 444.996 657.752 445.231C656.467 445.464 654.418 444.378 653.47 443.507C651.637 441.823 649.512 439.022 650.397 436.373C651.459 433.183 656.278 431.623 658.692 434.479C663.192 425.747 659.298 421.204 659.108 414.853C666.427 409.128 675.924 406.631 685.402 407.329C686.985 407.445 690.563 416.468 690.917 418.03" fill="#FFC9B9"/>
<path d="M673.808 425.614C673.699 425.453 673.557 425.318 673.391 425.218C673.226 425.117 673.041 425.053 672.848 425.03C672.653 424.981 672.448 424.985 672.255 425.041L671.88 425.189C671.652 425.314 671.462 425.497 671.328 425.719C671.274 425.837 671.223 425.953 671.171 426.071C671.094 426.326 671.087 426.598 671.149 426.857L671.188 427.014C671.226 427.211 671.316 427.394 671.449 427.544C671.559 427.704 671.701 427.839 671.866 427.939C672.031 428.04 672.216 428.104 672.408 428.128C672.604 428.177 672.808 428.173 673.002 428.117L673.378 427.969C673.605 427.843 673.795 427.66 673.931 427.439C673.983 427.321 674.036 427.205 674.088 427.088C674.165 426.833 674.171 426.562 674.107 426.304L674.07 426.145C674.029 425.949 673.939 425.766 673.807 425.614" fill="#3B1411"/>
<path d="M688.25 423.062C688.148 422.897 688.004 422.76 687.833 422.666C687.671 422.557 687.484 422.492 687.289 422.477C687.094 422.429 686.889 422.432 686.696 422.488L686.321 422.636C686.093 422.761 685.903 422.944 685.768 423.167C685.715 423.284 685.663 423.4 685.612 423.517C685.535 423.773 685.528 424.044 685.59 424.303L685.628 424.46C685.737 424.84 685.978 425.169 686.308 425.387C686.469 425.496 686.655 425.561 686.849 425.576C687.044 425.625 687.249 425.621 687.443 425.565L687.819 425.417C688.046 425.291 688.236 425.108 688.372 424.887C688.423 424.769 688.477 424.653 688.528 424.535C688.605 424.28 688.612 424.009 688.548 423.751L688.509 423.592C688.47 423.396 688.38 423.212 688.248 423.062" fill="#3B1411"/>
<path d="M657.739 440.408C657.63 440.48 657.508 440.529 657.38 440.551C657.251 440.574 657.12 440.57 656.993 440.54C656.866 440.511 656.746 440.455 656.642 440.378C656.537 440.3 656.449 440.202 656.383 440.089C656.339 439.963 656.323 439.828 656.337 439.694C656.352 439.561 656.396 439.432 656.467 439.318C656.52 439.201 656.597 439.098 656.695 439.014C656.792 438.93 656.907 438.869 657.03 438.834C657.119 438.811 657.202 438.768 657.272 438.708C657.342 438.649 657.397 438.574 657.434 438.489C657.471 438.405 657.489 438.313 657.485 438.221C657.481 438.129 657.457 438.04 657.413 437.958C656.595 436.504 654.961 435.208 653.203 435.829C652.815 435.956 652.468 436.182 652.195 436.485C651.923 436.788 651.735 437.157 651.65 437.556C651.576 437.937 651.635 438.331 651.817 438.674C651.924 438.873 652.324 439.358 652.56 439.008C652.699 438.802 652.583 438.575 652.592 438.35C652.598 438.112 652.643 437.876 652.724 437.652C652.812 437.437 652.958 437.25 653.144 437.112C653.331 436.974 653.551 436.889 653.783 436.868C654.227 436.838 654.671 436.932 655.066 437.138C655.461 437.343 655.792 437.653 656.023 438.034C655.649 438.315 655.387 438.72 655.284 439.176C655.181 439.632 655.243 440.111 655.46 440.525C655.73 440.993 656.172 441.337 656.691 441.484C657.211 441.631 657.767 441.57 658.243 441.313C658.817 440.975 658.3 440.054 657.743 440.409" fill="#FFAB90"/>
<path d="M675.945 416.721C672.844 417.016 669.886 418.166 667.401 420.043C666.694 420.573 667.607 421.602 668.311 421.073C670.616 419.361 673.35 418.323 676.21 418.073C676.388 418.036 676.545 417.931 676.646 417.78C676.747 417.629 676.785 417.444 676.752 417.265C676.713 417.088 676.607 416.933 676.457 416.832C676.306 416.731 676.123 416.692 675.944 416.723" fill="#6C301E"/>
<path d="M689.872 417.069C689.133 416.366 688.236 415.852 687.257 415.571C686.277 415.289 685.244 415.248 684.245 415.452C684.066 415.487 683.909 415.592 683.807 415.743C683.705 415.895 683.668 416.08 683.703 416.259C683.739 416.438 683.844 416.596 683.995 416.697C684.146 416.799 684.332 416.836 684.511 416.801C684.722 416.755 684.936 416.722 685.152 416.7C685.167 416.7 685.235 416.693 685.246 416.693L685.34 416.689C685.443 416.689 685.543 416.689 685.647 416.689C685.862 416.696 686.076 416.716 686.289 416.747C686.347 416.755 686.403 416.766 686.456 416.774L686.527 416.789C686.55 416.793 686.636 416.815 686.647 416.817C686.703 416.829 686.758 416.844 686.813 416.859C687.01 416.915 687.203 416.982 687.397 417.056C687.491 417.094 687.585 417.139 687.678 417.178L687.718 417.196L687.736 417.207L687.886 417.29C688.063 417.391 688.235 417.5 688.402 417.617C688.494 417.684 688.583 417.752 688.672 417.825C688.698 417.847 688.725 417.867 688.755 417.892L688.849 417.979C688.973 418.111 689.142 418.191 689.322 418.202C689.503 418.213 689.681 418.155 689.819 418.039C689.955 417.918 690.037 417.748 690.048 417.566C690.06 417.385 689.999 417.206 689.879 417.069" fill="#6C301E"/>
<path d="M684.918 446.729L680.418 447.384C680.239 447.421 680.083 447.526 679.981 447.677C679.88 447.828 679.842 448.013 679.876 448.192C679.915 448.369 680.021 448.524 680.171 448.625C680.321 448.725 680.505 448.764 680.683 448.733L685.183 448.078C685.362 448.042 685.518 447.937 685.62 447.786C685.721 447.635 685.759 447.45 685.725 447.271C685.686 447.094 685.58 446.939 685.43 446.838C685.28 446.737 685.096 446.698 684.918 446.729Z" fill="#FFAB90"/>
<path d="M686.83 433.599C686.29 432.874 685.573 432.3 684.747 431.932C684.047 431.669 683.472 431.153 683.134 430.486C683.052 430.324 682.909 430.201 682.737 430.143C682.565 430.085 682.377 430.098 682.213 430.178C682.053 430.263 681.931 430.406 681.874 430.578C681.817 430.75 681.828 430.937 681.905 431.101C682.462 432.633 684.143 432.907 685.257 433.865C685.507 434.018 685.688 434.261 685.764 434.544C685.84 434.827 685.804 435.128 685.663 435.386C685.247 436.071 684.473 436.469 683.927 437.035C683.794 437.158 683.714 437.327 683.703 437.508C683.691 437.688 683.75 437.866 683.867 438.005C683.988 438.14 684.158 438.222 684.339 438.233C684.521 438.244 684.699 438.184 684.837 438.065C685.56 437.498 686.22 436.856 686.805 436.148C687.055 435.77 687.19 435.328 687.194 434.875C687.198 434.422 687.071 433.977 686.828 433.595" fill="#FFAB90"/>
<path d="M684.749 442.87C684.665 442.709 684.521 442.588 684.349 442.53C684.177 442.473 683.99 442.484 683.826 442.561C681.832 443.312 679.65 443.408 677.598 442.836C677.425 442.78 677.238 442.793 677.075 442.872C676.912 442.951 676.786 443.09 676.723 443.26C676.665 443.432 676.677 443.621 676.756 443.785C676.835 443.949 676.976 444.075 677.148 444.136C679.552 444.81 682.11 444.689 684.441 443.793C684.603 443.71 684.726 443.567 684.784 443.395C684.842 443.222 684.829 443.033 684.749 442.87Z" fill="#3B1411"/>
<path d="M654.164 579.487C653.491 583.609 652.009 587.558 649.803 591.105C647.596 594.652 644.71 597.727 641.309 600.153C640.589 600.665 641.526 601.674 642.237 601.167C645.772 598.621 648.768 595.399 651.051 591.689C653.334 587.979 654.859 583.852 655.538 579.549C655.677 578.677 654.302 578.624 654.165 579.489" fill="#A86114"/>
<path d="M696.944 577.556L654.743 578.781C653.863 578.807 653.797 580.182 654.681 580.156L696.884 578.928C697.763 578.905 697.831 577.531 696.944 577.556Z" fill="#A86114"/>
<path d="M705.468 594.945C702.791 593.102 700.641 590.593 699.232 587.664C697.823 584.735 697.203 581.489 697.434 578.247C697.503 577.365 696.128 577.305 696.061 578.187C695.821 581.668 696.493 585.152 698.011 588.293C699.53 591.435 701.842 594.126 704.718 596.1C705.453 596.6 706.196 595.44 705.463 594.946" fill="#A86114"/>
<path d="M652.577 585.487L609.953 553.205C609.953 553.205 599.796 558.461 600.291 571.948L646.401 595.605C648.93 592.542 651.011 589.136 652.58 585.487" fill="#FFC9B9"/>
<path d="M610.308 552.71C606.368 554.615 603.118 557.698 601.007 561.532C598.897 565.366 598.031 569.761 598.529 574.109C598.641 574.985 599.982 574.676 599.87 573.802C599.435 569.75 600.267 565.663 602.251 562.104C604.235 558.544 607.273 555.687 610.948 553.925C611.751 553.553 611.114 552.336 610.308 552.709" fill="#A86114"/>
<path d="M617.367 552.535C615.56 550.413 613.135 548.908 610.431 548.229C607.728 547.551 604.88 547.732 602.284 548.749C601.464 549.076 602.111 550.29 602.927 549.965C605.251 549.088 607.791 548.953 610.196 549.58C612.6 550.207 614.751 551.564 616.352 553.465C616.915 554.149 617.926 553.215 617.365 552.535" fill="#A86114"/>
<path d="M637.4 509.636C637.338 508.764 635.963 508.693 636.028 509.576C636.954 522.714 636.611 535.91 635.002 548.982C634.893 549.86 636.268 549.916 636.375 549.042C637.985 535.97 638.329 522.774 637.401 509.636" fill="#A86114"/>
<path d="M684.545 471.923C684.267 471.09 682.923 471.39 683.204 472.23C684.288 475.467 682.626 478.572 680.711 481.108C679.872 482.359 678.879 483.498 677.755 484.499C676.444 485.536 675.088 485.341 673.767 484.433C672.558 483.599 671.488 482.567 670.308 481.693C669.069 480.774 667.779 479.925 666.446 479.149C663.811 477.621 661.022 476.376 658.125 475.435C655.148 474.461 651.198 473.283 650.703 469.643C650.586 468.768 649.245 469.078 649.363 469.95C649.81 473.244 652.858 475.069 655.719 476.087C659.123 477.163 662.422 478.55 665.572 480.231C667.081 481.1 668.533 482.065 669.92 483.118C671.238 484.118 672.437 485.387 673.929 486.126C677.125 487.709 679.393 484.993 681.201 482.709C683.593 479.693 685.874 475.896 684.544 471.923" fill="#A86114"/>
<path d="M662.327 488.884C662.038 488.059 660.693 488.355 660.986 489.191C663.97 497.711 664.791 506.84 663.374 515.756C663.235 516.627 664.61 516.681 664.747 515.816C666.18 506.777 665.35 497.523 662.33 488.884" fill="white"/>
<path d="M686.389 486.912C686.126 486.079 684.781 486.372 685.048 487.219C688.166 497.074 688.691 507.566 686.573 517.682C686.393 518.542 687.7 518.972 687.882 518.107C690.073 507.753 689.559 497.009 686.389 486.912Z" fill="white"/>
<path d="M638.193 891.375L629.784 845.625C626.933 830.107 625.678 797.838 626.043 782.063L626.426 765.396L612.784 683.396H661.437L648.294 767.885L650.044 776.33C653.891 794.896 655.435 830.366 654.645 849.311L652.872 891.778L638.193 891.375Z" fill="#FFC9B9"/>
<path d="M719.084 683.39L690.549 891.372H675.866L673.382 835.159C672.667 819.001 675.04 786.352 680.372 771.083L667.763 682.801L719.084 683.39Z" fill="#FFC9B9"/>
<path d="M661.435 683.391H612.783L613.518 687.807H660.748L661.435 683.391Z" fill="#FFAB90"/>
<path d="M648.298 767.884L660.749 687.801H613.519L626.426 765.384L626.043 782.057C625.678 797.829 626.933 830.098 629.784 845.616L638.193 891.366L652.876 891.771L654.649 849.304C655.439 830.359 653.893 794.887 650.048 776.321L648.298 767.884Z" fill="#FFC9B9"/>
<path d="M719.084 683.39L667.763 682.801L668.478 687.807H718.478L719.084 683.39Z" fill="#FFAB90"/>
<path d="M668.478 687.805L680.368 771.084C675.034 786.356 672.663 819.001 673.378 835.157L675.865 891.375H690.549L718.478 687.805H668.478Z" fill="#FFC9B9"/>
<path d="M756.735 382.17V382.046L765.095 366.395L756.123 359.584L747.243 362.983L745.653 376.042C745.118 377.802 744.83 379.627 744.797 381.466L756.735 382.17Z" fill="#FFC9B9"/>
<path d="M755.123 203.873L786.023 266.481L855.115 276.522L805.12 325.256L816.922 394.071L755.123 361.582L693.324 394.072L705.126 325.256L655.131 276.523L724.225 266.482L755.123 203.873Z" fill="#FEB12F"/>
<path d="M682.749 272.509L655.137 276.521L705.132 325.257L693.33 394.07L755.129 361.58L816.928 394.07L806.906 335.673C758.823 333.621 711.062 311.148 682.745 272.506" fill="#FEA30A"/>
<path d="M747.301 380.347C749.19 379.073 750.445 376.18 750.373 373.279C750.3 370.377 748.903 367.612 746.956 366.521C746.623 361.839 743.557 358.172 740.211 357.35C742.643 365.19 744.181 373.279 744.798 381.465L747.301 380.347Z" fill="#FFC9B9"/>
<path d="M744.592 359.623C745.815 360.257 746.228 362.107 746.496 363.706C746.585 364.638 746.832 365.548 747.228 366.396C747.68 367.176 748.415 367.529 748.995 368.084C750.269 369.351 751.029 371.044 751.128 372.839C751.176 374.979 750.858 377.111 750.188 379.144C750.013 379.799 749.317 379.286 749.493 378.637C750.137 376.712 750.42 374.685 750.326 372.657C750.235 371.813 749.968 370.998 749.542 370.264C749.117 369.53 748.542 368.893 747.856 368.394C747.283 367.985 746.814 367.447 746.485 366.824C746.175 366.13 745.962 365.396 745.851 364.644C745.585 363.159 745.414 361.199 744.228 360.584C743.754 360.34 744.125 359.381 744.593 359.623" fill="#FFAB90"/>
<path d="M678.781 408.416C677.519 409.989 675.562 411.104 673.745 412.282C671.928 413.459 670.136 414.818 669.432 416.595C668.639 418.602 669.368 420.769 669.28 422.873C669.163 424.341 668.709 425.763 667.954 427.028C667.199 428.293 666.163 429.367 664.926 430.168C662.065 432.046 658.654 432.905 655.245 432.607C654.874 426.012 654.603 419.044 658.535 413.232C661.099 409.439 665.447 406.47 670.457 404.87C674.68 403.521 683.64 402.37 678.783 408.415" fill="#6C301E"/>
<path d="M194.594 427.01C192.465 429.732 190.428 432.328 188.561 434.581C176.324 437.173 172.508 440.981 167.403 452.401L176.328 495.951C194.087 489.779 207.628 472.273 219.448 457.653C220.459 456.402 221.45 455.165 222.421 453.943C221.479 453.895 220.541 453.785 219.613 453.616C207.01 451.515 196.023 439.782 194.594 427.01Z" fill="#21A9E1"/>
<path d="M234.88 412.817C232.999 406.968 228.713 400.724 222.567 400.868C219.225 400.951 216.259 402.958 213.691 405.1C207.839 409.979 200.821 419.048 194.594 427.009C196.023 439.785 207.011 451.516 219.613 453.615C220.541 453.785 221.48 453.894 222.422 453.943C232.76 440.883 240.143 429.183 234.881 412.817" fill="#FFAB91"/>
<path d="M114.342 455.669C114.317 453.903 113.934 452.161 113.218 450.547C112.502 448.933 111.467 447.481 110.175 446.277C107.571 443.883 104.462 442.105 101.078 441.075C93.7748 438.769 85.9704 438.563 78.5551 440.479C65.4939 431.59 52.9176 422.008 40.8801 411.775C33.4434 417.27 25.7051 428.934 19.8751 436.109C42.6901 464.054 72.4642 482.544 106.327 494.988L114.342 455.669Z" fill="#FFAB91"/>
<path d="M114.341 455.67C114.316 453.904 113.934 452.162 113.218 450.548C112.501 448.934 111.466 447.481 110.174 446.278C107.57 443.884 104.461 442.106 101.078 441.076C93.7745 438.77 85.9706 438.564 78.5559 440.48C74.5917 437.786 70.6892 435.003 66.8184 432.18C58.8075 442.42 55.1284 454.736 53.6334 467.687C69.5709 479.099 87.3 488.001 106.325 494.99L114.341 455.67Z" fill="#21A9E1"/>
<path d="M99.8725 492.516C84.7892 480.766 70.33 468.146 55.725 455.893C54.7792 459.776 54.0803 463.716 53.6325 467.688C67.9778 477.815 83.506 486.153 99.8725 492.516Z" fill="#1894C7"/>
<path d="M97.9 611.025C144.796 616.644 144.106 645.859 144.106 645.859L125.168 767.65L111.638 873.766H89.2684C79.7417 734.287 97.9 611.025 97.9 611.025Z" fill="#28A44A"/>
<path d="M131.504 644.186C131.504 644.186 110.643 629.631 108.201 616.896L186.507 619.929C186.507 619.929 199.6 784.397 199.268 873.762H177.083L131.504 644.186Z" fill="#259B45"/>
<path d="M197.43 873.764C197.423 877.085 197.403 880.318 197.366 883.42H179.663L178.676 873.764H197.43Z" fill="#FFAB91"/>
<path d="M109.793 873.764C109.787 877.085 109.766 880.318 109.727 883.42H92.0234L91.0359 873.764H109.793Z" fill="#FFAB91"/>
<path d="M115.373 629.697C111.233 625.17 107.609 620.003 106.669 615.103L185.804 611.027C185.804 611.027 186.449 620.291 186.751 624.142C163.156 630.12 139.022 632.354 115.373 629.698" fill="#1D913D"/>
<path d="M178.661 881.976L199.379 881.355C205.238 888.107 209.327 896.208 211.282 904.931H173.874C174.593 897.123 176.198 889.421 178.661 881.976Z" fill="#465A94"/>
<path d="M211.282 904.928C211.474 905.77 211.673 906.611 211.826 907.464C211.896 907.763 211.9 908.074 211.837 908.375C211.775 908.677 211.647 908.96 211.464 909.207C211.28 909.454 211.045 909.658 210.775 909.804C210.504 909.951 210.205 910.036 209.898 910.056H175.603C175.319 910.042 175.042 909.972 174.787 909.847C174.532 909.723 174.305 909.548 174.12 909.332C173.936 909.117 173.797 908.866 173.713 908.595C173.629 908.324 173.601 908.039 173.632 907.757C173.7 906.812 173.783 905.87 173.876 904.924L211.282 904.928Z" fill="#A86114"/>
<path d="M110.908 881.976L90.19 881.355C84.4175 887.899 49.6508 896.13 47.64 904.931H115.698C114.979 897.123 113.373 889.422 110.912 881.977" fill="#465A94"/>
<path d="M47.6375 904.928C47.445 905.77 47.2459 906.611 47.0934 907.464C47.0233 907.763 47.0194 908.074 47.082 908.375C47.1445 908.677 47.272 908.96 47.4555 909.207C47.639 909.454 47.8742 909.658 48.1445 909.804C48.4149 909.951 48.7139 910.036 49.0209 910.056H113.966C114.249 910.042 114.527 909.972 114.782 909.847C115.037 909.723 115.263 909.548 115.448 909.332C115.633 909.117 115.771 908.866 115.855 908.595C115.939 908.324 115.967 908.039 115.937 907.757C115.868 906.812 115.785 905.87 115.693 904.924L47.6375 904.928Z" fill="#A86114"/>
<path d="M181.013 776.577C183.581 771.77 186.268 767.088 188.396 762.017C190.447 756.85 192.198 751.569 193.641 746.201C193.832 745.546 194.686 745.819 194.577 746.483C193.544 752.027 191.906 757.441 189.692 762.627C187.71 767.829 185.102 772.77 181.925 777.341C181.508 777.911 180.689 777.18 181.013 776.574" fill="#A86114"/>
<path d="M99.8242 461.332C99.9976 458.19 101.056 455.161 102.878 452.596C104.7 450.03 107.211 448.032 110.12 446.832C122.718 441.563 136.805 439.824 150.507 440.687C163.072 441.482 175.388 444.343 187.408 448.187C191.212 449.424 194.447 451.982 196.529 455.397C198.61 458.813 199.4 462.861 198.756 466.808C191.287 513.65 188.418 561.11 190.188 608.511C190.308 611.573 190.593 615.984 187.665 616.898C160.737 625.298 122.342 626.68 96.7175 619.856C90.3625 618.161 95.3683 612.299 95.3508 605.721C95.2258 558.648 97.3992 507.916 99.8242 461.332Z" fill="#21A9E1"/>
<path d="M159.031 410.795C158.212 421.289 158.453 431.839 159.753 442.284C159.888 443.318 159.738 444.37 159.319 445.325C158.901 446.28 158.229 447.103 157.378 447.705C152.51 451.101 146.537 452.527 140.661 451.697C139.245 451.47 137.968 450.716 137.086 449.585C136.205 448.454 135.785 447.031 135.911 445.603C136.467 438.871 136.658 432.114 136.483 425.361C142.225 418.081 150.199 413.634 159.026 410.797" fill="#FFAB91"/>
<path d="M136.483 425.363C142.226 418.083 150.2 413.636 159.027 410.799C158.678 415.269 158.525 419.748 158.568 424.237C154.574 435.171 147.343 445.591 137.6 450.136C137.005 449.55 136.546 448.841 136.254 448.058C135.962 447.276 135.846 446.439 135.913 445.606C136.467 438.874 136.658 432.117 136.484 425.364" fill="#FF8A65"/>
<path d="M161.047 408.203C162.259 403.647 163.471 399.092 164.682 394.536C165.316 392.156 165.954 389.675 165.478 387.258C165.003 384.841 163.056 382.522 160.593 382.488C157.309 377.731 152.798 373.953 147.539 371.554C142.28 369.155 136.469 368.225 130.724 368.864C126.758 369.344 122.703 370.69 120.013 373.642C116.905 377.052 116.138 381.982 116.17 386.596C116.208 392.096 118.67 392.68 122.433 396.686C126.016 400.496 130.049 407.27 135.207 408.15C143.758 409.593 152.49 409.611 161.047 408.203Z" fill="#3E2410"/>
<path d="M159.785 408.298C160.882 404.143 161.979 399.988 163.077 395.832C163.651 393.666 164.227 391.399 163.797 389.195C163.367 386.991 161.603 384.877 159.373 384.845C156.416 380.517 152.337 377.075 147.573 374.887C142.809 372.7 137.54 371.85 132.33 372.428C128.738 372.865 125.067 374.095 122.632 376.785C119.818 379.895 119.123 384.392 119.153 388.599C119.188 393.609 121.415 394.148 124.82 397.801C128.065 401.275 131.717 407.45 136.386 408.255C144.128 409.569 152.035 409.585 159.782 408.302" fill="#170D05"/>
<path d="M121.915 393.702C119.962 408.344 125.984 434.269 134.077 434.562C151.351 435.188 155.052 424.334 157.95 413.684C157.901 413.865 159.138 414.558 160.407 414.483C161.657 414.41 163.318 412.936 164.001 411.91C165.324 409.929 166.668 406.84 165.251 404.577C163.539 401.853 159.751 401.295 158.151 404.494C158.268 399.141 156.521 394.185 154.664 389.186C154.378 388.401 153.922 387.688 153.33 387.098C152.737 386.509 152.022 386.057 151.235 385.774C143.151 383.084 134.434 382.958 126.276 385.414C125.526 385.653 124.845 386.068 124.291 386.626C123.737 387.184 123.326 387.868 123.093 388.619C122.569 390.28 122.176 391.98 121.915 393.702Z" fill="#FFAB91"/>
<g style="mix-blend-mode:multiply" opacity="0.37">
<mask id="mask2_536_522" style="mask-type:luminance" maskUnits="userSpaceOnUse" x="124" y="403" width="35" height="32">
<path d="M158.665 403.943H124.51V434.585H158.665V403.943Z" fill="white"/>
</mask>
<g mask="url(#mask2_536_522)">
<path d="M150.387 417.74C141.72 415.39 132.488 416.374 124.511 420.497C126.788 428.369 130.191 434.419 134.077 434.56C150.548 435.158 154.677 425.316 157.537 415.17L158.666 403.945C155.907 408.541 153.148 413.14 150.388 417.741" fill="#170D05"/>
</g>
</g>
<path d="M165.247 404.573C163.818 402.296 160.943 401.542 159.102 403.214L158.665 403.944L157.536 415.17C157.675 414.67 157.814 414.176 157.953 413.682C157.901 413.863 159.141 414.553 160.407 414.481C161.657 414.406 163.318 412.933 164.003 411.907C165.326 409.926 166.669 406.839 165.253 404.573" fill="#FFAB91"/>
<path d="M158.147 404.489C158.267 399.137 156.517 394.181 154.66 389.179C154.373 388.394 153.918 387.682 153.325 387.093C152.733 386.503 152.018 386.052 151.231 385.769C143.147 383.078 134.429 382.952 126.272 385.409C125.523 385.649 124.842 386.066 124.289 386.625C123.736 387.184 123.325 387.869 123.093 388.62C122.571 390.28 122.177 391.978 121.915 393.699C120.9 401.311 122.043 411.969 124.511 420.493C132.488 416.371 141.721 415.39 150.387 417.743C153.147 413.142 155.907 408.543 158.665 403.945L158.695 403.663C158.481 403.917 158.297 404.196 158.147 404.492" fill="#FFAB91"/>
<path d="M158.693 403.659L158.666 403.942L159.103 403.211C158.955 403.349 158.818 403.499 158.693 403.659Z" fill="#FFAB91"/>
<path d="M137.58 394.612C139.938 391.619 146.419 393.684 148.808 395.606C149.244 395.957 149.769 396.407 149.716 397.023C149.711 397.179 149.658 397.33 149.564 397.454C149.469 397.579 149.338 397.67 149.189 397.717C148.457 397.927 147.761 397.319 147.15 396.999C145.337 396.044 143.281 395.649 141.243 395.866C140.159 395.982 139.124 396.485 138.032 396.323C137.179 396.194 137.167 395.134 137.58 394.609" fill="#170D05"/>
<path d="M141.032 399.856C141.097 399.682 141.198 399.525 141.329 399.394C141.46 399.262 141.618 399.161 141.792 399.096C141.962 399.006 142.154 398.963 142.347 398.972L142.73 399.023C142.97 399.091 143.188 399.218 143.364 399.394C143.439 399.491 143.514 399.587 143.589 399.686C143.718 399.906 143.786 400.157 143.786 400.412V400.566C143.794 400.759 143.751 400.95 143.662 401.121C143.597 401.294 143.495 401.452 143.364 401.583C143.233 401.714 143.075 401.816 142.902 401.881C142.731 401.97 142.539 402.013 142.347 402.005L141.963 401.953C141.724 401.886 141.505 401.758 141.329 401.583L141.104 401.291C140.975 401.071 140.907 400.82 140.907 400.565V400.411C140.899 400.218 140.942 400.027 141.032 399.856Z" fill="#3B1411"/>
<path d="M125.283 400.745C125.348 400.571 125.449 400.413 125.58 400.282C125.711 400.151 125.869 400.05 126.043 399.985C126.213 399.895 126.405 399.852 126.598 399.86L126.981 399.912C127.22 399.979 127.439 400.107 127.615 400.283L127.84 400.575C127.969 400.795 128.036 401.045 128.037 401.3V401.455C128.045 401.647 128.002 401.839 127.913 402.01C127.855 402.187 127.753 402.346 127.615 402.472C127.336 402.729 126.976 402.878 126.598 402.894L126.214 402.842C125.975 402.775 125.756 402.647 125.58 402.471L125.355 402.18C125.226 401.96 125.158 401.71 125.158 401.455V401.3C125.15 401.108 125.193 400.916 125.283 400.745" fill="#3B1411"/>
<path d="M122.433 396.688C122.757 396.18 123.183 395.745 123.683 395.41C124.184 395.074 124.749 394.847 125.342 394.741C126.454 394.432 127.626 394.41 128.749 394.677C128.998 394.749 129.213 394.908 129.355 395.125C129.497 395.342 129.555 395.603 129.52 395.86C129.403 396.736 128.661 396.766 127.968 396.776C127.046 396.763 126.13 396.933 125.275 397.276C124.692 397.526 121.64 399.05 122.255 397.12C122.301 396.971 122.36 396.827 122.433 396.689" fill="#170D05"/>
<path d="M159.329 409.986C159.447 410.028 159.572 410.046 159.697 410.038C159.822 410.031 159.944 409.998 160.055 409.941C160.167 409.884 160.266 409.806 160.345 409.709C160.425 409.613 160.485 409.502 160.52 409.382C160.533 409.254 160.518 409.125 160.475 409.004C160.431 408.883 160.361 408.773 160.27 408.683C160.195 408.587 160.099 408.508 159.99 408.452C159.881 408.396 159.761 408.365 159.638 408.36C159.55 408.358 159.464 408.337 159.385 408.297C159.306 408.257 159.238 408.2 159.184 408.13C159.131 408.06 159.094 407.979 159.077 407.893C159.059 407.806 159.061 407.717 159.083 407.632C159.514 406.094 160.743 404.519 162.519 404.697C162.908 404.728 163.282 404.859 163.604 405.08C163.926 405.3 164.184 405.601 164.353 405.952C164.508 406.292 164.541 406.675 164.447 407.036C164.393 407.246 164.13 407.786 163.834 407.517C163.657 407.357 163.712 407.119 163.654 406.912C163.595 406.691 163.499 406.481 163.372 406.291C163.241 406.111 163.064 405.971 162.859 405.885C162.655 405.799 162.43 405.77 162.211 405.802C161.791 405.876 161.4 406.063 161.079 406.343C160.758 406.623 160.52 406.986 160.39 407.392C160.801 407.568 161.136 407.885 161.336 408.286C161.535 408.686 161.585 409.145 161.478 409.579C161.332 410.075 160.999 410.495 160.549 410.75C160.099 411.004 159.568 411.073 159.068 410.942C158.458 410.757 158.727 409.781 159.331 409.987" fill="#FF8A65"/>
<path d="M116.25 611.085C127.447 612.11 138.718 610.208 148.958 605.566C163.692 598.8 175.335 586.731 181.566 571.764C181.888 570.994 183.033 571.603 182.714 572.368C178.68 581.99 172.423 590.52 164.457 597.258C155.995 604.392 145.857 609.257 134.998 611.394C128.731 612.628 122.319 612.949 115.961 612.349C115.134 612.272 115.428 611.009 116.25 611.086" fill="#1B94C7"/>
<path d="M136.919 454.151C141.354 455.385 146.031 455.467 150.506 454.388C154.981 453.309 159.106 451.104 162.491 447.984C163.095 447.414 164.057 448.288 163.446 448.86C159.905 452.148 155.584 454.476 150.89 455.625C146.197 456.773 141.288 456.703 136.63 455.421C135.831 455.194 136.114 453.928 136.919 454.155" fill="#1B94C7"/>
<path d="M128.788 407.028C129.778 405.82 130.937 404.651 131.213 403.053C131.355 402.233 132.618 402.523 132.477 403.345C131.995 406.132 129.277 407.579 128.343 410.12C128.076 410.828 128.018 411.597 128.174 412.337C128.33 413.076 128.695 413.756 129.224 414.296C129.754 414.835 130.427 415.212 131.163 415.382C131.9 415.553 132.67 415.509 133.383 415.256C133.544 415.209 133.718 415.227 133.867 415.306C134.016 415.385 134.128 415.519 134.18 415.679C134.232 415.84 134.219 416.014 134.144 416.165C134.07 416.316 133.94 416.433 133.781 416.489C132.968 416.756 132.102 416.822 131.258 416.682C130.414 416.542 129.615 416.201 128.931 415.687C128.247 415.173 127.697 414.501 127.328 413.729C126.959 412.957 126.782 412.107 126.812 411.252C126.995 409.666 127.688 408.185 128.788 407.028Z" fill="#FF8A65"/>
<path d="M143.134 420.314C141.909 421.903 140.269 423.123 138.394 423.838C136.519 424.553 134.483 424.736 132.511 424.366C131.652 424.193 131.223 425.5 132.089 425.675C134.351 426.125 136.695 425.931 138.852 425.115C141.009 424.299 142.894 422.894 144.292 421.059C144.823 420.35 143.663 419.609 143.134 420.314Z" fill="#3B1411"/>
<path d="M124.24 165.066L155.141 227.675L224.233 237.716L174.24 286.449L186.042 355.265L124.24 322.775L62.44 355.265L74.24 286.449L24.2467 237.716L93.3384 227.675L124.24 165.066Z" fill="#FEB12F"/>
<path d="M51.8592 233.703L24.2467 237.714L74.24 286.45L62.44 355.263L124.24 322.773L186.039 355.263L176.022 296.866C127.938 294.814 80.1784 272.342 51.8609 233.699" fill="#FEA30A"/>
<path d="M80.9409 328.031C81.7584 327.893 82.5953 327.922 83.4017 328.114C83.8039 328.216 84.171 328.425 84.4644 328.718C84.7577 329.012 84.9664 329.379 85.0684 329.781C85.1044 330.279 84.9851 330.777 84.7269 331.204C84.4688 331.632 84.0844 331.969 83.6267 332.169C82.7041 332.549 81.7263 332.778 80.7309 332.846C77.3436 333.35 74.1419 334.714 71.4309 336.806C70.1178 337.973 68.7213 339.044 67.2525 340.008C61.9575 342.976 57.82 337.27 63.3359 333.88C68.7129 330.68 74.7209 328.687 80.9442 328.037" fill="#FFAB91"/>
<path d="M84.09 333.142C84.9076 333.005 85.7445 333.033 86.5508 333.226C86.9532 333.327 87.3205 333.536 87.6139 333.829C87.9073 334.123 88.1159 334.49 88.2175 334.892C88.2535 335.391 88.1343 335.888 87.8761 336.316C87.6179 336.743 87.2335 337.08 86.7758 337.281C85.8533 337.661 84.8754 337.889 83.88 337.957C80.4927 338.462 77.291 339.825 74.58 341.917C73.2666 343.085 71.8699 344.155 70.4008 345.119C65.1058 348.087 60.9683 342.382 66.4842 338.992C71.8612 335.792 77.8692 333.798 84.0925 333.148" fill="#FFAB91"/>
<path d="M83.1517 338.914C83.9692 338.776 84.8062 338.805 85.6125 338.997C86.0147 339.099 86.3818 339.308 86.6752 339.601C86.9686 339.895 87.1772 340.262 87.2792 340.664C87.3152 341.162 87.1959 341.659 86.9378 342.087C86.6796 342.515 86.2952 342.852 85.8375 343.052C84.9151 343.433 83.9371 343.661 82.9417 343.729C79.5544 344.233 76.3527 345.596 73.6417 347.689C72.3283 348.856 70.9316 349.926 69.4625 350.891C64.1675 353.859 60.03 348.153 65.5459 344.763C70.9233 341.564 76.9311 339.57 83.1542 338.92" fill="#FFAB91"/>
<path d="M80.3959 344.808C81.0631 344.694 81.7465 344.716 82.405 344.872C82.7334 344.955 83.0332 345.125 83.2726 345.365C83.512 345.604 83.6822 345.904 83.765 346.232C83.795 346.639 83.6979 347.045 83.4873 347.394C83.2767 347.743 82.9629 348.018 82.5892 348.182C81.8355 348.491 81.037 348.678 80.2242 348.734C77.4586 349.146 74.8446 350.259 72.6317 351.968C71.5598 352.921 70.4195 353.795 69.22 354.582C64.8975 357.006 61.52 352.347 66.02 349.582C70.4107 346.971 75.3154 345.343 80.3959 344.812" fill="#FFAB91"/>
<path d="M62.6825 334.32C60.1398 336.389 57.9453 338.852 56.1825 341.615C54.0834 344.79 52.8492 348.714 53.6425 352.436C54.4359 356.159 57.6175 359.479 61.4175 359.655C63.7067 359.661 65.9277 358.875 67.7042 357.431C69.5905 356.018 71.1266 354.19 72.1936 352.088C73.2606 349.987 73.8299 347.668 73.8576 345.311C73.8853 342.954 73.3707 340.622 72.3534 338.496C71.3361 336.37 69.8434 334.506 67.9909 333.049L62.6825 334.32Z" fill="#FFAB91"/>
<path d="M57.3917 344.738C48.8267 355.053 15.4975 407.231 15.3084 420.459C15.2059 427.401 17.5584 434.775 22.8775 439.459C28.7942 444.677 35.7842 443.362 39.6867 436.559C46.7417 424.262 60.7259 369.877 64.0542 353.196L57.3917 344.738Z" fill="#FFAB91"/>
<path d="M168.342 322.93C167.524 322.792 166.687 322.82 165.881 323.013C165.479 323.115 165.112 323.324 164.818 323.617C164.525 323.91 164.316 324.277 164.214 324.68C164.178 325.178 164.297 325.675 164.556 326.103C164.814 326.53 165.198 326.868 165.656 327.068C166.579 327.447 167.556 327.675 168.552 327.745C171.939 328.248 175.141 329.611 177.852 331.705C179.165 332.872 180.562 333.942 182.031 334.906C187.326 337.875 191.463 332.169 185.948 328.779C180.571 325.578 174.563 323.584 168.339 322.934" fill="#FFAB91"/>
<path d="M165.193 328.043C164.376 327.905 163.539 327.933 162.733 328.126C162.33 328.228 161.963 328.437 161.67 328.73C161.376 329.024 161.168 329.391 161.066 329.793C161.03 330.291 161.149 330.788 161.407 331.216C161.665 331.644 162.05 331.981 162.508 332.181C163.43 332.561 164.408 332.79 165.403 332.858C168.791 333.362 171.992 334.725 174.703 336.818C176.017 337.985 177.413 339.055 178.882 340.019C184.177 342.988 188.315 337.282 182.799 333.892C177.422 330.693 171.414 328.699 165.191 328.049" fill="#FFAB91"/>
<path d="M166.134 333.812C165.317 333.675 164.48 333.703 163.673 333.896C163.271 333.998 162.904 334.206 162.611 334.5C162.317 334.793 162.109 335.16 162.007 335.562C161.971 336.061 162.09 336.558 162.348 336.986C162.606 337.413 162.991 337.75 163.448 337.951C164.371 338.331 165.349 338.559 166.344 338.627C169.732 339.132 172.933 340.495 175.644 342.587C176.957 343.755 178.354 344.825 179.823 345.789C185.118 348.757 189.255 343.052 183.739 339.662C178.362 336.463 172.354 334.469 166.131 333.818" fill="#FFAB91"/>
<path d="M168.888 339.707C168.221 339.593 167.538 339.614 166.879 339.771C166.551 339.854 166.251 340.024 166.012 340.263C165.772 340.503 165.602 340.802 165.519 341.131C165.489 341.537 165.586 341.943 165.797 342.292C166.008 342.642 166.321 342.917 166.695 343.08C167.448 343.391 168.247 343.577 169.06 343.632C171.825 344.045 174.439 345.158 176.653 346.867C177.724 347.82 178.865 348.693 180.064 349.48C184.387 351.905 187.767 347.246 183.264 344.48C178.874 341.869 173.969 340.242 168.888 339.71" fill="#FFAB91"/>
<path d="M186.603 329.219C189.145 331.287 191.338 333.75 193.097 336.514C195.198 339.687 196.43 343.613 195.639 347.335C194.848 351.058 191.662 354.375 187.863 354.554C185.574 354.557 183.354 353.772 181.576 352.33C179.689 350.917 178.153 349.088 177.086 346.986C176.019 344.884 175.45 342.565 175.422 340.208C175.395 337.851 175.91 335.519 176.927 333.393C177.945 331.266 179.438 329.402 181.291 327.945L186.603 329.219Z" fill="#FFAB91"/>
<path d="M191.892 339.643C200.457 349.958 233.786 402.135 233.981 415.363C234.082 422.305 231.731 429.679 226.409 434.363C220.493 439.581 213.503 438.266 209.6 431.463C202.545 419.167 188.563 364.781 185.233 348.1L191.892 339.643Z" fill="#FFAB91"/>
<path d="M220.593 454.674L195.398 484.457C192.994 487.299 190.589 490.141 188.183 492.983C187.618 493.65 188.541 494.673 189.113 493.997C197.509 484.072 205.906 474.145 214.305 464.217L221.521 455.688C222.084 455.021 221.164 454 220.593 454.674Z" fill="#1B94C7"/>
<path d="M98.1617 460.064C97.4123 471.675 96.7984 483.295 96.32 494.925C95.8423 506.608 95.5039 518.297 95.305 529.989C95.1939 536.549 95.1262 543.109 95.1017 549.668C95.1017 550.55 96.4725 550.615 96.4767 549.728C96.5195 538.091 96.6995 526.457 97.0167 514.825C97.3378 503.135 97.7975 491.45 98.3959 479.771C98.732 473.22 99.1117 466.67 99.535 460.124C99.5388 459.944 99.4721 459.77 99.3493 459.639C99.2264 459.508 99.0572 459.43 98.8777 459.423C98.6983 459.415 98.5229 459.477 98.389 459.597C98.2552 459.717 98.1736 459.885 98.1617 460.064Z" fill="#1B94C7"/>
<path d="M124.102 409.445C122.767 409.445 121.462 409.049 120.352 408.308C119.242 407.566 118.376 406.512 117.866 405.278C117.355 404.045 117.221 402.688 117.481 401.378C117.742 400.069 118.385 398.866 119.329 397.922C120.273 396.978 121.475 396.335 122.785 396.075C124.094 395.815 125.451 395.948 126.685 396.459C127.918 396.97 128.972 397.835 129.714 398.945C130.456 400.055 130.852 401.36 130.852 402.695C130.849 404.485 130.137 406.2 128.872 407.466C127.607 408.731 125.891 409.443 124.102 409.445ZM124.102 396.63C122.902 396.63 121.73 396.986 120.733 397.652C119.736 398.318 118.959 399.265 118.5 400.373C118.041 401.481 117.921 402.7 118.155 403.877C118.389 405.053 118.966 406.133 119.814 406.981C120.662 407.829 121.743 408.407 122.919 408.64C124.095 408.874 125.314 408.754 126.422 408.295C127.53 407.837 128.477 407.059 129.143 406.062C129.809 405.065 130.165 403.893 130.165 402.694C130.163 401.086 129.524 399.545 128.387 398.408C127.25 397.272 125.709 396.632 124.102 396.63Z" fill="#170D05"/>
<path d="M140.622 409.445C139.287 409.445 137.982 409.049 136.872 408.308C135.762 407.566 134.896 406.512 134.386 405.278C133.875 404.045 133.741 402.688 134.001 401.378C134.262 400.069 134.905 398.866 135.849 397.922C136.793 396.978 137.995 396.335 139.305 396.075C140.614 395.815 141.971 395.948 143.205 396.459C144.438 396.97 145.492 397.835 146.234 398.945C146.976 400.055 147.372 401.36 147.372 402.695C147.369 404.485 146.657 406.2 145.392 407.466C144.127 408.731 142.411 409.443 140.622 409.445ZM140.622 396.63C139.422 396.63 138.25 396.986 137.253 397.652C136.256 398.318 135.479 399.265 135.02 400.373C134.561 401.481 134.441 402.7 134.675 403.877C134.909 405.053 135.486 406.133 136.334 406.981C137.182 407.829 138.263 408.407 139.439 408.64C140.615 408.874 141.834 408.754 142.942 408.295C144.05 407.837 144.997 407.059 145.663 406.062C146.329 405.065 146.685 403.893 146.685 402.694C146.683 401.086 146.044 399.545 144.907 398.408C143.77 397.272 142.229 396.632 140.622 396.63Z" fill="#170D05"/>
<path d="M130.607 400.605L130.131 400.105C130.739 399.549 131.523 399.225 132.347 399.191C133.17 399.156 133.979 399.413 134.631 399.916L134.198 400.452C133.675 400.057 133.03 399.856 132.374 399.884C131.719 399.911 131.093 400.165 130.604 400.602" fill="#170D05"/>
<path d="M160.137 402.701C155.916 401.104 151.358 400.611 146.893 401.27L146.795 400.589C151.374 399.915 156.049 400.42 160.378 402.058L160.137 402.701Z" fill="#170D05"/>
<path d="M801.051 910.055H0.883362V915.204H801.051V910.055Z" fill="#001E4A"/>
</g>
</g>
</svg>
