<?xml version="1.0" encoding="UTF-8"?><svg id="Layer_1" xmlns="http://www.w3.org/2000/svg" xmlns:xlink="http://www.w3.org/1999/xlink" viewBox="0 0 894 639"><defs><style>.cls-1,.cls-2{fill:none;}.cls-3{mask:url(#mask);}.cls-4{fill:#faba50;}.cls-5{fill:#001c45;}.cls-6,.cls-7{fill:#fff;}.cls-8{fill:#fffff8;}.cls-9{fill:#ff9a8d;}.cls-10{fill:#fafafa;}.cls-11{fill:#e5f7ff;}.cls-12{fill:#ba5964;}.cls-13{fill:#228c7e;}.cls-14{fill:#3ed9c7;}.cls-15{fill:#1bb9f5;}.cls-16{fill:#893a47;}.cls-17{fill:#29b7ee;}.cls-2{stroke:#001c45;stroke-linecap:round;stroke-miterlimit:10;stroke-width:2.1px;}.cls-18{mask:url(#mask-1);}.cls-7{stroke:#c9c9c9;stroke-width:1.9px;}</style><mask id="mask" x="240" y="370.9" width="182.6" height="182.6" maskUnits="userSpaceOnUse"><g id="mask1_306_1130"><path class="cls-6" d="m331.3,553.5c50.4,0,91.3-40.9,91.3-91.3s-40.9-91.3-91.3-91.3-91.3,40.9-91.3,91.3,40.9,91.3,91.3,91.3Z"/></g></mask><mask id="mask-1" x="85.9" y="65.9" width="182.6" height="182.6" maskUnits="userSpaceOnUse"><g id="mask2_306_1130"><path class="cls-6" d="m177.3,248.5c50.4,0,91.3-40.9,91.3-91.3s-40.9-91.3-91.3-91.3-91.3,40.9-91.3,91.3,40.9,91.3,91.3,91.3Z"/></g></mask></defs><rect class="cls-1" x="-154" y="-113" width="1200" height="873"/><rect class="cls-6" x="-154" y="-113" width="1200" height="873"/><g><path class="cls-10" d="m828.9,358.6H201.7c-10,0-18.2,8.1-18.2,18.2v208.2c0,10,8.1,18.2,18.2,18.2h627.2c10,0,18.2-8.1,18.2-18.2v-208.2c0-10-8.1-18.2-18.2-18.2Z"/><path class="cls-7" d="m220.1,340.8h627.2c9.5,0,17.2,7.7,17.2,17.2v208.2c0,9.5-7.7,17.2-17.2,17.2H220.1c-9.5,0-17.2-7.7-17.2-17.2v-208.2c0-9.5,7.7-17.2,17.2-17.2Z"/><path class="cls-8" d="m331.3,553.5c50.4,0,91.3-40.9,91.3-91.3s-40.9-91.3-91.3-91.3-91.3,40.9-91.3,91.3,40.9,91.3,91.3,91.3Z"/><path class="cls-17" d="m649,397.4h-185.8c-5,0-9.1,4.1-9.1,9.1v21.1c0,5,4.1,9.1,9.1,9.1h185.8c5,0,9.1-4.1,9.1-9.1v-21.1c0-5-4.1-9.1-9.1-9.1Z"/><path class="cls-15" d="m806.7,469.5h-349.6c-1.7,0-3,1.3-3,3v1.9c0,1.7,1.3,3,3,3h349.6c1.7,0,3-1.3,3-3v-1.9c0-1.7-1.3-3-3-3Z"/><path class="cls-15" d="m806.7,502.3h-349.6c-1.7,0-3,1.3-3,3v1.9c0,1.7,1.3,3,3,3h349.6c1.7,0,3-1.3,3-3v-1.9c0-1.7-1.3-3-3-3Z"/><path class="cls-15" d="m806.7,535.1h-349.6c-1.7,0-3,1.3-3,3v1.9c0,1.7,1.3,3,3,3h349.6c1.7,0,3-1.3,3-3v-1.9c0-1.7-1.3-3-3-3Z"/><path class="cls-11" d="m331.3,553.5c50.4,0,91.3-40.9,91.3-91.3s-40.9-91.3-91.3-91.3-91.3,40.9-91.3,91.3,40.9,91.3,91.3,91.3Z"/><g class="cls-3"><g><path class="cls-9" d="m299.4,457.2s-6.2-2.2-9.9,1.9c-3.7,4.1-1.9,13.6,4.4,16.3,6.1,2.6,8.8-.5,8.8-.5l-3.5-17.7h0Z"/><path class="cls-12" d="m292.9,460.9c1.6-.5,4-.3,5.3.9.5.4-.4,1.2-.9,1-2.6-1.2-5.9-1.4-7.4,1.6,0,.2-.2,0-.2-.1.5-1.7,1.4-2.8,3.2-3.3h0Z"/><path class="cls-12" d="m294.2,461.2c.3-.1.9.6.9.9-.5.2-1.2.6-1.5,1.2-.6,1-.8,1.8-.8,3,0,2.7,1.4,4.7,4,5.4,0,0,.1.2,0,.2-2.3.5-4.7-2-5.1-4.1-.5-2.3-.1-5.4,2.5-6.5h0Z"/><path class="cls-9" d="m363.2,457.2s6.2-2.2,9.9,1.9c3.7,4.2,1.9,13.6-4.4,16.3-6.1,2.6-8.8-.5-8.8-.5l3.5-17.7h0Z"/><path class="cls-12" d="m369.7,460.9c-1.6-.5-4-.3-5.3.9-.5.4.4,1.2.9,1,2.6-1.2,5.9-1.4,7.4,1.6,0,.2.2,0,.2-.1-.5-1.7-1.4-2.8-3.2-3.3h0Z"/><path class="cls-12" d="m368.5,461.2c-.3-.1-.9.6-.9.9.5.2,1.2.6,1.5,1.2.6,1,.8,1.8.8,3,0,2.7-1.4,4.7-4,5.4,0,0-.1.2,0,.2,2.3.5,4.7-2,5.1-4.1.5-2.3.1-5.4-2.5-6.5h0Z"/><path class="cls-9" d="m256.1,553.5c0-14,6.6-22.4,14-24.8,3.3-1.1,27.8-7.3,34.2-9.2,6.4-1.9,8-5.7,8-8.9v-17.3h38v17.3c0,3.2,1.7,7,8,8.9,6.4,1.9,30.8,8.1,34.2,9.2,7.3,2.4,14,10.8,14,24.8h-150.4,0Z"/><path class="cls-12" d="m312.3,493.3v6.1s6.9,10.8,19.1,10.8,18.9-10.7,18.9-10.7v-6.1h-38Z"/><path class="cls-14" d="m392.5,528.7c-3.3-1.1-27.8-7.3-34.2-9.2-.8-.2-1.4-.5-2.1-.8.6,1.5.9,3.1.9,4.7,0,9.1-11.6,16.5-25.9,16.5s-25.9-7.4-25.9-16.5.3-3.2.9-4.7c-.6.3-1.3.5-2.1.8-6.4,1.9-30.8,8.1-34.2,9.2-7.3,2.4-14,10.8-14,24.8h150.4c0-14-6.6-22.4-14-24.8h0Z"/><path class="cls-9" d="m346.4,422c-4.6-2.7-9.8-4.2-15-4.2s-10.7,1.3-15.3,3.9c-10.8,6.2-16.7,18.1-16.7,30.3s.2,7,.6,10.5l.6,4.9c.5,3.8,1.7,11.1,4.6,18.2,5.7,14,18.5,18.5,26.3,18.5s20.6-4.6,26.3-18.5c2.9-7,4.1-14.4,4.6-18.2l.6-4.9c.4-3.5.6-7,.6-10.5,0-12.2-6.2-23.9-17-30.1h0Z"/><path class="cls-5" d="m299.3,458s.9-.3,1.8-1.1c.8-.7,2.5-2.5,2.5-9s1.7-18.4,7.9-22.5c0,0,.3-3.1-1.3-3.8-2.1-.9-7.6.3-11.3,3.9-8.1,7.7-4.8,31.3-4.8,31.3,1.4-.1,3.8.2,5.3,1.2h-.1Z"/><path class="cls-5" d="m364.5,457.6s-1.6-.2-2.4-.8c-.9-.7-2.9-2.4-2.9-9s-1.7-18.4-7.9-22.5c0,0,5-5,12.2,0,7.2,5.1,5.3,31.4,5.3,31.4-1.5,0-2.9.2-4.2.9Z"/><path class="cls-5" d="m364.5,438.9v18.7c1.3-.6,2.7-.9,4.2-.9,4.3-46.1-17.4-55.9-40.5-51.7-17,3.1-19.2,18.8-19.2,18.8l2.5,1.6c3,0,4.5,2,6.8,3.8,2.4,1.8,4.8,3.6,7.5,5,4.4,2.4,9.3,4.2,14.3,4,1.3,0,2.7-.2,3.5-1.2,1-1.2.8-3,.2-4.5-.7-1.9-1.6-3.7-2.8-5.3,3.2,2.6,6.3,5.2,12.4,5.8,3,.3,4.9-1.5,3.8-4.7,0-.2,7.4,6.6,7.4,10.5Z"/><path class="cls-5" d="m307.3,423.7s.8-15.1,20.6-21.1c17-5.1,34.8,1.8,40.1,7,7.1,7,1.3,13.7-6.1,12.3-3.6-.7-54.6,1.8-54.6,1.8Z"/><path class="cls-2" d="m293.4,415.8s12.2,0,15.5,6.9"/><path class="cls-2" d="m295.2,404.2s14.1,5.3,13.7,19.7"/></g></g><path class="cls-10" d="m674.9,53.6H47.7c-10,0-18.2,8.1-18.2,18.2v208.2c0,10,8.1,18.2,18.2,18.2h627.2c10,0,18.2-8.1,18.2-18.2V71.8c0-10-8.1-18.2-18.2-18.2Z"/><path class="cls-7" d="m66.1,35.8h627.2c9.5,0,17.2,7.7,17.2,17.2v208.2c0,9.5-7.7,17.2-17.2,17.2H66.1c-9.5,0-17.2-7.7-17.2-17.2V53.1c0-9.5,7.7-17.2,17.2-17.2Z"/><path class="cls-8" d="m177.3,248.5c50.4,0,91.3-40.9,91.3-91.3s-40.9-91.3-91.3-91.3-91.3,40.9-91.3,91.3,40.9,91.3,91.3,91.3Z"/><path class="cls-17" d="m495,92.4h-185.8c-5,0-9.1,4.1-9.1,9.1v21.1c0,5,4.1,9.1,9.1,9.1h185.8c5,0,9.1-4.1,9.1-9.1v-21.1c0-5-4.1-9.1-9.1-9.1Z"/><path class="cls-15" d="m652.7,164.5h-349.6c-1.7,0-3,1.3-3,3v1.9c0,1.7,1.3,3,3,3h349.6c1.7,0,3-1.3,3-3v-1.9c0-1.7-1.3-3-3-3Z"/><path class="cls-15" d="m652.7,197.3h-349.6c-1.7,0-3,1.3-3,3v1.9c0,1.7,1.3,3,3,3h349.6c1.7,0,3-1.3,3-3v-1.9c0-1.7-1.3-3-3-3Z"/><path class="cls-15" d="m652.7,230.1h-349.6c-1.7,0-3,1.3-3,3v1.9c0,1.7,1.3,3,3,3h349.6c1.7,0,3-1.3,3-3v-1.9c0-1.7-1.3-3-3-3Z"/><path class="cls-11" d="m177.3,248.5c50.4,0,91.3-40.9,91.3-91.3s-40.9-91.3-91.3-91.3-91.3,40.9-91.3,91.3,40.9,91.3,91.3,91.3Z"/><g class="cls-18"><g><path class="cls-5" d="m209.6,159.4s9.3-44.1-31.9-44.1-32.9,44.1-32.9,44.1h64.8Z"/><path class="cls-5" d="m156.1,116.5c-.9-7.9,6.1-15.1,15.6-16.1,9.4-1,17.8,4.5,18.7,12.3.9,7.9-6.1,15.1-15.6,16.1-9.4,1-17.8-4.5-18.7-12.3Z"/><path class="cls-12" d="m149.4,158.8s-5.4-2.3-8.7,1.4c-3.3,3.7-1.7,12,3.9,14.4,5.4,2.3,7.8-.5,7.8-.5l-3.1-15.3h0Z"/><path class="cls-16" d="m143.7,161.6c1.4-.4,3.5-.3,4.6.8.4.4-.4,1.1-.8.9-2.3-1-5.2-1.3-6.5,1.4,0,.2-.2,0-.2-.1.4-1.5,1.3-2.5,2.8-3h0Z"/><path class="cls-16" d="m144.8,161.9c.3-.1.8.6.8.8-.4.2-1,.6-1.3,1.1-.6.9-.7,1.6-.7,2.7,0,2.3,1.3,4.1,3.6,4.8,0,0,.1.2,0,.2-2,.4-4.2-1.8-4.5-3.6-.4-2-.1-4.8,2.2-5.8h0Z"/><path class="cls-12" d="m205.9,158.8s5.4-2.3,8.7,1.3c3.3,3.6,1.7,12-3.9,14.4-5.4,2.3-7.8-.5-7.8-.5l3.1-15.3Z"/><path class="cls-16" d="m211.6,161.6c-1.4-.4-3.5-.3-4.6.8-.4.4.4,1.1.8.9,2.3-1,5.2-1.3,6.5,1.4,0,.2.2,0,.2-.1-.4-1.5-1.3-2.5-2.8-3h0Z"/><path class="cls-16" d="m210.5,161.9c-.3-.1-.8.6-.8.8.4.2,1,.6,1.3,1.1.6.9.7,1.6.7,2.7,0,2.3-1.3,4.1-3.6,4.8,0,0-.1.2,0,.2,2,.4,4.2-1.8,4.5-3.6.4-2,.1-4.8-2.2-5.8h0Z"/><path class="cls-14" d="m208.3,217.5l-14.1-11.5h-33.3l-13.8,11.5h61.2Z"/><path class="cls-13" d="m160.9,206l-1,7.1h35.5l-1.2-7.1h-33.3Z"/><path class="cls-12" d="m121.6,244.8c0-12.4,2-19.8,8.5-21.9,3-1,20.7-6.5,26.3-8.2,5.6-1.7,7.1-5,7.1-7.9v-12.7h28.4v12.7c0,2.9,1.5,6.2,7.1,7.9,5.6,1.7,23.3,7.2,26.3,8.2,6.5,2.1,8.5,9.5,8.5,21.9h-112.2,0Z"/><path class="cls-16" d="m163.5,197.9s2.8,8.2,14.2,8.2,14.2-8.1,14.2-8.2v-3.7h-28.4v3.7Z"/><path class="cls-4" d="m164.1,230.4s5.2,3.2,13.6,3.2,13.5-3.2,13.5-3.2l-3.8,14.5h-19.5l-3.8-14.5Z"/><path class="cls-13" d="m159.6,215.1c0-.7,0-1.3.2-1.9-.9.6-2.1,1.1-3.5,1.5-5.6,1.7-23.3,7.2-26.3,8.2-6.5,2.1-8.5,9.5-8.5,22h46.3l-5.9-23c-3.7-1.7-2.3-4.1-2.3-6.7h0Z"/><path class="cls-13" d="m225.3,222.9c-3-1-20.7-6.5-26.3-8.2-1.5-.5-2.7-1-3.6-1.6.2.6.3,1.3.3,1.9,0,2.7,1.3,5.1-2.3,6.7l-5.9,23h46.4c0-12.4-2-19.8-8.5-22h-.1Z"/><path class="cls-14" d="m195.4,213.1l12.9,4.4-4.7,6.2-8.4,2.3,6.6,5-14.3,13.7,8-31.7Z"/><path class="cls-14" d="m159.9,213.1l-12.9,4.4,4.7,6.2,8.4,2.3-6.6,4,14.3,14.8-8-31.7Z"/><path class="cls-12" d="m190.9,128.6c-4.1-2.3-8.6-3.7-13.3-3.7s-9.2,1.4-13.3,3.7c-9.5,5.5-15.1,15.8-15.1,26.6h0c0,3.2.2,6.2.5,9.2l.5,4.3c.4,3.4,1,6.7,2.1,9.9,4.1,12.7,15.4,22.3,25.2,22.3s21.1-9.5,25.2-22.3c1-3.2,1.7-6.5,2.1-9.9l.5-4.3c.4-3.1.6-6.2.5-9.2,0-10.8-5.5-21.1-15.1-26.6Z"/><path class="cls-5" d="m149,147.9h18.9s.6-8.5,4.6-15.7v15.7h14.1v-15.7s3.8,9.2,3.8,15.7h15.9s-1.5-25.9-28.6-25.9-28.6,25.9-28.6,25.9h0Z"/><path class="cls-2" d="m191.2,102.4s3.9,10.1-.8,15"/><path class="cls-2" d="m201.4,102.4s.1,13.3-11.9,17.5"/></g></g></g></svg>