<svg width="1000" height="1000" viewBox="0 0 1000 1000" fill="none" xmlns="http://www.w3.org/2000/svg">
<mask id="mask0_536_709" style="mask-type:luminance" maskUnits="userSpaceOnUse" x="0" y="0" width="1000" height="1000">
<path d="M1000 0H0V1000H1000V0Z" fill="white"/>
</mask>
<g mask="url(#mask0_536_709)">
<path d="M1000 0H0V1000H1000V0Z" fill="white"/>
<mask id="mask1_536_709" style="mask-type:luminance" maskUnits="userSpaceOnUse" x="72" y="29" width="856" height="916">
<path d="M927.118 29.1621H72.8834V944.203H927.118V29.1621Z" fill="white"/>
</mask>
<g mask="url(#mask1_536_709)">
<mask id="mask2_536_709" style="mask-type:luminance" maskUnits="userSpaceOnUse" x="72" y="29" width="856" height="916">
<path d="M927.118 29.1641H72.8834V944.205H927.118V29.1641Z" fill="white"/>
</mask>
<g mask="url(#mask2_536_709)">
<path d="M431.247 175.538V316.769H369.204C366.559 316.767 364.022 315.714 362.153 313.842C360.284 311.97 359.234 309.432 359.236 306.786V185.503C359.236 184.194 359.493 182.898 359.994 181.689C360.495 180.479 361.229 179.38 362.155 178.454C363.081 177.529 364.18 176.794 365.389 176.294C366.599 175.793 367.895 175.535 369.204 175.535L431.247 175.538Z" fill="#1D253D"/>
<path d="M672.788 242.408C666.407 302.457 632.307 316.771 632.307 316.771H431.247V175.539C487.663 164.691 514.533 95.2061 508.718 60.3661C509.749 53.3043 509.763 46.131 508.758 39.0653C512.746 27.1436 524.503 29.5361 524.503 29.5361C563.292 35.6144 565.503 116.097 565.204 142.332C565.175 144.525 565.987 146.646 567.472 148.26C568.958 149.873 571.005 150.857 573.193 151.009C588.015 152.009 620.342 154.941 648.67 162.352C667.259 167.22 674.974 172.087 677.253 182.732C679.67 193.951 676.058 211.594 672.786 242.408" fill="#FEA30A"/>
<path d="M431.247 175.538V295.263H369.204C366.561 295.261 364.027 294.21 362.157 292.341C360.288 290.472 359.238 287.938 359.236 285.294V185.503C359.236 184.194 359.493 182.898 359.994 181.689C360.495 180.479 361.229 179.38 362.155 178.454C363.081 177.529 364.18 176.794 365.389 176.294C366.599 175.793 367.895 175.535 369.204 175.535L431.247 175.538Z" fill="#465A94"/>
<path d="M677.256 182.731C676.267 192.549 674.478 204.965 672.788 220.903C666.408 280.949 632.305 295.265 632.305 295.265H431.245V175.538C459.368 170.133 481.259 149.335 494.526 124.766C504.096 107.04 507.088 87.0459 508.359 67.1926C509.103 55.5901 504.583 25.4826 524.504 29.5367C563.295 35.6134 565.504 116.095 565.206 142.331C565.177 144.524 565.988 146.645 567.474 148.259C568.96 149.872 571.007 150.856 573.195 151.008C588.018 152.012 620.346 154.94 648.672 162.353C667.263 167.219 674.976 172.088 677.255 182.73" fill="#FEB12F"/>
<path d="M596.896 316.768H627.158L612.536 332.738V350.042H591.029V335.092C591.029 331.666 591.752 328.279 593.15 325.152L596.896 316.768Z" fill="#BF6D3E"/>
<path d="M596.035 330.59C597.698 329.78 599.091 328.504 600.044 326.919C600.998 325.333 601.471 323.505 601.407 321.656C601.343 319.807 600.744 318.017 599.683 316.501C598.622 314.985 597.145 313.81 595.429 313.117C594.84 307.2 589.483 302.568 583.63 301.533C587.829 311.228 590.535 321.502 591.656 332.007L596.035 330.59Z" fill="#BF6D3E"/>
<path d="M591.295 304.401C593.433 305.204 594.158 307.541 594.628 309.563C594.799 310.776 595.236 311.936 595.909 312.959C596.699 313.947 597.987 314.39 599.002 315.093C600.024 315.762 600.888 316.646 601.532 317.685C602.176 318.723 602.585 319.889 602.731 321.103C603.024 323.842 602.031 326.549 601.088 329.07C600.778 329.897 599.563 329.248 599.872 328.429C600.758 326.058 601.712 323.445 601.322 320.871C600.938 318.339 599.124 316.69 597.003 315.486C596.062 315.019 595.242 314.34 594.607 313.503C594.075 312.657 593.7 311.723 593.498 310.744C593.031 308.87 592.731 306.396 590.658 305.618C589.831 305.308 590.478 304.096 591.298 304.4" fill="#80410E"/>
<path d="M400.827 316.768H370.562L385.184 332.738V350.042H406.691V335.092C406.691 331.666 405.969 328.279 404.57 325.152L400.827 316.768Z" fill="#BF6D3E"/>
<path d="M529.538 473.925C547.61 462.161 564.013 448.015 578.304 431.869C583.335 403.446 586.253 372.98 588.341 344.192C597.159 343.303 607.065 342.84 615.892 343.656C622.525 382.36 625.121 421.18 622.475 460.36C598.178 484.378 572.247 511.193 547.949 535.209L529.538 473.925Z" fill="#21A9E1"/>
<path d="M619.807 442.725C621.213 440.753 622.429 438.654 623.439 436.453C623.328 444.408 623.008 452.376 622.478 460.356C598.18 484.375 572.249 511.19 547.952 535.206L543.668 520.964C570.563 496.752 597.131 472.01 619.803 442.724" fill="#1B94C7"/>
<path d="M590.559 357.833L608.941 358.27C609.821 358.291 609.888 359.666 609.001 359.645C602.873 359.499 596.746 359.353 590.619 359.206C589.739 359.186 589.673 357.812 590.559 357.833Z" fill="#1D253D"/>
<path d="M467.928 473.925C449.856 462.161 433.452 448.015 419.158 431.869C414.129 403.446 411.212 372.98 409.124 344.192C400.306 343.303 390.4 342.84 381.573 343.656C374.94 382.36 372.344 421.18 374.99 460.36C399.288 484.378 425.218 511.193 449.516 535.209L467.928 473.925Z" fill="#21A9E1"/>
<path d="M450.676 514.228C451.085 518.827 451.415 523.432 451.668 528.045L449.515 535.205C425.22 511.187 399.288 484.372 374.992 460.356C374.291 449.967 373.955 439.6 373.983 429.256C387.316 464.864 417.516 492.122 450.676 514.228" fill="#1B94C7"/>
<path d="M383.066 358.88C391.177 358.469 399.29 358.058 407.406 357.648C407.583 357.648 407.754 357.716 407.882 357.839C408.01 357.961 408.086 358.129 408.094 358.306C408.102 358.483 408.041 358.656 407.924 358.79C407.807 358.923 407.643 359.006 407.466 359.021C399.35 359.432 391.237 359.843 383.126 360.253C382.949 360.253 382.778 360.185 382.65 360.062C382.521 359.94 382.445 359.772 382.438 359.595C382.43 359.418 382.491 359.245 382.608 359.111C382.725 358.978 382.889 358.895 383.066 358.88Z" fill="#1D253D"/>
<path d="M438.927 902.303C438.935 905.668 438.957 908.94 438.999 912.083H458.518L459.608 902.303H438.927Z" fill="#001E4A"/>
<path d="M535.577 902.303C535.585 905.668 535.607 908.94 535.649 912.083H555.168L556.258 902.303H535.577Z" fill="#001E4A"/>
<path d="M556.936 636.223C505.221 641.912 497.731 671.501 497.731 671.501L518.616 794.834L529.58 907.8H564.377C574.885 766.55 556.936 636.217 556.936 636.217" fill="#259B45"/>
<path d="M511.628 669.808C511.628 669.808 534.634 655.069 537.328 642.172L444.096 645.243C444.096 645.243 431.114 811.801 431.483 902.305H467.054L511.628 669.808Z" fill="#465A94"/>
<path d="M509.011 683.46L467.054 907.802H431.483C431.208 840.458 438.326 725.52 441.988 673.912C463.666 680.892 486.314 684.412 509.011 683.46Z" fill="#28A44A"/>
<path d="M441.988 673.914C443.248 656.164 444.098 645.24 444.098 645.24L537.328 642.168C534.63 655.067 511.63 669.808 511.63 669.808L509.011 683.462C486.316 684.417 463.668 680.894 441.988 673.914Z" fill="#259B45"/>
<path d="M529.419 655.128C533.986 650.545 537.983 645.313 539.019 640.348L451.749 636.223C451.749 636.223 451.04 645.602 450.706 649.502C476.725 655.555 503.34 657.818 529.419 655.128Z" fill="#1D253D"/>
<path d="M459.627 910.62L436.779 909.992C430.404 916.674 425.881 924.903 423.654 933.866H464.904C464.106 925.93 462.333 918.122 459.627 910.62Z" fill="#001E4A"/>
<path d="M423.654 933.863C423.443 934.718 423.223 935.568 423.054 936.433C422.989 936.75 422.995 937.076 423.072 937.39C423.148 937.704 423.294 937.997 423.497 938.247C423.701 938.498 423.957 938.701 424.248 938.84C424.539 938.98 424.858 939.053 425.181 939.055H462.999C463.298 939.056 463.594 938.995 463.868 938.876C464.142 938.758 464.389 938.584 464.593 938.365C464.797 938.147 464.954 937.889 465.054 937.608C465.153 937.326 465.194 937.027 465.173 936.729C465.098 935.772 465.007 934.812 464.903 933.863H423.654Z" fill="#A86114"/>
<path d="M534.343 910.62L557.19 909.992C563.556 916.617 601.895 924.953 604.116 933.866H529.066C529.864 925.93 531.636 918.122 534.343 910.62Z" fill="#001E4A"/>
<path d="M604.115 933.863C604.327 934.718 604.543 935.568 604.715 936.433C604.78 936.75 604.773 937.077 604.697 937.39C604.62 937.704 604.474 937.997 604.271 938.248C604.067 938.499 603.81 938.701 603.519 938.841C603.228 938.98 602.909 939.053 602.586 939.055H530.969C530.67 939.056 530.375 938.995 530.101 938.876C529.826 938.758 529.58 938.584 529.376 938.365C529.172 938.147 529.015 937.889 528.915 937.608C528.815 937.326 528.774 937.027 528.795 936.729C528.873 935.772 528.962 934.812 529.063 933.863H604.115Z" fill="#A86114"/>
<path d="M457.033 803.88C454.199 799.012 451.237 794.269 448.889 789.136C446.635 783.92 444.704 778.571 443.106 773.119C443.063 772.989 442.971 772.88 442.85 772.815C442.729 772.75 442.588 772.735 442.455 772.771C442.323 772.808 442.21 772.894 442.139 773.012C442.068 773.13 442.046 773.27 442.076 773.404C443.222 779.047 445.031 784.535 447.463 789.755C449.672 795.066 452.55 800.073 456.026 804.656C456.488 805.234 457.39 804.489 457.033 803.881" fill="#1D253D"/>
<path d="M437.158 898.975H459.832C460.714 898.975 460.778 900.347 459.892 900.347H437.218C436.336 900.347 436.272 898.975 437.158 898.975Z" fill="#1D253D"/>
<path d="M547.701 490.582C547.418 484.519 543.197 479.277 536.936 476.999C523.654 472.165 508.758 470.68 494.244 471.646C480.926 472.533 467.85 475.371 455.078 479.129C446.753 481.579 441.548 489.019 442.828 496.671C450.52 542.473 452.957 589.003 450.091 635.358C484.264 645.274 518.358 648.162 550.668 636.874C551.768 589.673 549.918 537.861 547.701 490.582Z" fill="#A6F3FF"/>
<path d="M499.548 484.782C495.805 486.68 492.298 489.012 489.1 491.731C487.717 489.162 486.433 486.532 485.106 483.939C484.375 482.514 483.642 481.092 482.906 479.672C482.264 478.211 481.483 476.816 480.573 475.506C480.17 475.006 479.39 475.551 479.54 476.106C480.049 477.565 480.697 478.971 481.476 480.306C482.215 481.793 482.957 483.276 483.703 484.755C485.166 487.663 486.719 490.542 488.09 493.493C488.158 493.604 488.249 493.699 488.358 493.77C488.467 493.841 488.591 493.886 488.72 493.903C488.849 493.92 488.98 493.907 489.104 493.866C489.227 493.825 489.34 493.757 489.433 493.666C492.804 490.796 496.462 488.283 500.35 486.166C501.26 485.676 500.457 484.32 499.543 484.785" fill="#47BED1"/>
<path d="M513.04 484.801C512.984 483.559 512.95 482.314 512.935 481.068C512.918 479.96 513.185 478.476 512.654 477.476C512.604 477.392 512.532 477.323 512.447 477.275C512.361 477.226 512.265 477.201 512.167 477.201C512.069 477.201 511.973 477.226 511.888 477.275C511.802 477.323 511.731 477.392 511.68 477.476C511.144 478.431 511.391 479.862 511.403 480.922C511.418 482.216 511.452 483.509 511.504 484.801C511.588 486.874 511.736 488.939 511.915 491.003C510.208 490.029 508.499 489.057 506.788 488.087C505.738 487.491 504.682 486.908 503.621 486.33C502.618 485.657 501.514 485.151 500.35 484.83C500.262 484.809 500.169 484.817 500.085 484.852C500.002 484.888 499.932 484.95 499.886 485.029C499.84 485.107 499.821 485.199 499.832 485.289C499.842 485.379 499.881 485.464 499.943 485.53C500.808 486.368 501.802 487.06 502.888 487.58C503.928 488.195 504.964 488.809 506.009 489.409C508.143 490.631 510.277 491.854 512.413 493.076C512.531 493.142 512.665 493.176 512.8 493.176C512.935 493.175 513.068 493.139 513.185 493.072C513.303 493.005 513.401 492.909 513.47 492.793C513.539 492.677 513.577 492.544 513.58 492.409C513.327 489.882 513.146 487.348 513.036 484.808" fill="#47BED1"/>
<path d="M499.947 485.531L495.093 489.37L497.52 493.167L497.07 622.398L506.708 627.419L514.897 622.398L503.601 493.904L504.995 488.82L499.947 485.531Z" fill="#FC9426"/>
<path d="M439.888 505.837C438.249 494.802 442.766 482.847 451.67 479.611C458.337 477.188 466.744 474.905 474.17 474.37C480.198 499.485 504.998 550.819 504.998 550.819C504.998 550.819 524.287 492.075 512.942 471.827C520.192 471.451 534 473.5 541.266 477.203C548.099 480.686 552.391 491.932 552.903 500.65C556.069 554.55 566.139 610.574 570.38 665.245C565.122 667.706 558.233 667.764 552.568 668.273C543.337 669.107 534.068 669.523 524.808 669.869C494.777 670.982 465.088 670.019 436.7 659.102C440.819 607.898 447.465 556.841 439.889 505.837" fill="#21A9E1"/>
<path d="M450.676 514.227C455.003 562.914 450.815 612.448 441.466 660.826C439.873 660.278 438.283 659.71 436.698 659.1C440.789 608.24 447.365 557.516 440.032 506.85C443.536 509.368 447.085 511.827 450.679 514.224" fill="#1B94C7"/>
<path d="M522.497 517.209L532.679 513.722C533.528 513.431 534.376 513.141 535.226 512.851C535.998 512.641 536.751 512.364 537.476 512.024C538.941 511.214 538.369 509.48 537.952 508.201C535.702 501.306 533.418 494.422 531.152 487.534C531.104 487.363 531.125 487.181 531.209 487.024C531.293 486.868 531.434 486.75 531.603 486.696C531.772 486.641 531.955 486.654 532.115 486.731C532.274 486.808 532.398 486.944 532.46 487.11L538.243 504.684C538.693 506.051 539.22 507.412 539.571 508.807C539.91 509.822 539.876 510.924 539.474 511.915C538.925 512.801 538.049 513.436 537.037 513.684C535.62 514.184 534.203 514.654 532.787 515.141L522.923 518.518C522.752 518.566 522.57 518.545 522.414 518.461C522.257 518.377 522.14 518.236 522.085 518.067C522.03 517.898 522.043 517.715 522.12 517.555C522.197 517.396 522.333 517.272 522.499 517.21" fill="#1B94C7"/>
<path d="M523.37 517.564L534.861 529.48C535.473 530.114 534.548 531.132 533.933 530.494C530.1 526.52 526.269 522.548 522.44 518.577C521.829 517.941 522.755 516.924 523.369 517.562" fill="#1B94C7"/>
<path d="M507.823 562.193L533.891 529.489C534.443 528.795 535.454 529.727 534.906 530.417C526.216 541.319 517.526 552.221 508.835 563.122C508.283 563.814 507.272 562.882 507.822 562.193" fill="#1B94C7"/>
<path d="M480.539 519.62L469.972 517.585C469.089 517.414 468.208 517.244 467.328 517.075C466.534 516.975 465.75 516.806 464.985 516.569C463.419 515.969 463.745 514.173 463.981 512.849C465.251 505.709 466.553 498.574 467.838 491.437C467.862 491.261 467.817 491.082 467.712 490.938C467.608 490.795 467.451 490.697 467.276 490.667C467.101 490.636 466.921 490.674 466.773 490.774C466.626 490.873 466.522 491.026 466.485 491.199C465.391 497.269 464.297 503.339 463.203 509.407C462.948 510.824 462.62 512.245 462.463 513.675C462.267 514.726 462.454 515.813 462.989 516.738C463.656 517.541 464.611 518.05 465.649 518.154C467.118 518.45 468.592 518.72 470.066 519.004C473.478 519.662 476.891 520.319 480.304 520.975C480.48 520.999 480.659 520.954 480.803 520.849C480.946 520.744 481.044 520.588 481.074 520.413C481.105 520.238 481.067 520.057 480.968 519.91C480.868 519.762 480.716 519.659 480.542 519.622" fill="#1B94C7"/>
<path d="M479.725 520.089C476.484 524.557 473.244 529.024 470.003 533.491C469.485 534.206 470.543 535.084 471.063 534.367L480.785 520.963C481.303 520.25 480.245 519.372 479.725 520.089Z" fill="#1B94C7"/>
<path d="M501.329 562.124C491.207 552.539 481.085 542.953 470.962 533.365C470.319 532.757 469.448 533.821 470.088 534.428L500.455 563.184C501.098 563.794 501.969 562.73 501.329 562.124" fill="#1B94C7"/>
<path d="M505.655 553.104C506.636 568.493 507.401 583.891 507.951 599.3C508.5 614.708 508.834 630.123 508.951 645.545C509.015 654.224 509.012 662.903 508.94 671.583C508.932 672.466 507.558 672.532 507.565 671.643C507.693 656.226 507.606 640.809 507.302 625.393C506.998 609.977 506.477 594.568 505.738 579.166C505.323 570.496 504.839 561.829 504.286 553.166C504.285 552.988 504.354 552.817 504.476 552.689C504.599 552.561 504.766 552.485 504.943 552.477C505.121 552.469 505.294 552.531 505.427 552.648C505.56 552.765 505.643 552.929 505.658 553.105" fill="#1D253D"/>
<path d="M529.504 623.066C537.614 625.332 546.232 624.982 554.131 622.066C554.964 621.759 555.381 623.07 554.555 623.374C546.42 626.368 537.549 626.728 529.198 624.402C528.349 624.165 528.647 622.819 529.504 623.062" fill="#1B94C7"/>
<path d="M455.585 624.873C463.694 627.14 472.312 626.792 480.212 623.879C481.045 623.57 481.462 624.879 480.636 625.187C472.5 628.18 463.629 628.538 455.278 626.213C454.43 625.975 454.73 624.63 455.585 624.873Z" fill="#1B94C7"/>
<path d="M524.433 428.52C526.858 420.081 526.269 411.062 522.766 403.011C523.202 400.983 522.88 398.866 521.86 397.061C520.825 395.331 519.342 393.912 517.568 392.955C516.41 392.258 515.126 391.799 513.789 391.602C512.453 391.406 511.091 391.477 509.782 391.811C508.48 392.176 507.319 392.925 506.45 393.961C505.582 394.997 505.046 396.27 504.913 397.616C503.075 396.36 501.109 395.305 499.047 394.467C496.856 393.629 494.462 393.479 492.184 394.039C491.053 394.332 490.014 394.903 489.16 395.7C488.307 396.498 487.667 397.497 487.298 398.606C486.973 399.728 487.046 400.928 487.504 402.003C487.963 403.078 488.778 403.962 489.813 404.505C488.098 402.416 484.147 402.018 481.67 403.093C479.219 404.301 477.319 406.395 476.354 408.951C475.451 410.917 475.138 413.102 475.455 415.242C475.624 416.306 476.042 417.315 476.675 418.187C477.308 419.059 478.139 419.768 479.098 420.258C475.408 422.098 474.213 426.585 474.978 430.636C475.743 434.686 478.291 438.158 480.978 441.283C483.664 444.408 486.615 447.398 488.463 451.084L524.433 428.52Z" fill="#7A2923"/>
<path d="M523.25 429.371C525.406 421.24 524.887 412.632 521.77 404.819C522.158 402.874 521.873 400.854 520.963 399.092C520.071 397.453 518.753 396.087 517.148 395.137C516.139 394.472 515.001 394.03 513.808 393.84C512.615 393.65 511.396 393.717 510.231 394.037C509.037 394.435 507.989 395.18 507.218 396.175C506.448 397.17 505.99 398.371 505.903 399.627C504.282 398.426 502.534 397.409 500.689 396.594C498.757 395.788 496.612 395.644 494.589 396.183C493.555 396.493 492.616 397.058 491.857 397.826C491.099 398.594 490.545 399.541 490.248 400.578C489.684 402.735 490.588 405.337 492.478 406.254C490.953 404.245 487.442 403.859 485.24 404.894C483.038 405.929 481.453 408.139 480.513 410.532C479.709 412.442 479.433 414.533 479.714 416.587C479.847 417.587 480.208 418.543 480.769 419.381C481.331 420.219 482.078 420.917 482.953 421.42C479.673 423.192 478.611 427.509 479.286 431.407C479.961 435.306 482.231 438.647 484.619 441.657C487.008 444.668 489.629 447.543 491.27 451.092L523.25 429.371Z" fill="#3B1411"/>
<path d="M485.213 439.963C486.082 451.089 485.826 462.275 484.448 473.35C484.305 474.447 484.464 475.562 484.907 476.575C485.351 477.589 486.062 478.462 486.965 479.1C492.125 482.698 498.456 484.209 504.684 483.329C506.185 483.088 507.538 482.288 508.472 481.089C509.406 479.89 509.851 478.382 509.718 476.869C509.13 469.732 508.928 462.568 509.112 455.41C503.028 447.69 494.571 442.976 485.213 439.967" fill="#BF6D3E"/>
<path d="M509.113 455.401C503.029 447.682 494.572 442.97 485.213 439.959C485.441 442.885 485.589 445.815 485.659 448.749C489.339 461.111 498.945 468.796 509.393 471.826C509.085 466.421 508.983 461.086 509.113 455.402" fill="#80410E"/>
<path d="M524.558 421.832C526.629 437.356 523.384 463.947 511.664 465.153C497.886 466.57 489.428 454.309 486.354 443.017C486.408 443.21 485.093 443.942 483.752 443.863C482.426 443.786 480.668 442.222 479.939 441.135C478.536 439.036 477.106 435.763 478.618 433.36C480.432 430.471 484.451 429.879 486.146 433.276C486.019 427.628 487.855 422.398 489.813 417.122C490.123 416.265 490.62 415.487 491.267 414.843C491.914 414.2 492.695 413.708 493.554 413.402C501.917 410.638 510.919 410.455 519.388 412.877C520.377 413.187 521.273 413.739 521.994 414.483C522.715 415.228 523.239 416.141 523.517 417.14C523.972 418.679 524.32 420.248 524.558 421.835" fill="#BF6D3E"/>
<path d="M507.949 422.8C505.449 419.628 498.577 421.817 496.045 423.854C495.584 424.227 495.026 424.703 495.081 425.36C495.086 425.526 495.143 425.686 495.243 425.818C495.344 425.95 495.483 426.047 495.642 426.095C496.417 426.318 497.156 425.674 497.803 425.335C499.725 424.324 501.905 423.906 504.065 424.134C505.211 424.255 506.315 424.791 507.468 424.618C508.373 424.483 508.385 423.359 507.948 422.801" fill="#3B1411"/>
<path d="M504.293 428.363C504.231 428.175 504.123 428.006 503.978 427.872C503.844 427.726 503.674 427.617 503.485 427.557C503.306 427.462 503.104 427.417 502.902 427.425L502.497 427.481C502.241 427.549 502.008 427.684 501.822 427.872L501.584 428.181C501.448 428.414 501.376 428.679 501.377 428.95V429.116C501.368 429.319 501.413 429.52 501.508 429.7C501.576 429.884 501.684 430.052 501.823 430.191C501.963 430.331 502.13 430.438 502.315 430.507C502.495 430.601 502.696 430.647 502.898 430.638L503.303 430.585C503.559 430.514 503.792 430.379 503.978 430.191C504.062 430.09 504.137 429.985 504.216 429.882C504.353 429.649 504.425 429.383 504.423 429.113V428.946C504.433 428.744 504.388 428.542 504.293 428.363Z" fill="#3B1411"/>
<path d="M520.988 429.309C520.927 429.122 520.819 428.952 520.673 428.819C520.376 428.547 519.992 428.389 519.59 428.371L519.185 428.427C518.93 428.496 518.697 428.631 518.51 428.819L518.273 429.127C518.136 429.36 518.064 429.626 518.065 429.896V430.063C518.057 430.265 518.102 430.467 518.196 430.646C518.315 430.919 518.51 431.152 518.756 431.318C519.003 431.484 519.293 431.577 519.59 431.584L519.995 431.531C520.251 431.461 520.483 431.325 520.67 431.137L520.908 430.829C521.044 430.595 521.116 430.33 521.115 430.059V429.893C521.125 429.69 521.079 429.489 520.984 429.309" fill="#3B1411"/>
<path d="M524.01 425.004C523.666 424.466 523.215 424.005 522.684 423.65C522.154 423.295 521.555 423.054 520.927 422.942C519.749 422.612 518.506 422.589 517.316 422.873C517.052 422.948 516.823 423.116 516.673 423.345C516.523 423.575 516.46 423.851 516.498 424.123C516.622 425.051 517.408 425.082 518.143 425.092C519.12 425.078 520.09 425.259 520.998 425.622C521.614 425.884 524.851 427.503 524.202 425.456C524.151 425.299 524.088 425.147 524.013 425" fill="#3B1411"/>
<path d="M509.768 455.401C509.276 455.331 508.777 455.331 508.285 455.401C507.848 455.401 507.411 455.373 506.977 455.318C506.521 455.252 506.07 455.161 505.625 455.044C505.161 454.862 504.669 454.762 504.171 454.748C504.056 454.752 503.945 454.789 503.851 454.854C503.757 454.919 503.684 455.01 503.64 455.116C503.596 455.222 503.583 455.338 503.604 455.451C503.624 455.564 503.676 455.668 503.754 455.752C504.137 456.144 504.628 456.413 505.163 456.527C505.646 456.691 506.142 456.811 506.646 456.887C507.172 456.972 507.703 457.021 508.235 457.033C508.817 457.109 509.408 457.032 509.951 456.811C510.078 456.732 510.18 456.617 510.245 456.482C510.309 456.346 510.333 456.195 510.313 456.047C510.294 455.898 510.232 455.758 510.135 455.643C510.038 455.529 509.911 455.445 509.768 455.401Z" fill="#804E26"/>
<path d="M484.892 439.102C484.767 439.146 484.635 439.165 484.502 439.157C484.37 439.148 484.241 439.113 484.123 439.053C484.005 438.993 483.9 438.909 483.816 438.808C483.731 438.706 483.668 438.588 483.63 438.461C483.616 438.326 483.633 438.189 483.679 438.061C483.725 437.932 483.799 437.816 483.896 437.72C483.976 437.618 484.078 437.534 484.194 437.475C484.311 437.416 484.438 437.383 484.568 437.378C484.662 437.376 484.753 437.354 484.836 437.311C484.919 437.269 484.991 437.209 485.048 437.134C485.104 437.06 485.142 436.974 485.16 436.883C485.178 436.791 485.175 436.697 485.152 436.607C484.696 434.975 483.391 433.309 481.511 433.497C481.098 433.528 480.7 433.668 480.359 433.902C480.017 434.136 479.743 434.457 479.564 434.83C479.4 435.189 479.364 435.592 479.463 435.974C479.519 436.196 479.797 436.769 480.114 436.484C480.301 436.317 480.243 436.062 480.303 435.841C480.367 435.608 480.468 435.387 480.603 435.186C480.741 434.995 480.929 434.846 481.146 434.755C481.363 434.663 481.601 434.633 481.834 434.668C482.279 434.745 482.695 434.942 483.035 435.239C483.376 435.536 483.628 435.921 483.764 436.351C483.328 436.539 482.972 436.876 482.762 437.302C482.551 437.728 482.499 438.214 482.614 438.675C482.768 439.201 483.121 439.646 483.598 439.915C484.075 440.185 484.638 440.258 485.168 440.119C485.817 439.922 485.529 438.89 484.889 439.105" fill="#804E26"/>
<path d="M517.15 437.16C516.396 436.559 515.604 436.007 514.779 435.508C514.379 435.269 514.06 434.916 513.862 434.494C513.665 434.071 513.599 433.6 513.672 433.139C513.744 432.415 512.77 432.328 512.429 432.806C511.393 434.258 512.806 436.063 513.965 436.905C514.705 437.342 515.409 437.837 516.071 438.385C516.613 438.935 517.016 439.606 517.247 440.343C517.491 441.074 517.551 441.854 517.42 442.614C517.289 443.374 516.972 444.089 516.497 444.697C515.437 446.023 514.017 446.372 512.458 446.77C512.354 446.802 512.263 446.867 512.198 446.955C512.134 447.042 512.099 447.148 512.099 447.257C512.099 447.366 512.134 447.472 512.198 447.56C512.263 447.647 512.354 447.712 512.458 447.744C514.077 448.235 515.908 447.357 517.103 446.305C517.75 445.73 518.265 445.023 518.614 444.231C518.962 443.438 519.135 442.58 519.121 441.715C519.111 440.863 518.932 440.022 518.594 439.241C518.257 438.459 517.766 437.752 517.153 437.162" fill="#80410E"/>
<path d="M511.933 452.262C509.524 452.973 506.951 452.893 504.591 452.035C502.231 451.176 500.208 449.583 498.82 447.49C498.721 447.337 498.686 447.151 498.724 446.973C498.761 446.795 498.868 446.638 499.021 446.539C499.174 446.44 499.36 446.405 499.539 446.443C499.717 446.48 499.873 446.587 499.973 446.74C501.192 448.584 502.97 449.988 505.046 450.747C507.122 451.506 509.386 451.579 511.507 450.955C512.355 450.705 512.783 452.011 511.933 452.262Z" fill="#3B1411"/>
<path d="M553.158 498.787C554.218 519.342 556.083 539.832 558.751 560.256C559.499 565.975 560.31 571.684 561.184 577.384C561.317 578.258 559.944 578.312 559.811 577.444C556.694 557.101 554.378 536.656 552.863 516.111C552.441 510.358 552.082 504.602 551.785 498.843C551.785 498.666 551.853 498.495 551.975 498.367C552.098 498.239 552.265 498.163 552.443 498.155C552.62 498.147 552.793 498.208 552.926 498.325C553.06 498.442 553.142 498.606 553.158 498.783" fill="#1B94C7"/>
<path d="M401.688 330.59C400.024 329.78 398.632 328.504 397.678 326.919C396.725 325.333 396.251 323.505 396.316 321.656C396.38 319.807 396.978 318.017 398.039 316.501C399.1 314.985 400.578 313.81 402.293 313.117C402.883 307.2 408.239 302.568 414.093 301.533C409.894 311.228 407.188 321.502 406.067 332.007L401.688 330.59Z" fill="#BF6D3E"/>
<path d="M406.427 304.401C404.289 305.204 403.563 307.541 403.093 309.563C402.923 310.776 402.486 311.936 401.813 312.959C401.023 313.947 399.735 314.39 398.72 315.093C397.698 315.762 396.834 316.646 396.19 317.685C395.546 318.723 395.136 319.889 394.991 321.103C394.698 323.842 395.691 326.549 396.633 329.07C396.944 329.897 398.158 329.248 397.85 328.429C396.963 326.058 396.01 323.445 396.4 320.871C396.783 318.339 398.598 316.69 400.718 315.486C401.66 315.019 402.48 314.34 403.115 313.503C403.647 312.657 404.022 311.723 404.224 310.744C404.691 308.87 404.991 306.396 407.064 305.618C407.891 305.308 407.244 304.096 406.424 304.4" fill="#80410E"/>
<path d="M750.493 422.37C755.417 423.848 759.832 426.668 763.244 430.513C766.656 434.359 768.93 439.079 769.811 444.144C770.183 446.477 770.291 448.977 771.623 450.927C773.039 452.996 775.722 454.266 776.277 456.71C776.868 459.313 774.722 462.2 775.958 464.562C777.217 466.972 781.104 466.979 782.313 469.411C783.651 472.108 780.614 475.462 781.842 478.212C782.958 480.712 786.503 480.66 788.852 482.07C791.023 483.372 792.116 486.028 792.102 488.56C791.966 491.098 791.245 493.571 789.994 495.784C783.226 509.175 769.458 518.292 754.757 521.295C740.055 524.299 724.59 521.655 710.75 515.853C707.458 514.471 704.121 512.825 701.911 510.02C699.701 507.215 698.951 502.965 701.078 500.095C701.877 499.017 703.023 498.186 703.592 496.972C705.597 492.691 699.22 488.345 700.167 483.712C700.678 481.206 703.127 479.677 705.222 478.212C707.317 476.747 709.461 474.507 708.918 472.007C708.653 470.775 707.76 469.757 707.468 468.531C706.718 465.353 710.038 462.905 712.135 460.401C715.873 455.941 716.095 449.633 716.819 443.859C718.819 427.928 734.879 417.931 750.491 422.372" fill="#96432A"/>
<path d="M750.235 428.047C754.88 429.442 759.045 432.102 762.264 435.73C765.483 439.357 767.628 443.809 768.46 448.587C768.812 450.789 768.912 453.145 770.169 454.985C771.503 456.938 774.038 458.136 774.56 460.442C775.117 462.895 773.093 465.619 774.258 467.849C775.447 470.122 779.114 470.126 780.253 472.422C781.515 474.966 778.651 478.132 779.808 480.726C780.862 483.086 784.205 483.035 786.422 484.365C787.41 485.041 788.21 485.958 788.747 487.029C789.284 488.1 789.539 489.29 789.489 490.487C789.362 492.881 788.681 495.213 787.502 497.3C781.117 509.932 768.128 518.534 754.263 521.368C740.397 524.202 725.802 521.702 712.749 516.232C709.643 514.93 706.499 513.375 704.411 510.732C702.323 508.09 701.618 504.076 703.621 501.368C704.371 500.353 705.454 499.569 705.992 498.423C707.883 494.384 701.868 490.284 702.762 485.915C703.243 483.55 705.553 482.109 707.529 480.723C709.506 479.337 711.529 477.23 711.018 474.872C710.768 473.711 709.922 472.747 709.65 471.592C708.941 468.592 712.074 466.282 714.053 463.926C717.581 459.717 717.788 453.769 718.47 448.322C720.359 433.293 735.507 423.865 750.233 428.052" fill="#6C301E"/>
<path d="M842.373 461.716C842.342 460.836 842.089 459.977 841.638 459.22C841.186 458.464 840.55 457.834 839.789 457.39C838.257 456.519 836.573 455.95 834.827 455.715C829.77 454.757 824.639 454.247 819.493 454.19C818.202 454.182 816.949 454.626 815.95 455.444C814.952 456.262 814.27 457.403 814.023 458.67C813.737 459.968 813.542 461.284 813.44 462.61C809.951 465.002 810.083 470.415 810.673 474.604C802.547 481.783 789.256 491.961 778.744 494.62C768.233 497.278 756.994 501.673 751.941 511.266C748.433 517.919 748.6 525.831 748.918 533.345C749.15 538.815 749.711 545.005 756.905 546.798C759.179 547.313 761.538 547.326 763.817 546.835C778.537 543.988 787.938 531.251 800.742 523.559C812.97 516.212 825.425 508.358 833.624 496.685C841.823 485.011 850.163 473.666 842.374 461.717" fill="#FF941E"/>
<path d="M843.658 480.173C846.106 474.096 846.465 467.99 842.374 461.716C842.344 460.835 842.092 459.977 841.64 459.22C841.188 458.463 840.552 457.834 839.791 457.39C838.259 456.519 836.575 455.95 834.828 455.715C829.772 454.756 824.641 454.246 819.495 454.19C818.204 454.182 816.951 454.625 815.952 455.443C814.953 456.262 814.272 457.403 814.025 458.67C813.739 459.968 813.544 461.284 813.442 462.61C809.953 465 810.085 470.415 810.677 474.602C802.548 481.781 789.26 491.96 778.748 494.618C768.237 497.276 756.998 501.671 751.943 511.265C748.438 517.917 748.602 525.829 748.921 533.343C748.974 534.566 749.048 535.825 749.202 537.063C783.778 525.646 819.054 507.685 843.659 480.173" fill="#F89939"/>
<path d="M749.2 537.062C749.738 541.36 751.321 545.404 756.907 546.797C759.181 547.311 761.539 547.324 763.818 546.834C778.539 543.987 787.94 531.25 800.744 523.558C812.972 516.211 825.429 508.357 833.628 496.684C837.523 491.139 841.444 485.668 843.658 480.172C819.051 507.684 783.777 525.649 749.201 537.062" fill="#F88108"/>
<path d="M816.728 409.264L815.478 457.374C815.424 459.087 816.027 460.756 817.166 462.038C818.304 463.319 819.89 464.116 821.598 464.264C825.143 464.535 828.696 463.862 831.898 462.315C833.177 461.686 834.222 460.665 834.88 459.4C835.538 458.135 835.774 456.693 835.553 455.284L828.553 408.388C824.591 408.118 820.61 408.413 816.73 409.264" fill="#FFC9B9"/>
<path d="M826.767 484.913C824.02 484.484 821.387 483.512 819.021 482.052C816.655 480.593 814.604 478.675 812.988 476.413C812.474 475.693 811.466 476.63 811.975 477.341C813.711 479.738 815.908 481.764 818.438 483.3C820.968 484.835 823.779 485.85 826.707 486.283C827.581 486.414 827.634 485.041 826.767 484.911" fill="#A86114"/>
<path d="M830.343 468.074C826.157 468.092 822.046 466.972 818.447 464.835C817.687 464.384 816.941 465.538 817.702 465.992C821.507 468.259 825.856 469.453 830.285 469.447C831.168 469.447 831.232 468.072 830.345 468.075" fill="#A86114"/>
<path d="M745.214 490.094C735.955 487.648 726.159 488.208 717.239 491.694C713.101 493.324 708.661 496.476 708.83 500.921C708.976 504.776 712.546 507.531 715.943 509.362C728.643 516.149 743.364 518.133 757.408 514.95C764.169 513.391 770.895 507.788 764.831 501.219C759.81 495.779 752.279 491.981 745.213 490.094" fill="#FF941E"/>
<path d="M715.712 506.859C705.896 508.427 697.949 516.412 692.183 525.181C686.418 533.95 682.143 543.848 675.82 552.149C670.626 558.969 664.132 564.596 659.487 571.865C654.842 579.134 652.282 588.987 656.058 596.831C659.653 604.302 668.001 607.761 675.763 607.855C681.408 607.922 687.455 606.288 691.122 601.624C693.855 598.15 694.913 593.391 694.754 588.824C694.722 587.899 694.645 586.98 694.529 586.068C694.231 583.496 694.517 580.891 695.367 578.446C696.217 576.001 697.608 573.779 699.436 571.947C700.54 570.805 701.554 569.579 702.468 568.28C708.806 559.419 714.718 549.947 717.772 539.233C720.825 528.519 720.978 516.512 715.713 506.861" fill="#FF941E"/>
<path d="M716.873 542.014C717.184 541.093 717.498 540.172 717.767 539.231C720.817 528.514 720.975 516.51 715.711 506.859C705.895 508.427 697.948 516.414 692.183 525.181C686.417 533.948 682.142 543.848 675.819 552.149C670.625 558.969 664.129 564.598 659.481 571.867C654.833 579.136 652.278 588.989 656.054 596.83C659.65 604.301 667.995 607.762 675.759 607.854C681.405 607.923 687.452 606.287 691.118 601.626C693.852 598.15 694.909 593.39 694.751 588.824C694.719 587.899 694.643 586.98 694.524 586.068C694.498 585.86 694.503 585.656 694.486 585.449C692.601 581.392 690.304 577.541 687.63 573.955C698.725 564.94 709.119 554.173 716.875 542.014" fill="#F89939"/>
<path d="M687.628 573.955C690.302 577.541 692.599 581.392 694.484 585.448C694.287 582.974 694.628 580.487 695.482 578.157C696.336 575.827 697.683 573.709 699.432 571.948C700.534 570.805 701.548 569.579 702.464 568.281C708.245 560.198 713.649 551.596 716.872 542.016C709.117 554.175 698.724 564.942 687.628 573.957" fill="#A86114"/>
<path d="M758.087 661C763.379 654.596 767.804 648.01 768.593 643.157L697.813 630.098C695.598 635.859 692.303 641.711 690.604 647.623C711.912 655.597 735.735 661.289 758.088 661.001" fill="#1B94C7"/>
<path d="M747.866 920.781L762.55 920.379C766.641 924.637 791.281 929.994 792.708 935.721H744.473C744.987 930.621 746.126 925.604 747.866 920.782" fill="#21A9E1"/>
<path d="M792.71 935.719C792.847 936.267 792.988 936.815 793.096 937.37C793.138 937.574 793.134 937.784 793.085 937.986C793.036 938.187 792.942 938.376 792.812 938.537C792.681 938.698 792.516 938.829 792.329 938.918C792.142 939.008 791.937 939.055 791.729 939.056H745.698C745.506 939.057 745.316 939.018 745.14 938.942C744.964 938.865 744.805 938.754 744.674 938.613C744.543 938.473 744.442 938.307 744.378 938.126C744.314 937.945 744.288 937.753 744.302 937.561C744.348 936.946 744.411 936.332 744.475 935.72L792.71 935.719Z" fill="#465A94"/>
<path d="M783.811 638.574C762.502 646.548 752.638 643.445 730.286 643.158C728.333 655.773 736.146 682.694 736.146 682.694L737.052 702.412H791.663C791.438 680.058 789.296 657.647 783.81 638.578" fill="#1B94C7"/>
<path d="M737.052 702.412L737.679 711.779L791.084 712.391C791.551 709.086 791.743 705.749 791.66 702.412H737.052Z" fill="#006CB0"/>
<path d="M724.878 920.781L710.195 920.379C706.102 924.637 699.338 929.994 697.909 935.721H728.27C727.756 930.621 726.617 925.604 724.878 920.782" fill="#21A9E1"/>
<path d="M697.909 935.719C697.773 936.267 697.633 936.815 697.523 937.37C697.481 937.574 697.485 937.784 697.534 937.986C697.583 938.187 697.677 938.376 697.808 938.537C697.938 938.698 698.103 938.829 698.29 938.918C698.478 939.008 698.682 939.055 698.89 939.056H727.045C727.237 939.057 727.427 939.018 727.603 938.942C727.78 938.865 727.938 938.754 728.069 938.613C728.201 938.473 728.301 938.307 728.365 938.126C728.429 937.945 728.455 937.753 728.442 937.561C728.394 936.946 728.334 936.332 728.27 935.72L697.909 935.719Z" fill="#465A94"/>
<path d="M737.084 682.69C744.543 675.919 751.558 668.674 758.084 660.999C735.73 661.286 711.908 655.595 690.598 647.621C685.479 665.42 682.965 683.831 682.211 702.408H736.175L737.084 682.69Z" fill="#21A9E1"/>
<path d="M682.212 702.412C681.859 705.73 681.873 709.076 682.253 712.391H736.176V702.412H682.212Z" fill="#0081C9"/>
<path d="M778.059 590.311C778.149 564.12 780.906 542.858 781.955 516.681C782.071 513.798 781.18 510.525 778.669 509.242C741.24 490.135 713.586 505.622 707.496 510.042C705.966 511.17 704.827 512.749 704.238 514.557C703.649 516.365 703.64 518.312 704.213 520.125C711.018 541.858 710.448 561.964 706.826 584.438C703.993 601.995 685.093 622.621 689.848 645.284C719.983 658.784 756.098 657.451 789.139 651.151C797.917 635.412 778.006 604.6 778.056 590.309" fill="#F89939"/>
<path d="M733.74 467.352C735.116 478.241 735.741 489.211 735.61 500.186C735.562 501.201 735.723 502.215 736.083 503.166C736.444 504.116 736.996 504.982 737.705 505.71C741.372 508.97 745.836 510.206 749.86 509.004C751.908 508.394 753.163 505.478 752.764 502.413C751.854 495.377 751.246 488.677 750.828 481.359C746.838 474.928 740.829 470.003 733.74 467.352Z" fill="#FFC9B9"/>
<path d="M750.828 481.359C746.838 474.929 740.828 470.002 733.74 467.352C734.1 470.213 734.408 473.084 734.665 475.964C739.082 484.754 745.353 493.487 752.188 497.481C751.594 492.186 751.144 486.949 750.828 481.359Z" fill="#FFAB90"/>
<path d="M777.25 647.354C767.226 650.241 756.88 651.862 746.453 652.18C736.025 652.503 725.597 651.537 715.407 649.303C709.657 648.036 704.004 646.363 698.49 644.297C697.657 643.986 697.24 645.297 698.066 645.606C707.906 649.279 718.165 651.713 728.607 652.851C739.1 653.998 749.695 653.844 760.15 652.393C766.032 651.575 771.849 650.339 777.555 648.694C778.401 648.45 778.103 647.111 777.248 647.353" fill="#A86114"/>
<path d="M762.921 447.029C766.754 463.937 762.358 483.618 757.898 484.308C743.107 486.598 733.272 472.781 733.177 472.608C733.271 472.781 731.056 473.996 729.752 474.231C728.467 474.464 726.418 473.378 725.47 472.507C723.637 470.823 721.512 468.022 722.397 465.373C723.459 462.183 728.278 460.623 730.692 463.479C735.192 454.747 731.298 450.204 731.108 443.853C738.427 438.128 747.924 435.631 757.402 436.329C758.985 436.445 762.563 445.468 762.917 447.03" fill="#FFC9B9"/>
<path d="M745.808 454.614C745.699 454.453 745.557 454.318 745.391 454.218C745.226 454.117 745.041 454.053 744.848 454.03C744.653 453.981 744.448 453.985 744.255 454.041L743.88 454.189C743.652 454.314 743.462 454.497 743.328 454.719C743.274 454.837 743.223 454.953 743.171 455.071C743.094 455.326 743.087 455.598 743.149 455.857L743.188 456.014C743.226 456.211 743.316 456.394 743.449 456.544C743.559 456.704 743.701 456.839 743.866 456.939C744.031 457.04 744.216 457.104 744.408 457.128C744.604 457.177 744.808 457.173 745.002 457.117L745.378 456.969C745.605 456.843 745.795 456.66 745.931 456.439C745.983 456.321 746.036 456.205 746.088 456.088C746.165 455.833 746.171 455.562 746.107 455.304L746.07 455.145C746.029 454.949 745.939 454.766 745.807 454.614" fill="#3B1411"/>
<path d="M760.25 452.062C760.148 451.897 760.004 451.76 759.833 451.666C759.671 451.557 759.484 451.492 759.289 451.477C759.094 451.429 758.889 451.432 758.696 451.488L758.321 451.636C758.093 451.761 757.903 451.944 757.768 452.167C757.715 452.284 757.663 452.4 757.612 452.517C757.535 452.773 757.528 453.044 757.59 453.303L757.628 453.46C757.737 453.84 757.978 454.169 758.308 454.387C758.469 454.496 758.655 454.561 758.849 454.576C759.044 454.625 759.249 454.621 759.443 454.565L759.819 454.417C760.046 454.291 760.236 454.108 760.372 453.887C760.423 453.769 760.477 453.653 760.528 453.535C760.605 453.28 760.612 453.009 760.548 452.751L760.509 452.592C760.47 452.396 760.38 452.212 760.248 452.062" fill="#3B1411"/>
<path d="M729.739 469.408C729.63 469.48 729.508 469.529 729.38 469.551C729.251 469.574 729.12 469.57 728.993 469.54C728.866 469.511 728.746 469.455 728.642 469.378C728.537 469.3 728.449 469.202 728.383 469.089C728.339 468.963 728.323 468.828 728.337 468.694C728.352 468.561 728.396 468.432 728.467 468.318C728.52 468.201 728.597 468.098 728.695 468.014C728.792 467.93 728.907 467.869 729.03 467.834C729.119 467.811 729.202 467.768 729.272 467.708C729.342 467.649 729.397 467.574 729.434 467.489C729.471 467.405 729.489 467.313 729.485 467.221C729.481 467.129 729.457 467.04 729.413 466.958C728.595 465.504 726.961 464.208 725.203 464.829C724.815 464.956 724.468 465.182 724.195 465.485C723.923 465.788 723.735 466.157 723.65 466.556C723.576 466.937 723.635 467.331 723.817 467.674C723.924 467.873 724.324 468.358 724.56 468.008C724.699 467.802 724.583 467.575 724.592 467.35C724.598 467.112 724.643 466.876 724.724 466.652C724.812 466.437 724.958 466.25 725.144 466.112C725.331 465.974 725.551 465.889 725.783 465.868C726.227 465.838 726.671 465.932 727.066 466.138C727.461 466.343 727.792 466.653 728.023 467.034C727.649 467.315 727.387 467.72 727.284 468.176C727.181 468.632 727.243 469.111 727.46 469.525C727.73 469.993 728.172 470.337 728.691 470.484C729.211 470.631 729.767 470.57 730.243 470.313C730.817 469.975 730.3 469.054 729.743 469.409" fill="#FFAB90"/>
<path d="M747.945 445.721C744.844 446.016 741.886 447.166 739.401 449.043C738.694 449.573 739.607 450.602 740.311 450.073C742.616 448.361 745.35 447.323 748.21 447.073C748.388 447.036 748.545 446.931 748.646 446.78C748.747 446.629 748.785 446.444 748.752 446.265C748.713 446.088 748.607 445.933 748.457 445.832C748.306 445.731 748.123 445.692 747.944 445.723" fill="#6C301E"/>
<path d="M761.872 446.069C761.133 445.366 760.236 444.852 759.257 444.571C758.277 444.289 757.244 444.248 756.245 444.452C756.066 444.487 755.909 444.592 755.807 444.743C755.705 444.895 755.668 445.08 755.703 445.259C755.739 445.438 755.844 445.596 755.995 445.697C756.146 445.799 756.332 445.836 756.511 445.801C756.722 445.755 756.936 445.722 757.152 445.7C757.167 445.7 757.235 445.693 757.246 445.693L757.34 445.689C757.443 445.689 757.543 445.689 757.647 445.689C757.862 445.696 758.076 445.716 758.289 445.747C758.347 445.755 758.403 445.766 758.456 445.774L758.527 445.789C758.55 445.793 758.636 445.815 758.647 445.817C758.703 445.829 758.758 445.844 758.813 445.859C759.01 445.915 759.203 445.982 759.397 446.056C759.491 446.094 759.585 446.139 759.678 446.178L759.718 446.196L759.736 446.207L759.886 446.29C760.063 446.391 760.235 446.5 760.402 446.617C760.494 446.684 760.583 446.752 760.672 446.825C760.698 446.847 760.725 446.867 760.755 446.892L760.849 446.979C760.973 447.111 761.142 447.191 761.322 447.202C761.503 447.213 761.681 447.155 761.819 447.039C761.955 446.918 762.037 446.748 762.048 446.566C762.06 446.385 761.999 446.206 761.879 446.069" fill="#6C301E"/>
<path d="M756.918 475.729L752.418 476.384C752.239 476.421 752.083 476.526 751.981 476.677C751.88 476.828 751.842 477.013 751.876 477.192C751.915 477.369 752.021 477.524 752.171 477.625C752.321 477.725 752.505 477.764 752.683 477.733L757.183 477.078C757.362 477.042 757.518 476.937 757.62 476.786C757.721 476.635 757.759 476.45 757.725 476.271C757.686 476.094 757.58 475.939 757.43 475.838C757.28 475.737 757.096 475.698 756.918 475.729Z" fill="#FFAB90"/>
<path d="M758.83 462.599C758.29 461.874 757.573 461.3 756.747 460.932C756.047 460.669 755.472 460.153 755.134 459.486C755.052 459.324 754.909 459.201 754.737 459.143C754.565 459.085 754.377 459.098 754.213 459.178C754.053 459.263 753.931 459.406 753.874 459.578C753.817 459.75 753.828 459.937 753.905 460.101C754.462 461.633 756.143 461.907 757.257 462.865C757.507 463.018 757.688 463.261 757.764 463.544C757.84 463.827 757.804 464.128 757.663 464.386C757.247 465.071 756.473 465.469 755.927 466.035C755.794 466.158 755.714 466.327 755.703 466.508C755.691 466.688 755.75 466.866 755.867 467.005C755.988 467.14 756.158 467.222 756.339 467.233C756.521 467.244 756.699 467.184 756.837 467.065C757.56 466.498 758.22 465.856 758.805 465.148C759.055 464.77 759.19 464.328 759.194 463.875C759.198 463.422 759.071 462.977 758.828 462.595" fill="#FFAB90"/>
<path d="M756.749 471.87C756.665 471.709 756.521 471.588 756.349 471.53C756.177 471.473 755.99 471.484 755.826 471.561C753.832 472.312 751.65 472.408 749.598 471.836C749.425 471.78 749.238 471.793 749.075 471.872C748.912 471.951 748.786 472.09 748.723 472.26C748.665 472.432 748.677 472.621 748.756 472.785C748.835 472.949 748.976 473.075 749.148 473.136C751.552 473.81 754.11 473.689 756.441 472.793C756.603 472.71 756.726 472.567 756.784 472.395C756.842 472.222 756.829 472.033 756.749 471.87Z" fill="#3B1411"/>
<path d="M726.164 608.487C725.491 612.609 724.009 616.558 721.803 620.105C719.596 623.652 716.71 626.727 713.309 629.153C712.589 629.665 713.526 630.674 714.237 630.167C717.772 627.621 720.768 624.399 723.051 620.689C725.334 616.979 726.859 612.852 727.538 608.549C727.677 607.677 726.302 607.624 726.165 608.489" fill="#A86114"/>
<path d="M768.944 606.556L726.743 607.781C725.863 607.807 725.797 609.182 726.681 609.156L768.884 607.928C769.763 607.905 769.831 606.531 768.944 606.556Z" fill="#A86114"/>
<path d="M777.468 623.945C774.791 622.102 772.641 619.593 771.232 616.664C769.823 613.735 769.203 610.489 769.434 607.247C769.503 606.365 768.128 606.305 768.061 607.187C767.821 610.668 768.493 614.152 770.011 617.293C771.53 620.435 773.842 623.126 776.718 625.1C777.453 625.6 778.196 624.44 777.463 623.946" fill="#A86114"/>
<path d="M724.577 614.487L681.952 582.205C681.952 582.205 671.796 587.461 672.291 600.948L718.401 624.605C720.93 621.542 723.011 618.136 724.58 614.487" fill="#FFC9B9"/>
<path d="M682.308 581.71C678.368 583.615 675.118 586.698 673.007 590.532C670.897 594.366 670.031 598.761 670.529 603.109C670.641 603.985 671.982 603.676 671.87 602.802C671.435 598.75 672.267 594.663 674.251 591.104C676.235 587.544 679.273 584.687 682.948 582.925C683.751 582.553 683.114 581.336 682.308 581.709" fill="#A86114"/>
<path d="M689.367 581.535C687.56 579.413 685.135 577.908 682.431 577.229C679.728 576.551 676.88 576.732 674.284 577.749C673.464 578.076 674.111 579.29 674.927 578.965C677.251 578.088 679.791 577.953 682.196 578.58C684.6 579.207 686.751 580.564 688.352 582.465C688.915 583.149 689.926 582.215 689.365 581.535" fill="#A86114"/>
<path d="M709.4 538.636C709.338 537.764 707.963 537.693 708.028 538.576C708.954 551.714 708.611 564.91 707.002 577.982C706.893 578.86 708.268 578.916 708.375 578.042C709.985 564.97 710.329 551.774 709.401 538.636" fill="#A86114"/>
<path d="M756.545 500.923C756.267 500.09 754.923 500.39 755.204 501.23C756.288 504.467 754.626 507.572 752.711 510.108C751.872 511.359 750.879 512.498 749.755 513.499C748.444 514.536 747.088 514.341 745.767 513.433C744.558 512.599 743.488 511.567 742.308 510.693C741.069 509.774 739.779 508.925 738.446 508.149C735.811 506.621 733.022 505.376 730.125 504.435C727.148 503.461 723.198 502.283 722.703 498.643C722.586 497.768 721.245 498.078 721.363 498.95C721.81 502.244 724.858 504.069 727.719 505.087C731.123 506.163 734.422 507.55 737.572 509.231C739.081 510.1 740.533 511.065 741.92 512.118C743.238 513.118 744.437 514.387 745.929 515.126C749.125 516.709 751.393 513.993 753.201 511.709C755.593 508.693 757.874 504.896 756.544 500.923" fill="#A86114"/>
<path d="M734.327 517.884C734.038 517.059 732.693 517.355 732.986 518.191C735.97 526.711 736.791 535.84 735.374 544.756C735.235 545.627 736.61 545.681 736.747 544.816C738.18 535.777 737.35 526.523 734.33 517.884" fill="white"/>
<path d="M758.389 515.912C758.126 515.079 756.781 515.372 757.048 516.219C760.166 526.074 760.691 536.566 758.573 546.682C758.393 547.542 759.7 547.972 759.882 547.107C762.073 536.753 761.559 526.009 758.389 515.912Z" fill="white"/>
<path d="M710.193 920.375L701.784 874.625C698.933 859.107 697.678 826.838 698.043 811.063L698.426 794.396L684.784 712.396H733.437L720.294 796.885L722.044 805.33C725.891 823.896 727.435 859.366 726.645 878.311L724.872 920.778L710.193 920.375Z" fill="#FFC9B9"/>
<path d="M791.084 712.39L762.549 920.372H747.866L745.382 864.159C744.667 848.001 747.04 815.352 752.372 800.083L739.763 711.801L791.084 712.39Z" fill="#FFC9B9"/>
<path d="M733.435 712.391H684.783L685.518 716.807H732.748L733.435 712.391Z" fill="#FFAB90"/>
<path d="M720.298 796.884L732.749 716.801H685.519L698.426 794.384L698.043 811.057C697.678 826.829 698.933 859.098 701.784 874.616L710.193 920.366L724.876 920.771L726.649 878.304C727.439 859.359 725.893 823.887 722.048 805.321L720.298 796.884Z" fill="#FFC9B9"/>
<path d="M791.084 712.39L739.763 711.801L740.478 716.807H790.478L791.084 712.39Z" fill="#FFAB90"/>
<path d="M740.478 716.805L752.368 800.084C747.034 815.356 744.663 848.001 745.378 864.157L747.865 920.375H762.549L790.478 716.805H740.478Z" fill="#FFC9B9"/>
<path d="M828.735 411.17V411.046L837.095 395.395L828.123 388.584L819.243 391.983L817.653 405.042C817.118 406.802 816.83 408.627 816.797 410.466L828.735 411.17Z" fill="#FFC9B9"/>
<path d="M827.123 232.873L858.023 295.481L927.115 305.522L877.12 354.256L888.922 423.071L827.123 390.582L765.324 423.072L777.126 354.256L727.131 305.523L796.225 295.482L827.123 232.873Z" fill="#FEB12F"/>
<path d="M754.749 301.509L727.137 305.521L777.132 354.257L765.33 423.07L827.129 390.58L888.928 423.07L878.906 364.673C830.823 362.621 783.062 340.148 754.745 301.506" fill="#FEA30A"/>
<path d="M819.301 409.347C821.19 408.073 822.445 405.18 822.373 402.279C822.3 399.377 820.903 396.612 818.956 395.521C818.623 390.839 815.557 387.172 812.211 386.35C814.643 394.19 816.181 402.279 816.798 410.465L819.301 409.347Z" fill="#FFC9B9"/>
<path d="M816.592 388.623C817.815 389.257 818.228 391.107 818.496 392.706C818.585 393.638 818.832 394.548 819.228 395.396C819.68 396.176 820.415 396.529 820.995 397.084C822.269 398.351 823.029 400.044 823.128 401.839C823.176 403.979 822.858 406.111 822.188 408.144C822.013 408.799 821.317 408.286 821.493 407.637C822.137 405.712 822.42 403.685 822.326 401.657C822.235 400.813 821.968 399.998 821.542 399.264C821.117 398.53 820.542 397.893 819.856 397.394C819.283 396.985 818.814 396.447 818.485 395.824C818.175 395.13 817.962 394.396 817.851 393.644C817.585 392.159 817.414 390.199 816.228 389.584C815.754 389.34 816.125 388.381 816.593 388.623" fill="#FFAB90"/>
<path d="M750.781 437.416C749.519 438.989 747.562 440.104 745.745 441.282C743.928 442.459 742.136 443.818 741.432 445.595C740.639 447.602 741.368 449.769 741.28 451.873C741.163 453.341 740.709 454.763 739.954 456.028C739.199 457.293 738.163 458.367 736.926 459.168C734.065 461.046 730.654 461.905 727.245 461.607C726.874 455.012 726.603 448.044 730.535 442.232C733.099 438.439 737.447 435.47 742.457 433.87C746.68 432.521 755.64 431.37 750.783 437.415" fill="#6C301E"/>
<path d="M266.594 456.01C264.465 458.732 262.428 461.328 260.561 463.581C248.324 466.173 244.508 469.981 239.403 481.401L248.328 524.951C266.087 518.779 279.628 501.273 291.448 486.653C292.459 485.402 293.45 484.165 294.421 482.943C293.479 482.895 292.541 482.785 291.613 482.616C279.01 480.515 268.023 468.782 266.594 456.01Z" fill="#21A9E1"/>
<path d="M306.88 441.817C304.999 435.968 300.713 429.724 294.567 429.868C291.225 429.951 288.259 431.958 285.691 434.1C279.839 438.979 272.821 448.048 266.594 456.009C268.023 468.785 279.011 480.516 291.613 482.615C292.541 482.785 293.48 482.894 294.422 482.943C304.76 469.883 312.143 458.183 306.881 441.817" fill="#FFAB91"/>
<path d="M186.342 484.669C186.317 482.903 185.934 481.161 185.218 479.547C184.502 477.933 183.467 476.481 182.175 475.277C179.571 472.883 176.462 471.105 173.078 470.075C165.775 467.769 157.97 467.563 150.555 469.479C137.494 460.59 124.918 451.008 112.88 440.775C105.443 446.27 97.7051 457.934 91.8751 465.109C114.69 493.054 144.464 511.544 178.327 523.988L186.342 484.669Z" fill="#FFAB91"/>
<path d="M186.341 484.67C186.316 482.904 185.934 481.162 185.218 479.548C184.501 477.934 183.466 476.481 182.174 475.278C179.57 472.884 176.461 471.106 173.078 470.076C165.774 467.77 157.971 467.564 150.556 469.48C146.592 466.786 142.689 464.003 138.818 461.18C130.808 471.42 127.128 483.736 125.633 496.687C141.571 508.099 159.3 517.001 178.325 523.99L186.341 484.67Z" fill="#21A9E1"/>
<path d="M171.873 521.516C156.789 509.766 142.33 497.146 127.725 484.893C126.779 488.776 126.08 492.716 125.633 496.688C139.978 506.815 155.506 515.153 171.873 521.516Z" fill="#1894C7"/>
<path d="M169.9 640.025C216.796 645.644 216.106 674.859 216.106 674.859L197.168 796.65L183.638 902.766H161.268C151.742 763.287 169.9 640.025 169.9 640.025Z" fill="#28A44A"/>
<path d="M203.504 673.186C203.504 673.186 182.643 658.631 180.201 645.896L258.507 648.929C258.507 648.929 271.6 813.397 271.268 902.762H249.083L203.504 673.186Z" fill="#259B45"/>
<path d="M269.43 902.764C269.423 906.085 269.403 909.318 269.366 912.42H251.663L250.676 902.764H269.43Z" fill="#FFAB91"/>
<path d="M181.793 902.764C181.787 906.085 181.766 909.318 181.727 912.42H164.023L163.036 902.764H181.793Z" fill="#FFAB91"/>
<path d="M187.373 658.697C183.233 654.17 179.609 649.003 178.669 644.103L257.804 640.027C257.804 640.027 258.449 649.291 258.751 653.142C235.156 659.12 211.022 661.354 187.373 658.698" fill="#1D913D"/>
<path d="M250.661 910.976L271.379 910.355C277.238 917.107 281.327 925.208 283.282 933.931H245.874C246.593 926.123 248.198 918.421 250.661 910.976Z" fill="#465A94"/>
<path d="M283.282 933.928C283.474 934.77 283.673 935.611 283.826 936.464C283.896 936.763 283.9 937.074 283.837 937.375C283.775 937.677 283.647 937.96 283.464 938.207C283.28 938.454 283.045 938.658 282.775 938.804C282.504 938.951 282.205 939.036 281.898 939.056H247.603C247.319 939.042 247.042 938.972 246.787 938.847C246.532 938.723 246.305 938.548 246.12 938.332C245.936 938.117 245.797 937.866 245.713 937.595C245.629 937.324 245.601 937.039 245.632 936.757C245.7 935.812 245.783 934.87 245.876 933.924L283.282 933.928Z" fill="#A86114"/>
<path d="M182.908 910.976L162.19 910.355C156.418 916.899 121.651 925.13 119.64 933.931H187.698C186.979 926.123 185.373 918.422 182.912 910.977" fill="#465A94"/>
<path d="M119.638 933.928C119.445 934.77 119.246 935.611 119.093 936.464C119.023 936.763 119.019 937.074 119.082 937.375C119.145 937.677 119.272 937.96 119.456 938.207C119.639 938.454 119.874 938.658 120.145 938.804C120.415 938.951 120.714 939.036 121.021 939.056H185.966C186.249 939.042 186.527 938.972 186.782 938.847C187.037 938.723 187.263 938.548 187.448 938.332C187.633 938.117 187.771 937.866 187.855 937.595C187.939 937.324 187.967 937.039 187.937 936.757C187.868 935.812 187.785 934.87 187.693 933.924L119.638 933.928Z" fill="#A86114"/>
<path d="M253.013 805.577C255.581 800.77 258.268 796.088 260.396 791.017C262.447 785.85 264.198 780.569 265.641 775.201C265.832 774.546 266.686 774.819 266.577 775.483C265.544 781.027 263.906 786.441 261.692 791.627C259.71 796.829 257.102 801.77 253.925 806.341C253.508 806.911 252.689 806.18 253.013 805.574" fill="#A86114"/>
<path d="M171.824 490.332C171.998 487.19 173.056 484.161 174.878 481.596C176.7 479.03 179.211 477.032 182.12 475.832C194.718 470.563 208.805 468.824 222.507 469.687C235.072 470.482 247.388 473.343 259.408 477.187C263.212 478.424 266.447 480.982 268.529 484.397C270.61 487.813 271.4 491.861 270.756 495.808C263.287 542.65 260.418 590.11 262.188 637.511C262.308 640.573 262.593 644.984 259.665 645.898C232.737 654.298 194.342 655.68 168.717 648.856C162.362 647.161 167.368 641.299 167.351 634.721C167.226 587.648 169.399 536.916 171.824 490.332Z" fill="#21A9E1"/>
<path d="M231.031 439.795C230.212 450.289 230.453 460.839 231.753 471.284C231.888 472.318 231.738 473.37 231.319 474.325C230.901 475.28 230.229 476.103 229.378 476.705C224.51 480.101 218.537 481.527 212.661 480.697C211.245 480.47 209.968 479.716 209.086 478.585C208.205 477.454 207.785 476.031 207.911 474.603C208.467 467.871 208.658 461.114 208.483 454.361C214.225 447.081 222.199 442.634 231.026 439.797" fill="#FFAB91"/>
<path d="M208.483 454.363C214.226 447.083 222.2 442.636 231.027 439.799C230.678 444.269 230.525 448.748 230.568 453.237C226.574 464.171 219.343 474.591 209.6 479.136C209.005 478.55 208.546 477.841 208.254 477.058C207.962 476.276 207.846 475.439 207.913 474.606C208.467 467.874 208.658 461.117 208.484 454.364" fill="#FF8A65"/>
<path d="M233.047 437.203C234.259 432.647 235.471 428.092 236.682 423.536C237.316 421.156 237.954 418.675 237.478 416.258C237.003 413.841 235.056 411.522 232.593 411.488C229.309 406.731 224.798 402.953 219.539 400.554C214.28 398.155 208.469 397.225 202.724 397.864C198.758 398.344 194.703 399.69 192.013 402.642C188.905 406.052 188.138 410.982 188.17 415.596C188.208 421.096 190.67 421.68 194.433 425.686C198.016 429.496 202.049 436.27 207.207 437.15C215.758 438.593 224.49 438.611 233.047 437.203Z" fill="#3E2410"/>
<path d="M231.785 437.298C232.882 433.143 233.979 428.988 235.077 424.832C235.651 422.666 236.227 420.399 235.797 418.195C235.367 415.991 233.603 413.877 231.373 413.845C228.416 409.517 224.337 406.075 219.573 403.887C214.809 401.7 209.54 400.85 204.33 401.428C200.738 401.865 197.067 403.095 194.632 405.785C191.818 408.895 191.123 413.392 191.153 417.599C191.188 422.609 193.415 423.148 196.82 426.801C200.065 430.275 203.717 436.45 208.386 437.255C216.128 438.569 224.035 438.585 231.782 437.302" fill="#170D05"/>
<path d="M193.915 422.702C191.962 437.344 197.984 463.269 206.077 463.562C223.351 464.188 227.052 453.334 229.95 442.684C229.901 442.865 231.138 443.558 232.407 443.483C233.657 443.41 235.318 441.936 236.001 440.91C237.324 438.929 238.668 435.84 237.251 433.577C235.539 430.853 231.751 430.295 230.151 433.494C230.268 428.141 228.521 423.185 226.664 418.186C226.378 417.401 225.922 416.688 225.33 416.098C224.737 415.509 224.022 415.057 223.235 414.774C215.151 412.084 206.434 411.958 198.276 414.414C197.526 414.653 196.845 415.068 196.291 415.626C195.737 416.184 195.326 416.868 195.093 417.619C194.569 419.28 194.176 420.98 193.915 422.702Z" fill="#FFAB91"/>
<g style="mix-blend-mode:multiply" opacity="0.37">
<mask id="mask3_536_709" style="mask-type:luminance" maskUnits="userSpaceOnUse" x="196" y="432" width="35" height="32">
<path d="M230.665 432.943H196.51V463.585H230.665V432.943Z" fill="white"/>
</mask>
<g mask="url(#mask3_536_709)">
<path d="M222.387 446.74C213.72 444.39 204.488 445.374 196.511 449.497C198.788 457.369 202.191 463.419 206.077 463.56C222.548 464.158 226.677 454.316 229.537 444.17L230.666 432.945C227.907 437.541 225.148 442.14 222.388 446.741" fill="#170D05"/>
</g>
</g>
<path d="M237.247 433.573C235.818 431.296 232.943 430.542 231.102 432.214L230.665 432.944L229.536 444.17C229.675 443.67 229.814 443.176 229.953 442.682C229.901 442.863 231.141 443.553 232.407 443.481C233.657 443.406 235.318 441.933 236.003 440.907C237.326 438.926 238.669 435.839 237.253 433.573" fill="#FFAB91"/>
<path d="M230.147 433.489C230.267 428.137 228.517 423.181 226.66 418.179C226.373 417.394 225.918 416.682 225.325 416.093C224.733 415.503 224.018 415.052 223.231 414.769C215.147 412.078 206.429 411.952 198.272 414.409C197.523 414.649 196.842 415.066 196.289 415.625C195.736 416.184 195.325 416.869 195.093 417.62C194.571 419.28 194.177 420.978 193.915 422.699C192.9 430.311 194.043 440.969 196.511 449.493C204.488 445.371 213.721 444.39 222.387 446.743C225.147 442.142 227.907 437.543 230.665 432.945L230.695 432.663C230.481 432.917 230.297 433.196 230.147 433.492" fill="#FFAB91"/>
<path d="M230.693 432.659L230.666 432.942L231.103 432.211C230.955 432.349 230.818 432.499 230.693 432.659Z" fill="#FFAB91"/>
<path d="M209.58 423.612C211.938 420.619 218.419 422.684 220.808 424.606C221.244 424.957 221.769 425.407 221.716 426.023C221.711 426.179 221.658 426.33 221.564 426.454C221.469 426.579 221.338 426.67 221.189 426.717C220.457 426.927 219.761 426.319 219.15 425.999C217.337 425.044 215.281 424.649 213.243 424.866C212.159 424.982 211.124 425.485 210.032 425.323C209.179 425.194 209.167 424.134 209.58 423.609" fill="#170D05"/>
<path d="M213.032 428.856C213.097 428.682 213.198 428.525 213.329 428.394C213.46 428.262 213.618 428.161 213.792 428.096C213.962 428.006 214.154 427.963 214.347 427.972L214.73 428.023C214.97 428.091 215.188 428.218 215.364 428.394C215.439 428.491 215.514 428.587 215.589 428.686C215.718 428.906 215.786 429.157 215.786 429.412V429.566C215.794 429.759 215.751 429.95 215.662 430.121C215.597 430.294 215.495 430.452 215.364 430.583C215.233 430.714 215.075 430.816 214.902 430.881C214.731 430.97 214.539 431.013 214.347 431.005L213.963 430.953C213.724 430.886 213.505 430.758 213.329 430.583L213.104 430.291C212.975 430.071 212.907 429.82 212.907 429.565V429.411C212.899 429.218 212.942 429.027 213.032 428.856Z" fill="#3B1411"/>
<path d="M197.283 429.745C197.348 429.571 197.449 429.413 197.58 429.282C197.711 429.151 197.869 429.05 198.043 428.985C198.213 428.895 198.405 428.852 198.598 428.86L198.981 428.912C199.22 428.979 199.439 429.107 199.615 429.283L199.84 429.575C199.969 429.795 200.036 430.045 200.037 430.3V430.455C200.045 430.647 200.002 430.839 199.913 431.01C199.855 431.187 199.753 431.346 199.615 431.472C199.336 431.729 198.976 431.878 198.598 431.894L198.214 431.842C197.975 431.775 197.756 431.647 197.58 431.471L197.355 431.18C197.226 430.96 197.158 430.71 197.158 430.455V430.3C197.15 430.108 197.193 429.916 197.283 429.745" fill="#3B1411"/>
<path d="M194.433 425.688C194.757 425.18 195.183 424.745 195.683 424.41C196.184 424.074 196.749 423.847 197.342 423.741C198.454 423.432 199.626 423.41 200.749 423.677C200.998 423.749 201.213 423.908 201.355 424.125C201.497 424.342 201.555 424.603 201.52 424.86C201.403 425.736 200.661 425.766 199.968 425.776C199.046 425.763 198.13 425.933 197.275 426.276C196.692 426.526 193.64 428.05 194.255 426.12C194.301 425.971 194.36 425.827 194.433 425.689" fill="#170D05"/>
<path d="M231.329 438.986C231.447 439.028 231.572 439.046 231.697 439.038C231.822 439.031 231.944 438.998 232.055 438.941C232.167 438.884 232.266 438.806 232.345 438.709C232.425 438.613 232.485 438.502 232.52 438.382C232.533 438.254 232.518 438.125 232.475 438.004C232.431 437.883 232.361 437.773 232.27 437.683C232.195 437.587 232.099 437.508 231.99 437.452C231.881 437.396 231.761 437.365 231.638 437.36C231.55 437.358 231.464 437.337 231.385 437.297C231.306 437.257 231.238 437.2 231.184 437.13C231.131 437.06 231.094 436.979 231.077 436.893C231.059 436.806 231.061 436.717 231.083 436.632C231.514 435.094 232.743 433.519 234.519 433.697C234.908 433.728 235.282 433.859 235.604 434.08C235.926 434.3 236.184 434.601 236.353 434.952C236.508 435.292 236.541 435.675 236.447 436.036C236.393 436.246 236.13 436.786 235.834 436.517C235.657 436.357 235.712 436.119 235.654 435.912C235.595 435.691 235.499 435.481 235.372 435.291C235.241 435.111 235.064 434.971 234.859 434.885C234.655 434.799 234.43 434.77 234.211 434.802C233.791 434.876 233.4 435.063 233.079 435.343C232.758 435.623 232.52 435.986 232.39 436.392C232.801 436.568 233.136 436.885 233.336 437.286C233.535 437.686 233.585 438.145 233.478 438.579C233.332 439.075 232.999 439.495 232.549 439.75C232.099 440.004 231.568 440.073 231.068 439.942C230.458 439.757 230.727 438.781 231.331 438.987" fill="#FF8A65"/>
<path d="M188.25 640.085C199.447 641.11 210.718 639.208 220.958 634.566C235.692 627.8 247.335 615.731 253.566 600.764C253.888 599.994 255.033 600.603 254.714 601.368C250.68 610.99 244.423 619.52 236.457 626.258C227.995 633.392 217.857 638.257 206.998 640.394C200.731 641.628 194.319 641.949 187.961 641.349C187.134 641.272 187.428 640.009 188.25 640.086" fill="#1B94C7"/>
<path d="M208.919 483.151C213.354 484.385 218.031 484.467 222.506 483.388C226.981 482.309 231.106 480.104 234.491 476.984C235.095 476.414 236.057 477.288 235.446 477.86C231.905 481.148 227.584 483.476 222.89 484.625C218.197 485.773 213.288 485.703 208.63 484.421C207.831 484.194 208.114 482.928 208.919 483.155" fill="#1B94C7"/>
<path d="M200.788 436.028C201.778 434.82 202.937 433.651 203.213 432.053C203.355 431.233 204.618 431.523 204.477 432.345C203.995 435.132 201.277 436.579 200.343 439.12C200.076 439.828 200.018 440.597 200.174 441.337C200.33 442.076 200.695 442.756 201.224 443.296C201.754 443.835 202.427 444.212 203.163 444.382C203.9 444.553 204.67 444.509 205.383 444.256C205.544 444.209 205.718 444.227 205.867 444.306C206.016 444.385 206.128 444.519 206.18 444.679C206.232 444.84 206.219 445.014 206.144 445.165C206.07 445.316 205.94 445.433 205.781 445.489C204.968 445.756 204.102 445.822 203.258 445.682C202.414 445.542 201.615 445.201 200.931 444.687C200.247 444.173 199.697 443.501 199.328 442.729C198.959 441.957 198.782 441.107 198.812 440.252C198.995 438.666 199.688 437.185 200.788 436.028Z" fill="#FF8A65"/>
<path d="M215.134 449.314C213.909 450.903 212.269 452.123 210.394 452.838C208.519 453.553 206.483 453.736 204.511 453.366C203.652 453.193 203.223 454.5 204.089 454.675C206.351 455.125 208.695 454.931 210.852 454.115C213.009 453.299 214.894 451.894 216.292 450.059C216.823 449.35 215.663 448.609 215.134 449.314Z" fill="#3B1411"/>
<path d="M196.24 194.066L227.141 256.675L296.233 266.716L246.24 315.449L258.042 384.265L196.24 351.775L134.44 384.265L146.24 315.449L96.2467 266.716L165.338 256.675L196.24 194.066Z" fill="#FEB12F"/>
<path d="M123.859 262.703L96.2467 266.714L146.24 315.45L134.44 384.263L196.24 351.773L258.039 384.263L248.022 325.866C199.938 323.814 152.178 301.342 123.861 262.699" fill="#FEA30A"/>
<path d="M152.941 357.031C153.758 356.893 154.595 356.922 155.402 357.114C155.804 357.216 156.171 357.425 156.464 357.718C156.758 358.012 156.966 358.379 157.068 358.781C157.104 359.279 156.985 359.777 156.727 360.204C156.469 360.632 156.084 360.969 155.627 361.169C154.704 361.549 153.726 361.778 152.731 361.846C149.344 362.35 146.142 363.714 143.431 365.806C142.118 366.973 140.721 368.044 139.253 369.008C133.958 371.976 129.82 366.27 135.336 362.88C140.713 359.68 146.721 357.687 152.944 357.037" fill="#FFAB91"/>
<path d="M156.09 362.142C156.908 362.005 157.744 362.033 158.551 362.226C158.953 362.327 159.32 362.536 159.614 362.829C159.907 363.123 160.116 363.49 160.218 363.892C160.254 364.391 160.134 364.888 159.876 365.316C159.618 365.743 159.234 366.08 158.776 366.281C157.853 366.661 156.875 366.889 155.88 366.957C152.493 367.462 149.291 368.825 146.58 370.917C145.267 372.085 143.87 373.155 142.401 374.119C137.106 377.087 132.968 371.382 138.484 367.992C143.861 364.792 149.869 362.798 156.093 362.148" fill="#FFAB91"/>
<path d="M155.152 367.914C155.969 367.776 156.806 367.805 157.613 367.997C158.015 368.099 158.382 368.308 158.675 368.601C158.969 368.895 159.177 369.262 159.279 369.664C159.315 370.162 159.196 370.659 158.938 371.087C158.68 371.515 158.295 371.852 157.838 372.052C156.915 372.433 155.937 372.661 154.942 372.729C151.554 373.233 148.353 374.596 145.642 376.689C144.328 377.856 142.932 378.926 141.463 379.891C136.168 382.859 132.03 377.153 137.546 373.763C142.923 370.564 148.931 368.57 155.154 367.92" fill="#FFAB91"/>
<path d="M152.396 373.808C153.063 373.694 153.746 373.716 154.405 373.872C154.733 373.955 155.033 374.125 155.273 374.365C155.512 374.604 155.682 374.904 155.765 375.232C155.795 375.639 155.698 376.045 155.487 376.394C155.277 376.743 154.963 377.018 154.589 377.182C153.836 377.491 153.037 377.678 152.224 377.734C149.459 378.146 146.845 379.259 144.632 380.968C143.56 381.921 142.42 382.795 141.22 383.582C136.898 386.006 133.52 381.347 138.02 378.582C142.411 375.971 147.315 374.343 152.396 373.812" fill="#FFAB91"/>
<path d="M134.683 363.32C132.14 365.389 129.945 367.852 128.183 370.615C126.083 373.79 124.849 377.714 125.643 381.436C126.436 385.159 129.618 388.479 133.418 388.655C135.707 388.661 137.928 387.875 139.704 386.431C141.591 385.018 143.127 383.19 144.194 381.088C145.261 378.987 145.83 376.668 145.858 374.311C145.885 371.954 145.371 369.622 144.353 367.496C143.336 365.37 141.843 363.506 139.991 362.049L134.683 363.32Z" fill="#FFAB91"/>
<path d="M129.392 373.738C120.827 384.053 87.4975 436.231 87.3084 449.459C87.2059 456.401 89.5584 463.775 94.8775 468.459C100.794 473.677 107.784 472.362 111.687 465.559C118.742 453.262 132.726 398.877 136.054 382.196L129.392 373.738Z" fill="#FFAB91"/>
<path d="M240.342 351.93C239.524 351.792 238.687 351.82 237.881 352.013C237.479 352.115 237.112 352.324 236.818 352.617C236.525 352.91 236.316 353.277 236.214 353.68C236.178 354.178 236.297 354.675 236.556 355.103C236.814 355.53 237.198 355.868 237.656 356.068C238.579 356.447 239.556 356.675 240.552 356.745C243.939 357.248 247.141 358.611 249.852 360.705C251.165 361.872 252.562 362.942 254.031 363.906C259.326 366.875 263.463 361.169 257.948 357.779C252.571 354.578 246.563 352.584 240.339 351.934" fill="#FFAB91"/>
<path d="M237.193 357.043C236.376 356.905 235.539 356.933 234.733 357.126C234.33 357.228 233.963 357.437 233.67 357.73C233.376 358.024 233.168 358.391 233.066 358.793C233.03 359.291 233.149 359.788 233.407 360.216C233.665 360.644 234.05 360.981 234.508 361.181C235.43 361.561 236.408 361.79 237.403 361.858C240.791 362.362 243.992 363.725 246.703 365.818C248.017 366.985 249.413 368.055 250.882 369.019C256.177 371.988 260.315 366.282 254.799 362.892C249.422 359.693 243.414 357.699 237.191 357.049" fill="#FFAB91"/>
<path d="M238.134 362.812C237.317 362.675 236.48 362.703 235.673 362.896C235.271 362.998 234.904 363.206 234.611 363.5C234.317 363.793 234.109 364.16 234.007 364.562C233.971 365.061 234.09 365.558 234.348 365.986C234.606 366.413 234.991 366.75 235.448 366.951C236.371 367.331 237.349 367.559 238.344 367.627C241.732 368.132 244.933 369.495 247.644 371.587C248.957 372.755 250.354 373.825 251.823 374.789C257.118 377.757 261.255 372.052 255.739 368.662C250.362 365.463 244.354 363.469 238.131 362.818" fill="#FFAB91"/>
<path d="M240.888 368.707C240.221 368.593 239.538 368.614 238.879 368.771C238.551 368.854 238.251 369.024 238.012 369.263C237.772 369.503 237.602 369.802 237.519 370.131C237.489 370.537 237.586 370.943 237.797 371.292C238.008 371.642 238.321 371.917 238.695 372.08C239.448 372.391 240.247 372.577 241.06 372.632C243.825 373.045 246.439 374.158 248.653 375.867C249.724 376.82 250.865 377.693 252.064 378.48C256.387 380.905 259.767 376.246 255.264 373.48C250.874 370.869 245.969 369.242 240.888 368.71" fill="#FFAB91"/>
<path d="M258.603 358.219C261.145 360.287 263.338 362.75 265.097 365.514C267.198 368.687 268.43 372.613 267.639 376.335C266.848 380.058 263.662 383.375 259.863 383.554C257.574 383.557 255.354 382.772 253.576 381.33C251.689 379.917 250.153 378.088 249.086 375.986C248.019 373.884 247.45 371.565 247.422 369.208C247.395 366.851 247.91 364.519 248.927 362.393C249.945 360.266 251.438 358.402 253.291 356.945L258.603 358.219Z" fill="#FFAB91"/>
<path d="M263.892 368.643C272.457 378.958 305.786 431.135 305.981 444.363C306.082 451.305 303.731 458.679 298.409 463.363C292.493 468.581 285.503 467.266 281.6 460.463C274.545 448.167 260.563 393.781 257.233 377.1L263.892 368.643Z" fill="#FFAB91"/>
<path d="M292.593 483.674L267.398 513.457C264.994 516.299 262.589 519.141 260.183 521.983C259.618 522.65 260.541 523.673 261.113 522.997C269.509 513.072 277.906 503.145 286.305 493.217L293.521 484.688C294.084 484.021 293.164 483 292.593 483.674Z" fill="#1B94C7"/>
<path d="M170.162 489.064C169.412 500.675 168.798 512.295 168.32 523.925C167.842 535.608 167.504 547.297 167.305 558.989C167.194 565.549 167.126 572.109 167.102 578.668C167.102 579.55 168.473 579.615 168.477 578.728C168.519 567.091 168.699 555.457 169.017 543.825C169.338 532.135 169.798 520.45 170.396 508.771C170.732 502.22 171.112 495.67 171.535 489.124C171.539 488.944 171.472 488.77 171.349 488.639C171.226 488.508 171.057 488.43 170.878 488.423C170.698 488.415 170.523 488.477 170.389 488.597C170.255 488.717 170.174 488.885 170.162 489.064Z" fill="#1B94C7"/>
<path d="M196.102 438.445C194.767 438.445 193.462 438.049 192.352 437.308C191.242 436.566 190.376 435.512 189.866 434.278C189.355 433.045 189.221 431.688 189.481 430.378C189.742 429.069 190.385 427.866 191.329 426.922C192.273 425.978 193.475 425.335 194.785 425.075C196.094 424.815 197.451 424.948 198.685 425.459C199.918 425.97 200.972 426.835 201.714 427.945C202.456 429.055 202.852 430.36 202.852 431.695C202.849 433.485 202.137 435.2 200.872 436.466C199.607 437.731 197.891 438.443 196.102 438.445ZM196.102 425.63C194.902 425.63 193.73 425.986 192.733 426.652C191.736 427.318 190.959 428.265 190.5 429.373C190.041 430.481 189.921 431.7 190.155 432.877C190.389 434.053 190.966 435.133 191.814 435.981C192.662 436.829 193.743 437.407 194.919 437.64C196.095 437.874 197.314 437.754 198.422 437.295C199.53 436.837 200.477 436.059 201.143 435.062C201.809 434.065 202.165 432.893 202.165 431.694C202.163 430.086 201.524 428.545 200.387 427.408C199.25 426.272 197.709 425.632 196.102 425.63Z" fill="#170D05"/>
<path d="M212.622 438.445C211.287 438.445 209.982 438.049 208.872 437.308C207.762 436.566 206.896 435.512 206.386 434.278C205.875 433.045 205.741 431.688 206.001 430.378C206.262 429.069 206.905 427.866 207.849 426.922C208.793 425.978 209.995 425.335 211.305 425.075C212.614 424.815 213.971 424.948 215.205 425.459C216.438 425.97 217.492 426.835 218.234 427.945C218.976 429.055 219.372 430.36 219.372 431.695C219.369 433.485 218.657 435.2 217.392 436.466C216.127 437.731 214.411 438.443 212.622 438.445ZM212.622 425.63C211.422 425.63 210.25 425.986 209.253 426.652C208.256 427.318 207.479 428.265 207.02 429.373C206.561 430.481 206.441 431.7 206.675 432.877C206.909 434.053 207.486 435.133 208.334 435.981C209.182 436.829 210.263 437.407 211.439 437.64C212.615 437.874 213.834 437.754 214.942 437.295C216.05 436.837 216.997 436.059 217.663 435.062C218.329 434.065 218.685 432.893 218.685 431.694C218.683 430.086 218.044 428.545 216.907 427.408C215.77 426.272 214.229 425.632 212.622 425.63Z" fill="#170D05"/>
<path d="M202.607 429.605L202.131 429.105C202.739 428.549 203.523 428.225 204.347 428.191C205.17 428.156 205.979 428.413 206.631 428.916L206.198 429.452C205.675 429.057 205.03 428.856 204.374 428.884C203.719 428.911 203.093 429.165 202.604 429.602" fill="#170D05"/>
<path d="M232.137 431.701C227.916 430.104 223.358 429.611 218.893 430.27L218.795 429.589C223.374 428.915 228.049 429.42 232.378 431.058L232.137 431.701Z" fill="#170D05"/>
<path d="M873.051 939.055H72.8834V944.204H873.051V939.055Z" fill="#001E4A"/>
</g>
</g>
</g>
</svg>
