<svg width="1200" height="1200" viewBox="0 0 1200 1200" fill="none" xmlns="http://www.w3.org/2000/svg">
<rect width="1200" height="1200" fill="white"/>
<g clip-path="url(#clip0_536_383)">
<mask id="mask0_536_383" style="mask-type:luminance" maskUnits="userSpaceOnUse" x="102" y="53" width="1048" height="1048">
<path d="M1150 53H102V1101H1150V53Z" fill="white"/>
</mask>
<g mask="url(#mask0_536_383)">
<path d="M1150 53H102V1101H1150V53Z" fill="white"/>
<mask id="mask1_536_383" style="mask-type:luminance" maskUnits="userSpaceOnUse" x="178" y="83" width="896" height="960">
<path d="M1073.62 83.5586H178.382V1042.52H1073.62V83.5586Z" fill="white"/>
</mask>
<g mask="url(#mask1_536_383)">
<mask id="mask2_536_383" style="mask-type:luminance" maskUnits="userSpaceOnUse" x="178" y="83" width="896" height="960">
<path d="M1073.62 83.5586H178.382V1042.52H1073.62V83.5586Z" fill="white"/>
</mask>
<g mask="url(#mask2_536_383)">
<path d="M553.946 236.96V384.97H488.926C486.153 384.968 483.495 383.864 481.536 381.902C479.577 379.94 478.478 377.281 478.479 374.508V247.404C478.479 246.032 478.749 244.673 479.274 243.406C479.799 242.138 480.568 240.986 481.538 240.016C482.509 239.046 483.66 238.277 484.928 237.752C486.195 237.227 487.554 236.957 488.926 236.957L553.946 236.96Z" fill="#1D253D"/>
<path d="M807.081 307.039C800.394 369.971 764.657 384.972 764.657 384.972H553.947V236.961C613.071 225.592 641.23 152.772 635.136 116.26C636.217 108.859 636.232 101.341 635.179 93.9364C639.358 81.4425 651.679 83.9498 651.679 83.9498C692.33 90.3199 694.647 174.666 694.334 202.16C694.303 204.458 695.154 206.681 696.711 208.372C698.268 210.063 700.413 211.094 702.707 211.253C718.24 212.301 752.118 215.374 781.806 223.141C801.288 228.243 809.373 233.343 811.761 244.499C814.294 256.257 810.509 274.746 807.08 307.039" fill="#FEA30A"/>
<path d="M553.946 236.96V362.431H488.926C486.156 362.43 483.5 361.328 481.541 359.37C479.582 357.411 478.481 354.755 478.479 351.985V247.404C478.479 246.032 478.749 244.673 479.274 243.406C479.799 242.138 480.568 240.986 481.538 240.016C482.509 239.046 483.66 238.277 484.928 237.752C486.195 237.227 487.554 236.957 488.926 236.957L553.946 236.96Z" fill="#465A94"/>
<path d="M811.764 244.497C810.727 254.786 808.853 267.798 807.082 284.501C800.395 347.429 764.656 362.432 764.656 362.432H553.945V236.959C583.417 231.294 606.36 209.498 620.263 183.749C630.292 165.173 633.428 144.219 634.76 123.412C635.539 111.253 630.803 79.7004 651.68 83.9492C692.333 90.3175 694.648 174.662 694.336 202.157C694.305 204.456 695.156 206.679 696.713 208.37C698.27 210.061 700.415 211.092 702.708 211.251C718.243 212.303 752.122 215.372 781.808 223.14C801.292 228.24 809.375 233.342 811.763 244.496" fill="#FEB12F"/>
<path d="M727.547 384.967H759.262L743.937 401.703V419.838H721.398V404.171C721.398 400.58 722.156 397.031 723.621 393.753L727.547 384.967Z" fill="#BF6D3E"/>
<path d="M726.645 399.453C728.388 398.604 729.847 397.268 730.846 395.606C731.846 393.945 732.342 392.029 732.275 390.091C732.207 388.153 731.58 386.277 730.468 384.688C729.356 383.1 727.807 381.868 726.01 381.141C725.392 374.941 719.779 370.087 713.644 369.002C718.045 379.162 720.881 389.93 722.055 400.939L726.645 399.453Z" fill="#BF6D3E"/>
<path d="M721.677 372.007C723.917 372.849 724.678 375.298 725.17 377.416C725.349 378.688 725.807 379.903 726.513 380.976C727.341 382.011 728.69 382.475 729.754 383.212C730.825 383.913 731.73 384.84 732.405 385.928C733.081 387.016 733.509 388.239 733.662 389.51C733.969 392.381 732.928 395.218 731.941 397.86C731.615 398.726 730.342 398.046 730.665 397.189C731.595 394.704 732.594 391.965 732.185 389.267C731.783 386.614 729.882 384.886 727.659 383.624C726.673 383.134 725.813 382.423 725.148 381.545C724.591 380.659 724.197 379.68 723.985 378.655C723.496 376.691 723.182 374.098 721.009 373.283C720.143 372.957 720.82 371.687 721.68 372.006" fill="#80410E"/>
<path d="M522.066 384.967H490.349L505.673 401.703V419.838H528.212V404.171C528.212 400.58 527.455 397.031 525.989 393.753L522.066 384.967Z" fill="#BF6D3E"/>
<path d="M656.956 549.669C675.895 537.341 693.085 522.516 708.063 505.594C713.335 475.807 716.393 443.879 718.581 413.709C727.823 412.777 738.204 412.292 747.454 413.147C754.406 453.708 757.127 494.393 754.354 535.452C728.89 560.624 701.715 588.726 676.251 613.894L656.956 549.669Z" fill="#21A9E1"/>
<path d="M751.557 516.971C753.031 514.905 754.305 512.704 755.364 510.398C755.248 518.735 754.912 527.086 754.356 535.449C728.893 560.62 701.717 588.722 676.253 613.891L671.764 598.966C699.95 573.592 727.793 547.662 751.553 516.97" fill="#1B94C7"/>
<path d="M720.906 428.005L740.17 428.463C741.092 428.485 741.162 429.926 740.233 429.904C733.811 429.751 727.39 429.598 720.969 429.443C720.047 429.423 719.977 427.983 720.906 428.005Z" fill="#1D253D"/>
<path d="M592.389 549.669C573.449 537.34 556.258 522.515 541.278 505.594C536.007 475.807 532.95 443.879 530.762 413.709C521.52 412.777 511.139 412.292 501.889 413.147C494.937 453.708 492.217 494.393 494.99 535.452C520.453 560.624 547.629 588.726 573.093 613.894L592.389 549.669Z" fill="#21A9E1"/>
<path d="M574.308 591.907C574.737 596.726 575.083 601.552 575.348 606.387L573.092 613.89C547.631 588.719 520.454 560.617 494.991 535.448C494.257 524.561 493.905 513.696 493.934 502.855C507.907 540.173 539.557 568.739 574.308 591.906" fill="#1B94C7"/>
<path d="M503.453 429.101C511.953 428.67 520.456 428.24 528.961 427.811C529.147 427.81 529.326 427.882 529.46 428.01C529.595 428.138 529.675 428.314 529.683 428.5C529.691 428.685 529.627 428.867 529.504 429.007C529.381 429.146 529.209 429.233 529.024 429.249C520.519 429.68 512.016 430.11 503.516 430.54C503.33 430.54 503.151 430.469 503.017 430.34C502.882 430.212 502.803 430.036 502.795 429.851C502.786 429.665 502.85 429.483 502.973 429.344C503.096 429.204 503.268 429.117 503.453 429.101Z" fill="#1D253D"/>
<path d="M561.995 998.607C562.004 1002.13 562.027 1005.56 562.071 1008.86H582.526L583.669 998.607H561.995Z" fill="#001E4A"/>
<path d="M663.284 998.607C663.293 1002.13 663.316 1005.56 663.36 1008.86H683.816L684.958 998.607H663.284Z" fill="#001E4A"/>
<path d="M685.669 719.756C631.471 725.718 623.622 756.728 623.622 756.728L645.509 885.981L657 1004.37H693.467C704.479 856.339 685.669 719.75 685.669 719.75" fill="#259B45"/>
<path d="M638.186 754.953C638.186 754.953 662.297 739.507 665.12 725.99L567.412 729.208C567.412 729.208 553.808 903.762 554.194 998.61H591.473L638.186 754.953Z" fill="#465A94"/>
<path d="M635.443 769.263L591.473 1004.37H554.194C553.906 933.796 561.365 813.341 565.204 759.256C587.922 766.571 611.657 770.26 635.443 769.263Z" fill="#28A44A"/>
<path d="M565.204 759.256C566.523 740.654 567.415 729.206 567.415 729.206L665.12 725.986C662.292 739.505 638.188 754.953 638.188 754.953L635.443 769.263C611.659 770.263 587.924 766.571 565.204 759.256Z" fill="#259B45"/>
<path d="M656.831 739.571C661.617 734.768 665.806 729.284 666.892 724.081L575.433 719.758C575.433 719.758 574.69 729.587 574.34 733.674C601.608 740.018 629.5 742.39 656.831 739.571Z" fill="#1D253D"/>
<path d="M583.689 1007.32L559.745 1006.67C553.064 1013.67 548.323 1022.29 545.99 1031.69H589.22C588.383 1023.37 586.525 1015.19 583.689 1007.32Z" fill="#001E4A"/>
<path d="M545.99 1031.68C545.768 1032.58 545.538 1033.47 545.361 1034.38C545.293 1034.71 545.299 1035.05 545.379 1035.38C545.459 1035.71 545.612 1036.02 545.825 1036.28C546.038 1036.54 546.307 1036.75 546.612 1036.9C546.917 1037.05 547.251 1037.12 547.59 1037.12H587.223C587.536 1037.13 587.846 1037.06 588.133 1036.94C588.421 1036.81 588.679 1036.63 588.893 1036.4C589.107 1036.17 589.271 1035.9 589.376 1035.61C589.481 1035.31 589.523 1035 589.502 1034.69C589.423 1033.68 589.327 1032.68 589.219 1031.68H545.99Z" fill="#A86114"/>
<path d="M661.991 1007.32L685.935 1006.67C692.606 1013.61 732.786 1022.34 735.113 1031.69H656.461C657.297 1023.37 659.155 1015.19 661.991 1007.32Z" fill="#001E4A"/>
<path d="M735.112 1031.68C735.334 1032.58 735.561 1033.47 735.741 1034.38C735.809 1034.71 735.803 1035.05 735.722 1035.38C735.641 1035.71 735.489 1036.02 735.276 1036.28C735.062 1036.54 734.793 1036.75 734.488 1036.9C734.182 1037.05 733.848 1037.12 733.51 1037.12H658.456C658.143 1037.13 657.833 1037.06 657.545 1036.94C657.258 1036.81 656.999 1036.63 656.786 1036.4C656.572 1036.17 656.407 1035.9 656.303 1035.61C656.198 1035.31 656.155 1035 656.177 1034.69C656.258 1033.68 656.352 1032.68 656.457 1031.68H735.112Z" fill="#A86114"/>
<path d="M580.97 895.462C578.001 890.36 574.896 885.39 572.436 880.01C570.074 874.544 568.05 868.939 566.375 863.225C566.33 863.088 566.234 862.974 566.107 862.906C565.98 862.838 565.832 862.822 565.693 862.86C565.554 862.899 565.436 862.989 565.362 863.112C565.288 863.236 565.264 863.383 565.295 863.523C566.497 869.437 568.392 875.189 570.941 880.659C573.256 886.224 576.272 891.472 579.915 896.275C580.4 896.881 581.345 896.1 580.97 895.463" fill="#1D253D"/>
<path d="M560.142 995.119H583.904C584.828 995.119 584.896 996.558 583.966 996.558H560.205C559.28 996.558 559.213 995.119 560.142 995.119Z" fill="#1D253D"/>
<path d="M675.99 567.125C675.694 560.771 671.27 555.278 664.709 552.89C650.79 547.825 635.178 546.268 619.968 547.281C606.01 548.21 592.307 551.184 578.921 555.123C570.197 557.691 564.742 565.487 566.083 573.507C574.145 621.507 576.699 670.271 573.695 718.85C609.509 729.243 645.24 732.269 679.1 720.44C680.253 670.973 678.314 616.674 675.99 567.125Z" fill="#A6F3FF"/>
<path d="M625.527 561.047C621.603 563.036 617.928 565.48 614.577 568.329C613.127 565.638 611.782 562.881 610.391 560.164C609.625 558.671 608.857 557.18 608.085 555.692C607.413 554.161 606.594 552.699 605.64 551.326C605.218 550.802 604.401 551.373 604.558 551.954C605.091 553.484 605.771 554.958 606.587 556.357C607.361 557.915 608.139 559.469 608.921 561.019C610.454 564.067 612.082 567.084 613.518 570.176C613.589 570.293 613.685 570.392 613.799 570.466C613.914 570.541 614.043 570.589 614.179 570.606C614.314 570.623 614.451 570.61 614.581 570.567C614.71 570.524 614.828 570.453 614.926 570.358C618.458 567.35 622.292 564.716 626.367 562.498C627.32 561.984 626.479 560.563 625.521 561.05" fill="#47BED1"/>
<path d="M639.666 561.066C639.608 559.764 639.571 558.46 639.556 557.154C639.538 555.993 639.818 554.437 639.262 553.389C639.208 553.302 639.134 553.229 639.044 553.178C638.955 553.128 638.854 553.102 638.751 553.102C638.648 553.102 638.548 553.128 638.458 553.178C638.369 553.229 638.294 553.302 638.241 553.389C637.679 554.39 637.938 555.89 637.951 557.001C637.966 558.357 638.002 559.712 638.056 561.066C638.144 563.239 638.299 565.403 638.487 567.566C636.698 566.545 634.907 565.526 633.113 564.51C632.014 563.885 630.906 563.275 629.795 562.669C628.744 561.964 627.587 561.433 626.367 561.097C626.274 561.074 626.177 561.083 626.089 561.12C626.002 561.158 625.928 561.222 625.881 561.305C625.833 561.387 625.813 561.483 625.824 561.577C625.834 561.672 625.875 561.761 625.941 561.83C626.847 562.708 627.889 563.434 629.027 563.979C630.116 564.623 631.202 565.267 632.298 565.896C634.533 567.176 636.771 568.457 639.009 569.738C639.133 569.807 639.272 569.843 639.414 569.843C639.556 569.842 639.695 569.805 639.818 569.735C639.941 569.664 640.044 569.563 640.116 569.441C640.189 569.32 640.229 569.181 640.232 569.04C639.967 566.391 639.777 563.736 639.662 561.073" fill="#47BED1"/>
<path d="M625.944 561.832L620.858 565.855L623.401 569.834L622.929 705.268L633.03 710.53L641.612 705.268L629.774 570.606L631.235 565.279L625.944 561.832Z" fill="#FC9426"/>
<path d="M563.002 583.113C561.285 571.548 566.019 559.018 575.35 555.627C582.337 553.088 591.148 550.695 598.93 550.135C605.247 576.455 631.237 630.253 631.237 630.253C631.237 630.253 651.452 568.69 639.563 547.47C647.161 547.075 661.632 549.223 669.247 553.104C676.408 556.754 680.906 568.54 681.442 577.676C684.76 634.163 695.314 692.877 699.758 750.172C694.247 752.751 687.028 752.812 681.092 753.345C671.417 754.219 661.704 754.655 651.998 755.018C620.526 756.185 589.413 755.175 559.662 743.734C563.978 690.072 570.943 636.564 563.004 583.113" fill="#21A9E1"/>
<path d="M574.308 591.905C578.843 642.929 574.454 694.841 564.656 745.541C562.986 744.967 561.321 744.372 559.66 743.732C563.947 690.431 570.839 637.272 563.153 584.174C566.825 586.814 570.545 589.39 574.312 591.902" fill="#1B94C7"/>
<path d="M649.576 595.031L660.248 591.377C661.137 591.072 662.026 590.767 662.917 590.463C663.726 590.243 664.515 589.953 665.275 589.597C666.81 588.748 666.211 586.931 665.773 585.59C663.415 578.364 661.021 571.15 658.647 563.931C658.597 563.752 658.619 563.561 658.707 563.397C658.795 563.233 658.943 563.11 659.12 563.053C659.296 562.995 659.489 563.009 659.656 563.089C659.823 563.17 659.953 563.313 660.018 563.487L666.079 581.905C666.551 583.337 667.103 584.764 667.47 586.226C667.826 587.289 667.79 588.444 667.369 589.483C666.793 590.411 665.876 591.077 664.814 591.337C663.33 591.861 661.845 592.353 660.36 592.863L650.024 596.403C649.844 596.453 649.653 596.431 649.489 596.343C649.326 596.255 649.202 596.107 649.145 595.93C649.088 595.753 649.101 595.561 649.182 595.394C649.262 595.226 649.405 595.097 649.579 595.032" fill="#1B94C7"/>
<path d="M650.492 595.402L662.534 607.89C663.176 608.555 662.207 609.621 661.562 608.952C657.545 604.788 653.53 600.625 649.517 596.464C648.877 595.797 649.847 594.731 650.491 595.4" fill="#1B94C7"/>
<path d="M634.198 642.173L661.518 607.899C662.097 607.172 663.156 608.148 662.581 608.871C653.475 620.297 644.367 631.722 635.259 643.147C634.68 643.872 633.621 642.896 634.197 642.173" fill="#1B94C7"/>
<path d="M605.605 597.557L594.53 595.425C593.606 595.245 592.682 595.067 591.76 594.89C590.928 594.785 590.106 594.608 589.304 594.36C587.663 593.731 588.005 591.848 588.252 590.462C589.583 582.978 590.948 575.5 592.295 568.021C592.32 567.837 592.273 567.649 592.163 567.499C592.053 567.348 591.889 567.246 591.705 567.214C591.522 567.182 591.333 567.222 591.178 567.326C591.024 567.43 590.915 567.59 590.876 567.772C589.729 574.134 588.583 580.494 587.437 586.854C587.17 588.338 586.826 589.828 586.661 591.327C586.455 592.428 586.651 593.567 587.213 594.536C587.911 595.378 588.912 595.911 590 596.021C591.54 596.331 593.084 596.614 594.629 596.912C598.205 597.601 601.782 598.29 605.359 598.977C605.543 599.003 605.731 598.955 605.881 598.845C606.032 598.736 606.134 598.572 606.166 598.388C606.198 598.205 606.158 598.016 606.054 597.861C605.95 597.706 605.79 597.598 605.608 597.559" fill="#1B94C7"/>
<path d="M604.752 598.049C601.356 602.732 597.96 607.413 594.564 612.094C594.02 612.844 595.129 613.764 595.674 613.012L605.863 598.965C606.406 598.218 605.297 597.297 604.752 598.049Z" fill="#1B94C7"/>
<path d="M627.393 642.099C616.785 632.054 606.176 622.007 595.568 611.96C594.894 611.322 593.981 612.438 594.652 613.073L626.477 643.21C627.15 643.85 628.064 642.734 627.393 642.1" fill="#1B94C7"/>
<path d="M631.926 632.648C632.955 648.775 633.757 664.913 634.332 681.061C634.908 697.209 635.258 713.364 635.38 729.526C635.448 738.621 635.444 747.717 635.369 756.814C635.36 757.739 633.921 757.809 633.928 756.877C634.063 740.719 633.971 724.563 633.652 708.407C633.334 692.251 632.788 676.102 632.014 659.96C631.578 650.874 631.071 641.791 630.492 632.712C630.491 632.526 630.563 632.347 630.691 632.213C630.819 632.079 630.995 631.999 631.181 631.991C631.366 631.983 631.548 632.047 631.688 632.169C631.827 632.292 631.914 632.464 631.93 632.649" fill="#1D253D"/>
<path d="M656.92 705.967C665.419 708.343 674.451 707.976 682.729 704.919C683.602 704.598 684.039 705.972 683.174 706.291C674.648 709.429 665.351 709.806 656.599 707.368C655.71 707.119 656.022 705.709 656.92 705.963" fill="#1B94C7"/>
<path d="M579.453 707.86C587.951 710.237 596.983 709.872 605.262 706.818C606.135 706.495 606.572 707.866 605.706 708.19C597.18 711.326 587.883 711.702 579.132 709.265C578.243 709.016 578.557 707.606 579.453 707.86Z" fill="#1B94C7"/>
<path d="M651.605 502.084C654.147 493.241 653.53 483.788 649.859 475.35C650.316 473.226 649.978 471.007 648.909 469.115C647.824 467.302 646.27 465.815 644.411 464.812C643.198 464.082 641.852 463.6 640.451 463.395C639.05 463.189 637.623 463.263 636.251 463.614C634.887 463.996 633.67 464.781 632.76 465.866C631.85 466.952 631.288 468.287 631.149 469.696C629.223 468.381 627.162 467.275 625.001 466.397C622.705 465.518 620.196 465.362 617.809 465.948C616.624 466.255 615.534 466.854 614.64 467.689C613.745 468.525 613.075 469.572 612.689 470.734C612.348 471.91 612.424 473.168 612.904 474.295C613.385 475.422 614.24 476.348 615.324 476.916C613.526 474.728 609.386 474.31 606.79 475.437C604.222 476.703 602.23 478.897 601.219 481.576C600.272 483.636 599.945 485.927 600.277 488.169C600.454 489.284 600.892 490.342 601.556 491.255C602.219 492.169 603.089 492.913 604.095 493.426C600.227 495.354 598.975 500.056 599.776 504.301C600.578 508.547 603.249 512.185 606.064 515.46C608.88 518.735 611.973 521.869 613.91 525.731L651.605 502.084Z" fill="#7A2923"/>
<path d="M650.366 502.976C652.625 494.455 652.081 485.433 648.815 477.246C649.221 475.207 648.923 473.09 647.969 471.243C647.034 469.526 645.653 468.094 643.971 467.099C642.914 466.402 641.721 465.938 640.471 465.739C639.221 465.54 637.943 465.611 636.722 465.946C635.471 466.364 634.372 467.143 633.565 468.186C632.757 469.229 632.277 470.488 632.186 471.804C630.488 470.546 628.655 469.48 626.722 468.626C624.697 467.781 622.45 467.63 620.329 468.195C619.246 468.52 618.261 469.113 617.466 469.917C616.671 470.722 616.091 471.714 615.779 472.801C615.189 475.061 616.137 477.789 618.116 478.75C616.518 476.644 612.839 476.24 610.532 477.324C608.224 478.409 606.563 480.725 605.578 483.232C604.735 485.234 604.445 487.426 604.74 489.578C604.879 490.626 605.258 491.628 605.846 492.507C606.435 493.385 607.218 494.116 608.134 494.643C604.698 496.5 603.584 501.025 604.292 505.11C604.999 509.196 607.378 512.697 609.881 515.852C612.384 519.008 615.131 522.021 616.851 525.74L650.366 502.976Z" fill="#3B1411"/>
<path d="M610.504 514.076C611.414 525.737 611.146 537.46 609.702 549.066C609.552 550.216 609.718 551.384 610.183 552.446C610.647 553.508 611.393 554.423 612.339 555.092C617.747 558.863 624.382 560.446 630.909 559.524C632.481 559.271 633.9 558.433 634.879 557.176C635.857 555.92 636.324 554.34 636.184 552.753C635.568 545.274 635.356 537.767 635.549 530.264C629.174 522.175 620.31 517.234 610.503 514.081" fill="#BF6D3E"/>
<path d="M635.55 530.254C629.175 522.164 620.311 517.226 610.504 514.07C610.742 517.136 610.897 520.207 610.971 523.282C614.827 536.238 624.894 544.292 635.844 547.467C635.521 541.803 635.414 536.212 635.55 530.255" fill="#80410E"/>
<path d="M651.737 495.076C653.907 511.345 650.507 539.212 638.224 540.476C623.784 541.961 614.92 529.111 611.699 517.278C611.755 517.479 610.377 518.247 608.972 518.164C607.582 518.084 605.74 516.444 604.976 515.305C603.506 513.105 602.007 509.675 603.591 507.157C605.492 504.129 609.704 503.509 611.481 507.069C611.348 501.15 613.272 495.669 615.323 490.14C615.649 489.241 616.17 488.425 616.848 487.751C617.526 487.077 618.344 486.562 619.245 486.241C628.009 483.344 637.443 483.152 646.318 485.691C647.355 486.015 648.294 486.594 649.05 487.374C649.806 488.154 650.354 489.111 650.645 490.158C651.122 491.771 651.487 493.415 651.736 495.078" fill="#BF6D3E"/>
<path d="M634.331 496.09C631.711 492.765 624.508 495.059 621.855 497.195C621.372 497.585 620.787 498.084 620.845 498.773C620.85 498.946 620.91 499.114 621.015 499.252C621.12 499.39 621.266 499.492 621.432 499.543C622.245 499.776 623.019 499.101 623.697 498.747C625.712 497.687 627.996 497.248 630.26 497.487C631.461 497.615 632.618 498.176 633.827 497.995C634.774 497.853 634.787 496.675 634.33 496.091" fill="#3B1411"/>
<path d="M630.499 501.918C630.434 501.721 630.321 501.544 630.168 501.404C630.029 501.25 629.85 501.136 629.652 501.073C629.464 500.974 629.253 500.926 629.041 500.935L628.616 500.993C628.349 501.065 628.104 501.207 627.909 501.404L627.66 501.727C627.517 501.971 627.442 502.25 627.443 502.533V502.707C627.434 502.92 627.481 503.131 627.58 503.319C627.652 503.512 627.765 503.688 627.911 503.834C628.057 503.98 628.233 504.093 628.426 504.165C628.614 504.264 628.825 504.311 629.037 504.302L629.462 504.246C629.73 504.173 629.974 504.03 630.169 503.833C630.257 503.727 630.335 503.617 630.418 503.51C630.562 503.266 630.637 502.987 630.636 502.704V502.529C630.646 502.317 630.598 502.106 630.499 501.918Z" fill="#3B1411"/>
<path d="M647.996 502.911C647.932 502.714 647.818 502.537 647.666 502.397C647.354 502.112 646.952 501.947 646.53 501.928L646.106 501.986C645.838 502.059 645.594 502.2 645.398 502.397L645.15 502.72C645.007 502.964 644.932 503.243 644.932 503.526V503.701C644.923 503.913 644.971 504.124 645.069 504.312C645.194 504.598 645.398 504.842 645.657 505.016C645.915 505.19 646.218 505.287 646.53 505.295L646.955 505.239C647.223 505.166 647.466 505.023 647.662 504.826L647.911 504.503C648.054 504.259 648.129 503.98 648.129 503.697V503.522C648.138 503.31 648.091 503.099 647.991 502.911" fill="#3B1411"/>
<path d="M651.162 498.399C650.802 497.835 650.329 497.352 649.773 496.98C649.217 496.608 648.59 496.355 647.931 496.238C646.696 495.892 645.394 495.868 644.147 496.166C643.87 496.244 643.631 496.42 643.473 496.661C643.316 496.901 643.25 497.191 643.289 497.476C643.419 498.448 644.243 498.481 645.013 498.491C646.038 498.477 647.055 498.666 648.005 499.047C648.652 499.321 652.044 501.018 651.363 498.872C651.31 498.708 651.244 498.548 651.166 498.395" fill="#3B1411"/>
<path d="M636.236 530.255C635.721 530.181 635.198 530.181 634.683 530.255C634.224 530.255 633.766 530.226 633.312 530.168C632.834 530.099 632.361 530.003 631.895 529.88C631.409 529.69 630.893 529.585 630.371 529.57C630.251 529.574 630.135 529.613 630.036 529.681C629.937 529.75 629.86 529.845 629.814 529.956C629.768 530.067 629.755 530.189 629.777 530.307C629.798 530.425 629.853 530.535 629.934 530.623C630.336 531.033 630.85 531.316 631.411 531.435C631.917 531.606 632.437 531.733 632.965 531.812C633.516 531.901 634.072 531.952 634.63 531.965C635.24 532.044 635.859 531.964 636.428 531.732C636.562 531.649 636.669 531.529 636.736 531.387C636.804 531.245 636.829 531.087 636.808 530.931C636.788 530.775 636.723 530.629 636.621 530.509C636.52 530.389 636.387 530.301 636.236 530.255Z" fill="#804E26"/>
<path d="M610.166 513.174C610.036 513.221 609.897 513.24 609.758 513.232C609.62 513.223 609.485 513.186 609.361 513.123C609.237 513.06 609.128 512.973 609.039 512.866C608.95 512.759 608.884 512.636 608.844 512.503C608.83 512.361 608.847 512.217 608.895 512.083C608.943 511.949 609.021 511.827 609.123 511.727C609.207 511.619 609.314 511.531 609.436 511.469C609.557 511.407 609.691 511.373 609.828 511.368C609.925 511.366 610.021 511.342 610.108 511.298C610.195 511.254 610.271 511.19 610.33 511.112C610.389 511.035 610.429 510.944 610.448 510.849C610.467 510.753 610.464 510.654 610.439 510.56C609.961 508.85 608.594 507.103 606.623 507.3C606.19 507.333 605.774 507.48 605.416 507.725C605.057 507.971 604.77 508.306 604.583 508.698C604.411 509.073 604.374 509.496 604.478 509.896C604.536 510.129 604.827 510.729 605.16 510.43C605.355 510.256 605.294 509.989 605.357 509.757C605.424 509.513 605.53 509.281 605.671 509.071C605.816 508.871 606.013 508.714 606.241 508.619C606.468 508.523 606.718 508.491 606.962 508.527C607.429 508.608 607.864 508.815 608.221 509.126C608.578 509.437 608.842 509.84 608.985 510.292C608.527 510.488 608.155 510.841 607.934 511.288C607.713 511.734 607.658 512.244 607.78 512.727C607.941 513.278 608.311 513.744 608.811 514.027C609.31 514.309 609.9 514.386 610.456 514.24C611.136 514.034 610.835 512.952 610.164 513.178" fill="#804E26"/>
<path d="M643.973 511.139C643.183 510.509 642.353 509.931 641.489 509.408C641.069 509.158 640.735 508.787 640.528 508.345C640.321 507.902 640.251 507.408 640.328 506.925C640.404 506.167 639.383 506.075 639.026 506.576C637.939 508.098 639.42 509.99 640.635 510.872C641.41 511.33 642.148 511.849 642.842 512.423C643.41 512.999 643.833 513.702 644.074 514.475C644.331 515.241 644.393 516.059 644.256 516.855C644.119 517.651 643.786 518.401 643.288 519.038C642.178 520.427 640.689 520.793 639.055 521.211C638.946 521.244 638.851 521.312 638.784 521.404C638.716 521.496 638.679 521.607 638.679 521.721C638.679 521.835 638.716 521.946 638.784 522.038C638.851 522.13 638.946 522.198 639.055 522.231C640.752 522.746 642.672 521.825 643.924 520.723C644.602 520.121 645.142 519.379 645.507 518.549C645.872 517.719 646.053 516.82 646.039 515.913C646.029 515.02 645.841 514.139 645.487 513.32C645.133 512.5 644.619 511.76 643.976 511.141" fill="#80410E"/>
<path d="M638.505 526.964C635.981 527.709 633.284 527.626 630.811 526.726C628.338 525.826 626.218 524.156 624.763 521.963C624.659 521.803 624.623 521.608 624.662 521.421C624.702 521.234 624.814 521.07 624.974 520.966C625.134 520.862 625.329 520.826 625.516 520.865C625.703 520.905 625.867 521.017 625.971 521.177C627.249 523.109 629.112 524.581 631.288 525.376C633.463 526.171 635.837 526.248 638.059 525.594C638.948 525.332 639.397 526.701 638.505 526.964Z" fill="#3B1411"/>
<path d="M681.71 575.723C682.821 597.265 684.774 618.739 687.571 640.143C688.355 646.136 689.205 652.12 690.121 658.093C690.26 659.009 688.821 659.065 688.682 658.156C685.415 636.836 682.988 615.411 681.4 593.879C680.958 587.85 680.582 581.818 680.271 575.783C680.27 575.597 680.342 575.418 680.47 575.283C680.599 575.149 680.774 575.069 680.96 575.061C681.145 575.053 681.327 575.117 681.467 575.24C681.606 575.363 681.693 575.534 681.709 575.72" fill="#1B94C7"/>
<path d="M522.968 399.453C521.225 398.604 519.766 397.268 518.767 395.606C517.767 393.945 517.271 392.029 517.339 390.091C517.406 388.153 518.033 386.277 519.145 384.688C520.257 383.1 521.806 381.868 523.603 381.141C524.221 374.941 529.835 370.087 535.969 369.002C531.568 379.162 528.733 389.93 527.558 400.939L522.968 399.453Z" fill="#BF6D3E"/>
<path d="M527.935 372.007C525.695 372.849 524.934 375.298 524.442 377.416C524.263 378.688 523.805 379.903 523.099 380.976C522.272 382.011 520.922 382.475 519.859 383.212C518.787 383.913 517.882 384.84 517.207 385.928C516.532 387.016 516.103 388.239 515.95 389.51C515.643 392.381 516.684 395.218 517.672 397.86C517.997 398.726 519.27 398.046 518.947 397.189C518.018 394.704 517.018 391.965 517.427 389.267C517.829 386.614 519.73 384.886 521.953 383.624C522.94 383.135 523.799 382.423 524.464 381.545C525.021 380.659 525.415 379.68 525.627 378.655C526.116 376.691 526.43 374.098 528.603 373.283C529.47 372.957 528.792 371.687 527.932 372.006" fill="#80410E"/>
<path d="M888.516 495.637C893.677 497.186 898.304 500.141 901.88 504.172C905.455 508.202 907.838 513.148 908.762 518.456C909.152 520.902 909.265 523.522 910.66 525.565C912.145 527.734 914.956 529.065 915.538 531.626C916.157 534.354 913.908 537.379 915.203 539.855C916.523 542.381 920.597 542.388 921.863 544.937C923.266 547.763 920.084 551.278 921.37 554.16C922.539 556.78 926.255 556.726 928.717 558.203C930.992 559.568 932.137 562.351 932.123 565.004C931.981 567.665 931.225 570.256 929.914 572.575C922.821 586.609 908.392 596.164 892.985 599.311C877.578 602.459 861.37 599.689 846.866 593.608C843.415 592.16 839.919 590.434 837.603 587.494C835.286 584.555 834.5 580.101 836.729 577.093C837.567 575.964 838.768 575.093 839.364 573.821C841.465 569.333 834.783 564.779 835.775 559.924C836.311 557.298 838.877 555.695 841.072 554.16C843.268 552.625 845.515 550.277 844.946 547.657C844.668 546.366 843.732 545.299 843.427 544.015C842.641 540.684 846.12 538.118 848.317 535.493C852.234 530.82 852.468 524.209 853.226 518.158C855.322 501.462 872.153 490.986 888.514 495.64" fill="#96432A"/>
<path d="M888.246 501.589C893.114 503.051 897.479 505.838 900.853 509.64C904.226 513.442 906.474 518.108 907.346 523.115C907.715 525.422 907.819 527.891 909.137 529.82C910.535 531.867 913.191 533.122 913.739 535.539C914.322 538.109 912.201 540.964 913.423 543.301C914.668 545.683 918.512 545.687 919.705 548.093C921.028 550.76 918.026 554.077 919.238 556.796C920.343 559.269 923.847 559.216 926.17 560.61C927.206 561.319 928.044 562.28 928.607 563.402C929.169 564.524 929.437 565.771 929.385 567.025C929.251 569.534 928.538 571.978 927.302 574.166C920.61 587.405 906.998 596.419 892.467 599.389C877.936 602.36 862.64 599.739 848.961 594.007C845.706 592.642 842.411 591.012 840.223 588.243C838.034 585.474 837.295 581.267 839.395 578.429C840.181 577.366 841.316 576.544 841.879 575.343C843.861 571.11 837.558 566.813 838.494 562.234C838.999 559.756 841.419 558.246 843.491 556.793C845.562 555.341 847.683 553.132 847.147 550.661C846.885 549.444 845.998 548.434 845.713 547.224C844.97 544.08 848.254 541.659 850.328 539.19C854.025 534.779 854.242 528.545 854.957 522.837C856.936 507.087 872.811 497.206 888.245 501.594" fill="#6C301E"/>
<path d="M984.806 536.872C984.775 535.95 984.51 535.05 984.036 534.257C983.563 533.464 982.896 532.804 982.099 532.338C980.494 531.426 978.728 530.83 976.898 530.583C971.599 529.579 966.222 529.044 960.829 528.984C959.476 528.977 958.163 529.442 957.116 530.299C956.069 531.156 955.355 532.352 955.096 533.68C954.796 535.04 954.592 536.42 954.485 537.809C950.828 540.316 950.967 545.988 951.585 550.379C943.069 557.902 929.14 568.569 918.124 571.355C907.108 574.141 895.33 578.747 890.034 588.801C886.357 595.773 886.533 604.065 886.866 611.939C887.109 617.671 887.697 624.159 895.236 626.038C897.619 626.578 900.091 626.591 902.48 626.076C917.907 623.093 927.759 609.745 941.178 601.683C953.992 593.984 967.045 585.753 975.638 573.519C984.231 561.286 992.971 549.396 984.808 536.873" fill="#FF941E"/>
<path d="M986.153 556.215C988.719 549.847 989.095 543.448 984.808 536.872C984.777 535.949 984.512 535.049 984.039 534.256C983.565 533.463 982.899 532.803 982.101 532.338C980.495 531.426 978.73 530.83 976.9 530.583C971.601 529.578 966.224 529.044 960.831 528.984C959.478 528.976 958.164 529.441 957.118 530.299C956.071 531.156 955.357 532.352 955.098 533.68C954.798 535.04 954.594 536.42 954.487 537.809C950.83 540.313 950.969 545.988 951.589 550.377C943.071 557.901 929.144 568.567 918.128 571.353C907.112 574.139 895.334 578.745 890.037 588.799C886.363 595.771 886.535 604.062 886.869 611.937C886.925 613.219 887.002 614.539 887.163 615.836C923.399 603.871 960.369 585.048 986.155 556.215" fill="#F89939"/>
<path d="M887.162 615.836C887.725 620.34 889.384 624.579 895.238 626.038C897.621 626.577 900.093 626.59 902.482 626.076C917.909 623.093 927.761 609.745 941.18 601.683C953.994 593.984 967.05 585.753 975.643 573.519C979.724 567.708 983.834 561.974 986.154 556.215C960.365 585.047 923.398 603.875 887.163 615.836" fill="#F88108"/>
<path d="M957.931 481.904L956.621 532.324C956.564 534.119 957.197 535.868 958.389 537.211C959.582 538.554 961.245 539.389 963.034 539.544C966.75 539.828 970.474 539.123 973.829 537.502C975.17 536.843 976.265 535.772 976.954 534.447C977.644 533.121 977.891 531.61 977.66 530.133L970.324 480.987C966.171 480.703 961.999 481.012 957.933 481.904" fill="#FFC9B9"/>
<path d="M968.451 561.183C965.573 560.734 962.813 559.714 960.334 558.185C957.854 556.655 955.705 554.646 954.012 552.275C953.473 551.521 952.416 552.502 952.95 553.247C954.769 555.76 957.071 557.883 959.723 559.492C962.374 561.102 965.32 562.165 968.389 562.619C969.305 562.756 969.361 561.317 968.451 561.181" fill="#A86114"/>
<path d="M972.199 543.537C967.813 543.556 963.504 542.383 959.732 540.143C958.936 539.67 958.154 540.879 958.951 541.355C962.939 543.731 967.496 544.983 972.139 544.976C973.064 544.976 973.131 543.535 972.202 543.538" fill="#A86114"/>
<path d="M882.984 566.613C873.281 564.05 863.014 564.637 853.667 568.29C849.33 569.998 844.677 573.302 844.854 577.96C845.007 582 848.748 584.887 852.309 586.806C865.618 593.919 881.045 595.998 895.763 592.663C902.849 591.029 909.898 585.156 903.543 578.272C898.281 572.571 890.389 568.591 882.984 566.613" fill="#FF941E"/>
<path d="M852.066 584.184C841.779 585.826 833.451 594.195 827.408 603.385C821.366 612.575 816.885 622.947 810.259 631.648C804.816 638.795 798.01 644.692 793.142 652.31C788.274 659.928 785.591 670.253 789.548 678.474C793.317 686.303 802.065 689.929 810.199 690.027C816.116 690.097 822.453 688.384 826.295 683.497C829.16 679.856 830.268 674.869 830.102 670.083C830.068 669.114 829.988 668.15 829.867 667.194C829.554 664.499 829.854 661.769 830.745 659.206C831.635 656.644 833.093 654.316 835.009 652.395C836.166 651.198 837.228 649.914 838.187 648.553C844.829 639.266 851.025 629.339 854.225 618.111C857.425 606.882 857.585 594.299 852.068 584.185" fill="#FF941E"/>
<path d="M853.283 621.025C853.609 620.06 853.938 619.095 854.219 618.109C857.416 606.877 857.582 594.298 852.065 584.184C841.778 585.826 833.45 594.197 827.407 603.385C821.365 612.572 816.884 622.947 810.258 631.648C804.815 638.795 798.007 644.693 793.136 652.311C788.264 659.93 785.587 670.255 789.545 678.473C793.313 686.302 802.059 689.929 810.196 690.026C816.112 690.098 822.449 688.384 826.292 683.499C829.157 679.856 830.265 674.868 830.099 670.083C830.065 669.113 829.986 668.15 829.861 667.194C829.834 666.976 829.839 666.762 829.821 666.545C827.846 662.294 825.438 658.258 822.636 654.5C834.264 645.052 845.157 633.768 853.285 621.025" fill="#F89939"/>
<path d="M822.634 654.5C825.436 658.257 827.844 662.294 829.819 666.545C829.613 663.952 829.97 661.346 830.865 658.904C831.76 656.462 833.172 654.242 835.004 652.397C836.16 651.199 837.223 649.914 838.182 648.554C844.241 640.083 849.904 631.068 853.282 621.027C845.154 633.77 834.263 645.054 822.634 654.502" fill="#A86114"/>
<path d="M896.475 745.724C902.021 739.012 906.659 732.11 907.485 727.024L833.308 713.338C830.987 719.376 827.533 725.509 825.753 731.704C848.083 740.061 873.05 746.027 896.476 745.725" fill="#1B94C7"/>
<path d="M885.763 1017.97L901.152 1017.55C905.44 1022.01 931.262 1027.63 932.757 1033.63H882.208C882.746 1028.28 883.94 1023.03 885.763 1017.97" fill="#21A9E1"/>
<path d="M932.76 1033.63C932.903 1034.2 933.052 1034.78 933.164 1035.36C933.208 1035.57 933.204 1035.79 933.153 1036C933.101 1036.22 933.004 1036.41 932.867 1036.58C932.73 1036.75 932.557 1036.89 932.361 1036.98C932.164 1037.08 931.95 1037.13 931.732 1037.13H883.492C883.291 1037.13 883.091 1037.09 882.907 1037.01C882.722 1036.93 882.556 1036.81 882.418 1036.66C882.281 1036.52 882.175 1036.34 882.108 1036.15C882.041 1035.96 882.014 1035.76 882.028 1035.56C882.077 1034.92 882.143 1034.27 882.21 1033.63L932.76 1033.63Z" fill="#465A94"/>
<path d="M923.434 722.221C901.102 730.578 890.765 727.325 867.34 727.024C865.292 740.245 873.481 768.458 873.481 768.458L874.43 789.122H931.662C931.426 765.695 929.182 742.209 923.433 722.225" fill="#1B94C7"/>
<path d="M874.43 789.123L875.088 798.939L931.056 799.581C931.545 796.118 931.747 792.62 931.66 789.123H874.43Z" fill="#006CB0"/>
<path d="M861.672 1017.97L846.284 1017.55C841.995 1022.01 834.906 1027.63 833.409 1033.63H865.227C864.689 1028.28 863.495 1023.03 861.672 1017.97" fill="#21A9E1"/>
<path d="M833.409 1033.63C833.266 1034.2 833.12 1034.78 833.004 1035.36C832.961 1035.57 832.964 1035.79 833.016 1036C833.067 1036.22 833.165 1036.41 833.302 1036.58C833.439 1036.75 833.612 1036.89 833.808 1036.98C834.005 1037.08 834.219 1037.13 834.437 1037.13H863.943C864.144 1037.13 864.344 1037.09 864.528 1037.01C864.713 1036.93 864.879 1036.81 865.017 1036.66C865.154 1036.52 865.26 1036.34 865.327 1036.15C865.394 1035.96 865.421 1035.76 865.407 1035.56C865.357 1034.92 865.294 1034.27 865.227 1033.63L833.409 1033.63Z" fill="#465A94"/>
<path d="M874.464 768.456C882.281 761.36 889.633 753.766 896.472 745.724C873.045 746.024 848.08 740.06 825.747 731.703C820.382 750.357 817.747 769.651 816.957 789.12H873.511L874.464 768.456Z" fill="#21A9E1"/>
<path d="M816.958 789.123C816.588 792.6 816.603 796.107 817.001 799.581H873.512V789.123H816.958Z" fill="#0081C9"/>
<path d="M917.406 671.639C917.5 644.191 920.389 621.909 921.489 594.475C921.61 591.454 920.677 588.024 918.045 586.68C878.82 566.655 849.838 582.886 843.456 587.517C841.852 588.7 840.658 590.355 840.041 592.249C839.424 594.144 839.415 596.184 840.015 598.085C847.146 620.861 846.549 641.932 842.753 665.485C839.784 683.884 819.977 705.5 824.96 729.251C856.543 743.399 894.39 742.002 929.018 735.4C938.217 718.906 917.35 686.614 917.403 671.638" fill="#F89939"/>
<path d="M870.96 542.778C872.401 554.189 873.056 565.686 872.919 577.188C872.869 578.252 873.037 579.315 873.415 580.31C873.793 581.306 874.371 582.214 875.115 582.977C878.958 586.393 883.636 587.689 887.853 586.429C889.999 585.79 891.314 582.734 890.897 579.522C889.943 572.148 889.306 565.127 888.867 557.457C884.686 550.717 878.388 545.556 870.96 542.778Z" fill="#FFC9B9"/>
<path d="M888.867 557.457C884.686 550.718 878.388 545.555 870.96 542.777C871.337 545.776 871.66 548.785 871.929 551.803C876.558 561.015 883.13 570.167 890.293 574.353C889.671 568.804 889.199 563.316 888.867 557.457Z" fill="#FFAB90"/>
<path d="M916.558 731.421C906.052 734.446 895.21 736.145 884.282 736.478C873.354 736.817 862.426 735.805 851.746 733.464C845.72 732.136 839.796 730.383 834.018 728.218C833.144 727.892 832.708 729.266 833.573 729.589C843.886 733.438 854.637 735.989 865.58 737.182C876.577 738.384 887.68 738.223 898.637 736.702C904.802 735.845 910.897 734.549 916.878 732.825C917.764 732.569 917.452 731.166 916.556 731.42" fill="#A86114"/>
<path d="M901.541 521.482C905.558 539.201 900.951 559.827 896.277 560.55C880.776 562.95 870.469 548.47 870.369 548.288C870.468 548.47 868.147 549.743 866.78 549.989C865.433 550.234 863.286 549.096 862.293 548.182C860.371 546.418 858.144 543.482 859.072 540.706C860.185 537.364 865.236 535.728 867.765 538.722C872.481 529.57 868.4 524.809 868.202 518.154C875.871 512.154 885.825 509.536 895.757 510.268C897.416 510.39 901.166 519.846 901.537 521.483" fill="#FFC9B9"/>
<path d="M883.606 529.43C883.492 529.262 883.343 529.121 883.17 529.015C882.997 528.91 882.803 528.843 882.601 528.819C882.396 528.768 882.182 528.772 881.979 528.83L881.586 528.985C881.348 529.116 881.148 529.308 881.007 529.541C880.951 529.664 880.897 529.786 880.843 529.91C880.763 530.177 880.755 530.462 880.82 530.733L880.86 530.897C880.901 531.104 880.995 531.296 881.135 531.454C881.249 531.621 881.398 531.762 881.572 531.868C881.745 531.973 881.939 532.04 882.14 532.065C882.345 532.116 882.559 532.112 882.762 532.054L883.156 531.899C883.394 531.767 883.594 531.575 883.736 531.343C883.79 531.22 883.846 531.098 883.9 530.975C883.98 530.708 883.987 530.424 883.92 530.153L883.881 529.987C883.839 529.781 883.744 529.59 883.605 529.431" fill="#3B1411"/>
<path d="M898.742 526.756C898.635 526.582 898.484 526.439 898.305 526.341C898.136 526.226 897.939 526.158 897.735 526.143C897.53 526.092 897.316 526.096 897.113 526.155L896.72 526.309C896.482 526.44 896.282 526.632 896.141 526.865C896.085 526.989 896.031 527.11 895.977 527.233C895.897 527.501 895.889 527.785 895.954 528.057L895.994 528.221C896.108 528.619 896.36 528.964 896.706 529.193C896.875 529.307 897.071 529.375 897.274 529.39C897.479 529.441 897.693 529.438 897.896 529.379L898.29 529.224C898.528 529.092 898.728 528.9 898.869 528.668C898.924 528.545 898.98 528.423 899.034 528.299C899.114 528.032 899.121 527.748 899.054 527.478L899.014 527.312C898.973 527.105 898.878 526.913 898.739 526.755" fill="#3B1411"/>
<path d="M866.767 544.935C866.652 545.01 866.524 545.061 866.39 545.084C866.255 545.108 866.117 545.104 865.984 545.073C865.851 545.042 865.726 544.984 865.616 544.902C865.506 544.821 865.414 544.718 865.346 544.6C865.299 544.468 865.282 544.326 865.298 544.186C865.313 544.046 865.359 543.912 865.433 543.792C865.489 543.67 865.57 543.561 865.672 543.473C865.774 543.386 865.894 543.321 866.023 543.285C866.117 543.261 866.203 543.216 866.277 543.153C866.35 543.09 866.408 543.012 866.447 542.923C866.486 542.835 866.504 542.739 866.5 542.643C866.496 542.546 866.471 542.452 866.425 542.367C865.568 540.843 863.855 539.485 862.012 540.136C861.606 540.268 861.242 540.505 860.957 540.823C860.671 541.14 860.474 541.527 860.385 541.945C860.308 542.344 860.37 542.758 860.56 543.117C860.673 543.326 861.092 543.833 861.339 543.467C861.485 543.251 861.363 543.013 861.372 542.777C861.379 542.528 861.426 542.281 861.511 542.046C861.603 541.821 861.756 541.625 861.951 541.48C862.147 541.335 862.378 541.247 862.62 541.224C863.086 541.193 863.551 541.291 863.965 541.507C864.379 541.722 864.726 542.047 864.968 542.447C864.576 542.741 864.301 543.165 864.193 543.643C864.085 544.121 864.151 544.623 864.378 545.057C864.661 545.547 865.124 545.907 865.668 546.062C866.213 546.216 866.796 546.152 867.294 545.883C867.896 545.528 867.354 544.563 866.77 544.936" fill="#FFAB90"/>
<path d="M885.846 520.11C882.597 520.419 879.497 521.624 876.892 523.591C876.151 524.147 877.108 525.225 877.846 524.671C880.261 522.877 883.127 521.789 886.124 521.527C886.311 521.488 886.475 521.378 886.581 521.22C886.687 521.061 886.727 520.868 886.692 520.68C886.651 520.495 886.54 520.332 886.383 520.226C886.225 520.121 886.033 520.08 885.845 520.113" fill="#6C301E"/>
<path d="M900.442 520.475C899.668 519.739 898.728 519.2 897.701 518.905C896.674 518.609 895.592 518.567 894.545 518.78C894.357 518.817 894.192 518.927 894.086 519.086C893.979 519.244 893.94 519.439 893.977 519.626C894.014 519.814 894.124 519.979 894.283 520.085C894.441 520.192 894.636 520.231 894.823 520.194C895.045 520.146 895.269 520.111 895.495 520.088C895.511 520.088 895.582 520.081 895.594 520.081L895.692 520.077C895.8 520.077 895.905 520.077 896.014 520.077C896.239 520.085 896.464 520.105 896.687 520.137C896.747 520.146 896.806 520.157 896.862 520.166L896.936 520.182C896.96 520.186 897.05 520.209 897.062 520.21C897.12 520.224 897.179 520.239 897.236 520.255C897.442 520.314 897.645 520.383 897.848 520.461C897.946 520.501 898.045 520.548 898.142 520.59L898.185 520.608L898.203 520.619L898.36 520.707C898.546 520.812 898.726 520.927 898.901 521.05C898.998 521.12 899.091 521.191 899.184 521.267C899.211 521.29 899.24 521.312 899.271 521.337L899.37 521.429C899.499 521.567 899.677 521.651 899.866 521.663C900.055 521.674 900.241 521.613 900.386 521.492C900.529 521.365 900.615 521.187 900.627 520.996C900.638 520.806 900.575 520.619 900.449 520.475" fill="#6C301E"/>
<path d="M895.25 551.558L890.534 552.244C890.347 552.283 890.183 552.393 890.077 552.551C889.97 552.709 889.931 552.903 889.966 553.091C890.007 553.276 890.117 553.438 890.275 553.544C890.433 553.65 890.625 553.691 890.812 553.658L895.528 552.972C895.715 552.934 895.879 552.823 895.985 552.665C896.092 552.507 896.131 552.313 896.096 552.125C896.055 551.94 895.944 551.778 895.787 551.672C895.629 551.566 895.437 551.525 895.25 551.558Z" fill="#FFAB90"/>
<path d="M897.254 537.798C896.688 537.038 895.936 536.436 895.07 536.051C894.338 535.775 893.735 535.234 893.381 534.536C893.295 534.366 893.145 534.237 892.964 534.176C892.784 534.116 892.587 534.129 892.416 534.213C892.247 534.301 892.12 534.451 892.06 534.632C892 534.812 892.011 535.009 892.092 535.18C892.676 536.786 894.438 537.073 895.605 538.076C895.867 538.237 896.057 538.491 896.137 538.788C896.216 539.085 896.178 539.401 896.031 539.67C895.594 540.388 894.783 540.806 894.211 541.399C894.072 541.527 893.988 541.705 893.976 541.894C893.964 542.083 894.026 542.27 894.148 542.415C894.276 542.557 894.454 542.642 894.644 542.654C894.834 542.666 895.021 542.603 895.165 542.478C895.922 541.884 896.614 541.211 897.228 540.469C897.489 540.073 897.631 539.61 897.635 539.135C897.64 538.66 897.507 538.194 897.252 537.793" fill="#FFAB90"/>
<path d="M895.073 547.515C894.984 547.347 894.834 547.219 894.654 547.159C894.474 547.099 894.277 547.111 894.105 547.192C892.015 547.979 889.729 548.079 887.578 547.479C887.398 547.421 887.202 547.435 887.031 547.517C886.86 547.6 886.728 547.746 886.662 547.924C886.601 548.104 886.613 548.302 886.696 548.474C886.779 548.645 886.927 548.777 887.107 548.841C889.627 549.548 892.307 549.422 894.75 548.482C894.92 548.396 895.049 548.246 895.11 548.065C895.17 547.884 895.157 547.686 895.073 547.515Z" fill="#3B1411"/>
<path d="M863.02 690.688C862.315 695.009 860.761 699.147 858.449 702.864C856.137 706.581 853.112 709.804 849.548 712.347C848.793 712.883 849.775 713.941 850.52 713.409C854.225 710.741 857.364 707.365 859.757 703.476C862.149 699.588 863.748 695.264 864.459 690.754C864.605 689.84 863.164 689.784 863.021 690.691" fill="#A86114"/>
<path d="M907.854 688.665L863.627 689.949C862.705 689.976 862.635 691.417 863.562 691.39L907.791 690.104C908.711 690.079 908.783 688.639 907.854 688.665Z" fill="#A86114"/>
<path d="M916.787 706.889C913.981 704.958 911.728 702.328 910.251 699.259C908.774 696.189 908.125 692.787 908.367 689.39C908.439 688.465 906.998 688.402 906.928 689.327C906.676 692.975 907.38 696.626 908.972 699.918C910.563 703.21 912.986 706.03 916.001 708.099C916.771 708.623 917.549 707.408 916.782 706.89" fill="#A86114"/>
<path d="M861.357 696.978L816.686 663.146C816.686 663.146 806.042 668.655 806.561 682.79L854.884 707.582C857.535 704.372 859.715 700.802 861.36 696.978" fill="#FFC9B9"/>
<path d="M817.058 662.627C812.929 664.624 809.523 667.855 807.312 671.873C805.1 675.891 804.192 680.497 804.715 685.053C804.832 685.971 806.237 685.648 806.12 684.732C805.664 680.486 806.536 676.203 808.615 672.472C810.694 668.742 813.878 665.747 817.729 663.901C818.571 663.511 817.904 662.236 817.058 662.626" fill="#A86114"/>
<path d="M824.457 662.445C822.563 660.221 820.022 658.644 817.188 657.932C814.355 657.221 811.37 657.411 808.65 658.476C807.79 658.82 808.468 660.092 809.323 659.751C811.76 658.832 814.421 658.691 816.941 659.348C819.461 660.005 821.715 661.427 823.392 663.419C823.983 664.136 825.042 663.157 824.454 662.445" fill="#A86114"/>
<path d="M845.451 617.483C845.387 616.57 843.945 616.496 844.013 617.421C844.984 631.189 844.624 645.019 842.938 658.718C842.823 659.638 844.264 659.697 844.377 658.781C846.064 645.082 846.425 631.252 845.452 617.483" fill="#A86114"/>
<path d="M894.859 577.962C894.567 577.089 893.16 577.403 893.454 578.284C894.589 581.676 892.848 584.93 890.841 587.588C889.962 588.898 888.921 590.092 887.743 591.142C886.369 592.228 884.949 592.024 883.563 591.072C882.297 590.198 881.175 589.116 879.938 588.201C878.64 587.238 877.289 586.348 875.891 585.535C873.13 583.934 870.207 582.629 867.171 581.642C864.051 580.621 859.912 579.387 859.393 575.573C859.27 574.655 857.865 574.98 857.988 575.894C858.457 579.346 861.651 581.259 864.65 582.325C868.217 583.453 871.674 584.907 874.975 586.668C876.557 587.58 878.079 588.59 879.532 589.695C880.913 590.743 882.17 592.072 883.734 592.846C887.083 594.506 889.46 591.659 891.354 589.266C893.862 586.105 896.252 582.125 894.858 577.961" fill="#A86114"/>
<path d="M871.574 595.738C871.271 594.873 869.862 595.183 870.169 596.059C873.297 604.988 874.157 614.555 872.672 623.899C872.526 624.813 873.967 624.869 874.11 623.962C875.612 614.489 874.742 604.792 871.578 595.738" fill="white"/>
<path d="M896.792 593.673C896.516 592.799 895.106 593.107 895.387 593.994C898.653 604.322 899.204 615.317 896.985 625.919C896.796 626.82 898.166 627.271 898.356 626.364C900.653 615.514 900.114 604.254 896.792 593.673Z" fill="white"/>
<path d="M846.283 1017.55L837.47 969.601C834.482 953.339 833.167 919.521 833.549 902.989L833.95 885.522L819.654 799.586H870.642L856.868 888.13L858.702 896.98C862.734 916.437 864.352 953.61 863.524 973.465L861.666 1017.97L846.283 1017.55Z" fill="#FFC9B9"/>
<path d="M931.056 799.58L901.151 1017.55H885.763L883.161 958.634C882.411 941.701 884.898 907.485 890.485 891.483L877.272 798.963L931.056 799.58Z" fill="#FFC9B9"/>
<path d="M870.64 799.58H819.653L820.423 804.209H869.92L870.64 799.58Z" fill="#FFAB90"/>
<path d="M856.873 888.13L869.921 804.203H820.424L833.95 885.51L833.549 902.983C833.167 919.513 834.482 953.331 837.47 969.593L846.283 1017.54L861.67 1017.96L863.528 973.459C864.356 953.604 862.736 916.43 858.707 896.972L856.873 888.13Z" fill="#FFC9B9"/>
<path d="M931.056 799.58L877.272 798.963L878.021 804.209H930.421L931.056 799.58Z" fill="#FFAB90"/>
<path d="M878.021 804.207L890.481 891.484C884.892 907.488 882.407 941.7 883.157 958.632L885.763 1017.55H901.152L930.42 804.207H878.021Z" fill="#FFC9B9"/>
<path d="M970.514 483.9V483.77L979.276 467.368L969.872 460.23L960.566 463.793L958.901 477.479C958.34 479.323 958.037 481.235 958.003 483.162L970.514 483.9Z" fill="#FFC9B9"/>
<path d="M968.825 297.045L1001.21 362.658L1073.62 373.181L1021.22 424.254L1033.59 496.373L968.825 462.324L904.06 496.374L916.428 424.255L864.033 373.182L936.444 362.659L968.825 297.045Z" fill="#FEB12F"/>
<path d="M892.977 368.976L864.039 373.18L916.434 424.256L904.066 496.372L968.831 462.322L1033.6 496.372L1023.09 435.171C972.702 433.021 922.649 409.47 892.973 368.973" fill="#FEA30A"/>
<path d="M960.627 481.99C962.607 480.655 963.922 477.623 963.846 474.582C963.77 471.541 962.307 468.644 960.266 467.501C959.916 462.593 956.703 458.751 953.197 457.889C955.745 466.105 957.358 474.583 958.005 483.161L960.627 481.99Z" fill="#FFC9B9"/>
<path d="M957.788 460.271C959.07 460.936 959.503 462.874 959.784 464.55C959.877 465.527 960.136 466.481 960.551 467.369C961.025 468.187 961.795 468.557 962.403 469.138C963.738 470.466 964.534 472.241 964.638 474.121C964.688 476.364 964.355 478.599 963.653 480.73C963.469 481.416 962.74 480.878 962.924 480.198C963.599 478.181 963.896 476.056 963.797 473.931C963.702 473.047 963.422 472.193 962.976 471.423C962.53 470.654 961.928 469.986 961.209 469.464C960.608 469.035 960.116 468.471 959.772 467.818C959.447 467.09 959.224 466.321 959.108 465.533C958.829 463.977 958.65 461.923 957.406 461.279C956.91 461.023 957.299 460.018 957.79 460.271" fill="#FFAB90"/>
<path d="M888.818 511.407C887.496 513.055 885.445 514.225 883.541 515.459C881.637 516.693 879.758 518.116 879.02 519.979C878.19 522.082 878.953 524.354 878.861 526.558C878.739 528.097 878.263 529.587 877.472 530.913C876.68 532.239 875.595 533.365 874.298 534.203C871.3 536.172 867.726 537.072 864.153 536.759C863.764 529.848 863.479 522.546 867.601 516.454C870.288 512.479 874.844 509.368 880.095 507.691C884.521 506.277 893.911 505.071 888.82 511.407" fill="#6C301E"/>
<path d="M381.391 530.893C379.159 533.746 377.024 536.466 375.068 538.828C362.244 541.544 358.244 545.535 352.895 557.503L362.248 603.143C380.859 596.675 395.05 578.329 407.438 563.007C408.497 561.696 409.536 560.4 410.553 559.119C409.566 559.068 408.583 558.953 407.61 558.775C394.402 556.574 382.888 544.278 381.391 530.893Z" fill="#21A9E1"/>
<path d="M423.61 516.019C421.639 509.889 417.148 503.346 410.706 503.497C407.204 503.584 404.096 505.688 401.404 507.932C395.271 513.046 387.916 522.549 381.391 530.893C382.888 544.282 394.403 556.576 407.611 558.776C408.583 558.954 409.567 559.068 410.554 559.119C421.388 545.433 429.126 533.171 423.611 516.019" fill="#FFAB91"/>
<path d="M297.286 560.928C297.26 559.078 296.859 557.252 296.109 555.56C295.358 553.869 294.273 552.347 292.919 551.085C290.19 548.577 286.932 546.713 283.386 545.633C275.732 543.217 267.553 543.001 259.782 545.009C246.094 535.693 232.914 525.652 220.298 514.928C212.505 520.686 204.395 532.91 198.285 540.429C222.195 569.715 253.398 589.093 288.886 602.134L297.286 560.928Z" fill="#FFAB91"/>
<path d="M297.285 560.928C297.259 559.078 296.858 557.252 296.108 555.56C295.358 553.869 294.273 552.347 292.919 551.086C290.19 548.576 286.932 546.713 283.385 545.633C275.732 543.217 267.553 543.001 259.783 545.009C255.628 542.185 251.538 539.269 247.482 536.311C239.086 547.042 235.23 559.949 233.664 573.522C250.366 585.482 268.946 594.811 288.885 602.135L297.285 560.928Z" fill="#21A9E1"/>
<path d="M282.122 599.543C266.315 587.229 251.162 574.004 235.856 561.162C234.865 565.232 234.132 569.361 233.663 573.523C248.697 584.137 264.97 592.875 282.122 599.543Z" fill="#1894C7"/>
<path d="M280.055 723.74C329.202 729.628 328.479 760.246 328.479 760.246L308.632 887.883L294.453 999.093H271.009C261.025 852.918 280.055 723.74 280.055 723.74Z" fill="#28A44A"/>
<path d="M315.272 758.494C315.272 758.494 293.409 743.241 290.85 729.895L372.915 733.073C372.915 733.073 386.637 905.435 386.288 999.09H363.038L315.272 758.494Z" fill="#259B45"/>
<path d="M384.363 999.092C384.356 1002.57 384.334 1005.96 384.295 1009.21H365.743L364.708 999.092H384.363Z" fill="#FFAB91"/>
<path d="M292.519 999.092C292.512 1002.57 292.491 1005.96 292.45 1009.21H273.896L272.862 999.092H292.519Z" fill="#FFAB91"/>
<path d="M298.367 743.308C294.029 738.564 290.23 733.149 289.245 728.014L372.179 723.742C372.179 723.742 372.855 733.45 373.171 737.487C348.443 743.751 323.151 746.093 298.367 743.309" fill="#1D913D"/>
<path d="M364.693 1007.7L386.405 1007.05C392.545 1014.12 396.831 1022.61 398.879 1031.75H359.676C360.429 1023.57 362.112 1015.5 364.693 1007.7Z" fill="#465A94"/>
<path d="M398.879 1031.75C399.081 1032.63 399.29 1033.52 399.449 1034.41C399.523 1034.72 399.527 1035.05 399.461 1035.37C399.396 1035.68 399.262 1035.98 399.07 1036.24C398.878 1036.5 398.631 1036.71 398.348 1036.86C398.065 1037.02 397.751 1037.11 397.429 1037.13H361.487C361.19 1037.11 360.9 1037.04 360.632 1036.91C360.365 1036.78 360.128 1036.59 359.934 1036.37C359.741 1036.14 359.595 1035.88 359.507 1035.6C359.419 1035.31 359.39 1035.01 359.422 1034.72C359.494 1033.73 359.581 1032.74 359.678 1031.75L398.879 1031.75Z" fill="#A86114"/>
<path d="M293.688 1007.7L271.975 1007.05C265.926 1013.9 229.49 1022.53 227.383 1031.75H298.708C297.954 1023.57 296.271 1015.5 293.691 1007.7" fill="#465A94"/>
<path d="M227.38 1031.75C227.178 1032.63 226.97 1033.52 226.81 1034.41C226.736 1034.72 226.732 1035.05 226.798 1035.37C226.863 1035.68 226.997 1035.98 227.189 1036.24C227.382 1036.5 227.628 1036.71 227.911 1036.86C228.195 1037.02 228.508 1037.11 228.83 1037.13H296.892C297.189 1037.11 297.48 1037.04 297.747 1036.91C298.014 1036.78 298.252 1036.59 298.445 1036.37C298.639 1036.14 298.784 1035.88 298.872 1035.6C298.96 1035.31 298.989 1035.01 298.958 1034.72C298.886 1033.73 298.799 1032.74 298.702 1031.75L227.38 1031.75Z" fill="#A86114"/>
<path d="M367.157 897.238C369.849 892.201 372.665 887.295 374.895 881.98C377.044 876.565 378.879 871.03 380.392 865.405C380.592 864.718 381.487 865.005 381.372 865.701C380.29 871.51 378.574 877.184 376.253 882.619C374.176 888.07 371.442 893.249 368.113 898.039C367.677 898.637 366.818 897.871 367.157 897.236" fill="#A86114"/>
<path d="M282.072 566.863C282.253 563.57 283.363 560.396 285.272 557.707C287.182 555.018 289.813 552.924 292.862 551.667C306.065 546.145 320.828 544.322 335.187 545.227C348.356 546.06 361.263 549.058 373.86 553.087C377.846 554.383 381.237 557.064 383.418 560.643C385.599 564.222 386.427 568.464 385.752 572.601C377.925 621.692 374.918 671.43 376.773 721.106C376.899 724.315 377.198 728.938 374.129 729.896C345.909 738.699 305.671 740.147 278.816 732.995C272.156 731.22 277.402 725.076 277.384 718.183C277.253 668.85 279.53 615.682 282.072 566.863Z" fill="#21A9E1"/>
<path d="M344.12 513.9C343.262 524.898 343.515 535.954 344.877 546.901C345.018 547.985 344.861 549.087 344.423 550.088C343.984 551.089 343.28 551.951 342.388 552.582C337.287 556.141 331.027 557.636 324.869 556.765C323.385 556.528 322.046 555.737 321.123 554.552C320.199 553.367 319.759 551.876 319.891 550.38C320.474 543.324 320.674 536.242 320.49 529.165C326.508 521.536 334.865 516.876 344.115 513.902" fill="#FFAB91"/>
<path d="M320.491 529.168C326.509 521.538 334.866 516.878 344.116 513.904C343.75 518.589 343.59 523.283 343.636 527.988C339.45 539.447 331.871 550.367 321.661 555.13C321.037 554.516 320.556 553.773 320.25 552.952C319.945 552.132 319.822 551.255 319.892 550.383C320.473 543.327 320.673 536.245 320.491 529.168" fill="#FF8A65"/>
<path d="M346.233 511.185C347.503 506.41 348.773 501.636 350.042 496.862C350.707 494.368 351.376 491.767 350.877 489.234C350.379 486.702 348.338 484.271 345.757 484.235C342.315 479.25 337.588 475.29 332.076 472.776C326.565 470.262 320.476 469.288 314.455 469.957C310.298 470.46 306.049 471.871 303.229 474.965C299.972 478.538 299.168 483.705 299.202 488.541C299.242 494.305 301.822 494.916 305.765 499.115C309.521 503.108 313.748 510.206 319.153 511.129C328.114 512.641 337.265 512.66 346.233 511.185Z" fill="#3E2410"/>
<path d="M344.911 511.284C346.06 506.93 347.21 502.575 348.36 498.22C348.962 495.949 349.566 493.574 349.115 491.264C348.664 488.954 346.816 486.738 344.479 486.705C341.38 482.169 337.105 478.562 332.112 476.27C327.12 473.978 321.598 473.087 316.138 473.693C312.374 474.15 308.526 475.439 305.974 478.258C303.025 481.518 302.297 486.231 302.329 490.64C302.364 495.89 304.699 496.455 308.267 500.283C311.668 503.924 315.495 510.395 320.388 511.239C328.502 512.617 336.788 512.633 344.907 511.288" fill="#170D05"/>
<path d="M305.223 495.985C303.176 511.329 309.487 538.499 317.968 538.806C336.072 539.462 339.95 528.088 342.988 516.926C342.936 517.116 344.233 517.842 345.562 517.763C346.872 517.687 348.613 516.142 349.329 515.067C350.716 512.991 352.124 509.754 350.639 507.382C348.845 504.527 344.875 503.943 343.198 507.294C343.321 501.685 341.49 496.491 339.544 491.252C339.244 490.429 338.767 489.682 338.145 489.064C337.524 488.446 336.775 487.973 335.95 487.677C327.479 484.857 318.342 484.725 309.793 487.299C309.008 487.549 308.294 487.985 307.713 488.569C307.132 489.154 306.701 489.87 306.457 490.657C305.909 492.399 305.496 494.18 305.223 495.985Z" fill="#FFAB91"/>
<g style="mix-blend-mode:multiply" opacity="0.37">
<mask id="mask3_536_383" style="mask-type:luminance" maskUnits="userSpaceOnUse" x="307" y="506" width="37" height="33">
<path d="M343.737 506.719H307.942V538.831H343.737V506.719Z" fill="white"/>
</mask>
<g mask="url(#mask3_536_383)">
<path d="M335.061 521.178C325.979 518.715 316.303 519.746 307.943 524.067C310.329 532.316 313.896 538.657 317.968 538.805C335.23 539.431 339.557 529.117 342.555 518.485L343.738 506.721C340.847 511.537 337.955 516.357 335.062 521.179" fill="#170D05"/>
</g>
</g>
<path d="M350.634 507.379C349.138 504.993 346.125 504.202 344.195 505.955L343.737 506.72L342.554 518.485C342.699 517.961 342.845 517.443 342.99 516.925C342.936 517.115 344.236 517.838 345.562 517.762C346.872 517.684 348.613 516.14 349.331 515.065C350.717 512.989 352.125 509.754 350.641 507.379" fill="#FFAB91"/>
<path d="M343.194 507.29C343.319 501.681 341.485 496.487 339.54 491.245C339.239 490.423 338.762 489.676 338.141 489.058C337.52 488.441 336.77 487.967 335.946 487.672C327.474 484.851 318.338 484.719 309.789 487.294C309.004 487.546 308.291 487.983 307.711 488.569C307.131 489.155 306.701 489.872 306.458 490.659C305.911 492.399 305.498 494.179 305.223 495.982C304.159 503.959 305.357 515.128 307.943 524.062C316.304 519.742 325.98 518.714 335.061 521.18C337.954 516.358 340.846 511.539 343.737 506.72L343.768 506.424C343.544 506.691 343.352 506.982 343.194 507.293" fill="#FFAB91"/>
<path d="M343.767 506.422L343.738 506.718L344.195 505.953C344.041 506.098 343.897 506.255 343.767 506.422Z" fill="#FFAB91"/>
<path d="M321.64 496.94C324.111 493.804 330.903 495.968 333.406 497.982C333.864 498.35 334.414 498.821 334.358 499.467C334.353 499.63 334.298 499.788 334.199 499.919C334.1 500.049 333.963 500.145 333.806 500.194C333.039 500.414 332.309 499.777 331.669 499.442C329.769 498.441 327.614 498.027 325.478 498.254C324.343 498.376 323.258 498.903 322.113 498.733C321.22 498.599 321.207 497.488 321.64 496.937" fill="#170D05"/>
<path d="M325.257 502.435C325.325 502.254 325.432 502.088 325.569 501.951C325.706 501.814 325.872 501.707 326.054 501.639C326.233 501.545 326.433 501.5 326.635 501.509L327.037 501.563C327.288 501.634 327.517 501.767 327.702 501.952C327.78 502.053 327.859 502.153 327.937 502.257C328.072 502.488 328.143 502.751 328.144 503.018V503.18C328.152 503.381 328.107 503.582 328.013 503.761C327.945 503.943 327.839 504.108 327.702 504.246C327.564 504.383 327.399 504.49 327.217 504.558C327.038 504.651 326.837 504.696 326.635 504.688L326.234 504.634C325.982 504.563 325.754 504.429 325.569 504.245L325.333 503.939C325.197 503.709 325.126 503.446 325.127 503.179V503.017C325.118 502.815 325.163 502.614 325.257 502.435Z" fill="#3B1411"/>
<path d="M308.752 503.369C308.82 503.187 308.927 503.022 309.064 502.884C309.201 502.747 309.367 502.641 309.549 502.573C309.728 502.479 309.928 502.434 310.13 502.442L310.532 502.497C310.783 502.567 311.012 502.701 311.196 502.885L311.432 503.191C311.567 503.422 311.638 503.684 311.638 503.952V504.113C311.647 504.315 311.602 504.516 311.508 504.695C311.448 504.881 311.341 505.048 311.196 505.179C310.905 505.448 310.527 505.605 310.13 505.621L309.728 505.567C309.477 505.497 309.248 505.363 309.064 505.179L308.828 504.874C308.692 504.643 308.621 504.381 308.622 504.113V503.952C308.613 503.75 308.658 503.549 308.752 503.37" fill="#3B1411"/>
<path d="M305.766 499.116C306.105 498.583 306.551 498.127 307.076 497.776C307.601 497.425 308.192 497.186 308.814 497.076C309.98 496.752 311.208 496.729 312.385 497.008C312.646 497.083 312.872 497.25 313.02 497.478C313.168 497.705 313.23 497.979 313.193 498.248C313.07 499.166 312.293 499.197 311.566 499.208C310.6 499.194 309.641 499.372 308.744 499.732C308.133 499.994 304.935 501.591 305.579 499.568C305.627 499.412 305.69 499.261 305.765 499.117" fill="#170D05"/>
<path d="M344.433 513.053C344.556 513.097 344.687 513.116 344.818 513.108C344.949 513.1 345.077 513.065 345.194 513.006C345.311 512.947 345.414 512.864 345.498 512.763C345.582 512.662 345.644 512.545 345.681 512.42C345.695 512.286 345.679 512.151 345.633 512.024C345.588 511.897 345.515 511.782 345.419 511.688C345.34 511.587 345.24 511.504 345.125 511.445C345.011 511.387 344.885 511.354 344.757 511.349C344.665 511.347 344.574 511.325 344.491 511.283C344.409 511.241 344.337 511.182 344.281 511.108C344.225 511.035 344.187 510.95 344.168 510.859C344.15 510.769 344.152 510.675 344.175 510.586C344.627 508.974 345.915 507.324 347.776 507.511C348.184 507.542 348.576 507.68 348.913 507.911C349.25 508.142 349.521 508.457 349.697 508.826C349.86 509.182 349.895 509.583 349.796 509.961C349.74 510.181 349.464 510.747 349.154 510.466C348.968 510.297 349.026 510.049 348.966 509.831C348.903 509.599 348.803 509.38 348.669 509.18C348.533 508.992 348.347 508.845 348.133 508.755C347.918 508.665 347.683 508.635 347.453 508.669C347.013 508.746 346.603 508.941 346.266 509.235C345.93 509.529 345.68 509.909 345.545 510.334C345.976 510.519 346.327 510.851 346.536 511.271C346.744 511.691 346.797 512.171 346.684 512.627C346.532 513.147 346.183 513.587 345.711 513.853C345.24 514.12 344.683 514.192 344.159 514.054C343.519 513.861 343.802 512.838 344.435 513.054" fill="#FF8A65"/>
<path d="M299.286 723.804C311.02 724.878 322.832 722.885 333.564 718.02C349.005 710.93 361.207 698.281 367.737 682.595C368.074 681.789 369.275 682.427 368.94 683.228C364.712 693.312 358.155 702.251 349.807 709.313C340.938 716.79 330.314 721.888 318.933 724.128C312.366 725.421 305.647 725.758 298.983 725.129C298.117 725.048 298.424 723.724 299.286 723.805" fill="#1B94C7"/>
<path d="M320.947 559.337C325.595 560.631 330.496 560.716 335.186 559.585C339.876 558.454 344.199 556.144 347.746 552.874C348.38 552.277 349.387 553.193 348.747 553.792C345.037 557.237 340.508 559.678 335.589 560.881C330.671 562.085 325.526 562.011 320.644 560.668C319.807 560.43 320.104 559.103 320.947 559.341" fill="#1B94C7"/>
<path d="M312.426 509.952C313.463 508.685 314.678 507.46 314.968 505.786C315.116 504.927 316.44 505.23 316.292 506.092C315.787 509.012 312.938 510.529 311.959 513.192C311.68 513.933 311.619 514.739 311.783 515.515C311.946 516.29 312.328 517.002 312.883 517.568C313.438 518.133 314.143 518.528 314.915 518.707C315.687 518.885 316.494 518.839 317.241 518.574C317.41 518.525 317.593 518.544 317.749 518.627C317.905 518.71 318.022 518.85 318.076 519.018C318.131 519.186 318.117 519.369 318.039 519.527C317.961 519.685 317.825 519.807 317.658 519.867C316.806 520.146 315.899 520.215 315.014 520.069C314.129 519.922 313.293 519.564 312.576 519.026C311.859 518.487 311.283 517.783 310.896 516.974C310.509 516.165 310.324 515.274 310.355 514.378C310.546 512.716 311.273 511.163 312.426 509.952Z" fill="#FF8A65"/>
<path d="M327.461 523.876C326.177 525.542 324.458 526.82 322.493 527.57C320.528 528.319 318.394 528.511 316.327 528.123C315.427 527.942 314.978 529.311 315.885 529.495C318.256 529.967 320.712 529.764 322.973 528.908C325.234 528.053 327.209 526.58 328.674 524.657C329.23 523.914 328.015 523.138 327.461 523.876Z" fill="#3B1411"/>
<path d="M307.66 256.377L340.044 321.99L412.452 332.513L360.06 383.586L372.428 455.705L307.66 421.655L242.893 455.705L255.26 383.586L202.867 332.513L275.275 321.99L307.66 256.377Z" fill="#FEB12F"/>
<path d="M231.804 328.306L202.867 332.51L255.26 383.586L242.893 455.702L307.66 421.652L372.425 455.702L361.927 394.501C311.535 392.351 261.483 368.8 231.806 328.303" fill="#FEA30A"/>
<path d="M262.282 427.164C263.139 427.02 264.016 427.049 264.861 427.251C265.282 427.358 265.667 427.577 265.975 427.884C266.282 428.192 266.501 428.577 266.608 428.998C266.645 429.52 266.52 430.041 266.25 430.49C265.979 430.938 265.576 431.291 265.097 431.501C264.13 431.899 263.105 432.139 262.062 432.21C258.512 432.739 255.157 434.167 252.316 436.36C250.939 437.584 249.476 438.705 247.937 439.716C242.387 442.826 238.051 436.847 243.832 433.294C249.467 429.941 255.763 427.851 262.285 427.17" fill="#FFAB91"/>
<path d="M265.582 432.52C266.439 432.375 267.316 432.405 268.161 432.607C268.583 432.713 268.968 432.932 269.275 433.239C269.583 433.547 269.801 433.932 269.908 434.354C269.946 434.876 269.821 435.397 269.55 435.845C269.28 436.293 268.877 436.647 268.397 436.857C267.43 437.255 266.405 437.494 265.362 437.566C261.812 438.094 258.457 439.523 255.616 441.716C254.239 442.939 252.776 444.061 251.236 445.071C245.687 448.182 241.351 442.202 247.131 438.65C252.767 435.296 259.063 433.207 265.585 432.526" fill="#FFAB91"/>
<path d="M264.599 438.568C265.456 438.424 266.333 438.454 267.178 438.656C267.599 438.763 267.984 438.981 268.292 439.289C268.599 439.596 268.818 439.981 268.925 440.402C268.962 440.925 268.837 441.446 268.567 441.894C268.296 442.342 267.893 442.696 267.414 442.905C266.447 443.304 265.422 443.543 264.379 443.615C260.829 444.143 257.474 445.572 254.632 447.765C253.256 448.988 251.792 450.11 250.253 451.12C244.704 454.231 240.367 448.251 246.148 444.698C251.784 441.346 258.08 439.256 264.602 438.575" fill="#FFAB91"/>
<path d="M261.711 444.745C262.41 444.626 263.126 444.649 263.816 444.812C264.161 444.899 264.475 445.078 264.726 445.329C264.977 445.579 265.155 445.894 265.242 446.238C265.273 446.664 265.171 447.089 264.951 447.455C264.73 447.821 264.401 448.109 264.009 448.28C263.22 448.605 262.383 448.8 261.531 448.86C258.633 449.291 255.893 450.458 253.574 452.249C252.451 453.248 251.256 454.163 249.999 454.988C245.469 457.528 241.929 452.646 246.645 449.748C251.246 447.012 256.386 445.306 261.711 444.749" fill="#FFAB91"/>
<path d="M243.147 433.755C240.482 435.922 238.183 438.504 236.335 441.4C234.135 444.726 232.842 448.839 233.673 452.74C234.505 456.641 237.839 460.121 241.822 460.305C244.221 460.311 246.548 459.488 248.41 457.975C250.387 456.494 251.997 454.578 253.115 452.375C254.233 450.173 254.83 447.742 254.859 445.272C254.888 442.802 254.348 440.359 253.282 438.131C252.216 435.902 250.652 433.949 248.71 432.422L243.147 433.755Z" fill="#FFAB91"/>
<path d="M237.602 444.672C228.626 455.482 193.697 510.164 193.499 524.027C193.392 531.302 195.857 539.03 201.432 543.939C207.632 549.407 214.958 548.029 219.048 540.9C226.441 528.013 241.097 471.017 244.585 453.535L237.602 444.672Z" fill="#FFAB91"/>
<path d="M353.878 421.816C353.021 421.672 352.144 421.702 351.299 421.904C350.878 422.011 350.493 422.229 350.185 422.537C349.878 422.844 349.659 423.229 349.552 423.65C349.515 424.173 349.64 424.694 349.91 425.142C350.181 425.59 350.584 425.944 351.063 426.153C352.03 426.551 353.055 426.79 354.098 426.863C357.648 427.39 361.004 428.819 363.845 431.013C365.221 432.236 366.685 433.358 368.224 434.368C373.773 437.479 378.11 431.499 372.329 427.946C366.694 424.592 360.398 422.502 353.875 421.821" fill="#FFAB91"/>
<path d="M350.579 427.176C349.722 427.032 348.845 427.061 348 427.263C347.578 427.37 347.193 427.589 346.886 427.896C346.579 428.204 346.36 428.588 346.253 429.01C346.215 429.532 346.34 430.053 346.611 430.501C346.881 430.95 347.284 431.303 347.764 431.513C348.731 431.911 349.755 432.15 350.799 432.222C354.349 432.75 357.704 434.179 360.545 436.372C361.921 437.595 363.385 438.717 364.925 439.727C370.474 442.838 374.81 436.858 369.03 433.306C363.394 429.953 357.098 427.864 350.576 427.182" fill="#FFAB91"/>
<path d="M351.565 433.223C350.708 433.078 349.831 433.108 348.986 433.31C348.564 433.417 348.179 433.636 347.872 433.943C347.565 434.251 347.346 434.635 347.239 435.057C347.201 435.579 347.326 436.1 347.597 436.548C347.867 436.996 348.27 437.35 348.75 437.56C349.717 437.958 350.741 438.197 351.785 438.269C355.335 438.797 358.69 440.226 361.531 442.419C362.907 443.642 364.371 444.764 365.91 445.774C371.459 448.885 375.795 442.905 370.015 439.353C364.379 436 358.083 433.911 351.561 433.229" fill="#FFAB91"/>
<path d="M354.451 439.4C353.752 439.28 353.036 439.303 352.345 439.467C352.001 439.554 351.687 439.732 351.436 439.983C351.185 440.234 351.007 440.548 350.92 440.892C350.889 441.318 350.991 441.744 351.211 442.109C351.432 442.475 351.761 442.764 352.152 442.935C352.942 443.26 353.779 443.456 354.631 443.514C357.529 443.946 360.268 445.113 362.588 446.903C363.711 447.902 364.906 448.818 366.163 449.642C370.693 452.183 374.235 447.301 369.517 444.402C364.915 441.666 359.775 439.96 354.451 439.403" fill="#FFAB91"/>
<path d="M373.015 428.41C375.68 430.576 377.978 433.158 379.821 436.055C382.023 439.379 383.315 443.494 382.486 447.395C381.657 451.296 378.317 454.773 374.336 454.96C371.937 454.963 369.611 454.14 367.747 452.63C365.77 451.148 364.16 449.232 363.042 447.029C361.924 444.826 361.327 442.396 361.298 439.926C361.27 437.455 361.809 435.011 362.876 432.783C363.942 430.555 365.507 428.601 367.449 427.074L373.015 428.41Z" fill="#FFAB91"/>
<path d="M378.558 439.332C387.535 450.142 422.464 504.824 422.668 518.687C422.774 525.962 420.31 533.69 414.733 538.599C408.532 544.067 401.207 542.689 397.117 535.56C389.723 522.673 375.069 465.677 371.58 448.195L378.558 439.332Z" fill="#FFAB91"/>
<path d="M408.637 559.886L382.233 591.098C379.714 594.077 377.194 597.055 374.672 600.034C374.079 600.733 375.047 601.805 375.646 601.096C384.445 590.695 393.246 580.291 402.048 569.887L409.61 560.948C410.2 560.249 409.236 559.18 408.637 559.886Z" fill="#1B94C7"/>
<path d="M280.329 565.534C279.544 577.702 278.901 589.88 278.399 602.068C277.899 614.313 277.544 626.562 277.336 638.815C277.219 645.691 277.148 652.565 277.123 659.439C277.123 660.364 278.559 660.431 278.564 659.502C278.608 647.307 278.797 635.114 279.129 622.923C279.466 610.672 279.948 598.427 280.575 586.187C280.927 579.321 281.325 572.458 281.769 565.597C281.773 565.409 281.703 565.226 281.574 565.089C281.445 564.952 281.268 564.87 281.08 564.862C280.892 564.854 280.708 564.92 280.568 565.045C280.427 565.171 280.342 565.346 280.329 565.534Z" fill="#1B94C7"/>
<path d="M307.515 512.484C306.115 512.484 304.748 512.069 303.584 511.292C302.421 510.514 301.514 509.41 300.979 508.117C300.444 506.824 300.303 505.402 300.576 504.03C300.849 502.658 301.523 501.397 302.512 500.408C303.502 499.419 304.762 498.745 306.134 498.472C307.507 498.199 308.929 498.339 310.222 498.874C311.514 499.41 312.619 500.317 313.396 501.48C314.174 502.643 314.589 504.011 314.589 505.41C314.586 507.285 313.84 509.083 312.514 510.409C311.188 511.735 309.39 512.481 307.515 512.484ZM307.515 499.054C306.258 499.054 305.029 499.427 303.984 500.125C302.939 500.823 302.125 501.815 301.644 502.976C301.163 504.138 301.037 505.415 301.282 506.648C301.527 507.881 302.133 509.013 303.021 509.901C303.91 510.79 305.042 511.395 306.275 511.64C307.507 511.886 308.785 511.76 309.946 511.279C311.107 510.798 312.1 509.983 312.798 508.938C313.496 507.894 313.869 506.665 313.869 505.408C313.867 503.724 313.197 502.108 312.005 500.917C310.814 499.726 309.199 499.056 307.515 499.054Z" fill="#170D05"/>
<path d="M324.827 512.484C323.428 512.484 322.061 512.069 320.897 511.292C319.734 510.514 318.827 509.41 318.292 508.117C317.757 506.824 317.616 505.402 317.889 504.03C318.162 502.658 318.836 501.397 319.825 500.408C320.815 499.419 322.075 498.745 323.447 498.472C324.82 498.199 326.242 498.339 327.535 498.874C328.827 499.41 329.932 500.317 330.709 501.48C331.487 502.643 331.901 504.011 331.901 505.41C331.899 507.285 331.153 509.083 329.827 510.409C328.501 511.735 326.703 512.481 324.827 512.484ZM324.827 499.054C323.571 499.054 322.342 499.427 321.297 500.125C320.252 500.823 319.438 501.815 318.957 502.976C318.476 504.138 318.35 505.415 318.595 506.648C318.84 507.881 319.446 509.013 320.334 509.901C321.223 510.79 322.355 511.395 323.588 511.64C324.82 511.886 326.098 511.76 327.259 511.279C328.42 510.798 329.413 509.983 330.111 508.938C330.809 507.894 331.182 506.665 331.182 505.408C331.18 503.724 330.51 502.108 329.318 500.917C328.127 499.726 326.512 499.056 324.827 499.054Z" fill="#170D05"/>
<path d="M314.332 503.22L313.833 502.696C314.47 502.113 315.292 501.774 316.155 501.738C317.018 501.701 317.866 501.971 318.549 502.498L318.096 503.06C317.547 502.646 316.871 502.435 316.184 502.464C315.497 502.493 314.842 502.759 314.329 503.217" fill="#170D05"/>
<path d="M345.279 505.418C340.856 503.744 336.079 503.228 331.4 503.918L331.297 503.205C336.096 502.498 340.996 503.028 345.532 504.744L345.279 505.418Z" fill="#170D05"/>
<path d="M1016.96 1037.12H178.382V1042.52H1016.96V1037.12Z" fill="#001E4A"/>
</g>
</g>
</g>
</g>
<defs>
<clipPath id="clip0_536_383">
<rect width="1048" height="1048" fill="white" transform="translate(102 53)"/>
</clipPath>
</defs>
</svg>
