<svg width="1200" height="1200" viewBox="0 0 1200 1200" fill="none" xmlns="http://www.w3.org/2000/svg">
<rect width="1200" height="1200" fill="white"/>
<path d="M1028.99 234.06V209.151H1012.07H983.86H965.558L953.327 224.909V255.62L962.21 254.281L1028.99 234.06Z" fill="#261203"/>
<path d="M965.558 209.151L953.327 224.909V255.62L959.621 254.683L975.245 234.417L974.173 223.123V209.151H965.558Z" fill="#8A410B"/>
<path d="M961.499 277.319C968.426 277.319 974.042 271.704 974.042 264.776C974.042 257.848 968.426 252.232 961.499 252.232C954.571 252.232 948.955 257.848 948.955 264.776C948.955 271.704 954.571 277.319 961.499 277.319Z" fill="#FD8D4C"/>
<path d="M962.214 314.72V244.816L974.177 223.121L978.418 222.541L985.783 230.487L1022.79 231.335L1028.99 228.21V267.805C1028.99 272.849 1024.31 284.768 1024.31 284.768L1023.77 302.132C1023.59 307.221 1019.44 311.283 1014.31 311.283H1010.87V329.406L1010.38 337.129L981.007 334.093L962.214 314.631V314.72Z" fill="#FD995F"/>
<path d="M968.016 319.269L973.283 305.967C973.283 305.967 982.747 308.333 997.522 309.984C1007.25 311.1 1010.91 311.368 1010.91 311.368C1010.91 311.368 1012.83 337.616 1012.83 338.062C1012.83 338.508 986.184 339.758 986.184 339.758L966.944 322.84L968.06 319.269H968.016Z" fill="url(#paint0_linear_81_2)"/>
<path style="mix-blend-mode:screen" d="M973.284 305.923C973.284 305.923 976.364 306.682 981.721 307.664L978.73 247.982L962.214 244.857V314.762L966.321 319.047L968.017 319.315L973.284 306.013V305.923Z" fill="url(#paint1_linear_81_2)"/>
<path d="M925.52 622.425L878.516 976.053H885.211V982.749H878.516V1007.61H953.33V1001.36L934.18 995.248L924.092 981.99H918.557V975.785H928.466L990.425 712.416L974.311 975.161H980.337V981.856H974.087V1007.61H1054.88V1002.03L1036.09 997.614C1036.09 997.614 1029.84 991.275 1027.12 989.49C1024.44 987.704 1017.48 982.347 1017.48 982.347V975.428H1026.81L1055.96 572.117L932.395 568.322L925.476 622.469L925.52 622.425Z" fill="#00112D"/>
<path d="M922.932 641.702C937.082 642.773 988.283 645.005 993.863 644.336C999.532 643.622 1014.49 592.108 1020.56 570.369L932.44 568.227L925.521 622.373L922.976 641.657L922.932 641.702Z" fill="#000C1C"/>
<path d="M885.211 976.055L935.296 622.426H925.52L878.516 976.055H885.211Z" fill="#FEFEFE"/>
<path d="M1031.76 640.765C1034.57 644.381 1039.3 644.738 1050.78 644.068L1056 572.066L1028.99 571.218L1024.75 572.423C1024.75 572.423 1025.51 632.685 1031.76 640.72V640.765Z" fill="#000C1C"/>
<path d="M950.563 325.163L962.214 314.718L995.604 334.18H1004.67L1010.87 329.493L1012.79 333.02C1012.79 333.02 1024.31 365.07 1027.16 374.802C1030.02 384.533 1032.03 412.923 1033.81 436.18C1035.6 459.437 1042.03 572.373 1042.03 572.373H999.666C999.666 572.373 1012.61 467.293 1010.56 456.892C1008.55 446.492 983.418 396.05 976.097 384.042C959.536 356.857 950.563 325.163 950.563 325.163Z" fill="#FEFEFE"/>
<path d="M1004.67 334.186L1006.99 352.934H997.39L995.604 334.186H1004.67Z" fill="#750400"/>
<path d="M997.387 352.935L1006.98 441.453L1000.73 572.424L1039.08 572.379L1037.61 486.806L1024.97 438.418L1006.98 352.935H997.387Z" fill="#D02E29"/>
<path d="M950.563 325.164C950.563 325.164 1002.84 420.379 1003.5 421.941C1004.17 423.503 1012.34 437.922 1012.34 437.922H1029.35C1029.35 437.922 1026.9 392.479 1021.76 371.678C1016.63 350.876 1012.79 332.976 1012.79 332.976C1012.79 332.976 1060.91 359.848 1063.37 362.08C1065.82 364.312 1096.49 458.768 1098.72 468.187C1100.95 477.606 1101.84 506.666 1086.18 506.666H1063.81L1077.47 614.558C1077.47 614.558 1073.45 621.477 1063.81 626.432C1054.17 631.342 1041.89 629.11 1041.89 629.11L1031.58 505.55L1021.27 504.88C1021.27 504.88 1006.05 592.372 1002.48 604.916C998.907 617.459 994.443 624.601 994.443 624.601L906.281 622.816C906.281 622.816 921.503 483.23 917.932 477.382C914.361 471.535 889.72 467.517 888.381 449.617C887.042 431.717 888.381 350.117 888.381 350.117L950.608 325.164H950.563Z" fill="url(#paint2_linear_81_2)"/>
<path d="M1098.72 468.196C1096.49 458.778 1065.82 364.367 1063.36 362.09C1060.86 390.079 1047.03 452.707 1047.03 452.707C1047.03 452.707 1024.48 452.171 1011.76 452.037C988.594 451.769 960.07 443.154 955.026 432.396C949.982 421.638 936.01 355.841 931.635 354.501C927.885 353.341 896.549 385.481 887.889 394.498C887.71 416.773 887.755 440.877 888.38 449.627C889.719 467.527 914.36 471.544 917.931 477.392C918.511 478.374 1063.86 506.675 1063.86 506.675H1086.22C1101.89 506.675 1100.99 477.571 1098.76 468.196H1098.72Z" fill="#00122B"/>
<path d="M1046.98 452.7C1046.98 452.7 1078.05 443.817 1081.4 445.335C1084.75 446.852 1086.76 470.198 1086.44 471.672C1086.09 473.189 1048.68 474.171 1048.68 474.171L1046.98 452.7Z" fill="url(#paint3_linear_81_2)"/>
<path d="M951.054 446.903C951.054 446.903 944.001 452.349 945.161 453.019C946.322 453.688 969.355 455.519 971.096 455.385C972.837 455.206 971.989 447.394 971.989 447.394L951.009 446.903H951.054Z" fill="#FC6945"/>
<path d="M950.564 325.173L888.337 350.126C888.337 350.126 886.998 431.726 888.337 449.626C889.677 467.526 914.317 471.544 917.888 477.392C921.459 483.239 906.238 622.825 906.238 622.825L913.112 622.959C915.835 596.265 925.789 497.479 926.102 489.087C926.414 479.356 929.227 464.491 913.781 455.34C898.336 446.189 898.336 414.897 898.113 381.954C897.935 357.715 897.533 353.43 897.354 352.805L954.001 331.333C951.858 327.405 950.564 325.084 950.564 325.084V325.173Z" fill="#FEFEFE"/>
<path d="M1022.79 231.381L1007.92 231.024C1008.32 239.996 1008.59 249.772 1008.46 258.923C1008.1 280.617 1006.54 302.267 1005.87 310.883C1009.4 311.24 1010.87 311.374 1010.87 311.374H1015.82C1020.06 311.374 1023.55 307.981 1023.68 303.74L1024.26 284.858C1024.26 284.858 1028.95 272.94 1028.95 267.895V228.301L1022.74 231.425L1022.79 231.381Z" fill="url(#paint4_linear_81_2)"/>
<path d="M214.381 246.865C214.381 246.865 208.266 220.439 210.408 215.439C212.551 210.484 217.283 204.637 250.717 208.967C284.152 213.297 287.053 238.205 287.589 243.428C288.125 248.651 283.973 268.961 283.973 268.961H268.528L257.547 254.945L214.381 246.91V246.865Z" fill="#422C3A"/>
<path d="M279.687 223.437C273.839 224.285 264.197 228.035 258.84 227.633C252.234 227.142 232.37 218.125 219.469 218.303C215.585 218.348 212.461 219.107 209.961 220.089C210.318 229.285 214.38 246.872 214.38 246.872L257.546 254.907L268.527 268.924H283.972C283.972 268.924 288.124 248.613 287.588 243.39C287.275 240.489 286.249 231.561 279.687 223.437Z" fill="#21191E"/>
<path d="M226.479 296.687C226.97 297.178 234.112 306.017 234.782 308.204C235.452 310.391 234.961 313.114 234.961 313.114L243.085 327.042L259.69 326.417L275.18 306.285V274.77C275.18 274.77 258.708 288.831 250.807 291.911C242.906 294.946 226.435 296.643 226.435 296.643L226.479 296.687Z" fill="url(#paint5_linear_81_2)"/>
<path d="M233.397 305.701C234.112 306.772 234.647 307.709 234.826 308.245C235.495 310.432 235.004 313.155 235.004 313.155L240.584 322.708L243.129 303.469L233.397 305.701Z" fill="#FEFEFE"/>
<path d="M276.831 278.64C276.831 278.64 266.028 296.094 250.985 303.638C235.942 311.182 233.442 311.717 228.755 311.003C224.068 310.289 217.774 311.539 215.274 293.014C212.774 274.489 213.042 266.945 213.221 259.936C213.399 252.928 212.06 234.046 215.81 232.796C219.604 231.546 245.494 233.153 252.146 240.161C258.797 247.17 264.555 251.678 267.591 254.714C270.626 257.749 272.099 263.686 272.099 263.686C272.099 263.686 276.965 260.651 281.072 261.9C285.223 263.15 285.937 269.802 284.687 274.846C283.437 279.89 280.67 283.64 276.831 278.64Z" fill="#FD995F"/>
<path d="M234.96 313.159L225.363 328.336L201.035 359.137L186.482 414.399V444.932L226.836 446.629L286.563 354.048L280.804 321.551L275.224 306.284L249.691 322.711H244.379L234.96 313.159Z" fill="#FEFEFE"/>
<path d="M269.109 333.332C272.948 333.242 279.153 332.483 282.635 331.992L280.76 321.547C270.27 328.555 259.824 332.305 259.824 332.305C259.824 332.305 263.574 333.421 269.109 333.332Z" fill="#9ABCE3"/>
<path d="M243.128 330.153C243.128 330.153 236.343 340.465 228.219 355.017C220.095 369.569 208.533 393.005 205.498 408.271C202.462 423.538 198.043 434.073 198.043 434.073L230.629 429.653C230.629 429.653 236.075 390.282 240.45 371.31C244.869 352.294 247.012 345.955 248.574 339.527C250.136 333.099 251.163 330.153 251.163 330.153H243.128Z" fill="#00428E"/>
<g style="mix-blend-mode:multiply">
<path d="M186.482 436.978L190.321 442.424L235.094 433.898L263.484 389.884C255.896 385.777 241.745 377.341 238.174 369.306C233.219 358.235 232.505 336.05 232.505 336.05L228.13 324.042L225.407 328.372L201.079 359.128L186.482 414.436V437.023V436.978Z" fill="#9ABCE3"/>
</g>
<path d="M156.619 608.122L179.876 979.964H190.812V985.901H166.216C166.216 985.901 160.101 988.802 158.94 994.739C157.735 1000.68 158.94 1008.31 158.94 1008.31H225.675V986.749H221.434V979.785H227.862L226.166 675.616H231.925L264.065 976.571H271.698V986.079H249.334C249.334 986.079 241.209 988.356 240.495 993.534C239.781 998.712 240.495 1008.31 240.495 1008.31H299.508V987.91H295.446V976.839H299.508V564.064C299.508 564.064 210.498 564.421 197.285 564.064C184.072 563.707 167.421 564.064 167.421 564.064L156.574 608.167L156.619 608.122Z" fill="#00112D"/>
<path d="M173.715 735.708C171.349 693.792 165.501 589.649 165.055 563.938C161.662 563.938 156.618 608.13 156.618 608.13L179.875 979.971H186.839C186.839 979.971 176.438 783.873 173.715 735.708Z" fill="#FEFEFE"/>
<path d="M181.214 566.918C181.214 566.918 192.909 569.462 207.863 569.641C222.817 569.82 228.576 569.641 228.576 569.641L216.523 505.361L209.247 496.701L190.097 501.299L181.258 566.963L181.214 566.918Z" fill="#00428E"/>
<path d="M280.804 321.547C280.804 321.547 306.65 346.188 328.612 360.293C345.977 371.498 308.034 470.864 303.034 504.789C298.079 538.715 312.096 613.529 312.096 613.529C312.096 613.529 274.465 614.199 255.003 615.092C235.54 615.985 227.416 612.815 227.416 612.815C227.416 612.815 214.739 558.981 211.123 541.348C207.507 523.716 205.677 502.423 205.677 502.423H199.785C199.785 502.423 196.615 551.258 193.446 569.828C190.277 588.353 185.322 620.493 185.322 620.493C185.322 620.493 175.367 618.931 168.582 619.154C161.797 619.377 141.71 620.493 141.71 620.493C141.71 620.493 146.307 576.39 149.03 556.035C151.753 535.679 155.324 491.844 155.324 491.844C155.324 491.844 137.156 492.915 125.372 488.541C114.257 484.434 98.9456 477.113 100.062 464.659C101.178 452.205 118.453 423.948 132.246 405.87C146.04 387.791 154.521 356.097 166.529 347.705C187.866 343.331 228.086 323.957 228.086 323.957C228.086 323.957 206.57 363.329 201.615 380.068C196.66 396.808 194.16 429.171 194.16 429.171H213.176C213.176 429.171 243.486 393.415 260.895 363.373C278.304 333.287 280.804 321.547 280.804 321.547Z" fill="url(#paint6_linear_81_2)"/>
<path d="M228.086 324.042C228.086 324.042 187.866 343.415 166.529 347.79C154.521 356.137 146.04 387.831 132.246 405.954C118.453 424.033 101.177 452.334 100.062 464.744C99.258 473.404 106.445 479.564 114.658 483.938C113.498 476.573 110.373 466.44 113.096 459.565C118.542 445.861 139.21 417.248 150.593 395.107C161.976 372.922 171.26 358.994 174.341 356.762C178.849 353.504 203.981 344.844 219.515 340.38C224.291 331.095 228.086 324.087 228.086 324.087V324.042Z" fill="#FEFEFE"/>
<path d="M244.377 322.698L243.127 330.153H251.162L249.689 322.698H244.377Z" fill="#002D61"/>
<path d="M181.215 432.207C181.215 432.207 162.377 443.054 153.047 442.384C143.718 441.715 140.682 435.956 142.022 430.332C143.361 424.752 155.949 425.6 163.716 426.27C171.483 426.939 181.17 432.207 181.17 432.207H181.215Z" fill="url(#paint7_linear_81_2)"/>
<path d="M231.209 425.334C231.209 425.334 262.59 416.361 265.983 417.879C269.375 419.397 271.429 442.966 271.071 444.528C270.714 446.091 232.905 447.073 232.905 447.073L231.209 425.378V425.334Z" fill="url(#paint8_linear_81_2)"/>
<path d="M166.528 490.733C166.528 490.733 160.77 491.805 155.324 491.939C155.324 491.939 151.708 535.774 149.03 556.129C146.307 576.485 141.709 620.588 141.709 620.588C141.709 620.588 146.218 620.32 151.708 620.052L166.528 490.778V490.733Z" fill="#FEFEFE"/>
<path d="M215.81 232.802C212.015 234.052 213.399 252.934 213.221 259.942C213.042 266.95 212.774 274.494 215.274 293.02C217.774 311.545 224.068 310.295 228.755 311.009C229.067 311.054 229.38 311.098 229.692 311.143C227.55 307.17 223.711 297.885 222.729 281.547C221.657 263.558 223.398 241.194 224.202 232.534C220.14 232.311 216.926 232.445 215.81 232.802Z" fill="#FEFEFE"/>
<path d="M777.142 254.406C777.142 254.406 747.725 273.735 744.868 291.903C742.056 310.071 772.812 329.489 774.508 335.247C776.16 341.05 776.785 350.023 776.785 350.023L794.908 349.71L804.327 323.775L787.364 301.009L777.142 254.406Z" fill="#21191E"/>
<path d="M843.921 218.122C827.539 215.712 794.908 219.64 780.489 238.477C766.026 257.315 764.643 292.267 771.071 302.668C777.499 313.069 788.39 315.39 788.39 315.39L831.869 232.228L843.921 218.122Z" fill="#55404E"/>
<path d="M750.357 376.449C751.027 401.492 760.044 446.577 768.927 466.129C777.81 485.68 789.416 498.67 789.416 498.67L805.085 472.869L750.402 376.449H750.357Z" fill="url(#paint9_linear_81_2)"/>
<path d="M775.402 954.044C775.402 954.044 769.063 981.006 767.367 988.594C765.67 996.183 767.724 1008.06 767.724 1008.06H793.57L791.963 962.123L775.446 953.999L775.402 954.044Z" fill="#000C1C"/>
<path d="M785.755 965.607V1008.06H821.243C821.243 1008.06 816.333 985.248 813.699 978.061C811.065 970.874 804.592 957.215 804.592 957.215L785.755 965.607Z" fill="#00143E"/>
<path d="M844.633 714.6C844.633 714.6 842.848 741.249 839.634 761.247C838.205 770.086 833.741 784.683 830.706 801.02C827.671 817.358 826.108 835.392 822.894 844.365C816.466 862.309 791.201 964.443 791.201 964.443C791.201 964.443 783.567 968.728 777.273 963.818C770.131 958.238 785.353 858.872 790.531 848.962C795.754 839.008 799.236 781.647 799.236 781.647L815.082 715.135L844.633 714.644V714.6Z" fill="#DB4836"/>
<path d="M773.527 719.416C773.527 719.416 774.018 734.861 773.929 742.226C773.84 749.637 776.875 770.617 776.741 775.75C776.607 780.884 765.046 792.534 765.582 810.97C766.117 829.406 779.509 903.417 782.142 920.157C784.776 936.896 785.178 960.064 785.758 965.599C786.339 971.134 790.133 977.116 797.364 976.982C804.596 976.848 806.471 968.768 804.596 957.207C802.721 945.646 797.945 932.656 796.293 923.282C794.641 913.907 793.347 855.832 795.757 839.003C798.168 822.175 802.319 814.72 803.435 801.596C804.551 788.472 814.238 766.153 819.594 745.931C824.951 725.71 824.594 714.952 824.594 714.952L773.527 719.416Z" fill="#F79862"/>
<path d="M779.598 527.688C779.598 527.688 762.769 564.248 761.965 595.138C761.162 626.028 773.527 719.412 773.527 719.412L851.422 718.073C851.422 718.073 863.072 665.935 869.5 625.09C875.973 584.246 874.232 534.563 874.232 534.563L779.642 527.688H779.598Z" fill="#00112D"/>
<path d="M799.772 319.185C799.772 319.185 775.757 316.685 775.846 293.874C775.891 271.019 797.049 250.977 810.709 238.21C824.368 225.443 834.055 217.006 843.92 218.167C853.785 219.328 862.936 229.684 864.008 241.558C865.124 253.387 862.222 267.091 863.16 270.662C864.097 274.233 878.649 287.179 876.953 304.677C875.257 322.175 856.33 329.452 850.348 331.996C844.367 334.54 838.697 335.121 838.697 335.121L799.772 319.229V319.185Z" fill="#21191E"/>
<path d="M799.774 319.177L799.417 299.357C799.417 299.357 808.345 306.41 817.094 309.981C825.888 313.508 833.744 314.222 833.744 314.222L835.485 353.37L828.03 354.665L801.917 331.899L799.774 319.177Z" fill="#F47850"/>
<path d="M799.775 319.179C799.775 319.179 796.873 332.303 793.927 337.748C790.981 343.15 785.267 347.167 785.267 347.167C785.267 347.167 773.349 344.667 765.314 345.516C757.279 346.319 746.833 350.962 751.476 386.717C756.118 422.473 779.509 454.077 783.392 459.836C787.276 465.594 793.927 473.763 793.927 473.763C793.927 473.763 782.723 498.136 778.795 505.814C774.911 513.492 771.518 525.187 773.616 528.981C775.714 532.731 815.488 543.935 840.575 542.819C865.617 541.703 874.232 534.65 874.232 534.65C874.232 534.65 874.456 508.671 873.518 493.717C872.581 478.718 870.349 466.889 870.349 466.889C870.349 466.889 879.678 463.273 881.151 432.338C882.624 401.403 878.116 371.942 872.893 363.327C867.715 354.667 851.69 346.364 851.69 346.364L833.209 324.982L833.611 349.265H826.826C826.826 349.265 818.389 339.579 814.416 335.07C806.024 325.607 799.73 319.268 799.73 319.268L799.775 319.179Z" fill="url(#paint10_linear_81_2)"/>
<path d="M826.868 349.187L827.047 360.168L839.144 359.99L833.609 349.143L826.868 349.187Z" fill="#030526"/>
<path d="M827.048 360.167C827.048 360.167 833.878 395.119 833.967 411.591C834.101 428.062 834.324 439.892 831.601 448.909C830.307 453.194 827.271 461.408 827.271 461.408L850.617 510.019C850.617 510.019 860.215 483.325 861.732 473.237C863.25 463.149 861.331 450.427 861.331 450.427C861.331 450.427 857.224 427.661 851.51 405.609C845.752 383.558 839.145 359.988 839.145 359.988L827.048 360.211V360.167Z" fill="#00428E"/>
<path d="M798.078 287.632C798.078 287.632 797.988 301.738 800.488 304.506C802.988 307.273 823.7 319.102 839.19 314.906C854.68 310.71 857.938 299.908 857.67 290.623C857.403 281.338 852.135 261.161 850.35 254.912C848.564 248.662 845.261 239.556 842.582 239.69C839.904 239.868 827.271 260.001 816.469 270.937C805.666 281.874 798.078 287.587 798.078 287.587V287.632Z" fill="#F79862"/>
<path d="M798.078 287.632C798.078 287.632 797.988 301.738 800.488 304.506C802.988 307.273 823.7 319.102 839.19 314.906C854.68 310.71 857.938 299.908 857.67 290.623C857.403 281.338 852.135 261.161 850.35 254.912C848.564 248.662 845.261 239.556 842.582 239.69C839.904 239.868 827.271 260.001 816.469 270.937C805.666 281.874 798.078 287.587 798.078 287.587V287.632Z" fill="#F79862"/>
<path d="M773.527 719.423C773.527 719.423 774.018 734.868 773.929 742.233C773.84 749.643 776.875 770.624 776.741 775.757C776.607 780.891 765.046 792.541 765.582 810.977C766.117 829.458 779.509 903.424 782.142 920.164C784.776 936.903 785.178 960.071 785.758 965.606C786.205 969.624 788.347 973.82 792.186 975.828C791.338 964.445 789.017 937.037 785.758 920.878C781.518 900.076 771.474 836.377 771.474 822.94C771.474 809.504 781.339 789.149 784.464 778.168C787.588 767.186 783.214 754.018 782.053 735.404C781.607 727.949 781.696 722.548 782.053 718.664L773.572 719.423H773.527Z" fill="#FEFEFE"/>
<path d="M791.829 528.581L779.598 527.688C779.598 527.688 762.769 564.248 761.965 595.138C761.162 626.028 773.527 719.412 773.527 719.412L786.16 719.189C783.972 697.495 774.286 599.2 777.767 577.729C781.294 556.123 790.043 533.179 791.873 528.581H791.829Z" fill="#FEFEFE"/>
<path d="M794.775 359.139C799.997 365.254 808.613 378.512 808.613 378.512C808.613 378.512 800.042 363.335 794.998 356.282C791.65 351.639 788.257 348.157 786.338 346.327C785.668 346.863 785.222 347.175 785.222 347.175C785.222 347.175 784.106 346.952 782.32 346.64C784.552 348.648 790.623 354.184 794.775 359.094V359.139Z" fill="url(#paint11_linear_81_2)"/>
<path d="M850.349 254.943C848.564 248.694 845.26 239.587 842.582 239.721C841.422 239.81 838.297 243.739 834.279 249.051C836.243 256.818 839.948 272.129 841.868 283.78C843.653 294.582 842.27 307.081 841.109 314.268C854.902 309.715 857.938 299.493 857.67 290.609C857.402 281.325 852.135 261.148 850.349 254.898V254.943Z" fill="url(#paint12_linear_81_2)"/>
<path d="M592.335 279.5L590.505 291.016L604.923 314.005L620.324 320.79L634.965 316.862L645.857 305.479L654.026 289.543L650.901 266.644L592.335 279.5Z" fill="url(#paint13_linear_81_2)"/>
<path d="M590.507 291.024L584.883 299.416C584.883 299.416 579.348 334.591 578.276 353.92C577.16 373.293 584.392 548.233 584.392 548.233H655.859L661.394 313.343L655.725 299.416L654.028 289.551L625.995 315.352H616.933L590.507 291.024Z" fill="#FEFEFE"/>
<path d="M661.391 313.291C661.391 313.291 651.392 327.442 647.732 330.834C644.027 334.182 639.161 335.834 639.161 335.834C652.285 368.643 644.875 545.502 644.875 545.502L666.882 540.413L661.391 313.336V313.291Z" fill="#9ABCE3"/>
<path d="M582.65 316.682C582.65 316.682 586.667 321.279 590.506 325.297C594.39 329.314 605.237 335.832 605.237 335.832C605.237 335.832 585.105 332.484 582.65 329.448C580.195 326.413 582.65 316.682 582.65 316.682Z" fill="#9ABCE3"/>
<path d="M612.245 340.663C612.245 340.663 603.183 475.338 603.139 483.775C603.005 515.424 607.29 546.493 607.29 546.493H633.047C633.047 546.493 639.207 510.023 639.162 483.775C639.162 468.821 628.404 340.663 628.404 340.663H612.2H612.245Z" fill="url(#paint14_linear_81_2)"/>
<path d="M586.218 243.165C586.218 243.165 580.281 209.686 581.219 207.32C582.156 204.954 583.986 190 622.063 190C660.14 190 662.64 208.168 662.818 208.704C662.997 209.195 659.604 245.888 659.604 245.888L644.472 235.71L638.535 220.756L614.251 228.077L600.681 223.301L586.263 243.165H586.218Z" fill="#8A410B"/>
<path d="M659.652 245.663C659.875 243.163 662.42 215.665 662.822 209.773C655.59 204.595 643.984 204.149 636.529 204.595C627.691 205.086 599.658 209.371 592.381 208.345C588.096 207.764 585.373 204.372 583.855 201.693C581.981 204.282 581.579 206.514 581.266 207.318C580.329 209.684 586.266 243.163 586.266 243.163L600.684 223.299L614.254 228.075L638.538 220.754L644.475 235.708L659.474 245.797L659.608 245.663H659.652Z" fill="#261203"/>
<path d="M610.237 226.646L605.014 207.943C599.479 208.434 594.792 208.657 592.381 208.345C588.096 207.764 585.373 204.372 583.855 201.693C581.981 204.282 581.579 206.514 581.266 207.318C580.329 209.684 586.266 243.163 586.266 243.163L600.684 223.299L610.237 226.646Z" fill="#4D2506"/>
<path d="M540.376 540.372C540.376 540.372 570.909 544.434 615.057 544.791C659.205 545.148 701.88 540.372 701.88 540.372L694.559 982.029L691.925 982.118L691.747 985.332L694.514 985.555C694.514 985.555 713.62 986.671 718.798 995.197C723.931 1003.68 723.574 1010.15 723.574 1010.15H655.544C655.544 1010.15 641.796 809.187 638.85 744.639C635.903 680.092 630.502 637.283 620.949 637.64C611.397 637.997 599.121 721.784 592.514 816.24C585.908 910.696 574.614 1010.2 574.614 1010.2H511.361C511.361 1010.2 508.683 998.099 514.039 991.492C519.441 984.93 536.582 984.261 536.582 984.261L542.831 983.859L543.099 978.011L536.627 977.922L540.376 540.417V540.372Z" fill="#00112D"/>
<path d="M540.152 569.253L536.67 977.877L543.143 977.966C543.143 977.966 545.375 773.967 547.383 721.605C549.392 669.244 549.08 565.905 549.08 565.905L540.152 569.253Z" fill="#112B53"/>
<path d="M727.861 328.876C700.408 325.707 710.72 439.134 710.72 439.134C710.72 439.134 709.47 458.686 708.756 476.274C708.488 482.925 708.265 489.219 708.265 494.174C708.175 505.423 710.006 545.241 711.434 556.668C712.238 563.542 712.952 568.274 712.952 568.274C712.952 568.274 711.97 568.363 710.184 568.542C708.488 568.721 706.077 568.944 703.221 569.256C695.677 569.97 684.963 570.997 675.41 571.89C658.492 573.497 646.976 572.559 646.976 572.559C646.976 572.559 654.118 413.333 654.832 374.586C655.546 335.84 655.814 299.325 655.814 299.325C655.814 299.325 668.893 309.414 689.784 315.306C710.631 321.198 724.245 324.993 727.906 328.831L727.861 328.876Z" fill="#00122B"/>
<path d="M727.861 328.876C700.408 325.707 710.72 439.134 710.72 439.134C710.72 439.134 709.47 458.686 708.756 476.274C708.488 482.925 708.265 489.219 708.265 494.174C708.175 505.423 710.006 545.241 711.434 556.668C712.238 563.542 712.952 568.274 712.952 568.274C712.952 568.274 711.97 568.363 710.184 568.542C708.488 568.721 706.077 568.944 703.221 569.256C695.677 569.97 684.963 570.997 675.41 571.89C658.492 573.497 646.976 572.559 646.976 572.559C646.976 572.559 654.118 413.333 654.832 374.586C655.546 335.84 655.814 299.325 655.814 299.325C655.814 299.325 668.893 309.414 689.784 315.306C710.631 321.198 724.245 324.993 727.906 328.831L727.861 328.876Z" fill="url(#paint15_linear_81_2)"/>
<path d="M714.068 571.886L697.954 588.269L687.553 565.904L699.65 553.763L714.068 571.886Z" fill="url(#paint16_linear_81_2)"/>
<path d="M760.712 480.606C760.935 494.176 750.4 521.361 745.624 530.557C740.847 539.708 715.582 581.445 715.582 581.445L694.914 556.671C694.914 556.671 720.492 517.031 719.51 493.864C718.93 479.937 710.672 439.181 710.672 439.181C710.672 439.181 700.36 325.709 727.813 328.923C731.473 332.762 737.633 389.588 741.562 410.88C745.49 432.173 760.444 467.036 760.667 480.651L760.712 480.606Z" fill="#00122B"/>
<path d="M652.286 446.803C660.187 424.751 669.695 398.503 672.954 386.183C683.935 344.267 678.355 335.607 672.954 328.822C668.892 323.689 677.239 316.1 681.569 312.708C665.544 306.86 655.813 299.405 655.813 299.405C655.813 299.405 655.589 335.92 654.831 374.666C654.563 388.103 653.536 416.047 652.331 446.847L652.286 446.803Z" fill="url(#paint17_linear_81_2)"/>
<path d="M512.792 328.876C540.245 325.707 529.933 439.134 529.933 439.134C529.933 439.134 531.183 458.686 531.897 476.274C532.165 482.925 532.388 489.219 532.388 494.174C532.477 505.423 530.647 545.241 529.219 556.668C528.415 563.542 527.701 568.274 527.701 568.274C527.701 568.274 528.683 568.363 530.469 568.542C532.165 568.721 534.575 568.944 537.432 569.256C544.976 569.97 555.69 570.997 565.242 571.89C582.16 573.497 593.677 572.559 593.677 572.559C593.677 572.559 586.535 413.333 585.821 374.586C585.107 335.84 584.839 299.325 584.839 299.325C584.839 299.325 572.831 304.637 550.378 314.547C530.736 323.207 516.407 324.948 512.747 328.831L512.792 328.876Z" fill="url(#paint18_linear_81_2)"/>
<path d="M525.692 571.886L541.852 588.269L552.208 565.904L540.111 553.763L525.692 571.886Z" fill="url(#paint19_linear_81_2)"/>
<path d="M479.936 480.606C479.713 494.176 490.248 521.361 495.024 530.557C499.8 539.708 521.807 578.544 521.807 578.544L545.778 559.081C545.778 559.081 520.2 517.076 521.182 493.864C521.763 479.937 530.021 439.181 530.021 439.181C530.021 439.181 540.332 325.709 512.88 328.923C509.219 332.762 503.059 389.588 499.131 410.88C495.203 432.173 480.249 467.036 480.025 480.651L479.936 480.606Z" fill="#00122B"/>
<path d="M557.519 311.458C560.688 313.734 572.383 322.885 567.696 328.822C562.295 335.607 556.715 344.267 567.696 386.183C571.58 401.003 581.579 429.438 588.498 450.017C587.203 418.011 586.132 388.549 585.864 374.666C585.15 335.964 584.882 299.405 584.882 299.405C584.882 299.405 578.097 302.976 567.473 307.128C564.527 308.422 561.224 309.895 557.519 311.502V311.458Z" fill="url(#paint20_linear_81_2)"/>
<path d="M612.245 340.649L616.932 315.339H626.038L628.404 340.649H612.245Z" fill="url(#paint21_linear_81_2)"/>
<path d="M620.324 301.243C605.281 301.243 594.746 286.958 592.38 279.504C590.014 272.049 588.452 259.461 588.452 259.461C588.452 259.461 580.105 251.828 581.399 244.864C582.694 237.9 590.327 239.106 590.327 239.106L589.479 217.188C589.479 217.188 603.317 224.152 617.378 224.152C631.439 224.152 637.912 214.465 643.001 214.822C648.089 215.179 651.839 223.482 652.018 229.24C652.196 234.999 652.018 239.24 652.018 239.24C652.018 239.24 657.955 238.793 660.008 242.989C663.758 250.667 652.866 263.032 652.866 263.032C652.866 263.032 651.705 272.897 649.384 279.861C647.063 286.825 636.349 301.243 620.369 301.243H620.324Z" fill="#FD995F"/>
<path d="M519.575 330.872C517.611 329.31 515.379 328.596 512.79 328.864C509.13 332.703 502.969 389.528 499.041 410.821C495.113 432.113 480.159 466.976 479.891 480.591C479.668 494.161 490.203 521.346 494.979 530.542C499.755 539.693 521.762 578.529 521.762 578.529L531.315 570.762C525.289 563.664 503.148 539.068 495.604 509.785C486.632 474.877 489.042 474.877 507.523 411.937C518.236 375.467 519.53 330.917 519.53 330.917L519.575 330.872Z" fill="#112B53"/>
<path d="M584.971 308.467C584.926 302.753 584.882 299.405 584.882 299.405C584.882 299.405 572.874 304.717 550.421 314.627C530.779 323.287 516.45 325.028 512.79 328.912C515.379 328.599 517.611 329.358 519.575 330.92C519.575 330.92 547.207 324.537 556.759 320.832C563.187 318.332 576.713 312.261 584.971 308.512V308.467Z" fill="#112B53"/>
<path d="M601.219 271.236C600.147 259.63 598.764 231.061 598.273 220.705C593.005 218.964 589.479 217.179 589.479 217.179L590.327 239.096C590.327 239.096 582.694 237.891 581.399 244.855C580.105 251.818 588.452 259.452 588.452 259.452C588.452 259.452 589.97 272.04 592.38 279.495C593.764 283.78 597.782 290.297 603.852 295.073C603.227 289.895 602.156 280.7 601.263 271.236H601.219Z" fill="#FEFEFE"/>
<path d="M590.505 291.016L594.656 297.578L597.424 284.007L596.62 278.562L592.335 279.499L590.505 291.016Z" fill="#FEFEFE"/>
<path d="M422.354 918.515L427.353 972.216C427.353 972.216 421.907 960.699 417.22 950.968C412.533 941.237 410.971 930.568 410.971 930.568L422.398 918.471L422.354 918.515Z" fill="#DF513B"/>
<path d="M456.455 595.553C454.223 561.984 442.572 497.08 442.572 497.08C442.572 497.08 404.54 499.312 385.256 499.758C366.017 500.204 349.456 491.455 349.456 491.455C349.456 491.455 337.359 539.799 334.011 574.037C330.663 608.275 341.733 696.258 341.733 696.258C341.733 696.258 352.58 760.27 365.57 807.275C376.909 848.253 404.495 914.274 404.495 914.274H428.199C428.199 914.274 442.795 867.894 446.991 834.594C456.589 758.931 457.705 710.141 456.366 696.258C456.366 696.258 458.598 629.121 456.366 595.553H456.455Z" fill="#00112D"/>
<path d="M404.54 914.266H413.066C413.066 914.266 389.898 854.049 384.185 832.89C378.471 811.731 367.4 774.145 358.651 726.471C349.902 678.797 343.697 605.009 343.697 586.126C343.697 558.584 353.071 514.079 353.071 514.079L345.126 510.106C341.331 527.337 336.064 553.272 334.011 574.074C330.663 608.312 341.733 696.295 341.733 696.295C341.733 696.295 352.58 760.307 365.57 807.312C376.909 848.29 404.495 914.311 404.495 914.311L404.54 914.266Z" fill="#FEFEFE"/>
<path d="M343.703 516.627C356.693 519.752 379.682 524.573 399.903 525.019C419.277 525.466 436.686 523.055 446.685 521.27C444.364 507.074 442.578 497.031 442.578 497.031C442.578 497.031 404.546 499.263 385.262 499.709C366.023 500.155 349.462 491.406 349.462 491.406C349.462 491.406 346.828 501.896 343.703 516.583V516.627Z" fill="url(#paint22_linear_81_2)"/>
<path d="M401.821 525.062L396.911 501.181L376.957 503.68L379.1 523.277C386.019 524.17 393.116 524.839 399.901 524.973C400.526 524.973 401.196 524.973 401.821 524.973V525.062Z" fill="#002D61"/>
<path d="M404.545 914.262C404.545 914.262 404.902 937.295 399.501 951.758C394.144 966.177 379.681 993.049 381.378 995.058C383.074 997.067 395.707 1002.78 404.144 983.988C412.58 965.195 428.248 914.262 428.248 914.262H404.545Z" fill="#FD995F"/>
<path d="M381.373 995.056C381.373 995.056 375.437 999.967 375.437 1002.64C375.437 1005.32 378.383 1008.14 378.383 1008.14H407.309C407.309 1008.14 411.683 986.887 414.897 987.111C418.156 987.334 419.049 1008.14 419.049 1008.14H429.583C429.583 1008.14 430.253 989.209 429.583 979.834C428.914 970.46 426.102 965.996 426.102 965.996L417.62 947.248C417.62 947.248 411.326 968.05 403.738 979.611C396.149 991.128 381.373 995.056 381.373 995.056Z" fill="url(#paint23_linear_81_2)"/>
<path d="M398.069 365.263C398.069 365.263 374.589 360.575 366.509 337.274C358.43 314.017 362.938 288.707 368.295 279.065C373.652 269.423 395.301 259.469 405.97 258.486C416.639 257.46 425.075 256.121 430.611 265.539C436.146 274.958 444.359 298.438 448.377 306.339C452.394 314.24 456.278 325.489 455.43 336.069C454.582 346.648 433.2 369.994 433.2 369.994L420.79 383.832L417.978 362.763L398.069 365.263Z" fill="#543333"/>
<path d="M423.245 381.051L428.513 375.203L433.2 369.981C433.2 369.981 438.913 363.731 444.538 356.277C445.966 344.09 445.252 325.386 438.958 312.932C430.209 295.657 411.148 295.657 411.148 295.657C411.148 295.657 391.953 299.139 382.044 294.63C374.901 291.372 373.652 276.775 379.99 268.517C374.723 271.775 370.348 275.48 368.295 279.141C362.938 288.783 358.43 314.048 366.509 337.35C374.589 360.651 398.069 365.338 398.069 365.338L417.978 362.838L420.255 379.846L423.245 381.14V381.051Z" fill="#170E0E"/>
<path d="M372.803 348.969C367.536 341.023 364.188 329.864 364.724 313.035C365.259 297.188 371.152 283.216 376.464 276.52C377.089 273.619 378.249 270.762 379.99 268.485C374.723 271.744 370.348 275.449 368.295 279.109C362.938 288.751 358.43 314.017 366.509 337.318C368.116 341.916 370.304 345.755 372.803 349.014V348.969Z" fill="#543333"/>
<path d="M394.767 353.163L393.338 378.25L389.41 412.265L426.951 378.161V343.432C426.951 343.432 413.069 356.198 405.927 356.868C398.784 357.537 394.722 353.163 394.722 353.163H394.767Z" fill="url(#paint24_linear_81_2)"/>
<path d="M393.337 378.245C393.337 378.245 355.528 396.815 352.582 404.895C349.636 412.974 320.576 468.327 319.907 479.085C319.237 489.843 339.726 500.913 360.885 505.288C382.044 509.662 434.405 503.948 447.841 500.913C461.278 497.878 474.357 483.459 477.392 467.345C480.428 451.23 482.079 401.19 474.357 395.833C466.634 390.477 436.101 380.076 436.101 380.076L433.2 369.987C433.2 369.987 423.915 380.388 415.3 387.887C406.684 395.387 394.052 403.109 394.052 403.109L393.382 378.245H393.337Z" fill="url(#paint25_linear_81_2)"/>
<path d="M398.963 294.765C388.92 294.05 384.634 287.845 378.385 292.756C372.135 297.666 371.02 314.673 372.135 325.655C373.251 336.636 382.135 360.116 402.356 360.339C422.577 360.562 428.559 352.036 430.345 336.413C432.13 320.789 425.881 301.728 419.587 298.38C413.292 295.032 408.605 295.479 399.008 294.809L398.963 294.765Z" fill="#F79862"/>
<path d="M394.007 403.066C394.007 403.066 380.794 429.269 377.446 439.759C374.098 450.294 375.437 472.658 375.437 472.658H394.007C394.007 472.658 392.534 451.499 392.534 439.849C392.534 428.198 394.007 403.021 394.007 403.021V403.066Z" fill="#00428E"/>
<path d="M411.595 472.706C411.595 472.706 430.209 483.464 439.449 482.795C448.69 482.125 451.725 476.411 450.341 470.876C449.002 465.341 436.592 466.189 428.87 466.858C421.147 467.528 411.595 472.751 411.595 472.751V472.706Z" fill="url(#paint26_linear_81_2)"/>
<path d="M412.624 406.325C412.624 406.325 425.703 400.076 431.417 394.452C435.256 390.657 438.291 384.765 439.853 381.328C437.532 380.524 436.104 380.033 436.104 380.033C436.104 380.033 431.283 388.336 424.899 395.344C418.516 402.397 412.579 406.325 412.579 406.325H412.624Z" fill="url(#paint27_linear_81_2)"/>
<path d="M381.509 384.353C380.259 385.022 378.964 385.736 377.625 386.495L379.143 409.216L381.509 384.353Z" fill="url(#paint28_linear_81_2)"/>
<path d="M419.541 298.339C413.291 294.991 408.559 295.437 398.962 294.768C396.775 294.634 394.9 294.187 393.204 293.696C392.534 299.723 392.4 309.365 394.811 323.47C397.668 340.21 402.221 353.066 405.212 360.297C423.112 359.672 428.602 351.28 430.299 336.416C432.084 320.747 425.835 301.731 419.541 298.383V298.339Z" fill="url(#paint29_linear_81_2)"/>
<path d="M651.975 239.241C651.975 239.241 652.154 235 651.975 229.241C651.797 223.483 648.047 215.136 642.958 214.823C637.87 214.466 631.397 224.153 617.336 224.153C617.157 224.153 617.023 224.153 616.845 224.153L620.55 301.244C636.397 301.11 647.021 286.781 649.297 279.862C651.618 272.898 652.779 263.033 652.779 263.033C652.779 263.033 663.671 250.713 659.921 242.99C657.912 238.839 651.931 239.241 651.931 239.241H651.975Z" fill="url(#paint30_linear_81_2)"/>
<path d="M281.071 261.922C276.92 260.672 272.099 263.707 272.099 263.707C272.099 263.707 270.67 257.77 267.59 254.735C264.51 251.699 258.796 247.191 252.145 240.182C248.931 236.79 241.253 234.692 233.754 233.531C232.727 241.477 231.076 257.413 231.567 273.706C232.013 289.732 235.852 303.034 238.129 309.685C241.075 308.524 245.048 306.65 251.029 303.659C266.072 296.115 276.875 278.661 276.875 278.661C280.714 283.705 283.482 279.911 284.731 274.867C285.981 269.823 285.267 263.171 281.116 261.922H281.071Z" fill="url(#paint31_linear_81_2)"/>
<defs>
<linearGradient id="paint0_linear_81_2" x1="989.844" y1="306.815" x2="989.844" y2="343.151" gradientUnits="userSpaceOnUse">
<stop stop-color="#D02E29"/>
<stop offset="0.18" stop-color="#D1322B"/>
<stop offset="0.38" stop-color="#D73F32"/>
<stop offset="0.59" stop-color="#E0563D"/>
<stop offset="0.8" stop-color="#ED744C"/>
<stop offset="1" stop-color="#FD995F"/>
</linearGradient>
<linearGradient id="paint1_linear_81_2" x1="962.214" y1="282.042" x2="981.721" y2="282.042" gradientUnits="userSpaceOnUse">
<stop stop-color="#FEFEFE"/>
<stop offset="1" stop-color="#FEFEFE"/>
</linearGradient>
<linearGradient id="paint2_linear_81_2" x1="922.753" y1="477.427" x2="1092.02" y2="477.427" gradientUnits="userSpaceOnUse">
<stop stop-color="#001536"/>
<stop offset="0.46" stop-color="#001638"/>
<stop offset="0.8" stop-color="#001942"/>
<stop offset="1" stop-color="#001D4C"/>
</linearGradient>
<linearGradient id="paint3_linear_81_2" x1="1066.71" y1="471.314" x2="1066.71" y2="445.915" gradientUnits="userSpaceOnUse">
<stop stop-color="#EC604C"/>
<stop offset="0.31" stop-color="#ED644E"/>
<stop offset="0.65" stop-color="#F07157"/>
<stop offset="1" stop-color="#F58865"/>
</linearGradient>
<linearGradient id="paint4_linear_81_2" x1="1007.65" y1="269.815" x2="1027.97" y2="269.815" gradientUnits="userSpaceOnUse">
<stop stop-color="#FF7B57"/>
<stop offset="0.36" stop-color="#FE7F58"/>
<stop offset="0.75" stop-color="#FD8C5B"/>
<stop offset="1" stop-color="#FD995F"/>
</linearGradient>
<linearGradient id="paint5_linear_81_2" x1="252.682" y1="289.322" x2="281.162" y2="343.603" gradientUnits="userSpaceOnUse">
<stop stop-color="#D02E29"/>
<stop offset="0.22" stop-color="#DA4735"/>
<stop offset="0.75" stop-color="#F38253"/>
<stop offset="1" stop-color="#FD995F"/>
</linearGradient>
<linearGradient id="paint6_linear_81_2" x1="216.569" y1="618.306" x2="216.569" y2="327.707" gradientUnits="userSpaceOnUse">
<stop stop-color="#001536"/>
<stop offset="0.46" stop-color="#001638"/>
<stop offset="0.8" stop-color="#001942"/>
<stop offset="1" stop-color="#001D4C"/>
</linearGradient>
<linearGradient id="paint7_linear_81_2" x1="161.44" y1="441.715" x2="161.44" y2="425.823" gradientUnits="userSpaceOnUse">
<stop stop-color="#EC604C"/>
<stop offset="0.31" stop-color="#ED644E"/>
<stop offset="0.65" stop-color="#F07157"/>
<stop offset="1" stop-color="#F58865"/>
</linearGradient>
<linearGradient id="paint8_linear_81_2" x1="251.163" y1="444.127" x2="251.163" y2="418.459" gradientUnits="userSpaceOnUse">
<stop stop-color="#EC604C"/>
<stop offset="0.31" stop-color="#ED644E"/>
<stop offset="0.65" stop-color="#F07157"/>
<stop offset="1" stop-color="#F58865"/>
</linearGradient>
<linearGradient id="paint9_linear_81_2" x1="750.498" y1="440.531" x2="806.002" y2="438.938" gradientUnits="userSpaceOnUse">
<stop stop-color="#3855E1"/>
<stop offset="1" stop-color="#5C7EF7"/>
</linearGradient>
<linearGradient id="paint10_linear_81_2" x1="750.666" y1="436.476" x2="883.553" y2="431.485" gradientUnits="userSpaceOnUse">
<stop stop-color="#3855E1"/>
<stop offset="1" stop-color="#5C7EF7"/>
</linearGradient>
<linearGradient id="paint11_linear_81_2" x1="809.505" y1="387.841" x2="793.748" y2="359.496" gradientUnits="userSpaceOnUse">
<stop stop-color="#EAEAEB"/>
<stop offset="0.35" stop-color="#E5E5E6"/>
<stop offset="0.74" stop-color="#D8D8D9"/>
<stop offset="1" stop-color="#CBCBCC"/>
</linearGradient>
<linearGradient id="paint12_linear_81_2" x1="836.065" y1="277.039" x2="856.643" y2="277.039" gradientUnits="userSpaceOnUse">
<stop stop-color="#FF7B57"/>
<stop offset="0.36" stop-color="#FE7F58"/>
<stop offset="0.75" stop-color="#FD8C5B"/>
<stop offset="1" stop-color="#FD995F"/>
</linearGradient>
<linearGradient id="paint13_linear_81_2" x1="622.198" y1="284.454" x2="622.868" y2="327.933" gradientUnits="userSpaceOnUse">
<stop stop-color="#D02E29"/>
<stop offset="0.18" stop-color="#D1322B"/>
<stop offset="0.38" stop-color="#D73F32"/>
<stop offset="0.59" stop-color="#E0563D"/>
<stop offset="0.8" stop-color="#ED744C"/>
<stop offset="1" stop-color="#FD995F"/>
</linearGradient>
<linearGradient id="paint14_linear_81_2" x1="603.228" y1="448.582" x2="639.792" y2="448.171" gradientUnits="userSpaceOnUse">
<stop stop-color="#3855E1"/>
<stop offset="1" stop-color="#5C7EF7"/>
</linearGradient>
<linearGradient id="paint15_linear_81_2" x1="687.374" y1="561.444" x2="687.374" y2="300.263" gradientUnits="userSpaceOnUse">
<stop stop-color="#00122B"/>
<stop offset="0.49" stop-color="#00132C"/>
<stop offset="0.66" stop-color="#031733"/>
<stop offset="0.79" stop-color="#081E3F"/>
<stop offset="0.89" stop-color="#102950"/>
<stop offset="0.97" stop-color="#193766"/>
<stop offset="1" stop-color="#1D3C6E"/>
</linearGradient>
<linearGradient id="paint16_linear_81_2" x1="706.569" y1="562.646" x2="690.276" y2="580.457" gradientUnits="userSpaceOnUse">
<stop stop-color="#EC604C"/>
<stop offset="0.31" stop-color="#ED644E"/>
<stop offset="0.65" stop-color="#F07157"/>
<stop offset="1" stop-color="#F58865"/>
</linearGradient>
<linearGradient id="paint17_linear_81_2" x1="671.972" y1="440.732" x2="659.964" y2="296.638" gradientUnits="userSpaceOnUse">
<stop stop-color="#142C55"/>
<stop offset="0.44" stop-color="#152D57"/>
<stop offset="0.76" stop-color="#183361"/>
<stop offset="1" stop-color="#1D3C6E"/>
</linearGradient>
<linearGradient id="paint18_linear_81_2" x1="553.279" y1="8.10146" x2="553.279" y2="8.10146" gradientUnits="userSpaceOnUse">
<stop stop-color="#00122B"/>
<stop offset="0.49" stop-color="#00132C"/>
<stop offset="0.66" stop-color="#031733"/>
<stop offset="0.79" stop-color="#081E3F"/>
<stop offset="0.89" stop-color="#102950"/>
<stop offset="0.97" stop-color="#193766"/>
<stop offset="1" stop-color="#1D3C6E"/>
</linearGradient>
<linearGradient id="paint19_linear_81_2" x1="533.236" y1="562.646" x2="549.53" y2="580.457" gradientUnits="userSpaceOnUse">
<stop stop-color="#EC604C"/>
<stop offset="0.31" stop-color="#ED644E"/>
<stop offset="0.65" stop-color="#F07157"/>
<stop offset="1" stop-color="#F58865"/>
</linearGradient>
<linearGradient id="paint20_linear_81_2" x1="583.275" y1="450.418" x2="570.999" y2="303.2" gradientUnits="userSpaceOnUse">
<stop stop-color="#142C55"/>
<stop offset="0.44" stop-color="#152D57"/>
<stop offset="0.76" stop-color="#183361"/>
<stop offset="1" stop-color="#1D3C6E"/>
</linearGradient>
<linearGradient id="paint21_linear_81_2" x1="612.286" y1="328.609" x2="628.661" y2="327.939" gradientUnits="userSpaceOnUse">
<stop stop-color="#3855E1"/>
<stop offset="1" stop-color="#5C7EF7"/>
</linearGradient>
<linearGradient id="paint22_linear_81_2" x1="343.967" y1="509.058" x2="444.628" y2="489.324" gradientUnits="userSpaceOnUse">
<stop stop-color="#3855E1"/>
<stop offset="1" stop-color="#5C7EF7"/>
</linearGradient>
<linearGradient id="paint23_linear_81_2" x1="402.666" y1="1005.59" x2="402.666" y2="947.471" gradientUnits="userSpaceOnUse">
<stop stop-color="#00122B"/>
<stop offset="0.49" stop-color="#00132C"/>
<stop offset="0.66" stop-color="#031733"/>
<stop offset="0.79" stop-color="#081E3F"/>
<stop offset="0.89" stop-color="#102950"/>
<stop offset="0.97" stop-color="#193766"/>
<stop offset="1" stop-color="#1D3C6E"/>
</linearGradient>
<linearGradient id="paint24_linear_81_2" x1="407.623" y1="345.708" x2="408.292" y2="382.982" gradientUnits="userSpaceOnUse">
<stop stop-color="#D02E29"/>
<stop offset="0.22" stop-color="#DA4735"/>
<stop offset="0.75" stop-color="#F38253"/>
<stop offset="1" stop-color="#FD995F"/>
</linearGradient>
<linearGradient id="paint25_linear_81_2" x1="320.3" y1="441.761" x2="481.835" y2="429.657" gradientUnits="userSpaceOnUse">
<stop stop-color="#3855E1"/>
<stop offset="1" stop-color="#5C7EF7"/>
</linearGradient>
<linearGradient id="paint26_linear_81_2" x1="431.147" y1="482.08" x2="431.147" y2="466.367" gradientUnits="userSpaceOnUse">
<stop stop-color="#EC604C"/>
<stop offset="0.31" stop-color="#ED644E"/>
<stop offset="0.65" stop-color="#F07157"/>
<stop offset="1" stop-color="#F58865"/>
</linearGradient>
<linearGradient id="paint27_linear_81_2" x1="426.908" y1="408.602" x2="425.971" y2="388.113" gradientUnits="userSpaceOnUse">
<stop stop-color="#EAEAEB"/>
<stop offset="0.35" stop-color="#E5E5E6"/>
<stop offset="0.74" stop-color="#D8D8D9"/>
<stop offset="1" stop-color="#CBCBCC"/>
</linearGradient>
<linearGradient id="paint28_linear_81_2" x1="381.776" y1="407.743" x2="378.741" y2="384.576" gradientUnits="userSpaceOnUse">
<stop stop-color="#EAEAEB"/>
<stop offset="0.35" stop-color="#E5E5E6"/>
<stop offset="0.74" stop-color="#D8D8D9"/>
<stop offset="1" stop-color="#CBCBCC"/>
</linearGradient>
<linearGradient id="paint29_linear_81_2" x1="395.837" y1="327.354" x2="436.816" y2="323.336" gradientUnits="userSpaceOnUse">
<stop stop-color="#FF7B57"/>
<stop offset="0.36" stop-color="#FE7F58"/>
<stop offset="0.75" stop-color="#FD8C5B"/>
<stop offset="1" stop-color="#FD995F"/>
</linearGradient>
<linearGradient id="paint30_linear_81_2" x1="616.979" y1="259.373" x2="660.278" y2="255.489" gradientUnits="userSpaceOnUse">
<stop stop-color="#FF7B57"/>
<stop offset="1" stop-color="#FD995F"/>
</linearGradient>
<linearGradient id="paint31_linear_81_2" x1="231.433" y1="271.608" x2="285.222" y2="271.608" gradientUnits="userSpaceOnUse">
<stop stop-color="#FF7B57"/>
<stop offset="0.36" stop-color="#FE7F58"/>
<stop offset="0.75" stop-color="#FD8C5B"/>
<stop offset="1" stop-color="#FD995F"/>
</linearGradient>
</defs>
</svg>
