<svg width="1200" height="829" viewBox="0 0 1200 829" fill="none" xmlns="http://www.w3.org/2000/svg">
<rect width="1200" height="829" fill="white"/>
<path d="M1028.99 47.0608V22.1523H1012.07H983.86H965.558L953.327 37.9098V68.6214L962.21 67.2822L1028.99 47.0608Z" fill="#261203"/>
<path d="M965.558 22.1523L953.327 37.9098V68.6214L959.621 67.684L975.245 47.4179L974.173 36.1243V22.1523H965.558Z" fill="#261203"/>
<path d="M961.499 90.3195C968.426 90.3195 974.042 84.7035 974.042 77.7759C974.042 70.8483 968.426 65.2324 961.499 65.2324C954.571 65.2324 948.955 70.8483 948.955 77.7759C948.955 84.7035 954.571 90.3195 961.499 90.3195Z" fill="#EEA886"/>
<path d="M962.214 127.722V57.8177L974.177 36.1233L978.418 35.543L985.783 43.4887L1022.79 44.3368L1028.99 41.2121V80.8067C1028.99 85.8509 1024.31 97.7695 1024.31 97.7695L1023.77 115.134C1023.59 120.223 1019.44 124.285 1014.31 124.285H1010.87V142.408L1010.38 150.131L981.007 147.095L962.214 127.633V127.722Z" fill="#EEA886"/>
<path d="M968.016 132.269L973.283 118.967C973.283 118.967 982.747 121.333 997.522 122.984C1007.25 124.1 1010.91 124.368 1010.91 124.368C1010.91 124.368 1012.83 150.616 1012.83 151.062C1012.83 151.508 986.184 152.758 986.184 152.758L966.944 135.84L968.06 132.269H968.016Z" fill="#EEA886"/>
<path d="M925.52 435.426L878.516 789.055H885.211V795.751H878.516V820.615H953.33V814.365L934.18 808.25L924.092 794.992H918.557V788.787H928.466L990.425 525.418L974.311 788.163H980.337V794.858H974.087V820.615H1054.88V815.035L1036.09 810.616C1036.09 810.616 1029.84 804.277 1027.12 802.492C1024.44 800.706 1017.48 795.349 1017.48 795.349V788.43H1026.81L1055.96 385.119L932.395 381.324L925.476 435.471L925.52 435.426Z" fill="#2F589B"/>
<path d="M922.932 454.702C937.082 455.773 988.283 458.005 993.863 457.336C999.532 456.622 1014.49 405.108 1020.56 383.369L932.44 381.227L925.521 435.373L922.976 454.657L922.932 454.702Z" fill="#000C1C"/>
<path d="M1031.76 453.766C1034.57 457.382 1039.3 457.739 1050.78 457.069L1056 385.067L1028.99 384.219L1024.75 385.424C1024.75 385.424 1025.51 445.686 1031.76 453.721V453.766Z" fill="#000C1C"/>
<path d="M950.563 138.164L962.214 127.719L995.604 147.181H1004.67L1010.87 142.494L1012.79 146.021C1012.79 146.021 1024.31 178.071 1027.16 187.803C1030.02 197.534 1032.03 225.924 1033.81 249.181C1035.6 272.438 1042.03 385.374 1042.03 385.374H999.666C999.666 385.374 1012.61 280.294 1010.56 269.893C1008.55 259.493 983.418 209.051 976.097 197.043C959.536 169.858 950.563 138.164 950.563 138.164Z" fill="#FEFEFE"/>
<path d="M1004.67 147.188L1006.99 165.936H997.389L995.604 147.188H1004.67Z" fill="#750400"/>
<path d="M997.387 165.936L1006.98 254.454L1000.73 385.425L1039.08 385.38L1037.61 299.807L1024.97 251.419L1006.98 165.936H997.387Z" fill="#D02E29"/>
<path d="M950.564 138.166C950.564 138.166 1002.84 233.381 1003.51 234.943C1004.18 236.505 1012.34 250.924 1012.34 250.924H1029.35C1029.35 250.924 1026.9 205.481 1021.76 184.68C1016.63 163.878 1012.79 145.978 1012.79 145.978C1012.79 145.978 1060.91 172.85 1063.37 175.082C1065.82 177.314 1096.49 271.77 1098.72 281.189C1100.95 290.608 1101.85 319.668 1086.18 319.668H1063.81L1077.47 427.56C1077.47 427.56 1073.45 434.479 1063.81 439.434C1054.17 444.344 1041.9 442.112 1041.9 442.112L1031.58 318.552L1021.27 317.882C1021.27 317.882 1006.05 405.374 1002.48 417.918C998.908 430.461 994.444 437.603 994.444 437.603L906.282 435.818C906.282 435.818 921.504 296.232 917.933 290.384C914.362 284.537 889.721 280.519 888.382 262.619C887.043 244.719 888.382 163.119 888.382 163.119L950.609 138.166H950.564Z" fill="url(#paint0_linear_306_841)"/>
<path d="M1098.72 281.198C1096.49 271.78 1065.82 177.368 1063.37 175.092C1060.87 203.08 1047.03 265.709 1047.03 265.709C1047.03 265.709 1024.48 265.173 1011.76 265.039C988.595 264.771 960.071 256.156 955.027 245.398C949.983 234.64 936.011 168.842 931.636 167.503C927.886 166.343 896.55 198.483 887.89 207.5C887.711 229.774 887.756 253.879 888.381 262.629C889.72 280.529 914.361 284.546 917.932 290.394C918.512 291.376 1063.86 319.677 1063.86 319.677H1086.22C1101.89 319.677 1101 290.573 1098.76 281.198H1098.72Z" fill="#00122B"/>
<path d="M1046.98 265.7C1046.98 265.7 1078.05 256.817 1081.4 258.335C1084.75 259.852 1086.76 283.198 1086.44 284.672C1086.09 286.189 1048.68 287.171 1048.68 287.171L1046.98 265.7Z" fill="#EEA886"/>
<path d="M951.054 259.904C951.054 259.904 944.001 265.35 945.161 266.02C946.322 266.689 969.355 268.52 971.096 268.386C972.837 268.207 971.989 260.395 971.989 260.395L951.009 259.904H951.054Z" fill="#EEA886"/>
<path d="M214.382 59.8641C214.382 59.8641 208.266 33.4379 210.409 28.4384C212.552 23.4834 217.283 17.6358 250.718 21.9657C284.152 26.2957 287.054 51.2042 287.589 56.4269C288.125 61.6496 283.974 81.9603 283.974 81.9603H268.529L257.548 67.9437L214.382 59.9087V59.8641Z" fill="#261203"/>
<path d="M279.687 36.4349C273.84 37.2831 264.198 41.0327 258.841 40.631C252.234 40.1399 232.37 31.1229 219.47 31.3014C215.586 31.3461 212.461 32.105 209.961 33.087C210.319 42.2826 214.381 59.8703 214.381 59.8703L257.546 67.9053L268.528 81.9219H283.973C283.973 81.9219 288.124 61.6112 287.588 56.3885C287.276 53.4869 286.249 44.5592 279.687 36.4349Z" fill="#21191E"/>
<path d="M226.479 109.687C226.97 110.178 234.112 119.017 234.782 121.204C235.451 123.391 234.96 126.114 234.96 126.114L243.084 140.042L259.69 139.417L275.18 119.285V87.7695C275.18 87.7695 258.708 101.831 250.807 104.911C242.906 107.946 226.434 109.643 226.434 109.643L226.479 109.687Z" fill="#EEA886"/>
<path d="M233.397 118.701C234.112 119.772 234.647 120.709 234.826 121.245C235.495 123.432 235.004 126.155 235.004 126.155L240.584 135.708L243.129 116.469L233.397 118.701Z" fill="#FEFEFE"/>
<path d="M276.831 91.639C276.831 91.639 266.028 109.093 250.985 116.637C235.942 124.181 233.442 124.716 228.755 124.002C224.068 123.288 217.774 124.538 215.274 106.013C212.774 87.4876 213.042 79.9437 213.221 72.9354C213.399 65.9271 212.06 47.0448 215.81 45.795C219.604 44.5451 245.494 46.1521 252.146 53.1604C258.797 60.1687 264.555 64.6772 267.591 67.7126C270.626 70.7481 272.099 76.685 272.099 76.685C272.099 76.685 276.965 73.6496 281.072 74.8995C285.223 76.1494 285.937 82.8005 284.687 87.8447C283.437 92.8889 280.67 96.6386 276.831 91.639Z" fill="#EEA886"/>
<path d="M234.96 126.158L225.362 141.335L201.034 172.136L186.482 227.398V257.931L226.835 259.628L286.562 167.047L280.804 134.55L275.224 119.283L249.69 135.71H244.378L234.96 126.158Z" fill="#FEFEFE"/>
<path d="M269.11 146.33C272.948 146.24 279.153 145.481 282.635 144.99L280.76 134.545C270.27 141.553 259.825 145.303 259.825 145.303C259.825 145.303 263.574 146.419 269.11 146.33Z" fill="#9ABCE3"/>
<path d="M243.129 143.152C243.129 143.152 236.344 153.464 228.219 168.016C220.095 182.568 208.534 206.004 205.498 221.27C202.463 236.537 198.043 247.072 198.043 247.072L230.63 242.652C230.63 242.652 236.076 203.281 240.45 184.309C244.87 165.293 247.012 158.954 248.575 152.526C250.137 146.098 251.164 143.152 251.164 143.152H243.129Z" fill="#00428E"/>
<g style="mix-blend-mode:multiply">
<path d="M186.482 249.977L190.321 255.423L235.094 246.897L263.484 202.883C255.895 198.777 241.745 190.34 238.174 182.305C233.219 171.234 232.505 149.049 232.505 149.049L228.13 137.041L225.407 141.371L201.079 172.127L186.482 227.435V250.022V249.977Z" fill="#9ABCE3"/>
</g>
<path d="M156.619 421.122L179.876 792.963H190.813V798.9H166.217C166.217 798.9 160.101 801.801 158.941 807.738C157.735 813.675 158.941 821.309 158.941 821.309H225.676V799.748H221.435V792.784H227.863L226.167 488.615H231.925L264.065 789.57H271.698V799.078H249.334C249.334 799.078 241.21 801.355 240.496 806.533C239.782 811.711 240.496 821.309 240.496 821.309H299.508V800.909H295.446V789.838H299.508V377.063C299.508 377.063 210.498 377.42 197.285 377.063C184.072 376.706 167.422 377.063 167.422 377.063L156.575 421.166L156.619 421.122Z" fill="#2F589B"/>
<path d="M181.213 379.918C181.213 379.918 192.909 382.462 207.863 382.641C222.817 382.82 228.575 382.641 228.575 382.641L216.523 318.361L209.247 309.701L190.096 314.299L181.258 379.963L181.213 379.918Z" fill="#00428E"/>
<path d="M280.804 134.545C280.804 134.545 306.65 159.186 328.612 173.291C345.977 184.496 308.034 283.862 303.034 317.787C298.079 351.713 312.096 426.527 312.096 426.527C312.096 426.527 274.465 427.197 255.003 428.09C235.54 428.983 227.416 425.813 227.416 425.813C227.416 425.813 214.739 371.979 211.123 354.346C207.507 336.714 205.677 315.421 205.677 315.421H199.785C199.785 315.421 196.615 364.256 193.446 382.826C190.277 401.351 185.322 433.491 185.322 433.491C185.322 433.491 175.367 431.929 168.582 432.152C161.797 432.375 141.71 433.491 141.71 433.491C141.71 433.491 146.307 389.388 149.03 369.033C151.753 348.677 155.324 304.842 155.324 304.842C155.324 304.842 137.156 305.913 125.372 301.539C114.257 297.432 98.9456 290.111 100.062 277.657C101.178 265.203 118.453 236.946 132.246 218.868C146.04 200.789 154.521 169.095 166.529 160.703C187.866 156.329 228.086 136.955 228.086 136.955C228.086 136.955 206.57 176.327 201.615 193.066C196.66 209.806 194.16 242.169 194.16 242.169H213.176C213.176 242.169 243.486 206.413 260.895 176.371C278.304 146.285 280.804 134.545 280.804 134.545Z" fill="url(#paint1_linear_306_841)"/>
<path d="M244.377 135.697L243.127 143.152H251.162L249.689 135.697H244.377Z" fill="#002D61"/>
<path d="M181.215 245.206C181.215 245.206 162.377 256.053 153.047 255.383C143.718 254.714 140.682 248.955 142.022 243.331C143.361 237.751 155.949 238.599 163.716 239.269C171.483 239.938 181.17 245.206 181.17 245.206H181.215Z" fill="#EEA886"/>
<path d="M231.209 238.333C231.209 238.333 262.591 229.36 265.983 230.878C269.376 232.396 271.429 255.965 271.072 257.527C270.715 259.09 232.906 260.072 232.906 260.072L231.209 238.377V238.333Z" fill="#EEA886"/>
<path d="M777.142 67.4062C777.142 67.4062 747.725 86.7349 744.868 104.903C742.056 123.071 772.812 142.489 774.508 148.247C776.16 154.05 776.785 163.023 776.785 163.023L794.908 162.71L804.327 136.775L787.364 114.009L777.142 67.4062Z" fill="#21191E"/>
<path d="M843.921 31.1221C827.539 28.7116 794.908 32.6398 780.489 51.4774C766.026 70.315 764.643 105.267 771.071 115.668C777.499 126.069 788.39 128.39 788.39 128.39L831.869 45.2279L843.921 31.1221Z" fill="#55404E"/>
<path d="M750.357 189.449C751.027 214.492 760.044 259.577 768.927 279.129C777.81 298.68 789.416 311.67 789.416 311.67L805.085 285.869L750.402 189.449H750.357Z" fill="#29B7EE"/>
<path d="M775.402 767.045C775.402 767.045 769.063 794.006 767.367 801.595C765.67 809.184 767.724 821.058 767.724 821.058H793.57L791.963 775.124L775.446 767L775.402 767.045Z" fill="#000C1C"/>
<path d="M785.755 778.607V821.058H821.243C821.243 821.058 816.333 798.248 813.699 791.061C811.065 783.874 804.592 770.215 804.592 770.215L785.755 778.607Z" fill="#00143E"/>
<path d="M844.633 527.6C844.633 527.6 842.848 554.249 839.634 574.247C838.205 583.086 833.741 597.683 830.706 614.02C827.671 630.358 826.108 648.392 822.894 657.365C816.466 675.309 791.201 777.443 791.201 777.443C791.201 777.443 783.567 781.728 777.273 776.818C770.131 771.238 785.353 671.872 790.531 661.962C795.754 652.008 799.236 594.647 799.236 594.647L815.082 528.135L844.633 527.644V527.6Z" fill="#E19B79"/>
<path d="M773.527 532.417C773.527 532.417 774.018 547.862 773.928 555.227C773.839 562.637 776.875 583.618 776.741 588.751C776.607 593.885 765.045 605.535 765.581 623.971C766.117 642.407 779.508 716.418 782.142 733.158C784.776 749.897 785.177 773.065 785.758 778.6C786.338 784.135 790.132 790.117 797.364 789.983C804.595 789.849 806.47 781.769 804.595 770.208C802.721 758.647 797.944 745.657 796.293 736.283C794.641 726.908 793.346 668.833 795.757 652.004C798.167 635.176 802.319 627.721 803.435 614.597C804.551 601.473 814.237 579.154 819.594 558.932C824.951 538.711 824.594 527.953 824.594 527.953L773.527 532.417Z" fill="#EEA886"/>
<path d="M779.598 340.688C779.598 340.688 762.769 377.247 761.966 408.137C761.162 439.027 773.527 532.411 773.527 532.411L851.422 531.072C851.422 531.072 863.073 478.934 869.501 438.089C875.973 397.245 874.232 347.562 874.232 347.562L779.643 340.688H779.598Z" fill="#2F589B"/>
<path d="M799.772 132.185C799.772 132.185 775.757 129.685 775.846 106.874C775.891 84.0194 797.049 63.9765 810.709 51.2098C824.368 38.4431 834.055 30.0064 843.92 31.167C853.785 32.3276 862.936 42.6838 864.008 54.5577C865.124 66.387 862.222 80.0912 863.16 83.6623C864.097 87.2334 878.649 100.179 876.953 117.677C875.257 135.175 856.33 142.452 850.348 144.996C844.367 147.54 838.697 148.121 838.697 148.121L799.772 132.229V132.185Z" fill="#21191E"/>
<path d="M799.773 132.177L799.416 112.357C799.416 112.357 808.344 119.41 817.093 122.981C825.887 126.508 833.743 127.222 833.743 127.222L835.484 166.37L828.03 167.665L801.916 144.899L799.773 132.177Z" fill="#EEA886"/>
<path d="M799.775 132.178C799.775 132.178 796.873 145.302 793.927 150.747C790.981 156.149 785.267 160.166 785.267 160.166C785.267 160.166 773.349 157.666 765.314 158.515C757.279 159.318 746.833 163.961 751.476 199.716C756.118 235.472 779.509 267.076 783.392 272.835C787.276 278.593 793.927 286.762 793.927 286.762C793.927 286.762 782.723 311.135 778.795 318.813C774.911 326.491 771.518 338.186 773.616 341.98C775.714 345.73 815.488 356.934 840.575 355.818C865.617 354.702 874.232 347.649 874.232 347.649C874.232 347.649 874.456 321.67 873.518 306.716C872.581 291.717 870.349 279.888 870.349 279.888C870.349 279.888 879.678 276.272 881.151 245.337C882.624 214.402 878.116 184.941 872.893 176.326C867.715 167.666 851.69 159.363 851.69 159.363L833.209 137.981L833.611 162.264H826.826C826.826 162.264 818.389 152.578 814.416 148.069C806.024 138.606 799.73 132.267 799.73 132.267L799.775 132.178Z" fill="#17A9E1"/>
<path d="M826.868 162.187L827.047 173.168L839.144 172.99L833.609 162.143L826.868 162.187Z" fill="#00428E"/>
<path d="M827.048 173.167C827.048 173.167 833.878 208.119 833.967 224.591C834.101 241.062 834.324 252.892 831.601 261.909C830.307 266.194 827.271 274.408 827.271 274.408L850.617 323.019C850.617 323.019 860.215 296.325 861.732 286.237C863.25 276.149 861.331 263.427 861.331 263.427C861.331 263.427 857.224 240.661 851.51 218.609C845.752 196.558 839.145 172.988 839.145 172.988L827.048 173.211V173.167Z" fill="#00428E"/>
<path d="M798.078 100.633C798.078 100.633 797.988 114.739 800.488 117.506C802.988 120.274 823.7 132.103 839.19 127.907C854.68 123.711 857.938 112.909 857.67 103.624C857.403 94.3389 852.135 74.1622 850.35 67.9128C848.564 61.6633 845.261 52.557 842.582 52.6909C839.904 52.8695 827.271 73.0016 816.469 83.9381C805.666 94.8746 798.078 100.588 798.078 100.588V100.633Z" fill="#F79862"/>
<path d="M798.078 100.633C798.078 100.633 797.988 114.739 800.488 117.506C802.988 120.274 823.7 132.103 839.19 127.907C854.68 123.711 857.938 112.909 857.67 103.624C857.403 94.3389 852.135 74.1622 850.35 67.9128C848.564 61.6633 845.261 52.557 842.582 52.6909C839.904 52.8695 827.271 73.0016 816.469 83.9381C805.666 94.8746 798.078 100.588 798.078 100.588V100.633Z" fill="#EEA886"/>
<path d="M794.775 172.138C799.997 178.253 808.613 191.511 808.613 191.511C808.613 191.511 800.042 176.334 794.998 169.281C791.65 164.638 788.257 161.156 786.338 159.326C785.668 159.862 785.222 160.174 785.222 160.174C785.222 160.174 784.106 159.951 782.32 159.639C784.552 161.647 790.623 167.183 794.775 172.093V172.138Z" fill="url(#paint2_linear_306_841)"/>
<path d="M850.349 67.944C848.564 61.6946 845.26 52.5882 842.582 52.7222C841.422 52.8114 838.297 56.7397 834.279 62.0517C836.243 69.8188 839.948 85.1299 841.868 96.7807C843.653 107.583 842.27 120.082 841.109 127.269C854.902 122.716 857.938 112.494 857.67 103.61C857.402 94.3256 852.135 74.1488 850.349 67.8994V67.944Z" fill="#EEA886"/>
<path d="M592.336 92.4986L590.505 104.015L604.924 127.004L620.324 133.79L634.966 129.861L645.857 118.478L654.026 102.542L650.902 79.6426L592.336 92.4986Z" fill="#EEA886"/>
<path d="M590.508 104.024L584.883 112.416C584.883 112.416 579.348 147.591 578.277 166.92C577.161 186.293 584.392 361.233 584.392 361.233H655.859L661.394 126.343L655.725 112.416L654.029 102.551L625.996 128.352H616.934L590.508 104.024Z" fill="#FEFEFE"/>
<path d="M661.392 126.291C661.392 126.291 651.393 140.442 647.732 143.834C644.027 147.182 639.162 148.834 639.162 148.834C652.285 181.643 644.875 358.502 644.875 358.502L666.882 353.413L661.392 126.336V126.291Z" fill="#9ABCE3"/>
<path d="M582.65 129.682C582.65 129.682 586.667 134.279 590.506 138.297C594.39 142.314 605.237 148.832 605.237 148.832C605.237 148.832 585.105 145.484 582.65 142.448C580.195 139.413 582.65 129.682 582.65 129.682Z" fill="#9ABCE3"/>
<path d="M612.245 153.662C612.245 153.662 603.183 288.337 603.139 296.774C603.005 328.423 607.29 359.492 607.29 359.492H633.047C633.047 359.492 639.207 323.022 639.162 296.774C639.162 281.82 628.404 153.662 628.404 153.662H612.2H612.245Z" fill="#17A9E1"/>
<path d="M586.219 56.1648C586.219 56.1648 580.282 22.6857 581.22 20.3199C582.157 17.954 583.987 3 622.064 3C660.141 3 662.641 21.168 662.819 21.7037C662.998 22.1947 659.605 58.8878 659.605 58.8878L644.473 48.7102L638.536 33.7561L614.252 41.0769L600.682 36.3006L586.264 56.1648H586.219Z" fill="#261203"/>
<path d="M659.653 58.6626C659.876 56.1628 662.42 28.6653 662.822 22.773C655.591 17.5949 643.984 17.1485 636.53 17.5949C627.691 18.0859 599.658 22.3712 592.382 21.3446C588.097 20.7642 585.374 17.3717 583.856 14.6934C581.981 17.2824 581.579 19.5144 581.267 20.3179C580.329 22.6837 586.266 56.1628 586.266 56.1628L600.685 36.2986L614.255 41.0749L638.539 33.7541L644.475 48.7082L659.474 58.7965L659.608 58.6626H659.653Z" fill="#261203"/>
<path d="M610.238 39.6465L605.015 20.9428C599.48 21.4338 594.792 21.657 592.382 21.3446C588.097 20.7642 585.374 17.3717 583.856 14.6934C581.981 17.2824 581.579 19.5144 581.267 20.3179C580.329 22.6837 586.266 56.1628 586.266 56.1628L600.685 36.2986L610.238 39.6465Z" fill="#4D2506"/>
<path d="M540.376 353.373C540.376 353.373 570.909 357.435 615.057 357.792C659.205 358.149 701.88 353.373 701.88 353.373L694.559 795.03L691.925 795.119L691.747 798.333L694.514 798.556C694.514 798.556 713.62 799.672 718.798 808.198C723.931 816.679 723.574 823.152 723.574 823.152H655.544C655.544 823.152 641.796 622.188 638.85 557.64C635.903 493.093 630.502 450.284 620.949 450.641C611.397 450.998 599.121 534.785 592.514 629.241C585.908 723.697 574.614 823.197 574.614 823.197H511.361C511.361 823.197 508.683 811.1 514.039 804.493C519.441 797.931 536.582 797.262 536.582 797.262L542.831 796.86L543.099 791.012L536.627 790.923L540.376 353.418V353.373Z" fill="#2F589B"/>
<path d="M540.152 382.252L536.67 790.876L543.143 790.965C543.143 790.965 545.375 586.966 547.383 534.605C549.392 482.243 549.08 378.904 549.08 378.904L540.152 382.252Z" fill="#112B53"/>
<path d="M727.862 141.875C700.409 138.706 710.72 252.133 710.72 252.133C710.72 252.133 709.47 271.685 708.756 289.273C708.488 295.924 708.265 302.218 708.265 307.173C708.176 318.422 710.006 358.24 711.435 369.667C712.238 376.541 712.952 381.273 712.952 381.273C712.952 381.273 711.97 381.362 710.185 381.541C708.488 381.72 706.078 381.943 703.221 382.255C695.677 382.969 684.964 383.996 675.411 384.889C658.493 386.496 646.976 385.559 646.976 385.559C646.976 385.559 654.118 226.332 654.832 187.585C655.547 148.839 655.815 112.324 655.815 112.324C655.815 112.324 668.894 122.413 689.785 128.305C710.631 134.197 724.246 137.992 727.906 141.83L727.862 141.875Z" fill="#00122B"/>
<path d="M727.862 141.875C700.409 138.706 710.72 252.133 710.72 252.133C710.72 252.133 709.47 271.685 708.756 289.273C708.488 295.924 708.265 302.218 708.265 307.173C708.176 318.422 710.006 358.24 711.435 369.667C712.238 376.541 712.952 381.273 712.952 381.273C712.952 381.273 711.97 381.362 710.185 381.541C708.488 381.72 706.078 381.943 703.221 382.255C695.677 382.969 684.964 383.996 675.411 384.889C658.493 386.496 646.976 385.559 646.976 385.559C646.976 385.559 654.118 226.332 654.832 187.585C655.547 148.839 655.815 112.324 655.815 112.324C655.815 112.324 668.894 122.413 689.785 128.305C710.631 134.197 724.246 137.992 727.906 141.83L727.862 141.875Z" fill="url(#paint3_linear_306_841)"/>
<path d="M714.068 384.885L697.954 401.268L687.553 378.903L699.65 366.762L714.068 384.885Z" fill="#EEA886"/>
<path d="M760.713 293.605C760.936 307.175 750.401 334.36 745.625 343.556C740.848 352.707 715.583 394.444 715.583 394.444L694.915 369.67C694.915 369.67 720.493 330.03 719.511 306.863C718.931 292.936 710.673 252.18 710.673 252.18C710.673 252.18 700.361 138.708 727.814 141.922C731.474 145.761 737.634 202.587 741.563 223.879C745.491 245.172 760.445 280.035 760.668 293.65L760.713 293.605Z" fill="#00122B"/>
<path d="M652.287 259.802C660.188 237.75 669.696 211.502 672.954 199.182C683.936 157.266 678.356 148.606 672.954 141.821C668.892 136.688 677.24 129.099 681.57 125.707C665.544 119.859 655.813 112.404 655.813 112.404C655.813 112.404 655.59 148.919 654.831 187.665C654.563 201.102 653.536 229.046 652.331 259.846L652.287 259.802Z" fill="url(#paint4_linear_306_841)"/>
<path d="M512.792 141.875C540.245 138.706 529.933 252.133 529.933 252.133C529.933 252.133 531.183 271.685 531.897 289.273C532.165 295.924 532.388 302.218 532.388 307.173C532.477 318.422 530.647 358.24 529.219 369.667C528.415 376.541 527.701 381.273 527.701 381.273C527.701 381.273 528.683 381.362 530.469 381.541C532.165 381.72 534.575 381.943 537.432 382.255C544.976 382.969 555.69 383.996 565.242 384.889C582.16 386.496 593.677 385.559 593.677 385.559C593.677 385.559 586.535 226.332 585.821 187.585C585.107 148.839 584.839 112.324 584.839 112.324C584.839 112.324 572.831 117.636 550.378 127.546C530.736 136.206 516.407 137.947 512.747 141.83L512.792 141.875Z" fill="url(#paint5_linear_306_841)"/>
<path d="M525.692 384.885L541.852 401.268L552.208 378.903L540.111 366.762L525.692 384.885Z" fill="#EEA886"/>
<path d="M479.936 293.605C479.713 307.175 490.248 334.36 495.024 343.556C499.8 352.707 521.807 391.543 521.807 391.543L545.778 372.08C545.778 372.08 520.2 330.075 521.182 306.863C521.763 292.936 530.021 252.18 530.021 252.18C530.021 252.18 540.332 138.708 512.88 141.922C509.219 145.761 503.059 202.587 499.131 223.879C495.203 245.172 480.249 280.035 480.025 293.65L479.936 293.605Z" fill="#00122B"/>
<path d="M557.519 124.457C560.688 126.733 572.384 135.884 567.697 141.821C562.295 148.606 556.716 157.266 567.697 199.182C571.58 214.002 581.579 242.437 588.498 263.016C587.204 231.01 586.132 201.548 585.865 187.665C585.15 148.963 584.883 112.404 584.883 112.404C584.883 112.404 578.098 115.975 567.473 120.127C564.527 121.421 561.224 122.894 557.519 124.501V124.457Z" fill="url(#paint6_linear_306_841)"/>
<path d="M612.245 153.648L616.932 128.338H626.038L628.404 153.648H612.245Z" fill="#17A9E1"/>
<path d="M620.325 114.243C605.281 114.243 594.747 99.9585 592.381 92.5038C590.015 85.0491 588.453 72.461 588.453 72.461C588.453 72.461 580.105 64.8277 581.4 57.8641C582.694 50.9004 590.327 52.1057 590.327 52.1057L589.479 30.188C589.479 30.188 603.317 37.1517 617.378 37.1517C631.44 37.1517 637.912 27.465 643.001 27.8221C648.09 28.1792 651.84 36.4821 652.018 42.2405C652.197 47.9989 652.018 52.2396 652.018 52.2396C652.018 52.2396 657.955 51.7932 660.009 55.9892C663.758 63.6671 652.866 76.0321 652.866 76.0321C652.866 76.0321 651.706 85.8973 649.384 92.8609C647.063 99.8246 636.35 114.243 620.369 114.243H620.325Z" fill="#EEA886"/>
<path d="M422.354 731.515L427.353 785.216C427.353 785.216 421.907 773.699 417.22 763.968C412.533 754.236 410.971 743.568 410.971 743.568L422.398 731.471L422.354 731.515Z" fill="#E19B79"/>
<path d="M456.455 408.555C454.224 374.986 442.573 310.082 442.573 310.082C442.573 310.082 404.54 312.313 385.256 312.76C366.017 313.206 349.456 304.457 349.456 304.457C349.456 304.457 337.359 352.801 334.011 387.039C330.663 421.277 341.734 509.26 341.734 509.26C341.734 509.26 352.581 573.272 365.571 620.277C376.909 661.255 404.496 727.276 404.496 727.276H428.199C428.199 727.276 442.796 680.896 446.992 647.596C456.589 571.933 457.705 523.143 456.366 509.26C456.366 509.26 458.598 442.123 456.366 408.555H456.455Z" fill="#2F589B"/>
<path d="M343.703 329.629C356.693 332.754 379.682 337.575 399.903 338.021C419.277 338.468 436.686 336.057 446.685 334.272C444.364 320.076 442.578 310.033 442.578 310.033C442.578 310.033 404.546 312.265 385.262 312.711C366.023 313.157 349.462 304.408 349.462 304.408C349.462 304.408 346.828 314.898 343.703 329.585V329.629Z" fill="#17A9E1"/>
<path d="M401.821 338.063L396.911 314.182L376.957 316.681L379.1 336.278C386.019 337.171 393.116 337.84 399.901 337.974C400.526 337.974 401.196 337.974 401.821 337.974V338.063Z" fill="#002D61"/>
<path d="M404.545 727.264C404.545 727.264 404.902 750.297 399.501 764.76C394.144 779.179 379.681 806.051 381.378 808.06C383.074 810.069 395.707 815.782 404.144 796.989C412.58 778.197 428.248 727.264 428.248 727.264H404.545Z" fill="#FD995F"/>
<path d="M381.373 808.058C381.373 808.058 375.437 812.968 375.437 815.647C375.437 818.325 378.383 821.137 378.383 821.137H407.309C407.309 821.137 411.683 799.889 414.897 800.113C418.156 800.336 419.049 821.137 419.049 821.137H429.583C429.583 821.137 430.253 802.211 429.583 792.836C428.914 783.462 426.102 778.998 426.102 778.998L417.62 760.25C417.62 760.25 411.326 781.052 403.738 792.613C396.149 804.13 381.373 808.058 381.373 808.058Z" fill="url(#paint7_linear_306_841)"/>
<path d="M398.069 178.265C398.069 178.265 374.588 173.577 366.509 150.276C358.429 127.019 362.938 101.709 368.294 92.0669C373.651 82.4249 395.301 72.4705 405.97 71.4884C416.638 70.4617 425.075 69.1226 430.61 78.5413C436.145 87.9601 444.359 111.44 448.376 119.341C452.394 127.242 456.278 138.491 455.429 149.071C454.581 159.65 433.199 182.996 433.199 182.996L420.79 196.834L417.977 175.765L398.069 178.265Z" fill="#543333"/>
<path d="M423.245 194.052L428.512 188.204L433.199 182.982C433.199 182.982 438.913 176.732 444.537 169.278C445.966 157.091 445.252 138.387 438.958 125.933C430.208 108.658 411.148 108.658 411.148 108.658C411.148 108.658 391.953 112.14 382.043 107.631C374.901 104.373 373.651 89.7758 379.99 81.5176C374.722 84.7762 370.348 88.4812 368.294 92.1416C362.938 101.784 358.429 127.049 366.509 150.351C374.588 173.652 398.069 178.339 398.069 178.339L417.977 175.839L420.254 192.847L423.245 194.141V194.052Z" fill="#170E0E"/>
<path d="M372.803 161.97C367.536 154.024 364.188 142.865 364.723 126.036C365.259 110.189 371.151 96.2171 376.463 89.5213C377.088 86.6198 378.249 83.7629 379.99 81.4863C374.722 84.745 370.348 88.45 368.294 92.1104C362.938 101.752 358.429 127.018 366.509 150.319C368.116 154.917 370.303 158.756 372.803 162.015V161.97Z" fill="#543333"/>
<path d="M394.767 166.165L393.338 191.252L389.41 225.267L426.951 191.163V156.434C426.951 156.434 413.069 169.2 405.927 169.87C398.784 170.539 394.722 166.165 394.722 166.165H394.767Z" fill="#EEA886"/>
<path d="M393.337 191.246C393.337 191.246 355.528 209.816 352.582 217.896C349.636 225.975 320.576 281.328 319.907 292.086C319.237 302.844 339.726 313.914 360.885 318.289C382.044 322.663 434.405 316.949 447.841 313.914C461.278 310.879 474.357 296.46 477.392 280.346C480.428 264.231 482.079 214.191 474.357 208.834C466.634 203.478 436.101 193.077 436.101 193.077L433.2 182.988C433.2 182.988 423.915 193.389 415.3 200.888C406.684 208.388 394.052 216.11 394.052 216.11L393.382 191.246H393.337Z" fill="#17A9E1"/>
<path d="M398.964 107.765C388.92 107.05 384.635 100.845 378.385 105.756C372.136 110.666 371.02 127.673 372.136 138.655C373.252 149.636 382.135 173.116 402.356 173.339C422.578 173.562 428.559 165.036 430.345 149.413C432.131 133.789 425.881 114.728 419.587 111.38C413.293 108.032 408.606 108.479 399.009 107.809L398.964 107.765Z" fill="#EEA886"/>
<path d="M394.007 216.066C394.007 216.066 380.794 242.269 377.446 252.759C374.098 263.294 375.437 285.658 375.437 285.658H394.007C394.007 285.658 392.534 264.499 392.534 252.849C392.534 241.198 394.007 216.021 394.007 216.021V216.066Z" fill="#00428E"/>
<path d="M411.595 285.708C411.595 285.708 430.209 296.466 439.449 295.796C448.69 295.127 451.725 289.413 450.341 283.878C449.002 278.343 436.592 279.191 428.87 279.86C421.147 280.53 411.595 285.753 411.595 285.753V285.708Z" fill="#EEA886"/>
<path d="M412.624 219.327C412.624 219.327 425.703 213.078 431.417 207.454C435.256 203.659 438.291 197.767 439.853 194.33C437.532 193.526 436.104 193.035 436.104 193.035C436.104 193.035 431.283 201.338 424.899 208.346C418.516 215.399 412.579 219.327 412.579 219.327H412.624Z" fill="url(#paint8_linear_306_841)"/>
<path d="M381.509 197.354C380.259 198.023 378.964 198.737 377.625 199.496L379.143 222.217L381.509 197.354Z" fill="url(#paint9_linear_306_841)"/>
<path d="M419.54 111.34C413.291 107.992 408.559 108.438 398.962 107.769C396.774 107.635 394.9 107.188 393.203 106.697C392.534 112.724 392.4 122.366 394.81 136.471C397.667 153.211 402.22 166.067 405.211 173.298C423.111 172.673 428.602 164.281 430.298 149.417C432.084 133.748 425.834 114.732 419.54 111.384V111.34Z" fill="#EEA886"/>
<path d="M651.975 52.2415C651.975 52.2415 652.154 48.0008 651.975 42.2424C651.797 36.484 648.047 28.1366 642.958 27.8241C637.87 27.467 631.397 37.1536 617.336 37.1536C617.157 37.1536 617.023 37.1536 616.845 37.1536L620.55 114.245C636.397 114.111 647.021 99.7819 649.297 92.8629C651.618 85.8992 652.779 76.034 652.779 76.034C652.779 76.034 663.671 63.7137 659.921 55.9912C657.912 51.8398 651.931 52.2415 651.931 52.2415H651.975Z" fill="#EEA886"/>
<path d="M281.071 74.9215C276.92 73.6717 272.099 76.7071 272.099 76.7071C272.099 76.7071 270.67 70.7701 267.59 67.7347C264.51 64.6993 258.796 60.1907 252.145 53.1824C248.931 49.7899 241.253 47.6919 233.754 46.5312C232.727 54.477 231.076 70.413 231.567 86.7062C232.013 102.732 235.852 116.034 238.129 122.685C241.075 121.524 245.048 119.65 251.029 116.659C266.072 109.115 276.875 91.6611 276.875 91.6611C280.714 96.7053 283.482 92.911 284.731 87.8668C285.981 82.8226 285.267 76.1714 281.116 74.9215H281.071Z" fill="#EEA886"/>
<defs>
<linearGradient id="paint0_linear_306_841" x1="922.754" y1="290.429" x2="1092.02" y2="290.429" gradientUnits="userSpaceOnUse">
<stop stop-color="#001536"/>
<stop offset="0.46" stop-color="#001638"/>
<stop offset="0.8" stop-color="#001942"/>
<stop offset="1" stop-color="#001D4C"/>
</linearGradient>
<linearGradient id="paint1_linear_306_841" x1="216.569" y1="431.304" x2="216.569" y2="140.705" gradientUnits="userSpaceOnUse">
<stop stop-color="#001536"/>
<stop offset="0.46" stop-color="#001638"/>
<stop offset="0.8" stop-color="#001942"/>
<stop offset="1" stop-color="#001D4C"/>
</linearGradient>
<linearGradient id="paint2_linear_306_841" x1="809.505" y1="200.84" x2="793.748" y2="172.495" gradientUnits="userSpaceOnUse">
<stop stop-color="#EAEAEB"/>
<stop offset="0.35" stop-color="#E5E5E6"/>
<stop offset="0.74" stop-color="#D8D8D9"/>
<stop offset="1" stop-color="#CBCBCC"/>
</linearGradient>
<linearGradient id="paint3_linear_306_841" x1="687.374" y1="374.443" x2="687.374" y2="113.262" gradientUnits="userSpaceOnUse">
<stop stop-color="#00122B"/>
<stop offset="0.49" stop-color="#00132C"/>
<stop offset="0.66" stop-color="#031733"/>
<stop offset="0.79" stop-color="#081E3F"/>
<stop offset="0.89" stop-color="#102950"/>
<stop offset="0.97" stop-color="#193766"/>
<stop offset="1" stop-color="#1D3C6E"/>
</linearGradient>
<linearGradient id="paint4_linear_306_841" x1="671.972" y1="253.731" x2="659.964" y2="109.637" gradientUnits="userSpaceOnUse">
<stop stop-color="#142C55"/>
<stop offset="0.44" stop-color="#152D57"/>
<stop offset="0.76" stop-color="#183361"/>
<stop offset="1" stop-color="#1D3C6E"/>
</linearGradient>
<linearGradient id="paint5_linear_306_841" x1="553.279" y1="-178.9" x2="553.279" y2="-178.9" gradientUnits="userSpaceOnUse">
<stop stop-color="#00122B"/>
<stop offset="0.49" stop-color="#00132C"/>
<stop offset="0.66" stop-color="#031733"/>
<stop offset="0.79" stop-color="#081E3F"/>
<stop offset="0.89" stop-color="#102950"/>
<stop offset="0.97" stop-color="#193766"/>
<stop offset="1" stop-color="#1D3C6E"/>
</linearGradient>
<linearGradient id="paint6_linear_306_841" x1="583.276" y1="263.417" x2="571" y2="116.199" gradientUnits="userSpaceOnUse">
<stop stop-color="#142C55"/>
<stop offset="0.44" stop-color="#152D57"/>
<stop offset="0.76" stop-color="#183361"/>
<stop offset="1" stop-color="#1D3C6E"/>
</linearGradient>
<linearGradient id="paint7_linear_306_841" x1="402.666" y1="818.593" x2="402.666" y2="760.473" gradientUnits="userSpaceOnUse">
<stop stop-color="#00122B"/>
<stop offset="0.49" stop-color="#00132C"/>
<stop offset="0.66" stop-color="#031733"/>
<stop offset="0.79" stop-color="#081E3F"/>
<stop offset="0.89" stop-color="#102950"/>
<stop offset="0.97" stop-color="#193766"/>
<stop offset="1" stop-color="#1D3C6E"/>
</linearGradient>
<linearGradient id="paint8_linear_306_841" x1="426.908" y1="221.604" x2="425.971" y2="201.115" gradientUnits="userSpaceOnUse">
<stop stop-color="#EAEAEB"/>
<stop offset="0.35" stop-color="#E5E5E6"/>
<stop offset="0.74" stop-color="#D8D8D9"/>
<stop offset="1" stop-color="#CBCBCC"/>
</linearGradient>
<linearGradient id="paint9_linear_306_841" x1="381.776" y1="220.744" x2="378.741" y2="197.577" gradientUnits="userSpaceOnUse">
<stop stop-color="#EAEAEB"/>
<stop offset="0.35" stop-color="#E5E5E6"/>
<stop offset="0.74" stop-color="#D8D8D9"/>
<stop offset="1" stop-color="#CBCBCC"/>
</linearGradient>
</defs>
</svg>
