<svg width="1200" height="959" viewBox="0 0 1200 959" fill="none" xmlns="http://www.w3.org/2000/svg">
<rect width="1200" height="959" fill="white"/>
<g style="mix-blend-mode:multiply" opacity="0.2">
<path d="M900.08 936.661C899.812 939.942 818.444 941.526 773.697 941.839C721.609 942.218 714.758 940.946 666.173 941.504C612.589 942.129 608.684 951.457 566.437 952.439C512.697 953.667 498.972 951.524 395.754 948.623C278.7 945.32 217.819 938.536 217.685 936.661C217.551 934.519 287.158 931.417 349.758 930.167C455.453 928.069 463.108 932.845 558.871 932.287C673.582 931.64 732.477 924.387 848.505 931.305C862.81 932.153 900.237 934.429 900.058 936.661H900.08Z" fill="#9DBAB0"/>
</g>
<path d="M299.969 206.149L432.846 369.088L325.009 196.285L299.969 206.149Z" fill="#E4E4E4"/>
<mask id="mask0_306_3438" style="mask-type:luminance" maskUnits="userSpaceOnUse" x="299" y="196" width="134" height="174">
<path d="M299.969 206.151L432.846 369.09L325.009 196.287L299.969 206.151Z" fill="white"/>
</mask>
<g mask="url(#mask0_306_3438)">
<path d="M445.5 259.555H326.504V337.933H445.5V259.555Z" fill="#E0E0E0"/>
</g>
<path d="M310.592 43.3691H268.836C232.476 43.3691 203 72.8449 203 109.205V150.961C203 187.321 232.476 216.797 268.836 216.797H310.592C346.952 216.797 376.428 187.321 376.428 150.961V109.205C376.428 72.8449 346.952 43.3691 310.592 43.3691Z" fill="#E4E4E4"/>
<path d="M843.997 200.127L698.756 505.137L889.345 204.278L843.997 200.127Z" fill="#E4E4E4"/>
<path d="M410.216 209.52L490.112 391.182L380.512 219.317L410.216 209.52Z" fill="#E4E4E4"/>
<mask id="mask1_306_3438" style="mask-type:luminance" maskUnits="userSpaceOnUse" x="203" y="43" width="174" height="174">
<path d="M310.592 43.3691H268.836C232.476 43.3691 203 72.8449 203 109.205V150.961C203 187.321 232.476 216.797 268.836 216.797H310.592C346.952 216.797 376.428 187.321 376.428 150.961V109.205C376.428 72.8449 346.952 43.3691 310.592 43.3691Z" fill="white"/>
</mask>
<g mask="url(#mask1_306_3438)">
<path d="M386.18 230.831C357.123 230.831 333.489 207.197 333.489 178.14C333.489 149.083 357.123 125.449 386.18 125.449C415.237 125.449 438.871 149.083 438.871 178.14C438.871 207.197 415.237 230.831 386.18 230.831Z" fill="#E0E0E0"/>
</g>
<path d="M386.181 224.988C412.069 224.988 433.047 204.01 433.047 178.122C433.047 152.234 412.069 131.256 386.181 131.256C360.293 131.256 339.314 152.234 339.314 178.122C339.314 204.01 360.293 224.988 386.181 224.988Z" fill="#E4E4E4"/>
<path d="M431.462 257.816H405.061L457.729 340.39H467.772L431.462 257.816Z" fill="#E0E0E0"/>
<path d="M541.353 227.687L621.315 507.814L570.901 219.162L541.353 227.687Z" fill="#E4E4E4"/>
<path d="M727.746 130.07H685.99C649.63 130.07 620.154 159.546 620.154 195.906V237.662C620.154 274.022 649.63 303.498 685.99 303.498H727.746C764.106 303.498 793.582 274.022 793.582 237.662V195.906C793.582 159.546 764.106 130.07 727.746 130.07Z" fill="#E4E4E4"/>
<mask id="mask2_306_3438" style="mask-type:luminance" maskUnits="userSpaceOnUse" x="698" y="200" width="192" height="306">
<path d="M843.997 200.125L698.756 505.135L889.345 204.276L843.997 200.125Z" fill="white"/>
</mask>
<g mask="url(#mask2_306_3438)">
<path d="M884.302 379.868V417.071C884.302 452.645 855.423 481.524 819.849 481.524H782.647C747.073 481.524 718.194 452.645 718.194 417.071V379.868C718.194 344.295 747.073 315.416 782.647 315.416H819.849C855.423 315.416 884.302 344.295 884.302 379.868Z" fill="#E0E0E0"/>
</g>
<path d="M819.828 321.264H782.647C750.268 321.264 724.02 347.512 724.02 379.891V417.072C724.02 449.451 750.268 475.699 782.647 475.699H819.828C852.207 475.699 878.455 449.451 878.455 417.072V379.891C878.455 347.512 852.207 321.264 819.828 321.264Z" fill="#E4E4E4"/>
<path d="M544.499 236.21C512.608 236.21 486.742 210.344 486.742 178.452C486.742 146.561 512.608 120.695 544.499 120.695C576.391 120.695 602.256 146.561 602.256 178.452C602.256 210.344 576.391 236.21 544.499 236.21Z" fill="#E4E4E4"/>
<path d="M517.964 201.5C517.964 186.838 529.837 174.965 544.499 174.965C559.162 174.965 571.034 186.838 571.034 201.5C565.611 203.821 555.769 207.213 543.115 206.968C531.912 206.745 523.164 203.754 517.964 201.5Z" fill="#17A9E1"/>
<path d="M544.499 176.972C536.621 176.972 530.216 170.59 530.216 162.689C530.216 154.811 536.599 148.406 544.499 148.406C552.377 148.406 558.782 154.789 558.782 162.689C558.782 170.567 552.399 176.972 544.499 176.972Z" fill="#17A9E1"/>
<path d="M896.063 391.025C896.063 376.363 907.936 364.49 922.599 364.49C937.261 364.49 949.134 376.363 949.134 391.025C943.711 393.346 933.869 396.739 921.215 396.493C910.012 396.27 901.263 393.28 896.063 391.025Z" fill="#F89939"/>
<path d="M922.598 366.502C914.72 366.502 908.315 360.119 908.315 352.219C908.315 344.341 914.698 337.936 922.598 337.936C930.476 337.936 936.882 344.318 936.882 352.219C936.882 360.097 930.499 366.502 922.598 366.502Z" fill="#F89939"/>
<path d="M809.896 362.385H792.578C777.492 362.385 765.262 374.615 765.262 389.701V407.019C765.262 422.106 777.492 434.336 792.578 434.336H809.896C824.983 434.336 837.213 422.106 837.213 407.019V389.701C837.213 374.615 824.983 362.385 809.896 362.385Z" fill="#17A9E1"/>
<path style="mix-blend-mode:multiply" d="M594.356 546.645H717.212C719.979 546.645 722.234 548.899 722.234 551.666V649.282H589.356V551.666C589.356 548.899 591.61 546.645 594.378 546.645H594.356Z" fill="url(#paint0_linear_306_3438)"/>
<path d="M592.95 546.645H715.807C718.574 546.645 720.828 548.899 720.828 551.666V649.282H587.951V551.666C587.951 548.899 590.205 546.645 592.973 546.645H592.95Z" fill="url(#paint1_linear_306_3438)"/>
<path d="M718.149 642.183V554.342H590.606V642.183H718.149Z" fill="#E4E4E4"/>
<g opacity="0.5">
<path d="M644.101 559.521H631.849V574.965H644.101V559.521Z" fill="#D3D1E8"/>
<path d="M644.101 576.861H631.849V577.91H644.101V576.861Z" fill="#D3D1E8"/>
<path d="M665.548 559.521H653.296V574.965H665.548V559.521Z" fill="#D3D1E8"/>
<path d="M665.548 576.861H653.296V577.91H665.548V576.861Z" fill="#D3D1E8"/>
<path d="M686.994 559.521H674.742V574.965H686.994V559.521Z" fill="#D3D1E8"/>
<path d="M686.994 576.861H674.742V577.91H686.994V576.861Z" fill="#D3D1E8"/>
<path d="M708.419 559.521H696.167V574.965H708.419V559.521Z" fill="#D3D1E8"/>
<path d="M708.419 576.861H696.167V577.91H708.419V576.861Z" fill="#D3D1E8"/>
<path d="M644.101 585.451H631.849V600.895H644.101V585.451Z" fill="#D3D1E8"/>
<path d="M644.101 602.77H631.849V603.818H644.101V602.77Z" fill="#D3D1E8"/>
<path d="M665.548 585.451H653.296V600.895H665.548V585.451Z" fill="#D3D1E8"/>
<path d="M665.548 602.77H653.296V603.818H665.548V602.77Z" fill="#D3D1E8"/>
<path d="M686.994 585.451H674.742V600.895H686.994V585.451Z" fill="#D3D1E8"/>
<path d="M686.994 602.77H674.742V603.818H686.994V602.77Z" fill="#D3D1E8"/>
<path d="M708.419 585.451H696.167V600.895H708.419V585.451Z" fill="#D3D1E8"/>
<path d="M708.419 602.77H696.167V603.818H708.419V602.77Z" fill="#D3D1E8"/>
<path d="M644.101 611.367H631.849V626.811H644.101V611.367Z" fill="#D3D1E8"/>
<path d="M644.101 628.707H631.849V629.756H644.101V628.707Z" fill="#D3D1E8"/>
<path d="M665.548 611.367H653.296V626.811H665.548V611.367Z" fill="#D3D1E8"/>
<path d="M665.548 628.707H653.296V629.756H665.548V628.707Z" fill="#D3D1E8"/>
<path d="M686.994 611.367H674.742V626.811H686.994V611.367Z" fill="#D3D1E8"/>
<path d="M686.994 628.707H674.742V629.756H686.994V628.707Z" fill="#D3D1E8"/>
<path d="M708.419 611.367H696.167V626.811H708.419V611.367Z" fill="#D3D1E8"/>
<path d="M708.419 628.707H696.167V629.756H708.419V628.707Z" fill="#D3D1E8"/>
</g>
<path d="M718.149 642.185V637.543H590.606V642.185H718.149Z" fill="#D3D1E8"/>
<path d="M718.149 642.185V637.543H706.477V642.185H718.149Z" fill="#C0BED3"/>
<path d="M515.509 649.104H722.234V659.28H521.802C518.321 659.28 515.509 656.468 515.509 652.987V649.104Z" fill="url(#paint2_linear_306_3438)"/>
<path d="M648.81 649.104H722.211V659.28H655.103C651.622 659.28 648.81 656.468 648.81 652.987V649.104Z" fill="url(#paint3_linear_306_3438)"/>
<path d="M515.933 651.224L541.709 650.934L567.508 650.822L619.083 650.621L670.636 650.822L696.435 650.911L722.211 651.224L696.435 651.514L670.636 651.625L619.083 651.826L567.508 651.625L541.709 651.514L515.933 651.224Z" fill="#0F1944"/>
<path style="mix-blend-mode:multiply" d="M689.361 656.022C687.375 656.022 685.366 656.179 683.38 656.335L681.885 656.446L681.126 656.491C680.769 656.491 680.412 656.379 680.121 656.156C679.831 655.933 679.608 655.621 679.519 655.264C679.43 654.884 679.407 654.639 679.519 654.237C679.72 653.5 680.434 652.965 681.193 652.965C683.179 652.965 685.187 653.099 687.174 653.277L688.669 653.389C689.138 653.434 689.74 653.389 690.164 653.791C691.012 654.527 690.477 656.112 689.361 656.067V656.022ZM689.361 656.022C689.874 656.022 690.32 655.665 690.454 655.174C690.566 654.706 690.454 654.148 690.053 653.88C689.673 653.567 689.182 653.724 688.669 653.746L687.174 653.858C685.187 654.014 683.179 654.17 681.193 654.17C680.947 654.17 680.702 654.326 680.635 654.572C680.568 654.839 680.568 655.197 680.791 655.375C680.903 655.464 681.014 655.554 681.17 655.576L681.907 655.643L683.402 655.755C685.388 655.911 687.397 656.067 689.383 656.067L689.361 656.022Z" fill="url(#paint4_linear_306_3438)"/>
<path style="mix-blend-mode:multiply" d="M702.594 656.022C700.608 656.022 698.599 656.179 696.613 656.335L695.118 656.446L694.359 656.491C694.002 656.491 693.645 656.379 693.355 656.156C693.065 655.933 692.842 655.621 692.752 655.264C692.663 654.884 692.641 654.639 692.752 654.237C692.953 653.5 693.667 652.965 694.426 652.965C696.412 652.965 698.421 653.099 700.407 653.277L701.902 653.389C702.371 653.434 702.974 653.389 703.398 653.791C704.246 654.527 703.71 656.112 702.594 656.067V656.022ZM702.594 656.022C703.108 656.022 703.554 655.665 703.688 655.174C703.799 654.706 703.688 654.148 703.286 653.88C702.907 653.567 702.416 653.724 701.902 653.746L700.407 653.858C698.421 654.014 696.412 654.17 694.426 654.17C694.181 654.17 693.935 654.326 693.868 654.572C693.801 654.839 693.801 655.197 694.024 655.375C694.136 655.464 694.248 655.554 694.404 655.576L695.14 655.643L696.635 655.755C698.622 655.911 700.63 656.067 702.617 656.067L702.594 656.022Z" fill="url(#paint5_linear_306_3438)"/>
<path style="mix-blend-mode:multiply" d="M715.806 656.022C713.82 656.022 711.811 656.179 709.825 656.335L708.33 656.446L707.571 656.491C707.214 656.491 706.857 656.379 706.567 656.156C706.277 655.933 706.053 655.621 705.964 655.264C705.875 654.884 705.853 654.639 705.964 654.237C706.165 653.5 706.879 652.965 707.638 652.965C709.624 652.965 711.633 653.099 713.619 653.277L715.114 653.389C715.583 653.434 716.186 653.389 716.61 653.791C717.458 654.527 716.922 656.112 715.806 656.067V656.022ZM715.806 656.022C716.319 656.022 716.766 655.665 716.9 655.174C717.011 654.706 716.9 654.148 716.498 653.88C716.119 653.567 715.628 653.724 715.114 653.746L713.619 653.858C711.633 654.014 709.624 654.17 707.638 654.17C707.393 654.17 707.147 654.326 707.08 654.572C707.013 654.839 707.013 655.197 707.236 655.375C707.348 655.464 707.459 655.554 707.616 655.576L708.352 655.643L709.847 655.755C711.834 655.911 713.842 656.067 715.828 656.067L715.806 656.022Z" fill="url(#paint6_linear_306_3438)"/>
<path style="mix-blend-mode:multiply" d="M643.364 654.77H596.811C597.614 657.381 599.823 659.278 602.412 659.278H648.966C646.377 659.278 644.168 657.403 643.364 654.77Z" fill="url(#paint7_linear_306_3438)"/>
<path style="mix-blend-mode:multiply" d="M565.433 654.77H518.879C519.682 657.381 521.892 659.278 524.481 659.278H571.034C568.446 659.278 566.236 657.403 565.433 654.77Z" fill="url(#paint8_linear_306_3438)"/>
<path d="M574.092 651.223C574.672 652.361 575.23 653.499 575.721 654.66L575.386 654.414C580.274 654.079 585.161 654.079 590.026 654.414L589.692 654.637C590.25 653.477 590.897 652.339 591.566 651.223C591.209 652.472 590.83 653.722 590.383 654.927C590.339 655.061 590.227 655.128 590.093 655.151H590.049C585.161 655.485 580.274 655.485 575.409 655.151H575.364C575.23 655.151 575.118 655.039 575.074 654.905C574.694 653.7 574.404 652.472 574.114 651.223H574.092Z" fill="#0F1944"/>
<path d="M587.929 649.284C599.11 649.061 610.313 648.905 621.494 648.816L655.059 648.682L688.624 648.816C699.805 648.905 711.009 649.061 722.189 649.284C711.009 649.507 699.805 649.664 688.624 649.753L655.059 649.887L621.494 649.753C610.313 649.664 599.11 649.507 587.929 649.284Z" fill="#0F1944"/>
<path d="M655.729 549.882C655.729 550.596 655.372 551.511 654.367 551.712C653.363 551.913 652.337 550.908 652.403 549.882C652.359 548.833 653.363 547.851 654.367 548.052C655.372 548.253 655.729 549.168 655.729 549.882ZM655.729 549.882C655.773 549.101 654.948 548.453 654.367 548.654C653.787 548.833 653.631 549.413 653.609 549.882C653.609 550.35 653.787 550.931 654.367 551.109C654.948 551.31 655.773 550.663 655.729 549.882Z" fill="#0F1944"/>
<path d="M554.475 641.225C554.475 641.225 557.956 650.643 552.734 650.643C547.512 650.643 553.113 645.108 549.252 641.225C547.891 646.849 550.034 649.951 546.731 650.643C543.428 651.312 544.41 642.207 544.41 642.207C544.41 642.207 545.771 651.915 541.508 650.643C537.246 649.37 541.174 647.049 539.009 642.586" fill="#F6CABB"/>
<path d="M524.793 628.841L455.721 606.323L441.996 573.449C434.341 586.192 423.718 596.146 408.096 599.694C416.242 616.812 429.677 639.486 444.852 642.811C469.691 648.234 528.453 644.552 528.453 644.552L524.77 628.863L524.793 628.841Z" fill="#F6CABB"/>
<path d="M518.388 642.501C518.388 642.501 531.957 650.312 551.44 643.55C556.394 641.162 555.055 650.647 558.827 650.647C565.522 650.647 558.447 634.065 550.346 631.432C542.245 628.82 523.922 625.964 518.388 628.843" fill="#F6CABB"/>
<path d="M539.656 646.113L546.753 644.305C547.914 644.015 549.074 643.636 550.19 643.256C551.306 642.855 552.399 642.386 553.247 641.694L553.314 641.649C553.515 641.493 553.783 641.515 553.939 641.716V641.761C554.921 643.212 555.591 644.952 555.457 646.671C555.077 645.019 554.229 643.569 553.203 642.319L553.917 642.363C552.957 643.368 551.775 643.926 550.614 644.372C549.431 644.818 548.226 645.153 547.021 645.421C544.588 645.912 542.133 646.18 539.656 646.113Z" fill="#0F1944"/>
<path d="M544.253 645.422C544.566 645.734 544.677 646.114 544.789 646.471C544.9 646.85 544.878 647.207 544.856 647.587C544.811 647.944 544.744 648.301 544.566 648.636C544.409 648.97 544.209 649.305 543.874 649.573C543.584 648.769 543.584 648.122 543.651 647.453C543.74 646.783 543.874 646.158 544.253 645.422Z" fill="#0F1944"/>
<path d="M640.24 641.225C640.24 641.225 643.722 650.643 638.5 650.643C633.277 650.643 638.879 645.108 635.018 641.225C633.657 646.849 635.799 649.951 632.496 650.643C629.193 651.312 630.175 642.207 630.175 642.207C630.175 642.207 631.537 651.915 627.274 650.643C623.011 649.37 626.939 647.049 624.774 642.586" fill="#F6CABB"/>
<path d="M315.256 667.826V934.027H324.629L331.614 667.826H315.256Z" fill="#3B2835"/>
<path d="M263.279 667.826V934.027H272.63L279.616 667.826H263.279Z" fill="#3B2835"/>
<path d="M689.383 854.045V934.03H680.01L673.024 854.045H689.383Z" fill="#4A3243"/>
<path d="M741.36 854.045V934.03H732.009L725.023 854.045H741.36Z" fill="#4A3243"/>
<path d="M749.461 664.412H605.916V855.716H749.461V664.412Z" fill="#54394C"/>
<path d="M755.665 659.277H246.184V669.543H755.665V659.277Z" fill="#4A3243"/>
<path d="M698.265 664.412H605.916V855.716H698.265V664.412Z" fill="#4A3243"/>
<path d="M698.243 669.547C698.466 685.057 698.623 700.568 698.712 716.078L698.846 762.61L698.712 809.141C698.623 824.652 698.466 840.162 698.243 855.673C698.02 840.162 697.864 824.652 697.775 809.141L697.641 762.61L697.775 716.078C697.864 700.568 698.02 685.057 698.243 669.547Z" fill="#0F1944"/>
<path d="M689.36 681.664H613.905V766.961H689.36V681.664Z" fill="#4A3243"/>
<path d="M689.382 766.939L651.755 767.207L613.928 767.341C613.704 767.341 613.548 767.163 613.526 766.962L613.303 681.665C613.303 681.33 613.571 681.062 613.905 681.062L689.36 681.263C689.583 681.263 689.784 681.442 689.784 681.687L689.65 724.447L689.36 766.984L689.382 766.939ZM689.382 766.939L689.092 724.179L688.958 681.643L689.382 682.067L613.928 682.268L614.53 681.665L614.307 766.962L613.905 766.56L651.532 766.694L689.36 766.939H689.382Z" fill="#0F1944"/>
<path d="M667.177 686.979H636.134V698.226H667.177V686.979Z" fill="#4A3243"/>
<path d="M667.155 698.227L651.778 698.585C646.6 698.696 641.356 698.785 636.111 698.785C635.799 698.785 635.553 698.54 635.553 698.227L635.486 686.98C635.486 686.645 635.754 686.377 636.089 686.377L651.599 686.466L667.11 686.689C667.266 686.689 667.4 686.823 667.4 687.002L667.088 698.25L667.155 698.227ZM667.155 698.227L666.842 686.98L667.155 687.292L651.644 687.515L636.134 687.604L636.736 687.002L636.669 698.25L636.111 697.692C641.222 697.692 646.333 697.781 651.488 697.893L667.155 698.25V698.227Z" fill="#0F1944"/>
<path d="M689.36 776.979H613.905V845.783H689.36V776.979Z" fill="#4A3243"/>
<path d="M689.382 845.762L651.756 846.008L613.928 846.142C613.705 846.142 613.548 845.963 613.526 845.762L613.325 776.958C613.325 776.623 613.593 776.355 613.905 776.355L689.36 776.556C689.583 776.556 689.762 776.735 689.762 776.958L689.628 811.461L689.36 845.74L689.382 845.762ZM689.382 845.762L689.115 811.26L688.981 776.98L689.382 777.382L613.928 777.583L614.53 776.98L614.33 845.762L613.928 845.361L651.555 845.494L689.382 845.762Z" fill="#0F1944"/>
<path d="M667.177 782.316H636.134V793.564H667.177V782.316Z" fill="#4A3243"/>
<path d="M667.155 793.565L651.778 793.922C646.6 794.034 641.356 794.123 636.111 794.123C635.799 794.123 635.553 793.878 635.553 793.565L635.486 782.317C635.486 781.983 635.754 781.715 636.089 781.715L651.599 781.804L667.11 782.027C667.266 782.027 667.4 782.161 667.4 782.34L667.088 793.588L667.155 793.565ZM667.155 793.565L666.842 782.317L667.155 782.63L651.644 782.853L636.134 782.942L636.736 782.34L636.669 793.588L636.111 793.03C641.222 793.03 646.333 793.119 651.488 793.231L667.155 793.588V793.565Z" fill="#0F1944"/>
<path d="M605.916 669.544C617.878 669.321 629.84 669.165 641.802 669.075L677.688 668.941L713.575 669.075C725.537 669.165 737.499 669.321 749.461 669.544C737.499 669.767 725.537 669.923 713.575 670.013L677.688 670.147L641.802 670.013C629.84 669.923 617.878 669.767 605.916 669.544Z" fill="#0F1944"/>
<path d="M489.174 880.8C481.073 867.12 475.493 866.718 468.664 870.11C467.214 873.257 465.785 876.426 464.446 879.461C464.446 879.461 507.117 921.016 526.6 920.19C527.448 918.383 528.028 916.686 528.408 915.08C526.243 913.562 523.118 912.446 519.302 910.906C512.585 908.184 498.458 896.467 489.174 880.778V880.8Z" fill="#EBE7C6"/>
<path d="M487.187 870.333C485.648 861.92 479.6 859.041 473.328 860.358C471.766 863.504 470.204 866.807 468.664 870.11C475.091 866.919 480.403 867.075 487.723 878.457C487.946 875.734 487.857 873.034 487.187 870.311V870.333Z" fill="#BDBBA2"/>
<path d="M522.27 896.491C518.989 893.032 515.106 889.952 512.093 886.671C503.947 877.789 507.764 860.538 507.898 856.164C508.009 851.79 496.56 839.448 485.402 839.984C482.277 843.354 477.836 851.254 473.328 860.359C479.622 859.043 485.67 861.922 487.187 870.335C487.857 873.058 487.946 875.758 487.723 878.481C488.191 879.217 488.682 879.999 489.173 880.824C498.48 896.513 512.584 908.252 519.302 910.953C519.525 911.042 519.748 911.131 519.971 911.22C521.667 906.489 522.359 901.334 522.248 896.513L522.27 896.491Z" fill="#4356A6"/>
<path d="M522.271 896.492C522.382 901.335 521.668 906.468 519.994 911.199C523.498 912.605 526.377 913.676 528.408 915.105C530.349 907.026 526.913 901.38 522.271 896.492Z" fill="#BDBBA2"/>
<path d="M473.597 905.663C456.39 888.524 464.112 873.504 473.641 872.634C483.171 871.763 498.28 910.171 520.262 915.795C542.245 921.419 502.788 934.743 473.597 905.663Z" fill="#BDBBA2"/>
<path d="M453.154 890.44C464.491 890.44 482.278 891.846 502.409 899.456C521.088 906.53 534.59 916.238 542.959 923.313H554.966C546.552 913.226 532.604 898.898 511.983 886.579C490.804 873.925 471.075 868.457 458.019 865.891C456.39 874.059 454.783 882.249 453.154 890.417V890.44Z" fill="#4A3243"/>
<path d="M549.185 920.834H546.842V934.001H549.185V920.834Z" fill="#4A3243"/>
<path d="M458.935 867.186C459.18 869.172 459.314 871.18 459.403 873.167C459.515 875.153 459.537 877.161 459.537 879.148C459.537 881.134 459.515 883.142 459.403 885.129C459.314 887.115 459.18 889.123 458.935 891.11C458.689 889.123 458.555 887.115 458.466 885.129C458.354 883.142 458.332 881.134 458.332 879.148C458.332 877.161 458.354 875.153 458.466 873.167C458.555 871.18 458.689 869.172 458.935 867.186Z" fill="#0F1944"/>
<path d="M558.202 935.073C558.202 940.697 553.649 945.25 548.025 945.25C542.401 945.25 537.849 940.697 537.849 935.073C537.849 929.449 542.401 924.896 548.025 924.896C553.649 924.896 558.202 929.449 558.202 935.073Z" fill="#54394C"/>
<path d="M550.369 885.358C539.121 874.11 533.631 875.092 527.851 880.091C527.226 883.506 527.159 885.47 526.623 888.75C526.623 888.75 577.707 919.883 596.387 914.259C596.744 912.295 596.9 910.509 596.878 908.858C594.423 907.921 591.098 907.631 587.036 907.073C579.85 906.113 563.268 898.257 550.369 885.336V885.358Z" fill="#EBE7C6"/>
<path d="M586.255 892.32C589.915 896.449 591.388 901.872 591.321 907.652C593.486 907.965 595.36 908.3 596.878 908.88C596.766 900.533 591.99 895.913 586.255 892.32Z" fill="#BDBBA2"/>
<path d="M530.797 865.698C529.77 870.251 528.766 875.183 527.873 880.093C533.653 875.094 539.143 874.112 550.391 885.36C550.726 885.695 551.083 886.029 551.44 886.364C551.395 882.035 550.704 877.817 548.896 873.822C544.723 864.627 537.536 862.641 530.797 865.698Z" fill="#BDBBA2"/>
<path d="M591.321 907.653C591.388 901.85 589.915 896.427 586.255 892.321C582.238 889.799 577.752 887.79 574.025 885.358C563.938 878.752 563.357 861.099 562.376 856.836C561.416 852.573 547.244 843.446 536.577 846.749C534.657 850.275 532.649 857.372 530.752 865.696C537.492 862.639 544.656 864.625 548.851 873.82C550.659 877.814 551.351 882.032 551.395 886.362C564.139 898.659 580.028 906.135 587.014 907.095C588.554 907.296 589.982 907.474 591.299 907.653H591.321Z" fill="#4356A6"/>
<path d="M542.669 908.877C523.12 894.482 523.611 884.484 532.649 881.293C541.665 878.101 566.482 911.555 589.179 911.555C611.875 911.555 576.815 934.028 542.669 908.877Z" fill="#BDBBA2"/>
<path d="M451.682 890.445C440.345 890.445 407.717 899.907 388.502 923.318H376.495C379.53 913.231 390.22 892.052 410.841 879.732C432.021 867.078 433.761 868.462 446.795 865.918C448.424 874.086 450.031 882.277 451.66 890.445H451.682Z" fill="#4A3243"/>
<path d="M382.275 934.029H384.618V920.862H382.275V934.029Z" fill="#4A3243"/>
<path d="M440.947 867.191C441.193 869.178 441.327 871.186 441.416 873.172C441.528 875.159 441.55 877.167 441.55 879.153C441.55 881.14 441.528 883.148 441.416 885.135C441.327 887.121 441.193 889.129 440.947 891.116C440.702 889.129 440.568 887.121 440.479 885.135C440.367 883.148 440.345 881.14 440.345 879.153C440.345 877.167 440.367 875.159 440.479 873.172C440.568 871.186 440.702 869.178 440.947 867.191Z" fill="#0F1944"/>
<path d="M373.259 935.079C373.259 940.703 377.812 945.256 383.435 945.256C389.059 945.256 393.612 940.703 393.612 935.079C393.612 929.455 389.059 924.902 383.435 924.902C377.812 924.902 373.259 929.455 373.259 935.079Z" fill="#54394C"/>
<path d="M385.823 758.838H375.155V783.275H385.823V758.838Z" fill="#54394C"/>
<path d="M453.444 747.746H433.247V818.537H453.444V747.746Z" fill="#54394C"/>
<path d="M481.743 747.746H404.927V766.961H481.743V747.746Z" fill="#4A3243"/>
<path d="M412.738 679.075C412.738 679.075 396.58 729.311 439.675 729.311H488.951L465.451 862.389H516.312C516.312 862.389 552.689 722.616 532.604 702.553C512.518 682.467 560.366 667.247 412.738 679.075Z" fill="#3C4649"/>
<path d="M398.031 508.885C398.031 508.885 351.99 592.552 358.953 617.391C365.939 642.231 398.031 667.828 398.031 667.828V508.885Z" fill="#89D2DC"/>
<path d="M365.537 728.688H521.133V749.934C521.133 756.428 515.866 761.717 509.35 761.717H377.298C370.804 761.717 365.515 756.45 365.515 749.934V728.688H365.537Z" fill="#17A9E1"/>
<path d="M509.372 761.715H377.321C370.826 761.715 365.537 756.448 365.537 749.931V745.178H521.133V749.931C521.133 756.426 515.866 761.715 509.35 761.715H509.372Z" fill="#4A3243"/>
<path d="M366.14 749.04C379.061 748.817 391.983 748.661 404.882 748.571L443.625 748.438L482.368 748.571C495.29 748.661 508.211 748.817 521.111 749.04C508.189 749.263 495.267 749.419 482.368 749.509L443.625 749.643L404.882 749.509C391.961 749.419 379.039 749.263 366.14 749.04Z" fill="#0F1944"/>
<path d="M390.979 679.078C390.979 679.078 368.237 729.314 411.31 729.314H533.162L524.436 862.392H578.555C578.555 862.392 603.104 708.67 583.019 688.585C562.933 668.499 529.971 675.886 390.979 679.078Z" fill="#3C4649"/>
<path d="M390.978 682.356C391.179 669.947 391.291 649.795 390.197 624.933C387.274 557.334 370.737 532.986 389.929 513.972C397.361 506.607 404.123 498.885 420.817 496.654C451.771 492.525 487.88 493.351 502.81 514.797C506.939 520.712 507.497 526.67 508.925 538.03C514.46 581.772 500.065 597.818 501.694 644.193C502.007 653.008 503.458 671.309 503.458 671.309V675.593C496.74 677.022 486.496 682.423 473.954 684.677C437.376 691.26 427.289 690.881 420.326 690.1C413.318 689.319 403.074 687.444 390.978 682.333V682.356Z" fill="#89D2DC"/>
<path d="M422.691 497.301C421.843 497.524 420.861 497.792 420.348 498.506C420.103 498.885 420.326 499.332 420.638 499.622C420.928 499.934 421.33 500.18 421.709 500.403C423.294 501.273 425.102 501.564 426.865 501.898C430.435 502.501 434.073 502.769 437.711 502.858C444.942 502.97 452.329 502.568 459.091 500.135C459.961 499.867 460.742 499.466 461.546 499.086C462.349 498.729 463.175 498.283 463.666 497.77C463.755 497.658 463.844 497.502 463.822 497.524C463.822 497.524 463.822 497.524 463.733 497.435C463.51 497.256 463.108 497.1 462.706 497.011C461.881 496.788 460.988 496.676 460.095 496.587C456.502 496.252 452.864 496.341 449.227 496.364C445.589 496.431 441.951 496.564 438.291 496.743C434.653 496.899 430.993 497.078 427.356 497.323C434.609 496.453 441.884 495.761 449.182 495.426C452.842 495.248 456.502 495.203 460.184 495.471C461.099 495.56 462.037 495.672 462.974 495.895C463.443 496.029 463.934 496.163 464.447 496.542C464.693 496.743 465.005 497.145 464.96 497.613C464.916 498.082 464.693 498.305 464.514 498.551C463.733 499.332 462.907 499.756 462.059 500.158C461.211 500.559 460.385 501.006 459.493 501.273C452.44 503.706 444.964 504.108 437.666 503.795C434.006 503.594 430.346 503.215 426.753 502.479C424.99 502.032 423.138 501.653 421.553 500.649C421.151 500.403 420.772 500.135 420.46 499.778C420.147 499.466 419.879 498.885 420.214 498.439C420.839 497.68 421.821 497.502 422.691 497.323V497.301Z" fill="#0F1944"/>
<path d="M610.581 628.839L541.509 606.321L527.784 573.447C520.129 586.19 509.506 596.144 493.884 599.692C502.03 616.81 515.465 639.484 530.64 642.809C555.479 648.232 614.241 644.55 614.241 644.55L610.559 628.861L610.581 628.839Z" fill="#F6CABB"/>
<path d="M506.983 622.768C510.175 626.896 513.522 630.913 517.361 634.417C521.177 637.876 525.507 640.956 530.483 642.117C535.505 643.3 540.727 643.835 545.905 644.371C551.082 644.884 556.305 645.219 561.527 645.621C556.305 645.732 551.06 645.62 545.838 645.308C540.616 644.973 535.393 644.415 530.216 643.3C524.971 641.96 520.485 638.747 516.736 635.087C512.987 631.382 509.795 627.186 507.006 622.768H506.983Z" fill="#0F1944"/>
<path d="M527.784 573.447L504.261 517.096C472.838 485.674 485.649 580.12 485.649 580.12C485.649 580.12 488.706 588.779 493.884 599.67C509.506 596.122 520.129 586.191 527.784 573.425V573.447Z" fill="#89D2DC"/>
<path d="M527.783 573.447L506.091 521.492C505.622 520.019 505.064 518.658 504.35 517.341L504.261 517.118C504.261 517.118 504.239 517.095 504.216 517.073C503.792 516.314 503.346 515.578 502.81 514.819C487.88 493.394 451.771 492.546 420.817 496.675C404.123 498.907 397.361 506.629 389.929 513.993C370.737 533.008 387.274 557.356 390.197 624.955C391.269 649.816 391.179 669.969 390.978 682.377C403.074 687.488 413.318 689.362 420.326 690.144C427.289 690.925 437.376 691.304 473.954 684.72C486.519 682.466 496.74 677.066 503.458 675.637V671.352C503.458 671.352 502.007 653.052 501.694 644.237C500.958 623.638 503.413 609.02 505.845 595.295C515.196 590.363 522.249 582.664 527.761 573.469L527.783 573.447Z" fill="#F89939"/>
<mask id="mask3_306_3438" style="mask-type:luminance" maskUnits="userSpaceOnUse" x="380" y="494" width="148" height="197">
<path d="M527.783 573.447L506.091 521.492C505.622 520.019 505.064 518.658 504.35 517.341L504.261 517.118C504.261 517.118 504.239 517.095 504.216 517.073C503.792 516.314 503.346 515.578 502.81 514.819C487.88 493.394 451.771 492.546 420.817 496.675C404.123 498.907 397.361 506.629 389.929 513.993C370.737 533.008 387.274 557.356 390.197 624.955C391.269 649.816 391.179 669.969 390.978 682.377C403.074 687.488 413.318 689.362 420.326 690.144C427.289 690.925 437.376 691.304 473.954 684.72C486.519 682.466 496.74 677.066 503.458 675.637V671.352C503.458 671.352 502.007 653.052 501.694 644.237C500.958 623.638 503.413 609.02 505.845 595.295C515.196 590.363 522.249 582.664 527.761 573.469L527.783 573.447Z" fill="white"/>
</mask>
<g mask="url(#mask3_306_3438)">
<g opacity="0.3">
<path d="M380.222 506.852C380.222 506.852 382.096 508.258 385.667 510.266C387.452 511.27 389.662 512.409 392.273 513.524C394.862 514.685 397.897 515.756 401.244 516.738C404.614 517.609 408.319 518.501 412.291 518.724C416.264 519.014 420.504 518.925 424.745 518.055C426.909 517.675 429.096 517.274 431.328 516.872C432.444 516.693 433.604 516.693 434.765 516.582C435.925 516.515 437.086 516.403 438.246 516.448C442.888 516.403 447.575 516.738 452.239 517.051C456.904 517.408 461.568 517.72 466.143 517.832C470.718 517.876 475.249 517.787 479.556 517.162C481.698 516.827 483.841 516.582 485.849 516.002C487.88 515.466 489.889 515.064 491.719 514.261C495.513 513.011 498.771 511.07 501.806 509.351C504.551 507.209 507.341 505.557 509.26 503.459C511.291 501.473 513.188 499.844 514.371 498.192C516.96 495.023 518.432 493.193 518.432 493.193C518.432 493.193 517.004 495.046 514.527 498.304C513.389 500.022 511.536 501.719 509.55 503.772C507.676 505.959 504.931 507.722 502.163 509.931C499.128 511.717 495.847 513.748 492.009 515.109C490.156 515.979 488.126 516.426 486.072 516.984C484.042 517.653 481.877 517.876 479.69 518.233C475.315 518.903 470.74 519.014 466.121 518.992C461.501 518.903 456.814 518.613 452.15 518.278C447.486 517.943 442.822 517.586 438.246 517.608C437.086 517.564 435.97 517.653 434.854 517.72C433.738 517.809 432.623 517.787 431.507 517.988C429.275 518.367 427.088 518.747 424.923 519.126C422.758 519.617 420.571 519.706 418.429 519.863C417.358 519.907 416.309 519.84 415.26 519.84C414.211 519.84 413.184 519.796 412.18 519.639C408.118 519.349 404.391 518.367 400.999 517.43C397.629 516.381 394.616 515.198 392.05 513.948C389.461 512.743 387.274 511.516 385.533 510.467C382.029 508.347 380.199 506.874 380.199 506.874L380.222 506.852Z" fill="#E4E4E4"/>
</g>
<g opacity="0.3">
<path d="M371.205 533.096C371.205 533.096 373.37 534.546 377.454 536.577C379.507 537.581 382.007 538.742 384.975 539.858C387.921 541.018 391.335 542.045 395.107 543.049C398.901 543.897 403.03 544.768 407.493 544.991C408.609 545.102 409.725 545.147 410.863 545.125C412.001 545.125 413.162 545.169 414.322 545.125C416.643 544.902 419.031 544.857 421.397 544.366C423.785 544.031 426.195 543.429 428.761 543.161C431.283 542.848 433.85 542.737 436.416 542.714C441.571 542.647 446.794 542.96 451.994 543.295C462.371 544.009 472.793 544.678 482.457 543.607C492.12 542.625 500.935 539.947 507.72 536.131C511.09 534.234 514.103 532.27 516.535 530.261C517.807 529.302 518.901 528.32 519.905 527.382C520.932 526.49 521.824 525.597 522.606 524.771C524.235 523.165 525.373 521.803 526.176 520.866C526.98 519.951 527.404 519.438 527.404 519.438C527.404 519.438 527.002 519.951 526.221 520.888C525.462 521.848 524.346 523.254 522.762 524.905C522.003 525.753 521.133 526.668 520.128 527.606C519.146 528.565 518.053 529.592 516.825 530.596C514.437 532.694 511.469 534.769 508.055 536.733C501.248 540.661 492.366 543.629 482.568 544.656C472.793 545.772 462.282 545.169 451.904 544.5C446.704 544.143 441.527 543.808 436.416 543.853C433.872 543.853 431.328 543.986 428.873 544.254C426.418 544.477 423.985 545.08 421.553 545.415C419.12 545.906 416.71 545.973 414.344 546.129C413.162 546.174 411.979 546.107 410.841 546.084C409.68 546.084 408.542 546.04 407.426 545.906C402.918 545.616 398.745 544.656 394.951 543.741C391.179 542.692 387.765 541.554 384.841 540.282C381.895 539.077 379.418 537.849 377.387 536.778C373.348 534.636 371.227 533.118 371.227 533.118L371.205 533.096Z" fill="#E4E4E4"/>
</g>
<g opacity="0.3">
<path d="M373.37 559.342C373.37 559.342 375.468 560.77 379.44 562.801C381.427 563.805 383.859 564.966 386.738 566.082C389.595 567.242 392.92 568.291 396.58 569.295C400.262 570.143 404.302 571.036 408.654 571.237C409.725 571.348 410.841 571.393 411.934 571.371C413.05 571.371 414.166 571.415 415.304 571.371C417.558 571.148 419.902 571.103 422.2 570.612C424.544 570.277 426.887 569.675 429.387 569.407C431.864 569.117 434.341 568.983 436.863 568.961C441.906 568.916 446.995 569.228 452.061 569.541C462.193 570.255 472.347 570.902 481.765 569.831C491.183 568.827 499.731 566.082 506.314 562.265C509.573 560.346 512.474 558.404 514.817 556.396C516.045 555.459 517.093 554.454 518.053 553.539C519.057 552.647 519.905 551.754 520.664 550.95C522.226 549.366 523.32 548.005 524.079 547.09C524.838 546.175 525.262 545.684 525.262 545.684C525.262 545.684 524.86 546.175 524.123 547.112C523.387 548.049 522.338 549.433 520.798 551.062C520.062 551.91 519.236 552.825 518.254 553.74C517.294 554.677 516.268 555.726 515.085 556.708C512.786 558.806 509.907 560.859 506.649 562.846C500.065 566.773 491.429 569.809 481.877 570.857C472.325 572.018 462.081 571.415 451.972 570.746C446.906 570.389 441.84 570.054 436.863 570.076C434.386 570.076 431.908 570.21 429.498 570.478C427.11 570.701 424.744 571.304 422.357 571.639C419.991 572.13 417.625 572.196 415.327 572.353C414.166 572.397 413.028 572.33 411.89 572.308C410.752 572.308 409.636 572.263 408.564 572.13C404.168 571.839 400.106 570.88 396.402 569.965C392.719 568.916 389.394 567.755 386.56 566.506C383.703 565.3 381.293 564.073 379.329 563.002C375.423 560.859 373.37 559.364 373.37 559.364V559.342Z" fill="#E4E4E4"/>
</g>
<g opacity="0.3">
<path d="M366.853 585.584C366.853 585.584 369.174 587.035 373.504 589.088C375.669 590.092 378.324 591.253 381.471 592.368C384.573 593.551 388.189 594.556 392.161 595.56C396.156 596.386 400.508 597.278 405.172 597.479C406.333 597.591 407.515 597.635 408.721 597.613C409.926 597.613 411.131 597.658 412.358 597.613C414.791 597.39 417.313 597.345 419.812 596.854C421.084 596.653 422.356 596.453 423.629 596.229C424.901 595.984 426.195 595.783 427.534 595.649C430.19 595.337 432.868 595.203 435.568 595.18C440.969 595.113 446.459 595.426 451.905 595.738C462.818 596.453 473.731 597.122 483.907 596.118C488.974 595.627 493.839 594.779 498.347 593.529C502.855 592.302 506.984 590.672 510.599 588.798C514.214 586.923 517.406 584.937 520.039 582.928C520.709 582.437 521.356 581.946 521.958 581.478C522.539 580.964 523.119 580.496 523.655 580.027C524.77 579.112 525.752 578.219 526.578 577.371C528.319 575.742 529.569 574.336 530.439 573.376C531.309 572.439 531.756 571.926 531.756 571.926C531.756 571.926 531.309 572.439 530.484 573.421C529.658 574.403 528.43 575.831 526.734 577.527C525.909 578.398 524.949 579.313 523.878 580.272C523.342 580.763 522.784 581.254 522.204 581.79C521.601 582.281 520.954 582.772 520.307 583.308C517.718 585.405 514.549 587.503 510.911 589.445C503.658 593.395 494.263 596.207 483.997 597.211C473.731 598.283 462.728 597.658 451.815 597.01C446.37 596.653 440.902 596.341 435.546 596.386C432.868 596.386 430.212 596.519 427.623 596.81C426.329 596.944 425.057 597.122 423.762 597.368C422.468 597.568 421.196 597.769 419.924 597.97C417.38 598.461 414.836 598.506 412.358 598.684C411.109 598.707 409.881 598.662 408.676 598.64C407.471 598.64 406.266 598.595 405.083 598.461C400.352 598.171 395.977 597.234 391.96 596.319C387.988 595.27 384.372 594.132 381.293 592.882C378.168 591.677 375.535 590.449 373.392 589.378C369.107 587.213 366.831 585.696 366.831 585.696L366.853 585.584Z" fill="#E4E4E4"/>
</g>
<g opacity="0.3">
<path d="M374.262 611.829C374.262 611.829 376.338 613.257 380.243 615.288C382.207 616.292 384.617 617.431 387.452 618.569C390.286 619.729 393.567 620.778 397.182 621.782C400.842 622.631 404.815 623.523 409.122 623.724C410.193 623.836 411.264 623.88 412.38 623.858C413.474 623.858 414.59 623.903 415.705 623.858C417.937 623.635 420.258 623.59 422.535 623.077C424.833 622.742 427.177 622.14 429.631 621.872C432.064 621.582 434.541 621.448 437.041 621.425C442.018 621.381 447.061 621.693 452.083 622.006C462.103 622.72 472.168 623.367 481.474 622.273C486.116 621.738 490.58 620.845 494.664 619.528C498.748 618.212 502.475 616.56 505.711 614.686C508.925 612.744 511.781 610.825 514.08 608.816C515.285 607.879 516.312 606.874 517.271 605.959C518.253 605.067 519.079 604.174 519.838 603.371C521.378 601.786 522.449 600.447 523.208 599.532C523.967 598.617 524.368 598.148 524.368 598.148C524.368 598.148 523.989 598.639 523.252 599.577C522.516 600.514 521.489 601.898 519.994 603.527C519.28 604.353 518.454 605.268 517.495 606.183C516.557 607.12 515.553 608.147 514.37 609.151C512.116 611.249 509.282 613.28 506.046 615.288C499.551 619.216 491.026 622.273 481.564 623.345C472.124 624.505 461.969 623.925 451.949 623.233C446.927 622.876 441.928 622.541 436.996 622.564C434.541 622.564 432.086 622.698 429.721 622.965C427.355 623.188 425.012 623.791 422.668 624.126C420.325 624.617 417.982 624.684 415.705 624.84C414.567 624.885 413.429 624.818 412.313 624.795C411.197 624.795 410.081 624.751 409.01 624.617C404.658 624.327 400.641 623.367 396.959 622.452C393.321 621.403 390.041 620.243 387.229 618.993C384.394 617.788 382.029 616.56 380.087 615.489C376.226 613.347 374.195 611.851 374.195 611.851L374.262 611.829Z" fill="#E4E4E4"/>
</g>
<g opacity="0.3">
<path d="M379.396 638.08C379.396 638.08 381.292 639.486 384.908 641.495C386.716 642.499 388.947 643.637 391.603 644.753C394.237 645.913 397.294 646.962 400.686 647.967C404.101 648.837 407.828 649.73 411.867 649.953C412.871 650.064 413.898 650.109 414.925 650.087C415.951 650.087 417 650.131 418.049 650.087C420.147 649.886 422.312 649.797 424.454 649.306C426.641 648.926 428.851 648.525 431.105 648.123C432.221 647.922 433.403 647.944 434.586 647.833C435.747 647.766 436.929 647.654 438.09 647.699C442.777 647.654 447.508 647.967 452.217 648.301C456.926 648.658 461.635 648.971 466.277 649.105C470.896 649.149 475.471 649.06 479.823 648.435C481.988 648.1 484.153 647.877 486.184 647.275C488.215 646.739 490.268 646.36 492.12 645.534C493.057 645.177 493.995 644.82 494.91 644.463L496.271 643.949L497.521 643.258C499.172 642.343 500.824 641.495 502.341 640.624C503.77 639.575 505.131 638.593 506.425 637.656C507.073 637.165 507.742 636.763 508.3 636.25C508.858 635.737 509.394 635.223 509.907 634.732C511.96 632.746 513.902 631.117 515.107 629.443C517.74 626.252 519.236 624.422 519.236 624.422C519.236 624.422 517.785 626.297 515.263 629.577C514.103 631.318 512.206 632.992 510.197 635.067C508.3 637.277 505.488 639.017 502.698 641.227C501.159 642.142 499.529 643.034 497.856 643.972L496.584 644.686L495.2 645.244C494.285 645.623 493.348 645.98 492.388 646.382C490.513 647.252 488.438 647.676 486.385 648.257C484.331 648.926 482.122 649.127 479.935 649.484C475.516 650.131 470.896 650.265 466.232 650.243C461.568 650.154 456.836 649.864 452.128 649.529C447.419 649.194 442.71 648.837 438.09 648.859C436.929 648.815 435.791 648.926 434.653 648.971C433.515 649.06 432.399 649.038 431.261 649.239C429.007 649.618 426.797 649.997 424.61 650.377C422.423 650.868 420.214 650.957 418.071 651.113C417 651.158 415.929 651.091 414.88 651.069C413.831 651.069 412.782 651.024 411.778 650.868C407.694 650.578 403.922 649.596 400.485 648.658C397.071 647.609 394.036 646.427 391.425 645.177C388.813 643.972 386.604 642.744 384.819 641.695C381.27 639.575 379.396 638.102 379.396 638.102V638.08Z" fill="#E4E4E4"/>
</g>
<g opacity="0.3">
<path d="M363.996 664.298C363.996 664.298 366.407 665.771 370.893 667.802C373.147 668.806 375.892 669.966 379.15 671.082C382.364 672.265 386.113 673.269 390.197 674.274C394.326 675.099 398.811 675.992 403.632 676.193C404.837 676.304 406.042 676.349 407.292 676.327C408.519 676.327 409.769 676.349 411.041 676.327C413.563 676.103 416.152 676.081 418.718 675.568C421.307 675.233 423.941 674.631 426.686 674.363C429.431 674.05 432.176 673.916 434.965 673.894C440.545 673.827 446.191 674.117 451.815 674.43C463.063 675.122 474.333 675.813 484.822 674.831C490.067 674.34 495.088 673.537 499.753 672.31C504.417 671.104 508.702 669.475 512.473 667.601C516.245 665.748 519.57 663.74 522.338 661.731C523.744 660.749 525.016 659.767 526.132 658.808C527.292 657.87 528.319 657 529.189 656.13C531.019 654.478 532.336 653.05 533.228 652.09C534.143 651.13 534.612 650.617 534.612 650.617C534.612 650.617 534.143 651.153 533.273 652.135C532.403 653.139 531.108 654.59 529.323 656.286C528.475 657.178 527.448 658.093 526.31 659.053C525.217 660.057 523.944 661.062 522.561 662.088C519.838 664.186 516.557 666.329 512.741 668.226C508.947 670.167 504.662 671.886 499.953 673.158C495.267 674.474 490.178 675.389 484.889 675.88C474.288 676.929 462.951 676.282 451.726 675.635C446.102 675.278 440.478 674.965 434.965 675.01C432.198 675.032 429.453 675.144 426.797 675.434C425.458 675.568 424.142 675.746 422.803 675.992C421.463 676.193 420.147 676.394 418.83 676.595C416.197 677.086 413.585 677.13 411.019 677.286C409.747 677.309 408.475 677.264 407.225 677.242C405.975 677.242 404.748 677.197 403.52 677.063C398.655 676.795 394.125 675.836 389.974 674.943C385.867 673.894 382.14 672.778 378.927 671.506C375.691 670.301 372.968 669.074 370.736 668.002C366.295 665.838 363.907 664.298 363.907 664.298H363.996Z" fill="#E4E4E4"/>
</g>
</g>
<path d="M476.52 542.964C477.748 552.85 479.712 562.581 482.881 571.976C483.684 574.32 484.599 576.618 485.537 578.895C486.563 581.149 487.523 583.492 488.349 585.835C489.978 590.522 491.875 595.119 493.883 599.672C491.607 595.253 489.576 590.678 487.746 586.036C486.094 581.349 483.394 577.109 481.81 572.311C480.069 567.624 478.841 562.737 477.926 557.827C477.056 552.895 476.52 547.918 476.498 542.941L476.52 542.964Z" fill="#0F1944"/>
<path d="M489.755 590.344C493.303 589.339 496.74 588.023 500.043 586.461C503.346 584.876 506.515 583.046 509.439 580.881C510.956 579.877 512.318 578.672 513.746 577.511C515.04 576.239 516.424 575.034 517.607 573.65C520.151 571.017 522.159 567.96 524.19 564.857C522.606 568.183 520.753 571.441 518.299 574.253C515.933 577.132 513.143 579.654 510.13 581.841C507.073 583.983 503.837 585.858 500.4 587.286C496.963 588.715 493.392 589.808 489.732 590.321L489.755 590.344Z" fill="#0F1944"/>
<path d="M417.915 729.309L446.727 728.997L475.538 728.885C494.753 728.84 513.946 728.662 533.161 728.751C533.474 728.751 533.719 728.997 533.719 729.309V729.354L530.796 776.332C529.859 791.998 528.787 807.643 527.671 823.287C528.386 807.62 529.122 791.954 530.037 776.287L532.604 729.287L533.161 729.889C513.946 729.979 494.753 729.778 475.538 729.755L446.727 729.644L417.915 729.331V729.309Z" fill="#0F1944"/>
<path d="M458.667 814.854H428.003V897.695H458.667V814.854Z" fill="#4A3243"/>
<path d="M382.342 510.088C413.988 510.088 439.675 535.775 439.675 567.421V696.616C439.675 709.203 429.454 719.402 416.889 719.402H347.817C335.23 719.402 325.031 709.18 325.031 696.616V567.421C325.031 535.775 350.718 510.088 382.364 510.088H382.342Z" fill="#17A9E1"/>
<path d="M407.962 719.404L371.763 719.471L353.664 719.516H344.626C341.613 719.493 338.6 719.694 335.565 719.293C329.539 718.467 323.937 715.075 320.344 710.165C318.537 707.71 317.242 704.898 316.528 701.952C315.769 698.984 315.881 695.904 315.859 692.914L315.792 656.715L315.635 584.318C315.635 578.292 315.546 572.266 315.658 566.218C315.658 560.126 316.93 554.078 318.849 548.32C319.407 546.914 319.809 545.419 320.501 544.057L322.464 539.929C324.027 537.317 325.544 534.662 327.464 532.296C331.168 527.476 335.565 523.146 340.586 519.687C345.63 516.272 351.209 513.639 357.034 511.898C362.881 510.113 369.018 509.533 375.089 509.644C381.181 509.711 387.229 511.028 392.942 513.059C398.678 515.09 404.101 518.035 408.832 521.829C413.608 525.601 417.804 530.064 421.263 535.063C424.611 540.129 427.177 545.709 428.873 551.534C430.703 557.358 431.06 563.496 431.105 569.521L431.06 587.621L430.904 660.018L430.837 696.217C430.926 702.264 428.516 708.312 424.254 712.62C420.036 716.972 414.01 719.449 407.984 719.427L407.962 719.404ZM407.962 719.404C414.01 719.404 419.991 716.905 424.187 712.553C428.427 708.246 430.793 702.242 430.681 696.217L430.614 660.018L430.458 587.621L430.413 569.521C430.346 563.518 429.967 557.492 428.137 551.734C426.441 545.999 423.897 540.509 420.571 535.532C417.157 530.6 412.983 526.226 408.274 522.543C403.588 518.817 398.232 515.96 392.608 513.974C386.984 512.01 381.047 510.738 375.066 510.693C369.108 510.604 363.082 511.206 357.369 512.992C351.655 514.732 346.232 517.344 341.278 520.691C336.324 524.039 332.016 528.279 328.356 532.988C326.459 535.309 324.964 537.898 323.424 540.464L321.46 544.504C320.791 545.843 320.389 547.293 319.831 548.677C317.912 554.323 316.64 560.237 316.617 566.241C316.483 572.244 316.55 578.292 316.528 584.318L316.372 656.715L316.305 692.914C316.305 695.926 316.193 698.962 316.93 701.863C317.622 704.764 318.894 707.531 320.657 709.964C324.161 714.807 329.673 718.177 335.609 719.025C338.578 719.449 341.613 719.248 344.626 719.315H353.664L371.763 719.382L407.962 719.449V719.404Z" fill="#0F1944"/>
<path d="M403.677 719.402H334.605C322.018 719.402 311.819 709.203 311.819 696.616V567.421C311.819 535.753 337.484 510.088 369.152 510.088C400.821 510.088 426.486 535.753 426.486 567.421V696.616C426.486 709.203 416.287 719.402 403.7 719.402H403.677Z" fill="#4A3243"/>
<path d="M334.605 712.82C325.678 712.82 318.402 705.544 318.402 696.617V567.423C318.402 539.459 341.166 516.695 369.13 516.695C397.093 516.695 419.857 539.459 419.857 567.423V696.617C419.857 705.544 412.581 712.82 403.654 712.82H334.582H334.605Z" fill="#4A3243"/>
<path d="M334.605 712.821C329.003 712.843 323.446 709.763 320.634 704.854C319.161 702.466 318.425 699.654 318.358 696.842V688.45L318.246 654.841L318.09 587.643L318.045 570.838C317.978 568.049 318.134 565.237 318.291 562.402C318.67 559.613 319.027 556.801 319.831 554.1C321.304 548.655 323.647 543.455 326.794 538.746C329.985 534.082 333.935 529.953 338.443 526.539C342.951 523.146 347.973 520.401 353.373 518.683C358.752 516.964 364.421 516.139 370.067 516.183C381.404 516.34 392.585 520.424 401.423 527.543C410.126 534.751 416.598 544.772 419.031 555.863C420.303 561.376 420.437 567.111 420.348 572.668L420.303 589.473L420.147 656.671L420.08 690.28V694.476C420.08 695.86 420.08 697.288 419.901 698.694C419.522 701.506 418.428 704.229 416.688 706.46C414.991 708.737 412.648 710.478 410.082 711.638C407.471 712.776 404.569 713.044 401.78 712.933L334.582 712.776L334.605 712.821ZM334.605 712.821L401.802 712.665C404.614 712.754 407.404 712.486 409.97 711.348C412.492 710.21 414.768 708.491 416.42 706.26C418.116 704.073 419.165 701.417 419.522 698.672C419.7 697.31 419.678 695.904 419.656 694.498V690.303L419.567 656.693L419.41 589.496L419.366 572.691C419.433 567.067 419.276 561.532 418.004 556.109C415.594 545.263 409.189 535.51 400.664 528.48C392.072 521.495 381.136 517.433 370.044 517.232C364.51 517.165 358.953 517.946 353.664 519.598C348.352 521.249 343.42 523.927 338.979 527.23C334.538 530.556 330.632 534.595 327.485 539.17C324.383 543.79 322.04 548.9 320.567 554.257C319.764 556.912 319.384 559.68 319.005 562.425C318.849 565.192 318.692 567.982 318.737 570.794L318.692 587.599L318.536 654.796L318.469 688.406V696.797C318.536 699.587 319.228 702.376 320.679 704.764C323.468 709.652 328.958 712.754 334.582 712.754L334.605 712.821Z" fill="#0F1944"/>
<path d="M384.729 761.602H380.824C369.063 761.602 359.533 752.073 359.533 740.312V619.709H372.723V740.312C372.723 752.073 382.252 761.602 394.013 761.602H384.707H384.729Z" fill="#54394C"/>
<path d="M378.145 761.602H374.24C362.479 761.602 352.949 752.073 352.949 740.312V619.709H366.139V740.312C366.139 752.073 375.668 761.602 387.429 761.602H378.123H378.145Z" fill="#4A3243"/>
<path d="M467.504 761.602H471.409C483.17 761.602 492.7 752.073 492.7 740.312V708.777H479.51V740.312C479.51 752.073 469.981 761.602 458.22 761.602H467.526H467.504Z" fill="#54394C"/>
<path d="M470.471 761.602H474.377C486.138 761.602 495.668 752.073 495.668 740.312V708.777H482.478V740.312C482.478 752.073 472.949 761.602 461.188 761.602H470.494H470.471Z" fill="#4A3243"/>
<path d="M352.949 719.401C352.749 702.775 352.57 686.171 352.57 669.544L352.369 619.688C352.369 619.375 352.615 619.107 352.949 619.107H366.161C366.474 619.107 366.741 619.353 366.741 619.688L366.541 669.544C366.541 686.171 366.362 702.775 366.139 719.401C365.938 702.775 365.76 686.171 365.737 669.544L365.536 619.688L366.117 620.268H352.927L353.507 619.688L353.306 669.544C353.306 686.171 353.128 702.775 352.927 719.401H352.949Z" fill="#0F1944"/>
<path d="M403.677 761.716C410.193 761.47 416.688 761.336 423.204 761.247L442.732 761.113L462.26 761.247C468.776 761.336 475.271 761.47 481.787 761.716C475.271 761.961 468.776 762.095 462.26 762.184L442.732 762.318L423.204 762.184C416.688 762.095 410.193 761.961 403.677 761.716Z" fill="#0F1944"/>
<path d="M431.127 767.14C433.069 766.894 434.988 766.76 436.929 766.671C438.871 766.559 440.79 766.537 442.732 766.537C444.674 766.537 446.593 766.559 448.534 766.671C450.476 766.76 452.395 766.894 454.337 767.14C452.395 767.385 450.476 767.519 448.534 767.608C446.593 767.72 444.674 767.742 442.732 767.742C440.79 767.742 438.871 767.72 436.929 767.608C434.988 767.519 433.069 767.385 431.127 767.14Z" fill="#0F1944"/>
<path d="M428.003 814.854C430.547 814.609 433.114 814.475 435.658 814.386C438.202 814.274 440.768 814.252 443.313 814.252C445.857 814.252 448.423 814.274 450.967 814.386C453.512 814.475 456.078 814.609 458.622 814.854C456.078 815.1 453.512 815.234 450.967 815.323C448.423 815.435 445.857 815.457 443.313 815.457C440.746 815.457 438.202 815.435 435.658 815.323C433.114 815.234 430.547 815.1 428.003 814.854Z" fill="#0F1944"/>
<path d="M388.011 763.459H372.969V787.896H388.011V763.459Z" fill="#4A3243"/>
<path d="M433.962 890.44C422.625 890.44 404.838 891.846 384.708 899.456C366.028 906.53 352.526 916.238 344.157 923.313H332.15C340.564 913.226 354.512 898.898 375.133 886.579C396.313 873.925 416.041 868.457 429.097 865.891C430.726 874.059 432.333 882.249 433.962 890.417V890.44Z" fill="#4A3243"/>
<path d="M337.908 934.023H340.251V920.856H337.908V934.023Z" fill="#4A3243"/>
<path d="M428.494 867.186C428.74 869.172 428.874 871.18 428.963 873.167C429.074 875.153 429.097 877.161 429.097 879.148C429.097 881.134 429.074 883.142 428.963 885.129C428.874 887.115 428.74 889.123 428.494 891.11C428.249 889.123 428.115 887.115 428.025 885.129C427.914 883.142 427.892 881.134 427.892 879.148C427.892 877.161 427.914 875.153 428.025 873.167C428.115 871.18 428.249 869.172 428.494 867.186Z" fill="#0F1944"/>
<path d="M328.914 935.073C328.914 940.697 333.467 945.25 339.091 945.25C344.715 945.25 349.267 940.697 349.267 935.073C349.267 929.449 344.715 924.896 339.091 924.896C333.467 924.896 328.914 929.449 328.914 935.073Z" fill="#54394C"/>
<path d="M435.39 890.445C446.727 890.445 479.355 899.907 498.57 923.318H510.577C507.541 913.231 496.851 892.052 476.23 879.732C455.051 867.078 453.31 868.462 440.277 865.918C438.648 874.086 437.041 882.277 435.412 890.445H435.39Z" fill="#4A3243"/>
<path d="M504.796 920.84H502.453V934.007H504.796V920.84Z" fill="#4A3243"/>
<path d="M444.16 867.191C444.406 869.178 444.54 871.186 444.629 873.172C444.74 875.159 444.763 877.167 444.763 879.153C444.763 881.14 444.74 883.148 444.629 885.135C444.54 887.121 444.406 889.129 444.16 891.116C443.915 889.129 443.781 887.121 443.692 885.135C443.58 883.148 443.558 881.14 443.558 879.153C443.558 877.167 443.58 875.159 443.692 873.172C443.781 871.186 443.915 869.178 444.16 867.191Z" fill="#0F1944"/>
<path d="M513.812 935.079C513.812 940.703 509.26 945.256 503.636 945.256C498.012 945.256 493.459 940.703 493.459 935.079C493.459 929.455 498.012 924.902 503.636 924.902C509.26 924.902 513.812 929.455 513.812 935.079Z" fill="#54394C"/>
<path d="M496.182 897.27C492.701 893.387 488.974 889.727 484.934 886.469C482.904 884.862 480.828 883.3 478.641 881.894C476.476 880.488 474.2 879.216 471.946 877.899C467.46 875.265 462.907 872.699 458.176 870.623C453.467 868.459 448.29 867.566 443.201 866.428C445.79 866.762 448.379 867.097 450.968 867.544C453.556 868.035 456.101 868.793 458.533 869.753C463.443 871.695 467.996 874.283 472.571 876.828C477.079 879.461 481.609 882.228 485.537 885.732C489.51 889.169 493.103 893.03 496.205 897.248L496.182 897.27Z" fill="#0F1944"/>
<path d="M389.93 897.629C392.251 895.844 394.862 894.46 397.518 893.277C400.196 892.095 402.985 891.157 405.82 890.376C408.676 889.707 411.555 889.104 414.479 888.859C417.38 888.568 420.326 888.546 423.227 888.747C420.326 889.059 417.447 889.283 414.59 889.774C411.734 890.198 408.899 890.8 406.132 891.537C403.32 892.206 400.597 893.144 397.897 894.125C395.197 895.13 392.541 896.268 389.952 897.629H389.93Z" fill="#0F1944"/>
<path d="M451.369 686.975H520.173C524.614 686.975 528.207 690.568 528.207 695.009V702.307C528.207 706.279 524.994 709.493 521.021 709.493H450.499C446.526 709.493 443.312 706.279 443.312 702.307V695.009C443.312 690.568 446.906 686.975 451.347 686.975H451.369Z" fill="#4356A6"/>
<path d="M521.021 709.491H450.499C446.526 709.491 443.312 706.277 443.312 702.305V698.221H528.185V702.305C528.185 706.277 524.971 709.491 520.999 709.491H521.021Z" fill="#4A3243"/>
<path d="M443.647 699.872C450.7 699.649 457.73 699.493 464.782 699.403L485.916 699.27L507.051 699.403C514.103 699.493 521.133 699.649 528.185 699.872C521.133 700.095 514.103 700.252 507.051 700.341L485.916 700.475L464.782 700.341C457.73 700.252 450.7 700.095 443.647 699.872Z" fill="#0F1944"/>
<path d="M340.764 623.24C340.764 605.966 350.852 591.951 363.283 591.951C375.713 591.951 385.801 605.966 385.801 623.24H340.742H340.764Z" fill="#4A3243"/>
<path d="M340.764 623.24C340.72 616.187 342.171 608.934 345.875 602.752C347.728 599.695 350.115 596.905 353.084 594.83C356.03 592.732 359.623 591.438 363.305 591.438C366.987 591.438 370.58 592.71 373.571 594.74C376.584 596.794 379.039 599.561 380.936 602.618C384.707 608.8 386.336 616.076 386.359 623.24C386.359 623.53 386.113 623.775 385.823 623.775C378.258 623.775 370.67 623.664 363.149 623.574L340.764 623.24ZM340.764 623.24L363.439 622.905C370.937 622.816 378.391 622.704 385.823 622.704L385.287 623.24C385.221 616.254 383.547 609.202 379.909 603.266C378.101 600.297 375.78 597.642 372.924 595.678C370.089 593.714 366.742 592.531 363.283 592.486C359.846 592.486 356.454 593.669 353.597 595.588C350.718 597.508 348.33 600.164 346.455 603.132C342.751 609.09 340.921 616.165 340.742 623.24H340.764Z" fill="#0F1944"/>
<path d="M535.505 591.947C536.487 593.755 537.357 595.607 538.205 597.482C539.076 599.334 539.834 601.231 540.615 603.128C541.352 605.025 542.111 606.944 542.758 608.886C543.427 610.828 544.075 612.769 544.588 614.756C543.584 612.948 542.736 611.096 541.888 609.221C541.017 607.369 540.258 605.472 539.477 603.575C538.741 601.678 537.982 599.758 537.335 597.817C536.665 595.875 536.018 593.934 535.482 591.947H535.505Z" fill="#0F1944"/>
<path d="M525.597 842.394C530.239 842.148 534.858 842.014 539.5 841.925L553.404 841.791L567.308 841.925C571.95 842.014 576.569 842.148 581.211 842.394C576.569 842.639 571.95 842.773 567.308 842.862L553.404 842.996L539.5 842.862C534.858 842.773 530.239 842.639 525.597 842.394Z" fill="#0F1944"/>
<path d="M467.215 842.394C471.857 842.148 476.477 842.014 481.118 841.925L495.022 841.791L508.926 841.925C513.568 842.014 518.188 842.148 522.83 842.394C518.188 842.639 513.568 842.773 508.926 842.862L495.022 842.996L481.118 842.862C476.477 842.773 471.857 842.639 467.215 842.394Z" fill="#0F1944"/>
<path d="M497.811 662.182C494.642 666.043 490.87 669.368 486.831 672.314C482.769 675.237 478.306 677.625 473.597 679.411C468.888 681.196 463.822 681.999 458.8 682.044C453.734 682.2 448.802 680.772 444.183 679.053L447.798 679.969L449.583 680.437C450.186 680.549 450.811 680.593 451.436 680.66L455.096 681.129H458.778C463.666 680.884 468.575 680.102 473.173 678.272C477.792 676.599 482.167 674.255 486.295 671.555C490.402 668.81 494.285 665.708 497.811 662.182Z" fill="#0F1944"/>
<path d="M492.701 648.812C491.339 652.026 489.353 654.972 487.054 657.628C484.756 660.284 482.011 662.56 479.043 664.479C476.03 666.309 472.794 667.804 469.357 668.608C467.661 669.099 465.92 669.277 464.179 669.501C462.439 669.679 460.675 669.59 458.957 669.568C462.416 669.188 465.853 668.809 469.111 667.693C470.763 667.247 472.347 666.555 473.932 665.908C475.449 665.126 477.012 664.412 478.418 663.43C481.341 661.667 483.997 659.458 486.385 656.981C488.773 654.503 490.915 651.781 492.723 648.812H492.701Z" fill="#0F1944"/>
<path d="M604.176 642.499C604.176 642.499 617.745 650.31 637.228 643.548C642.182 641.16 640.843 650.645 644.615 650.645C651.31 650.645 644.235 634.063 636.134 631.43C628.033 628.818 609.71 625.962 604.176 628.841" fill="#F6CABB"/>
<path d="M625.422 646.113L632.519 644.305C633.679 644.015 634.84 643.636 635.956 643.256C637.071 642.855 638.165 642.386 639.013 641.694L639.08 641.649C639.281 641.493 639.549 641.515 639.705 641.716V641.761C640.687 643.212 641.356 644.952 641.222 646.671C640.843 645.019 639.995 643.569 638.968 642.319L639.683 642.363C638.723 643.368 637.54 643.926 636.38 644.372C635.197 644.818 633.992 645.153 632.787 645.421C630.354 645.912 627.899 646.18 625.422 646.113Z" fill="#0F1944"/>
<path d="M630.041 645.422C630.354 645.734 630.465 646.114 630.577 646.471C630.689 646.85 630.666 647.207 630.644 647.587C630.599 647.944 630.532 648.301 630.354 648.636C630.198 648.97 629.997 649.305 629.662 649.573C629.372 648.769 629.372 648.122 629.439 647.453C629.528 646.783 629.662 646.158 630.041 645.422Z" fill="#0F1944"/>
<path d="M451.034 484.448H447.129C429.521 484.448 415.126 470.053 415.126 452.445V425.374C415.126 407.766 429.521 393.371 447.129 393.371H451.034C468.643 393.371 483.037 407.766 483.037 425.374L481.185 463.157C479.824 480.766 468.643 484.448 451.034 484.448Z" fill="#F6CABB"/>
<path d="M460.809 498.754C456.837 500.138 449.785 502.102 440.768 501.945C432.779 501.811 426.508 500.071 422.691 498.754V452.49H460.809V498.754Z" fill="#F6CABB"/>
<path d="M467.125 451.282H472.37C472.37 451.282 471.433 444.453 474.78 441.105C478.128 437.758 476.32 431.531 476.32 428.05C487.903 429.5 487.323 430.973 490.291 428.005C493.259 425.037 493.75 413.61 488.662 408.5C483.573 403.389 484.957 395.109 478.507 395.109C472.058 395.109 464.804 374.734 447.33 382.88C429.878 391.025 421.643 379.666 415.126 393.346C408.61 407.027 395.532 410.798 403.097 423.899C410.663 436.999 397.562 461.726 406.579 468.132C415.595 474.537 415.595 493.752 438.001 481.812C442.666 479.781 460.408 483.843 460.408 469.292C460.408 454.741 455.163 441.931 462.149 438.874C469.134 435.816 467.125 451.237 467.125 451.237V451.282Z" fill="#734A27"/>
<path d="M467.415 447.645C467.415 453.76 464.893 458.692 461.791 458.692C458.689 458.692 456.167 453.737 456.167 447.645C456.167 441.552 458.689 436.598 461.791 436.598C464.893 436.598 467.415 441.552 467.415 447.645Z" fill="#F6CABB"/>
<path d="M460.81 477.213C461.055 478.552 461.189 479.869 461.278 481.208C461.39 482.547 461.412 483.863 461.412 485.203C461.412 486.542 461.39 487.858 461.278 489.197C461.189 490.536 461.055 491.853 460.81 493.192C460.564 491.853 460.43 490.536 460.341 489.197C460.229 487.858 460.207 486.542 460.207 485.203C460.207 483.863 460.229 482.547 460.341 481.208C460.43 479.869 460.564 478.552 460.81 477.213Z" fill="#0F1944"/>
<path d="M448 424.256C446.995 427.135 446.125 430.058 445.612 433.004C445.165 435.905 444.853 439.074 446.214 441.551C446.839 442.645 448.133 443.805 448.892 445.189C449.696 446.551 450.276 448.023 450.655 449.519C451.436 452.532 451.682 455.634 451.392 458.669C451.169 455.634 450.7 452.621 449.763 449.787C449.249 448.381 448.736 446.997 447.955 445.747C447.218 444.453 446.103 443.627 445.165 442.109C444.34 440.636 444.183 438.985 444.139 437.423C444.139 435.838 444.34 434.298 444.697 432.781C445.411 429.768 446.527 426.889 448 424.211V424.256Z" fill="#0F1944"/>
<path d="M439.675 436.576L439.05 441.687C438.871 443.383 438.648 445.057 438.514 446.753C438.38 448.427 438.313 450.123 438.38 451.774C438.469 453.426 438.715 455.122 439.697 456.55C438.313 455.434 437.733 453.582 437.465 451.864C437.175 450.123 437.197 448.36 437.331 446.641C437.51 444.923 437.755 443.204 438.157 441.508C438.559 439.835 439.027 438.161 439.697 436.576H439.675Z" fill="#0F1944"/>
<path d="M426.463 451.018C426.239 453.339 426.172 455.548 426.552 457.69C426.708 458.762 427.02 459.811 427.422 460.837C427.802 461.886 428.404 462.801 429.007 463.828C428.069 463.158 427.177 462.31 426.596 461.261C425.972 460.235 425.547 459.074 425.369 457.891C425.19 456.708 425.168 455.503 425.369 454.343C425.57 453.182 425.882 452.044 426.485 451.018H426.463Z" fill="#0F1944"/>
<path d="M419.879 456.549C419.79 460.454 419.611 464.293 419.656 468.154C419.656 470.073 419.768 471.97 419.991 473.867L420.192 475.273L420.526 476.657C420.638 477.125 420.839 477.549 420.995 477.996C421.196 478.42 421.486 478.799 421.709 479.245C420.169 477.951 419.477 475.92 419.031 474.023C418.585 472.082 418.451 470.118 418.406 468.154C418.406 466.19 418.495 464.226 418.763 462.307C419.009 460.365 419.321 458.446 419.857 456.549H419.879Z" fill="#0F1944"/>
<path d="M411.243 426.287C412.336 429.367 413.117 432.58 413.452 435.883C413.631 437.535 413.631 439.209 413.34 440.905L413.028 442.177C412.872 442.578 412.671 443.002 412.47 443.404L411.644 444.475C411.421 444.766 411.153 445.033 410.975 445.368C409.256 447.957 408.542 451.215 408.029 454.362C407.783 455.946 407.672 457.576 407.739 459.182C407.783 460.767 407.962 462.441 408.899 463.802C407.716 462.619 407.382 460.834 407.136 459.227C406.958 457.576 406.958 455.902 407.092 454.25C407.449 450.97 408.14 447.644 409.948 444.676C410.149 444.297 410.484 443.984 410.774 443.65C411.064 443.315 411.22 443.069 411.466 442.779L411.934 441.775L412.247 440.659C412.559 439.142 412.537 437.512 412.515 435.906C412.381 432.692 411.845 429.456 411.243 426.242V426.287Z" fill="#0F1944"/>
<path d="M419.031 416.691C420.08 418.321 420.928 420.084 421.665 421.869C422.423 423.654 423.004 425.529 423.45 427.426C423.874 429.323 424.187 431.287 424.12 433.251C424.075 435.215 423.74 437.246 422.691 438.897C423.272 437.045 423.316 435.148 423.205 433.273C423.048 431.398 422.736 429.524 422.29 427.694C421.441 423.989 420.236 420.374 419.054 416.691H419.031Z" fill="#0F1944"/>
<path d="M430.77 409.704C429.654 413.699 428.627 417.694 428.27 421.733C427.869 425.75 428.226 429.923 430.77 433.316C429.141 431.999 428.069 430.035 427.512 427.959C426.909 425.884 426.909 423.719 427.065 421.621C427.266 419.524 427.668 417.448 428.337 415.439C428.984 413.453 429.743 411.489 430.77 409.682V409.704Z" fill="#0F1944"/>
<path d="M438.716 402.721C439.43 404.595 439.965 406.537 440.389 408.501C440.836 410.465 441.126 412.451 441.327 414.46C441.505 416.468 441.572 418.499 441.349 420.508C441.148 422.516 440.769 424.592 439.631 426.288C440.278 424.391 440.389 422.405 440.412 420.441C440.412 418.477 440.322 416.513 440.099 414.549C439.742 410.621 439.162 406.693 438.671 402.721H438.716Z" fill="#0F1944"/>
<path d="M413.073 407.094C412.582 409.66 412.314 412.137 412.559 414.592C412.649 415.82 412.983 417.003 413.385 418.163C413.764 419.346 414.479 420.395 415.148 421.511C414.121 420.73 413.14 419.77 412.537 418.543C411.89 417.36 411.488 416.043 411.354 414.704C411.243 413.365 411.309 412.026 411.622 410.731C411.912 409.437 412.358 408.187 413.073 407.094Z" fill="#0F1944"/>
<path d="M451.414 416.691C452.151 417.74 452.753 418.856 453.333 419.994C453.914 421.11 454.382 422.293 454.851 423.476C455.275 424.681 455.654 425.886 455.922 427.136C456.168 428.386 456.391 429.68 456.168 430.952C455.878 429.702 455.453 428.564 455.007 427.381L453.69 423.878C452.842 421.534 451.994 419.169 451.414 416.691Z" fill="#0F1944"/>
<path d="M460.81 409.703C461.948 411.265 462.93 412.917 463.845 414.591C464.782 416.264 465.585 418.005 466.322 419.791C467.036 421.576 467.683 423.406 468.063 425.325C468.241 426.285 468.375 427.245 468.375 428.249C468.33 429.208 468.174 430.324 467.415 430.971C467.951 430.168 467.929 429.186 467.795 428.293C467.683 427.378 467.438 426.463 467.17 425.571C466.59 423.785 465.943 422.022 465.206 420.282C463.8 416.778 462.216 413.319 460.832 409.748L460.81 409.703Z" fill="#0F1944"/>
<path d="M451.414 401.561C452.039 403.056 452.574 404.506 453.289 405.912C454.003 407.318 454.695 408.702 455.52 410.019C457.105 412.719 458.913 415.263 460.809 417.852C459.493 416.915 458.355 415.777 457.306 414.549C456.234 413.344 455.319 412.005 454.471 410.644C452.842 407.876 451.637 404.752 451.392 401.561H451.414Z" fill="#0F1944"/>
<path d="M460.81 401.561C461.903 401.449 463.019 401.784 464.023 402.23C465.05 402.677 465.943 403.368 466.746 404.127C467.549 404.886 468.219 405.779 468.777 406.716C469.045 407.185 469.29 407.676 469.536 408.167C469.714 408.68 469.915 409.193 470.049 409.706C469.312 408.881 468.688 408.055 468.018 407.252C467.304 406.493 466.679 405.689 465.92 404.998C465.206 404.283 464.425 403.636 463.599 403.034C462.751 402.453 461.858 401.94 460.854 401.561H460.81Z" fill="#0F1944"/>
<path d="M470.026 402.722C471.187 402.387 472.459 402.521 473.619 402.878C474.802 403.235 475.874 403.949 476.766 404.775C477.659 405.623 478.351 406.65 478.886 407.743C479.132 408.301 479.333 408.859 479.556 409.417C479.69 409.997 479.846 410.577 479.913 411.158C479.266 410.153 478.73 409.149 478.061 408.212C477.391 407.297 476.722 406.404 475.918 405.668C474.334 404.15 472.37 403.057 470.026 402.722Z" fill="#0F1944"/>
<path d="M473.218 414.304C474.892 415.553 476.498 416.691 478.15 417.852C479.779 419.035 481.453 420.151 483.037 421.512C482.011 421.267 481.051 420.865 480.114 420.419C479.176 419.972 478.284 419.437 477.436 418.834C476.61 418.209 475.784 417.562 475.07 416.803C474.356 416.044 473.664 415.241 473.218 414.281V414.304Z" fill="#0F1944"/>
<path d="M460.81 393.37C461.546 392.745 462.461 392.388 463.421 392.165C464.38 391.941 465.407 391.986 466.389 392.276C467.371 392.589 468.264 393.169 468.866 393.995C469.201 394.374 469.402 394.82 469.625 395.244C469.803 395.691 469.937 396.159 470.027 396.628C469.402 395.914 468.866 395.177 468.197 394.642C467.549 394.084 466.835 393.682 466.032 393.437C464.447 392.923 462.684 393.08 460.81 393.37Z" fill="#0F1944"/>
<path d="M549.944 257.816L573.511 340.39C579.894 339.944 585.875 338.069 591.12 335.057L577.752 258.464C575.431 258.062 573.065 257.816 570.632 257.816H549.944Z" fill="#E0E0E0"/>
<path d="M570.633 334.697H350.719C331.169 334.697 315.189 318.718 315.189 299.168C315.189 279.618 331.169 263.639 350.719 263.639H570.633C590.183 263.639 606.162 279.618 606.162 299.168C606.162 318.718 590.183 334.697 570.633 334.697Z" fill="#E4E4E4"/>
<path d="M357.748 281.65L362.904 292.095L374.419 293.769L366.095 301.892L368.059 313.363L357.748 307.94L347.46 313.363L349.424 301.892L341.1 293.769L352.593 292.095L357.748 281.65Z" fill="#F36648"/>
<path d="M405.686 281.65L410.841 292.095L422.357 293.769L414.032 301.892L415.996 313.363L405.686 307.94L395.398 313.363L397.361 301.892L389.037 293.769L400.553 292.095L405.686 281.65Z" fill="#F36648"/>
<path d="M453.646 281.65L458.779 292.095L470.294 293.769L461.97 301.892L463.934 313.363L453.646 307.94L443.335 313.363L445.299 301.892L436.975 293.769L448.49 292.095L453.646 281.65Z" fill="#F36648"/>
<path d="M501.583 281.65L506.716 292.095L518.232 293.769L509.907 301.892L511.871 313.363L501.583 307.94L491.273 313.363L493.236 301.892L484.912 293.769L496.428 292.095L501.583 281.65Z" fill="#F36648"/>
<path d="M780.125 4L785.28 14.4445L796.796 16.1183L788.449 24.2418L790.413 35.7129L780.125 30.2898L769.815 35.7129L771.801 24.2418L763.454 16.1183L774.97 14.4445L780.125 4Z" fill="#E4E4E4"/>
<path d="M276.401 331.127L281.557 341.549L293.072 343.223L284.726 351.346L286.69 362.818L276.401 357.394L266.091 362.818L268.055 351.346L259.73 343.223L271.246 341.549L276.401 331.127Z" fill="#4A3243"/>
<path d="M549.521 281.65L554.676 292.095L566.192 293.769L557.845 301.892L559.809 313.363L549.521 307.94L539.21 313.363L541.196 301.892L532.85 293.769L544.365 292.095L549.521 281.65Z" fill="#BDBDBD"/>
<path d="M534.233 329.541L578.779 462.708L505.422 329.541H534.233Z" fill="#E4E4E4"/>
<path d="M544.901 361.41L534.233 329.541H505.422L524.615 364.378C531.064 362.057 537.916 361.187 544.901 361.388V361.41Z" fill="#E4E4E4"/>
<path d="M544.901 361.409C537.915 361.208 531.086 362.057 524.614 364.4L565.946 439.408C567.463 438.761 568.892 438.002 570.231 437.132L544.901 361.409Z" fill="#E0E0E0"/>
<path d="M570.231 437.111C568.892 437.982 567.464 438.74 565.946 439.388L578.801 462.687L570.231 437.111Z" fill="#E4E4E4"/>
<path d="M745.935 203.383H663.183V263.639H745.935V203.383Z" fill="#FFB469"/>
<path d="M663.183 203.158L696.435 171.489C700.988 167.16 708.13 167.16 712.682 171.489L745.935 203.158" fill="#F89939"/>
<path d="M732.388 259.557H676.729V196.287H722.501C726.362 200.148 728.527 202.313 732.365 206.151V259.557H732.388Z" fill="#E4E4E4"/>
<path d="M722.501 196.287V206.151H732.388L722.501 196.287Z" fill="#BDBDBD"/>
<path d="M725.537 209.521H683.58V211.776H725.537V209.521Z" fill="#BDBDBD"/>
<path d="M725.537 213.783H683.58V216.037H725.537V213.783Z" fill="#BDBDBD"/>
<path d="M725.537 218.047H683.58V220.301H725.537V218.047Z" fill="#BDBDBD"/>
<path d="M725.537 222.309H683.58V224.563H725.537V222.309Z" fill="#BDBDBD"/>
<path d="M725.537 226.572H683.58V228.826H725.537V226.572Z" fill="#BDBDBD"/>
<path d="M725.537 230.836H683.58V233.09H725.537V230.836Z" fill="#BDBDBD"/>
<path d="M725.537 235.098H683.58V237.352H725.537V235.098Z" fill="#BDBDBD"/>
<path d="M725.537 239.361H683.58V241.615H725.537V239.361Z" fill="#BDBDBD"/>
<path d="M725.537 243.625H683.58V245.879H725.537V243.625Z" fill="#BDBDBD"/>
<path d="M725.537 247.883H683.58V250.137H725.537V247.883Z" fill="#BDBDBD"/>
<path d="M725.537 252.146H683.58V254.401H725.537V252.146Z" fill="#BDBDBD"/>
<path d="M488.505 121.032H432.846V46.0684H478.618C482.479 49.9292 484.644 52.094 488.483 55.9326V121.01L488.505 121.032Z" fill="#E4E4E4"/>
<path d="M478.641 46.0684V55.9326H488.505L478.641 46.0684Z" fill="#BDBDBD"/>
<path d="M481.654 59.3027H439.697V61.5568H481.654V59.3027Z" fill="#BDBDBD"/>
<path d="M481.654 63.5645H439.697V65.8185H481.654V63.5645Z" fill="#BDBDBD"/>
<path d="M481.654 67.8281H439.697V70.0822H481.654V67.8281Z" fill="#BDBDBD"/>
<path d="M481.654 72.0898H439.697V74.3439H481.654V72.0898Z" fill="#BDBDBD"/>
<path d="M481.654 76.3535H439.697V78.6076H481.654V76.3535Z" fill="#BDBDBD"/>
<path d="M481.654 80.6172H439.697V82.8712H481.654V80.6172Z" fill="#BDBDBD"/>
<path d="M481.654 84.8789H439.697V87.133H481.654V84.8789Z" fill="#BDBDBD"/>
<path d="M481.654 89.1426H439.697V91.3966H481.654V89.1426Z" fill="#BDBDBD"/>
<path d="M481.654 93.4277H439.697V95.6818H481.654V93.4277Z" fill="#BDBDBD"/>
<path d="M481.654 97.6895H439.697V99.9435H481.654V97.6895Z" fill="#BDBDBD"/>
<path d="M481.654 101.949H439.697V104.203H481.654V101.949Z" fill="#BDBDBD"/>
<path d="M745.935 263.639H663.183V203.383L704.559 234.672L745.935 203.383V263.639Z" fill="#F89939"/>
<path d="M745.935 263.64H663.183L696.435 231.972C700.988 227.642 708.13 227.642 712.682 231.972L745.935 263.64Z" fill="#F36648"/>
<path d="M663.183 263.64L696.435 231.972C700.988 227.642 708.13 227.642 712.682 231.972L745.935 263.64" fill="#F89939"/>
<path d="M663.183 263.638C669.655 257.166 676.171 250.739 682.733 244.379L692.597 234.849C694.293 233.309 695.744 231.591 697.752 230.185C699.761 228.846 702.149 228.132 704.559 228.109C706.969 228.109 709.357 228.846 711.366 230.185C713.374 231.613 714.825 233.309 716.521 234.849L726.408 244.379C732.969 250.739 739.485 257.166 745.957 263.638C739.173 257.501 732.433 251.297 725.76 245.048L715.762 235.653C714.088 234.135 712.481 232.35 710.741 231.145C708.933 229.939 706.746 229.337 704.581 229.314C702.416 229.314 700.252 229.939 698.422 231.145C696.659 232.35 695.074 234.135 693.4 235.653L683.402 245.048C676.729 251.297 669.989 257.479 663.205 263.638H663.183Z" fill="#0F1944"/>
<path d="M663.183 203.383C666.307 205.414 669.342 207.578 672.355 209.743C675.39 211.908 678.336 214.162 681.327 216.349C684.272 218.626 687.218 220.857 690.142 223.178C693.043 225.499 695.944 227.82 698.756 230.275C695.632 228.244 692.597 226.079 689.584 223.937C686.571 221.772 683.603 219.541 680.612 217.331C677.689 215.055 674.721 212.823 671.797 210.502C668.896 208.181 665.995 205.86 663.183 203.405V203.383Z" fill="#0F1944"/>
<path d="M710.718 230.006C713.507 227.596 716.364 225.275 719.243 222.977C722.122 220.678 725.068 218.468 727.969 216.214C730.937 214.027 733.861 211.818 736.851 209.675C739.842 207.533 742.855 205.413 745.935 203.404C743.145 205.815 740.288 208.136 737.409 210.434C734.53 212.733 731.584 214.942 728.683 217.196C725.715 219.383 722.791 221.593 719.801 223.735C716.81 225.878 713.798 227.998 710.718 230.029V230.006Z" fill="#0F1944"/>
<path d="M680.969 297.494L661.33 479.893L716.588 297.494H680.969Z" fill="#E4E4E4"/>
<path d="M900.505 36.8535H858.749C822.389 36.8535 792.913 66.3293 792.913 102.689V144.445C792.913 180.805 822.389 210.281 858.749 210.281H900.505C936.865 210.281 966.341 180.805 966.341 144.445V102.689C966.341 66.3293 936.865 36.8535 900.505 36.8535Z" fill="#E4E4E4"/>
<path d="M740.735 338.893C730.402 349.471 724.019 363.911 724.019 379.868V417.07C724.019 422.315 724.711 427.403 726.006 432.224C744.529 428.943 758.656 412.786 758.656 393.325V371.945C758.656 358.131 751.514 345.945 740.735 338.871V338.893ZM676.528 338.648L667.869 419.191C670.57 422.315 673.761 424.993 677.309 427.158L706.009 332.443H697.73C689.919 332.443 682.666 334.742 676.528 338.67V338.648Z" fill="#E0E0E0"/>
<path d="M719.109 338.244H697.729C679.118 338.244 664.03 353.332 664.03 371.943V393.323C664.03 411.935 679.118 427.022 697.729 427.022H719.109C737.721 427.022 752.808 411.935 752.808 393.323V371.943C752.808 353.332 737.721 338.244 719.109 338.244Z" fill="#E4E4E4"/>
<path d="M695.163 423.967L673.448 517.342L713.419 423.967H695.163Z" fill="#E4E4E4"/>
<path d="M729.598 367.215H687.24V398.057H729.598V367.215Z" fill="#FFB469"/>
<path d="M687.24 367.215H729.621V398.08L708.442 382.056L687.24 398.08V367.215Z" fill="#FFB469"/>
<path d="M687.24 367.215H729.598L712.57 383.417C710.249 385.627 706.589 385.627 704.246 383.417L687.218 367.215H687.24Z" fill="#F36648"/>
<path d="M729.621 367.215L712.593 383.417C710.272 385.627 706.612 385.627 704.268 383.417L687.24 367.215" fill="#FFB469"/>
<path d="M729.621 367.215C726.407 370.629 723.104 373.932 719.779 377.235C718.128 378.909 716.431 380.516 714.758 382.145C713.887 382.948 713.173 383.797 712.08 384.578C711.008 385.292 709.736 385.671 708.442 385.694C707.147 385.694 705.875 385.292 704.804 384.578C703.711 383.797 703.019 382.948 702.126 382.145C700.452 380.516 698.734 378.909 697.105 377.235C693.779 373.932 690.476 370.629 687.263 367.215C690.833 370.25 694.293 373.397 697.752 376.566C699.493 378.128 701.189 379.757 702.907 381.342C703.755 382.1 704.626 383.038 705.451 383.596C706.344 384.176 707.393 384.466 708.442 384.466C709.491 384.466 710.54 384.176 711.432 383.596C712.28 383.038 713.128 382.1 713.976 381.342C715.695 379.757 717.369 378.128 719.132 376.566C722.591 373.397 726.072 370.272 729.621 367.215Z" fill="#0F1944"/>
<path d="M729.621 398.078C727.947 397.141 726.363 396.07 724.778 394.999C723.194 393.95 721.676 392.811 720.136 391.673C718.619 390.513 717.123 389.352 715.673 388.125C714.222 386.897 712.772 385.67 711.41 384.309C713.084 385.246 714.668 386.317 716.253 387.366C717.837 388.415 719.355 389.553 720.895 390.691C722.413 391.852 723.908 393.012 725.358 394.24C726.809 395.467 728.26 396.695 729.621 398.056V398.078Z" fill="#0F1944"/>
<path d="M705.273 384.445C703.911 385.784 702.483 387.012 701.055 388.217C699.626 389.444 698.131 390.583 696.636 391.743C695.118 392.859 693.623 393.997 692.038 395.046C690.476 396.095 688.914 397.144 687.24 398.081C688.579 396.742 690.03 395.515 691.458 394.31C692.887 393.082 694.382 391.944 695.877 390.783C697.395 389.668 698.89 388.529 700.474 387.48C702.037 386.432 703.599 385.383 705.273 384.445Z" fill="#0F1944"/>
<path d="M902.535 272.656H860.177V303.499H902.535V272.656Z" fill="#F89939"/>
<path d="M860.177 272.656H902.535V303.521L881.356 287.497L860.177 303.521V272.656Z" fill="#F89939"/>
<path d="M860.177 272.656H902.535L885.507 288.859C883.186 291.068 879.526 291.068 877.182 288.859L860.154 272.656H860.177Z" fill="#F36648"/>
<path d="M902.535 272.656L885.507 288.859C883.186 291.068 879.526 291.068 877.182 288.859L860.154 272.656" fill="#F89939"/>
<path d="M902.535 272.656C899.321 276.071 896.018 279.374 892.693 282.677C891.042 284.351 889.345 285.957 887.672 287.587C886.801 288.39 886.087 289.238 884.994 290.019C883.922 290.733 882.65 291.113 881.356 291.135C880.062 291.135 878.789 290.733 877.718 290.019C876.625 289.238 875.933 288.39 875.04 287.587C873.366 285.957 871.648 284.351 870.019 282.677C866.693 279.374 863.39 276.071 860.177 272.656C863.748 275.691 867.207 278.838 870.666 282.007C872.407 283.569 874.103 285.199 875.821 286.783C876.669 287.542 877.54 288.479 878.365 289.037C879.258 289.617 880.307 289.907 881.356 289.907C882.405 289.907 883.454 289.617 884.346 289.037C885.194 288.479 886.042 287.542 886.891 286.783C888.609 285.199 890.283 283.569 892.046 282.007C895.505 278.838 898.987 275.714 902.535 272.656Z" fill="#0F1944"/>
<path d="M902.535 303.522C900.861 302.584 899.277 301.513 897.692 300.442C896.108 299.393 894.59 298.255 893.05 297.117C891.533 295.956 890.037 294.796 888.587 293.568C887.136 292.341 885.686 291.113 884.324 289.752C885.998 290.689 887.583 291.76 889.167 292.809C890.752 293.858 892.269 294.997 893.809 296.135C895.327 297.295 896.822 298.456 898.273 299.683C899.723 300.911 901.174 302.138 902.535 303.499V303.522Z" fill="#0F1944"/>
<path d="M878.209 289.887C876.848 291.226 875.419 292.453 873.991 293.658C872.563 294.886 871.068 296.024 869.572 297.184C868.055 298.3 866.56 299.439 864.975 300.487C863.413 301.536 861.851 302.585 860.177 303.523C861.516 302.184 862.966 300.956 864.395 299.751C865.823 298.524 867.318 297.385 868.814 296.225C870.331 295.109 871.826 293.971 873.411 292.922C874.973 291.873 876.535 290.824 878.209 289.887Z" fill="#0F1944"/>
<path d="M819.649 398.482L786.352 379.244V417.697L819.649 398.482Z" fill="#E4E4E4"/>
<path d="M359.333 357.873H346.589C335.497 357.873 326.504 366.866 326.504 377.959V390.702C326.504 401.795 335.497 410.787 346.589 410.787H359.333C370.426 410.787 379.418 401.795 379.418 390.702V377.959C379.418 366.866 370.426 357.873 359.333 357.873Z" fill="#17A9E1"/>
<path d="M366.943 384.443L342.461 370.316V398.592L366.943 384.443Z" fill="#E4E4E4"/>
<path d="M620.624 82.0879H607.88C596.788 82.0879 587.795 91.0805 587.795 102.173V114.917C587.795 126.01 596.788 135.002 607.88 135.002H620.624C631.717 135.002 640.709 126.01 640.709 114.917V102.173C640.709 91.0805 631.717 82.0879 620.624 82.0879Z" fill="#4356A6"/>
<path d="M628.256 108.555L603.752 94.4062V122.682L628.256 108.555Z" fill="#E4E4E4"/>
<path d="M745.555 449.094L710.718 526.066L766.489 462.529L745.555 449.094Z" fill="#E4E4E4"/>
<path d="M539.009 437.532L585.741 508.568L558.893 431.797L539.009 437.532Z" fill="#E4E4E4"/>
<path d="M541.129 443.269C519.66 443.269 502.274 425.862 502.274 404.415C502.274 382.946 519.66 365.561 541.129 365.561C562.598 365.561 579.983 382.968 579.983 404.415C579.983 425.884 562.576 443.269 541.129 443.269Z" fill="#E4E4E4"/>
<path d="M541.039 397.205H527.693V414.88H541.039V397.205Z" fill="#BDBDBD"/>
<path d="M555.122 416.935H543.606C541.33 416.935 539.5 415.105 539.5 412.828V399.237C539.5 396.961 541.33 395.131 543.606 395.131H557.577C560.143 395.131 562.085 397.452 561.616 399.974L559.162 413.565C558.804 415.529 557.108 416.957 555.122 416.957V416.935Z" fill="#BDBDBD"/>
<path d="M536.643 394.316H518.521V417.861H536.643V394.316Z" fill="#17A9E1"/>
<path d="M540.571 396.47L547.289 388.302C547.646 387.677 548.315 387.275 549.052 387.275C550.302 387.275 551.261 388.414 551.06 389.641L549.989 396.158L540.571 396.448V396.47Z" fill="#BDBDBD"/>
<path d="M386.18 162.309C381.27 157.4 373.303 157.4 368.393 162.309L367.344 163.358C362.435 168.268 362.435 176.235 367.344 181.145L386.203 200.003L405.061 181.145C409.97 176.235 409.97 168.268 405.061 163.358L404.012 162.309C399.102 157.4 391.135 157.4 386.225 162.309H386.18Z" fill="#17A9E1"/>
<path d="M639.459 360.275L641.222 474.25L622.521 365.877L639.459 360.275Z" fill="#E4E4E4"/>
<path d="M631.023 369.09C645.775 369.09 657.737 357.128 657.737 342.376C657.737 327.624 645.775 315.662 631.023 315.662C616.272 315.662 604.31 327.624 604.31 342.376C604.31 357.128 616.272 369.09 631.023 369.09Z" fill="#E4E4E4"/>
<path d="M631.023 333.325C628.233 330.535 623.681 330.535 620.891 333.325L620.289 333.927C617.499 336.717 617.499 341.27 620.289 344.059L631.023 354.794L641.758 344.059C644.547 341.27 644.547 336.717 641.758 333.927L641.155 333.325C638.366 330.535 633.813 330.535 631.023 333.325Z" fill="#17A9E1"/>
<path d="M726.586 80.7305L705.295 120.701L709.647 86.3098L726.586 80.7305Z" fill="#E4E4E4"/>
<path d="M718.128 89.5448C732.88 89.5448 744.842 77.5827 744.842 62.831C744.842 48.0793 732.88 36.1172 718.128 36.1172C703.376 36.1172 691.414 48.0793 691.414 62.831C691.414 77.5827 703.376 89.5448 718.128 89.5448Z" fill="#E4E4E4"/>
<path d="M836.632 98.0446C845.626 82.9134 861.984 73.5625 879.615 73.5625C885.73 73.5625 891.689 74.656 897.379 76.8208L879.035 121.902L836.632 98.0446Z" fill="#4356A6"/>
<path d="M881.356 122.392L899.545 77.7129C917.488 85.5016 929.16 102.842 929.606 122.392H881.356Z" fill="#FFB469"/>
<path d="M859.709 169.418C841.408 161.473 829.625 143.597 829.625 123.556C829.625 115.365 831.656 107.264 835.494 100.078L878.165 124.069L859.709 169.418Z" fill="#89D2DC"/>
<path d="M884.079 124.736H929.606C929.428 132.525 927.419 140.202 923.759 147.054L884.079 124.736Z" fill="#4A3243"/>
<path d="M879.615 173.567C873.5 173.567 867.541 172.473 861.851 170.309L880.195 125.25L922.598 149.107C913.604 164.238 897.246 173.589 879.615 173.589V173.567Z" fill="#F36648"/>
<path d="M729.732 49.1632L728.17 47.601L721.207 54.5639L722.211 55.5682C724.287 57.6437 724.287 61.036 722.211 63.1115L718.083 67.2402C716.007 69.3157 712.615 69.3157 710.539 67.2402L709.535 66.2359L702.572 73.1989L704.134 74.7611C707.683 78.3095 713.418 78.3095 716.967 74.7611L729.755 61.9733C733.303 58.4248 733.303 52.6893 729.755 49.1408L729.732 49.1632ZM720.515 53.8944L727.478 46.9314L727.01 46.4628C726.229 45.6817 724.956 45.6817 724.175 46.4628L720.024 50.6138C719.243 51.3949 719.243 52.667 720.024 53.4481L720.493 53.9167L720.515 53.8944ZM708.352 65.0977C707.571 64.3166 706.299 64.3166 705.518 65.0977L701.367 69.2487C700.586 70.0298 700.586 71.3019 701.367 72.083L701.836 72.5517L708.799 65.5887L708.33 65.12L708.352 65.0977Z" fill="#17A9E1"/>
<path d="M302.848 251.163L301.285 249.601L294.322 256.564L295.327 257.568C297.402 259.644 297.402 263.036 295.327 265.111L291.198 269.24C289.122 271.316 285.73 271.316 283.655 269.24L282.65 268.236L275.687 275.199L277.25 276.761C280.798 280.31 286.534 280.31 290.082 276.761L302.87 263.973C306.418 260.425 306.418 254.689 302.87 251.141L302.848 251.163ZM293.631 255.894L300.594 248.931L300.125 248.463C299.344 247.682 298.072 247.682 297.291 248.463L293.14 252.614C292.358 253.395 292.358 254.667 293.14 255.448L293.608 255.917L293.631 255.894ZM281.468 267.098C280.687 266.317 279.414 266.317 278.633 267.098L274.482 271.249C273.701 272.03 273.701 273.302 274.482 274.083L274.951 274.552L281.914 267.589L281.445 267.12L281.468 267.098Z" fill="#4356A6"/>
<path d="M329.539 92.166H249.911V175.878H329.539V92.166Z" fill="#17A9E1"/>
<path d="M289.725 117.809C278.075 117.809 268.657 108.369 268.657 96.7412V87.0109C268.657 75.3613 278.097 65.9434 289.725 65.9434C301.374 65.9434 310.792 75.3836 310.792 87.0109V96.7412C310.792 108.391 301.352 117.809 289.725 117.809Z" stroke="#17A9E1" stroke-width="2.23173" stroke-miterlimit="10"/>
<path d="M996 226.436H936.658V288.835H996V226.436Z" fill="#28A44A"/>
<path d="M966.34 245.541C957.659 245.541 950.629 238.511 950.629 229.83V222.577C950.629 213.895 957.659 206.865 966.34 206.865C975.022 206.865 982.052 213.895 982.052 222.577V229.83C982.052 238.511 975.022 245.541 966.34 245.541Z" fill="#28A44A" stroke="#E4E4E4" stroke-width="2.23173" stroke-miterlimit="10"/>
<path d="M564.874 21.832H524.123C514.238 21.832 506.225 29.8454 506.225 39.7305V55.3303C506.225 65.2153 514.238 73.2287 524.123 73.2287H564.874C574.759 73.2287 582.773 65.2153 582.773 55.3303V39.7305C582.773 29.8454 574.759 21.832 564.874 21.832Z" fill="#E4E4E4"/>
<path d="M544.499 68.6543L557.622 103.849L558.76 70.1496" fill="#E4E4E4"/>
<path d="M527.894 47.4188C527.894 49.8737 525.908 51.8376 523.475 51.8376C521.043 51.8376 519.057 49.8514 519.057 47.4188C519.057 44.9862 521.043 43 523.475 43C525.908 43 527.894 44.9862 527.894 47.4188Z" fill="#17A9E1"/>
<path d="M548.917 47.4188C548.917 49.8737 546.931 51.8376 544.498 51.8376C542.065 51.8376 540.079 49.8514 540.079 47.4188C540.079 44.9862 542.065 43 544.498 43C546.931 43 548.917 44.9862 548.917 47.4188Z" fill="#17A9E1"/>
<path d="M569.94 47.4188C569.94 49.8737 567.954 51.8376 565.521 51.8376C563.089 51.8376 561.103 49.8514 561.103 47.4188C561.103 44.9862 563.089 43 565.521 43C567.954 43 569.94 44.9862 569.94 47.4188Z" fill="#17A9E1"/>
<path d="M651.89 564.855H599.868V606.343H651.89V564.855Z" fill="#E4E4E4" stroke="#17A9E1" stroke-width="2.23173" stroke-miterlimit="10"/>
<path d="M599.868 563.518H609.174" stroke="#17A9E1" stroke-width="2.23173" stroke-miterlimit="10" stroke-linecap="square"/>
<path d="M673.069 590.299H639.348V617.213H673.069V590.299Z" fill="#E4E4E4" stroke="#17A9E1" stroke-width="2.23173" stroke-miterlimit="10"/>
<path d="M639.348 589.428H645.373" stroke="#17A9E1" stroke-width="2.23173" stroke-miterlimit="10" stroke-linecap="square"/>
<path d="M713.508 571.348H688.066V591.656H713.508V571.348Z" fill="#E4E4E4" stroke="#17A9E1" stroke-width="2.23173" stroke-miterlimit="10"/>
<path d="M688.066 570.703H692.597" stroke="#17A9E1" stroke-width="2.23173" stroke-miterlimit="10" stroke-linecap="square"/>
<defs>
<linearGradient id="paint0_linear_306_3438" x1="608.808" y1="561.669" x2="679.041" y2="652.595" gradientUnits="userSpaceOnUse">
<stop stop-color="#A7C8FF"/>
<stop offset="1" stop-color="#D8E9FF"/>
</linearGradient>
<linearGradient id="paint1_linear_306_3438" x1="603.98" y1="524.087" x2="737.968" y2="619.289" gradientUnits="userSpaceOnUse">
<stop stop-color="#D8E9FF"/>
<stop offset="1" stop-color="#A7C8FF"/>
</linearGradient>
<linearGradient id="paint2_linear_306_3438" x1="540.445" y1="646.867" x2="542.949" y2="674.78" gradientUnits="userSpaceOnUse">
<stop stop-color="#D8E9FF"/>
<stop offset="1" stop-color="#A7C8FF"/>
</linearGradient>
<linearGradient id="paint3_linear_306_3438" x1="657.664" y1="646.867" x2="664.345" y2="673.316" gradientUnits="userSpaceOnUse">
<stop stop-color="#D8E9FF"/>
<stop offset="1" stop-color="#A7C8FF"/>
</linearGradient>
<linearGradient id="paint4_linear_306_3438" x1="681.074" y1="653.481" x2="682.509" y2="658.014" gradientUnits="userSpaceOnUse">
<stop stop-color="#A7C8FF"/>
<stop offset="1" stop-color="#D8E9FF"/>
</linearGradient>
<linearGradient id="paint5_linear_306_3438" x1="694.307" y1="653.481" x2="695.742" y2="658.014" gradientUnits="userSpaceOnUse">
<stop stop-color="#A7C8FF"/>
<stop offset="1" stop-color="#D8E9FF"/>
</linearGradient>
<linearGradient id="paint6_linear_306_3438" x1="707.519" y1="653.481" x2="708.954" y2="658.014" gradientUnits="userSpaceOnUse">
<stop stop-color="#A7C8FF"/>
<stop offset="1" stop-color="#D8E9FF"/>
</linearGradient>
<linearGradient id="paint7_linear_306_3438" x1="604.445" y1="655.429" x2="604.992" y2="661.759" gradientUnits="userSpaceOnUse">
<stop stop-color="#A7C8FF"/>
<stop offset="1" stop-color="#D8E9FF"/>
</linearGradient>
<linearGradient id="paint8_linear_306_3438" x1="526.514" y1="655.429" x2="527.061" y2="661.759" gradientUnits="userSpaceOnUse">
<stop stop-color="#A7C8FF"/>
<stop offset="1" stop-color="#D8E9FF"/>
</linearGradient>
</defs>
</svg>
