<svg width="1200" height="1200" viewBox="0 0 1200 1200" fill="none" xmlns="http://www.w3.org/2000/svg">
<rect width="1200" height="1200" fill="white"/>
<g style="mix-blend-mode:multiply" opacity="0.2">
<path d="M900.08 1058.66C899.812 1061.94 818.444 1063.53 773.697 1063.84C721.609 1064.22 714.758 1062.95 666.173 1063.5C612.589 1064.13 608.684 1073.46 566.437 1074.44C512.697 1075.67 498.972 1073.52 395.754 1070.62C278.7 1067.32 217.819 1060.54 217.685 1058.66C217.551 1056.52 287.158 1053.42 349.758 1052.17C455.453 1050.07 463.108 1054.84 558.871 1054.29C673.582 1053.64 732.478 1046.39 848.505 1053.3C862.81 1054.15 900.237 1056.43 900.058 1058.66H900.08Z" fill="#9DBAB0"/>
</g>
<path d="M299.969 328.149L432.846 491.088L325.009 318.285L299.969 328.149Z" fill="#E4E4E4"/>
<mask id="mask0_174_2110" style="mask-type:luminance" maskUnits="userSpaceOnUse" x="299" y="318" width="134" height="174">
<path d="M299.969 328.151L432.846 491.09L325.009 318.287L299.969 328.151Z" fill="white"/>
</mask>
<g mask="url(#mask0_174_2110)">
<path d="M445.5 381.555H326.504V459.933H445.5V381.555Z" fill="#E0E0E0"/>
</g>
<path d="M310.592 165.369H268.836C232.476 165.369 203 194.845 203 231.205V272.961C203 309.321 232.476 338.797 268.836 338.797H310.592C346.952 338.797 376.428 309.321 376.428 272.961V231.205C376.428 194.845 346.952 165.369 310.592 165.369Z" fill="#E4E4E4"/>
<path d="M843.997 322.127L698.756 627.137L889.346 326.278L843.997 322.127Z" fill="#E4E4E4"/>
<path d="M410.216 331.52L490.112 513.182L380.512 341.317L410.216 331.52Z" fill="#E4E4E4"/>
<mask id="mask1_174_2110" style="mask-type:luminance" maskUnits="userSpaceOnUse" x="203" y="165" width="174" height="174">
<path d="M310.592 165.369H268.836C232.476 165.369 203 194.845 203 231.205V272.961C203 309.321 232.476 338.797 268.836 338.797H310.592C346.952 338.797 376.428 309.321 376.428 272.961V231.205C376.428 194.845 346.952 165.369 310.592 165.369Z" fill="white"/>
</mask>
<g mask="url(#mask1_174_2110)">
<path d="M386.18 352.831C357.123 352.831 333.489 329.197 333.489 300.14C333.489 271.083 357.123 247.449 386.18 247.449C415.237 247.449 438.871 271.083 438.871 300.14C438.871 329.197 415.237 352.831 386.18 352.831Z" fill="#E0E0E0"/>
</g>
<path d="M386.18 346.988C412.068 346.988 433.047 326.01 433.047 300.122C433.047 274.234 412.068 253.256 386.18 253.256C360.292 253.256 339.314 274.234 339.314 300.122C339.314 326.01 360.292 346.988 386.18 346.988Z" fill="#E4E4E4"/>
<path d="M431.462 379.816H405.061L457.729 462.39H467.772L431.462 379.816Z" fill="#E0E0E0"/>
<path d="M541.352 349.687L621.315 629.814L570.9 341.162L541.352 349.687Z" fill="#E4E4E4"/>
<path d="M727.746 252.07H685.991C649.63 252.07 620.155 281.546 620.155 317.906V359.662C620.155 396.022 649.63 425.498 685.991 425.498H727.746C764.106 425.498 793.582 396.022 793.582 359.662V317.906C793.582 281.546 764.106 252.07 727.746 252.07Z" fill="#E4E4E4"/>
<mask id="mask2_174_2110" style="mask-type:luminance" maskUnits="userSpaceOnUse" x="698" y="322" width="192" height="306">
<path d="M843.997 322.125L698.756 627.135L889.346 326.276L843.997 322.125Z" fill="white"/>
</mask>
<g mask="url(#mask2_174_2110)">
<path d="M884.302 501.868V539.071C884.302 574.645 855.423 603.524 819.85 603.524H782.647C747.073 603.524 718.195 574.645 718.195 539.071V501.868C718.195 466.295 747.073 437.416 782.647 437.416H819.85C855.423 437.416 884.302 466.295 884.302 501.868Z" fill="#E0E0E0"/>
</g>
<path d="M819.827 443.264H782.647C750.268 443.264 724.019 469.512 724.019 501.891V539.072C724.019 571.451 750.268 597.699 782.647 597.699H819.827C852.206 597.699 878.455 571.451 878.455 539.072V501.891C878.455 469.512 852.206 443.264 819.827 443.264Z" fill="#E4E4E4"/>
<path d="M544.499 358.21C512.608 358.21 486.742 332.344 486.742 300.452C486.742 268.561 512.608 242.695 544.499 242.695C576.39 242.695 602.256 268.561 602.256 300.452C602.256 332.344 576.39 358.21 544.499 358.21Z" fill="#E4E4E4"/>
<path d="M517.964 323.5C517.964 308.838 529.837 296.965 544.499 296.965C559.162 296.965 571.034 308.838 571.034 323.5C565.611 325.821 555.769 329.213 543.115 328.968C531.912 328.745 523.164 325.754 517.964 323.5Z" fill="#17A9E1"/>
<path d="M544.499 298.972C536.621 298.972 530.216 292.59 530.216 284.689C530.216 276.811 536.599 270.406 544.499 270.406C552.377 270.406 558.782 276.789 558.782 284.689C558.782 292.567 552.399 298.972 544.499 298.972Z" fill="#17A9E1"/>
<path d="M896.063 513.025C896.063 498.363 907.936 486.49 922.598 486.49C937.261 486.49 949.134 498.363 949.134 513.025C943.711 515.346 933.869 518.739 921.215 518.493C910.011 518.27 901.263 515.28 896.063 513.025Z" fill="#F89939"/>
<path d="M922.598 488.502C914.72 488.502 908.315 482.119 908.315 474.219C908.315 466.341 914.698 459.936 922.598 459.936C930.476 459.936 936.881 466.318 936.881 474.219C936.881 482.097 930.499 488.502 922.598 488.502Z" fill="#F89939"/>
<path d="M809.896 484.385H792.578C777.492 484.385 765.262 496.615 765.262 511.701V529.019C765.262 544.106 777.492 556.336 792.578 556.336H809.896C824.983 556.336 837.212 544.106 837.212 529.019V511.701C837.212 496.615 824.983 484.385 809.896 484.385Z" fill="#17A9E1"/>
<path style="mix-blend-mode:multiply" d="M594.356 668.645H717.212C719.98 668.645 722.234 670.899 722.234 673.666V771.282H589.357V673.666C589.357 670.899 591.611 668.645 594.378 668.645H594.356Z" fill="url(#paint0_linear_174_2110)"/>
<path d="M592.95 668.645H715.807C718.574 668.645 720.828 670.899 720.828 673.666V771.282H587.951V673.666C587.951 670.899 590.205 668.645 592.972 668.645H592.95Z" fill="url(#paint1_linear_174_2110)"/>
<path d="M718.15 764.183V676.342H590.606V764.183H718.15Z" fill="#E4E4E4"/>
<g opacity="0.5">
<path d="M644.101 681.521H631.849V696.965H644.101V681.521Z" fill="#D3D1E8"/>
<path d="M644.101 698.861H631.849V699.91H644.101V698.861Z" fill="#D3D1E8"/>
<path d="M665.548 681.521H653.296V696.965H665.548V681.521Z" fill="#D3D1E8"/>
<path d="M665.548 698.861H653.296V699.91H665.548V698.861Z" fill="#D3D1E8"/>
<path d="M686.995 681.521H674.743V696.965H686.995V681.521Z" fill="#D3D1E8"/>
<path d="M686.995 698.861H674.743V699.91H686.995V698.861Z" fill="#D3D1E8"/>
<path d="M708.419 681.521H696.167V696.965H708.419V681.521Z" fill="#D3D1E8"/>
<path d="M708.419 698.861H696.167V699.91H708.419V698.861Z" fill="#D3D1E8"/>
<path d="M644.101 707.451H631.849V722.895H644.101V707.451Z" fill="#D3D1E8"/>
<path d="M644.101 724.77H631.849V725.818H644.101V724.77Z" fill="#D3D1E8"/>
<path d="M665.548 707.451H653.296V722.895H665.548V707.451Z" fill="#D3D1E8"/>
<path d="M665.548 724.77H653.296V725.818H665.548V724.77Z" fill="#D3D1E8"/>
<path d="M686.995 707.451H674.743V722.895H686.995V707.451Z" fill="#D3D1E8"/>
<path d="M686.995 724.77H674.743V725.818H686.995V724.77Z" fill="#D3D1E8"/>
<path d="M708.419 707.451H696.167V722.895H708.419V707.451Z" fill="#D3D1E8"/>
<path d="M708.419 724.77H696.167V725.818H708.419V724.77Z" fill="#D3D1E8"/>
<path d="M644.101 733.367H631.849V748.811H644.101V733.367Z" fill="#D3D1E8"/>
<path d="M644.101 750.707H631.849V751.756H644.101V750.707Z" fill="#D3D1E8"/>
<path d="M665.548 733.367H653.296V748.811H665.548V733.367Z" fill="#D3D1E8"/>
<path d="M665.548 750.707H653.296V751.756H665.548V750.707Z" fill="#D3D1E8"/>
<path d="M686.995 733.367H674.743V748.811H686.995V733.367Z" fill="#D3D1E8"/>
<path d="M686.995 750.707H674.743V751.756H686.995V750.707Z" fill="#D3D1E8"/>
<path d="M708.419 733.367H696.167V748.811H708.419V733.367Z" fill="#D3D1E8"/>
<path d="M708.419 750.707H696.167V751.756H708.419V750.707Z" fill="#D3D1E8"/>
</g>
<path d="M718.15 764.185V759.543H590.607V764.185H718.15Z" fill="#D3D1E8"/>
<path d="M718.15 764.185V759.543H706.478V764.185H718.15Z" fill="#C0BED3"/>
<path d="M515.509 771.104H722.234V781.28H521.802C518.321 781.28 515.509 778.468 515.509 774.987V771.104Z" fill="url(#paint2_linear_174_2110)"/>
<path d="M648.81 771.104H722.212V781.28H655.103C651.622 781.28 648.81 778.468 648.81 774.987V771.104Z" fill="url(#paint3_linear_174_2110)"/>
<path d="M515.933 773.224L541.709 772.934L567.508 772.822L619.083 772.621L670.636 772.822L696.435 772.911L722.212 773.224L696.435 773.514L670.636 773.625L619.083 773.826L567.508 773.625L541.709 773.514L515.933 773.224Z" fill="#0F1944"/>
<path style="mix-blend-mode:multiply" d="M689.361 778.022C687.374 778.022 685.366 778.179 683.379 778.335L681.884 778.446L681.125 778.491C680.768 778.491 680.411 778.379 680.121 778.156C679.831 777.933 679.608 777.621 679.519 777.264C679.429 776.884 679.407 776.639 679.519 776.237C679.719 775.5 680.434 774.965 681.192 774.965C683.179 774.965 685.187 775.099 687.173 775.277L688.669 775.389C689.137 775.434 689.74 775.389 690.164 775.791C691.012 776.527 690.476 778.112 689.361 778.067V778.022ZM689.361 778.022C689.874 778.022 690.32 777.665 690.454 777.174C690.566 776.706 690.454 776.148 690.052 775.88C689.673 775.567 689.182 775.724 688.669 775.746L687.173 775.858C685.187 776.014 683.179 776.17 681.192 776.17C680.947 776.17 680.701 776.326 680.634 776.572C680.568 776.839 680.568 777.197 680.791 777.375C680.902 777.464 681.014 777.554 681.17 777.576L681.907 777.643L683.402 777.755C685.388 777.911 687.397 778.067 689.383 778.067L689.361 778.022Z" fill="url(#paint4_linear_174_2110)"/>
<path style="mix-blend-mode:multiply" d="M702.595 778.022C700.608 778.022 698.6 778.179 696.614 778.335L695.118 778.446L694.36 778.491C694.003 778.491 693.645 778.379 693.355 778.156C693.065 777.933 692.842 777.621 692.753 777.264C692.663 776.884 692.641 776.639 692.753 776.237C692.954 775.5 693.668 774.965 694.427 774.965C696.413 774.965 698.421 775.099 700.408 775.277L701.903 775.389C702.371 775.434 702.974 775.389 703.398 775.791C704.246 776.527 703.711 778.112 702.595 778.067V778.022ZM702.595 778.022C703.108 778.022 703.554 777.665 703.688 777.174C703.8 776.706 703.688 776.148 703.286 775.88C702.907 775.567 702.416 775.724 701.903 775.746L700.408 775.858C698.421 776.014 696.413 776.17 694.427 776.17C694.181 776.17 693.936 776.326 693.869 776.572C693.802 776.839 693.802 777.197 694.025 777.375C694.136 777.464 694.248 777.554 694.404 777.576L695.141 777.643L696.636 777.755C698.622 777.911 700.631 778.067 702.617 778.067L702.595 778.022Z" fill="url(#paint5_linear_174_2110)"/>
<path style="mix-blend-mode:multiply" d="M715.807 778.022C713.82 778.022 711.812 778.179 709.825 778.335L708.33 778.446L707.571 778.491C707.214 778.491 706.857 778.379 706.567 778.156C706.277 777.933 706.054 777.621 705.965 777.264C705.875 776.884 705.853 776.639 705.965 776.237C706.165 775.5 706.88 774.965 707.638 774.965C709.625 774.965 711.633 775.099 713.619 775.277L715.115 775.389C715.583 775.434 716.186 775.389 716.61 775.791C717.458 776.527 716.922 778.112 715.807 778.067V778.022ZM715.807 778.022C716.32 778.022 716.766 777.665 716.9 777.174C717.012 776.706 716.9 776.148 716.498 775.88C716.119 775.567 715.628 775.724 715.115 775.746L713.619 775.858C711.633 776.014 709.625 776.17 707.638 776.17C707.393 776.17 707.147 776.326 707.08 776.572C707.014 776.839 707.013 777.197 707.237 777.375C707.348 777.464 707.46 777.554 707.616 777.576L708.353 777.643L709.848 777.755C711.834 777.911 713.843 778.067 715.829 778.067L715.807 778.022Z" fill="url(#paint6_linear_174_2110)"/>
<path style="mix-blend-mode:multiply" d="M643.365 776.77H596.811C597.614 779.381 599.824 781.278 602.412 781.278H648.966C646.377 781.278 644.168 779.403 643.365 776.77Z" fill="url(#paint7_linear_174_2110)"/>
<path style="mix-blend-mode:multiply" d="M565.433 776.77H518.879C519.682 779.381 521.892 781.278 524.48 781.278H571.034C568.445 781.278 566.236 779.403 565.433 776.77Z" fill="url(#paint8_linear_174_2110)"/>
<path d="M574.092 773.223C574.672 774.361 575.23 775.499 575.721 776.66L575.386 776.414C580.274 776.079 585.161 776.079 590.026 776.414L589.692 776.637C590.249 775.477 590.897 774.339 591.566 773.223C591.209 774.472 590.83 775.722 590.383 776.927C590.339 777.061 590.227 777.128 590.093 777.151H590.049C585.161 777.485 580.274 777.485 575.408 777.151H575.364C575.23 777.151 575.118 777.039 575.074 776.905C574.694 775.7 574.404 774.472 574.114 773.223H574.092Z" fill="#0F1944"/>
<path d="M587.928 771.284C599.109 771.061 610.313 770.905 621.494 770.816L655.059 770.682L688.624 770.816C699.805 770.905 711.008 771.061 722.189 771.284C711.008 771.507 699.805 771.664 688.624 771.753L655.059 771.887L621.494 771.753C610.313 771.664 599.109 771.507 587.928 771.284Z" fill="#0F1944"/>
<path d="M655.728 671.882C655.728 672.596 655.371 673.511 654.367 673.712C653.363 673.913 652.336 672.908 652.403 671.882C652.358 670.833 653.363 669.851 654.367 670.052C655.371 670.253 655.728 671.168 655.728 671.882ZM655.728 671.882C655.773 671.101 654.947 670.453 654.367 670.654C653.787 670.833 653.63 671.413 653.608 671.882C653.608 672.35 653.787 672.931 654.367 673.109C654.947 673.31 655.773 672.663 655.728 671.882Z" fill="#0F1944"/>
<path d="M554.475 763.225C554.475 763.225 557.956 772.643 552.734 772.643C547.512 772.643 553.114 767.108 549.253 763.225C547.891 768.849 550.034 771.951 546.731 772.643C543.428 773.312 544.41 764.207 544.41 764.207C544.41 764.207 545.771 773.915 541.509 772.643C537.246 771.37 541.174 769.049 539.009 764.586" fill="#F6CABB"/>
<path d="M524.793 750.841L455.721 728.323L441.996 695.449C434.341 708.192 423.718 718.146 408.096 721.694C416.242 738.812 429.677 761.486 444.852 764.811C469.692 770.234 528.453 766.552 528.453 766.552L524.771 750.863L524.793 750.841Z" fill="#F6CABB"/>
<path d="M518.388 764.501C518.388 764.501 531.957 772.312 551.44 765.55C556.394 763.162 555.055 772.647 558.827 772.647C565.522 772.647 558.447 756.065 550.346 753.432C542.245 750.82 523.923 747.964 518.388 750.843" fill="#F6CABB"/>
<path d="M539.656 768.113L546.753 766.305C547.914 766.015 549.074 765.636 550.19 765.256C551.306 764.855 552.399 764.386 553.247 763.694L553.314 763.649C553.515 763.493 553.783 763.515 553.939 763.716V763.761C554.921 765.212 555.591 766.952 555.457 768.671C555.077 767.019 554.229 765.569 553.203 764.319L553.917 764.363C552.957 765.368 551.774 765.926 550.614 766.372C549.431 766.818 548.226 767.153 547.021 767.421C544.588 767.912 542.133 768.18 539.656 768.113Z" fill="#0F1944"/>
<path d="M544.254 767.422C544.566 767.734 544.678 768.114 544.789 768.471C544.901 768.85 544.878 769.207 544.856 769.587C544.811 769.944 544.745 770.301 544.566 770.636C544.41 770.97 544.209 771.305 543.874 771.573C543.584 770.769 543.584 770.122 543.651 769.453C543.74 768.783 543.874 768.158 544.254 767.422Z" fill="#0F1944"/>
<path d="M640.24 763.225C640.24 763.225 643.722 772.643 638.499 772.643C633.277 772.643 638.879 767.108 635.018 763.225C633.657 768.849 635.799 771.951 632.496 772.643C629.193 773.312 630.175 764.207 630.175 764.207C630.175 764.207 631.536 773.915 627.274 772.643C623.011 771.37 626.939 769.049 624.774 764.586" fill="#F6CABB"/>
<path d="M315.256 789.826V1056.03H324.629L331.614 789.826H315.256Z" fill="#3B2835"/>
<path d="M263.279 789.826V1056.03H272.63L279.615 789.826H263.279Z" fill="#3B2835"/>
<path d="M689.383 976.045V1056.03H680.01L673.024 976.045H689.383Z" fill="#4A3243"/>
<path d="M741.36 976.045V1056.03H732.009L725.023 976.045H741.36Z" fill="#4A3243"/>
<path d="M749.461 786.412H605.916V977.716H749.461V786.412Z" fill="#54394C"/>
<path d="M755.665 781.277H246.184V791.543H755.665V781.277Z" fill="#4A3243"/>
<path d="M698.265 786.412H605.916V977.716H698.265V786.412Z" fill="#4A3243"/>
<path d="M698.243 791.547C698.466 807.057 698.622 822.568 698.711 838.078L698.845 884.61L698.711 931.141C698.622 946.652 698.466 962.162 698.243 977.673C698.02 962.162 697.863 946.652 697.774 931.141L697.64 884.61L697.774 838.078C697.863 822.568 698.02 807.057 698.243 791.547Z" fill="#0F1944"/>
<path d="M689.361 803.664H613.906V888.961H689.361V803.664Z" fill="#4A3243"/>
<path d="M689.383 888.939L651.756 889.207L613.928 889.341C613.705 889.341 613.549 889.163 613.526 888.962L613.303 803.665C613.303 803.33 613.571 803.062 613.906 803.062L689.361 803.263C689.584 803.263 689.785 803.442 689.785 803.687L689.651 846.447L689.361 888.984L689.383 888.939ZM689.383 888.939L689.093 846.179L688.959 803.643L689.383 804.067L613.928 804.268L614.531 803.665L614.307 888.962L613.906 888.56L651.533 888.694L689.361 888.939H689.383Z" fill="#0F1944"/>
<path d="M667.177 808.979H636.134V820.226H667.177V808.979Z" fill="#4A3243"/>
<path d="M667.155 820.227L651.778 820.585C646.601 820.696 641.356 820.785 636.111 820.785C635.799 820.785 635.554 820.54 635.554 820.227L635.487 808.98C635.487 808.645 635.754 808.377 636.089 808.377L651.6 808.466L667.11 808.689C667.266 808.689 667.4 808.823 667.4 809.002L667.088 820.25L667.155 820.227ZM667.155 820.227L666.842 808.98L667.155 809.292L651.644 809.515L636.134 809.604L636.736 809.002L636.669 820.25L636.111 819.692C641.222 819.692 646.333 819.781 651.488 819.893L667.155 820.25V820.227Z" fill="#0F1944"/>
<path d="M689.361 898.979H613.906V967.783H689.361V898.979Z" fill="#4A3243"/>
<path d="M689.383 967.762L651.756 968.008L613.928 968.142C613.705 968.142 613.549 967.963 613.526 967.762L613.326 898.958C613.326 898.623 613.593 898.355 613.906 898.355L689.361 898.556C689.584 898.556 689.762 898.735 689.762 898.958L689.628 933.461L689.361 967.74L689.383 967.762ZM689.383 967.762L689.115 933.26L688.981 898.98L689.383 899.382L613.928 899.583L614.531 898.98L614.33 967.762L613.928 967.361L651.555 967.494L689.383 967.762Z" fill="#0F1944"/>
<path d="M667.177 904.316H636.134V915.564H667.177V904.316Z" fill="#4A3243"/>
<path d="M667.155 915.565L651.778 915.922C646.601 916.034 641.356 916.123 636.111 916.123C635.799 916.123 635.554 915.878 635.554 915.565L635.487 904.317C635.487 903.983 635.754 903.715 636.089 903.715L651.6 903.804L667.11 904.027C667.266 904.027 667.4 904.161 667.4 904.34L667.088 915.588L667.155 915.565ZM667.155 915.565L666.842 904.317L667.155 904.63L651.644 904.853L636.134 904.942L636.736 904.34L636.669 915.588L636.111 915.03C641.222 915.03 646.333 915.119 651.488 915.231L667.155 915.588V915.565Z" fill="#0F1944"/>
<path d="M605.916 791.544C617.878 791.321 629.84 791.165 641.802 791.075L677.689 790.941L713.575 791.075C725.537 791.165 737.499 791.321 749.461 791.544C737.499 791.767 725.537 791.923 713.575 792.013L677.689 792.147L641.802 792.013C629.84 791.923 617.878 791.767 605.916 791.544Z" fill="#0F1944"/>
<path d="M489.174 1002.8C481.073 989.12 475.494 988.718 468.665 992.11C467.214 995.257 465.786 998.426 464.447 1001.46C464.447 1001.46 507.118 1043.02 526.601 1042.19C527.449 1040.38 528.029 1038.69 528.408 1037.08C526.243 1035.56 523.119 1034.45 519.303 1032.91C512.585 1030.18 498.458 1018.47 489.174 1002.78V1002.8Z" fill="#EBE7C6"/>
<path d="M487.188 992.333C485.648 983.92 479.6 981.041 473.329 982.358C471.767 985.504 470.205 988.807 468.665 992.11C475.092 988.919 480.404 989.075 487.724 1000.46C487.947 997.734 487.858 995.034 487.188 992.311V992.333Z" fill="#BDBBA2"/>
<path d="M522.271 1018.49C518.99 1015.03 515.107 1011.95 512.094 1008.67C503.949 999.789 507.765 982.538 507.899 978.164C508.01 973.79 496.562 961.448 485.403 961.984C482.278 965.354 477.837 973.254 473.329 982.359C479.623 981.043 485.671 983.922 487.188 992.335C487.858 995.058 487.947 997.758 487.724 1000.48C488.193 1001.22 488.684 1002 489.174 1002.82C498.481 1018.51 512.585 1030.25 519.303 1032.95C519.526 1033.04 519.749 1033.13 519.972 1033.22C521.668 1028.49 522.36 1023.33 522.249 1018.51L522.271 1018.49Z" fill="#4356A6"/>
<path d="M522.271 1018.49C522.383 1023.34 521.668 1028.47 519.995 1033.2C523.498 1034.61 526.377 1035.68 528.408 1037.1C530.35 1029.03 526.913 1023.38 522.271 1018.49Z" fill="#BDBBA2"/>
<path d="M473.597 1027.66C456.39 1010.52 464.112 995.504 473.642 994.634C483.171 993.763 498.28 1032.17 520.262 1037.8C542.245 1043.42 502.788 1056.74 473.597 1027.66Z" fill="#BDBBA2"/>
<path d="M453.154 1012.44C464.492 1012.44 482.278 1013.85 502.409 1021.46C521.088 1028.53 534.59 1038.24 542.959 1045.31H554.966C546.552 1035.23 532.604 1020.9 511.983 1008.58C490.804 995.925 471.075 990.457 458.02 987.891C456.39 996.059 454.784 1004.25 453.154 1012.42V1012.44Z" fill="#4A3243"/>
<path d="M549.186 1042.83H546.842V1056H549.186V1042.83Z" fill="#4A3243"/>
<path d="M458.935 989.186C459.18 991.172 459.314 993.18 459.403 995.167C459.515 997.153 459.537 999.161 459.537 1001.15C459.537 1003.13 459.515 1005.14 459.403 1007.13C459.314 1009.11 459.18 1011.12 458.935 1013.11C458.689 1011.12 458.555 1009.11 458.466 1007.13C458.354 1005.14 458.332 1003.13 458.332 1001.15C458.332 999.161 458.354 997.153 458.466 995.167C458.555 993.18 458.689 991.172 458.935 989.186Z" fill="#0F1944"/>
<path d="M558.202 1057.07C558.202 1062.7 553.649 1067.25 548.025 1067.25C542.401 1067.25 537.848 1062.7 537.848 1057.07C537.848 1051.45 542.401 1046.9 548.025 1046.9C553.649 1046.9 558.202 1051.45 558.202 1057.07Z" fill="#54394C"/>
<path d="M550.369 1007.36C539.121 996.11 533.631 997.092 527.85 1002.09C527.225 1005.51 527.159 1007.47 526.623 1010.75C526.623 1010.75 577.707 1041.88 596.387 1036.26C596.744 1034.29 596.9 1032.51 596.878 1030.86C594.423 1029.92 591.098 1029.63 587.036 1029.07C579.85 1028.11 563.268 1020.26 550.369 1007.34V1007.36Z" fill="#EBE7C6"/>
<path d="M586.255 1014.32C589.915 1018.45 591.388 1023.87 591.321 1029.65C593.486 1029.96 595.36 1030.3 596.878 1030.88C596.766 1022.53 591.99 1017.91 586.255 1014.32Z" fill="#BDBBA2"/>
<path d="M530.796 987.698C529.77 992.251 528.765 997.183 527.873 1002.09C533.653 997.094 539.143 996.112 550.391 1007.36C550.726 1007.69 551.083 1008.03 551.44 1008.36C551.395 1004.03 550.703 999.817 548.896 995.822C544.722 986.627 537.536 984.641 530.796 987.698Z" fill="#BDBBA2"/>
<path d="M591.321 1029.65C591.388 1023.85 589.915 1018.43 586.255 1014.32C582.238 1011.8 577.752 1009.79 574.025 1007.36C563.937 1000.75 563.357 983.099 562.375 978.836C561.416 974.573 547.244 965.446 536.576 968.749C534.657 972.275 532.649 979.372 530.752 987.696C537.491 984.639 544.655 986.625 548.851 995.82C550.659 999.814 551.35 1004.03 551.395 1008.36C564.138 1020.66 580.028 1028.14 587.013 1029.09C588.553 1029.3 589.982 1029.47 591.298 1029.65H591.321Z" fill="#4356A6"/>
<path d="M542.669 1030.88C523.119 1016.48 523.61 1006.48 532.649 1003.29C541.665 1000.1 566.482 1033.55 589.178 1033.55C611.875 1033.55 576.815 1056.03 542.669 1030.88Z" fill="#BDBBA2"/>
<path d="M451.681 1012.44C440.344 1012.44 407.716 1021.91 388.501 1045.32H376.495C379.53 1035.23 390.22 1014.05 410.841 1001.73C432.02 989.078 433.761 990.462 446.794 987.918C448.423 996.086 450.03 1004.28 451.659 1012.44H451.681Z" fill="#4A3243"/>
<path d="M382.275 1056.03H384.618V1042.86H382.275V1056.03Z" fill="#4A3243"/>
<path d="M440.947 989.191C441.192 991.178 441.326 993.186 441.415 995.172C441.527 997.159 441.549 999.167 441.549 1001.15C441.549 1003.14 441.527 1005.15 441.415 1007.13C441.326 1009.12 441.192 1011.13 440.947 1013.12C440.701 1011.13 440.567 1009.12 440.478 1007.13C440.367 1005.15 440.344 1003.14 440.344 1001.15C440.344 999.167 440.367 997.159 440.478 995.172C440.567 993.186 440.701 991.178 440.947 989.191Z" fill="#0F1944"/>
<path d="M373.258 1057.08C373.258 1062.7 377.811 1067.26 383.435 1067.26C389.059 1067.26 393.612 1062.7 393.612 1057.08C393.612 1051.46 389.059 1046.9 383.435 1046.9C377.811 1046.9 373.258 1051.46 373.258 1057.08Z" fill="#54394C"/>
<path d="M385.823 880.838H375.156V905.275H385.823V880.838Z" fill="#54394C"/>
<path d="M453.445 869.746H433.247V940.537H453.445V869.746Z" fill="#54394C"/>
<path d="M481.743 869.746H404.927V888.961H481.743V869.746Z" fill="#4A3243"/>
<path d="M412.738 801.075C412.738 801.075 396.58 851.311 439.675 851.311H488.951L465.451 984.389H516.312C516.312 984.389 552.689 844.616 532.604 824.553C512.518 804.467 560.367 789.247 412.738 801.075Z" fill="#3C4649"/>
<path d="M398.031 630.885C398.031 630.885 351.99 714.552 358.953 739.391C365.939 764.231 398.031 789.828 398.031 789.828V630.885Z" fill="#89D2DC"/>
<path d="M365.537 850.688H521.133V871.934C521.133 878.428 515.866 883.717 509.349 883.717H377.298C370.804 883.717 365.514 878.45 365.514 871.934V850.688H365.537Z" fill="#17A9E1"/>
<path d="M509.372 883.715H377.32C370.826 883.715 365.537 878.448 365.537 871.931V867.178H521.133V871.931C521.133 878.426 515.866 883.715 509.349 883.715H509.372Z" fill="#4A3243"/>
<path d="M366.139 871.04C379.061 870.817 391.983 870.661 404.882 870.571L443.625 870.438L482.368 870.571C495.289 870.661 508.211 870.817 521.111 871.04C508.189 871.263 495.267 871.419 482.368 871.509L443.625 871.643L404.882 871.509C391.96 871.419 379.039 871.263 366.139 871.04Z" fill="#0F1944"/>
<path d="M390.978 801.078C390.978 801.078 368.237 851.314 411.309 851.314H533.162L524.436 984.392H578.555C578.555 984.392 603.104 830.67 583.019 810.585C562.933 790.499 529.97 797.886 390.978 801.078Z" fill="#3C4649"/>
<path d="M390.978 804.356C391.179 791.947 391.291 771.795 390.197 746.933C387.274 679.334 370.737 654.986 389.93 635.972C397.361 628.607 404.123 620.885 420.817 618.654C451.771 614.525 487.88 615.351 502.81 636.797C506.939 642.712 507.497 648.67 508.925 660.03C514.46 703.772 500.065 719.818 501.694 766.193C502.007 775.008 503.458 793.309 503.458 793.309V797.593C496.74 799.022 486.496 804.423 473.954 806.677C437.376 813.26 427.289 812.881 420.326 812.1C413.318 811.319 403.074 809.444 390.978 804.333V804.356Z" fill="#89D2DC"/>
<path d="M422.691 619.301C421.843 619.524 420.861 619.792 420.348 620.506C420.103 620.885 420.326 621.332 420.638 621.622C420.928 621.934 421.33 622.18 421.709 622.403C423.294 623.273 425.102 623.564 426.865 623.898C430.435 624.501 434.073 624.769 437.711 624.858C444.942 624.97 452.329 624.568 459.091 622.135C459.961 621.867 460.742 621.466 461.546 621.086C462.349 620.729 463.175 620.283 463.666 619.77C463.755 619.658 463.844 619.502 463.822 619.524C463.822 619.524 463.822 619.524 463.733 619.435C463.51 619.256 463.108 619.1 462.706 619.011C461.881 618.788 460.988 618.676 460.095 618.587C456.502 618.252 452.864 618.341 449.227 618.364C445.589 618.431 441.951 618.564 438.291 618.743C434.653 618.899 430.993 619.078 427.356 619.323C434.609 618.453 441.884 617.761 449.182 617.426C452.842 617.248 456.502 617.203 460.184 617.471C461.099 617.56 462.037 617.672 462.974 617.895C463.443 618.029 463.934 618.163 464.447 618.542C464.692 618.743 465.005 619.145 464.96 619.613C464.916 620.082 464.692 620.305 464.514 620.551C463.733 621.332 462.907 621.756 462.059 622.158C461.211 622.559 460.385 623.006 459.493 623.273C452.44 625.706 444.964 626.108 437.666 625.795C434.006 625.594 430.346 625.215 426.753 624.479C424.99 624.032 423.138 623.653 421.553 622.649C421.151 622.403 420.772 622.135 420.46 621.778C420.147 621.466 419.879 620.885 420.214 620.439C420.839 619.68 421.821 619.502 422.691 619.323V619.301Z" fill="#0F1944"/>
<path d="M610.58 750.839L541.509 728.321L527.783 695.447C520.129 708.19 509.506 718.144 493.883 721.692C502.029 738.81 515.464 761.484 530.64 764.809C555.479 770.232 614.241 766.55 614.241 766.55L610.558 750.861L610.58 750.839Z" fill="#F6CABB"/>
<path d="M506.984 744.768C510.175 748.896 513.523 752.913 517.361 756.417C521.178 759.876 525.507 762.956 530.484 764.117C535.505 765.3 540.727 765.835 545.905 766.371C551.083 766.884 556.305 767.219 561.527 767.621C556.305 767.732 551.06 767.62 545.838 767.308C540.616 766.973 535.394 766.415 530.216 765.3C524.971 763.96 520.486 760.747 516.736 757.087C512.987 753.382 509.796 749.186 507.006 744.768H506.984Z" fill="#0F1944"/>
<path d="M527.783 695.447L504.261 639.096C472.838 607.674 485.648 702.12 485.648 702.12C485.648 702.12 488.706 710.779 493.883 721.67C509.506 718.122 520.129 708.191 527.783 695.425V695.447Z" fill="#89D2DC"/>
<path d="M527.783 695.447L506.091 643.492C505.622 642.019 505.064 640.658 504.35 639.341L504.261 639.118C504.261 639.118 504.239 639.095 504.216 639.073C503.792 638.314 503.346 637.578 502.81 636.819C487.88 615.394 451.771 614.546 420.817 618.675C404.123 620.907 397.361 628.629 389.93 635.993C370.737 655.008 387.274 679.356 390.197 746.955C391.269 771.816 391.179 791.969 390.978 804.377C403.074 809.488 413.318 811.362 420.326 812.144C427.289 812.925 437.376 813.304 473.954 806.72C486.519 804.466 496.74 799.066 503.458 797.637V793.352C503.458 793.352 502.007 775.052 501.694 766.237C500.958 745.638 503.413 731.02 505.846 717.295C515.196 712.363 522.249 704.664 527.761 695.469L527.783 695.447Z" fill="#F89939"/>
<mask id="mask3_174_2110" style="mask-type:luminance" maskUnits="userSpaceOnUse" x="380" y="616" width="148" height="197">
<path d="M527.783 695.447L506.091 643.492C505.622 642.019 505.064 640.658 504.35 639.341L504.261 639.118C504.261 639.118 504.239 639.095 504.216 639.073C503.792 638.314 503.346 637.578 502.81 636.819C487.88 615.394 451.771 614.546 420.817 618.675C404.123 620.907 397.361 628.629 389.93 635.993C370.737 655.008 387.274 679.356 390.197 746.955C391.269 771.816 391.179 791.969 390.978 804.377C403.074 809.488 413.318 811.362 420.326 812.144C427.289 812.925 437.376 813.304 473.954 806.72C486.519 804.466 496.74 799.066 503.458 797.637V793.352C503.458 793.352 502.007 775.052 501.694 766.237C500.958 745.638 503.413 731.02 505.846 717.295C515.196 712.363 522.249 704.664 527.761 695.469L527.783 695.447Z" fill="white"/>
</mask>
<g mask="url(#mask3_174_2110)">
<g opacity="0.3">
<path d="M380.222 628.852C380.222 628.852 382.096 630.258 385.667 632.266C387.452 633.27 389.662 634.409 392.273 635.524C394.862 636.685 397.897 637.756 401.244 638.738C404.614 639.609 408.319 640.501 412.291 640.724C416.264 641.014 420.504 640.925 424.744 640.055C426.909 639.675 429.096 639.274 431.328 638.872C432.444 638.693 433.604 638.693 434.765 638.582C435.925 638.515 437.086 638.403 438.246 638.448C442.888 638.403 447.575 638.738 452.239 639.051C456.904 639.408 461.568 639.72 466.143 639.832C470.718 639.876 475.248 639.787 479.556 639.162C481.698 638.827 483.841 638.582 485.849 638.002C487.88 637.466 489.889 637.064 491.719 636.261C495.513 635.011 498.771 633.07 501.806 631.351C504.551 629.209 507.341 627.557 509.26 625.459C511.291 623.473 513.188 621.844 514.371 620.192C516.96 617.023 518.432 615.193 518.432 615.193C518.432 615.193 517.004 617.046 514.527 620.304C513.389 622.022 511.536 623.719 509.55 625.772C507.676 627.959 504.93 629.722 502.163 631.931C499.128 633.717 495.847 635.748 492.009 637.109C490.156 637.979 488.126 638.426 486.072 638.984C484.042 639.653 481.877 639.876 479.69 640.233C475.315 640.903 470.74 641.014 466.121 640.992C461.501 640.903 456.814 640.613 452.15 640.278C447.486 639.943 442.821 639.586 438.246 639.608C437.086 639.564 435.97 639.653 434.854 639.72C433.738 639.809 432.622 639.787 431.507 639.988C429.275 640.367 427.088 640.747 424.923 641.126C422.758 641.617 420.571 641.706 418.429 641.863C417.357 641.907 416.309 641.84 415.26 641.84C414.211 641.84 413.184 641.796 412.18 641.639C408.118 641.349 404.391 640.367 400.999 639.43C397.629 638.381 394.616 637.198 392.05 635.948C389.461 634.743 387.274 633.516 385.533 632.467C382.029 630.347 380.199 628.874 380.199 628.874L380.222 628.852Z" fill="#E4E4E4"/>
</g>
<g opacity="0.3">
<path d="M371.205 655.096C371.205 655.096 373.37 656.546 377.454 658.577C379.507 659.581 382.007 660.742 384.975 661.858C387.921 663.018 391.336 664.045 395.107 665.049C398.901 665.897 403.03 666.768 407.493 666.991C408.609 667.102 409.725 667.147 410.863 667.125C412.001 667.125 413.162 667.169 414.322 667.125C416.643 666.902 419.031 666.857 421.397 666.366C423.785 666.031 426.195 665.429 428.762 665.161C431.283 664.848 433.85 664.737 436.416 664.714C441.572 664.647 446.794 664.96 451.994 665.295C462.371 666.009 472.794 666.678 482.457 665.607C492.12 664.625 500.936 661.947 507.72 658.131C511.09 656.234 514.103 654.27 516.535 652.261C517.808 651.302 518.901 650.32 519.905 649.382C520.932 648.49 521.825 647.597 522.606 646.771C524.235 645.165 525.373 643.803 526.177 642.866C526.98 641.951 527.404 641.438 527.404 641.438C527.404 641.438 527.002 641.951 526.221 642.888C525.462 643.848 524.347 645.254 522.762 646.905C522.003 647.753 521.133 648.668 520.129 649.606C519.147 650.565 518.053 651.592 516.826 652.596C514.438 654.694 511.469 656.769 508.055 658.733C501.248 662.661 492.366 665.629 482.569 666.656C472.794 667.772 462.282 667.169 451.905 666.5C446.705 666.143 441.527 665.808 436.416 665.853C433.872 665.853 431.328 665.986 428.873 666.254C426.418 666.477 423.986 667.08 421.553 667.415C419.121 667.906 416.71 667.973 414.345 668.129C413.162 668.174 411.979 668.107 410.841 668.084C409.68 668.084 408.542 668.04 407.426 667.906C402.918 667.616 398.745 666.656 394.951 665.741C391.179 664.692 387.765 663.554 384.841 662.282C381.895 661.077 379.418 659.849 377.387 658.778C373.348 656.636 371.228 655.118 371.228 655.118L371.205 655.096Z" fill="#E4E4E4"/>
</g>
<g opacity="0.3">
<path d="M373.37 681.342C373.37 681.342 375.468 682.77 379.44 684.801C381.427 685.805 383.859 686.966 386.738 688.082C389.595 689.242 392.92 690.291 396.58 691.295C400.262 692.143 404.302 693.036 408.654 693.237C409.725 693.348 410.841 693.393 411.934 693.371C413.05 693.371 414.166 693.415 415.304 693.371C417.558 693.148 419.902 693.103 422.2 692.612C424.544 692.277 426.887 691.675 429.386 691.407C431.864 691.117 434.341 690.983 436.863 690.961C441.906 690.916 446.995 691.228 452.061 691.541C462.193 692.255 472.347 692.902 481.765 691.831C491.183 690.827 499.731 688.082 506.314 684.265C509.572 682.346 512.474 680.404 514.817 678.396C516.044 677.459 517.093 676.454 518.053 675.539C519.057 674.647 519.905 673.754 520.664 672.95C522.226 671.366 523.32 670.005 524.079 669.09C524.837 668.175 525.262 667.684 525.262 667.684C525.262 667.684 524.86 668.175 524.123 669.112C523.387 670.049 522.338 671.433 520.798 673.062C520.062 673.91 519.236 674.825 518.254 675.74C517.294 676.677 516.268 677.726 515.085 678.708C512.786 680.806 509.907 682.859 506.649 684.846C500.065 688.773 491.429 691.809 481.877 692.857C472.325 694.018 462.081 693.415 451.972 692.746C446.906 692.389 441.84 692.054 436.863 692.076C434.386 692.076 431.908 692.21 429.498 692.478C427.11 692.701 424.744 693.304 422.357 693.639C419.991 694.13 417.625 694.196 415.327 694.353C414.166 694.397 413.028 694.33 411.89 694.308C410.752 694.308 409.636 694.263 408.564 694.13C404.168 693.839 400.106 692.88 396.402 691.965C392.719 690.916 389.394 689.755 386.56 688.506C383.703 687.3 381.293 686.073 379.329 685.002C375.423 682.859 373.37 681.364 373.37 681.364V681.342Z" fill="#E4E4E4"/>
</g>
<g opacity="0.3">
<path d="M366.853 707.584C366.853 707.584 369.174 709.035 373.504 711.088C375.669 712.092 378.325 713.253 381.471 714.368C384.573 715.551 388.189 716.556 392.161 717.56C396.156 718.386 400.508 719.278 405.172 719.479C406.333 719.591 407.516 719.635 408.721 719.613C409.926 719.613 411.131 719.658 412.358 719.613C414.791 719.39 417.313 719.345 419.812 718.854C421.084 718.653 422.357 718.453 423.629 718.229C424.901 717.984 426.195 717.783 427.534 717.649C430.19 717.337 432.868 717.203 435.568 717.18C440.969 717.113 446.459 717.426 451.905 717.738C462.818 718.453 473.731 719.122 483.908 718.118C488.974 717.627 493.839 716.779 498.347 715.529C502.855 714.302 506.984 712.672 510.599 710.798C514.214 708.923 517.406 706.937 520.039 704.928C520.709 704.437 521.356 703.946 521.959 703.478C522.539 702.964 523.119 702.496 523.655 702.027C524.771 701.112 525.753 700.219 526.578 699.371C528.319 697.742 529.569 696.336 530.439 695.376C531.309 694.439 531.756 693.926 531.756 693.926C531.756 693.926 531.31 694.439 530.484 695.421C529.658 696.403 528.431 697.831 526.734 699.527C525.909 700.398 524.949 701.313 523.878 702.272C523.342 702.763 522.784 703.254 522.204 703.79C521.601 704.281 520.954 704.772 520.307 705.308C517.718 707.405 514.549 709.503 510.911 711.445C503.658 715.395 494.263 718.207 483.997 719.211C473.731 720.283 462.729 719.658 451.815 719.01C446.37 718.653 440.902 718.341 435.546 718.386C432.868 718.386 430.212 718.519 427.623 718.81C426.329 718.944 425.057 719.122 423.763 719.368C422.468 719.568 421.196 719.769 419.924 719.97C417.38 720.461 414.836 720.506 412.358 720.684C411.109 720.707 409.881 720.662 408.676 720.64C407.471 720.64 406.266 720.595 405.083 720.461C400.352 720.171 395.978 719.234 391.96 718.319C387.988 717.27 384.373 716.132 381.293 714.882C378.168 713.677 375.535 712.449 373.392 711.378C369.108 709.213 366.831 707.696 366.831 707.696L366.853 707.584Z" fill="#E4E4E4"/>
</g>
<g opacity="0.3">
<path d="M374.263 733.829C374.263 733.829 376.338 735.257 380.244 737.288C382.208 738.292 384.618 739.431 387.452 740.569C390.287 741.729 393.567 742.778 397.183 743.782C400.843 744.631 404.815 745.523 409.122 745.724C410.194 745.836 411.265 745.88 412.381 745.858C413.474 745.858 414.59 745.903 415.706 745.858C417.938 745.635 420.259 745.59 422.535 745.077C424.834 744.742 427.177 744.14 429.632 743.872C432.065 743.582 434.542 743.448 437.041 743.425C442.018 743.381 447.062 743.693 452.083 744.006C462.104 744.72 472.169 745.367 481.475 744.273C486.117 743.738 490.581 742.845 494.665 741.528C498.749 740.212 502.476 738.56 505.712 736.686C508.925 734.744 511.782 732.825 514.081 730.816C515.286 729.879 516.312 728.874 517.272 727.959C518.254 727.067 519.08 726.174 519.838 725.371C521.378 723.786 522.45 722.447 523.208 721.532C523.967 720.617 524.369 720.148 524.369 720.148C524.369 720.148 523.989 720.639 523.253 721.577C522.517 722.514 521.49 723.898 519.995 725.527C519.281 726.353 518.455 727.268 517.495 728.183C516.558 729.12 515.554 730.147 514.371 731.151C512.117 733.249 509.282 735.28 506.046 737.288C499.552 741.216 491.027 744.273 481.564 745.345C472.124 746.505 461.97 745.925 451.949 745.233C446.928 744.876 441.929 744.541 436.997 744.564C434.542 744.564 432.087 744.698 429.721 744.965C427.356 745.188 425.012 745.791 422.669 746.126C420.326 746.617 417.982 746.684 415.706 746.84C414.568 746.885 413.43 746.818 412.314 746.795C411.198 746.795 410.082 746.751 409.011 746.617C404.659 746.327 400.642 745.367 396.96 744.452C393.322 743.403 390.041 742.243 387.229 740.993C384.395 739.788 382.029 738.56 380.088 737.489C376.227 735.347 374.196 733.851 374.196 733.851L374.263 733.829Z" fill="#E4E4E4"/>
</g>
<g opacity="0.3">
<path d="M379.396 760.08C379.396 760.08 381.293 761.486 384.908 763.495C386.716 764.499 388.948 765.637 391.603 766.753C394.237 767.913 397.294 768.962 400.686 769.967C404.101 770.837 407.828 771.73 411.867 771.953C412.872 772.064 413.898 772.109 414.925 772.087C415.951 772.087 417 772.131 418.049 772.087C420.147 771.886 422.312 771.797 424.454 771.306C426.641 770.926 428.851 770.525 431.105 770.123C432.221 769.922 433.404 769.944 434.586 769.833C435.747 769.766 436.93 769.654 438.09 769.699C442.777 769.654 447.508 769.967 452.217 770.301C456.926 770.658 461.635 770.971 466.277 771.105C470.897 771.149 475.472 771.06 479.823 770.435C481.988 770.1 484.153 769.877 486.184 769.275C488.215 768.739 490.268 768.36 492.12 767.534C493.058 767.177 493.995 766.82 494.91 766.463L496.271 765.949L497.521 765.258C499.173 764.343 500.824 763.495 502.342 762.624C503.77 761.575 505.131 760.593 506.426 759.656C507.073 759.165 507.742 758.763 508.3 758.25C508.858 757.737 509.394 757.223 509.907 756.732C511.96 754.746 513.902 753.117 515.107 751.443C517.741 748.252 519.236 746.422 519.236 746.422C519.236 746.422 517.785 748.297 515.263 751.577C514.103 753.318 512.206 754.992 510.197 757.067C508.3 759.277 505.488 761.017 502.699 763.227C501.159 764.142 499.53 765.034 497.856 765.972L496.584 766.686L495.2 767.244C494.285 767.623 493.348 767.98 492.388 768.382C490.513 769.252 488.438 769.676 486.385 770.257C484.332 770.926 482.122 771.127 479.935 771.484C475.516 772.131 470.897 772.265 466.232 772.243C461.568 772.154 456.837 771.864 452.128 771.529C447.419 771.194 442.71 770.837 438.09 770.859C436.93 770.815 435.792 770.926 434.653 770.971C433.515 771.06 432.399 771.038 431.261 771.239C429.007 771.618 426.798 771.997 424.611 772.377C422.423 772.868 420.214 772.957 418.072 773.113C417 773.158 415.929 773.091 414.88 773.069C413.831 773.069 412.782 773.024 411.778 772.868C407.694 772.578 403.922 771.596 400.486 770.658C397.071 769.609 394.036 768.427 391.425 767.177C388.814 765.972 386.604 764.744 384.819 763.695C381.27 761.575 379.396 760.102 379.396 760.102V760.08Z" fill="#E4E4E4"/>
</g>
<g opacity="0.3">
<path d="M363.997 786.298C363.997 786.298 366.407 787.771 370.893 789.802C373.147 790.806 375.892 791.966 379.15 793.082C382.364 794.265 386.113 795.269 390.197 796.274C394.326 797.099 398.812 797.992 403.632 798.193C404.837 798.304 406.043 798.349 407.292 798.327C408.52 798.327 409.77 798.349 411.042 798.327C413.564 798.103 416.152 798.081 418.719 797.568C421.308 797.233 423.941 796.631 426.686 796.363C429.431 796.05 432.176 795.916 434.966 795.894C440.545 795.827 446.191 796.117 451.815 796.43C463.063 797.122 474.333 797.813 484.823 796.831C490.067 796.34 495.089 795.537 499.753 794.31C504.417 793.104 508.702 791.475 512.474 789.601C516.245 787.748 519.571 785.74 522.338 783.731C523.744 782.749 525.016 781.767 526.132 780.808C527.292 779.87 528.319 779 529.189 778.13C531.019 776.478 532.336 775.05 533.229 774.09C534.144 773.13 534.612 772.617 534.612 772.617C534.612 772.617 534.144 773.153 533.273 774.135C532.403 775.139 531.109 776.59 529.323 778.286C528.475 779.178 527.449 780.093 526.31 781.053C525.217 782.057 523.945 783.062 522.561 784.088C519.838 786.186 516.558 788.329 512.742 790.226C508.948 792.167 504.663 793.886 499.954 795.158C495.267 796.474 490.179 797.389 484.89 797.88C474.289 798.929 462.952 798.282 451.726 797.635C446.102 797.278 440.478 796.965 434.966 797.01C432.198 797.032 429.453 797.144 426.798 797.434C425.459 797.568 424.142 797.746 422.803 797.992C421.464 798.193 420.147 798.394 418.83 798.595C416.197 799.086 413.586 799.13 411.019 799.286C409.747 799.309 408.475 799.264 407.225 799.242C405.976 799.242 404.748 799.197 403.521 799.063C398.656 798.795 394.125 797.836 389.974 796.943C385.868 795.894 382.141 794.778 378.927 793.506C375.691 792.301 372.968 791.074 370.737 790.002C366.296 787.838 363.908 786.298 363.908 786.298H363.997Z" fill="#E4E4E4"/>
</g>
</g>
<path d="M476.521 664.964C477.748 674.85 479.712 684.581 482.881 693.976C483.684 696.32 484.599 698.618 485.537 700.895C486.563 703.149 487.523 705.492 488.349 707.835C489.978 712.522 491.875 717.119 493.883 721.672C491.607 717.253 489.576 712.678 487.746 708.036C486.095 703.349 483.394 699.109 481.81 694.311C480.069 689.624 478.842 684.737 477.927 679.827C477.056 674.895 476.521 669.918 476.498 664.941L476.521 664.964Z" fill="#0F1944"/>
<path d="M489.755 712.344C493.303 711.339 496.74 710.023 500.043 708.461C503.346 706.876 506.515 705.046 509.439 702.881C510.956 701.877 512.318 700.672 513.746 699.511C515.04 698.239 516.424 697.034 517.607 695.65C520.151 693.017 522.159 689.96 524.19 686.857C522.606 690.183 520.753 693.441 518.299 696.253C515.933 699.132 513.143 701.654 510.13 703.841C507.073 705.983 503.837 707.858 500.4 709.286C496.963 710.715 493.392 711.808 489.732 712.321L489.755 712.344Z" fill="#0F1944"/>
<path d="M417.915 851.309L446.727 850.997L475.539 850.885C494.754 850.84 513.947 850.662 533.162 850.751C533.474 850.751 533.72 850.997 533.72 851.309V851.354L530.796 898.332C529.859 913.998 528.788 929.643 527.672 945.287C528.386 929.62 529.122 913.954 530.037 898.287L532.604 851.287L533.162 851.889C513.947 851.979 494.754 851.778 475.539 851.755L446.727 851.644L417.915 851.331V851.309Z" fill="#0F1944"/>
<path d="M458.667 936.854H428.003V1019.7H458.667V936.854Z" fill="#4A3243"/>
<path d="M382.342 632.088C413.988 632.088 439.675 657.775 439.675 689.421V818.616C439.675 831.203 429.453 841.402 416.889 841.402H347.817C335.23 841.402 325.031 831.18 325.031 818.616V689.421C325.031 657.775 350.718 632.088 382.364 632.088H382.342Z" fill="#17A9E1"/>
<path d="M407.962 841.404L371.763 841.471L353.664 841.516H344.625C341.613 841.493 338.6 841.694 335.565 841.293C329.539 840.467 323.937 837.075 320.344 832.165C318.537 829.71 317.242 826.898 316.528 823.952C315.769 820.984 315.881 817.904 315.858 814.914L315.792 778.715L315.635 706.318C315.635 700.292 315.546 694.266 315.658 688.218C315.658 682.126 316.93 676.078 318.849 670.32C319.407 668.914 319.809 667.419 320.5 666.057L322.464 661.929C324.027 659.317 325.544 656.662 327.463 654.296C331.168 649.476 335.565 645.146 340.586 641.687C345.63 638.272 351.209 635.639 357.034 633.898C362.881 632.113 369.018 631.533 375.089 631.644C381.181 631.711 387.229 633.028 392.942 635.059C398.678 637.09 404.101 640.035 408.832 643.829C413.608 647.601 417.804 652.064 421.263 657.063C424.611 662.129 427.177 667.709 428.873 673.534C430.703 679.358 431.06 685.496 431.105 691.521L431.06 709.621L430.904 782.018L430.837 818.217C430.926 824.264 428.516 830.312 424.253 834.62C420.036 838.972 414.01 841.449 407.984 841.427L407.962 841.404ZM407.962 841.404C414.01 841.404 419.991 838.905 424.187 834.553C428.427 830.246 430.792 824.242 430.681 818.217L430.614 782.018L430.458 709.621L430.413 691.521C430.346 685.518 429.967 679.492 428.137 673.734C426.441 667.999 423.896 662.509 420.571 657.532C417.157 652.6 412.983 648.226 408.274 644.543C403.588 640.817 398.232 637.96 392.608 635.974C386.984 634.01 381.047 632.738 375.066 632.693C369.108 632.604 363.082 633.206 357.369 634.992C351.655 636.732 346.232 639.344 341.278 642.691C336.323 646.039 332.016 650.279 328.356 654.988C326.459 657.309 324.964 659.898 323.424 662.464L321.46 666.504C320.791 667.843 320.389 669.293 319.831 670.677C317.912 676.323 316.64 682.237 316.617 688.241C316.483 694.244 316.55 700.292 316.528 706.318L316.372 778.715L316.305 814.914C316.305 817.926 316.193 820.962 316.93 823.863C317.622 826.764 318.894 829.531 320.657 831.964C324.16 836.807 329.673 840.177 335.609 841.025C338.577 841.449 341.613 841.248 344.625 841.315H353.664L371.763 841.382L407.962 841.449V841.404Z" fill="#0F1944"/>
<path d="M403.677 841.402H334.605C322.018 841.402 311.819 831.203 311.819 818.616V689.421C311.819 657.753 337.484 632.088 369.152 632.088C400.82 632.088 426.485 657.753 426.485 689.421V818.616C426.485 831.203 416.286 841.402 403.699 841.402H403.677Z" fill="#4A3243"/>
<path d="M334.605 834.82C325.678 834.82 318.403 827.544 318.403 818.617V689.423C318.403 661.459 341.166 638.695 369.13 638.695C397.093 638.695 419.857 661.459 419.857 689.423V818.617C419.857 827.544 412.582 834.82 403.655 834.82H334.583H334.605Z" fill="#4A3243"/>
<path d="M334.605 834.821C329.003 834.843 323.446 831.763 320.634 826.854C319.161 824.466 318.425 821.654 318.358 818.842V810.45L318.246 776.841L318.09 709.643L318.046 692.838C317.979 690.049 318.135 687.237 318.291 684.402C318.67 681.613 319.028 678.801 319.831 676.1C321.304 670.655 323.647 665.455 326.794 660.746C329.985 656.082 333.936 651.953 338.444 648.539C342.952 645.146 347.973 642.401 353.374 640.683C358.752 638.964 364.421 638.139 370.067 638.183C381.404 638.34 392.585 642.424 401.423 649.543C410.127 656.751 416.599 666.772 419.031 677.863C420.303 683.376 420.437 689.111 420.348 694.668L420.303 711.473L420.147 778.671L420.08 812.28V816.476C420.08 817.86 420.08 819.288 419.902 820.694C419.522 823.506 418.429 826.229 416.688 828.46C414.992 830.737 412.649 832.478 410.082 833.638C407.471 834.776 404.57 835.044 401.78 834.933L334.583 834.776L334.605 834.821ZM334.605 834.821L401.802 834.665C404.614 834.754 407.404 834.486 409.97 833.348C412.492 832.21 414.769 830.491 416.42 828.26C418.116 826.073 419.165 823.417 419.522 820.672C419.701 819.31 419.679 817.904 419.656 816.498V812.303L419.567 778.693L419.411 711.496L419.366 694.691C419.433 689.067 419.277 683.532 418.005 678.109C415.594 667.263 409.189 657.51 400.664 650.48C392.072 643.495 381.137 639.433 370.045 639.232C364.51 639.165 358.953 639.946 353.664 641.598C348.352 643.249 343.42 645.927 338.979 649.23C334.538 652.556 330.633 656.595 327.486 661.17C324.384 665.79 322.04 670.9 320.567 676.257C319.764 678.912 319.385 681.68 319.005 684.425C318.849 687.192 318.693 689.982 318.737 692.794L318.693 709.599L318.537 776.796L318.47 810.406V818.797C318.537 821.587 319.228 824.376 320.679 826.764C323.469 831.652 328.959 834.754 334.583 834.754L334.605 834.821Z" fill="#0F1944"/>
<path d="M384.73 883.602H380.824C369.063 883.602 359.533 874.073 359.533 862.312V741.709H372.723V862.312C372.723 874.073 382.252 883.602 394.014 883.602H384.707H384.73Z" fill="#54394C"/>
<path d="M378.146 883.602H374.24C362.479 883.602 352.95 874.073 352.95 862.312V741.709H366.139V862.312C366.139 874.073 375.669 883.602 387.43 883.602H378.124H378.146Z" fill="#4A3243"/>
<path d="M467.504 883.602H471.41C483.171 883.602 492.701 874.073 492.701 862.312V830.777H479.511V862.312C479.511 874.073 469.982 883.602 458.22 883.602H467.527H467.504Z" fill="#54394C"/>
<path d="M470.473 883.602H474.378C486.139 883.602 495.669 874.073 495.669 862.312V830.777H482.479V862.312C482.479 874.073 472.95 883.602 461.189 883.602H470.495H470.473Z" fill="#4A3243"/>
<path d="M352.95 841.401C352.749 824.775 352.57 808.171 352.57 791.544L352.37 741.688C352.37 741.375 352.615 741.107 352.95 741.107H366.162C366.474 741.107 366.742 741.353 366.742 741.688L366.541 791.544C366.541 808.171 366.363 824.775 366.139 841.401C365.938 824.775 365.76 808.171 365.738 791.544L365.537 741.688L366.117 742.268H352.927L353.508 741.688L353.307 791.544C353.307 808.171 353.128 824.775 352.927 841.401H352.95Z" fill="#0F1944"/>
<path d="M403.677 883.716C410.194 883.47 416.688 883.336 423.205 883.247L442.732 883.113L462.26 883.247C468.776 883.336 475.271 883.47 481.787 883.716C475.271 883.961 468.776 884.095 462.26 884.184L442.732 884.318L423.205 884.184C416.688 884.095 410.194 883.961 403.677 883.716Z" fill="#0F1944"/>
<path d="M431.127 889.14C433.069 888.894 434.988 888.76 436.93 888.671C438.871 888.559 440.791 888.537 442.732 888.537C444.674 888.537 446.593 888.559 448.535 888.671C450.476 888.76 452.396 888.894 454.337 889.14C452.396 889.385 450.476 889.519 448.535 889.608C446.593 889.72 444.674 889.742 442.732 889.742C440.791 889.742 438.871 889.72 436.93 889.608C434.988 889.519 433.069 889.385 431.127 889.14Z" fill="#0F1944"/>
<path d="M428.003 936.854C430.547 936.609 433.114 936.475 435.658 936.386C438.202 936.274 440.768 936.252 443.313 936.252C445.857 936.252 448.423 936.274 450.967 936.386C453.512 936.475 456.078 936.609 458.622 936.854C456.078 937.1 453.512 937.234 450.967 937.323C448.423 937.435 445.857 937.457 443.313 937.457C440.746 937.457 438.202 937.435 435.658 937.323C433.114 937.234 430.547 937.1 428.003 936.854Z" fill="#0F1944"/>
<path d="M388.01 885.459H372.968V909.896H388.01V885.459Z" fill="#4A3243"/>
<path d="M433.962 1012.44C422.624 1012.44 404.837 1013.85 384.707 1021.46C366.028 1028.53 352.526 1038.24 344.157 1045.31H332.15C340.564 1035.23 354.512 1020.9 375.133 1008.58C396.312 995.925 416.041 990.457 429.096 987.891C430.726 996.059 432.332 1004.25 433.962 1012.42V1012.44Z" fill="#4A3243"/>
<path d="M337.908 1056.02H340.251V1042.86H337.908V1056.02Z" fill="#4A3243"/>
<path d="M428.494 989.186C428.739 991.172 428.873 993.18 428.962 995.167C429.074 997.153 429.096 999.161 429.096 1001.15C429.096 1003.13 429.074 1005.14 428.962 1007.13C428.873 1009.11 428.739 1011.12 428.494 1013.11C428.248 1011.12 428.114 1009.11 428.025 1007.13C427.914 1005.14 427.891 1003.13 427.891 1001.15C427.891 999.161 427.914 997.153 428.025 995.167C428.114 993.18 428.248 991.172 428.494 989.186Z" fill="#0F1944"/>
<path d="M328.914 1057.07C328.914 1062.7 333.467 1067.25 339.091 1067.25C344.715 1067.25 349.267 1062.7 349.267 1057.07C349.267 1051.45 344.715 1046.9 339.091 1046.9C333.467 1046.9 328.914 1051.45 328.914 1057.07Z" fill="#54394C"/>
<path d="M435.39 1012.44C446.727 1012.44 479.355 1021.91 498.57 1045.32H510.577C507.542 1035.23 496.852 1014.05 476.23 1001.73C455.051 989.078 453.311 990.462 440.277 987.918C438.648 996.086 437.041 1004.28 435.412 1012.44H435.39Z" fill="#4A3243"/>
<path d="M504.797 1042.84H502.453V1056.01H504.797V1042.84Z" fill="#4A3243"/>
<path d="M444.16 989.191C444.406 991.178 444.54 993.186 444.629 995.172C444.741 997.159 444.763 999.167 444.763 1001.15C444.763 1003.14 444.741 1005.15 444.629 1007.13C444.54 1009.12 444.406 1011.13 444.16 1013.12C443.915 1011.13 443.781 1009.12 443.692 1007.13C443.58 1005.15 443.558 1003.14 443.558 1001.15C443.558 999.167 443.58 997.159 443.692 995.172C443.781 993.186 443.915 991.178 444.16 989.191Z" fill="#0F1944"/>
<path d="M513.813 1057.08C513.813 1062.7 509.26 1067.26 503.636 1067.26C498.012 1067.26 493.459 1062.7 493.459 1057.08C493.459 1051.46 498.012 1046.9 503.636 1046.9C509.26 1046.9 513.813 1051.46 513.813 1057.08Z" fill="#54394C"/>
<path d="M496.182 1019.27C492.701 1015.39 488.974 1011.73 484.934 1008.47C482.903 1006.86 480.828 1005.3 478.641 1003.89C476.476 1002.49 474.2 1001.22 471.946 999.899C467.46 997.265 462.907 994.699 458.176 992.623C453.467 990.459 448.289 989.566 443.201 988.428C445.79 988.762 448.379 989.097 450.967 989.544C453.556 990.035 456.1 990.793 458.533 991.753C463.443 993.695 467.995 996.283 472.57 998.828C477.079 1001.46 481.609 1004.23 485.537 1007.73C489.509 1011.17 493.102 1015.03 496.204 1019.25L496.182 1019.27Z" fill="#0F1944"/>
<path d="M389.93 1019.63C392.251 1017.84 394.862 1016.46 397.517 1015.28C400.196 1014.09 402.985 1013.16 405.819 1012.38C408.676 1011.71 411.555 1011.1 414.479 1010.86C417.38 1010.57 420.326 1010.55 423.227 1010.75C420.326 1011.06 417.447 1011.28 414.59 1011.77C411.734 1012.2 408.899 1012.8 406.132 1013.54C403.32 1014.21 400.597 1015.14 397.897 1016.13C395.196 1017.13 392.541 1018.27 389.952 1019.63H389.93Z" fill="#0F1944"/>
<path d="M451.369 808.975H520.173C524.614 808.975 528.207 812.568 528.207 817.009V824.307C528.207 828.279 524.994 831.493 521.021 831.493H450.499C446.526 831.493 443.312 828.279 443.312 824.307V817.009C443.312 812.568 446.906 808.975 451.347 808.975H451.369Z" fill="#4356A6"/>
<path d="M521.021 831.491H450.499C446.526 831.491 443.312 828.277 443.312 824.305V820.221H528.185V824.305C528.185 828.277 524.971 831.491 520.999 831.491H521.021Z" fill="#4A3243"/>
<path d="M443.647 821.872C450.7 821.649 457.729 821.493 464.782 821.403L485.916 821.27L507.051 821.403C514.103 821.493 521.133 821.649 528.185 821.872C521.133 822.095 514.103 822.252 507.051 822.341L485.916 822.475L464.782 822.341C457.729 822.252 450.7 822.095 443.647 821.872Z" fill="#0F1944"/>
<path d="M340.765 745.24C340.765 727.966 350.852 713.951 363.283 713.951C375.713 713.951 385.801 727.966 385.801 745.24H340.742H340.765Z" fill="#4A3243"/>
<path d="M340.765 745.24C340.72 738.187 342.171 730.934 345.875 724.752C347.728 721.695 350.116 718.905 353.084 716.83C356.03 714.732 359.623 713.438 363.305 713.438C366.987 713.438 370.58 714.71 373.571 716.74C376.584 718.794 379.039 721.561 380.936 724.618C384.707 730.8 386.336 738.076 386.359 745.24C386.359 745.53 386.113 745.775 385.823 745.775C378.258 745.775 370.67 745.664 363.149 745.574L340.765 745.24ZM340.765 745.24L363.439 744.905C370.938 744.816 378.392 744.704 385.823 744.704L385.288 745.24C385.221 738.254 383.547 731.202 379.909 725.266C378.101 722.297 375.78 719.642 372.924 717.678C370.089 715.714 366.742 714.531 363.283 714.486C359.846 714.486 356.454 715.669 353.597 717.588C350.718 719.508 348.33 722.164 346.455 725.132C342.751 731.09 340.921 738.165 340.742 745.24H340.765Z" fill="#0F1944"/>
<path d="M535.505 713.947C536.487 715.755 537.357 717.607 538.206 719.482C539.076 721.334 539.835 723.231 540.616 725.128C541.352 727.025 542.111 728.944 542.758 730.886C543.428 732.828 544.075 734.769 544.588 736.756C543.584 734.948 542.736 733.096 541.888 731.221C541.018 729.369 540.259 727.472 539.478 725.575C538.741 723.678 537.982 721.758 537.335 719.817C536.666 717.875 536.018 715.934 535.483 713.947H535.505Z" fill="#0F1944"/>
<path d="M525.596 964.394C530.238 964.148 534.858 964.014 539.5 963.925L553.404 963.791L567.307 963.925C571.949 964.014 576.569 964.148 581.211 964.394C576.569 964.639 571.949 964.773 567.307 964.862L553.404 964.996L539.5 964.862C534.858 964.773 530.238 964.639 525.596 964.394Z" fill="#0F1944"/>
<path d="M467.214 964.394C471.856 964.148 476.476 964.014 481.118 963.925L495.022 963.791L508.925 963.925C513.567 964.014 518.187 964.148 522.829 964.394C518.187 964.639 513.567 964.773 508.925 964.862L495.022 964.996L481.118 964.862C476.476 964.773 471.856 964.639 467.214 964.394Z" fill="#0F1944"/>
<path d="M497.811 784.182C494.642 788.043 490.871 791.368 486.831 794.314C482.769 797.237 478.306 799.625 473.597 801.411C468.888 803.196 463.822 803.999 458.801 804.044C453.735 804.2 448.803 802.772 444.183 801.053L447.798 801.969L449.584 802.437C450.186 802.549 450.811 802.593 451.436 802.66L455.096 803.129H458.778C463.666 802.884 468.576 802.102 473.173 800.272C477.793 798.599 482.167 796.255 486.296 793.555C490.402 790.81 494.285 787.708 497.811 784.182Z" fill="#0F1944"/>
<path d="M492.701 770.812C491.339 774.026 489.353 776.972 487.054 779.628C484.756 782.284 482.011 784.56 479.042 786.479C476.03 788.309 472.794 789.804 469.357 790.608C467.661 791.099 465.92 791.277 464.179 791.501C462.438 791.679 460.675 791.59 458.957 791.568C462.416 791.188 465.853 790.809 469.111 789.693C470.763 789.247 472.347 788.555 473.932 787.908C475.449 787.126 477.012 786.412 478.418 785.43C481.341 783.667 483.997 781.458 486.385 778.981C488.773 776.503 490.915 773.781 492.723 770.812H492.701Z" fill="#0F1944"/>
<path d="M604.175 764.499C604.175 764.499 617.744 772.31 637.227 765.548C642.182 763.16 640.843 772.645 644.614 772.645C651.31 772.645 644.235 756.063 636.134 753.43C628.033 750.818 609.71 747.962 604.175 750.841" fill="#F6CABB"/>
<path d="M625.422 768.113L632.518 766.305C633.679 766.015 634.839 765.636 635.955 765.256C637.071 764.855 638.165 764.386 639.013 763.694L639.08 763.649C639.281 763.493 639.548 763.515 639.705 763.716V763.761C640.687 765.212 641.356 766.952 641.222 768.671C640.843 767.019 639.995 765.569 638.968 764.319L639.682 764.363C638.723 765.368 637.54 765.926 636.379 766.372C635.196 766.818 633.991 767.153 632.786 767.421C630.354 767.912 627.899 768.18 625.422 768.113Z" fill="#0F1944"/>
<path d="M630.041 767.422C630.354 767.734 630.465 768.114 630.577 768.471C630.688 768.85 630.666 769.207 630.644 769.587C630.599 769.944 630.532 770.301 630.354 770.636C630.197 770.97 629.997 771.305 629.662 771.573C629.372 770.769 629.372 770.122 629.439 769.453C629.528 768.783 629.662 768.158 630.041 767.422Z" fill="#0F1944"/>
<path d="M451.034 606.448H447.129C429.52 606.448 415.126 592.053 415.126 574.445V547.374C415.126 529.766 429.52 515.371 447.129 515.371H451.034C468.643 515.371 483.037 529.766 483.037 547.374L481.185 585.157C479.824 602.766 468.643 606.448 451.034 606.448Z" fill="#F6CABB"/>
<path d="M460.809 620.754C456.837 622.138 449.785 624.102 440.768 623.945C432.779 623.811 426.508 622.071 422.691 620.754V574.49H460.809V620.754Z" fill="#F6CABB"/>
<path d="M467.125 573.282H472.37C472.37 573.282 471.432 566.453 474.78 563.105C478.127 559.758 476.32 553.531 476.32 550.05C487.902 551.5 487.322 552.973 490.29 550.005C493.259 547.037 493.75 535.61 488.661 530.5C483.573 525.389 484.957 517.109 478.507 517.109C472.057 517.109 464.804 496.734 447.33 504.88C429.877 513.025 421.642 501.666 415.126 515.346C408.609 529.027 395.531 532.798 403.097 545.899C410.662 558.999 397.562 583.726 406.578 590.132C415.594 596.537 415.594 615.752 438.001 603.812C442.665 601.781 460.408 605.843 460.408 591.292C460.408 576.741 455.163 563.931 462.148 560.874C469.134 557.816 467.125 573.237 467.125 573.237V573.282Z" fill="#734A27"/>
<path d="M467.415 569.645C467.415 575.76 464.893 580.692 461.791 580.692C458.689 580.692 456.167 575.737 456.167 569.645C456.167 563.552 458.689 558.598 461.791 558.598C464.893 558.598 467.415 563.552 467.415 569.645Z" fill="#F6CABB"/>
<path d="M460.809 599.213C461.055 600.552 461.189 601.869 461.278 603.208C461.389 604.547 461.412 605.863 461.412 607.203C461.412 608.542 461.389 609.858 461.278 611.197C461.189 612.536 461.055 613.853 460.809 615.192C460.564 613.853 460.43 612.536 460.341 611.197C460.229 609.858 460.207 608.542 460.207 607.203C460.207 605.863 460.229 604.547 460.341 603.208C460.43 601.869 460.564 600.552 460.809 599.213Z" fill="#0F1944"/>
<path d="M447.999 546.256C446.995 549.135 446.124 552.058 445.611 555.004C445.165 557.905 444.852 561.074 446.214 563.551C446.839 564.645 448.133 565.805 448.892 567.189C449.695 568.551 450.275 570.023 450.655 571.519C451.436 574.532 451.681 577.634 451.391 580.669C451.168 577.634 450.699 574.621 449.762 571.787C449.249 570.381 448.736 568.997 447.954 567.747C447.218 566.453 446.102 565.627 445.165 564.109C444.339 562.636 444.183 560.985 444.138 559.423C444.138 557.838 444.339 556.298 444.696 554.781C445.41 551.768 446.526 548.889 447.999 546.211V546.256Z" fill="#0F1944"/>
<path d="M439.675 558.576L439.05 563.687C438.871 565.383 438.648 567.057 438.514 568.753C438.38 570.427 438.313 572.123 438.38 573.774C438.47 575.426 438.715 577.122 439.697 578.55C438.313 577.434 437.733 575.582 437.465 573.864C437.175 572.123 437.198 570.36 437.331 568.641C437.51 566.923 437.755 565.204 438.157 563.508C438.559 561.835 439.028 560.161 439.697 558.576H439.675Z" fill="#0F1944"/>
<path d="M426.463 573.018C426.24 575.339 426.173 577.548 426.552 579.69C426.708 580.762 427.021 581.811 427.423 582.837C427.802 583.886 428.404 584.801 429.007 585.828C428.07 585.158 427.177 584.31 426.597 583.261C425.972 582.235 425.548 581.074 425.369 579.891C425.191 578.708 425.168 577.503 425.369 576.343C425.57 575.182 425.883 574.044 426.485 573.018H426.463Z" fill="#0F1944"/>
<path d="M419.879 578.549C419.79 582.454 419.612 586.293 419.656 590.154C419.656 592.073 419.768 593.97 419.991 595.867L420.192 597.273L420.527 598.657C420.638 599.125 420.839 599.549 420.995 599.996C421.196 600.42 421.486 600.799 421.709 601.245C420.169 599.951 419.478 597.92 419.031 596.023C418.585 594.082 418.451 592.118 418.406 590.154C418.406 588.19 418.496 586.226 418.763 584.307C419.009 582.365 419.321 580.446 419.857 578.549H419.879Z" fill="#0F1944"/>
<path d="M411.243 548.287C412.336 551.367 413.117 554.58 413.452 557.883C413.631 559.535 413.631 561.209 413.34 562.905L413.028 564.177C412.872 564.578 412.671 565.002 412.47 565.404L411.644 566.475C411.421 566.766 411.153 567.033 410.975 567.368C409.256 569.957 408.542 573.215 408.029 576.362C407.783 577.946 407.672 579.576 407.739 581.182C407.783 582.767 407.962 584.441 408.899 585.802C407.716 584.619 407.382 582.834 407.136 581.227C406.958 579.576 406.958 577.902 407.092 576.25C407.449 572.97 408.14 569.644 409.948 566.676C410.149 566.297 410.484 565.984 410.774 565.65C411.064 565.315 411.22 565.069 411.466 564.779L411.934 563.775L412.247 562.659C412.559 561.142 412.537 559.512 412.515 557.906C412.381 554.692 411.845 551.456 411.243 548.242V548.287Z" fill="#0F1944"/>
<path d="M419.031 538.691C420.08 540.321 420.928 542.084 421.665 543.869C422.423 545.654 423.004 547.529 423.45 549.426C423.874 551.323 424.187 553.287 424.12 555.251C424.075 557.215 423.74 559.246 422.691 560.897C423.272 559.045 423.316 557.148 423.205 555.273C423.048 553.398 422.736 551.524 422.29 549.694C421.441 545.989 420.236 542.374 419.054 538.691H419.031Z" fill="#0F1944"/>
<path d="M430.77 531.704C429.654 535.699 428.628 539.694 428.271 543.733C427.869 547.75 428.226 551.923 430.77 555.316C429.141 553.999 428.07 552.035 427.512 549.959C426.909 547.884 426.909 545.719 427.065 543.621C427.266 541.524 427.668 539.448 428.338 537.439C428.985 535.453 429.744 533.489 430.77 531.682V531.704Z" fill="#0F1944"/>
<path d="M438.715 524.721C439.429 526.595 439.965 528.537 440.389 530.501C440.835 532.465 441.125 534.451 441.326 536.46C441.505 538.468 441.572 540.499 441.349 542.508C441.148 544.516 440.768 546.592 439.63 548.288C440.277 546.391 440.389 544.405 440.411 542.441C440.411 540.477 440.322 538.513 440.099 536.549C439.742 532.621 439.161 528.693 438.671 524.721H438.715Z" fill="#0F1944"/>
<path d="M413.073 529.094C412.582 531.66 412.314 534.137 412.559 536.592C412.649 537.82 412.983 539.003 413.385 540.163C413.764 541.346 414.479 542.395 415.148 543.511C414.121 542.73 413.14 541.77 412.537 540.543C411.89 539.36 411.488 538.043 411.354 536.704C411.243 535.365 411.309 534.026 411.622 532.731C411.912 531.437 412.358 530.187 413.073 529.094Z" fill="#0F1944"/>
<path d="M451.414 538.691C452.15 539.74 452.753 540.856 453.333 541.994C453.913 543.11 454.382 544.293 454.851 545.476C455.275 546.681 455.654 547.886 455.922 549.136C456.167 550.386 456.39 551.68 456.167 552.952C455.877 551.702 455.453 550.564 455.007 549.381L453.69 545.878C452.842 543.534 451.994 541.169 451.414 538.691Z" fill="#0F1944"/>
<path d="M460.809 531.703C461.947 533.265 462.929 534.917 463.844 536.591C464.782 538.264 465.585 540.005 466.322 541.791C467.036 543.576 467.683 545.406 468.062 547.325C468.241 548.285 468.375 549.245 468.375 550.249C468.33 551.208 468.174 552.324 467.415 552.971C467.951 552.168 467.928 551.186 467.795 550.293C467.683 549.378 467.437 548.463 467.17 547.571C466.589 545.785 465.942 544.022 465.206 542.282C463.8 538.778 462.215 535.319 460.832 531.748L460.809 531.703Z" fill="#0F1944"/>
<path d="M451.414 523.561C452.038 525.056 452.574 526.506 453.288 527.912C454.002 529.318 454.694 530.702 455.52 532.019C457.104 534.719 458.912 537.263 460.809 539.852C459.492 538.915 458.354 537.777 457.305 536.549C456.234 535.344 455.319 534.005 454.471 532.644C452.842 529.876 451.637 526.752 451.391 523.561H451.414Z" fill="#0F1944"/>
<path d="M460.809 523.561C461.903 523.449 463.019 523.784 464.023 524.23C465.05 524.677 465.942 525.368 466.746 526.127C467.549 526.886 468.219 527.779 468.777 528.716C469.044 529.185 469.29 529.676 469.535 530.167C469.714 530.68 469.915 531.193 470.049 531.706C469.312 530.881 468.687 530.055 468.018 529.252C467.304 528.493 466.679 527.689 465.92 526.998C465.206 526.283 464.425 525.636 463.599 525.034C462.751 524.453 461.858 523.94 460.854 523.561H460.809Z" fill="#0F1944"/>
<path d="M470.026 524.722C471.187 524.387 472.459 524.521 473.619 524.878C474.802 525.235 475.873 525.949 476.766 526.775C477.659 527.623 478.351 528.65 478.886 529.743C479.132 530.301 479.333 530.859 479.556 531.417C479.69 531.997 479.846 532.577 479.913 533.158C479.266 532.153 478.73 531.149 478.06 530.212C477.391 529.297 476.721 528.404 475.918 527.668C474.333 526.15 472.37 525.057 470.026 524.722Z" fill="#0F1944"/>
<path d="M473.218 536.304C474.891 537.553 476.498 538.691 478.15 539.852C479.779 541.035 481.453 542.151 483.037 543.512C482.011 543.267 481.051 542.865 480.114 542.419C479.176 541.972 478.284 541.437 477.436 540.834C476.61 540.209 475.784 539.562 475.07 538.803C474.356 538.044 473.664 537.241 473.218 536.281V536.304Z" fill="#0F1944"/>
<path d="M460.809 515.37C461.546 514.745 462.461 514.388 463.42 514.165C464.38 513.941 465.407 513.986 466.389 514.276C467.371 514.589 468.263 515.169 468.866 515.995C469.201 516.374 469.401 516.82 469.625 517.244C469.803 517.691 469.937 518.159 470.026 518.628C469.401 517.914 468.866 517.177 468.196 516.642C467.549 516.084 466.835 515.682 466.032 515.437C464.447 514.923 462.684 515.08 460.809 515.37Z" fill="#0F1944"/>
<path d="M549.944 379.816L573.511 462.39C579.894 461.944 585.875 460.069 591.12 457.057L577.752 380.464C575.431 380.062 573.065 379.816 570.633 379.816H549.944Z" fill="#E0E0E0"/>
<path d="M570.633 456.697H350.718C331.168 456.697 315.189 440.718 315.189 421.168C315.189 401.618 331.168 385.639 350.718 385.639H570.633C590.182 385.639 606.162 401.618 606.162 421.168C606.162 440.718 590.182 456.697 570.633 456.697Z" fill="#E4E4E4"/>
<path d="M357.748 403.65L362.903 414.095L374.419 415.769L366.095 423.892L368.059 435.363L357.748 429.94L347.46 435.363L349.424 423.892L341.099 415.769L352.593 414.095L357.748 403.65Z" fill="#F36648"/>
<path d="M405.685 403.65L410.841 414.095L422.356 415.769L414.032 423.892L415.996 435.363L405.685 429.94L395.397 435.363L397.361 423.892L389.037 415.769L400.553 414.095L405.685 403.65Z" fill="#F36648"/>
<path d="M453.645 403.65L458.778 414.095L470.294 415.769L461.97 423.892L463.934 435.363L453.645 429.94L443.335 435.363L445.299 423.892L436.974 415.769L448.49 414.095L453.645 403.65Z" fill="#F36648"/>
<path d="M501.583 403.65L506.716 414.095L518.232 415.769L509.907 423.892L511.871 435.363L501.583 429.94L491.272 435.363L493.236 423.892L484.912 415.769L496.428 414.095L501.583 403.65Z" fill="#F36648"/>
<path d="M780.125 126L785.28 136.444L796.796 138.118L788.449 146.242L790.413 157.713L780.125 152.29L769.814 157.713L771.801 146.242L763.454 138.118L774.97 136.444L780.125 126Z" fill="#E4E4E4"/>
<path d="M276.402 453.127L281.557 463.549L293.073 465.223L284.726 473.346L286.69 484.818L276.402 479.394L266.091 484.818L268.055 473.346L259.73 465.223L271.246 463.549L276.402 453.127Z" fill="#4A3243"/>
<path d="M549.52 403.65L554.676 414.095L566.191 415.769L557.845 423.892L559.809 435.363L549.52 429.94L539.21 435.363L541.196 423.892L532.849 415.769L544.365 414.095L549.52 403.65Z" fill="#BDBDBD"/>
<path d="M534.233 451.541L578.778 584.708L505.422 451.541H534.233Z" fill="#E4E4E4"/>
<path d="M544.901 483.41L534.233 451.541H505.422L524.614 486.378C531.064 484.057 537.915 483.187 544.901 483.388V483.41Z" fill="#E4E4E4"/>
<path d="M544.901 483.409C537.915 483.208 531.086 484.057 524.614 486.4L565.946 561.408C567.464 560.761 568.892 560.002 570.231 559.132L544.901 483.409Z" fill="#E0E0E0"/>
<path d="M570.231 559.111C568.892 559.982 567.464 560.74 565.946 561.388L578.801 584.687L570.231 559.111Z" fill="#E4E4E4"/>
<path d="M745.935 325.383H663.182V385.639H745.935V325.383Z" fill="#FFB469"/>
<path d="M663.182 325.158L696.435 293.489C700.988 289.16 708.129 289.16 712.682 293.489L745.935 325.158" fill="#F89939"/>
<path d="M732.388 381.557H676.729V318.287H722.502C726.363 322.148 728.527 324.313 732.366 328.151V381.557H732.388Z" fill="#E4E4E4"/>
<path d="M722.502 318.287V328.151H732.388L722.502 318.287Z" fill="#BDBDBD"/>
<path d="M725.537 331.521H683.58V333.776H725.537V331.521Z" fill="#BDBDBD"/>
<path d="M725.537 335.783H683.58V338.037H725.537V335.783Z" fill="#BDBDBD"/>
<path d="M725.537 340.047H683.58V342.301H725.537V340.047Z" fill="#BDBDBD"/>
<path d="M725.537 344.309H683.58V346.563H725.537V344.309Z" fill="#BDBDBD"/>
<path d="M725.537 348.572H683.58V350.826H725.537V348.572Z" fill="#BDBDBD"/>
<path d="M725.537 352.836H683.58V355.09H725.537V352.836Z" fill="#BDBDBD"/>
<path d="M725.537 357.098H683.58V359.352H725.537V357.098Z" fill="#BDBDBD"/>
<path d="M725.537 361.361H683.58V363.615H725.537V361.361Z" fill="#BDBDBD"/>
<path d="M725.537 365.625H683.58V367.879H725.537V365.625Z" fill="#BDBDBD"/>
<path d="M725.537 369.883H683.58V372.137H725.537V369.883Z" fill="#BDBDBD"/>
<path d="M725.537 374.146H683.58V376.401H725.537V374.146Z" fill="#BDBDBD"/>
<path d="M488.505 243.032H432.846V168.068H478.618C482.479 171.929 484.644 174.094 488.483 177.933V243.01L488.505 243.032Z" fill="#E4E4E4"/>
<path d="M478.641 168.068V177.933H488.505L478.641 168.068Z" fill="#BDBDBD"/>
<path d="M481.654 181.303H439.697V183.557H481.654V181.303Z" fill="#BDBDBD"/>
<path d="M481.654 185.564H439.697V187.818H481.654V185.564Z" fill="#BDBDBD"/>
<path d="M481.654 189.828H439.697V192.082H481.654V189.828Z" fill="#BDBDBD"/>
<path d="M481.654 194.09H439.697V196.344H481.654V194.09Z" fill="#BDBDBD"/>
<path d="M481.654 198.354H439.697V200.608H481.654V198.354Z" fill="#BDBDBD"/>
<path d="M481.654 202.617H439.697V204.871H481.654V202.617Z" fill="#BDBDBD"/>
<path d="M481.654 206.879H439.697V209.133H481.654V206.879Z" fill="#BDBDBD"/>
<path d="M481.654 211.143H439.697V213.397H481.654V211.143Z" fill="#BDBDBD"/>
<path d="M481.654 215.428H439.697V217.682H481.654V215.428Z" fill="#BDBDBD"/>
<path d="M481.654 219.689H439.697V221.943H481.654V219.689Z" fill="#BDBDBD"/>
<path d="M481.654 223.949H439.697V226.203H481.654V223.949Z" fill="#BDBDBD"/>
<path d="M745.935 385.639H663.182V325.383L704.559 356.672L745.935 325.383V385.639Z" fill="#F89939"/>
<path d="M745.935 385.64H663.182L696.435 353.972C700.988 349.642 708.129 349.642 712.682 353.972L745.935 385.64Z" fill="#F36648"/>
<path d="M663.182 385.64L696.435 353.972C700.988 349.642 708.129 349.642 712.682 353.972L745.935 385.64" fill="#F89939"/>
<path d="M663.182 385.638C669.654 379.166 676.171 372.739 682.732 366.379L692.596 356.849C694.293 355.309 695.743 353.591 697.752 352.185C699.76 350.846 702.148 350.132 704.559 350.109C706.969 350.109 709.357 350.846 711.365 352.185C713.374 353.613 714.824 355.309 716.521 356.849L726.407 366.379C732.968 372.739 739.485 379.166 745.957 385.638C739.173 379.501 732.433 373.297 725.76 367.048L715.762 357.653C714.088 356.135 712.481 354.35 710.74 353.145C708.933 351.939 706.746 351.337 704.581 351.314C702.416 351.314 700.251 351.939 698.421 353.145C696.658 354.35 695.074 356.135 693.4 357.653L683.402 367.048C676.729 373.297 669.989 379.479 663.205 385.638H663.182Z" fill="#0F1944"/>
<path d="M663.182 325.383C666.307 327.414 669.342 329.578 672.355 331.743C675.39 333.908 678.336 336.162 681.326 338.349C684.272 340.626 687.218 342.857 690.142 345.178C693.043 347.499 695.944 349.82 698.756 352.275C695.632 350.244 692.597 348.079 689.584 345.937C686.571 343.772 683.603 341.541 680.612 339.331C677.689 337.055 674.72 334.823 671.797 332.502C668.896 330.181 665.994 327.86 663.182 325.405V325.383Z" fill="#0F1944"/>
<path d="M710.718 352.006C713.508 349.596 716.364 347.275 719.243 344.977C722.122 342.678 725.068 340.468 727.969 338.214C730.938 336.027 733.861 333.818 736.852 331.675C739.842 329.533 742.855 327.413 745.935 325.404C743.145 327.815 740.289 330.136 737.41 332.434C734.531 334.733 731.585 336.942 728.684 339.196C725.715 341.383 722.792 343.593 719.801 345.735C716.811 347.878 713.798 349.998 710.718 352.029V352.006Z" fill="#0F1944"/>
<path d="M680.969 419.494L661.33 601.893L716.588 419.494H680.969Z" fill="#E4E4E4"/>
<path d="M900.504 158.854H858.749C822.388 158.854 792.913 188.329 792.913 224.689V266.445C792.913 302.805 822.388 332.281 858.749 332.281H900.504C936.865 332.281 966.34 302.805 966.34 266.445V224.689C966.34 188.329 936.865 158.854 900.504 158.854Z" fill="#E4E4E4"/>
<path d="M740.735 460.893C730.402 471.471 724.019 485.911 724.019 501.868V539.07C724.019 544.315 724.711 549.403 726.005 554.224C744.529 550.943 758.656 534.786 758.656 515.325V493.945C758.656 480.131 751.514 467.945 740.735 460.871V460.893ZM676.528 460.648L667.869 541.191C670.569 544.315 673.761 546.993 677.309 549.158L706.009 454.443H697.73C689.918 454.443 682.665 456.742 676.528 460.67V460.648Z" fill="#E0E0E0"/>
<path d="M719.109 460.244H697.73C679.118 460.244 664.03 475.332 664.03 493.943V515.323C664.03 533.935 679.118 549.022 697.73 549.022H719.109C737.721 549.022 752.809 533.935 752.809 515.323V493.943C752.809 475.332 737.721 460.244 719.109 460.244Z" fill="#E4E4E4"/>
<path d="M695.163 545.967L673.448 639.342L713.419 545.967H695.163Z" fill="#E4E4E4"/>
<path d="M729.599 489.215H687.24V520.057H729.599V489.215Z" fill="#FFB469"/>
<path d="M687.24 489.215H729.621V520.08L708.442 504.056L687.24 520.08V489.215Z" fill="#FFB469"/>
<path d="M687.24 489.215H729.599L712.57 505.417C710.249 507.627 706.589 507.627 704.246 505.417L687.218 489.215H687.24Z" fill="#F36648"/>
<path d="M729.621 489.215L712.593 505.417C710.272 507.627 706.612 507.627 704.268 505.417L687.24 489.215" fill="#FFB469"/>
<path d="M729.621 489.215C726.407 492.629 723.104 495.932 719.779 499.235C718.128 500.909 716.431 502.516 714.758 504.145C713.887 504.948 713.173 505.797 712.08 506.578C711.008 507.292 709.736 507.671 708.442 507.694C707.147 507.694 705.875 507.292 704.804 506.578C703.711 505.797 703.019 504.948 702.126 504.145C700.452 502.516 698.734 500.909 697.105 499.235C693.779 495.932 690.476 492.629 687.263 489.215C690.833 492.25 694.293 495.397 697.752 498.566C699.493 500.128 701.189 501.757 702.907 503.342C703.755 504.1 704.626 505.038 705.451 505.596C706.344 506.176 707.393 506.466 708.442 506.466C709.491 506.466 710.54 506.176 711.432 505.596C712.28 505.038 713.128 504.1 713.976 503.342C715.695 501.757 717.369 500.128 719.132 498.566C722.591 495.397 726.072 492.272 729.621 489.215Z" fill="#0F1944"/>
<path d="M729.621 520.078C727.947 519.141 726.363 518.07 724.778 516.999C723.194 515.95 721.676 514.811 720.136 513.673C718.618 512.513 717.123 511.352 715.673 510.125C714.222 508.897 712.771 507.67 711.41 506.309C713.084 507.246 714.668 508.317 716.253 509.366C717.837 510.415 719.355 511.553 720.895 512.691C722.412 513.852 723.908 515.012 725.358 516.24C726.809 517.467 728.259 518.695 729.621 520.056V520.078Z" fill="#0F1944"/>
<path d="M705.273 506.445C703.911 507.784 702.483 509.012 701.055 510.217C699.626 511.444 698.131 512.583 696.636 513.743C695.118 514.859 693.623 515.997 692.039 517.046C690.476 518.095 688.914 519.144 687.24 520.081C688.579 518.742 690.03 517.515 691.458 516.31C692.887 515.082 694.382 513.944 695.877 512.783C697.395 511.668 698.89 510.529 700.474 509.48C702.037 508.432 703.599 507.383 705.273 506.445Z" fill="#0F1944"/>
<path d="M902.535 394.656H860.177V425.499H902.535V394.656Z" fill="#F89939"/>
<path d="M860.177 394.656H902.535V425.521L881.356 409.497L860.177 425.521V394.656Z" fill="#F89939"/>
<path d="M860.177 394.656H902.535L885.507 410.859C883.186 413.068 879.526 413.068 877.183 410.859L860.155 394.656H860.177Z" fill="#F36648"/>
<path d="M902.535 394.656L885.507 410.859C883.186 413.068 879.526 413.068 877.183 410.859L860.155 394.656" fill="#F89939"/>
<path d="M902.535 394.656C899.322 398.071 896.019 401.374 892.693 404.677C891.042 406.351 889.346 407.957 887.672 409.587C886.802 410.39 886.087 411.238 884.994 412.019C883.923 412.733 882.651 413.113 881.356 413.135C880.062 413.135 878.79 412.733 877.718 412.019C876.625 411.238 875.933 410.39 875.04 409.587C873.367 407.957 871.648 406.351 870.019 404.677C866.694 401.374 863.391 398.071 860.177 394.656C863.748 397.691 867.207 400.838 870.666 404.007C872.407 405.569 874.103 407.199 875.821 408.783C876.669 409.542 877.54 410.479 878.366 411.037C879.258 411.617 880.307 411.907 881.356 411.907C882.405 411.907 883.454 411.617 884.347 411.037C885.195 410.479 886.043 409.542 886.891 408.783C888.609 407.199 890.283 405.569 892.046 404.007C895.505 400.838 898.987 397.714 902.535 394.656Z" fill="#0F1944"/>
<path d="M902.535 425.522C900.861 424.584 899.277 423.513 897.692 422.442C896.108 421.393 894.59 420.255 893.05 419.117C891.533 417.956 890.038 416.796 888.587 415.568C887.136 414.341 885.686 413.113 884.324 411.752C885.998 412.689 887.583 413.76 889.167 414.809C890.752 415.858 892.269 416.997 893.809 418.135C895.327 419.295 896.822 420.456 898.273 421.683C899.723 422.911 901.174 424.138 902.535 425.499V425.522Z" fill="#0F1944"/>
<path d="M878.209 411.887C876.848 413.226 875.42 414.453 873.991 415.658C872.563 416.886 871.068 418.024 869.573 419.184C868.055 420.3 866.56 421.439 864.975 422.487C863.413 423.536 861.851 424.585 860.177 425.523C861.516 424.184 862.967 422.956 864.395 421.751C865.823 420.524 867.319 419.385 868.814 418.225C870.331 417.109 871.827 415.971 873.411 414.922C874.973 413.873 876.536 412.824 878.209 411.887Z" fill="#0F1944"/>
<path d="M819.649 520.482L786.351 501.244V539.697L819.649 520.482Z" fill="#E4E4E4"/>
<path d="M359.333 479.873H346.589C335.496 479.873 326.504 488.866 326.504 499.959V512.702C326.504 523.795 335.496 532.787 346.589 532.787H359.333C370.426 532.787 379.418 523.795 379.418 512.702V499.959C379.418 488.866 370.426 479.873 359.333 479.873Z" fill="#17A9E1"/>
<path d="M366.943 506.443L342.461 492.316V520.592L366.943 506.443Z" fill="#E4E4E4"/>
<path d="M620.623 204.088H607.88C596.787 204.088 587.795 213.08 587.795 224.173V236.917C587.795 248.01 596.787 257.002 607.88 257.002H620.623C631.716 257.002 640.709 248.01 640.709 236.917V224.173C640.709 213.08 631.716 204.088 620.623 204.088Z" fill="#4356A6"/>
<path d="M628.256 230.555L603.751 216.406V244.682L628.256 230.555Z" fill="#E4E4E4"/>
<path d="M745.555 571.094L710.718 648.066L766.489 584.529L745.555 571.094Z" fill="#E4E4E4"/>
<path d="M539.009 559.532L585.741 630.568L558.894 553.797L539.009 559.532Z" fill="#E4E4E4"/>
<path d="M541.129 565.269C519.66 565.269 502.275 547.862 502.275 526.415C502.275 504.946 519.66 487.561 541.129 487.561C562.598 487.561 579.984 504.968 579.984 526.415C579.984 547.884 562.576 565.269 541.129 565.269Z" fill="#E4E4E4"/>
<path d="M541.04 519.205H527.694V536.88H541.04V519.205Z" fill="#BDBDBD"/>
<path d="M555.122 538.935H543.606C541.33 538.935 539.5 537.105 539.5 534.828V521.237C539.5 518.961 541.33 517.131 543.606 517.131H557.577C560.143 517.131 562.085 519.452 561.616 521.974L559.161 535.565C558.804 537.529 557.108 538.957 555.122 538.957V538.935Z" fill="#BDBDBD"/>
<path d="M536.643 516.316H518.522V539.861H536.643V516.316Z" fill="#17A9E1"/>
<path d="M540.571 518.47L547.289 510.302C547.646 509.677 548.315 509.275 549.052 509.275C550.302 509.275 551.261 510.414 551.06 511.641L549.989 518.158L540.571 518.448V518.47Z" fill="#BDBDBD"/>
<path d="M386.18 284.309C381.27 279.4 373.303 279.4 368.393 284.309L367.344 285.358C362.435 290.268 362.435 298.235 367.344 303.145L386.203 322.003L405.061 303.145C409.97 298.235 409.97 290.268 405.061 285.358L404.012 284.309C399.102 279.4 391.135 279.4 386.225 284.309H386.18Z" fill="#17A9E1"/>
<path d="M639.459 482.275L641.222 596.25L622.52 487.877L639.459 482.275Z" fill="#E4E4E4"/>
<path d="M631.023 491.09C645.775 491.09 657.737 479.128 657.737 464.376C657.737 449.624 645.775 437.662 631.023 437.662C616.271 437.662 604.309 449.624 604.309 464.376C604.309 479.128 616.271 491.09 631.023 491.09Z" fill="#E4E4E4"/>
<path d="M631.023 455.325C628.233 452.535 623.681 452.535 620.891 455.325L620.289 455.927C617.499 458.717 617.499 463.27 620.289 466.059L631.023 476.794L641.758 466.059C644.547 463.27 644.547 458.717 641.758 455.927L641.155 455.325C638.366 452.535 633.813 452.535 631.023 455.325Z" fill="#17A9E1"/>
<path d="M726.586 202.73L705.295 242.701L709.647 208.31L726.586 202.73Z" fill="#E4E4E4"/>
<path d="M718.127 211.545C732.879 211.545 744.841 199.583 744.841 184.831C744.841 170.079 732.879 158.117 718.127 158.117C703.376 158.117 691.414 170.079 691.414 184.831C691.414 199.583 703.376 211.545 718.127 211.545Z" fill="#E4E4E4"/>
<path d="M836.632 220.045C845.626 204.913 861.985 195.562 879.615 195.562C885.73 195.562 891.689 196.656 897.38 198.821L879.035 243.902L836.632 220.045Z" fill="#4356A6"/>
<path d="M881.356 244.392L899.545 199.713C917.488 207.502 929.16 224.842 929.606 244.392H881.356Z" fill="#FFB469"/>
<path d="M859.708 291.418C841.408 283.473 829.625 265.597 829.625 245.556C829.625 237.365 831.656 229.264 835.494 222.078L878.165 246.069L859.708 291.418Z" fill="#89D2DC"/>
<path d="M884.079 246.736H929.606C929.427 254.525 927.419 262.202 923.759 269.054L884.079 246.736Z" fill="#4A3243"/>
<path d="M879.615 295.567C873.5 295.567 867.542 294.473 861.851 292.309L880.196 247.25L922.598 271.107C913.604 286.238 897.246 295.589 879.615 295.589V295.567Z" fill="#F36648"/>
<path d="M729.732 171.163L728.17 169.601L721.207 176.564L722.212 177.568C724.287 179.644 724.287 183.036 722.212 185.111L718.083 189.24C716.007 191.316 712.615 191.316 710.54 189.24L709.535 188.236L702.572 195.199L704.135 196.761C707.683 200.31 713.419 200.31 716.967 196.761L729.755 183.973C733.303 180.425 733.303 174.689 729.755 171.141L729.732 171.163ZM720.515 175.894L727.478 168.931L727.01 168.463C726.229 167.682 724.957 167.682 724.175 168.463L720.024 172.614C719.243 173.395 719.243 174.667 720.024 175.448L720.493 175.917L720.515 175.894ZM708.352 187.098C707.571 186.317 706.299 186.317 705.518 187.098L701.367 191.249C700.586 192.03 700.586 193.302 701.367 194.083L701.836 194.552L708.799 187.589L708.33 187.12L708.352 187.098Z" fill="#17A9E1"/>
<path d="M302.848 373.163L301.285 371.601L294.322 378.564L295.327 379.568C297.402 381.644 297.402 385.036 295.327 387.111L291.198 391.24C289.122 393.316 285.73 393.316 283.655 391.24L282.65 390.236L275.687 397.199L277.25 398.761C280.798 402.31 286.534 402.31 290.082 398.761L302.87 385.973C306.418 382.425 306.418 376.689 302.87 373.141L302.848 373.163ZM293.631 377.894L300.593 370.931L300.125 370.463C299.344 369.682 298.072 369.682 297.291 370.463L293.14 374.614C292.358 375.395 292.358 376.667 293.14 377.448L293.608 377.917L293.631 377.894ZM281.468 389.098C280.686 388.317 279.414 388.317 278.633 389.098L274.482 393.249C273.701 394.03 273.701 395.302 274.482 396.083L274.951 396.552L281.914 389.589L281.445 389.12L281.468 389.098Z" fill="#4356A6"/>
<path d="M329.539 214.166H249.911V297.878H329.539V214.166Z" fill="#17A9E1"/>
<path d="M289.725 239.809C278.075 239.809 268.657 230.369 268.657 218.741V209.011C268.657 197.361 278.098 187.943 289.725 187.943C301.375 187.943 310.792 197.384 310.792 209.011V218.741C310.792 230.391 301.352 239.809 289.725 239.809Z" stroke="#17A9E1" stroke-width="2.23173" stroke-miterlimit="10"/>
<path d="M996 348.436H936.658V410.835H996V348.436Z" fill="#28A44A"/>
<path d="M966.34 367.541C957.659 367.541 950.629 360.511 950.629 351.83V344.577C950.629 335.895 957.659 328.865 966.34 328.865C975.022 328.865 982.052 335.895 982.052 344.577V351.83C982.052 360.511 975.022 367.541 966.34 367.541Z" fill="#28A44A" stroke="#E4E4E4" stroke-width="2.23173" stroke-miterlimit="10"/>
<path d="M564.875 143.832H524.123C514.238 143.832 506.225 151.845 506.225 161.73V177.33C506.225 187.215 514.238 195.229 524.123 195.229H564.875C574.76 195.229 582.773 187.215 582.773 177.33V161.73C582.773 151.845 574.76 143.832 564.875 143.832Z" fill="#E4E4E4"/>
<path d="M544.499 190.654L557.622 225.849L558.76 192.15" fill="#E4E4E4"/>
<path d="M527.895 169.419C527.895 171.874 525.909 173.838 523.476 173.838C521.044 173.838 519.057 171.851 519.057 169.419C519.057 166.986 521.044 165 523.476 165C525.909 165 527.895 166.986 527.895 169.419Z" fill="#17A9E1"/>
<path d="M548.918 169.419C548.918 171.874 546.932 173.838 544.499 173.838C542.066 173.838 540.08 171.851 540.08 169.419C540.08 166.986 542.066 165 544.499 165C546.932 165 548.918 166.986 548.918 169.419Z" fill="#17A9E1"/>
<path d="M569.941 169.419C569.941 171.874 567.955 173.838 565.522 173.838C563.089 173.838 561.103 171.851 561.103 169.419C561.103 166.986 563.089 165 565.522 165C567.955 165 569.941 166.986 569.941 169.419Z" fill="#17A9E1"/>
<path d="M651.89 686.855H599.868V728.343H651.89V686.855Z" fill="#E4E4E4" stroke="#17A9E1" stroke-width="2.23173" stroke-miterlimit="10"/>
<path d="M599.868 685.518H609.174" stroke="#17A9E1" stroke-width="2.23173" stroke-miterlimit="10" stroke-linecap="square"/>
<path d="M673.069 712.299H639.347V739.213H673.069V712.299Z" fill="#E4E4E4" stroke="#17A9E1" stroke-width="2.23173" stroke-miterlimit="10"/>
<path d="M639.348 711.428H645.373" stroke="#17A9E1" stroke-width="2.23173" stroke-miterlimit="10" stroke-linecap="square"/>
<path d="M713.508 693.348H688.066V713.656H713.508V693.348Z" fill="#E4E4E4" stroke="#17A9E1" stroke-width="2.23173" stroke-miterlimit="10"/>
<path d="M688.066 692.703H692.597" stroke="#17A9E1" stroke-width="2.23173" stroke-miterlimit="10" stroke-linecap="square"/>
<defs>
<linearGradient id="paint0_linear_174_2110" x1="608.808" y1="683.669" x2="679.041" y2="774.595" gradientUnits="userSpaceOnUse">
<stop stop-color="#A7C8FF"/>
<stop offset="1" stop-color="#D8E9FF"/>
</linearGradient>
<linearGradient id="paint1_linear_174_2110" x1="603.979" y1="646.087" x2="737.968" y2="741.289" gradientUnits="userSpaceOnUse">
<stop stop-color="#D8E9FF"/>
<stop offset="1" stop-color="#A7C8FF"/>
</linearGradient>
<linearGradient id="paint2_linear_174_2110" x1="540.445" y1="768.867" x2="542.949" y2="796.78" gradientUnits="userSpaceOnUse">
<stop stop-color="#D8E9FF"/>
<stop offset="1" stop-color="#A7C8FF"/>
</linearGradient>
<linearGradient id="paint3_linear_174_2110" x1="657.664" y1="768.867" x2="664.346" y2="795.316" gradientUnits="userSpaceOnUse">
<stop stop-color="#D8E9FF"/>
<stop offset="1" stop-color="#A7C8FF"/>
</linearGradient>
<linearGradient id="paint4_linear_174_2110" x1="681.073" y1="775.481" x2="682.509" y2="780.014" gradientUnits="userSpaceOnUse">
<stop stop-color="#A7C8FF"/>
<stop offset="1" stop-color="#D8E9FF"/>
</linearGradient>
<linearGradient id="paint5_linear_174_2110" x1="694.308" y1="775.481" x2="695.743" y2="780.014" gradientUnits="userSpaceOnUse">
<stop stop-color="#A7C8FF"/>
<stop offset="1" stop-color="#D8E9FF"/>
</linearGradient>
<linearGradient id="paint6_linear_174_2110" x1="707.519" y1="775.481" x2="708.955" y2="780.014" gradientUnits="userSpaceOnUse">
<stop stop-color="#A7C8FF"/>
<stop offset="1" stop-color="#D8E9FF"/>
</linearGradient>
<linearGradient id="paint7_linear_174_2110" x1="604.446" y1="777.429" x2="604.993" y2="783.759" gradientUnits="userSpaceOnUse">
<stop stop-color="#A7C8FF"/>
<stop offset="1" stop-color="#D8E9FF"/>
</linearGradient>
<linearGradient id="paint8_linear_174_2110" x1="526.514" y1="777.429" x2="527.061" y2="783.759" gradientUnits="userSpaceOnUse">
<stop stop-color="#A7C8FF"/>
<stop offset="1" stop-color="#D8E9FF"/>
</linearGradient>
</defs>
</svg>
