<svg width="1200" height="1200" viewBox="0 0 1200 1200" fill="none" xmlns="http://www.w3.org/2000/svg">
<rect width="1200" height="1200" fill="white"/>
<path d="M164.764 448.447C164.764 448.447 153.87 441.932 151.839 441.593C149.809 441.276 137.37 434.232 136.038 431.567C134.705 428.88 140.945 417.161 144.541 414.39C148.138 411.619 154.547 414.242 156.62 417.69C158.693 421.138 171.237 441.107 171.237 441.107L164.764 448.447Z" fill="#FDBFC3"/>
<path d="M449.597 494.837C449.597 494.837 458.354 488.025 461.083 488.406C463.812 488.787 485.79 486.65 492.031 483.541C498.25 480.431 509.165 474.191 508.954 471.674C508.763 469.135 507.05 469.728 505.061 470.108C503.073 470.489 480.735 478.676 477.816 476.92C474.896 475.164 467.493 472.837 464.193 473.028C460.893 473.218 446.868 480.622 446.868 480.622L449.597 494.837Z" fill="#FDBFC3"/>
<path d="M357.367 859.949C357.367 859.949 365.173 871.668 360.815 883.705L298.137 882.922C298.137 882.922 295.641 873.382 302.347 871.816C309.074 870.251 338.921 859.949 338.921 859.949H357.367Z" fill="#342C3B"/>
<path d="M298.264 858.043C298.264 858.043 306.07 870.164 301.712 882.602L239.034 881.798C239.034 881.798 236.538 871.941 243.244 870.333C249.971 868.726 279.818 858.064 279.818 858.064H298.264V858.043Z" fill="#342C3B"/>
<path d="M326.166 584.613L266.597 579.346C266.597 579.346 240.769 698.461 238.654 718.494C236.538 738.526 272.626 858.805 272.626 858.805C275.313 860.138 280.495 862.253 287.307 862.359C294.203 862.465 299.491 860.497 302.22 859.228L282.336 721.117L326.123 584.613H326.166Z" fill="#342C3B"/>
<g style="mix-blend-mode:overlay" opacity="0.11">
<path d="M258.369 617.887C264.038 595.994 268.459 579.346 268.459 579.346L294.034 581.186C297.143 593.878 295.366 606.591 297.968 619.284C285.213 619.284 270.997 620.468 258.369 617.887Z" fill="black"/>
</g>
<path d="M366.104 581.97L359.885 714.265V862.361C359.885 862.361 347.235 867.099 334.056 862.361C334.056 862.361 315.504 722.155 315.293 716.888C315.081 711.62 305.583 581.949 305.583 581.949H366.083L366.104 581.97Z" fill="#342C3B"/>
<g style="mix-blend-mode:overlay" opacity="0.11">
<path d="M328.154 624.297C329.36 617.549 330.502 610.568 331.518 603.334C332.554 596.015 333.443 588.886 334.162 581.969H366.104L364.094 624.974C360.075 626.391 353.433 628.189 345.12 627.872C337.758 627.597 331.92 625.778 328.154 624.276V624.297Z" fill="black"/>
</g>
<path d="M366.104 469.033L360.181 585.357C360.181 585.357 301.924 596.505 276.074 585.357L282.759 424.019C286.672 421.586 290.586 419.153 294.52 416.721C310.195 417.25 325.849 417.8 341.523 418.328C349.16 421.861 356.775 425.394 364.412 428.926L366.104 469.012V469.033Z" fill="#E9EDF0"/>
<g style="mix-blend-mode:overlay" opacity="0.93">
<path d="M285.932 422.051C288.787 420.275 291.664 418.498 294.52 416.721C310.195 417.25 325.849 417.8 341.523 418.328C343.914 419.428 346.304 420.549 348.694 421.649C330.608 441.745 302.157 441.322 285.932 422.051Z" fill="black"/>
</g>
<path d="M360.181 349.111C359.631 353.173 355.294 382.576 334.31 391.545C331.623 392.687 327.477 394.401 322.231 393.766C310.576 392.349 310.512 381.307 291.96 364.976C291.939 364.955 277.259 352.051 277.64 347.038C277.936 343.104 279.839 340.248 279.839 340.248C279.945 340.1 280.03 339.973 280.093 339.888C282.103 337.075 284.091 336.631 287.412 334.346C293.928 329.861 292.87 326.963 297.249 324.679C301.564 322.436 303.151 324.975 312.649 324.679C323.522 324.34 326.885 320.977 331.56 323.515C333.76 324.7 336.298 327.238 337.821 333.119C340.487 333.415 346.833 334.473 352.777 339.38C356.923 342.829 359.123 346.721 360.223 349.069L360.181 349.111Z" fill="#342C3B"/>
<path d="M307.064 385.768L295.324 419.507C295.324 419.507 314.489 430.507 324.389 426.7C334.289 422.892 339.852 421.898 339.852 421.898L334.289 385.514L307.085 385.768H307.064Z" fill="#FDBFC3"/>
<path d="M336.552 400.409L334.268 385.496L307.064 385.75L303.743 395.311C310.597 401.404 324.77 402.652 336.552 400.409Z" fill="#F77F90"/>
<path d="M318.964 394.741C334.985 394.741 347.972 381.088 347.972 364.247C347.972 347.405 334.985 333.752 318.964 333.752C302.944 333.752 289.957 347.405 289.957 364.247C289.957 381.088 302.944 394.741 318.964 394.741Z" fill="#FDBFC3"/>
<path d="M338.583 373.074C337.991 378.13 341.587 382.699 346.642 383.292C351.698 383.884 356.267 380.288 356.86 375.232C357.452 370.176 353.856 365.607 348.8 365.015C343.744 364.423 339.175 368.019 338.583 373.074Z" fill="#FDBFC3"/>
<path d="M336.256 335.83C332.766 338.707 327.477 342.303 320.37 344.651C304.547 349.897 290.628 345.391 285.741 343.53C287.307 341.668 289.612 339.214 292.807 336.824C295.007 335.174 299.068 332.191 305.097 330.499C312.797 328.32 319.185 329.526 322.21 330.118C328.366 331.345 333.104 333.799 336.235 335.83H336.256Z" fill="#342C3B"/>
<path d="M330.798 336.565C329.148 338.236 333.147 345.09 334.754 347.586C337.885 352.367 340.064 352.959 341.862 356.322C343.321 359.094 344.506 363.684 342.221 371.363C349.266 365.863 352.375 357.232 350.133 349.828C346.812 338.913 332.977 334.365 330.798 336.565Z" fill="#342C3B"/>
<path d="M340.635 415.613C340.635 415.613 369.784 421.832 372.852 425.132C375.919 428.432 394.661 500.841 394.661 500.841L450.062 473.151L457.106 495.489C457.106 495.489 393.328 539.277 383.936 538.685C374.523 538.092 371.836 529.039 371.836 529.039L372.725 614.52C372.725 614.52 355.95 621.226 336.256 619.407C336.256 619.407 344.696 451.257 340.635 415.634V415.613Z" fill="#342C3B"/>
<path d="M295.303 414.348C295.303 414.348 274.171 419.488 269.94 422.301C265.709 425.115 213.798 476.454 213.798 476.454L170.709 426.68L150.084 446.543C150.084 446.543 190.381 507.931 211.027 515.737C217.014 518 263.361 474.91 263.361 474.91L251.155 604.56C251.155 604.56 274.572 614.904 289.401 612.07L295.303 414.348Z" fill="#342C3B"/>
<path d="M321.089 436.75L328.133 535.749L315.314 557.41L303.257 536.827L309.412 436.75H321.089Z" fill="#17A9E1"/>
<g style="mix-blend-mode:overlay" opacity="0.45">
<path d="M308.63 449.294L309.391 436.75H321.068L321.935 448.808C317.578 450.14 313.03 450.309 308.63 449.294Z" fill="black"/>
</g>
<path d="M322.062 421.119H309.497L306.514 439.84C306.514 439.84 314.849 445.848 324.558 440.517L322.062 421.119Z" fill="#17A9E1"/>
<path d="M297.799 405.314L316.287 417.287L338.519 406.711L347.721 415.616L322.76 433.491L315.314 420.63L308.651 433.491L288.386 416.103L297.799 405.314Z" fill="#E9EDF0"/>
<path d="M178.366 413.693C180.376 412.339 185.622 408.426 188.541 401.085C191.545 393.576 190.318 386.976 189.768 384.649C180.989 381.138 171.28 376.759 161.528 370.518C137.561 355.224 118.121 334.431 104.117 317C103.271 328.402 100.88 344.225 94.1537 361.93C86.8134 381.243 77.0616 395.585 69.5732 404.935C88.7595 401.064 116.576 398.928 148.836 404.956C161.126 407.262 170.856 410.499 178.366 413.672V413.693Z" fill="#28A44A"/>
<path d="M178.133 413.8L189.514 384.799C190.17 383.106 189.366 381.118 187.695 380.356L165.251 369.991C163.283 369.082 161.105 369.843 160.364 371.705L147.863 403.541C147.143 405.402 148.222 407.454 150.274 408.11L173.754 415.789C175.51 416.36 177.456 415.45 178.112 413.758L178.133 413.8Z" fill="#342C3B"/>
<path d="M69.7849 405.042C72.556 406.184 82.9847 389.282 91.0442 370.688C92.0807 368.34 93.0538 365.971 93.9845 363.602C95.1268 360.683 96.2056 357.679 97.2422 354.696C103.482 336.335 106.994 318.1 104.286 317.085C101.029 315.879 88.7596 339.656 81.1443 359.117C73.6983 378.219 66.5907 403.73 69.7849 405.063V405.042Z" fill="#342C3B"/>
<path d="M141.918 438.484L173.056 403.412L151.289 394.887L135.213 435.84L141.918 438.484Z" fill="#342C3B"/>
<path d="M84.3385 359.245C82.7731 363.772 85.3116 368.765 90.0076 370.393C90.3461 370.52 90.7057 370.605 91.0653 370.69C92.1018 368.341 93.0749 365.972 94.0057 363.603C95.148 360.684 96.2268 357.68 97.2633 354.697C96.7768 354.422 96.2479 354.169 95.6768 353.978C90.9807 352.371 85.9038 354.74 84.3596 359.267L84.3385 359.245Z" fill="#342C3B"/>
<path d="M134.388 430.342C137.434 432.14 141.072 434.593 144.563 435.313C145.155 435.44 145.832 435.291 146.297 434.763C148.645 432.118 141.432 428.205 140.205 427.549C138.703 426.745 136.651 425.455 134.853 425.455C131.955 425.455 132.399 429.157 134.388 430.32V430.342Z" fill="#FDBFC3"/>
<path d="M136.165 425.604C139.211 427.402 142.828 429.856 146.318 430.617C146.89 430.744 147.588 430.617 148.032 430.11C150.316 427.571 143.103 423.637 141.897 422.981C140.395 422.156 138.365 420.887 136.567 420.845C133.69 420.781 134.197 424.419 136.165 425.583V425.604Z" fill="#FDBFC3"/>
<path d="M138.132 420.716C141.58 422.747 145.684 425.518 149.64 426.343C150.295 426.47 151.078 426.322 151.607 425.73C154.272 422.726 146.107 418.305 144.732 417.565C143.018 416.655 140.713 415.195 138.682 415.195C135.403 415.195 135.89 419.384 138.153 420.716H138.132Z" fill="#FDBFC3"/>
<path d="M141.326 415.617C144.796 417.627 148.878 420.419 152.897 421.138C153.574 421.265 154.357 421.075 154.907 420.44C157.699 417.225 149.492 412.846 148.117 412.127C146.403 411.217 144.097 409.779 142.024 409.821C138.682 409.906 139.084 414.285 141.326 415.596V415.617Z" fill="#FDBFC3"/>
<path d="M475.679 402.33C476.419 401.737 480.037 398.776 485.727 397.591C492.158 396.237 497.277 397.972 499.096 398.628C500.894 399.262 510.498 402.647 514.517 412.716C518.007 421.452 515.913 431.627 509.736 438.185C504.025 444.235 496.6 445.694 493.956 446.096C492.242 449.862 490.55 453.627 488.837 457.392C486.721 456.885 484.627 456.356 482.512 455.848C482.512 455.848 482.491 455.848 482.469 455.848C482.469 455.848 482.448 455.848 482.427 455.848C480.354 455.235 478.281 454.6 476.187 453.986C476.631 449.883 477.054 445.758 477.498 441.654C475.129 439.666 469.82 434.673 467.895 426.825C465.779 418.089 468.423 408.147 475.637 402.351L475.679 402.33Z" fill="#F9DEBB"/>
<path d="M475.679 402.331C476.419 401.739 480.037 398.777 485.727 397.592C489.852 396.725 493.427 397.127 495.944 397.698C479.889 402.754 468.064 424.077 480.714 436.938C485.367 442.269 492.602 444.765 499.858 444.575C497.319 445.505 495.162 445.907 493.956 446.098C492.242 449.863 490.55 453.628 488.837 457.394C486.721 456.886 484.627 456.357 482.512 455.849C482.512 455.849 482.491 455.849 482.469 455.849C482.469 455.849 482.448 455.849 482.427 455.849C480.354 455.236 478.281 454.601 476.187 453.988C476.631 449.884 477.054 445.759 477.498 441.655C475.129 439.667 469.82 434.675 467.895 426.827C465.779 418.09 468.423 408.148 475.637 402.352L475.679 402.331Z" fill="#FD9F58"/>
<path d="M480.227 429.896C480.862 430.721 482.11 430.742 483.019 430.53C483.358 430.446 483.675 430.34 483.992 430.171C484.479 430.742 484.838 431.419 485.092 432.117C485.79 434 485.663 436.051 485.388 437.998C485.071 440.134 484.627 442.271 484.14 444.365C483.379 447.644 482.448 450.859 481.348 454.032L476.06 452.594C475.721 452.509 475.383 452.699 475.298 453.038L474.939 454.349C474.854 454.688 475.044 455.026 475.383 455.111C475.044 455.026 474.706 455.217 474.621 455.555L474.262 456.867C474.177 457.205 474.367 457.543 474.706 457.628L488.202 461.309C488.54 461.393 488.879 461.203 488.963 460.865L489.323 459.553C489.408 459.215 489.217 458.876 488.879 458.792C489.217 458.876 489.556 458.686 489.64 458.347L490 457.036C490.085 456.697 489.894 456.359 489.556 456.274L485.917 455.28L486.023 454.878C487.229 450.584 488.456 446.29 489.661 441.996C490.233 439.965 490.783 437.913 491.565 435.967C491.967 434.973 492.433 434 493.004 433.09C493.131 432.878 493.279 432.688 493.427 432.477C493.617 432.921 493.871 433.323 494.209 433.682C494.865 434.38 495.817 434.825 496.79 434.655C497.658 434.507 498.504 433.873 498.757 433.005C499.265 431.25 497.256 430.002 495.733 430.234C495.246 430.298 494.802 430.488 494.379 430.742C494.527 430.615 494.654 430.467 494.781 430.298C495.331 429.6 495.627 428.648 495.204 427.802C494.823 427.061 493.85 426.702 493.342 427.548C493.088 427.971 493.067 428.542 493.025 429.029C492.961 429.621 492.94 430.234 493.025 430.827C493.025 430.848 493.025 430.89 493.025 430.911C491.565 431.525 489.958 431.017 488.942 429.79C489.936 429.007 490.571 427.738 490.423 426.469C490.317 425.623 489.704 424.629 488.752 424.607C487.8 424.607 487.335 425.517 487.25 426.321C487.123 427.442 487.483 428.648 488.117 429.642C487.229 430.107 486.171 430.15 485.219 429.6C485.135 429.536 485.05 429.473 484.944 429.409C485.071 429.261 485.198 429.113 485.283 428.923C485.706 428.14 485.769 427.146 485.367 426.363C484.987 425.623 483.992 424.946 483.337 425.771C482.808 426.448 482.935 427.463 483.252 428.204C483.442 428.669 483.717 429.071 484.077 429.43C484.077 429.43 484.077 429.43 484.056 429.43C483.844 429.198 483.612 428.986 483.379 428.817C482.702 428.309 481.539 427.632 480.671 427.907C479.846 428.161 479.719 429.261 480.206 429.896H480.227ZM484.563 429.029C484.225 428.69 483.95 428.288 483.802 427.844C483.675 427.505 483.59 427.104 483.633 426.723C483.675 426.448 483.802 426.004 484.119 425.961C484.542 425.898 484.923 426.575 485.029 426.892C485.135 427.23 485.156 427.632 485.092 427.971C485.008 428.373 484.817 428.732 484.563 429.029ZM489.238 428.732C489.069 428.965 488.858 429.155 488.646 429.325C488.308 428.796 488.075 428.182 487.948 427.548C487.821 426.871 487.736 425.877 488.308 425.369C489.111 424.671 489.852 425.94 489.915 426.617C489.979 427.379 489.704 428.119 489.26 428.732H489.238ZM494.823 429.05C494.654 429.727 494.188 430.255 493.617 430.636C493.596 430.213 493.596 429.769 493.617 429.346C493.638 428.902 493.617 428.352 493.829 427.929C494.04 427.463 494.442 427.611 494.675 427.971C494.886 428.288 494.929 428.669 494.823 429.029V429.05ZM493.892 431.969C494.167 431.673 494.463 431.419 494.802 431.207C495.458 430.805 496.198 430.657 496.938 430.911C497.552 431.123 498.165 431.609 498.271 432.286C498.398 433.111 497.7 433.809 496.959 434.042C496.113 434.296 495.267 433.936 494.675 433.323C494.294 432.942 494.04 432.477 493.871 431.99L493.892 431.969ZM484.5 429.853C484.5 429.853 484.542 429.811 484.585 429.79C485.452 430.446 486.573 430.763 487.673 430.467C487.969 430.382 488.265 430.255 488.54 430.107C488.9 430.552 489.323 430.932 489.81 431.228C490.846 431.842 492.094 431.905 493.194 431.503C493.215 431.609 493.236 431.694 493.279 431.8C492.56 432.667 492.01 433.746 491.586 434.676C490.486 437.046 489.831 439.605 489.111 442.123C487.885 446.459 486.658 450.795 485.431 455.132L481.983 454.18C482.067 453.947 482.152 453.736 482.215 453.503C483.083 450.944 483.844 448.321 484.479 445.698C485.113 443.117 485.685 440.515 486.044 437.892C486.362 435.65 486.404 433.28 485.388 431.186C485.156 430.721 484.881 430.277 484.542 429.853H484.5ZM480.629 428.669C480.84 428.288 481.369 428.436 481.708 428.542C482.427 428.775 483.062 429.198 483.612 429.727C483.612 429.727 483.612 429.727 483.59 429.727C482.829 430.065 481.623 430.277 480.904 429.727C480.587 429.494 480.417 429.029 480.629 428.669Z" fill="white"/>
<path d="M473.974 460.072L487.649 463.795C487.931 463.871 488.221 463.705 488.298 463.423L488.704 461.933C488.78 461.652 488.614 461.361 488.332 461.284L474.657 457.561C474.375 457.484 474.085 457.651 474.008 457.932L473.602 459.422C473.526 459.704 473.692 459.995 473.974 460.072Z" fill="white"/>
<path d="M473.3 462.562L486.975 466.285C487.257 466.362 487.547 466.195 487.624 465.914L488.03 464.424C488.106 464.142 487.94 463.851 487.658 463.774L473.983 460.051C473.701 459.975 473.411 460.141 473.334 460.423L472.928 461.913C472.852 462.194 473.018 462.485 473.3 462.562Z" fill="white"/>
<path d="M520.398 437.763C525.326 442.227 530.467 446.479 535.797 450.477C536.453 450.963 535.734 452.042 535.057 451.534C529.726 447.536 524.586 443.306 519.657 438.821C519.044 438.271 519.784 437.213 520.398 437.763Z" fill="#FD9F58"/>
<path d="M522.492 417.499C526.976 416.97 531.482 416.441 535.967 415.913C536.792 415.807 537.024 417.076 536.199 417.182C531.715 417.711 527.209 418.239 522.725 418.768C521.9 418.874 521.667 417.605 522.492 417.499Z" fill="#FD9F58"/>
<path d="M519.382 369.902C517.373 376.185 515.046 382.361 512.444 388.433C512.127 389.194 510.9 388.771 511.217 388.009C513.819 381.96 516.125 375.762 518.155 369.479C518.409 368.696 519.636 369.119 519.382 369.902Z" fill="#FD9F58"/>
<path d="M477.16 380.732C478.852 384.73 480.185 388.898 481.137 393.149C481.327 393.953 480.058 394.186 479.867 393.382C478.937 389.236 477.646 385.196 475.975 381.282C475.658 380.521 476.821 379.971 477.139 380.732H477.16Z" fill="#FD9F58"/>
<path d="M447.693 398.118C451.649 400.783 455.477 403.596 459.2 406.6C459.835 407.108 459.116 408.187 458.46 407.658C454.758 404.675 450.908 401.841 446.952 399.175C446.254 398.71 446.995 397.652 447.693 398.118Z" fill="#FD9F58"/>
<path d="M437.793 434.462C445.155 432.558 452.347 430.02 459.285 426.868C460.047 426.529 460.575 427.693 459.835 428.031C452.812 431.225 445.514 433.785 438.047 435.731C437.243 435.943 437.01 434.673 437.814 434.462H437.793Z" fill="#FD9F58"/>
<path d="M961.872 852.264C961.872 852.264 964.093 871.112 955.949 881.287L896.233 859.647C896.233 859.647 896.783 852.243 901.035 851.502C905.286 850.762 942.326 850.847 942.326 850.847L961.851 852.243L961.872 852.264Z" fill="#342C3B"/>
<path d="M976.595 588.271L1039.04 592.967L988.568 725.981L964.178 856.435C964.178 856.435 946.642 853.875 938.942 849.158L949.201 718.704L976.574 588.25L976.595 588.271Z" fill="#342C3B"/>
<g style="mix-blend-mode:overlay" opacity="0.17">
<path d="M981.481 588.635L976.595 588.275L968.536 626.648C970.926 626.521 976.13 625.886 979.578 621.973C980.974 620.386 982.539 617.763 982.878 608.435C983.068 603.548 982.92 596.758 981.46 588.656L981.481 588.635Z" fill="black"/>
</g>
<g style="mix-blend-mode:overlay" opacity="0.17">
<path d="M1000.9 590.111C1004.81 612.746 1010.46 634.513 1014.78 656.935L1039.04 592.988L1000.9 590.111Z" fill="black"/>
</g>
<path d="M1109.23 836.383C1109.23 836.383 1120.31 842.115 1121.05 859.123L1063.37 883.343C1063.37 883.343 1058.37 876.68 1060.41 873.168C1062.44 869.657 1090.49 848.355 1090.49 848.355L1109.23 836.361V836.383Z" fill="#342C3B"/>
<path d="M1074.56 588.273C1074.13 589.987 1067.28 715.745 1067.28 715.745L1113.06 838.076C1113.06 838.076 1093.38 848.335 1087.4 849.202C1087.4 849.202 1025.8 728.585 1024.95 723.445C1024.11 718.304 1009.55 588.273 1009.55 588.273H1074.56Z" fill="#342C3B"/>
<g style="mix-blend-mode:overlay" opacity="0.17">
<path d="M1018.1 619.492C1032.46 630.281 1052.3 624.696 1072.4 623.448C1073.52 603.902 1074.41 588.862 1074.56 588.291H1019.13C1016.28 601.195 1012.07 615.473 1018.1 619.492Z" fill="black"/>
</g>
<path d="M1035.25 377.815C1033.9 381.284 1028 396.451 1015.39 400.597C996.881 406.689 969.572 387.292 971.349 368.973C972.703 354.969 990.768 344.71 1005.85 344.012C1017.42 343.483 1033.71 348.327 1037.64 359.856C1039.8 366.202 1037.43 372.273 1035.3 377.794L1035.25 377.815Z" fill="#342C3B"/>
<path d="M1030.43 427.652C1028.89 429.429 1024.44 434.147 1017.06 435.754C1006.04 438.187 997.495 431.798 996.268 430.825L996.035 407.768L995.951 398.651L995.866 387.397V385.959L1019.13 379.824C1019.2 380.078 1019.26 380.374 1019.33 380.628C1020.76 386.805 1022.24 392.939 1023.7 399.116C1024.34 401.866 1025.02 404.574 1025.65 407.324C1027.26 414.093 1028.87 420.883 1030.47 427.652H1030.43Z" fill="#FDBFC3"/>
<path d="M1025.61 407.325C1015.81 411.894 1004.33 420.664 995.951 415.566V398.652L995.866 387.398L1019.33 380.629C1020.76 386.806 1022.24 392.94 1023.7 399.117C1024.34 401.867 1025.02 404.575 1025.65 407.325H1025.61Z" fill="#F77F90"/>
<path d="M1026.25 379.654C1027.09 396.057 1006.1 415.372 991.335 416.31C976.572 417.247 973.629 399.455 972.785 383.051C971.942 366.648 983.225 352.588 997.988 351.651C1012.75 350.714 1025.4 363.25 1026.25 379.654Z" fill="#FDBFC3"/>
<path d="M1018.71 386.953C1018.44 391.628 1021.99 395.647 1026.67 395.922C1031.34 396.197 1035.36 392.643 1035.63 387.968C1035.91 383.293 1032.36 379.274 1027.68 378.999C1023.01 378.724 1018.99 382.278 1018.71 386.953Z" fill="#FDBFC3"/>
<path d="M1011.6 348.644C1010.02 342.89 987.087 335.676 974.691 345.788C967.88 351.351 965.87 360.828 969.488 369.882C970.524 369.712 971.857 369.48 973.359 369.162C991.889 365.334 1013.3 354.82 1011.58 348.622L1011.6 348.644Z" fill="#342C3B"/>
<path d="M993.539 353.465C993.433 355.453 1010.76 353.38 1017.68 363.47C1024.19 372.968 1016.55 386.041 1020.02 387.585C1023.22 389.003 1033.92 379.78 1033.1 369.753C1032.23 359.134 1019.01 354.269 1015.94 353.126C1004.88 349.044 993.603 351.857 993.518 353.444L993.539 353.465Z" fill="#342C3B"/>
<path d="M835.247 479.521L821.582 479.034C821.582 479.034 813.967 476.094 811.365 475.988C808.742 475.904 792.2 478.611 792.009 480.261C791.798 481.911 792.898 483.73 794.505 483.54C796.113 483.35 776.673 489.653 776.779 491.071C776.863 492.467 776.948 494.392 778.407 494.18C779.867 493.969 782.363 493.292 782.363 493.292C782.363 493.292 776.863 496.401 776.546 497.29C776.229 498.178 777.054 499.596 778.196 499.765C779.359 499.934 783.463 498.686 783.463 498.686C783.463 498.686 779.571 501.478 779.994 502.388C780.396 503.297 782.109 504.249 783.273 504.165C784.436 504.08 791.375 501.14 791.375 501.14C791.375 501.14 787.927 503.826 788.773 504.99C789.598 506.174 791.353 506.365 792.517 506.153C793.68 505.942 809.186 499.744 809.186 499.744C809.186 499.744 820.588 494.138 823.295 491.896L835.755 493.186L835.226 479.521H835.247Z" fill="#FDBFC3"/>
<path d="M976.997 445.191L973.866 595.127C973.866 595.127 1042.42 605.957 1058.06 592.715L1049.83 430.595C1049.83 430.595 1000.22 424.862 989.583 434.402C978.943 443.942 976.976 445.169 976.976 445.169L976.997 445.191Z" fill="#EDEDED"/>
<g style="mix-blend-mode:multiply" opacity="0.08">
<path d="M1018.1 452.235C1031.15 448.744 1035.38 439.733 1038.91 429.579C1023.68 428.564 997.051 427.802 989.605 434.064C988.801 434.741 988.06 435.354 987.362 435.946C994.195 446.037 1003.33 456.19 1018.1 452.256V452.235Z" fill="black"/>
</g>
<path d="M1018.9 558.382L1010.02 581.101L1000.56 557.197L1005.36 456.189L1005.77 447.918H1014.35L1014.67 455.343L1018.9 558.382Z" fill="#FD9F58"/>
<g style="mix-blend-mode:overlay" opacity="0.53">
<path d="M1014.67 455.343C1011.54 455.956 1008.64 456.126 1005.36 456.168L1005.77 447.918H1014.35L1014.67 455.343Z" fill="black"/>
</g>
<path d="M1005.66 433.109H1013.8L1015.75 450.836C1015.75 450.836 1010.33 456.526 1004.05 451.471L1005.66 433.109Z" fill="#FD9F58"/>
<path d="M993.624 428.754C993.624 428.754 973.274 432.963 968.493 436.285C963.713 439.606 899.787 484.134 898.348 484.98C896.91 485.826 827.632 476.244 827.632 476.244L824.861 495.62C824.861 495.62 893.229 514.933 901.141 514.108C909.052 513.283 965.447 487.984 965.447 487.984L962.888 618.226C962.888 618.226 974.184 619.77 978.626 618.226C980.636 588.929 983.005 559.06 985.776 528.683C988.907 494.436 989.795 461.5 993.624 428.775V428.754Z" fill="#342C3B"/>
<path d="M1030.43 422.682C1030.43 422.682 1059.01 429.557 1061.91 431.926C1064.81 434.295 1081.71 552.247 1082.85 575.643C1083.99 599.039 1082.85 614.439 1082.85 614.439C1082.85 614.439 1038.26 619.579 1022.05 617.865C1022.05 617.865 1032.78 427.61 1030.43 422.682Z" fill="#342C3B"/>
<g style="mix-blend-mode:overlay" opacity="0.17">
<path d="M1071.26 483.857C1065.82 491.79 1059.75 499.13 1052.85 504.969C1047.88 514.805 1039.57 521.32 1027.09 522.505C1026.54 533.801 1025.95 545.055 1025.4 555.653C1044.12 555.758 1063.11 555.61 1080.35 550.724C1078.09 531.707 1074.6 506.301 1071.26 483.857Z" fill="black"/>
</g>
<path d="M1005.13 532.806C1005.13 532.806 992.587 531.706 989.605 533.906C986.601 536.085 966.166 547.254 964.538 551.358C962.909 555.441 964.94 555.166 966.991 554.362C969.043 553.558 974.48 548.629 977.357 549.729C980.212 550.829 979.599 556.816 977.082 559.819C974.564 562.802 959.355 572.363 958.826 573.992C958.276 575.621 958.276 576.446 960.18 576.171C962.084 575.896 981.714 563.098 983.893 560.644C986.072 558.191 995.824 545.118 995.824 545.118L1007.33 546.471L1005.15 532.849L1005.13 532.806Z" fill="#FDBFC3"/>
<path d="M1061.91 431.924C1061.91 431.924 1070.83 436.874 1076.82 466.023C1082.81 495.194 1092.98 533.545 1086.64 541.795C1080.29 550.045 1003.23 549.707 1003.23 549.707L999.948 530.901L1058.06 520.451C1058.06 520.451 1035.66 461.687 1035.93 450.772C1036.21 439.877 1046.97 429.724 1061.91 431.924Z" fill="#342C3B"/>
<path d="M996.226 420.756L988.801 429.852L1001.92 447.663L1010.76 434.209L1018.37 448.869L1036.84 424.267L1028 417.371C1028 417.371 1020.59 429.407 1011.37 428.9C1002.13 428.392 996.247 420.777 996.247 420.777L996.226 420.756Z" fill="#EDEDED"/>
<path d="M706.337 595.847C706.337 595.847 711.33 607.778 714.46 609.83C717.591 611.882 735.402 627.175 739.844 627.26C744.287 627.345 743.271 625.526 741.791 623.876C740.31 622.226 733.71 618.841 733.731 615.753C733.752 612.664 739.612 611.099 743.335 612.41C747.058 613.722 761.463 624.658 763.198 624.574C764.933 624.51 765.715 624.214 764.763 622.522C763.833 620.829 744.752 606.868 741.664 605.684C738.575 604.499 722.774 599.972 722.774 599.972L716.026 583.324L706.337 595.826V595.847Z" fill="#FDBFC3"/>
<path d="M645.098 438.463C652.798 428.394 666.801 427.59 675.58 436.433C679.24 440.113 680.17 444.513 681.397 449.759C684.613 463.467 692.651 526.356 692.651 526.356L724.55 593.603L708.051 608.157C708.051 608.157 667.944 550.916 663.121 542.327C659.123 535.177 622.019 468.692 645.098 438.484V438.463Z" fill="#17A9E1"/>
<path d="M681.397 449.759C680.17 444.513 679.24 440.113 675.58 436.433C666.801 427.59 652.776 428.394 645.098 438.463C624.135 465.921 652.861 523.331 661.28 538.943C667.372 520.074 678.33 502.791 687.193 485.678C685.057 470.553 682.793 455.64 681.418 449.759H681.397Z" fill="#29B7EE"/>
<g style="mix-blend-mode:overlay" opacity="0.3">
<path d="M687.172 485.678C678.33 502.791 667.372 520.073 661.259 538.942C662.105 540.508 662.74 541.671 663.121 542.306C664.707 545.119 670.08 553.179 676.595 562.74C679.07 546.769 684.464 531.475 691.403 516.858C690.366 508.989 688.801 497.27 687.172 485.678Z" fill="black"/>
</g>
<g style="mix-blend-mode:overlay" opacity="0.18">
<path d="M692.651 526.377C692.651 526.377 692.186 522.654 691.424 516.879C684.486 531.496 679.092 546.79 676.617 562.761C689.964 582.328 708.072 608.156 708.072 608.156L724.572 593.603L692.672 526.356L692.651 526.377Z" fill="black"/>
</g>
<path d="M662.528 427.461C662.528 427.461 681.397 465.41 680.107 494.835C678.817 524.26 654.046 619.239 654.046 619.239L615.758 608.451L662.528 427.461Z" fill="#17A9E1"/>
<path d="M662.528 427.461L615.758 608.451L654.046 619.239C654.046 619.239 678.795 524.281 680.107 494.835C681.397 465.41 662.528 427.461 662.528 427.461Z" fill="#29B7EE"/>
<path d="M551.98 852.754C551.98 852.754 542.017 863.077 545.824 879.767L605.266 881.227C605.266 881.227 610.237 874.204 605.266 871.263C600.295 868.344 570.722 855.462 570.722 855.462L551.98 852.754Z" fill="#342C3B"/>
<path d="M633.886 854.636C633.886 854.636 623.564 865.128 627.519 882.093L689.118 883.574C689.118 883.574 694.28 876.424 689.118 873.442C683.957 870.459 653.327 857.365 653.327 857.365L633.886 854.594V854.636Z" fill="#342C3B"/>
<path d="M565.814 578.351L576.73 716.907L548.045 855.462L558.686 858.762C560.843 859.439 563.17 859.397 565.307 858.635L574.424 855.441C574.424 855.441 617.323 726.68 618.55 720.566C619.777 714.432 633.273 591.805 633.273 591.805L565.836 578.309L565.814 578.351Z" fill="#17A9E1"/>
<path d="M565.814 578.352L568.755 615.814C584.324 644.816 600.464 673.627 620.983 700.979C625.213 664.806 633.231 591.848 633.231 591.848L565.793 578.352H565.814Z" fill="#29B7EE"/>
<path d="M570.214 590.281L635.558 719.021L629.233 857.133C629.233 857.133 637.927 860.539 646.113 860.539C652.84 860.539 659.08 857.133 660.984 857.133C660.984 857.133 676.849 720.798 675.432 712.062C674.036 703.325 642.665 594.004 642.665 594.004L570.214 590.26V590.281Z" fill="#17A9E1"/>
<g style="mix-blend-mode:overlay" opacity="0.18">
<path d="M629.55 593.412L570.214 590.281L578.887 607.712C593.314 615.073 608.587 620.933 623.86 624.317C625.362 613.804 626.863 603.312 629.55 593.391V593.412Z" fill="black"/>
</g>
<path d="M617.302 370.242C616.604 371.236 611.781 378.322 614.256 385.282C617.027 393.13 628.196 398.334 640.106 394.441C653.411 389.661 666.738 384.88 680.043 380.12C687.341 381.115 692.905 375.678 692.736 370.728C692.587 366.878 688.949 362.965 683.809 362.034C688.441 358.121 689.732 351.796 687.341 347.227C684.359 341.558 676.003 339.209 669.488 343.461C667.436 335.571 660.709 329.902 653.051 329.373C644.209 328.76 635.79 335.085 633.781 344.413C624.875 340.013 614.637 344.075 611.464 351.69C608.925 357.825 611.189 365.651 617.344 370.242H617.302Z" fill="#342C3B"/>
<path d="M628.09 424.248C629.635 426.046 634.119 430.784 641.565 432.413C652.671 434.867 661.301 428.436 662.528 427.442L662.761 404.216L662.867 395.035L662.951 383.675V382.216L639.513 376.039C639.45 376.293 639.386 376.589 639.323 376.843C637.863 383.062 636.383 389.239 634.902 395.479C634.267 398.25 633.59 400.979 632.956 403.75C631.327 410.583 629.719 417.415 628.09 424.248Z" fill="#FDBFC3"/>
<path d="M631.63 406.778C641.422 411.896 652.995 419.784 661.381 414.079L661.298 397.081L661.381 384.474L637.962 376.891C636.516 383.793 635.048 390.649 633.58 397.574C632.951 400.65 632.28 403.679 631.651 406.754L631.63 406.778Z" fill="#F77F90"/>
<path d="M629.665 385.133C632.679 402.776 652.005 416.362 667.05 414.078C682.095 411.794 687.128 394.516 684.114 376.872C681.099 359.229 666.483 346.792 651.438 349.076C636.393 351.361 626.651 367.489 629.665 385.133Z" fill="#FDBFC3"/>
<path d="M639.408 383.36C639.704 388.078 636.108 392.118 631.39 392.414C626.673 392.71 622.633 389.114 622.337 384.397C622.04 379.68 625.637 375.639 630.354 375.343C635.071 375.047 639.111 378.643 639.408 383.36Z" fill="#FDBFC3"/>
<path d="M632.765 386.574C632.596 386.574 632.427 386.511 632.3 386.384C630.988 385.221 627.815 385.009 626.673 385.009C626.229 385.073 625.89 384.671 625.89 384.248C625.89 383.824 626.229 383.465 626.652 383.465C626.842 383.465 631.306 383.465 633.315 385.221C633.633 385.496 633.654 385.982 633.379 386.299C633.21 386.49 632.977 386.574 632.765 386.553V386.574Z" fill="#F77F90"/>
<path d="M624.833 370.939C626.059 374.578 629.127 379.105 631.644 378.703C634.204 378.28 635.981 372.864 636.107 365.313C639.09 365.715 642.03 364.318 643.617 361.78C645.246 359.178 645.14 355.836 643.384 353.319C648.25 359.538 655.696 361.843 661.238 359.432C665.024 357.782 666.886 354.376 667.584 352.853C667.901 355.54 669.615 357.824 672.047 358.734C674.924 359.813 678.33 358.776 680.276 356.153C678.626 354.038 670.08 343.524 655.611 342.298C654.638 342.213 636.319 340.923 627.879 353.572C627.223 354.567 621.998 362.647 624.833 370.961V370.939Z" fill="#342C3B"/>
<path d="M662.528 427.461C662.528 427.461 680.403 472.476 666.315 525.021C652.248 577.567 647.467 605.658 647.467 605.658L576.708 586.472L624.219 430.253L662.528 427.461Z" fill="#342C3B"/>
<path d="M657.261 445.422C657.409 443.603 657.621 441.657 657.938 439.626C658.234 437.637 658.594 435.755 658.975 433.999C659.694 436.812 660.455 439.668 661.238 442.524C661.513 443.497 661.767 444.449 662.042 445.422C663.755 444.724 665.49 444.047 667.203 443.349C664.876 433.343 662.55 427.441 662.55 427.441L635.261 429.43C640.402 436.961 648.821 441.191 657.261 445.401V445.422Z" fill="#342C3B"/>
<path d="M754.758 488.236L768.296 484.703C768.296 484.703 775.235 480.07 777.837 479.393C780.417 478.717 797.552 477.743 798.123 479.351C798.694 480.959 797.996 483.011 796.346 483.18C794.696 483.349 815.511 485.316 815.722 486.755C815.934 488.193 816.294 490.118 814.792 490.224C813.29 490.351 810.646 490.224 810.646 490.224C810.646 490.224 816.822 492.107 817.351 492.932C817.859 493.736 817.351 495.343 816.251 495.787C815.151 496.232 810.73 495.872 810.73 495.872C810.73 495.872 815.236 497.797 815.024 498.791C814.813 499.785 813.332 501.118 812.148 501.287C810.963 501.457 803.369 500.082 803.369 500.082C803.369 500.082 807.409 501.985 806.838 503.36C806.267 504.714 804.575 505.307 803.348 505.349C802.121 505.391 785.261 502.662 785.261 502.662C785.261 502.662 772.633 499.616 769.417 497.966L757.254 502.028L754.737 488.257L754.758 488.236Z" fill="#FDBFC3"/>
<path d="M671.117 571.112L665.469 597.427L657.431 570.245L656.796 454.154L656.733 444.657L663.121 444.424L663.671 452.949L671.117 571.112Z" fill="#DE3A65"/>
<g style="mix-blend-mode:overlay" opacity="0.53">
<path d="M663.671 452.949C661.365 453.731 659.208 454.006 656.796 454.154L656.754 444.657L663.142 444.424L663.671 452.949Z" fill="black"/>
</g>
<path d="M656.034 427.671L662.105 427.459L664.284 447.766C664.284 447.766 660.498 454.451 655.611 448.803L656.056 427.692L656.034 427.671Z" fill="#DE3A65"/>
<path d="M655.019 423.635L631.369 410.436L623.606 423.635L654.998 441.447L658.975 427.443L662.973 441.447L667.923 434.403L662.973 420.505C662.973 420.505 661.936 424.46 654.998 423.614L655.019 423.635Z" fill="#342C3B"/>
<path d="M629.275 419.258C629.275 419.258 608.608 432.246 597.587 462.157C586.566 492.068 555.153 589.586 555.153 589.586C555.153 589.586 599.385 614.928 619.967 616.578C619.967 616.578 660.836 523.925 653.052 465.055C650.492 445.763 646.706 425.265 629.275 419.236V419.258Z" fill="#17A9E1"/>
<path d="M653.073 465.077C651.127 450.439 646.642 444.452 637.863 435.271C621.892 441.85 611.041 446.039 614.319 464.104C618.867 491.455 632.215 516.586 645.859 539.537C651.994 514.449 656.013 487.352 653.073 465.077Z" fill="#29B7EE"/>
<path d="M615.293 450.794C612.966 439.582 620.835 429.027 632.194 427.652C636.933 427.081 641.777 427.631 644.865 430.952C653.432 440.111 696.057 495.681 696.057 495.681L767.598 483.73L770.75 507.76C770.75 507.76 692.841 530.818 684.042 529.443C676.701 528.321 622.252 484.407 615.271 450.794H615.293Z" fill="#17A9E1"/>
<path d="M835.67 871.986H701.409V881.23H835.67V871.986Z" fill="#342C3B"/>
<path d="M830.995 797.824H706.105V871.989H830.995V797.824Z" fill="#342C3B"/>
<path d="M814.39 756.975H721.97V774.638H814.39V756.975Z" fill="#17A9E1"/>
<path d="M835.67 871.986H701.409V876.915H835.67V871.986Z" fill="white"/>
<path d="M773.436 819.885H718.437V853.244H773.436V819.885Z" fill="#EDEDED"/>
<path d="M770.454 823.818H721.42V850.218H770.454V823.818Z" fill="#F89939"/>
<path d="M819.255 819.885H788.223V871.986H819.255V819.885Z" fill="#EDEDED"/>
<path d="M816.378 823.67H791.057V871.963H816.378V823.67Z" fill="#F89939"/>
<path d="M775.721 850.219H716.11V855.253H775.721V850.219Z" fill="#EDEDED"/>
<g opacity="0.34">
<path d="M743.42 823.818L729.987 850.218H725.629L739.041 823.818H743.42Z" fill="white"/>
<path d="M757.783 823.818L744.35 850.218H742.7L756.112 823.818H757.783Z" fill="white"/>
<path d="M766.265 823.818L752.833 850.218H746.889L760.321 823.818H766.265Z" fill="white"/>
<path d="M746.889 823.818L733.456 850.218H731.256L744.689 823.818H746.889Z" fill="white"/>
</g>
<g opacity="0.34">
<path d="M808.657 823.67L791.057 855.273V847.023L804.067 823.67H808.657Z" fill="white"/>
<path d="M816.378 833.848V837L796.896 871.987H795.14L816.378 833.848Z" fill="white"/>
<path d="M816.378 841.756V853.01L805.823 871.984H799.561L816.378 841.756Z" fill="white"/>
<path d="M812.317 823.67L791.057 861.831V857.685L810.011 823.67H812.317Z" fill="white"/>
</g>
<path d="M723.958 765.33H706.253L698.214 794.543H718.204L723.958 765.33Z" fill="#17A9E1"/>
<path d="M741.643 765.33H723.958L718.204 794.543H738.195L741.643 765.33Z" fill="#EDEDED"/>
<path d="M759.348 765.33H741.642L738.194 794.543H758.185L759.348 765.33Z" fill="#17A9E1"/>
<path d="M794.738 765.33H777.032L778.175 794.543H798.165L794.738 765.33Z" fill="#17A9E1"/>
<path d="M830.128 765.33H812.422L818.176 794.543H838.166L830.128 765.33Z" fill="#17A9E1"/>
<path d="M777.033 765.33H759.348L758.185 794.543H778.175L777.033 765.33Z" fill="#EDEDED"/>
<path d="M812.422 765.33H794.738L798.165 794.543H818.176L812.422 765.33Z" fill="#EDEDED"/>
<path d="M718.204 794.543H698.214V810.387C698.743 810.979 702.339 815.041 708.305 814.998C714.143 814.956 717.676 811 718.204 810.387V794.543Z" fill="#17A9E1"/>
<path d="M738.195 794.543H718.205V810.387C718.733 811 722.266 814.956 728.104 814.998C734.049 815.041 737.666 810.979 738.195 810.387V794.543Z" fill="#DBDBDB"/>
<path d="M758.185 794.543H738.194V810.387C738.744 811.022 742.192 814.871 747.904 814.998C753.954 815.125 757.677 810.979 758.185 810.387V794.543Z" fill="#17A9E1"/>
<path d="M798.165 794.543H778.175V810.387C778.746 811.022 782.49 814.935 788.455 814.808C794.082 814.681 797.551 811.064 798.165 810.387V794.543Z" fill="#17A9E1"/>
<path d="M838.166 794.543H818.176V810.387C818.684 810.979 822.491 815.21 828.647 814.998C834.253 814.808 837.616 811.043 838.166 810.387V794.543Z" fill="#17A9E1"/>
<path d="M778.175 794.543H758.185V810.387C758.735 811.022 762.183 814.871 767.894 814.998C773.944 815.125 777.667 810.979 778.175 810.387V794.543Z" fill="#DBDBDB"/>
<path d="M818.176 794.543H798.186V810.387C798.693 810.979 802.416 815.125 808.466 814.998C814.178 814.871 817.626 811.022 818.176 810.387V794.543Z" fill="#DBDBDB"/>
<path d="M804.49 823.67H802.734V871.963H804.49V823.67Z" fill="#EDEDED"/>
<path d="M789.111 846.9V848.74H817.668V846.9H789.111Z" fill="#EDEDED"/>
<path d="M788.455 859.736V861.576H817.013V859.736H788.455Z" fill="#EDEDED"/>
<path d="M789.111 834.082V835.922H817.668V834.082H789.111Z" fill="#EDEDED"/>
<path d="M814.474 750.623H722.414V756.969H814.474V750.623Z" fill="#342C3B"/>
<path d="M811.259 699.773H725.629V750.627H811.259V699.773Z" fill="#342C3B"/>
<path d="M799.878 671.766H736.502V683.887H799.878V671.766Z" fill="#17A9E1"/>
<path d="M814.474 750.623H722.414V754.008H814.474V750.623Z" fill="white"/>
<path d="M771.808 714.898H734.091V737.765H771.808V714.898Z" fill="#EDEDED"/>
<path d="M769.735 717.605H736.122V735.713H769.735V717.605Z" fill="#F89939"/>
<path d="M803.199 714.898H781.919V750.606H803.199V714.898Z" fill="#EDEDED"/>
<path d="M801.232 717.498H783.865V750.603H801.232V717.498Z" fill="#F89939"/>
<path d="M773.352 735.715H732.483V739.184H773.352V735.715Z" fill="#EDEDED"/>
<g opacity="0.34">
<path d="M751.204 717.604L742.002 735.711H738.998L748.2 717.604H751.204Z" fill="white"/>
<path d="M761.062 717.604L751.86 735.711H750.696L759.919 717.604H761.062Z" fill="white"/>
<path d="M766.879 717.604L757.656 735.711H753.573L762.796 717.604H766.879Z" fill="white"/>
<path d="M753.573 717.604L744.371 735.711H742.869L752.092 717.604H753.573Z" fill="white"/>
</g>
<g opacity="0.34">
<path d="M795.944 717.5L783.865 739.161V733.513L792.792 717.5H795.944Z" fill="white"/>
<path d="M801.232 724.482V726.64L787.884 750.628H786.679L801.232 724.482Z" fill="white"/>
<path d="M801.232 729.914V737.614L793.997 750.623H789.703L801.232 729.914Z" fill="white"/>
<path d="M798.44 717.5L783.865 743.667V740.832L796.874 717.5H798.44Z" fill="white"/>
</g>
<path d="M737.856 677.502H725.714L720.214 697.534H733.922L737.856 677.502Z" fill="#17A9E1"/>
<path d="M749.998 677.502H737.856L733.922 697.534H747.629L749.998 677.502Z" fill="#EDEDED"/>
<path d="M762.119 677.502H749.998L747.629 697.534H761.336L762.119 677.502Z" fill="#17A9E1"/>
<path d="M786.383 677.502H774.262L775.044 697.534H788.752L786.383 677.502Z" fill="#17A9E1"/>
<path d="M810.646 677.502H798.525L802.459 697.534H816.167L810.646 677.502Z" fill="#17A9E1"/>
<path d="M774.262 677.502H762.119L761.337 697.534H775.044L774.262 677.502Z" fill="#EDEDED"/>
<path d="M798.525 677.502H786.383L788.752 697.534H802.459L798.525 677.502Z" fill="#EDEDED"/>
<path d="M733.922 697.531H720.214V708.383C720.574 708.785 723.049 711.577 727.131 711.535C731.129 711.514 733.562 708.806 733.922 708.383V697.531Z" fill="#17A9E1"/>
<path d="M747.629 697.531H733.922V708.383C734.281 708.806 736.714 711.514 740.712 711.535C744.794 711.556 747.269 708.785 747.629 708.383V697.531Z" fill="#DBDBDB"/>
<path d="M761.336 697.531H747.629V708.383C748.01 708.827 750.379 711.45 754.292 711.535C758.438 711.62 760.977 708.785 761.336 708.383V697.531Z" fill="#17A9E1"/>
<path d="M788.752 697.531H775.044V708.383C775.446 708.806 778.006 711.493 782.088 711.408C785.959 711.323 788.329 708.827 788.752 708.383V697.531Z" fill="#17A9E1"/>
<path d="M816.167 697.531H802.459V708.383C802.798 708.785 805.421 711.683 809.63 711.535C813.459 711.408 815.786 708.827 816.167 708.383V697.531Z" fill="#17A9E1"/>
<path d="M775.044 697.531H761.337V708.383C761.717 708.827 764.087 711.45 768 711.535C772.146 711.62 774.685 708.785 775.044 708.383V697.531Z" fill="#DBDBDB"/>
<path d="M802.459 697.531H788.751V708.383C789.111 708.785 791.65 711.641 795.796 711.535C799.709 711.45 802.078 708.806 802.459 708.383V697.531Z" fill="#DBDBDB"/>
<path d="M793.088 717.498H791.882V750.603H793.088V717.498Z" fill="#EDEDED"/>
<path d="M782.532 733.43V734.699H802.12V733.43H782.532Z" fill="#EDEDED"/>
<path d="M782.088 742.227V743.496H801.676V742.227H782.088Z" fill="#EDEDED"/>
<path d="M782.532 724.649V725.918H802.12V724.649H782.532Z" fill="#EDEDED"/>
<path d="M800.069 667.389H736.65V671.767H800.069V667.389Z" fill="#342C3B"/>
<path d="M797.848 632.357H738.872V667.388H797.848V632.357Z" fill="#342C3B"/>
<path d="M790.021 613.066H746.36V621.422H790.021V613.066Z" fill="#17A9E1"/>
<path d="M800.069 667.389H736.65V669.716H800.069V667.389Z" fill="white"/>
<path d="M770.665 642.789H744.689V658.548H770.665V642.789Z" fill="#EDEDED"/>
<path d="M769.269 644.648H746.106V657.108H769.269V644.648Z" fill="#F89939"/>
<path d="M792.305 642.789H777.646V667.391H792.305V642.789Z" fill="#EDEDED"/>
<path d="M790.951 644.562H779V667.366H790.951V644.562Z" fill="#F89939"/>
<path d="M771.744 657.109H743.589V659.5H771.744V657.109Z" fill="#EDEDED"/>
<g opacity="0.34">
<path d="M756.492 644.65L750.146 657.11H748.073L754.419 644.65H756.492Z" fill="white"/>
<path d="M763.283 644.65L756.936 657.11H756.154L762.479 644.65H763.283Z" fill="white"/>
<path d="M767.281 644.65L760.934 657.11H758.121L764.467 644.65H767.281Z" fill="white"/>
<path d="M758.121 644.65L751.775 657.11H750.76L757.085 644.65H758.121Z" fill="white"/>
</g>
<g opacity="0.34">
<path d="M787.313 644.562L779 659.497V655.584L785.134 644.562H787.313Z" fill="white"/>
<path d="M790.952 649.365V650.867L781.75 667.388H780.925L790.952 649.365Z" fill="white"/>
<path d="M790.952 653.107V658.417L785.96 667.386H782.998L790.952 653.107Z" fill="white"/>
<path d="M789.027 644.562L779 662.585V660.639L787.948 644.562H789.027Z" fill="white"/>
</g>
<path d="M747.291 616.998H738.935L735.148 630.811H744.583L747.291 616.998Z" fill="#17A9E1"/>
<path d="M755.646 616.998H747.291L744.583 630.811H754.017L755.646 616.998Z" fill="#EDEDED"/>
<path d="M764.002 616.998H755.646L754.017 630.811H763.473L764.002 616.998Z" fill="#17A9E1"/>
<path d="M780.734 616.998H772.357L772.907 630.811H782.342L780.734 616.998Z" fill="#17A9E1"/>
<path d="M797.446 616.998H789.09L791.797 630.811H801.232L797.446 616.998Z" fill="#17A9E1"/>
<path d="M772.358 616.998H764.002L763.473 630.811H772.908L772.358 616.998Z" fill="#EDEDED"/>
<path d="M789.09 616.998H780.734L782.342 630.811H791.798L789.09 616.998Z" fill="#EDEDED"/>
<path d="M744.583 630.814H735.148V638.303C735.402 638.578 737.095 640.503 739.908 640.482C742.658 640.482 744.329 638.599 744.583 638.303V630.814Z" fill="#17A9E1"/>
<path d="M754.017 630.814H744.583V638.303C744.837 638.599 746.508 640.46 749.258 640.482C752.071 640.482 753.785 638.599 754.017 638.303V630.814Z" fill="#DBDBDB"/>
<path d="M763.473 630.814H754.039V638.303C754.293 638.599 755.921 640.418 758.629 640.482C761.485 640.545 763.24 638.578 763.473 638.303V630.814Z" fill="#17A9E1"/>
<path d="M782.342 630.814H772.908V638.303C773.183 638.599 774.938 640.439 777.752 640.397C780.417 640.334 782.046 638.62 782.342 638.303V630.814Z" fill="#17A9E1"/>
<path d="M801.232 630.814H791.798V638.303C792.03 638.578 793.85 640.587 796.748 640.482C799.392 640.397 800.978 638.62 801.253 638.303V630.814H801.232Z" fill="#17A9E1"/>
<path d="M772.908 630.814H763.473V638.303C763.727 638.599 765.356 640.418 768.063 640.482C770.919 640.545 772.675 638.578 772.908 638.303V630.814Z" fill="#DBDBDB"/>
<path d="M791.798 630.814H782.363V638.303C782.596 638.578 784.352 640.545 787.207 640.482C789.915 640.418 791.544 638.599 791.798 638.303V630.814Z" fill="#DBDBDB"/>
<path d="M785.324 644.562H784.5V667.366H785.324V644.562Z" fill="#EDEDED"/>
<path d="M778.069 655.564V656.432H791.565V655.564H778.069Z" fill="#EDEDED"/>
<path d="M777.773 661.594V662.461H791.269V661.594H777.773Z" fill="#EDEDED"/>
<path d="M778.069 649.496V650.363H791.565V649.496H778.069Z" fill="#EDEDED"/>
<path d="M814.474 750.623H722.414V756.969H814.474V750.623Z" fill="#342C3B"/>
<path d="M811.259 699.773H725.629V750.627H811.259V699.773Z" fill="#342C3B"/>
<path d="M799.878 671.766H736.502V683.887H799.878V671.766Z" fill="#17A9E1"/>
<path d="M814.474 750.623H722.414V754.008H814.474V750.623Z" fill="white"/>
<path d="M771.808 714.898H734.091V737.765H771.808V714.898Z" fill="#EDEDED"/>
<path d="M769.735 717.605H736.122V735.713H769.735V717.605Z" fill="#F89939"/>
<path d="M803.199 714.898H781.919V750.606H803.199V714.898Z" fill="#EDEDED"/>
<path d="M801.232 717.498H783.865V750.603H801.232V717.498Z" fill="#F89939"/>
<path d="M773.352 735.715H732.483V739.184H773.352V735.715Z" fill="#EDEDED"/>
<g opacity="0.34">
<path d="M751.204 717.604L742.002 735.711H738.998L748.2 717.604H751.204Z" fill="white"/>
<path d="M761.062 717.604L751.86 735.711H750.696L759.919 717.604H761.062Z" fill="white"/>
<path d="M766.879 717.604L757.656 735.711H753.573L762.796 717.604H766.879Z" fill="white"/>
<path d="M753.573 717.604L744.371 735.711H742.869L752.092 717.604H753.573Z" fill="white"/>
</g>
<g opacity="0.34">
<path d="M795.944 717.5L783.865 739.161V733.513L792.792 717.5H795.944Z" fill="white"/>
<path d="M801.232 724.482V726.64L787.884 750.628H786.679L801.232 724.482Z" fill="white"/>
<path d="M801.232 729.914V737.614L793.997 750.623H789.703L801.232 729.914Z" fill="white"/>
<path d="M798.44 717.5L783.865 743.667V740.832L796.874 717.5H798.44Z" fill="white"/>
</g>
<path d="M737.856 677.502H725.714L720.214 697.534H733.922L737.856 677.502Z" fill="#17A9E1"/>
<path d="M749.998 677.502H737.856L733.922 697.534H747.629L749.998 677.502Z" fill="#EDEDED"/>
<path d="M762.119 677.502H749.998L747.629 697.534H761.336L762.119 677.502Z" fill="#17A9E1"/>
<path d="M786.383 677.502H774.262L775.044 697.534H788.752L786.383 677.502Z" fill="#17A9E1"/>
<path d="M810.646 677.502H798.525L802.459 697.534H816.167L810.646 677.502Z" fill="#17A9E1"/>
<path d="M774.262 677.502H762.119L761.337 697.534H775.044L774.262 677.502Z" fill="#EDEDED"/>
<path d="M798.525 677.502H786.383L788.752 697.534H802.459L798.525 677.502Z" fill="#EDEDED"/>
<path d="M733.922 697.531H720.214V708.383C720.574 708.785 723.049 711.577 727.131 711.535C731.129 711.514 733.562 708.806 733.922 708.383V697.531Z" fill="#17A9E1"/>
<path d="M747.629 697.531H733.922V708.383C734.281 708.806 736.714 711.514 740.712 711.535C744.794 711.556 747.269 708.785 747.629 708.383V697.531Z" fill="#DBDBDB"/>
<path d="M761.336 697.531H747.629V708.383C748.01 708.827 750.379 711.45 754.292 711.535C758.438 711.62 760.977 708.785 761.336 708.383V697.531Z" fill="#17A9E1"/>
<path d="M788.752 697.531H775.044V708.383C775.446 708.806 778.006 711.493 782.088 711.408C785.959 711.323 788.329 708.827 788.752 708.383V697.531Z" fill="#17A9E1"/>
<path d="M816.167 697.531H802.459V708.383C802.798 708.785 805.421 711.683 809.63 711.535C813.459 711.408 815.786 708.827 816.167 708.383V697.531Z" fill="#17A9E1"/>
<path d="M775.044 697.531H761.337V708.383C761.717 708.827 764.087 711.45 768 711.535C772.146 711.62 774.685 708.785 775.044 708.383V697.531Z" fill="#DBDBDB"/>
<path d="M802.459 697.531H788.751V708.383C789.111 708.785 791.65 711.641 795.796 711.535C799.709 711.45 802.078 708.806 802.459 708.383V697.531Z" fill="#DBDBDB"/>
<path d="M793.088 717.498H791.882V750.603H793.088V717.498Z" fill="#EDEDED"/>
<path d="M782.532 733.43V734.699H802.12V733.43H782.532Z" fill="#EDEDED"/>
<path d="M782.088 742.227V743.496H801.676V742.227H782.088Z" fill="#EDEDED"/>
<path d="M782.532 724.649V725.918H802.12V724.649H782.532Z" fill="#EDEDED"/>
<path d="M800.069 667.389H736.65V671.767H800.069V667.389Z" fill="#342C3B"/>
<path d="M797.848 632.357H738.872V667.388H797.848V632.357Z" fill="#342C3B"/>
<path d="M790.021 613.066H746.36V621.422H790.021V613.066Z" fill="#17A9E1"/>
<path d="M800.069 667.389H736.65V669.716H800.069V667.389Z" fill="white"/>
<path d="M770.665 642.789H744.689V658.548H770.665V642.789Z" fill="#EDEDED"/>
<path d="M769.269 644.648H746.106V657.108H769.269V644.648Z" fill="#F89939"/>
<path d="M792.305 642.789H777.646V667.391H792.305V642.789Z" fill="#EDEDED"/>
<path d="M790.951 644.562H779V667.366H790.951V644.562Z" fill="#F89939"/>
<path d="M771.744 657.109H743.589V659.5H771.744V657.109Z" fill="#EDEDED"/>
<g opacity="0.34">
<path d="M756.492 644.65L750.146 657.11H748.073L754.419 644.65H756.492Z" fill="white"/>
<path d="M763.283 644.65L756.936 657.11H756.154L762.479 644.65H763.283Z" fill="white"/>
<path d="M767.281 644.65L760.934 657.11H758.121L764.467 644.65H767.281Z" fill="white"/>
<path d="M758.121 644.65L751.775 657.11H750.76L757.085 644.65H758.121Z" fill="white"/>
</g>
<g opacity="0.34">
<path d="M787.313 644.562L779 659.497V655.584L785.134 644.562H787.313Z" fill="white"/>
<path d="M790.952 649.365V650.867L781.75 667.388H780.925L790.952 649.365Z" fill="white"/>
<path d="M790.952 653.107V658.417L785.96 667.386H782.998L790.952 653.107Z" fill="white"/>
<path d="M789.027 644.562L779 662.585V660.639L787.948 644.562H789.027Z" fill="white"/>
</g>
<path d="M747.291 616.998H738.935L735.148 630.811H744.583L747.291 616.998Z" fill="#17A9E1"/>
<path d="M755.646 616.998H747.291L744.583 630.811H754.017L755.646 616.998Z" fill="#EDEDED"/>
<path d="M764.002 616.998H755.646L754.017 630.811H763.473L764.002 616.998Z" fill="#17A9E1"/>
<path d="M780.734 616.998H772.357L772.907 630.811H782.342L780.734 616.998Z" fill="#17A9E1"/>
<path d="M797.446 616.998H789.09L791.797 630.811H801.232L797.446 616.998Z" fill="#17A9E1"/>
<path d="M772.358 616.998H764.002L763.473 630.811H772.908L772.358 616.998Z" fill="#EDEDED"/>
<path d="M789.09 616.998H780.734L782.342 630.811H791.798L789.09 616.998Z" fill="#EDEDED"/>
<path d="M744.583 630.814H735.148V638.303C735.402 638.578 737.095 640.503 739.908 640.482C742.658 640.482 744.329 638.599 744.583 638.303V630.814Z" fill="#17A9E1"/>
<path d="M754.017 630.814H744.583V638.303C744.837 638.599 746.508 640.46 749.258 640.482C752.071 640.482 753.785 638.599 754.017 638.303V630.814Z" fill="#DBDBDB"/>
<path d="M763.473 630.814H754.039V638.303C754.293 638.599 755.921 640.418 758.629 640.482C761.485 640.545 763.24 638.578 763.473 638.303V630.814Z" fill="#17A9E1"/>
<path d="M782.342 630.814H772.908V638.303C773.183 638.599 774.938 640.439 777.752 640.397C780.417 640.334 782.046 638.62 782.342 638.303V630.814Z" fill="#17A9E1"/>
<path d="M801.232 630.814H791.798V638.303C792.03 638.578 793.85 640.587 796.748 640.482C799.392 640.397 800.978 638.62 801.253 638.303V630.814H801.232Z" fill="#17A9E1"/>
<path d="M772.908 630.814H763.473V638.303C763.727 638.599 765.356 640.418 768.063 640.482C770.919 640.545 772.675 638.578 772.908 638.303V630.814Z" fill="#DBDBDB"/>
<path d="M791.798 630.814H782.363V638.303C782.596 638.578 784.352 640.545 787.207 640.482C789.915 640.418 791.544 638.599 791.798 638.303V630.814Z" fill="#DBDBDB"/>
<path d="M785.324 644.562H784.5V667.366H785.324V644.562Z" fill="#EDEDED"/>
<path d="M778.069 655.564V656.432H791.565V655.564H778.069Z" fill="#EDEDED"/>
<path d="M777.773 661.594V662.461H791.269V661.594H777.773Z" fill="#EDEDED"/>
<path d="M778.069 649.496V650.363H791.565V649.496H778.069Z" fill="#EDEDED"/>
<path d="M835.861 845.14C868.526 845.14 895.006 818.66 895.006 785.995C895.006 753.33 868.526 726.85 835.861 726.85C803.196 726.85 776.715 753.33 776.715 785.995C776.715 818.66 803.196 845.14 835.861 845.14Z" fill="#FD9F58"/>
<path d="M835.86 838.372C864.787 838.372 888.237 814.922 888.237 785.995C888.237 757.069 864.787 733.619 835.86 733.619C806.934 733.619 783.484 757.069 783.484 785.995C783.484 814.922 806.934 838.372 835.86 838.372Z" fill="#F9DEBB"/>
<path d="M835.861 832.362C861.469 832.362 882.229 811.602 882.229 785.994C882.229 760.385 861.469 739.625 835.861 739.625C810.252 739.625 789.492 760.385 789.492 785.994C789.492 811.602 810.252 832.362 835.861 832.362Z" fill="#FD9F58"/>
<path d="M840.535 813.366V821.913H839.118V813.536C838.526 813.578 837.912 813.599 837.299 813.599C836.305 813.599 835.438 813.536 834.613 813.472V821.913H833.195V813.261C830.678 812.753 829.028 811.843 827.611 810.997C826.511 810.278 825.791 810.003 825.241 810.003C824.311 810.003 823.972 811.061 823.697 813.113H822.09C822.301 810.215 822.365 806.153 822.365 796.19H823.972C824.459 803.488 826.87 810.003 833.195 811.759V788.85C827.272 785.169 822.407 781.34 822.407 774.106C822.407 766.871 827.272 762.873 833.195 762.048V753.375H834.613V761.921L835.691 761.879C837.024 761.879 838.166 761.985 839.139 762.196V753.375H840.557V762.535C842.143 763.042 843.243 763.783 844.322 764.502C845.422 765.221 846.078 765.496 846.691 765.496C847.622 765.496 847.96 764.438 848.235 762.386H849.885C849.653 764.861 849.505 767.908 849.505 776.792H847.876C847.495 771.461 845.359 766.004 840.535 764.015V784.957C847.347 789.273 852.255 792.974 852.255 800.209C852.255 807.951 847.199 812.33 840.535 813.366ZM833.195 780.325V763.677C829.895 764.735 827.674 767.611 827.674 771.398C827.674 775.502 829.916 778.019 833.195 780.325ZM834.613 763.338V781.277C836.03 782.165 837.553 783.075 839.118 784.069V763.529C838.251 763.296 837.32 763.19 836.305 763.19C835.712 763.19 835.163 763.233 834.613 763.338ZM839.118 811.949V792.551C837.849 791.663 836.474 790.796 834.951 789.907L834.613 789.696V812.013C835.311 812.118 836.03 812.182 836.812 812.182C837.595 812.182 838.357 812.118 839.118 811.949ZM840.535 811.526C843.603 810.363 845.972 807.57 845.972 802.769C845.972 798.876 843.899 796.126 840.535 793.546V811.526Z" fill="#F9DEBB"/>
<g style="mix-blend-mode:overlay" opacity="0.23">
<path d="M849.42 728.395C856.274 734.127 862.07 741.108 866.385 748.723C881.087 776.117 869.051 817.557 835.649 826.907C820.82 831.053 806.288 830.566 792.877 826.632C803.665 838.033 818.938 845.162 835.861 845.162C868.522 845.162 895.006 818.678 895.006 785.996C895.006 757.988 875.545 734.529 849.42 728.395Z" fill="black"/>
</g>
<path d="M887.264 828.139H784.331C783.338 828.139 782.533 828.944 782.533 829.937V844.871C782.533 845.864 783.338 846.669 784.331 846.669H887.264C888.257 846.669 889.062 845.864 889.062 844.871V829.937C889.062 828.944 888.257 828.139 887.264 828.139Z" fill="#FD9F58"/>
<g opacity="0.58">
<path d="M831.736 828.139H804.617V846.669H831.736V828.139Z" fill="#F4CA87"/>
</g>
<path d="M823.57 828.139H812.761V846.669H823.57V828.139Z" fill="#F4D9B3"/>
<path d="M884.344 828.139H880.05V846.669H884.344V828.139Z" fill="#F49519"/>
<path d="M876.179 828.139H871.885V846.669H876.179V828.139Z" fill="#F49519"/>
<path d="M868.035 828.139H863.741V846.669H868.035V828.139Z" fill="#F89939"/>
<path d="M859.891 828.139H855.597V846.669H859.891V828.139Z" fill="#F89939"/>
<path d="M851.599 828.139H847.305V846.669H851.599V828.139Z" fill="#F89939"/>
<path d="M843.285 828.139H838.991V846.669H843.285V828.139Z" fill="#F89939"/>
<path d="M800.449 828.139H796.155V846.669H800.449V828.139Z" fill="#F89939"/>
<path d="M792.877 828.139H788.582V846.669H792.877V828.139Z" fill="#F49519"/>
<g style="mix-blend-mode:overlay" opacity="0.27">
<path d="M782.532 839.582V843.474C782.532 845.23 784.352 846.668 786.594 846.668H885.021C887.264 846.668 889.083 845.251 889.083 843.474V836.811C877.131 840.153 859.975 843.812 838.991 844.637C815.151 845.568 795.584 842.501 782.532 839.603V839.582Z" fill="black"/>
</g>
<path d="M879.373 846.646H776.44C775.447 846.646 774.642 847.451 774.642 848.444V863.379C774.642 864.372 775.447 865.177 776.44 865.177H879.373C880.366 865.177 881.171 864.372 881.171 863.379V848.444C881.171 847.451 880.366 846.646 879.373 846.646Z" fill="#FD9F58"/>
<g opacity="0.58">
<path d="M823.824 846.646H796.705V865.177H823.824V846.646Z" fill="#F4CA87"/>
</g>
<path d="M815.68 846.646H804.871V865.177H815.68V846.646Z" fill="#F4D9B3"/>
<path d="M876.433 846.646H872.139V865.177H876.433V846.646Z" fill="#F49519"/>
<path d="M868.289 846.646H863.995V865.177H868.289V846.646Z" fill="#F49519"/>
<path d="M860.124 846.646H855.829V865.177H860.124V846.646Z" fill="#F89939"/>
<path d="M851.979 846.646H847.685V865.177H851.979V846.646Z" fill="#F89939"/>
<path d="M843.687 846.646H839.393V865.177H843.687V846.646Z" fill="#F89939"/>
<path d="M835.374 846.646H831.08V865.177H835.374V846.646Z" fill="#F89939"/>
<path d="M792.538 846.646H788.244V865.177H792.538V846.646Z" fill="#F89939"/>
<path d="M784.986 846.646H780.692V865.177H784.986V846.646Z" fill="#F49519"/>
<g style="mix-blend-mode:overlay" opacity="0.27">
<path d="M774.642 858.091V861.984C774.642 863.739 776.461 865.178 778.704 865.178H877.131C879.373 865.178 881.193 863.761 881.193 861.984V855.32C869.241 858.663 852.107 862.322 831.101 863.147C807.261 864.078 787.694 861.011 774.642 858.113V858.091Z" fill="black"/>
</g>
<path d="M887.327 865.172H784.394C783.401 865.172 782.596 865.977 782.596 866.97V881.904C782.596 882.897 783.401 883.702 784.394 883.702H887.327C888.32 883.702 889.125 882.897 889.125 881.904V866.97C889.125 865.977 888.32 865.172 887.327 865.172Z" fill="#FD9F58"/>
<g opacity="0.58">
<path d="M831.799 865.172H804.68V883.702H831.799V865.172Z" fill="#F4CA87"/>
</g>
<path d="M823.634 865.172H812.824V883.702H823.634V865.172Z" fill="#F4D9B3"/>
<path d="M884.387 865.172H880.093V883.702H884.387V865.172Z" fill="#F49519"/>
<path d="M876.243 865.172H871.949V883.702H876.243V865.172Z" fill="#F49519"/>
<path d="M868.099 865.172H863.804V883.702H868.099V865.172Z" fill="#F89939"/>
<path d="M859.933 865.172H855.639V883.702H859.933V865.172Z" fill="#F89939"/>
<path d="M851.641 865.172H847.347V883.702H851.641V865.172Z" fill="#F89939"/>
<path d="M843.349 865.172H839.055V883.702H843.349V865.172Z" fill="#F89939"/>
<path d="M800.492 865.172H796.198V883.702H800.492V865.172Z" fill="#F89939"/>
<path d="M792.94 865.172H788.646V883.702H792.94V865.172Z" fill="#F49519"/>
<g style="mix-blend-mode:overlay" opacity="0.27">
<path d="M782.596 876.617V880.509C782.596 882.265 784.415 883.703 786.658 883.703H885.085C887.327 883.703 889.146 882.286 889.146 880.509V873.846C877.195 877.188 860.06 880.848 839.055 881.673C815.215 882.603 795.648 879.536 782.596 876.638V876.617Z" fill="black"/>
</g>
</svg>
