<svg width="1200" height="576" viewBox="0 0 1200 576" fill="none" xmlns="http://www.w3.org/2000/svg">
<rect width="1200" height="576" fill="white"/>
<path d="M164.765 135.447C164.765 135.447 153.87 128.932 151.84 128.593C149.809 128.276 137.371 121.232 136.038 118.567C134.705 115.88 140.946 104.161 144.542 101.39C148.138 98.6189 154.547 101.242 156.62 104.69C158.693 108.138 171.238 128.107 171.238 128.107L164.765 135.447Z" fill="#FDBFC3"/>
<path d="M449.597 181.837C449.597 181.837 458.355 175.025 461.083 175.406C463.812 175.787 485.791 173.65 492.031 170.541C498.25 167.431 509.165 161.191 508.954 158.674C508.763 156.135 507.05 156.728 505.062 157.108C503.073 157.489 480.735 165.676 477.816 163.92C474.897 162.164 467.493 159.837 464.193 160.028C460.893 160.218 446.868 167.622 446.868 167.622L449.597 181.837Z" fill="#FDBFC3"/>
<path d="M357.367 546.949C357.367 546.949 365.173 558.668 360.815 570.705L298.137 569.922C298.137 569.922 295.641 560.382 302.347 558.816C309.074 557.251 338.921 546.949 338.921 546.949H357.367Z" fill="#342C3B"/>
<path d="M298.265 545.043C298.265 545.043 306.07 557.164 301.713 569.602L239.035 568.798C239.035 568.798 236.539 558.941 243.244 557.333C249.971 555.726 279.819 545.064 279.819 545.064H298.265V545.043Z" fill="#342C3B"/>
<path d="M326.166 271.613L266.598 266.346C266.598 266.346 240.769 385.461 238.654 405.494C236.539 425.526 272.627 545.805 272.627 545.805C275.313 547.138 280.496 549.253 287.307 549.359C294.203 549.465 299.492 547.497 302.22 546.228L282.336 408.117L326.124 271.613H326.166Z" fill="#342C3B"/>
<g style="mix-blend-mode:overlay" opacity="0.11">
<path d="M258.369 304.887C264.038 282.994 268.459 266.346 268.459 266.346L294.034 268.186C297.144 280.878 295.367 293.591 297.969 306.284C285.213 306.284 270.998 307.468 258.369 304.887Z" fill="black"/>
</g>
<path d="M366.103 268.97L359.884 401.265V549.361C359.884 549.361 347.234 554.099 334.056 549.361C334.056 549.361 315.504 409.155 315.292 403.888C315.081 398.62 305.583 268.949 305.583 268.949H366.082L366.103 268.97Z" fill="#342C3B"/>
<g style="mix-blend-mode:overlay" opacity="0.11">
<path d="M328.154 311.297C329.36 304.549 330.502 297.568 331.518 290.334C332.554 283.015 333.443 275.886 334.162 268.969H366.104L364.094 311.974C360.075 313.391 353.433 315.189 345.119 314.872C337.758 314.597 331.92 312.778 328.154 311.276V311.297Z" fill="black"/>
</g>
<path d="M366.104 156.033L360.181 272.357C360.181 272.357 301.924 283.505 276.074 272.357L282.759 111.019C286.672 108.586 290.586 106.153 294.52 103.721C310.195 104.25 325.849 104.8 341.523 105.328C349.16 108.861 356.775 112.394 364.411 115.926L366.104 156.012V156.033Z" fill="#E9EDF0"/>
<g style="mix-blend-mode:overlay" opacity="0.93">
<path d="M285.932 109.051C288.787 107.275 291.664 105.498 294.52 103.721C310.195 104.25 325.848 104.8 341.523 105.328C343.914 106.428 346.304 107.549 348.694 108.649C330.608 128.745 302.156 128.322 285.932 109.051Z" fill="black"/>
</g>
<path d="M360.18 36.1111C359.63 40.1726 355.294 69.576 334.309 78.5451C331.623 79.6874 327.477 81.4009 322.231 80.7663C310.575 79.349 310.512 68.3068 291.96 51.9763C291.939 51.9551 277.258 39.0515 277.639 34.0381C277.935 30.1035 279.839 27.2478 279.839 27.2478C279.945 27.0997 280.029 26.9728 280.093 26.8882C282.102 24.0748 284.091 23.6305 287.412 21.346C293.927 16.8614 292.87 13.9634 297.248 11.6788C301.564 9.43649 303.15 11.9749 312.648 11.6788C323.521 11.3403 326.885 7.97689 331.559 10.5153C333.759 11.6999 336.298 14.2384 337.821 20.119C340.486 20.4152 346.832 21.4729 352.776 26.3805C356.923 29.8285 359.123 33.7208 360.223 36.0688L360.18 36.1111Z" fill="#342C3B"/>
<path d="M307.063 72.7675L295.323 106.507C295.323 106.507 314.488 117.507 324.388 113.7C334.288 109.892 339.851 108.898 339.851 108.898L334.288 72.5137L307.085 72.7675H307.063Z" fill="#FDBFC3"/>
<path d="M336.551 87.4094L334.267 72.4961L307.063 72.7499L303.742 82.3113C310.596 88.4036 324.769 89.6516 336.551 87.4094Z" fill="#F77F90"/>
<path d="M318.964 81.7413C334.984 81.7413 347.971 68.0884 347.971 51.2466C347.971 34.4049 334.984 20.752 318.964 20.752C302.944 20.752 289.957 34.4049 289.957 51.2466C289.957 68.0884 302.944 81.7413 318.964 81.7413Z" fill="#FDBFC3"/>
<path d="M338.582 60.0745C337.99 65.1302 341.586 69.6994 346.642 70.2917C351.698 70.884 356.267 67.2878 356.859 62.2321C357.451 57.1764 353.855 52.6073 348.8 52.015C343.744 51.4227 339.175 55.0188 338.582 60.0745Z" fill="#FDBFC3"/>
<path d="M336.256 22.8299C332.766 25.7068 327.477 29.3029 320.37 31.6509C304.547 36.897 290.628 32.3913 285.741 30.5298C287.307 28.6683 289.612 26.2145 292.807 23.8241C295.006 22.1741 299.068 19.1915 305.097 17.4992C312.797 15.3204 319.185 16.5261 322.21 17.1184C328.366 18.3453 333.104 20.7991 336.235 22.8299H336.256Z" fill="#342C3B"/>
<path d="M330.798 23.565C329.148 25.2361 333.146 32.0899 334.754 34.586C337.884 39.3667 340.063 39.959 341.861 43.3224C343.321 46.0935 344.505 50.6838 342.221 58.3626C349.265 52.8627 352.374 44.232 350.132 36.8283C346.811 25.913 332.977 21.365 330.798 23.565Z" fill="#342C3B"/>
<path d="M340.635 102.613C340.635 102.613 369.784 108.832 372.851 112.132C375.919 115.432 394.661 187.841 394.661 187.841L450.062 160.151L457.106 182.489C457.106 182.489 393.328 226.277 383.936 225.685C374.523 225.092 371.836 216.039 371.836 216.039L372.725 301.52C372.725 301.52 355.95 308.226 336.256 306.407C336.256 306.407 344.696 138.257 340.635 102.634V102.613Z" fill="#342C3B"/>
<path d="M295.303 101.348C295.303 101.348 274.171 106.488 269.94 109.301C265.709 112.115 213.798 163.454 213.798 163.454L170.709 113.68L150.084 133.543C150.084 133.543 190.381 194.931 211.027 202.737C217.014 205 263.361 161.91 263.361 161.91L251.156 291.56C251.156 291.56 274.573 301.904 289.401 299.07L295.303 101.348Z" fill="#342C3B"/>
<path d="M321.089 123.75L328.133 222.749L315.314 244.41L303.257 223.827L309.412 123.75H321.089Z" fill="#17A9E1"/>
<g style="mix-blend-mode:overlay" opacity="0.45">
<path d="M308.63 136.294L309.391 123.75H321.068L321.935 135.808C317.578 137.14 313.03 137.309 308.63 136.294Z" fill="black"/>
</g>
<path d="M322.062 108.119H309.496L306.514 126.84C306.514 126.84 314.848 132.848 324.558 127.517L322.062 108.119Z" fill="#17A9E1"/>
<path d="M297.799 92.3145L316.287 104.287L338.52 93.7106L347.721 102.616L322.76 120.491L315.314 107.63L308.651 120.491L288.386 103.103L297.799 92.3145Z" fill="#E9EDF0"/>
<path d="M178.366 100.693C180.376 99.339 185.622 95.4256 188.541 88.0853C191.545 80.5758 190.318 73.9759 189.768 71.6491C180.989 68.1376 171.28 63.7588 161.528 57.5185C137.561 42.2245 118.121 21.4305 104.117 4C103.271 15.4018 100.88 31.2246 94.1537 48.9301C86.8134 68.2433 77.0616 82.5854 69.5732 91.9353C88.7595 88.0642 116.576 85.9277 148.836 91.9564C161.126 94.2622 170.856 97.4987 178.366 100.672V100.693Z" fill="#28A44A"/>
<path d="M178.133 100.8L189.514 71.7986C190.17 70.1063 189.366 68.1179 187.695 67.3564L165.251 56.9911C163.283 56.0815 161.105 56.8431 160.364 58.7046L147.863 90.5407C147.143 92.4022 148.222 94.4541 150.274 95.1098L173.754 102.789C175.51 103.36 177.456 102.45 178.112 100.758L178.133 100.8Z" fill="#342C3B"/>
<path d="M69.7849 92.0415C72.556 93.1838 82.9847 76.2821 91.0442 57.6882C92.0807 55.3401 93.0538 52.9709 93.9845 50.6017C95.1268 47.6825 96.2056 44.6787 97.2422 41.6961C103.482 23.3348 106.994 5.10045 104.286 4.08508C101.029 2.87933 88.7596 26.6559 81.1443 46.1172C73.6983 65.2188 66.5907 90.73 69.7849 92.0627V92.0415Z" fill="#342C3B"/>
<path d="M141.919 125.484L173.057 90.4116L151.29 81.8867L135.213 122.84L141.919 125.484Z" fill="#342C3B"/>
<path d="M84.3383 46.2454C82.7729 50.7723 85.3114 55.7645 90.0075 57.3934C90.3459 57.5203 90.7055 57.6049 91.0651 57.6895C92.1017 55.3415 93.0747 52.9722 94.0055 50.6031C95.1478 47.6839 96.2266 44.6801 97.2631 41.6974C96.7766 41.4224 96.2478 41.1686 95.6766 40.9782C90.9805 39.3705 85.9037 41.7397 84.3595 46.2666L84.3383 46.2454Z" fill="#342C3B"/>
<path d="M134.388 117.342C137.434 119.14 141.072 121.593 144.563 122.313C145.155 122.44 145.832 122.291 146.297 121.763C148.645 119.118 141.432 115.205 140.205 114.549C138.703 113.745 136.651 112.455 134.853 112.455C131.955 112.455 132.399 116.157 134.388 117.32V117.342Z" fill="#FDBFC3"/>
<path d="M136.165 112.604C139.211 114.402 142.828 116.856 146.318 117.617C146.889 117.744 147.588 117.617 148.032 117.11C150.316 114.571 143.103 110.637 141.897 109.981C140.395 109.156 138.365 107.887 136.567 107.845C133.69 107.781 134.197 111.419 136.165 112.583V112.604Z" fill="#FDBFC3"/>
<path d="M138.132 107.716C141.58 109.747 145.683 112.518 149.639 113.343C150.295 113.47 151.078 113.322 151.606 112.73C154.272 109.726 146.107 105.305 144.732 104.565C143.018 103.655 140.712 102.195 138.682 102.195C135.403 102.195 135.889 106.384 138.153 107.716H138.132Z" fill="#FDBFC3"/>
<path d="M141.327 102.617C144.796 104.627 148.879 107.419 152.898 108.138C153.575 108.265 154.357 108.075 154.907 107.44C157.7 104.225 149.492 99.8462 148.117 99.127C146.404 98.2174 144.098 96.7789 142.025 96.8212C138.683 96.9058 139.084 101.285 141.327 102.596V102.617Z" fill="#FDBFC3"/>
<path d="M475.679 89.3295C476.42 88.7372 480.037 85.7757 485.727 84.5911C492.158 83.2373 497.277 84.9719 499.096 85.6276C500.894 86.2623 510.498 89.6468 514.517 99.7159C518.007 108.452 515.913 118.627 509.736 125.185C504.025 131.235 496.6 132.694 493.956 133.096C492.242 136.862 490.55 140.627 488.837 144.392C486.721 143.885 484.627 143.356 482.512 142.848C482.512 142.848 482.491 142.848 482.47 142.848C482.47 142.848 482.448 142.848 482.427 142.848C480.354 142.235 478.281 141.6 476.187 140.986C476.631 136.883 477.054 132.758 477.498 128.654C475.129 126.666 469.82 121.673 467.895 113.825C465.779 105.089 468.424 95.1467 475.637 89.3507L475.679 89.3295Z" fill="#F9DEBB"/>
<path d="M475.679 89.3309C476.42 88.7386 480.037 85.7771 485.727 84.5925C489.852 83.7252 493.427 84.1271 495.944 84.6983C479.889 89.754 468.064 111.077 480.714 123.938C485.368 129.269 492.602 131.765 499.858 131.575C497.319 132.505 495.162 132.907 493.956 133.098C492.242 136.863 490.55 140.628 488.837 144.394C486.721 143.886 484.627 143.357 482.512 142.849C482.512 142.849 482.491 142.849 482.47 142.849C482.47 142.849 482.448 142.849 482.427 142.849C480.354 142.236 478.281 141.601 476.187 140.988C476.631 136.884 477.054 132.759 477.498 128.655C475.129 126.667 469.82 121.675 467.895 113.827C465.779 105.09 468.424 95.1481 475.637 89.352L475.679 89.3309Z" fill="#FD9F58"/>
<path d="M480.228 116.896C480.862 117.721 482.11 117.742 483.02 117.53C483.358 117.446 483.676 117.34 483.993 117.171C484.479 117.742 484.839 118.419 485.093 119.117C485.791 121 485.664 123.051 485.389 124.998C485.072 127.134 484.627 129.271 484.141 131.365C483.379 134.644 482.449 137.859 481.349 141.032L476.06 139.594C475.722 139.509 475.383 139.699 475.299 140.038L474.939 141.349C474.855 141.688 475.045 142.026 475.383 142.111C475.045 142.026 474.706 142.217 474.622 142.555L474.262 143.867C474.178 144.205 474.368 144.543 474.706 144.628L488.202 148.309C488.541 148.393 488.879 148.203 488.964 147.865L489.324 146.553C489.408 146.215 489.218 145.876 488.879 145.792C489.218 145.876 489.556 145.686 489.641 145.347L490 144.036C490.085 143.697 489.895 143.359 489.556 143.274L485.918 142.28L486.024 141.878C487.229 137.584 488.456 133.29 489.662 128.996C490.233 126.965 490.783 124.913 491.566 122.967C491.968 121.973 492.433 121 493.004 120.09C493.131 119.878 493.279 119.688 493.427 119.477C493.618 119.921 493.872 120.323 494.21 120.682C494.866 121.38 495.818 121.825 496.791 121.655C497.658 121.507 498.504 120.873 498.758 120.005C499.266 118.25 497.256 117.002 495.733 117.234C495.247 117.298 494.802 117.488 494.379 117.742C494.527 117.615 494.654 117.467 494.781 117.298C495.331 116.6 495.627 115.648 495.204 114.802C494.823 114.061 493.85 113.702 493.343 114.548C493.089 114.971 493.068 115.542 493.025 116.029C492.962 116.621 492.941 117.234 493.025 117.827C493.025 117.848 493.025 117.89 493.025 117.911C491.566 118.525 489.958 118.017 488.943 116.79C489.937 116.007 490.572 114.738 490.423 113.469C490.318 112.623 489.704 111.629 488.752 111.607C487.8 111.607 487.335 112.517 487.25 113.321C487.124 114.442 487.483 115.648 488.118 116.642C487.229 117.107 486.172 117.15 485.22 116.6C485.135 116.536 485.05 116.473 484.945 116.409C485.072 116.261 485.199 116.113 485.283 115.923C485.706 115.14 485.77 114.146 485.368 113.363C484.987 112.623 483.993 111.946 483.337 112.771C482.808 113.448 482.935 114.463 483.252 115.204C483.443 115.669 483.718 116.071 484.077 116.43C484.077 116.43 484.077 116.43 484.056 116.43C483.845 116.198 483.612 115.986 483.379 115.817C482.702 115.309 481.539 114.632 480.672 114.907C479.847 115.161 479.72 116.261 480.206 116.896H480.228ZM484.564 116.029C484.226 115.69 483.951 115.288 483.802 114.844C483.676 114.505 483.591 114.104 483.633 113.723C483.676 113.448 483.802 113.004 484.12 112.961C484.543 112.898 484.924 113.575 485.029 113.892C485.135 114.23 485.156 114.632 485.093 114.971C485.008 115.373 484.818 115.732 484.564 116.029ZM489.239 115.732C489.07 115.965 488.858 116.155 488.647 116.325C488.308 115.796 488.075 115.182 487.949 114.548C487.822 113.871 487.737 112.877 488.308 112.369C489.112 111.671 489.852 112.94 489.916 113.617C489.979 114.379 489.704 115.119 489.26 115.732H489.239ZM494.823 116.05C494.654 116.727 494.189 117.255 493.618 117.636C493.597 117.213 493.597 116.769 493.618 116.346C493.639 115.902 493.618 115.352 493.829 114.929C494.041 114.463 494.443 114.611 494.675 114.971C494.887 115.288 494.929 115.669 494.823 116.029V116.05ZM493.893 118.969C494.168 118.673 494.464 118.419 494.802 118.207C495.458 117.805 496.198 117.657 496.939 117.911C497.552 118.123 498.166 118.609 498.271 119.286C498.398 120.111 497.7 120.809 496.96 121.042C496.114 121.296 495.268 120.936 494.675 120.323C494.295 119.942 494.041 119.477 493.872 118.99L493.893 118.969ZM484.501 116.853C484.501 116.853 484.543 116.811 484.585 116.79C485.452 117.446 486.574 117.763 487.674 117.467C487.97 117.382 488.266 117.255 488.541 117.107C488.9 117.552 489.324 117.932 489.81 118.228C490.847 118.842 492.095 118.905 493.195 118.503C493.216 118.609 493.237 118.694 493.279 118.8C492.56 119.667 492.01 120.746 491.587 121.676C490.487 124.046 489.831 126.605 489.112 129.123C487.885 133.459 486.658 137.795 485.431 142.132L481.983 141.18C482.068 140.947 482.152 140.736 482.216 140.503C483.083 137.944 483.845 135.321 484.479 132.698C485.114 130.117 485.685 127.515 486.045 124.892C486.362 122.65 486.404 120.28 485.389 118.186C485.156 117.721 484.881 117.277 484.543 116.853H484.501ZM480.629 115.669C480.841 115.288 481.37 115.436 481.708 115.542C482.427 115.775 483.062 116.198 483.612 116.727C483.612 116.727 483.612 116.727 483.591 116.727C482.829 117.065 481.624 117.277 480.904 116.727C480.587 116.494 480.418 116.029 480.629 115.669Z" fill="white"/>
<path d="M473.974 147.072L487.649 150.795C487.931 150.871 488.221 150.705 488.298 150.423L488.704 148.933C488.78 148.652 488.614 148.361 488.332 148.284L474.657 144.561C474.375 144.484 474.085 144.651 474.008 144.932L473.602 146.422C473.526 146.704 473.692 146.995 473.974 147.072Z" fill="white"/>
<path d="M473.3 149.562L486.975 153.285C487.257 153.362 487.548 153.195 487.624 152.914L488.03 151.424C488.107 151.142 487.94 150.851 487.659 150.774L473.983 147.051C473.702 146.975 473.411 147.141 473.334 147.423L472.929 148.913C472.852 149.194 473.018 149.485 473.3 149.562Z" fill="white"/>
<path d="M520.398 124.763C525.327 129.227 530.467 133.479 535.798 137.477C536.454 137.963 535.734 139.042 535.058 138.534C529.727 134.536 524.587 130.306 519.658 125.821C519.044 125.271 519.785 124.213 520.398 124.763Z" fill="#FD9F58"/>
<path d="M522.492 104.499C526.977 103.97 531.482 103.441 535.967 102.913C536.792 102.807 537.025 104.076 536.2 104.182C531.715 104.711 527.209 105.239 522.725 105.768C521.9 105.874 521.667 104.605 522.492 104.499Z" fill="#FD9F58"/>
<path d="M519.382 56.902C517.373 63.1846 515.046 69.3615 512.444 75.4325C512.127 76.1941 510.9 75.771 511.217 75.0095C513.819 68.9595 516.125 62.7616 518.155 56.479C518.409 55.6963 519.636 56.1194 519.382 56.902Z" fill="#FD9F58"/>
<path d="M477.16 67.7324C478.852 71.7304 480.185 75.8976 481.137 80.1495C481.327 80.9533 480.058 81.186 479.867 80.3822C478.937 76.2361 477.646 72.1957 475.975 68.2823C475.658 67.5208 476.821 66.9708 477.139 67.7324H477.16Z" fill="#FD9F58"/>
<path d="M447.693 85.1177C451.649 87.783 455.477 90.5964 459.2 93.6002C459.835 94.1079 459.116 95.1868 458.46 94.6579C454.758 91.6753 450.908 88.8407 446.952 86.1754C446.254 85.71 446.995 84.6523 447.693 85.1177Z" fill="#FD9F58"/>
<path d="M437.793 121.462C445.155 119.558 452.347 117.02 459.285 113.868C460.047 113.529 460.576 114.693 459.835 115.031C452.812 118.225 445.514 120.785 438.047 122.731C437.243 122.943 437.011 121.673 437.814 121.462H437.793Z" fill="#FD9F58"/>
<path d="M961.873 539.264C961.873 539.264 964.094 558.112 955.95 568.287L896.233 546.647C896.233 546.647 896.783 539.243 901.035 538.502C905.287 537.762 942.327 537.847 942.327 537.847L961.852 539.243L961.873 539.264Z" fill="#342C3B"/>
<path d="M976.595 275.271L1039.04 279.967L988.568 412.981L964.178 543.435C964.178 543.435 946.641 540.875 938.941 536.158L949.201 405.704L976.574 275.25L976.595 275.271Z" fill="#342C3B"/>
<g style="mix-blend-mode:overlay" opacity="0.17">
<path d="M981.481 275.635L976.595 275.275L968.535 313.648C970.926 313.521 976.129 312.886 979.577 308.973C980.973 307.386 982.539 304.763 982.877 295.435C983.068 290.548 982.92 283.758 981.46 275.656L981.481 275.635Z" fill="black"/>
</g>
<g style="mix-blend-mode:overlay" opacity="0.17">
<path d="M1000.9 277.111C1004.81 299.746 1010.46 321.513 1014.78 343.935L1039.04 279.988L1000.9 277.111Z" fill="black"/>
</g>
<path d="M1109.23 523.383C1109.23 523.383 1120.31 529.115 1121.05 546.123L1063.37 570.343C1063.37 570.343 1058.38 563.68 1060.41 560.168C1062.44 556.657 1090.49 535.355 1090.49 535.355L1109.23 523.361V523.383Z" fill="#342C3B"/>
<path d="M1074.56 275.273C1074.13 276.987 1067.28 402.745 1067.28 402.745L1113.06 525.076C1113.06 525.076 1093.38 535.335 1087.4 536.202C1087.4 536.202 1025.8 415.585 1024.95 410.445C1024.11 405.304 1009.55 275.273 1009.55 275.273H1074.56Z" fill="#342C3B"/>
<g style="mix-blend-mode:overlay" opacity="0.17">
<path d="M1018.1 306.492C1032.46 317.281 1052.3 311.696 1072.4 310.448C1073.52 290.902 1074.41 275.862 1074.56 275.291H1019.14C1016.28 288.195 1012.07 302.473 1018.1 306.492Z" fill="black"/>
</g>
<path d="M1035.25 64.8149C1033.9 68.2841 1028 83.4512 1015.39 87.5973C996.88 93.6895 969.571 74.2917 971.348 55.9727C972.702 41.9691 990.767 31.7096 1005.85 31.0115C1017.42 30.4827 1033.71 35.3269 1037.64 46.8556C1039.8 53.2016 1037.43 59.2727 1035.3 64.7938L1035.25 64.8149Z" fill="#342C3B"/>
<path d="M1030.43 114.652C1028.89 116.429 1024.44 121.147 1017.06 122.754C1006.04 125.187 997.495 118.798 996.268 117.825L996.035 94.768L995.951 85.6509L995.866 74.3972V72.9587L1019.14 66.8242C1019.2 67.0781 1019.26 67.3742 1019.33 67.628C1020.76 73.8049 1022.24 79.9394 1023.7 86.1162C1024.34 88.8662 1025.02 91.5739 1025.65 94.3238C1027.26 101.093 1028.87 107.883 1030.47 114.652H1030.43Z" fill="#FDBFC3"/>
<path d="M1025.61 94.3247C1015.81 98.8939 1004.33 107.664 995.951 102.566V85.6517L995.866 74.398L1019.33 67.6289C1020.76 73.8057 1022.24 79.9403 1023.7 86.1171C1024.34 88.8671 1025.02 91.5747 1025.65 94.3247H1025.61Z" fill="#F77F90"/>
<path d="M1026.25 66.6536C1027.09 83.0568 1006.1 102.372 991.335 103.31C976.572 104.247 973.628 86.4546 972.785 70.0514C971.941 53.6482 983.224 39.5882 997.987 38.6509C1012.75 37.7136 1025.4 50.2503 1026.25 66.6536Z" fill="#FDBFC3"/>
<path d="M1018.71 73.953C1018.44 78.628 1021.99 82.6472 1026.66 82.9222C1031.34 83.1971 1035.36 79.6433 1035.63 74.9684C1035.91 70.2935 1032.36 66.2743 1027.68 65.9993C1023.01 65.7243 1018.99 69.2781 1018.71 73.953Z" fill="#FDBFC3"/>
<path d="M1011.6 35.6435C1010.02 29.8897 987.087 22.6764 974.691 32.7878C967.88 38.3512 965.87 47.8279 969.487 56.8817C970.524 56.7124 971.856 56.4797 973.358 56.1624C991.889 52.3337 1013.3 41.8204 1011.58 35.6224L1011.6 35.6435Z" fill="#342C3B"/>
<path d="M993.539 40.4647C993.433 42.4532 1010.76 40.3801 1017.67 50.4703C1024.19 59.9683 1016.55 73.0412 1020.02 74.5854C1023.22 76.0027 1033.92 66.7797 1033.1 56.753C1032.23 46.1339 1019.01 41.2686 1015.94 40.1263C1004.88 36.0436 993.602 38.8571 993.518 40.4436L993.539 40.4647Z" fill="#342C3B"/>
<path d="M835.247 166.521L821.582 166.034C821.582 166.034 813.967 163.094 811.365 162.988C808.742 162.904 792.2 165.611 792.009 167.261C791.798 168.911 792.898 170.73 794.505 170.54C796.113 170.35 776.673 176.653 776.779 178.071C776.863 179.467 776.948 181.392 778.408 181.18C779.867 180.969 782.363 180.292 782.363 180.292C782.363 180.292 776.863 183.401 776.546 184.29C776.229 185.178 777.054 186.596 778.196 186.765C779.359 186.934 783.463 185.686 783.463 185.686C783.463 185.686 779.571 188.478 779.994 189.388C780.396 190.297 782.109 191.249 783.273 191.165C784.436 191.08 791.375 188.14 791.375 188.14C791.375 188.14 787.927 190.826 788.773 191.99C789.598 193.174 791.353 193.365 792.517 193.153C793.68 192.942 809.186 186.744 809.186 186.744C809.186 186.744 820.588 181.138 823.295 178.896L835.755 180.186L835.226 166.521H835.247Z" fill="#FDBFC3"/>
<path d="M976.997 132.191L973.866 282.127C973.866 282.127 1042.42 292.957 1058.06 279.715L1049.83 117.595C1049.83 117.595 1000.22 111.862 989.583 121.402C978.943 130.942 976.976 132.169 976.976 132.169L976.997 132.191Z" fill="#EDEDED"/>
<g style="mix-blend-mode:multiply" opacity="0.08">
<path d="M1018.1 139.235C1031.15 135.744 1035.38 126.733 1038.91 116.579C1023.68 115.564 997.051 114.802 989.605 121.064C988.801 121.741 988.06 122.354 987.362 122.946C994.195 133.037 1003.33 143.19 1018.1 139.256V139.235Z" fill="black"/>
</g>
<path d="M1018.9 245.382L1010.02 268.101L1000.56 244.197L1005.36 143.189L1005.77 134.918H1014.35L1014.67 142.343L1018.9 245.382Z" fill="#FD9F58"/>
<g style="mix-blend-mode:overlay" opacity="0.53">
<path d="M1014.67 142.343C1011.54 142.956 1008.64 143.126 1005.36 143.168L1005.77 134.918H1014.35L1014.67 142.343Z" fill="black"/>
</g>
<path d="M1005.66 120.109H1013.8L1015.75 137.836C1015.75 137.836 1010.34 143.526 1004.05 138.471L1005.66 120.109Z" fill="#FD9F58"/>
<path d="M993.624 115.754C993.624 115.754 973.275 119.963 968.494 123.285C963.713 126.606 899.787 171.134 898.349 171.98C896.91 172.826 827.632 163.244 827.632 163.244L824.861 182.62C824.861 182.62 893.23 201.933 901.141 201.108C909.052 200.283 965.448 174.984 965.448 174.984L962.888 305.226C962.888 305.226 974.184 306.77 978.627 305.226C980.636 275.929 983.005 246.06 985.776 215.683C988.907 181.436 989.796 148.5 993.624 115.775V115.754Z" fill="#342C3B"/>
<path d="M1030.43 109.682C1030.43 109.682 1059.01 116.557 1061.91 118.926C1064.81 121.295 1081.71 239.247 1082.85 262.643C1083.99 286.039 1082.85 301.439 1082.85 301.439C1082.85 301.439 1038.26 306.579 1022.05 304.865C1022.05 304.865 1032.78 114.61 1030.43 109.682Z" fill="#342C3B"/>
<g style="mix-blend-mode:overlay" opacity="0.17">
<path d="M1071.26 170.857C1065.82 178.79 1059.75 186.13 1052.85 191.969C1047.88 201.805 1039.57 208.32 1027.09 209.505C1026.54 220.801 1025.95 232.055 1025.4 242.653C1044.12 242.758 1063.11 242.61 1080.35 237.724C1078.09 218.707 1074.6 193.301 1071.26 170.857Z" fill="black"/>
</g>
<path d="M1005.13 219.806C1005.13 219.806 992.587 218.706 989.605 220.906C986.601 223.085 966.166 234.254 964.538 238.358C962.909 242.441 964.94 242.166 966.991 241.362C969.043 240.558 974.48 235.629 977.357 236.729C980.212 237.829 979.599 243.816 977.082 246.819C974.564 249.802 959.355 259.363 958.826 260.992C958.276 262.621 958.276 263.446 960.18 263.171C962.084 262.896 981.714 250.098 983.893 247.644C986.072 245.191 995.824 232.118 995.824 232.118L1007.33 233.471L1005.15 219.849L1005.13 219.806Z" fill="#FDBFC3"/>
<path d="M1061.91 118.924C1061.91 118.924 1070.83 123.874 1076.82 153.023C1082.81 182.194 1092.98 220.545 1086.64 228.795C1080.29 237.045 1003.23 236.707 1003.23 236.707L999.948 217.901L1058.06 207.451C1058.06 207.451 1035.66 148.687 1035.93 137.772C1036.21 126.877 1046.97 116.724 1061.91 118.924Z" fill="#342C3B"/>
<path d="M996.226 107.756L988.801 116.852L1001.92 134.663L1010.76 121.209L1018.37 135.869L1036.84 111.267L1028 104.371C1028 104.371 1020.59 116.407 1011.37 115.9C1002.13 115.392 996.247 107.777 996.247 107.777L996.226 107.756Z" fill="#EDEDED"/>
<path d="M706.337 282.847C706.337 282.847 711.329 294.778 714.46 296.83C717.591 298.882 735.402 314.175 739.844 314.26C744.286 314.345 743.271 312.526 741.79 310.876C740.31 309.226 733.71 305.841 733.731 302.753C733.752 299.664 739.611 298.099 743.334 299.41C747.057 300.722 761.463 311.658 763.198 311.574C764.932 311.51 765.715 311.214 764.763 309.522C763.832 307.829 744.752 293.868 741.663 292.684C738.575 291.499 722.773 286.972 722.773 286.972L716.025 270.324L706.337 282.826V282.847Z" fill="#FDBFC3"/>
<path d="M645.097 125.463C652.797 115.394 666.801 114.59 675.58 123.433C679.239 127.113 680.17 131.513 681.397 136.759C684.612 150.467 692.65 213.356 692.65 213.356L724.55 280.603L708.05 295.157C708.05 295.157 667.943 237.916 663.12 229.327C659.122 222.177 622.019 155.692 645.097 125.484V125.463Z" fill="#17A9E1"/>
<path d="M681.397 136.759C680.17 131.513 679.24 127.113 675.58 123.433C666.801 114.59 652.776 115.394 645.098 125.463C624.135 152.921 652.861 210.331 661.28 225.943C667.372 207.074 678.33 189.791 687.193 172.678C685.057 157.553 682.793 142.64 681.418 136.759H681.397Z" fill="#29B7EE"/>
<g style="mix-blend-mode:overlay" opacity="0.3">
<path d="M687.172 172.678C678.33 189.791 667.372 207.073 661.259 225.942C662.105 227.508 662.74 228.671 663.12 229.306C664.707 232.119 670.08 240.179 676.595 249.74C679.07 233.769 684.464 218.475 691.403 203.858C690.366 195.989 688.801 184.27 687.172 172.678Z" fill="black"/>
</g>
<g style="mix-blend-mode:overlay" opacity="0.18">
<path d="M692.651 213.377C692.651 213.377 692.185 209.654 691.424 203.879C684.485 218.496 679.091 233.79 676.616 249.761C689.964 269.328 708.072 295.156 708.072 295.156L724.571 280.603L692.672 213.356L692.651 213.377Z" fill="black"/>
</g>
<path d="M662.528 114.461C662.528 114.461 681.397 152.41 680.107 181.835C678.817 211.26 654.046 306.239 654.046 306.239L615.758 295.451L662.528 114.461Z" fill="#17A9E1"/>
<path d="M662.528 114.461L615.758 295.451L654.046 306.239C654.046 306.239 678.795 211.281 680.107 181.835C681.397 152.41 662.528 114.461 662.528 114.461Z" fill="#29B7EE"/>
<path d="M551.98 539.754C551.98 539.754 542.017 550.077 545.824 566.767L605.266 568.227C605.266 568.227 610.237 561.204 605.266 558.263C600.295 555.344 570.722 542.462 570.722 542.462L551.98 539.754Z" fill="#342C3B"/>
<path d="M633.886 541.636C633.886 541.636 623.563 552.128 627.519 569.093L689.118 570.574C689.118 570.574 694.28 563.424 689.118 560.442C683.957 557.459 653.326 544.365 653.326 544.365L633.886 541.594V541.636Z" fill="#342C3B"/>
<path d="M565.815 265.351L576.73 403.907L548.046 542.462L558.686 545.762C560.844 546.439 563.171 546.397 565.307 545.635L574.424 542.441C574.424 542.441 617.324 413.68 618.551 407.566C619.778 401.432 633.273 278.805 633.273 278.805L565.836 265.309L565.815 265.351Z" fill="#17A9E1"/>
<path d="M565.814 265.352L568.754 302.814C584.323 331.816 600.464 360.627 620.983 387.979C625.213 351.806 633.23 278.848 633.23 278.848L565.793 265.352H565.814Z" fill="#29B7EE"/>
<path d="M570.214 277.281L635.557 406.021L629.232 544.133C629.232 544.133 637.926 547.539 646.113 547.539C652.84 547.539 659.08 544.133 660.984 544.133C660.984 544.133 676.849 407.798 675.432 399.062C674.036 390.325 642.665 281.004 642.665 281.004L570.214 277.26V277.281Z" fill="#17A9E1"/>
<g style="mix-blend-mode:overlay" opacity="0.18">
<path d="M629.55 280.412L570.214 277.281L578.887 294.712C593.314 302.073 608.586 307.933 623.859 311.317C625.361 300.804 626.863 290.312 629.55 280.391V280.412Z" fill="black"/>
</g>
<path d="M617.302 57.2417C616.604 58.2359 611.781 65.3223 614.256 72.2819C617.027 80.1298 628.196 85.3336 640.105 81.4414C653.411 76.6606 666.738 71.88 680.043 67.1204C687.341 68.1146 692.905 62.6782 692.735 57.7282C692.587 53.8783 688.949 49.9649 683.808 49.0341C688.441 45.1207 689.732 38.7958 687.341 34.2267C684.359 28.5575 676.003 26.2095 669.488 30.4613C667.436 22.5711 660.709 16.9019 653.051 16.3731C644.209 15.7596 635.79 22.0845 633.78 31.4132C624.875 27.0133 614.636 31.0748 611.463 38.6901C608.925 44.8246 611.188 52.6514 617.344 57.2417H617.302Z" fill="#342C3B"/>
<path d="M628.09 111.248C629.634 113.046 634.119 117.784 641.565 119.413C652.67 121.867 661.301 115.436 662.528 114.442L662.76 91.2156L662.866 82.0349L662.951 70.6755V69.2159L639.513 63.0391C639.449 63.2929 639.386 63.5891 639.322 63.8429C637.863 70.062 636.382 76.2389 634.901 82.4792C634.267 85.2503 633.59 87.9791 632.955 90.7502C631.326 97.5828 629.719 104.415 628.09 111.248Z" fill="#FDBFC3"/>
<path d="M631.63 93.7776C641.421 98.8958 652.994 106.784 661.381 101.079L661.297 84.0814L661.381 71.4739L637.962 63.8906C636.515 70.7931 635.047 77.6485 633.58 84.5744C632.951 87.65 632.28 90.6786 631.651 93.7542L631.63 93.7776Z" fill="#F77F90"/>
<path d="M629.664 72.1329C632.679 89.7765 652.005 103.362 667.05 101.078C682.095 98.7936 687.128 81.516 684.113 63.8724C681.099 46.2289 666.482 33.7921 651.437 36.0763C636.392 38.3605 626.65 54.4894 629.664 72.1329Z" fill="#FDBFC3"/>
<path d="M639.407 70.3604C639.703 75.0777 636.107 79.118 631.39 79.4142C626.673 79.7103 622.633 76.1142 622.336 71.3969C622.04 66.6797 625.636 62.6394 630.354 62.3432C635.071 62.0471 639.111 65.6432 639.407 70.3604Z" fill="#FDBFC3"/>
<path d="M632.765 73.5744C632.595 73.5744 632.426 73.511 632.299 73.384C630.988 72.2206 627.815 72.0091 626.672 72.0091C626.228 72.0725 625.89 71.6706 625.89 71.2475C625.89 70.8245 626.228 70.4648 626.651 70.4648C626.842 70.4648 631.305 70.4648 633.315 72.2206C633.632 72.4956 633.653 72.9821 633.378 73.2994C633.209 73.4898 632.976 73.5744 632.765 73.5533V73.5744Z" fill="#F77F90"/>
<path d="M624.833 57.9395C626.059 61.5779 629.127 66.1047 631.644 65.7028C634.204 65.2797 635.981 59.8645 636.107 52.3127C639.09 52.7146 642.03 51.3184 643.617 48.78C645.246 46.1781 645.14 42.8358 643.384 40.3186C648.25 46.5377 655.696 48.8435 661.238 46.432C665.024 44.782 666.886 41.3763 667.584 39.8532C667.901 42.5397 669.615 44.8243 672.047 45.7339C674.924 46.8127 678.33 45.7762 680.276 43.1532C678.626 41.0378 670.08 30.5245 655.611 29.2976C654.638 29.213 636.319 27.9226 627.879 40.5724C627.223 41.5666 621.998 49.6473 624.833 57.9606V57.9395Z" fill="#342C3B"/>
<path d="M662.529 114.461C662.529 114.461 680.404 159.476 666.315 212.021C652.248 264.567 647.468 292.658 647.468 292.658L576.709 273.472L624.22 117.253L662.529 114.461Z" fill="#342C3B"/>
<path d="M657.261 132.422C657.41 130.603 657.621 128.657 657.938 126.626C658.234 124.637 658.594 122.755 658.975 120.999C659.694 123.812 660.456 126.668 661.238 129.524C661.513 130.497 661.767 131.449 662.042 132.422C663.756 131.724 665.49 131.047 667.204 130.349C664.877 120.343 662.55 114.441 662.55 114.441L635.262 116.43C640.402 123.961 648.821 128.191 657.261 132.401V132.422Z" fill="#342C3B"/>
<path d="M754.758 175.236L768.297 171.703C768.297 171.703 775.235 167.07 777.837 166.393C780.418 165.717 797.552 164.743 798.123 166.351C798.694 167.959 797.996 170.011 796.346 170.18C794.696 170.349 815.511 172.316 815.723 173.755C815.934 175.193 816.294 177.118 814.792 177.224C813.29 177.351 810.646 177.224 810.646 177.224C810.646 177.224 816.823 179.107 817.352 179.932C817.859 180.736 817.352 182.343 816.252 182.787C815.152 183.232 810.731 182.872 810.731 182.872C810.731 182.872 815.236 184.797 815.025 185.791C814.813 186.785 813.333 188.118 812.148 188.287C810.963 188.457 803.369 187.082 803.369 187.082C803.369 187.082 807.41 188.985 806.838 190.36C806.267 191.714 804.575 192.307 803.348 192.349C802.121 192.391 785.262 189.662 785.262 189.662C785.262 189.662 772.633 186.616 769.418 184.966L757.255 189.028L754.737 175.257L754.758 175.236Z" fill="#FDBFC3"/>
<path d="M671.117 258.112L665.469 284.427L657.43 257.245L656.796 141.154L656.732 131.657L663.121 131.424L663.671 139.949L671.117 258.112Z" fill="#DE3A65"/>
<g style="mix-blend-mode:overlay" opacity="0.53">
<path d="M663.671 139.949C661.365 140.731 659.208 141.006 656.796 141.154L656.754 131.657L663.142 131.424L663.671 139.949Z" fill="black"/>
</g>
<path d="M656.034 114.671L662.105 114.459L664.284 134.766C664.284 134.766 660.498 141.451 655.611 135.803L656.056 114.692L656.034 114.671Z" fill="#DE3A65"/>
<path d="M655.019 110.635L631.37 97.4355L623.606 110.635L654.998 128.447L658.975 114.443L662.973 128.447L667.923 121.403L662.973 107.505C662.973 107.505 661.937 111.46 654.998 110.614L655.019 110.635Z" fill="#342C3B"/>
<path d="M629.275 106.258C629.275 106.258 608.608 119.246 597.587 149.157C586.566 179.068 555.153 276.586 555.153 276.586C555.153 276.586 599.385 301.928 619.968 303.578C619.968 303.578 660.836 210.925 653.052 152.055C650.492 132.763 646.706 112.265 629.275 106.236V106.258Z" fill="#17A9E1"/>
<path d="M653.073 152.077C651.127 137.439 646.643 131.452 637.864 122.271C621.893 128.85 611.041 133.039 614.32 151.104C618.868 178.455 632.216 203.586 645.86 226.537C651.994 201.449 656.014 174.352 653.073 152.077Z" fill="#29B7EE"/>
<path d="M615.293 137.794C612.966 126.582 620.835 116.027 632.194 114.652C636.933 114.081 641.777 114.631 644.865 117.952C653.432 127.111 696.057 182.681 696.057 182.681L767.598 170.73L770.75 194.76C770.75 194.76 692.842 217.817 684.042 216.443C676.701 215.321 622.252 171.407 615.272 137.794H615.293Z" fill="#17A9E1"/>
<path d="M835.671 558.986H701.409V568.23H835.671V558.986Z" fill="#342C3B"/>
<path d="M830.996 484.824H706.105V558.989H830.996V484.824Z" fill="#342C3B"/>
<path d="M814.391 443.975H721.971V461.638H814.391V443.975Z" fill="#17A9E1"/>
<path d="M835.671 558.986H701.409V563.915H835.671V558.986Z" fill="white"/>
<path d="M773.437 506.885H718.438V540.244H773.437V506.885Z" fill="#EDEDED"/>
<path d="M770.454 510.818H721.42V537.218H770.454V510.818Z" fill="#F89939"/>
<path d="M819.255 506.885H788.223V558.986H819.255V506.885Z" fill="#EDEDED"/>
<path d="M816.378 510.67H791.058V558.963H816.378V510.67Z" fill="#F89939"/>
<path d="M775.722 537.219H716.111V542.253H775.722V537.219Z" fill="#EDEDED"/>
<g opacity="0.34">
<path d="M743.42 510.818L729.988 537.218H725.63L739.041 510.818H743.42Z" fill="white"/>
<path d="M757.784 510.818L744.351 537.218H742.701L756.113 510.818H757.784Z" fill="white"/>
<path d="M766.266 510.818L752.834 537.218H746.89L760.322 510.818H766.266Z" fill="white"/>
<path d="M746.889 510.818L733.457 537.218H731.257L744.689 510.818H746.889Z" fill="white"/>
</g>
<g opacity="0.34">
<path d="M808.657 510.67L791.058 542.273V534.023L804.067 510.67H808.657Z" fill="white"/>
<path d="M816.378 520.848V524L796.895 558.987H795.14L816.378 520.848Z" fill="white"/>
<path d="M816.379 528.756V540.01L805.823 558.984H799.562L816.379 528.756Z" fill="white"/>
<path d="M812.317 510.67L791.058 548.831V544.685L810.011 510.67H812.317Z" fill="white"/>
</g>
<path d="M723.959 452.33H706.253L698.215 481.543H718.205L723.959 452.33Z" fill="#17A9E1"/>
<path d="M741.643 452.33H723.959L718.205 481.543H738.195L741.643 452.33Z" fill="#EDEDED"/>
<path d="M759.349 452.33H741.643L738.195 481.543H758.185L759.349 452.33Z" fill="#17A9E1"/>
<path d="M794.739 452.33H777.033L778.175 481.543H798.166L794.739 452.33Z" fill="#17A9E1"/>
<path d="M830.128 452.33H812.423L818.177 481.543H838.167L830.128 452.33Z" fill="#17A9E1"/>
<path d="M777.033 452.33H759.349L758.186 481.543H778.176L777.033 452.33Z" fill="#EDEDED"/>
<path d="M812.423 452.33H794.738L798.165 481.543H818.176L812.423 452.33Z" fill="#EDEDED"/>
<path d="M718.205 481.543H698.215V497.387C698.744 497.979 702.34 502.041 708.305 501.998C714.143 501.956 717.676 498 718.205 497.387V481.543Z" fill="#17A9E1"/>
<path d="M738.195 481.543H718.205V497.387C718.734 498 722.267 501.956 728.105 501.998C734.049 502.041 737.666 497.979 738.195 497.387V481.543Z" fill="#DBDBDB"/>
<path d="M758.185 481.543H738.195V497.387C738.745 498.022 742.193 501.871 747.905 501.998C753.955 502.125 757.678 497.979 758.185 497.387V481.543Z" fill="#17A9E1"/>
<path d="M798.165 481.543H778.175V497.387C778.746 498.022 782.49 501.935 788.455 501.808C794.082 501.681 797.551 498.064 798.165 497.387V481.543Z" fill="#17A9E1"/>
<path d="M838.167 481.543H818.177V497.387C818.684 497.979 822.492 502.21 828.648 501.998C834.253 501.808 837.617 498.043 838.167 497.387V481.543Z" fill="#17A9E1"/>
<path d="M778.176 481.543H758.186V497.387C758.736 498.022 762.184 501.871 767.895 501.998C773.945 502.125 777.668 497.979 778.176 497.387V481.543Z" fill="#DBDBDB"/>
<path d="M818.177 481.543H798.187V497.387C798.694 497.979 802.417 502.125 808.467 501.998C814.179 501.871 817.627 498.022 818.177 497.387V481.543Z" fill="#DBDBDB"/>
<path d="M804.49 510.67H802.734V558.963H804.49V510.67Z" fill="#EDEDED"/>
<path d="M789.111 533.9V535.74H817.669V533.9H789.111Z" fill="#EDEDED"/>
<path d="M788.456 546.736V548.576H817.013V546.736H788.456Z" fill="#EDEDED"/>
<path d="M789.111 521.082V522.922H817.669V521.082H789.111Z" fill="#EDEDED"/>
<path d="M814.475 437.623H722.415V443.969H814.475V437.623Z" fill="#342C3B"/>
<path d="M811.259 386.773H725.63V437.627H811.259V386.773Z" fill="#342C3B"/>
<path d="M799.879 358.766H736.503V370.887H799.879V358.766Z" fill="#17A9E1"/>
<path d="M814.475 437.623H722.415V441.008H814.475V437.623Z" fill="white"/>
<path d="M771.809 401.898H734.092V424.765H771.809V401.898Z" fill="#EDEDED"/>
<path d="M769.735 404.605H736.122V422.713H769.735V404.605Z" fill="#F89939"/>
<path d="M803.2 401.898H781.92V437.606H803.2V401.898Z" fill="#EDEDED"/>
<path d="M801.233 404.498H783.866V437.603H801.233V404.498Z" fill="#F89939"/>
<path d="M773.353 422.715H732.484V426.184H773.353V422.715Z" fill="#EDEDED"/>
<g opacity="0.34">
<path d="M751.205 404.604L742.003 422.711H738.999L748.201 404.604H751.205Z" fill="white"/>
<path d="M761.062 404.604L751.861 422.711H750.697L759.92 404.604H761.062Z" fill="white"/>
<path d="M766.88 404.604L757.657 422.711H753.574L762.797 404.604H766.88Z" fill="white"/>
<path d="M753.574 404.604L744.372 422.711H742.87L752.093 404.604H753.574Z" fill="white"/>
</g>
<g opacity="0.34">
<path d="M795.944 404.5L783.865 426.161V420.513L792.792 404.5H795.944Z" fill="white"/>
<path d="M801.232 411.482V413.64L787.884 437.628H786.679L801.232 411.482Z" fill="white"/>
<path d="M801.232 416.914V424.614L793.997 437.623H789.703L801.232 416.914Z" fill="white"/>
<path d="M798.44 404.5L783.865 430.667V427.832L796.875 404.5H798.44Z" fill="white"/>
</g>
<path d="M737.857 364.502H725.715L720.215 384.534H733.922L737.857 364.502Z" fill="#17A9E1"/>
<path d="M749.999 364.502H737.856L733.922 384.534H747.629L749.999 364.502Z" fill="#EDEDED"/>
<path d="M762.12 364.502H749.999L747.63 384.534H761.337L762.12 364.502Z" fill="#17A9E1"/>
<path d="M786.384 364.502H774.263L775.045 384.534H788.753L786.384 364.502Z" fill="#17A9E1"/>
<path d="M810.646 364.502H798.525L802.46 384.534H816.167L810.646 364.502Z" fill="#17A9E1"/>
<path d="M774.263 364.502H762.121L761.338 384.534H775.045L774.263 364.502Z" fill="#EDEDED"/>
<path d="M798.525 364.502H786.383L788.752 384.534H802.46L798.525 364.502Z" fill="#EDEDED"/>
<path d="M733.922 384.531H720.215V395.383C720.574 395.785 723.049 398.577 727.132 398.535C731.13 398.514 733.563 395.806 733.922 395.383V384.531Z" fill="#17A9E1"/>
<path d="M747.629 384.531H733.922V395.383C734.281 395.806 736.714 398.514 740.712 398.535C744.795 398.556 747.27 395.785 747.629 395.383V384.531Z" fill="#DBDBDB"/>
<path d="M761.337 384.531H747.63V395.383C748.011 395.827 750.38 398.45 754.293 398.535C758.439 398.62 760.978 395.785 761.337 395.383V384.531Z" fill="#17A9E1"/>
<path d="M788.752 384.531H775.045V395.383C775.447 395.806 778.006 398.493 782.089 398.408C785.96 398.323 788.329 395.827 788.752 395.383V384.531Z" fill="#17A9E1"/>
<path d="M816.167 384.531H802.46V395.383C802.798 395.785 805.421 398.683 809.631 398.535C813.46 398.408 815.787 395.827 816.167 395.383V384.531Z" fill="#17A9E1"/>
<path d="M775.045 384.531H761.338V395.383C761.719 395.827 764.088 398.45 768.001 398.535C772.147 398.62 774.686 395.785 775.045 395.383V384.531Z" fill="#DBDBDB"/>
<path d="M802.459 384.531H788.752V395.383C789.112 395.785 791.65 398.641 795.796 398.535C799.71 398.45 802.079 395.806 802.459 395.383V384.531Z" fill="#DBDBDB"/>
<path d="M793.089 404.498H791.883V437.603H793.089V404.498Z" fill="#EDEDED"/>
<path d="M782.533 420.43V421.699H802.121V420.43H782.533Z" fill="#EDEDED"/>
<path d="M782.089 429.227V430.496H801.677V429.227H782.089Z" fill="#EDEDED"/>
<path d="M782.533 411.649V412.918H802.121V411.649H782.533Z" fill="#EDEDED"/>
<path d="M800.069 354.389H736.65V358.767H800.069V354.389Z" fill="#342C3B"/>
<path d="M797.847 319.357H738.871V354.388H797.847V319.357Z" fill="#342C3B"/>
<path d="M790.021 300.066H746.36V308.422H790.021V300.066Z" fill="#17A9E1"/>
<path d="M800.069 354.389H736.65V356.716H800.069V354.389Z" fill="white"/>
<path d="M770.665 329.789H744.688V345.548H770.665V329.789Z" fill="#EDEDED"/>
<path d="M769.27 331.648H746.106V344.108H769.27V331.648Z" fill="#F89939"/>
<path d="M792.305 329.789H777.646V354.391H792.305V329.789Z" fill="#EDEDED"/>
<path d="M790.952 331.562H779V354.366H790.952V331.562Z" fill="#F89939"/>
<path d="M771.744 344.109H743.589V346.5H771.744V344.109Z" fill="#EDEDED"/>
<g opacity="0.34">
<path d="M756.492 331.65L750.146 344.11H748.073L754.419 331.65H756.492Z" fill="white"/>
<path d="M763.283 331.65L756.937 344.11H756.154L762.479 331.65H763.283Z" fill="white"/>
<path d="M767.281 331.65L760.934 344.11H758.121L764.467 331.65H767.281Z" fill="white"/>
<path d="M758.121 331.65L751.775 344.11H750.76L757.085 331.65H758.121Z" fill="white"/>
</g>
<g opacity="0.34">
<path d="M787.313 331.562L779 346.497V342.584L785.135 331.562H787.313Z" fill="white"/>
<path d="M790.952 336.365V337.867L781.75 354.388H780.925L790.952 336.365Z" fill="white"/>
<path d="M790.952 340.107V345.417L785.96 354.386H782.998L790.952 340.107Z" fill="white"/>
<path d="M789.027 331.562L779 349.585V347.639L787.948 331.562H789.027Z" fill="white"/>
</g>
<path d="M747.291 303.998H738.935L735.148 317.811H744.583L747.291 303.998Z" fill="#17A9E1"/>
<path d="M755.646 303.998H747.291L744.583 317.811H754.017L755.646 303.998Z" fill="#EDEDED"/>
<path d="M764.002 303.998H755.646L754.018 317.811H763.473L764.002 303.998Z" fill="#17A9E1"/>
<path d="M780.734 303.998H772.357L772.907 317.811H782.342L780.734 303.998Z" fill="#17A9E1"/>
<path d="M797.446 303.998H789.09L791.797 317.811H801.232L797.446 303.998Z" fill="#17A9E1"/>
<path d="M772.357 303.998H764.001L763.473 317.811H772.907L772.357 303.998Z" fill="#EDEDED"/>
<path d="M789.09 303.998H780.734L782.342 317.811H791.798L789.09 303.998Z" fill="#EDEDED"/>
<path d="M744.583 317.814H735.148V325.303C735.402 325.578 737.095 327.503 739.908 327.482C742.658 327.482 744.329 325.599 744.583 325.303V317.814Z" fill="#17A9E1"/>
<path d="M754.017 317.814H744.583V325.303C744.837 325.599 746.508 327.46 749.258 327.482C752.071 327.482 753.785 325.599 754.017 325.303V317.814Z" fill="#DBDBDB"/>
<path d="M763.474 317.814H754.039V325.303C754.293 325.599 755.922 327.418 758.629 327.482C761.485 327.545 763.241 325.578 763.474 325.303V317.814Z" fill="#17A9E1"/>
<path d="M782.342 317.814H772.907V325.303C773.182 325.599 774.938 327.439 777.751 327.397C780.417 327.334 782.046 325.62 782.342 325.303V317.814Z" fill="#17A9E1"/>
<path d="M801.232 317.814H791.798V325.303C792.031 325.578 793.85 327.587 796.748 327.482C799.392 327.397 800.978 325.62 801.253 325.303V317.814H801.232Z" fill="#17A9E1"/>
<path d="M772.908 317.814H763.474V325.303C763.727 325.599 765.356 327.418 768.064 327.482C770.92 327.545 772.675 325.578 772.908 325.303V317.814Z" fill="#DBDBDB"/>
<path d="M791.798 317.814H782.363V325.303C782.596 325.578 784.352 327.545 787.207 327.482C789.915 327.418 791.544 325.599 791.798 325.303V317.814Z" fill="#DBDBDB"/>
<path d="M785.325 331.562H784.5V354.366H785.325V331.562Z" fill="#EDEDED"/>
<path d="M778.069 342.564V343.432H791.565V342.564H778.069Z" fill="#EDEDED"/>
<path d="M777.772 348.594V349.461H791.268V348.594H777.772Z" fill="#EDEDED"/>
<path d="M778.069 336.496V337.363H791.565V336.496H778.069Z" fill="#EDEDED"/>
<path d="M814.475 437.623H722.415V443.969H814.475V437.623Z" fill="#342C3B"/>
<path d="M811.259 386.773H725.63V437.627H811.259V386.773Z" fill="#342C3B"/>
<path d="M799.879 358.766H736.503V370.887H799.879V358.766Z" fill="#17A9E1"/>
<path d="M814.475 437.623H722.415V441.008H814.475V437.623Z" fill="white"/>
<path d="M771.809 401.898H734.092V424.765H771.809V401.898Z" fill="#EDEDED"/>
<path d="M769.735 404.605H736.122V422.713H769.735V404.605Z" fill="#F89939"/>
<path d="M803.2 401.898H781.92V437.606H803.2V401.898Z" fill="#EDEDED"/>
<path d="M801.233 404.498H783.866V437.603H801.233V404.498Z" fill="#F89939"/>
<path d="M773.353 422.715H732.484V426.184H773.353V422.715Z" fill="#EDEDED"/>
<g opacity="0.34">
<path d="M751.205 404.604L742.003 422.711H738.999L748.201 404.604H751.205Z" fill="white"/>
<path d="M761.062 404.604L751.861 422.711H750.697L759.92 404.604H761.062Z" fill="white"/>
<path d="M766.88 404.604L757.657 422.711H753.574L762.797 404.604H766.88Z" fill="white"/>
<path d="M753.574 404.604L744.372 422.711H742.87L752.093 404.604H753.574Z" fill="white"/>
</g>
<g opacity="0.34">
<path d="M795.944 404.5L783.865 426.161V420.513L792.792 404.5H795.944Z" fill="white"/>
<path d="M801.232 411.482V413.64L787.884 437.628H786.679L801.232 411.482Z" fill="white"/>
<path d="M801.232 416.914V424.614L793.997 437.623H789.703L801.232 416.914Z" fill="white"/>
<path d="M798.44 404.5L783.865 430.667V427.832L796.875 404.5H798.44Z" fill="white"/>
</g>
<path d="M737.857 364.502H725.715L720.215 384.534H733.922L737.857 364.502Z" fill="#17A9E1"/>
<path d="M749.999 364.502H737.856L733.922 384.534H747.629L749.999 364.502Z" fill="#EDEDED"/>
<path d="M762.12 364.502H749.999L747.63 384.534H761.337L762.12 364.502Z" fill="#17A9E1"/>
<path d="M786.384 364.502H774.263L775.045 384.534H788.753L786.384 364.502Z" fill="#17A9E1"/>
<path d="M810.646 364.502H798.525L802.46 384.534H816.167L810.646 364.502Z" fill="#17A9E1"/>
<path d="M774.263 364.502H762.121L761.338 384.534H775.045L774.263 364.502Z" fill="#EDEDED"/>
<path d="M798.525 364.502H786.383L788.752 384.534H802.46L798.525 364.502Z" fill="#EDEDED"/>
<path d="M733.922 384.531H720.215V395.383C720.574 395.785 723.049 398.577 727.132 398.535C731.13 398.514 733.563 395.806 733.922 395.383V384.531Z" fill="#17A9E1"/>
<path d="M747.629 384.531H733.922V395.383C734.281 395.806 736.714 398.514 740.712 398.535C744.795 398.556 747.27 395.785 747.629 395.383V384.531Z" fill="#DBDBDB"/>
<path d="M761.337 384.531H747.63V395.383C748.011 395.827 750.38 398.45 754.293 398.535C758.439 398.62 760.978 395.785 761.337 395.383V384.531Z" fill="#17A9E1"/>
<path d="M788.752 384.531H775.045V395.383C775.447 395.806 778.006 398.493 782.089 398.408C785.96 398.323 788.329 395.827 788.752 395.383V384.531Z" fill="#17A9E1"/>
<path d="M816.167 384.531H802.46V395.383C802.798 395.785 805.421 398.683 809.631 398.535C813.46 398.408 815.787 395.827 816.167 395.383V384.531Z" fill="#17A9E1"/>
<path d="M775.045 384.531H761.338V395.383C761.719 395.827 764.088 398.45 768.001 398.535C772.147 398.62 774.686 395.785 775.045 395.383V384.531Z" fill="#DBDBDB"/>
<path d="M802.459 384.531H788.752V395.383C789.112 395.785 791.65 398.641 795.796 398.535C799.71 398.45 802.079 395.806 802.459 395.383V384.531Z" fill="#DBDBDB"/>
<path d="M793.089 404.498H791.883V437.603H793.089V404.498Z" fill="#EDEDED"/>
<path d="M782.533 420.43V421.699H802.121V420.43H782.533Z" fill="#EDEDED"/>
<path d="M782.089 429.227V430.496H801.677V429.227H782.089Z" fill="#EDEDED"/>
<path d="M782.533 411.649V412.918H802.121V411.649H782.533Z" fill="#EDEDED"/>
<path d="M800.069 354.389H736.65V358.767H800.069V354.389Z" fill="#342C3B"/>
<path d="M797.847 319.357H738.871V354.388H797.847V319.357Z" fill="#342C3B"/>
<path d="M790.021 300.066H746.36V308.422H790.021V300.066Z" fill="#17A9E1"/>
<path d="M800.069 354.389H736.65V356.716H800.069V354.389Z" fill="white"/>
<path d="M770.665 329.789H744.688V345.548H770.665V329.789Z" fill="#EDEDED"/>
<path d="M769.27 331.648H746.106V344.108H769.27V331.648Z" fill="#F89939"/>
<path d="M792.305 329.789H777.646V354.391H792.305V329.789Z" fill="#EDEDED"/>
<path d="M790.952 331.562H779V354.366H790.952V331.562Z" fill="#F89939"/>
<path d="M771.744 344.109H743.589V346.5H771.744V344.109Z" fill="#EDEDED"/>
<g opacity="0.34">
<path d="M756.492 331.65L750.146 344.11H748.073L754.419 331.65H756.492Z" fill="white"/>
<path d="M763.283 331.65L756.937 344.11H756.154L762.479 331.65H763.283Z" fill="white"/>
<path d="M767.281 331.65L760.934 344.11H758.121L764.467 331.65H767.281Z" fill="white"/>
<path d="M758.121 331.65L751.775 344.11H750.76L757.085 331.65H758.121Z" fill="white"/>
</g>
<g opacity="0.34">
<path d="M787.313 331.562L779 346.497V342.584L785.135 331.562H787.313Z" fill="white"/>
<path d="M790.952 336.365V337.867L781.75 354.388H780.925L790.952 336.365Z" fill="white"/>
<path d="M790.952 340.107V345.417L785.96 354.386H782.998L790.952 340.107Z" fill="white"/>
<path d="M789.027 331.562L779 349.585V347.639L787.948 331.562H789.027Z" fill="white"/>
</g>
<path d="M747.291 303.998H738.935L735.148 317.811H744.583L747.291 303.998Z" fill="#17A9E1"/>
<path d="M755.646 303.998H747.291L744.583 317.811H754.017L755.646 303.998Z" fill="#EDEDED"/>
<path d="M764.002 303.998H755.646L754.018 317.811H763.473L764.002 303.998Z" fill="#17A9E1"/>
<path d="M780.734 303.998H772.357L772.907 317.811H782.342L780.734 303.998Z" fill="#17A9E1"/>
<path d="M797.446 303.998H789.09L791.797 317.811H801.232L797.446 303.998Z" fill="#17A9E1"/>
<path d="M772.357 303.998H764.001L763.473 317.811H772.907L772.357 303.998Z" fill="#EDEDED"/>
<path d="M789.09 303.998H780.734L782.342 317.811H791.798L789.09 303.998Z" fill="#EDEDED"/>
<path d="M744.583 317.814H735.148V325.303C735.402 325.578 737.095 327.503 739.908 327.482C742.658 327.482 744.329 325.599 744.583 325.303V317.814Z" fill="#17A9E1"/>
<path d="M754.017 317.814H744.583V325.303C744.837 325.599 746.508 327.46 749.258 327.482C752.071 327.482 753.785 325.599 754.017 325.303V317.814Z" fill="#DBDBDB"/>
<path d="M763.474 317.814H754.039V325.303C754.293 325.599 755.922 327.418 758.629 327.482C761.485 327.545 763.241 325.578 763.474 325.303V317.814Z" fill="#17A9E1"/>
<path d="M782.342 317.814H772.907V325.303C773.182 325.599 774.938 327.439 777.751 327.397C780.417 327.334 782.046 325.62 782.342 325.303V317.814Z" fill="#17A9E1"/>
<path d="M801.232 317.814H791.798V325.303C792.031 325.578 793.85 327.587 796.748 327.482C799.392 327.397 800.978 325.62 801.253 325.303V317.814H801.232Z" fill="#17A9E1"/>
<path d="M772.908 317.814H763.474V325.303C763.727 325.599 765.356 327.418 768.064 327.482C770.92 327.545 772.675 325.578 772.908 325.303V317.814Z" fill="#DBDBDB"/>
<path d="M791.798 317.814H782.363V325.303C782.596 325.578 784.352 327.545 787.207 327.482C789.915 327.418 791.544 325.599 791.798 325.303V317.814Z" fill="#DBDBDB"/>
<path d="M785.325 331.562H784.5V354.366H785.325V331.562Z" fill="#EDEDED"/>
<path d="M778.069 342.564V343.432H791.565V342.564H778.069Z" fill="#EDEDED"/>
<path d="M777.772 348.594V349.461H791.268V348.594H777.772Z" fill="#EDEDED"/>
<path d="M778.069 336.496V337.363H791.565V336.496H778.069Z" fill="#EDEDED"/>
<path d="M835.861 532.14C868.526 532.14 895.006 505.66 895.006 472.995C895.006 440.33 868.526 413.85 835.861 413.85C803.196 413.85 776.716 440.33 776.716 472.995C776.716 505.66 803.196 532.14 835.861 532.14Z" fill="#FD9F58"/>
<path d="M835.861 525.372C864.787 525.372 888.237 501.922 888.237 472.995C888.237 444.069 864.787 420.619 835.861 420.619C806.934 420.619 783.484 444.069 783.484 472.995C783.484 501.922 806.934 525.372 835.861 525.372Z" fill="#F9DEBB"/>
<path d="M835.862 519.362C861.47 519.362 882.23 498.602 882.23 472.994C882.23 447.385 861.47 426.625 835.862 426.625C810.253 426.625 789.493 447.385 789.493 472.994C789.493 498.602 810.253 519.362 835.862 519.362Z" fill="#FD9F58"/>
<path d="M840.536 500.366V508.913H839.118V500.536C838.526 500.578 837.913 500.599 837.299 500.599C836.305 500.599 835.438 500.536 834.613 500.472V508.913H833.195V500.261C830.678 499.753 829.028 498.843 827.611 497.997C826.511 497.278 825.792 497.003 825.242 497.003C824.311 497.003 823.973 498.061 823.698 500.113H822.09C822.301 497.215 822.365 493.153 822.365 483.19H823.973C824.459 490.488 826.871 497.003 833.195 498.759V475.85C827.272 472.169 822.407 468.34 822.407 461.106C822.407 453.871 827.272 449.873 833.195 449.048V440.375H834.613V448.921L835.692 448.879C837.024 448.879 838.167 448.985 839.14 449.196V440.375H840.557V449.535C842.143 450.042 843.243 450.783 844.322 451.502C845.422 452.221 846.078 452.496 846.691 452.496C847.622 452.496 847.961 451.438 848.236 449.386H849.886C849.653 451.861 849.505 454.908 849.505 463.792H847.876C847.495 458.461 845.359 453.004 840.536 451.015V471.957C847.347 476.273 852.255 479.974 852.255 487.209C852.255 494.951 847.199 499.33 840.536 500.366ZM833.195 467.325V450.677C829.896 451.735 827.674 454.611 827.674 458.398C827.674 462.502 829.917 465.019 833.195 467.325ZM834.613 450.338V468.277C836.03 469.165 837.553 470.075 839.118 471.069V450.529C838.251 450.296 837.32 450.19 836.305 450.19C835.713 450.19 835.163 450.233 834.613 450.338ZM839.118 498.949V479.551C837.849 478.663 836.474 477.796 834.951 476.907L834.613 476.696V499.013C835.311 499.118 836.03 499.182 836.813 499.182C837.595 499.182 838.357 499.118 839.118 498.949ZM840.536 498.526C843.603 497.363 845.972 494.57 845.972 489.769C845.972 485.876 843.899 483.126 840.536 480.546V498.526Z" fill="#F9DEBB"/>
<g style="mix-blend-mode:overlay" opacity="0.23">
<path d="M849.42 415.395C856.274 421.127 862.07 428.108 866.386 435.723C881.087 463.117 869.051 504.557 835.649 513.907C820.821 518.053 806.288 517.566 792.877 513.632C803.665 525.033 818.938 532.162 835.861 532.162C868.522 532.162 895.006 505.678 895.006 472.996C895.006 444.988 875.545 421.529 849.42 415.395Z" fill="black"/>
</g>
<path d="M887.264 515.139H784.331C783.338 515.139 782.533 515.944 782.533 516.937V531.871C782.533 532.864 783.338 533.669 784.331 533.669H887.264C888.257 533.669 889.062 532.864 889.062 531.871V516.937C889.062 515.944 888.257 515.139 887.264 515.139Z" fill="#FD9F58"/>
<g opacity="0.58">
<path d="M831.736 515.139H804.617V533.669H831.736V515.139Z" fill="#F4CA87"/>
</g>
<path d="M823.571 515.139H812.762V533.669H823.571V515.139Z" fill="#F4D9B3"/>
<path d="M884.345 515.139H880.051V533.669H884.345V515.139Z" fill="#F49519"/>
<path d="M876.18 515.139H871.886V533.669H876.18V515.139Z" fill="#F49519"/>
<path d="M868.036 515.139H863.742V533.669H868.036V515.139Z" fill="#F89939"/>
<path d="M859.892 515.139H855.598V533.669H859.892V515.139Z" fill="#F89939"/>
<path d="M851.6 515.139H847.306V533.669H851.6V515.139Z" fill="#F89939"/>
<path d="M843.286 515.139H838.992V533.669H843.286V515.139Z" fill="#F89939"/>
<path d="M800.45 515.139H796.156V533.669H800.45V515.139Z" fill="#F89939"/>
<path d="M792.877 515.139H788.583V533.669H792.877V515.139Z" fill="#F49519"/>
<g style="mix-blend-mode:overlay" opacity="0.27">
<path d="M782.533 526.582V530.474C782.533 532.23 784.352 533.668 786.595 533.668H885.022C887.264 533.668 889.084 532.251 889.084 530.474V523.811C877.132 527.153 859.976 530.812 838.992 531.637C815.152 532.568 795.585 529.501 782.533 526.603V526.582Z" fill="black"/>
</g>
<path d="M879.374 533.646H776.441C775.448 533.646 774.643 534.451 774.643 535.444V550.379C774.643 551.372 775.448 552.177 776.441 552.177H879.374C880.367 552.177 881.172 551.372 881.172 550.379V535.444C881.172 534.451 880.367 533.646 879.374 533.646Z" fill="#FD9F58"/>
<g opacity="0.58">
<path d="M823.825 533.646H796.706V552.177H823.825V533.646Z" fill="#F4CA87"/>
</g>
<path d="M815.681 533.646H804.871V552.177H815.681V533.646Z" fill="#F4D9B3"/>
<path d="M876.434 533.646H872.14V552.177H876.434V533.646Z" fill="#F49519"/>
<path d="M868.289 533.646H863.995V552.177H868.289V533.646Z" fill="#F49519"/>
<path d="M860.124 533.646H855.83V552.177H860.124V533.646Z" fill="#F89939"/>
<path d="M851.98 533.646H847.686V552.177H851.98V533.646Z" fill="#F89939"/>
<path d="M843.688 533.646H839.394V552.177H843.688V533.646Z" fill="#F89939"/>
<path d="M835.374 533.646H831.08V552.177H835.374V533.646Z" fill="#F89939"/>
<path d="M792.538 533.646H788.244V552.177H792.538V533.646Z" fill="#F89939"/>
<path d="M784.987 533.646H780.692V552.177H784.987V533.646Z" fill="#F49519"/>
<g style="mix-blend-mode:overlay" opacity="0.27">
<path d="M774.643 545.091V548.984C774.643 550.739 776.462 552.178 778.704 552.178H877.131C879.374 552.178 881.193 550.761 881.193 548.984V542.32C869.241 545.663 852.107 549.322 831.101 550.147C807.261 551.078 787.694 548.011 774.643 545.113V545.091Z" fill="black"/>
</g>
<path d="M887.328 552.172H784.395C783.402 552.172 782.597 552.977 782.597 553.97V568.904C782.597 569.897 783.402 570.702 784.395 570.702H887.328C888.321 570.702 889.126 569.897 889.126 568.904V553.97C889.126 552.977 888.321 552.172 887.328 552.172Z" fill="#FD9F58"/>
<g opacity="0.58">
<path d="M831.8 552.172H804.681V570.702H831.8V552.172Z" fill="#F4CA87"/>
</g>
<path d="M823.635 552.172H812.825V570.702H823.635V552.172Z" fill="#F4D9B3"/>
<path d="M884.388 552.172H880.094V570.702H884.388V552.172Z" fill="#F49519"/>
<path d="M876.243 552.172H871.949V570.702H876.243V552.172Z" fill="#F49519"/>
<path d="M868.099 552.172H863.805V570.702H868.099V552.172Z" fill="#F89939"/>
<path d="M859.934 552.172H855.64V570.702H859.934V552.172Z" fill="#F89939"/>
<path d="M851.642 552.172H847.348V570.702H851.642V552.172Z" fill="#F89939"/>
<path d="M843.35 552.172H839.056V570.702H843.35V552.172Z" fill="#F89939"/>
<path d="M800.492 552.172H796.198V570.702H800.492V552.172Z" fill="#F89939"/>
<path d="M792.941 552.172H788.646V570.702H792.941V552.172Z" fill="#F49519"/>
<g style="mix-blend-mode:overlay" opacity="0.27">
<path d="M782.597 563.617V567.509C782.597 569.265 784.416 570.703 786.658 570.703H885.086C887.328 570.703 889.147 569.286 889.147 567.509V560.846C877.195 564.188 860.061 567.848 839.055 568.673C815.215 569.603 795.648 566.536 782.597 563.638V563.617Z" fill="black"/>
</g>
</svg>
