<svg width="718" height="708" viewBox="0 0 718 708" fill="none" xmlns="http://www.w3.org/2000/svg">
<path d="M337.398 47.8008C335.518 47.8008 333.998 49.3202 333.998 51.2008C333.998 53.0815 335.518 54.6009 337.398 54.6009H342.785L321.397 75.9999C320.069 77.328 320.069 79.4849 321.397 80.813C322.725 82.1412 324.882 82.1412 326.21 80.813L347.599 59.414V64.801C347.599 66.6816 349.118 68.201 350.999 68.201C352.879 68.201 354.399 66.6816 354.399 64.801V51.2008C354.399 49.3202 352.879 47.8008 350.999 47.8008H337.398ZM381.599 56.3009C381.599 54.9483 381.062 53.651 380.105 52.6946C379.149 51.7381 377.852 51.2008 376.499 51.2008C375.146 51.2008 373.849 51.7381 372.893 52.6946C371.936 53.651 371.399 54.9483 371.399 56.3009C371.399 57.6535 371.936 58.9507 372.893 59.9072C373.849 60.8636 375.146 61.4009 376.499 61.4009C377.852 61.4009 379.149 60.8636 380.105 59.9072C381.062 58.9507 381.599 57.6535 381.599 56.3009ZM367.999 69.901C367.999 69.2313 367.867 68.5681 367.611 67.9493C367.354 67.3306 366.979 66.7683 366.505 66.2948C366.031 65.8212 365.469 65.4455 364.85 65.1892C364.232 64.9329 363.568 64.801 362.899 64.801C362.229 64.801 361.566 64.9329 360.947 65.1892C360.328 65.4455 359.766 65.8212 359.292 66.2948C358.819 66.7683 358.443 67.3306 358.187 67.9493C357.931 68.5681 357.799 69.2313 357.799 69.901C357.799 70.5708 357.931 71.234 358.187 71.8528C358.443 72.4715 358.819 73.0337 359.292 73.5073C359.766 73.9809 360.328 74.3566 360.947 74.6129C361.566 74.8692 362.229 75.0011 362.899 75.0011C363.568 75.0011 364.232 74.8692 364.85 74.6129C365.469 74.3566 366.031 73.9809 366.505 73.5073C366.979 73.0337 367.354 72.4715 367.611 71.8528C367.867 71.234 367.999 70.5708 367.999 69.901ZM362.899 88.6013C364.251 88.6013 365.549 88.0639 366.505 87.1075C367.461 86.151 367.999 84.8538 367.999 83.5012C367.999 82.1486 367.461 80.8514 366.505 79.8949C365.549 78.9385 364.251 78.4011 362.899 78.4011C361.546 78.4011 360.249 78.9385 359.292 79.8949C358.336 80.8514 357.799 82.1486 357.799 83.5012C357.799 84.8538 358.336 86.151 359.292 87.1075C360.249 88.0639 361.546 88.6013 362.899 88.6013ZM367.999 97.1014C367.999 96.4316 367.867 95.7684 367.611 95.1497C367.354 94.5309 366.979 93.9687 366.505 93.4951C366.031 93.0215 365.469 92.6458 364.85 92.3895C364.232 92.1332 363.568 92.0013 362.899 92.0013C362.229 92.0013 361.566 92.1332 360.947 92.3895C360.328 92.6458 359.766 93.0215 359.292 93.4951C358.819 93.9687 358.443 94.5309 358.187 95.1497C357.931 95.7684 357.799 96.4316 357.799 97.1014C357.799 97.7711 357.931 98.4343 358.187 99.0531C358.443 99.6718 358.819 100.234 359.292 100.708C359.766 101.181 360.328 101.557 360.947 101.813C361.566 102.07 362.229 102.201 362.899 102.201C363.568 102.201 364.232 102.07 364.85 101.813C365.469 101.557 366.031 101.181 366.505 100.708C366.979 100.234 367.354 99.6718 367.611 99.0531C367.867 98.4343 367.999 97.7711 367.999 97.1014ZM381.599 97.1014C381.599 95.7487 381.062 94.4515 380.105 93.4951C379.149 92.5386 377.852 92.0013 376.499 92.0013C375.146 92.0013 373.849 92.5386 372.893 93.4951C371.936 94.4515 371.399 95.7487 371.399 97.1014C371.399 98.454 371.936 99.7512 372.893 100.708C373.849 101.664 375.146 102.201 376.499 102.201C377.852 102.201 379.149 101.664 380.105 100.708C381.062 99.7512 381.599 98.454 381.599 97.1014ZM349.299 88.6013C350.651 88.6013 351.948 88.0639 352.905 87.1075C353.861 86.151 354.399 84.8538 354.399 83.5012C354.399 82.1486 353.861 80.8514 352.905 79.8949C351.948 78.9385 350.651 78.4011 349.299 78.4011C347.946 78.4011 346.649 78.9385 345.692 79.8949C344.736 80.8514 344.199 82.1486 344.199 83.5012C344.199 84.8538 344.736 86.151 345.692 87.1075C346.649 88.0639 347.946 88.6013 349.299 88.6013ZM354.399 97.1014C354.399 95.7487 353.861 94.4515 352.905 93.4951C351.948 92.5386 350.651 92.0013 349.299 92.0013C347.946 92.0013 346.649 92.5386 345.692 93.4951C344.736 94.4515 344.199 95.7487 344.199 97.1014C344.199 98.454 344.736 99.7512 345.692 100.708C346.649 101.664 347.946 102.201 349.299 102.201C350.651 102.201 351.948 101.664 352.905 100.708C353.861 99.7512 354.399 98.454 354.399 97.1014ZM335.698 102.201C337.051 102.201 338.348 101.664 339.305 100.708C340.261 99.7512 340.798 98.454 340.798 97.1014C340.798 95.7487 340.261 94.4515 339.305 93.4951C338.348 92.5386 337.051 92.0013 335.698 92.0013C334.346 92.0013 333.049 92.5386 332.092 93.4951C331.136 94.4515 330.598 95.7487 330.598 97.1014C330.598 98.454 331.136 99.7512 332.092 100.708C333.049 101.664 334.346 102.201 335.698 102.201ZM381.599 83.5012C381.599 82.1486 381.062 80.8514 380.105 79.8949C379.149 78.9385 377.852 78.4011 376.499 78.4011C375.146 78.4011 373.849 78.9385 372.893 79.8949C371.936 80.8514 371.399 82.1486 371.399 83.5012C371.399 84.8538 371.936 86.151 372.893 87.1075C373.849 88.0639 375.146 88.6013 376.499 88.6013C377.852 88.6013 379.149 88.0639 380.105 87.1075C381.062 86.151 381.599 84.8538 381.599 83.5012ZM376.499 75.0011C377.852 75.0011 379.149 74.4638 380.105 73.5073C381.062 72.5509 381.599 71.2537 381.599 69.901C381.599 68.5484 381.062 67.2512 380.105 66.2948C379.149 65.3383 377.852 64.801 376.499 64.801C375.146 64.801 373.849 65.3383 372.893 66.2948C371.936 67.2512 371.399 68.5484 371.399 69.901C371.399 71.2537 371.936 72.5509 372.893 73.5073C373.849 74.4638 375.146 75.0011 376.499 75.0011Z" fill="white"/>
<rect x="277" y="1" width="148" height="148" rx="74" stroke="white" stroke-width="2"/>
<path d="M173.8 126.203C173.8 124.832 172.972 123.589 171.697 123.058C170.422 122.527 168.966 122.824 167.988 123.791L163.356 128.434C158.256 133.534 151.339 136.403 144.124 136.403H143.2H139.8H129.6C125.849 136.403 122.8 139.452 122.8 143.203V153.403C122.8 157.154 125.849 160.203 129.6 160.203V173.803C129.6 175.684 131.119 177.203 133 177.203H139.8C141.681 177.203 143.2 175.684 143.2 173.803V160.203H144.124C151.339 160.203 158.256 163.072 163.356 168.172L167.988 172.805C168.966 173.782 170.422 174.069 171.697 173.538C172.972 173.007 173.8 171.774 173.8 170.393V154.721C175.777 153.786 177.2 151.268 177.2 148.303C177.2 145.339 175.777 142.821 173.8 141.886V126.203ZM167 134.352V148.303V162.254C160.753 156.569 152.603 153.403 144.124 153.403H143.2V143.203H144.124C152.603 143.203 160.753 140.037 167 134.352Z" fill="white"/>
<rect x="76" y="76" width="148" height="148" rx="74" stroke="white" stroke-width="2"/>
<path d="M612.659 329.351C612.659 327.938 613.796 326.801 615.209 326.801H620.044C622.381 326.801 624.453 328.161 625.42 330.201H669.089C671.884 330.201 673.924 332.857 673.191 335.556L668.834 351.738C667.931 355.074 664.903 357.401 661.45 357.401H630.796L631.37 360.429C631.604 361.63 632.656 362.501 633.878 362.501H664.51C665.923 362.501 667.06 363.638 667.06 365.051C667.06 366.464 665.923 367.601 664.51 367.601H633.878C630.201 367.601 627.046 364.987 626.366 361.386L620.883 332.591C620.809 332.188 620.458 331.901 620.044 331.901H615.209C613.796 331.901 612.659 330.764 612.659 329.351ZM626.259 376.101C626.259 375.432 626.391 374.768 626.648 374.15C626.904 373.531 627.28 372.969 627.753 372.495C628.227 372.021 628.789 371.646 629.408 371.39C630.026 371.133 630.69 371.001 631.359 371.001C632.029 371.001 632.692 371.133 633.311 371.39C633.93 371.646 634.492 372.021 634.966 372.495C635.439 372.969 635.815 373.531 636.071 374.15C636.328 374.768 636.459 375.432 636.459 376.101C636.459 376.771 636.328 377.434 636.071 378.053C635.815 378.672 635.439 379.234 634.966 379.708C634.492 380.181 633.93 380.557 633.311 380.813C632.692 381.07 632.029 381.201 631.359 381.201C630.69 381.201 630.026 381.07 629.408 380.813C628.789 380.557 628.227 380.181 627.753 379.708C627.28 379.234 626.904 378.672 626.648 378.053C626.391 377.434 626.259 376.771 626.259 376.101ZM661.96 371.001C663.312 371.001 664.61 371.539 665.566 372.495C666.523 373.452 667.06 374.749 667.06 376.101C667.06 377.454 666.523 378.751 665.566 379.708C664.61 380.664 663.312 381.201 661.96 381.201C660.607 381.201 659.31 380.664 658.353 379.708C657.397 378.751 656.86 377.454 656.86 376.101C656.86 374.749 657.397 373.452 658.353 372.495C659.31 371.539 660.607 371.001 661.96 371.001Z" fill="white"/>
<rect x="569" y="280" width="148" height="148" rx="74" stroke="white" stroke-width="2"/>
<path d="M534 158.5C534 166.947 540.853 173.8 549.3 173.8H588.4C595.912 173.8 602 167.712 602 160.2C602 153.623 597.325 148.129 591.12 146.876C591.556 145.739 591.8 144.496 591.8 143.199C591.8 137.568 587.231 132.999 581.6 132.999C579.507 132.999 577.552 133.637 575.937 134.721C572.994 129.621 567.501 126.199 561.2 126.199C551.807 126.199 544.2 133.807 544.2 143.199C544.2 143.486 544.21 143.773 544.221 144.06C538.271 146.153 534 151.827 534 158.5Z" fill="white"/>
<rect x="494" y="76" width="148" height="148" rx="74" stroke="white" stroke-width="2"/>
<path d="M327.199 609.199C323.449 609.199 320.399 612.249 320.399 615.999V619.399H381.6V615.999C381.6 612.249 378.551 609.199 374.8 609.199H327.199ZM381.6 629.599H320.399V650C320.399 653.75 323.449 656.8 327.199 656.8H374.8C378.551 656.8 381.6 653.75 381.6 650V629.599ZM332.3 643.2H339.1C340.035 643.2 340.8 643.965 340.8 644.9C340.8 645.835 340.035 646.6 339.1 646.6H332.3C331.365 646.6 330.6 645.835 330.6 644.9C330.6 643.965 331.365 643.2 332.3 643.2ZM344.2 644.9C344.2 643.965 344.965 643.2 345.9 643.2H359.5C360.435 643.2 361.2 643.965 361.2 644.9C361.2 645.835 360.435 646.6 359.5 646.6H345.9C344.965 646.6 344.2 645.835 344.2 644.9Z" fill="white"/>
<rect x="277" y="559" width="148" height="148" rx="74" stroke="white" stroke-width="2"/>
<path d="M75.0813 326.801C76.9619 326.801 78.4813 328.32 78.4813 330.201V333.994C78.6513 334.015 78.8107 334.036 78.9807 334.068C79.0232 334.079 79.0551 334.079 79.0976 334.09L84.1976 335.025C86.0464 335.365 87.2683 337.139 86.9283 338.977C86.5883 340.815 84.8139 342.048 82.9757 341.708L77.9288 340.783C74.6031 340.295 71.6706 340.624 69.6093 341.442C67.5481 342.26 66.7193 343.387 66.5281 344.428C66.3155 345.565 66.4749 346.202 66.6556 346.595C66.8468 347.01 67.2399 347.477 68.0156 347.998C69.7475 349.135 72.4037 349.879 75.8463 350.792L76.1544 350.877C79.1932 351.685 82.912 352.662 85.6745 354.469C87.1833 355.457 88.6071 356.796 89.4889 358.666C90.3921 360.567 90.5833 362.692 90.169 364.956C89.4358 368.993 86.652 371.692 83.1989 373.105C81.7432 373.7 80.1601 374.083 78.4813 374.274V377.801C78.4813 379.682 76.9619 381.201 75.0813 381.201C73.2006 381.201 71.6812 379.682 71.6812 377.801V374.093C71.6387 374.083 71.5856 374.083 71.5431 374.072H71.5219C68.9293 373.668 64.6687 372.553 61.7999 371.278C60.0892 370.513 59.3136 368.504 60.0786 366.783C60.8436 365.062 62.8518 364.297 64.5624 365.062C66.7831 366.05 70.4381 367.028 72.5525 367.357C75.9419 367.856 78.7363 367.569 80.6276 366.794C82.4232 366.061 83.2414 364.998 83.4751 363.723C83.677 362.597 83.5176 361.949 83.337 361.556C83.1351 361.131 82.742 360.663 81.9557 360.142C80.2132 359.006 77.5463 358.262 74.0931 357.348L73.7956 357.274C70.7675 356.477 67.0487 355.489 64.2861 353.682C62.7774 352.694 61.3642 351.345 60.4824 349.475C59.6005 347.562 59.4198 345.437 59.8342 343.174C60.5992 339.126 63.638 336.491 67.0912 335.12C68.5043 334.557 70.0556 334.175 71.6812 333.951V330.201C71.6812 328.32 73.2006 326.801 75.0813 326.801Z" fill="white"/>
<rect x="1" y="280" width="148" height="148" rx="74" stroke="white" stroke-width="2"/>
<path d="M540.42 537.257C538.532 535.369 538.532 532.303 540.42 530.416C542.307 528.528 545.373 528.528 547.26 530.416L595.584 578.74C597.472 580.627 597.472 583.693 595.584 585.58C593.697 587.468 590.631 587.468 588.743 585.58L540.42 537.257ZM577.659 538.676C577.659 536.113 578.677 533.655 580.49 531.842C582.302 530.03 584.761 529.011 587.324 529.011C589.887 529.011 592.345 530.03 594.158 531.842C595.97 533.655 596.989 536.113 596.989 538.676C596.989 541.239 595.97 543.698 594.158 545.51C592.345 547.323 589.887 548.341 587.324 548.341C584.761 548.341 582.302 547.323 580.49 545.51C578.677 543.698 577.659 541.239 577.659 538.676ZM539 577.335C539 574.772 540.018 572.314 541.831 570.501C543.643 568.689 546.102 567.67 548.665 567.67C551.228 567.67 553.686 568.689 555.499 570.501C557.311 572.314 558.33 574.772 558.33 577.335C558.33 579.898 557.311 582.357 555.499 584.169C553.686 585.982 551.228 587 548.665 587C546.102 587 543.643 585.982 541.831 584.169C540.018 582.357 539 579.898 539 577.335Z" fill="white"/>
<rect x="494" y="484" width="148" height="148" rx="74" stroke="white" stroke-width="2"/>
<path d="M131.3 537.601C131.3 533.85 134.349 530.801 138.1 530.801H161.9C165.651 530.801 168.7 533.85 168.7 537.601V578.401C168.7 582.152 165.651 585.201 161.9 585.201H138.1C134.349 585.201 131.3 582.152 131.3 578.401V537.601ZM153.4 578.401C153.4 577.5 153.042 576.635 152.404 575.997C151.767 575.36 150.902 575.001 150 575.001C149.098 575.001 148.233 575.36 147.596 575.997C146.958 576.635 146.6 577.5 146.6 578.401C146.6 579.303 146.958 580.168 147.596 580.806C148.233 581.443 149.098 581.801 150 581.801C150.902 581.801 151.767 581.443 152.404 580.806C153.042 580.168 153.4 579.303 153.4 578.401ZM161.9 537.601H138.1V571.601H161.9V537.601Z" fill="white"/>
<rect x="76" y="484" width="148" height="148" rx="74" stroke="white" stroke-width="2"/>
<rect x="209" y="204" width="300" height="300" rx="150" fill="url(#paint0_linear_522_130)"/>
<path d="M338.6 267.199C334.849 267.199 331.8 270.249 331.8 273.999V301.2H338.6V273.999H379.4V301.2H386.2V273.999C386.2 270.249 383.151 267.199 379.4 267.199H338.6ZM327.04 304.6C325.913 304.6 325 305.513 325 306.64C325 311.145 328.655 314.8 333.16 314.8H384.84C389.345 314.8 393 311.145 393 306.64C393 305.513 392.087 304.6 390.96 304.6H327.04Z" fill="white"/>
<path d="M319.508 369.932C319.508 371.628 319.225 373.185 318.66 374.604C318.095 376.023 317.3 377.244 316.276 378.268C315.252 379.292 314.02 380.087 312.58 380.652C311.14 381.217 309.54 381.5 307.78 381.5H298.964V358.364H307.78C309.54 358.364 311.14 358.652 312.58 359.228C314.02 359.793 315.252 360.588 316.276 361.612C317.3 362.625 318.095 363.841 318.66 365.26C319.225 366.679 319.508 368.236 319.508 369.932ZM315.092 369.932C315.092 368.663 314.921 367.527 314.58 366.524C314.249 365.511 313.764 364.657 313.124 363.964C312.495 363.26 311.727 362.721 310.82 362.348C309.924 361.975 308.911 361.788 307.78 361.788H303.284V378.076H307.78C308.911 378.076 309.924 377.889 310.82 377.516C311.727 377.143 312.495 376.609 313.124 375.916C313.764 375.212 314.249 374.359 314.58 373.356C314.921 372.343 315.092 371.201 315.092 369.932ZM328.108 381.5H323.788V358.364H328.108V381.5ZM352.84 369.9V379.26C351.667 380.124 350.413 380.759 349.08 381.164C347.757 381.559 346.339 381.756 344.824 381.756C342.936 381.756 341.224 381.463 339.688 380.876C338.163 380.289 336.856 379.473 335.768 378.428C334.691 377.383 333.859 376.135 333.272 374.684C332.685 373.233 332.392 371.649 332.392 369.932C332.392 368.193 332.675 366.599 333.24 365.148C333.805 363.697 334.605 362.449 335.64 361.404C336.685 360.359 337.949 359.548 339.432 358.972C340.915 358.396 342.579 358.108 344.424 358.108C345.363 358.108 346.237 358.183 347.048 358.332C347.869 358.481 348.627 358.689 349.32 358.956C350.024 359.212 350.664 359.527 351.24 359.9C351.816 360.273 352.344 360.684 352.824 361.132L351.592 363.084C351.4 363.393 351.149 363.585 350.84 363.66C350.531 363.724 350.195 363.644 349.832 363.42C349.48 363.217 349.128 363.015 348.776 362.812C348.424 362.609 348.029 362.433 347.592 362.284C347.165 362.135 346.68 362.012 346.136 361.916C345.603 361.82 344.984 361.772 344.28 361.772C343.139 361.772 342.104 361.964 341.176 362.348C340.259 362.732 339.475 363.281 338.824 363.996C338.173 364.711 337.672 365.569 337.32 366.572C336.968 367.575 336.792 368.695 336.792 369.932C336.792 371.255 336.979 372.439 337.352 373.484C337.736 374.519 338.269 375.399 338.952 376.124C339.645 376.839 340.477 377.388 341.448 377.772C342.419 378.145 343.501 378.332 344.696 378.332C345.549 378.332 346.312 378.241 346.984 378.06C347.656 377.879 348.312 377.633 348.952 377.324V373.132H346.04C345.763 373.132 345.544 373.057 345.384 372.908C345.235 372.748 345.16 372.556 345.16 372.332V369.9H352.84ZM361.787 381.5H357.467V358.364H361.787V381.5ZM383.607 361.9H376.631V381.5H372.327V361.9H365.351V358.364H383.607V361.9ZM397.088 372.764L394.272 365.068C394.133 364.727 393.989 364.321 393.84 363.852C393.691 363.383 393.541 362.876 393.392 362.332C393.253 362.876 393.109 363.388 392.96 363.868C392.811 364.337 392.667 364.748 392.528 365.1L389.728 372.764H397.088ZM404.688 381.5H401.36C400.987 381.5 400.683 381.409 400.448 381.228C400.213 381.036 400.037 380.801 399.92 380.524L398.192 375.804H388.608L386.88 380.524C386.795 380.769 386.629 380.993 386.384 381.196C386.139 381.399 385.835 381.5 385.472 381.5H382.112L391.216 358.364H395.6L404.688 381.5ZM421.115 377.948V381.5H407.563V358.364H411.867V377.948H421.115ZM283.175 420.044C283.409 420.044 283.617 420.135 283.799 420.316L285.495 422.156C284.556 423.319 283.399 424.209 282.023 424.828C280.657 425.447 279.015 425.756 277.095 425.756C275.377 425.756 273.831 425.463 272.455 424.876C271.089 424.289 269.921 423.473 268.951 422.428C267.98 421.383 267.233 420.135 266.711 418.684C266.199 417.233 265.943 415.649 265.943 413.932C265.943 412.193 266.22 410.604 266.775 409.164C267.329 407.713 268.108 406.465 269.111 405.42C270.124 404.375 271.329 403.564 272.727 402.988C274.124 402.401 275.671 402.108 277.367 402.108C279.052 402.108 280.545 402.385 281.847 402.94C283.159 403.495 284.273 404.22 285.191 405.116L283.751 407.116C283.665 407.244 283.553 407.356 283.415 407.452C283.287 407.548 283.105 407.596 282.871 407.596C282.711 407.596 282.545 407.553 282.375 407.468C282.204 407.372 282.017 407.26 281.815 407.132C281.612 406.993 281.377 406.844 281.111 406.684C280.844 406.524 280.535 406.38 280.183 406.252C279.831 406.113 279.42 406.001 278.951 405.916C278.492 405.82 277.959 405.772 277.351 405.772C276.316 405.772 275.367 405.959 274.503 406.332C273.649 406.695 272.913 407.228 272.295 407.932C271.676 408.625 271.196 409.479 270.855 410.492C270.513 411.495 270.343 412.641 270.343 413.932C270.343 415.233 270.524 416.391 270.887 417.404C271.26 418.417 271.761 419.271 272.391 419.964C273.02 420.657 273.761 421.191 274.615 421.564C275.468 421.927 276.385 422.108 277.367 422.108C277.953 422.108 278.481 422.076 278.951 422.012C279.431 421.948 279.868 421.847 280.263 421.708C280.668 421.569 281.047 421.393 281.399 421.18C281.761 420.956 282.119 420.684 282.471 420.364C282.577 420.268 282.689 420.193 282.807 420.14C282.924 420.076 283.047 420.044 283.175 420.044ZM310.487 413.932C310.487 415.628 310.204 417.201 309.639 418.652C309.084 420.092 308.295 421.34 307.271 422.396C306.247 423.452 305.015 424.279 303.575 424.876C302.135 425.463 300.535 425.756 298.775 425.756C297.026 425.756 295.431 425.463 293.991 424.876C292.551 424.279 291.314 423.452 290.279 422.396C289.255 421.34 288.46 420.092 287.895 418.652C287.33 417.201 287.047 415.628 287.047 413.932C287.047 412.236 287.33 410.668 287.895 409.228C288.46 407.777 289.255 406.524 290.279 405.468C291.314 404.412 292.551 403.591 293.991 403.004C295.431 402.407 297.026 402.108 298.775 402.108C299.948 402.108 301.052 402.247 302.087 402.524C303.122 402.791 304.071 403.175 304.935 403.676C305.799 404.167 306.572 404.769 307.255 405.484C307.948 406.188 308.535 406.977 309.015 407.852C309.495 408.727 309.858 409.676 310.103 410.7C310.359 411.724 310.487 412.801 310.487 413.932ZM306.087 413.932C306.087 412.663 305.916 411.527 305.575 410.524C305.234 409.511 304.748 408.652 304.119 407.948C303.49 407.244 302.722 406.705 301.815 406.332C300.919 405.959 299.906 405.772 298.775 405.772C297.644 405.772 296.626 405.959 295.719 406.332C294.823 406.705 294.055 407.244 293.415 407.948C292.786 408.652 292.3 409.511 291.959 410.524C291.618 411.527 291.447 412.663 291.447 413.932C291.447 415.201 291.618 416.343 291.959 417.356C292.3 418.359 292.786 419.212 293.415 419.916C294.055 420.609 294.823 421.143 295.719 421.516C296.626 421.889 297.644 422.076 298.775 422.076C299.906 422.076 300.919 421.889 301.815 421.516C302.722 421.143 303.49 420.609 304.119 419.916C304.748 419.212 305.234 418.359 305.575 417.356C305.916 416.343 306.087 415.201 306.087 413.932ZM339.835 402.364V425.5H336.043V410.556C336.043 409.959 336.075 409.313 336.139 408.62L329.147 421.756C328.816 422.385 328.309 422.7 327.627 422.7H327.019C326.336 422.7 325.829 422.385 325.499 421.756L318.427 408.572C318.459 408.924 318.485 409.271 318.507 409.612C318.528 409.953 318.539 410.268 318.539 410.556V425.5H314.747V402.364H317.995C318.187 402.364 318.352 402.369 318.491 402.38C318.629 402.391 318.752 402.417 318.859 402.46C318.976 402.503 319.077 402.572 319.163 402.668C319.259 402.764 319.349 402.892 319.435 403.052L326.363 415.9C326.544 416.241 326.709 416.593 326.859 416.956C327.019 417.319 327.173 417.692 327.323 418.076C327.472 417.681 327.627 417.303 327.787 416.94C327.947 416.567 328.117 416.209 328.299 415.868L335.131 403.052C335.216 402.892 335.307 402.764 335.403 402.668C335.499 402.572 335.6 402.503 335.707 402.46C335.824 402.417 335.952 402.391 336.091 402.38C336.229 402.369 336.395 402.364 336.587 402.364H339.835ZM370.565 402.364V425.5H366.773V410.556C366.773 409.959 366.805 409.313 366.869 408.62L359.877 421.756C359.546 422.385 359.039 422.7 358.357 422.7H357.749C357.066 422.7 356.559 422.385 356.229 421.756L349.157 408.572C349.189 408.924 349.215 409.271 349.237 409.612C349.258 409.953 349.269 410.268 349.269 410.556V425.5H345.477V402.364H348.725C348.917 402.364 349.082 402.369 349.221 402.38C349.359 402.391 349.482 402.417 349.589 402.46C349.706 402.503 349.807 402.572 349.893 402.668C349.989 402.764 350.079 402.892 350.165 403.052L357.093 415.9C357.274 416.241 357.439 416.593 357.589 416.956C357.749 417.319 357.903 417.692 358.053 418.076C358.202 417.681 358.357 417.303 358.517 416.94C358.677 416.567 358.847 416.209 359.029 415.868L365.861 403.052C365.946 402.892 366.037 402.764 366.133 402.668C366.229 402.572 366.33 402.503 366.437 402.46C366.554 402.417 366.682 402.391 366.821 402.38C366.959 402.369 367.125 402.364 367.317 402.364H370.565ZM380.527 405.788V412.204H388.623V415.516H380.527V422.06H390.799V425.5H376.207V402.364H390.799V405.788H380.527ZM402.085 413.372C402.896 413.372 403.6 413.271 404.197 413.068C404.805 412.865 405.301 412.588 405.685 412.236C406.08 411.873 406.373 411.447 406.565 410.956C406.757 410.465 406.853 409.927 406.853 409.34C406.853 408.167 406.464 407.265 405.685 406.636C404.917 406.007 403.738 405.692 402.149 405.692H399.397V413.372H402.085ZM413.157 425.5H409.269C408.533 425.5 408 425.212 407.669 424.636L402.805 417.228C402.624 416.951 402.421 416.753 402.197 416.636C401.984 416.519 401.664 416.46 401.237 416.46H399.397V425.5H395.093V402.364H402.149C403.717 402.364 405.061 402.529 406.181 402.86C407.312 403.18 408.234 403.633 408.949 404.22C409.674 404.807 410.208 405.511 410.549 406.332C410.89 407.143 411.061 408.039 411.061 409.02C411.061 409.799 410.944 410.535 410.709 411.228C410.485 411.921 410.154 412.551 409.717 413.116C409.29 413.681 408.757 414.177 408.117 414.604C407.488 415.031 406.768 415.367 405.957 415.612C406.234 415.772 406.49 415.964 406.725 416.188C406.96 416.401 407.173 416.657 407.365 416.956L413.157 425.5ZM431.711 420.044C431.946 420.044 432.154 420.135 432.335 420.316L434.031 422.156C433.092 423.319 431.935 424.209 430.559 424.828C429.194 425.447 427.551 425.756 425.631 425.756C423.914 425.756 422.367 425.463 420.991 424.876C419.626 424.289 418.458 423.473 417.487 422.428C416.516 421.383 415.77 420.135 415.247 418.684C414.735 417.233 414.479 415.649 414.479 413.932C414.479 412.193 414.756 410.604 415.311 409.164C415.866 407.713 416.644 406.465 417.647 405.42C418.66 404.375 419.866 403.564 421.263 402.988C422.66 402.401 424.207 402.108 425.903 402.108C427.588 402.108 429.082 402.385 430.383 402.94C431.695 403.495 432.81 404.22 433.727 405.116L432.287 407.116C432.202 407.244 432.09 407.356 431.951 407.452C431.823 407.548 431.642 407.596 431.407 407.596C431.247 407.596 431.082 407.553 430.911 407.468C430.74 407.372 430.554 407.26 430.351 407.132C430.148 406.993 429.914 406.844 429.647 406.684C429.38 406.524 429.071 406.38 428.719 406.252C428.367 406.113 427.956 406.001 427.487 405.916C427.028 405.82 426.495 405.772 425.887 405.772C424.852 405.772 423.903 405.959 423.039 406.332C422.186 406.695 421.45 407.228 420.831 407.932C420.212 408.625 419.732 409.479 419.391 410.492C419.05 411.495 418.879 412.641 418.879 413.932C418.879 415.233 419.06 416.391 419.423 417.404C419.796 418.417 420.298 419.271 420.927 419.964C421.556 420.657 422.298 421.191 423.151 421.564C424.004 421.927 424.922 422.108 425.903 422.108C426.49 422.108 427.018 422.076 427.487 422.012C427.967 421.948 428.404 421.847 428.799 421.708C429.204 421.569 429.583 421.393 429.935 421.18C430.298 420.956 430.655 420.684 431.007 420.364C431.114 420.268 431.226 420.193 431.343 420.14C431.46 420.076 431.583 420.044 431.711 420.044ZM441.779 405.788V412.204H449.875V415.516H441.779V422.06H452.051V425.5H437.459V402.364H452.051V405.788H441.779Z" fill="white"/>
<defs>
<linearGradient id="paint0_linear_522_130" x1="359" y1="204" x2="359" y2="504" gradientUnits="userSpaceOnUse">
<stop stop-color="#0D8CBD" stop-opacity="0.6"/>
<stop offset="1" stop-color="#0097D0" stop-opacity="0.7"/>
</linearGradient>
</defs>
</svg>
