<svg width="485" height="749" viewBox="0 0 485 749" fill="none" xmlns="http://www.w3.org/2000/svg">
<path d="M378.252 537.928L405.78 563.357C406.923 564.412 408.431 565 410 565C411.569 565 413.077 564.412 414.22 563.357L441.748 537.928C446.38 533.662 449 527.678 449 521.422V520.548C449 510.011 441.307 501.027 430.81 499.294C423.863 498.148 416.795 500.394 411.828 505.308L410 507.117L408.172 505.308C403.205 500.394 396.137 498.148 389.19 499.294C378.693 501.027 371 510.011 371 520.548V521.422C371 527.678 373.62 533.662 378.252 537.928Z" fill="white"/>
<rect x="-1" y="1" width="148" height="148" rx="74" transform="matrix(-1 0 0 1 483 457)" stroke="white" stroke-width="2"/>
<path d="M414.352 193.207C413.549 191.553 411.853 190.5 409.989 190.5C408.126 190.5 406.444 191.553 405.626 193.207L395.885 213.101L374.129 216.289C372.311 216.56 370.796 217.823 370.236 219.552C369.675 221.282 370.13 223.191 371.433 224.469L387.219 239.973L383.492 261.882C383.189 263.687 383.946 265.521 385.446 266.589C386.946 267.657 388.931 267.792 390.567 266.935L410.004 256.634L429.442 266.935C431.078 267.792 433.062 267.672 434.562 266.589C436.062 265.506 436.82 263.687 436.517 261.882L432.775 239.973L448.561 224.469C449.864 223.191 450.333 221.282 449.758 219.552C449.182 217.823 447.682 216.56 445.864 216.289L424.094 213.101L414.352 193.207Z" fill="white"/>
<rect x="-1" y="1" width="148" height="148" rx="74" transform="matrix(-1 0 0 1 483 154)" stroke="white" stroke-width="2"/>
<path d="M146.996 104.129C125.457 104.129 108 90.0007 108 72.5644C108 55.1281 125.457 41 146.996 41C168.535 41 185.992 55.1281 185.992 72.5644C185.992 79.4084 183.296 85.7364 178.726 90.9112C179.015 94.6291 180.463 97.9373 181.986 100.456C182.824 101.852 183.677 102.975 184.301 103.734C184.621 104.114 184.865 104.402 185.048 104.599C185.139 104.69 185.2 104.766 185.246 104.812L185.291 104.857C185.992 105.555 186.19 106.587 185.809 107.498C185.428 108.408 184.545 109 183.555 109C179.183 109 174.781 107.649 171.125 106.071C167.637 104.554 164.666 102.748 162.853 101.428C158.009 103.173 152.647 104.144 146.996 104.144V104.129ZM166.494 67.7083C165.201 67.7083 163.961 68.2199 163.047 69.1306C162.133 70.0413 161.62 71.2765 161.62 72.5644C161.62 73.8523 162.133 75.0874 163.047 75.9981C163.961 76.9088 165.201 77.4204 166.494 77.4204C167.787 77.4204 169.027 76.9088 169.941 75.9981C170.855 75.0874 171.369 73.8523 171.369 72.5644C171.369 71.2765 170.855 70.0413 169.941 69.1306C169.027 68.2199 167.787 67.7083 166.494 67.7083ZM146.996 67.7083C145.703 67.7083 144.463 68.2199 143.549 69.1306C142.635 70.0413 142.122 71.2765 142.122 72.5644C142.122 73.8523 142.635 75.0874 143.549 75.9981C144.463 76.9088 145.703 77.4204 146.996 77.4204C148.289 77.4204 149.529 76.9088 150.443 75.9981C151.357 75.0874 151.871 73.8523 151.871 72.5644C151.871 71.2765 151.357 70.0413 150.443 69.1306C149.529 68.2199 148.289 67.7083 146.996 67.7083ZM132.373 72.5644C132.373 71.2765 131.859 70.0413 130.945 69.1306C130.031 68.2199 128.791 67.7083 127.498 67.7083C126.205 67.7083 124.965 68.2199 124.051 69.1306C123.137 70.0413 122.624 71.2765 122.624 72.5644C122.624 73.8523 123.137 75.0874 124.051 75.9981C124.965 76.9088 126.205 77.4204 127.498 77.4204C128.791 77.4204 130.031 76.9088 130.945 75.9981C131.859 75.0874 132.373 73.8523 132.373 72.5644Z" fill="white"/>
<rect x="73" y="1" width="148" height="148" rx="74" stroke="white" stroke-width="2"/>
<path d="M113.5 680.125C113.5 690.277 121.531 698.5 131.446 698.5H132.643C135.29 698.5 137.429 696.31 137.429 693.6C137.429 690.89 135.29 688.7 132.643 688.7H131.446C126.825 688.7 123.071 684.857 123.071 680.125V678.9H132.643C137.922 678.9 142.214 674.505 142.214 669.1V659.3C142.214 653.895 137.922 649.5 132.643 649.5H123.071C117.792 649.5 113.5 653.895 113.5 659.3V664.2V669.1V680.125ZM151.786 680.125C151.786 690.277 159.817 698.5 169.732 698.5H170.929C173.576 698.5 175.714 696.31 175.714 693.6C175.714 690.89 173.576 688.7 170.929 688.7H169.732C165.111 688.7 161.357 684.857 161.357 680.125V678.9H170.929C176.208 678.9 180.5 674.505 180.5 669.1V659.3C180.5 653.895 176.208 649.5 170.929 649.5H161.357C156.078 649.5 151.786 653.895 151.786 659.3V664.2V669.1V680.125Z" fill="white"/>
<rect x="221" y="748" width="148" height="148" rx="74" transform="rotate(180 221 748)" stroke="white" stroke-width="2"/>
<rect y="232" width="300" height="300" rx="150" fill="url(#paint0_linear_522_133)"/>
<path d="M118.719 319C118.719 310.596 122.014 302.536 127.881 296.594C133.747 290.651 141.704 287.312 150 287.312C158.296 287.312 166.253 290.651 172.119 296.594C177.986 302.536 181.281 310.596 181.281 319C181.281 327.404 177.986 335.464 172.119 341.406C166.253 347.349 158.296 350.688 150 350.688C141.704 350.688 133.747 347.349 127.881 341.406C122.014 335.464 118.719 327.404 118.719 319ZM188.5 319C188.5 308.657 184.444 298.737 177.224 291.423C170.003 284.109 160.211 280 150 280C139.789 280 129.997 284.109 122.776 291.423C115.556 298.737 111.5 308.657 111.5 319C111.5 329.343 115.556 339.263 122.776 346.577C129.997 353.891 139.789 358 150 358C160.211 358 170.003 353.891 177.224 346.577C184.444 339.263 188.5 329.343 188.5 319ZM168.844 327.821C169.476 325.749 167.776 323.875 165.641 323.875H133.683C131.547 323.875 129.848 325.764 130.479 327.821C133.006 336.123 140.646 342.156 149.669 342.156C158.693 342.156 166.332 336.123 168.844 327.821ZM166.784 309.25C166.784 307.957 166.277 306.717 165.374 305.803C164.472 304.889 163.247 304.375 161.971 304.375C160.695 304.375 159.471 304.889 158.568 305.803C157.666 306.717 157.159 307.957 157.159 309.25C157.159 310.543 157.666 311.783 158.568 312.697C159.471 313.611 160.695 314.125 161.971 314.125C163.247 314.125 164.472 313.611 165.374 312.697C166.277 311.783 166.784 310.543 166.784 309.25ZM137.909 304.375C136.632 304.375 135.408 304.889 134.506 305.803C133.603 306.717 133.096 307.957 133.096 309.25C133.096 310.543 133.603 311.783 134.506 312.697C135.408 313.611 136.632 314.125 137.909 314.125C139.185 314.125 140.409 313.611 141.312 312.697C142.214 311.783 142.721 310.543 142.721 309.25C142.721 307.957 142.214 306.717 141.312 305.803C140.409 304.889 139.185 304.375 137.909 304.375Z" fill="white"/>
<path d="M78.8153 404.044C79.0499 404.044 79.2579 404.135 79.4393 404.316L81.1353 406.156C80.1966 407.319 79.0393 408.209 77.6632 408.828C76.2979 409.447 74.6553 409.756 72.7353 409.756C71.0179 409.756 69.4713 409.463 68.0953 408.876C66.7299 408.289 65.5619 407.473 64.5912 406.428C63.6206 405.383 62.8739 404.135 62.3512 402.684C61.8392 401.233 61.5832 399.649 61.5832 397.932C61.5832 396.193 61.8606 394.604 62.4152 393.164C62.9699 391.713 63.7486 390.465 64.7512 389.42C65.7646 388.375 66.9699 387.564 68.3673 386.988C69.7646 386.401 71.3113 386.108 73.0072 386.108C74.6926 386.108 76.1859 386.385 77.4873 386.94C78.7993 387.495 79.9139 388.22 80.8313 389.116L79.3913 391.116C79.3059 391.244 79.1939 391.356 79.0553 391.452C78.9273 391.548 78.7459 391.596 78.5113 391.596C78.3513 391.596 78.1859 391.553 78.0153 391.468C77.8446 391.372 77.6579 391.26 77.4552 391.132C77.2526 390.993 77.0179 390.844 76.7513 390.684C76.4846 390.524 76.1753 390.38 75.8233 390.252C75.4713 390.113 75.0606 390.001 74.5913 389.916C74.1326 389.82 73.5993 389.772 72.9913 389.772C71.9566 389.772 71.0073 389.959 70.1433 390.332C69.2899 390.695 68.5539 391.228 67.9353 391.932C67.3166 392.625 66.8366 393.479 66.4952 394.492C66.1539 395.495 65.9833 396.641 65.9833 397.932C65.9833 399.233 66.1646 400.391 66.5272 401.404C66.9006 402.417 67.4019 403.271 68.0312 403.964C68.6606 404.657 69.4019 405.191 70.2552 405.564C71.1086 405.927 72.0259 406.108 73.0072 406.108C73.5939 406.108 74.1219 406.076 74.5913 406.012C75.0713 405.948 75.5086 405.847 75.9033 405.708C76.3086 405.569 76.6873 405.393 77.0393 405.18C77.4019 404.956 77.7593 404.684 78.1112 404.364C78.2179 404.268 78.3299 404.193 78.4473 404.14C78.5646 404.076 78.6873 404.044 78.8153 404.044ZM93.8755 406.028C94.7075 406.028 95.4488 405.889 96.0995 405.612C96.7608 405.335 97.3155 404.945 97.7635 404.444C98.2115 403.943 98.5528 403.335 98.7875 402.62C99.0328 401.905 99.1555 401.105 99.1555 400.22V386.364H103.459V400.22C103.459 401.596 103.235 402.871 102.788 404.044C102.35 405.207 101.716 406.215 100.884 407.068C100.062 407.911 99.0595 408.572 97.8755 409.052C96.6915 409.521 95.3582 409.756 93.8755 409.756C92.3822 409.756 91.0435 409.521 89.8595 409.052C88.6755 408.572 87.6675 407.911 86.8355 407.068C86.0142 406.215 85.3795 405.207 84.9315 404.044C84.4942 402.871 84.2755 401.596 84.2755 400.22V386.364H88.5795V400.204C88.5795 401.089 88.6968 401.889 88.9315 402.604C89.1768 403.319 89.5235 403.932 89.9715 404.444C90.4302 404.945 90.9848 405.335 91.6355 405.612C92.2968 405.889 93.0435 406.028 93.8755 406.028ZM121.113 390.572C120.985 390.796 120.847 390.961 120.697 391.068C120.559 391.164 120.383 391.212 120.169 391.212C119.945 391.212 119.7 391.132 119.433 390.972C119.177 390.801 118.868 390.615 118.505 390.412C118.143 390.209 117.716 390.028 117.225 389.868C116.745 389.697 116.175 389.612 115.513 389.612C114.916 389.612 114.393 389.687 113.945 389.836C113.497 389.975 113.119 390.172 112.809 390.428C112.511 390.684 112.287 390.993 112.137 391.356C111.988 391.708 111.913 392.097 111.913 392.524C111.913 393.068 112.063 393.521 112.361 393.884C112.671 394.247 113.076 394.556 113.577 394.812C114.079 395.068 114.649 395.297 115.289 395.5C115.929 395.703 116.585 395.921 117.257 396.156C117.929 396.38 118.585 396.647 119.225 396.956C119.865 397.255 120.436 397.639 120.937 398.108C121.439 398.567 121.839 399.132 122.137 399.804C122.447 400.476 122.601 401.292 122.601 402.252C122.601 403.297 122.42 404.279 122.057 405.196C121.705 406.103 121.183 406.897 120.489 407.58C119.807 408.252 118.969 408.785 117.977 409.18C116.985 409.564 115.849 409.756 114.569 409.756C113.833 409.756 113.108 409.681 112.393 409.532C111.679 409.393 110.991 409.191 110.329 408.924C109.679 408.657 109.065 408.337 108.489 407.964C107.913 407.591 107.401 407.175 106.953 406.716L108.217 404.652C108.324 404.503 108.463 404.38 108.633 404.284C108.804 404.177 108.985 404.124 109.177 404.124C109.444 404.124 109.732 404.236 110.041 404.46C110.351 404.673 110.719 404.913 111.145 405.18C111.572 405.447 112.068 405.692 112.633 405.916C113.209 406.129 113.897 406.236 114.697 406.236C115.924 406.236 116.873 405.948 117.545 405.372C118.217 404.785 118.553 403.948 118.553 402.86C118.553 402.252 118.399 401.756 118.089 401.372C117.791 400.988 117.391 400.668 116.889 400.412C116.388 400.145 115.817 399.921 115.177 399.74C114.537 399.559 113.887 399.361 113.225 399.148C112.564 398.935 111.913 398.679 111.273 398.38C110.633 398.081 110.063 397.692 109.561 397.212C109.06 396.732 108.655 396.135 108.345 395.42C108.047 394.695 107.897 393.804 107.897 392.748C107.897 391.905 108.063 391.084 108.393 390.284C108.735 389.484 109.225 388.775 109.865 388.156C110.505 387.537 111.295 387.041 112.233 386.668C113.172 386.295 114.249 386.108 115.465 386.108C116.831 386.108 118.089 386.321 119.241 386.748C120.393 387.175 121.375 387.772 122.185 388.54L121.113 390.572ZM142.996 389.9H136.02V409.5H131.716V389.9H124.74V386.364H142.996V389.9ZM167.786 397.932C167.786 399.628 167.504 401.201 166.938 402.652C166.384 404.092 165.594 405.34 164.57 406.396C163.546 407.452 162.314 408.279 160.874 408.876C159.434 409.463 157.834 409.756 156.074 409.756C154.325 409.756 152.73 409.463 151.29 408.876C149.85 408.279 148.613 407.452 147.578 406.396C146.554 405.34 145.76 404.092 145.194 402.652C144.629 401.201 144.346 399.628 144.346 397.932C144.346 396.236 144.629 394.668 145.194 393.228C145.76 391.777 146.554 390.524 147.578 389.468C148.613 388.412 149.85 387.591 151.29 387.004C152.73 386.407 154.325 386.108 156.074 386.108C157.248 386.108 158.352 386.247 159.386 386.524C160.421 386.791 161.37 387.175 162.234 387.676C163.098 388.167 163.872 388.769 164.554 389.484C165.248 390.188 165.834 390.977 166.314 391.852C166.794 392.727 167.157 393.676 167.402 394.7C167.658 395.724 167.786 396.801 167.786 397.932ZM163.386 397.932C163.386 396.663 163.216 395.527 162.874 394.524C162.533 393.511 162.048 392.652 161.418 391.948C160.789 391.244 160.021 390.705 159.114 390.332C158.218 389.959 157.205 389.772 156.074 389.772C154.944 389.772 153.925 389.959 153.018 390.332C152.122 390.705 151.354 391.244 150.714 391.948C150.085 392.652 149.6 393.511 149.258 394.524C148.917 395.527 148.746 396.663 148.746 397.932C148.746 399.201 148.917 400.343 149.258 401.356C149.6 402.359 150.085 403.212 150.714 403.916C151.354 404.609 152.122 405.143 153.018 405.516C153.925 405.889 154.944 406.076 156.074 406.076C157.205 406.076 158.218 405.889 159.114 405.516C160.021 405.143 160.789 404.609 161.418 403.916C162.048 403.212 162.533 402.359 162.874 401.356C163.216 400.343 163.386 399.201 163.386 397.932ZM197.134 386.364V409.5H193.342V394.556C193.342 393.959 193.374 393.313 193.438 392.62L186.446 405.756C186.115 406.385 185.609 406.7 184.926 406.7H184.318C183.635 406.7 183.129 406.385 182.798 405.756L175.726 392.572C175.758 392.924 175.785 393.271 175.806 393.612C175.827 393.953 175.838 394.268 175.838 394.556V409.5H172.046V386.364H175.294C175.486 386.364 175.651 386.369 175.79 386.38C175.929 386.391 176.051 386.417 176.158 386.46C176.275 386.503 176.377 386.572 176.462 386.668C176.558 386.764 176.649 386.892 176.734 387.052L183.662 399.9C183.843 400.241 184.009 400.593 184.158 400.956C184.318 401.319 184.473 401.692 184.622 402.076C184.771 401.681 184.926 401.303 185.086 400.94C185.246 400.567 185.417 400.209 185.598 399.868L192.43 387.052C192.515 386.892 192.606 386.764 192.702 386.668C192.798 386.572 192.899 386.503 193.006 386.46C193.123 386.417 193.251 386.391 193.39 386.38C193.529 386.369 193.694 386.364 193.886 386.364H197.134ZM207.096 389.788V396.204H215.192V399.516H207.096V406.06H217.368V409.5H202.776V386.364H217.368V389.788H207.096ZM228.654 397.372C229.465 397.372 230.169 397.271 230.766 397.068C231.374 396.865 231.87 396.588 232.254 396.236C232.649 395.873 232.942 395.447 233.134 394.956C233.326 394.465 233.422 393.927 233.422 393.34C233.422 392.167 233.033 391.265 232.254 390.636C231.486 390.007 230.308 389.692 228.718 389.692H225.966V397.372H228.654ZM239.726 409.5H235.838C235.102 409.5 234.569 409.212 234.238 408.636L229.374 401.228C229.193 400.951 228.99 400.753 228.766 400.636C228.553 400.519 228.233 400.46 227.806 400.46H225.966V409.5H221.662V386.364H228.718C230.286 386.364 231.63 386.529 232.75 386.86C233.881 387.18 234.804 387.633 235.518 388.22C236.244 388.807 236.777 389.511 237.118 390.332C237.46 391.143 237.63 392.039 237.63 393.02C237.63 393.799 237.513 394.535 237.278 395.228C237.054 395.921 236.724 396.551 236.286 397.116C235.86 397.681 235.326 398.177 234.686 398.604C234.057 399.031 233.337 399.367 232.526 399.612C232.804 399.772 233.06 399.964 233.294 400.188C233.529 400.401 233.742 400.657 233.934 400.956L239.726 409.5ZM59.3454 433.788V440.204H67.4414V443.516H59.3454V450.06H69.6174V453.5H55.0254V430.364H69.6174V433.788H59.3454ZM92.7116 453.5H88.4236C88.125 453.5 87.885 453.425 87.7036 453.276C87.533 453.127 87.3943 452.956 87.2876 452.764L81.9276 443.884C81.8423 444.151 81.741 444.38 81.6236 444.572L76.4876 452.764C76.3596 452.945 76.2103 453.116 76.0396 453.276C75.8796 453.425 75.6663 453.5 75.3996 453.5H71.3836L79.0636 441.596L71.6876 430.364H75.9756C76.2743 430.364 76.4876 430.407 76.6156 430.492C76.7543 430.567 76.8823 430.695 76.9996 430.876L82.2636 439.356C82.3703 439.089 82.4983 438.823 82.6476 438.556L87.4796 430.956C87.597 430.753 87.725 430.604 87.8636 430.508C88.0023 430.412 88.1783 430.364 88.3916 430.364H92.5036L85.0636 441.42L92.7116 453.5ZM103.38 441.996C104.17 441.996 104.858 441.9 105.444 441.708C106.031 441.505 106.516 441.223 106.9 440.86C107.295 440.487 107.588 440.039 107.78 439.516C107.972 438.983 108.068 438.391 108.068 437.74C108.068 437.121 107.972 436.561 107.78 436.06C107.588 435.559 107.3 435.132 106.916 434.78C106.532 434.428 106.047 434.161 105.46 433.98C104.874 433.788 104.18 433.692 103.38 433.692H100.164V441.996H103.38ZM103.38 430.364C104.927 430.364 106.266 430.545 107.396 430.908C108.527 431.271 109.46 431.777 110.196 432.428C110.932 433.079 111.476 433.857 111.828 434.764C112.191 435.671 112.372 436.663 112.372 437.74C112.372 438.86 112.186 439.889 111.812 440.828C111.439 441.756 110.879 442.556 110.132 443.228C109.386 443.9 108.447 444.423 107.316 444.796C106.196 445.169 104.884 445.356 103.38 445.356H100.164V453.5H95.8604V430.364H103.38ZM120.473 433.788V440.204H128.569V443.516H120.473V450.06H130.745V453.5H116.153V430.364H130.745V433.788H120.473ZM142.031 441.372C142.842 441.372 143.546 441.271 144.143 441.068C144.751 440.865 145.247 440.588 145.631 440.236C146.026 439.873 146.319 439.447 146.511 438.956C146.703 438.465 146.799 437.927 146.799 437.34C146.799 436.167 146.41 435.265 145.631 434.636C144.863 434.007 143.684 433.692 142.095 433.692H139.343V441.372H142.031ZM153.103 453.5H149.215C148.479 453.5 147.946 453.212 147.615 452.636L142.751 445.228C142.57 444.951 142.367 444.753 142.143 444.636C141.93 444.519 141.61 444.46 141.183 444.46H139.343V453.5H135.039V430.364H142.095C143.663 430.364 145.007 430.529 146.127 430.86C147.258 431.18 148.18 431.633 148.895 432.22C149.62 432.807 150.154 433.511 150.495 434.332C150.836 435.143 151.007 436.039 151.007 437.02C151.007 437.799 150.89 438.535 150.655 439.228C150.431 439.921 150.1 440.551 149.663 441.116C149.236 441.681 148.703 442.177 148.063 442.604C147.434 443.031 146.714 443.367 145.903 443.612C146.18 443.772 146.436 443.964 146.671 444.188C146.906 444.401 147.119 444.657 147.311 444.956L153.103 453.5ZM160.402 453.5H156.082V430.364H160.402V453.5ZM170.382 433.788V440.204H178.478V443.516H170.382V450.06H180.654V453.5H166.062V430.364H180.654V433.788H170.382ZM204.452 430.364V453.5H202.244C201.903 453.5 201.615 453.447 201.38 453.34C201.156 453.223 200.937 453.031 200.724 452.764L188.644 437.34C188.708 438.044 188.74 438.695 188.74 439.292V453.5H184.948V430.364H187.204C187.385 430.364 187.54 430.375 187.668 430.396C187.807 430.407 187.924 430.439 188.02 430.492C188.127 430.535 188.228 430.604 188.324 430.7C188.42 430.785 188.527 430.903 188.644 431.052L200.772 446.54C200.74 446.167 200.713 445.799 200.692 445.436C200.671 445.073 200.66 444.737 200.66 444.428V430.364H204.452ZM225.972 448.044C226.207 448.044 226.415 448.135 226.596 448.316L228.292 450.156C227.353 451.319 226.196 452.209 224.82 452.828C223.455 453.447 221.812 453.756 219.892 453.756C218.175 453.756 216.628 453.463 215.252 452.876C213.887 452.289 212.719 451.473 211.748 450.428C210.777 449.383 210.031 448.135 209.508 446.684C208.996 445.233 208.74 443.649 208.74 441.932C208.74 440.193 209.017 438.604 209.572 437.164C210.127 435.713 210.905 434.465 211.908 433.42C212.921 432.375 214.127 431.564 215.524 430.988C216.921 430.401 218.468 430.108 220.164 430.108C221.849 430.108 223.343 430.385 224.644 430.94C225.956 431.495 227.071 432.22 227.988 433.116L226.548 435.116C226.463 435.244 226.351 435.356 226.212 435.452C226.084 435.548 225.903 435.596 225.668 435.596C225.508 435.596 225.343 435.553 225.172 435.468C225.001 435.372 224.815 435.26 224.612 435.132C224.409 434.993 224.175 434.844 223.908 434.684C223.641 434.524 223.332 434.38 222.98 434.252C222.628 434.113 222.217 434.001 221.748 433.916C221.289 433.82 220.756 433.772 220.148 433.772C219.113 433.772 218.164 433.959 217.3 434.332C216.447 434.695 215.711 435.228 215.092 435.932C214.473 436.625 213.993 437.479 213.652 438.492C213.311 439.495 213.14 440.641 213.14 441.932C213.14 443.233 213.321 444.391 213.684 445.404C214.057 446.417 214.559 447.271 215.188 447.964C215.817 448.657 216.559 449.191 217.412 449.564C218.265 449.927 219.183 450.108 220.164 450.108C220.751 450.108 221.279 450.076 221.748 450.012C222.228 449.948 222.665 449.847 223.06 449.708C223.465 449.569 223.844 449.393 224.196 449.18C224.559 448.956 224.916 448.684 225.268 448.364C225.375 448.268 225.487 448.193 225.604 448.14C225.721 448.076 225.844 448.044 225.972 448.044ZM236.04 433.788V440.204H244.136V443.516H236.04V450.06H246.312V453.5H231.72V430.364H246.312V433.788H236.04Z" fill="white"/>
<defs>
<linearGradient id="paint0_linear_522_133" x1="150" y1="232" x2="150" y2="532" gradientUnits="userSpaceOnUse">
<stop stop-color="#0D8CBD" stop-opacity="0.6"/>
<stop offset="1" stop-color="#0097D0" stop-opacity="0.7"/>
</linearGradient>
</defs>
</svg>
