<svg width="1200" height="1200" viewBox="0 0 1200 1200" fill="none" xmlns="http://www.w3.org/2000/svg">
<rect width="1200" height="1200" fill="white"/>
<path d="M384.66 350.864L383.854 351.887L382.42 353.81C381.496 355.075 380.692 356.279 379.816 357.52C378.197 359.963 376.685 362.382 375.246 364.823C372.368 369.706 369.828 374.657 367.531 379.666C362.923 389.719 359.26 400.074 356.54 410.61C353.795 421.159 351.92 431.866 350.878 442.598C349.871 453.342 349.708 464.076 350.184 474.754C350.599 485.432 352.085 495.953 353.834 506.338C354.889 511.498 355.788 516.708 357.142 521.743L359.049 529.377L361.255 536.886C364.957 549.176 369.427 561.131 374.482 572.753L352.428 530.001C349.486 520.596 346.812 508.595 344.776 494.657C341.463 473.306 339.575 447.549 337.78 419.56C336.339 396.667 334.863 376.645 334.456 359.985C334.036 343.362 335.409 330.214 337.946 322.26C335.432 330.141 329.136 341.915 324.422 358.638C319.706 375.24 316.04 396.58 317.57 420.762C319.324 448.378 325.73 473.078 333.377 493.073L285.83 400.908C284.619 394.798 284.205 387.001 284.682 378.229C285.375 364.643 287.785 348.744 289.353 331.096C290.613 316.671 290.144 303.654 289.522 292.809C288.839 281.965 288.415 273.385 288.999 268.168C288.38 273.433 283.871 280.857 279.555 291.003C275.153 301.102 270.534 313.952 269.189 329.331C267.547 347.776 270.109 365.145 274.433 378.874L256.223 343.575C250.295 326.031 242.881 298.787 228.243 270.414C212.568 240.028 191.868 221.943 186.329 211.207C191.868 221.943 194.607 249.293 210.283 279.679C224.92 308.053 242.8 329.898 253.685 344.885L273.514 383.323C260.571 363.876 242.575 342.393 219.137 323.173C198.747 306.688 178.035 296.043 160.591 289.325C143.098 282.511 128.889 279.828 120.171 277.681C129.034 279.875 141.352 287.295 155.727 298.175C170.187 309.042 186.967 323.172 206.406 338.873C230.028 358.272 251.32 376.446 267.927 393.062C278.878 403.888 287.58 414.115 293.912 422.803L324.521 482.137C319.936 475.188 315.135 468.41 310.145 461.852C298.902 447.111 286.743 433.297 273.74 420.435C260.773 407.524 247.093 395.406 232.639 384.081C225.43 378.394 217.924 373.012 210.214 367.766C202.277 362.606 194.414 357.591 185.013 352.944C195.978 358.331 201.526 366.968 205.272 376.111C207.007 380.768 208.238 385.503 209.07 390.232C209.891 394.997 210.361 399.67 210.791 404.03C211.331 410.366 213.706 414.147 217.172 416.515C220.566 418.982 224.957 420.145 229.381 421.14C238.087 423.263 246.991 424.889 246.282 434.388C245.668 443.777 243.861 453.205 248.286 460.783C250.457 464.639 254.094 468.103 260.327 471.077C266.359 474.246 275.106 476.803 287.174 479.801C294.862 481.539 301.781 484.371 308.388 487.304C314.875 490.299 320.49 493.835 325.388 496.982C330.131 500.239 333.823 503.341 336.443 505.539C336.552 505.635 336.65 505.706 336.759 505.801L371.77 573.666C370.752 572.28 341.201 533.335 303.591 522.791C268.243 512.869 242.326 517.289 234.801 517.044C242.397 517.252 297.42 541.448 315.768 550.097C344.084 563.433 376.035 581.934 391.81 612.512C391.81 612.512 391.822 612.536 391.835 612.559L439.603 705.156L442.166 703.834L381.824 586.866C380.87 583.9 380.217 580.93 379.865 577.955C379.348 572.487 379.545 567.167 380.49 561.947C381.483 556.701 382.974 551.715 384.757 547.002C386.672 542.251 388.796 537.788 390.841 533.699C393.91 527.777 394.006 523.024 392.527 518.69C391.23 514.353 388.082 510.485 385.272 506.625C383.825 504.701 382.342 502.766 381.028 500.865C379.761 498.939 378.736 497.011 378.048 495.09C376.589 491.261 376.876 487.411 380.156 483.777C386.74 476.497 394.291 470.447 396.383 461.631C396.982 459.441 397.192 457.027 397.012 454.328C396.966 451.652 396.3 448.657 395.388 445.244C393.443 438.359 389.887 429.877 384.859 417.664C378.71 402.511 377.561 385.414 379.285 372.418C380.852 359.352 384.86 350.488 385.8 349.487L384.684 350.852L384.66 350.864Z" fill="url(#paint0_linear_77_6820)"/>
<path d="M874.227 459.541L874.844 460.375L875.926 461.927C876.632 462.933 877.231 463.911 877.89 464.891C879.101 466.823 880.239 468.776 881.317 470.726C883.472 474.627 885.36 478.566 887.052 482.58C890.449 490.587 893.09 498.791 895.014 507.123C896.938 515.456 898.169 523.929 898.737 532.375C899.292 540.845 899.185 549.287 898.562 557.661C898 566.037 896.599 574.258 894.997 582.398C894.035 586.426 893.227 590.508 892.052 594.418L890.372 600.359L888.466 606.207C885.273 615.779 881.524 625.075 877.279 634.098L895.556 601.005C898.09 593.687 900.443 584.298 902.364 573.407C905.442 556.686 907.505 536.509 909.519 514.58C911.152 496.63 912.777 480.924 913.45 467.834C914.133 454.781 913.367 444.409 911.552 438.108C913.346 444.335 918.036 453.733 921.361 466.998C924.691 480.142 927.084 496.989 925.349 515.96C923.357 537.624 917.774 556.874 911.319 572.407L950.728 501.052C951.83 496.27 952.311 490.159 952.126 483.249C951.903 472.561 950.347 459.996 949.52 446.109C948.843 434.738 949.517 424.545 950.242 416.043C951.027 407.543 951.546 400.806 951.196 396.701C951.556 400.843 954.931 406.773 958.108 414.842C961.335 422.878 964.666 433.065 965.397 445.174C966.293 459.716 963.875 473.289 960.166 483.963L975.262 456.629C980.313 442.969 986.737 421.751 998.873 399.776C1011.87 376.242 1028.54 362.5 1033.13 354.192C1028.54 362.5 1025.79 383.928 1012.79 407.462C1000.65 429.437 986.115 446.174 977.243 457.724L960.805 487.488C971.399 472.485 986.035 456.018 1004.86 441.434C1021.25 428.924 1037.77 421.04 1051.61 416.149C1065.52 411.2 1076.74 409.388 1083.64 407.931C1076.64 409.457 1066.8 415.017 1055.24 423.235C1043.62 431.451 1030.13 442.173 1014.53 454.076C995.544 468.786 978.413 482.581 964.994 495.285C956.149 503.553 949.083 511.387 943.923 518.056L918.554 563.989C922.309 558.639 926.24 553.417 930.297 548.357C939.449 537.024 949.318 526.457 959.832 516.615C970.323 506.761 981.331 497.531 992.927 488.964C998.713 484.675 1004.72 480.599 1010.91 476.627C1017.24 472.758 1023.57 468.985 1031.05 465.536C1022.32 469.525 1017.75 476.181 1014.62 483.295C1013.14 486.915 1012.09 490.613 1011.31 494.31C1010.57 498.033 1010.06 501.693 1009.65 505.103C1009.1 510.064 1007.12 512.977 1004.37 514.783C1001.65 516.64 998.18 517.464 994.666 518.141C987.79 519.611 980.738 520.676 981.092 528.172C981.378 535.569 982.591 543.015 978.923 548.876C977.124 551.855 974.216 554.501 969.216 556.699C964.402 559.061 957.464 560.866 947.933 562.964C941.865 564.141 936.351 566.21 931.111 568.398C925.94 570.625 921.465 573.267 917.544 575.629C913.74 578.057 910.772 580.422 908.676 582.098C908.577 582.167 908.514 582.225 908.415 582.293L879.396 634.836C880.237 633.76 904.305 603.835 934.094 596.383C962.066 589.375 982.333 593.422 988.28 593.411C982.31 593.409 938.537 611.189 923.932 617.569C901.379 627.416 875.887 641.245 862.812 664.92C862.812 664.92 862.812 664.92 862.799 664.944L823.208 736.629L821.226 735.535L871.233 644.99C872.04 642.694 872.618 640.364 872.956 638.025C873.47 633.75 873.45 629.549 872.823 625.445C872.149 621.315 871.107 617.351 869.79 613.604C868.402 609.819 866.81 606.291 865.316 603.032C863.026 598.318 863.073 594.554 864.309 591.202C865.414 587.808 867.996 584.86 870.267 581.863C871.449 580.39 872.668 578.908 873.731 577.43C874.769 575.94 875.614 574.466 876.194 572.969C877.439 569.991 877.299 566.956 874.79 564.03C869.772 558.179 863.981 553.225 862.518 546.287C862.096 544.544 861.969 542.656 862.189 540.529C862.3 538.434 862.891 536.081 863.652 533.421C865.345 528.072 868.319 521.459 872.534 511.989C877.712 500.217 878.988 486.814 877.927 476.586C876.977 466.266 874.035 459.219 873.332 458.431L874.18 459.515L874.227 459.541Z" fill="url(#paint1_linear_77_6820)"/>
<g filter="url(#filter0_d_77_6820)">
<path d="M503.607 365.566H302.413C286.517 365.566 273.631 378.453 273.631 394.348V595.543C273.631 611.438 286.517 624.324 302.413 624.324H503.607C519.503 624.324 532.389 611.438 532.389 595.543V394.348C532.389 378.453 519.503 365.566 503.607 365.566Z" fill="white"/>
</g>
<path d="M462.905 565.412H343.106V571.328H462.905V565.412Z" fill="#ABDAF7"/>
<path d="M445.941 584.057H360.076V589.973H445.941V584.057Z" fill="#ABDAF7"/>
<g filter="url(#filter1_d_77_6820)">
<path d="M895.187 455.306H608.859C590.134 455.306 574.955 470.485 574.955 489.209V837.08C574.955 855.805 590.134 870.984 608.859 870.984H895.187C913.911 870.984 929.091 855.805 929.091 837.08V489.209C929.091 470.485 913.911 455.306 895.187 455.306Z" fill="white"/>
</g>
<path d="M792.328 748.201H628.889V758.273H792.328V748.201Z" fill="#ABDAF7"/>
<path d="M761.054 796.555H628.889V806.626H761.054V796.555Z" fill="#ABDAF7"/>
<path d="M706.37 772.372H628.889V782.444H706.37V772.372Z" fill="#96BFE6"/>
<path d="M835.082 496.755V501.842H865.032V529.952H870.119V496.755H835.082ZM631.7 529.952H636.787V501.842H666.737V496.755H631.7V529.952ZM865.032 674.99V703.11H835.082V708.197H870.119V674.99H865.032ZM636.787 674.99H631.7V708.197H666.737V703.11H636.787V674.99Z" fill="#17A9E1"/>
<path d="M854.265 807.364C837.747 807.364 824.311 793.927 824.311 777.409C824.311 760.892 837.747 747.455 854.265 747.455C870.783 747.455 884.219 760.892 884.219 777.409C884.219 793.927 870.783 807.364 854.265 807.364ZM854.265 753.259C840.946 753.259 830.109 764.095 830.109 777.414C830.109 790.733 840.946 801.57 854.265 801.57C867.584 801.57 878.421 790.733 878.421 777.414C878.421 764.095 867.584 753.259 854.265 753.259Z" fill="#ABDAF7"/>
<path d="M852.356 789.206L838.747 775.598L842.843 771.496L852.356 781.009L865.68 767.675L869.781 771.776L852.356 789.206Z" fill="#ABDAF7"/>
<g filter="url(#filter2_d_77_6820)">
<path d="M581.467 269.742H724.253C737.313 269.742 747.914 280.343 747.914 293.403V417.297C747.914 430.356 737.313 440.957 724.253 440.957H581.467C568.408 440.957 557.807 430.356 557.807 417.297V293.403C557.807 280.343 568.408 269.742 581.467 269.742Z" fill="white"/>
</g>
<path d="M698.042 300.729V303.461H714.118V318.551H716.85V300.733H698.042V300.729ZM588.859 318.546H591.592V303.456H607.668V300.724H588.859V318.541V318.546ZM714.118 396.405V411.5H698.042V414.233H716.85V396.405H714.118ZM591.592 396.405H588.859V414.233H607.668V411.5H591.592V396.405Z" fill="#17A9E1"/>
<g filter="url(#filter3_d_77_6820)">
<path d="M463.367 392.443V396.088H484.844V416.241H488.489V392.438H463.367V392.443ZM317.534 416.246H321.179V396.093H342.657V392.448H317.534V416.251V416.246ZM484.84 520.243V540.405H463.362V544.05H488.485V520.243H484.84ZM321.179 520.243H317.534V544.05H342.657V540.405H321.179V520.243Z" fill="#FFC182"/>
<path d="M485.568 396.088V395.365H484.844H464.091V393.162H487.766V415.518H485.568V396.088ZM318.258 415.523V393.172H341.933V395.37H321.179H320.456V396.093V415.523H318.258ZM484.84 541.129H485.563V540.405V520.966H487.761V543.327H464.086V541.129H484.84ZM320.456 540.405V541.129H321.179H341.933V543.327H318.258V520.966H320.456V540.405Z" stroke="#FFC182" stroke-width="1.44693"/>
</g>
<path d="M407.374 321.208C407.374 321.208 394.688 313.069 383.248 327.536C371.808 342.003 375.924 355.911 378.313 368.902C380.682 381.784 392.216 411.258 387.315 424.243C382.414 437.229 388.679 443.989 388.679 443.989C388.679 443.989 428.018 454.06 423.431 394.892C418.844 335.724 407.37 321.208 407.37 321.208H407.374Z" fill="#163342"/>
<path d="M431.328 452.35C431.328 452.35 442.847 482.873 453.728 511.322H483.245C478.732 497.394 474.16 482.55 473.655 479.822C472.693 474.524 472.252 458.821 466.208 447.807C460.154 436.794 445.746 432.438 445.746 432.438C421.968 433.512 431.328 452.355 431.328 452.355V452.35Z" fill="#1BB9F5"/>
<path d="M357.324 482.153C357.324 482.153 361.921 497.12 366.365 511.322H462.68C463.087 510.076 463.587 508.762 464.191 507.368C471.24 491.042 474.669 477.139 471.24 467.867C467.811 458.595 448.272 433.203 443.224 432.198C438.185 431.192 423.679 424.339 423.679 424.339C414.196 422.926 400.72 423.627 396.079 425.246C391.448 426.855 365.629 429.475 356.161 436.829C345.256 445.301 357.324 482.158 357.324 482.158V482.153Z" fill="#EDDAD3"/>
<path d="M428.315 456.685L437.136 446.358L429.478 419.176C429.478 419.176 426.907 434.315 428.315 456.685Z" fill="#D6C5BE"/>
<path d="M430.607 407.587C430.607 407.587 427.712 434.211 428.316 442.874C428.316 442.874 413.235 457.984 396.085 425.233C396.085 425.233 403.301 411.733 397.871 393.341C392.44 374.95 430.607 407.583 430.607 407.583V407.587Z" fill="#EEA886"/>
<path d="M428.318 442.874V456.684L410.967 443.713L428.318 442.874Z" fill="#EEA886"/>
<path d="M428.316 456.676L421.114 447.758L396.84 423.567L388.991 431.127L428.316 456.676Z" fill="#D6C5BE"/>
<path d="M347.211 457.729C347.211 457.729 351.371 473.157 362.625 511.324H412.747C414.302 491.245 415.165 475.247 414.817 470.41C413.841 456.802 393.467 425.891 393.467 425.891C393.467 425.891 380.776 427.421 367.148 430.379C351.602 433.75 347.211 457.729 347.211 457.729Z" fill="#1BB9F5"/>
<path d="M434.45 429.105C446.867 443.965 451.277 476.613 451.978 511.321H463.124C476.056 484.266 472.592 471.991 472.592 471.991C465.837 448.866 445.748 432.432 445.748 432.432L434.45 429.105Z" fill="#1BB9F5"/>
<path d="M437.136 446.352L448.248 449.423L429.479 419.164L437.136 446.352Z" fill="#FAE6DE"/>
<path d="M421.115 447.758L410.965 461.057L390.229 426.31L396.841 423.567L421.115 447.758Z" fill="#FAE6DE"/>
<path d="M430.013 413.446L429.478 418.69C429.478 418.69 417.527 421.03 401.844 401.897C401.844 401.897 412.96 415.457 430.013 413.446Z" fill="#A77860"/>
<path d="M426.967 413.828C431.687 413.657 444.868 412.111 451.369 381.75C459.311 344.657 441.758 325.417 426.732 321.851C411.701 318.284 397.842 323.509 390.145 342.896C390.145 342.896 384.518 358.011 393.648 384.943C402.777 411.871 421.91 414.015 426.967 413.828Z" fill="#EEA987"/>
<path d="M414.909 345.914C414.909 345.914 435.091 347.169 453.856 375.353C453.856 375.353 462.637 341.439 439.683 325.962C416.729 310.484 400.653 323.794 395.056 330.539C395.056 330.539 387.025 332.383 386.77 347.626C386.515 362.863 376.272 385.861 398.755 396.766C398.755 396.766 396.611 379.371 398.593 375.392C400.575 371.414 407.443 374.097 414.909 345.909V345.914Z" fill="#163342"/>
<path d="M399.701 368.64C398.685 366.001 395.909 364.941 394.383 367.767C392.857 370.598 394.672 381.562 398.749 382.764C402.821 383.966 401.766 373.988 399.701 368.64Z" fill="#EEA987"/>
<path d="M327.764 511.314H360.578C364.027 502.862 367.235 495.371 369.379 489.984C376.483 472.103 404.764 438.484 386.745 427.269C386.745 427.269 363.129 425.822 351.292 439.597C339.444 453.382 340.092 469.738 337.08 476.847C334.848 482.115 330.491 500.257 327.764 511.314Z" fill="#1BB9F5"/>
<path d="M545.9 763.592L445.698 764.344L445.767 773.522L545.969 772.77L545.9 763.592Z" fill="#323657"/>
<path d="M564.599 678.982L536.765 769.967L545.096 772.516L572.93 681.531L564.599 678.982Z" fill="#323657"/>
<path d="M736.105 784.669H728.285V1012H736.105V784.669Z" fill="#706865"/>
<path d="M436.422 784.669H780.069V770.972H436.422V784.669Z" fill="#B59074"/>
<path d="M476.154 1012H483.974V784.67H476.154V1012Z" fill="#706865"/>
<path d="M442.834 754.249C442.834 754.249 448.015 755.294 450.497 755.372C452.974 755.451 464.439 750.251 468.108 750.746C471.778 751.242 495.703 761.406 496.787 762.147C497.872 762.888 496.277 764.521 496.277 764.521L441.353 765.174L442.839 754.249H442.834Z" fill="#EEA886"/>
<path d="M348.861 985.515L345.338 993.139C345.338 993.139 330.498 987.605 330.425 987.419C330.351 987.232 334.511 976.832 334.511 976.832L348.865 985.515H348.861Z" fill="#515269"/>
<path d="M475.964 985.345L480.07 997.344C480.07 997.344 463.783 1000.93 461.419 1000.74C461.208 1000.73 458.338 987.155 458.338 987.155L475.964 985.35V985.345Z" fill="#6A6B8A"/>
<path d="M459.594 997.254C459.594 997.254 470.975 994.164 471.314 993.668C471.652 993.178 475.827 990.357 477.981 990.715C480.134 991.078 480.326 993.649 482.479 994.173C484.628 994.698 501.264 1000.02 503.564 1001.38C505.87 1002.73 516.874 998.731 518.988 1001.58C521.107 1004.43 523.163 1011.92 505.875 1014.51C488.587 1017.1 470.078 1024.82 465.942 1023.77C461.802 1022.72 458.966 1001.86 459.599 997.249L459.594 997.254Z" fill="#51588F"/>
<path d="M329.254 985.382C329.254 985.382 339.801 989.885 340.355 989.714C340.91 989.542 345.796 989.91 347.218 991.48C348.641 993.054 347.238 995.134 348.563 996.832C349.887 998.529 357.408 1008.48 359.605 1010.78C361.406 1012.66 371.276 1014.41 374.445 1017.72C376.834 1020.22 374.028 1030.19 357.231 1025.42C340.875 1020.78 320.624 1012.74 318.103 1009.44C315.581 1006.14 325.986 988.517 329.249 985.377L329.254 985.382Z" fill="#51588F"/>
<path d="M340.07 835.814C340.07 835.814 386.464 856.443 396.295 863.497C406.126 870.552 427.652 883.542 428.368 886.721C429.085 889.9 433.348 886.799 425.714 902.684C418.081 918.569 381.985 956.79 378.605 960.945C375.077 965.276 350.039 991.238 350.039 991.238L331.21 977.055C331.21 977.055 367.415 923.818 372.654 915.989C377.893 908.159 380.253 907.001 377.153 903.543C374.052 900.084 361.675 900.138 297.959 873.745C291.592 871.106 273.828 864.998 271.488 856.448C267.259 840.999 270.884 821.416 288.01 812.806C305.136 804.197 340.075 835.814 340.075 835.814H340.07Z" fill="#34395C"/>
<path d="M362.131 686.467C361.724 686.825 361.283 687.615 360.822 688.694C360.154 690.244 359.448 692.408 358.766 694.792C356.661 702.15 354.753 711.594 354.753 711.594C354.753 711.594 328.198 689.469 331.951 688.081C335.704 686.692 338.481 680.227 338.481 680.227C338.481 680.227 364.928 683.984 362.131 686.467Z" fill="#EEA886"/>
<path d="M360.476 762.883C360.476 762.883 338.925 804.091 337.993 819.539C337.06 834.987 293.002 814.678 293.002 814.678L360.476 762.883Z" fill="#EDDCC5"/>
<path d="M338.076 818.558L338.571 822.399L339.342 827.467C339.342 827.467 339.342 827.467 339.332 827.467C338.67 827.423 296.309 824.764 293.242 825.544C290.152 826.334 299.075 815.556 299.075 815.556L338.081 818.558H338.076Z" fill="#323657"/>
<path d="M339.339 827.462C339.339 827.462 387.273 838.74 399.121 842.528C410.973 846.315 431.366 852.982 436.846 856.107C439.755 857.77 444.199 860.252 449.522 877.574C455.556 897.212 469.332 952.431 472.457 961.031C474.419 966.432 480.065 987.684 480.065 987.684L455.571 991.932C455.571 991.932 426.401 933.205 424.037 917.551C420.053 891.202 409.84 891.06 405.714 888.661C401.588 886.262 381.715 890.766 311.023 885.129C303.959 884.565 284.645 884.217 279.646 876.593C270.615 862.818 261.5 847.173 275.525 833.324C289.556 819.476 339.339 827.462 339.339 827.462Z" fill="#494F80"/>
<path d="M371.49 631.001C371.49 631.001 379.786 645.326 377.897 649.226C376.008 653.126 386.561 662.574 384.829 664.576C383.097 666.577 379.526 669.001 379.585 669.585C379.644 670.168 376.519 688.84 372.447 689.257C368.375 689.674 340.545 688.231 338.239 679.524C335.934 670.821 329.144 651.752 327.545 648.21C325.945 644.668 341.987 617.319 371.49 631.001Z" fill="#EEA886"/>
<path d="M337.181 628.225C334.866 629.942 332.992 631.767 331.495 633.627C329.671 634.485 318.907 639.832 321.144 645.607C324.156 653.382 336.323 674.207 337.348 676.385C337.485 676.675 337.485 676.125 337.387 674.958C338.138 667.604 347.189 659.362 347.189 659.362L352.016 657.179C349.495 652.494 350.49 648.113 350.49 648.113C355.955 642.256 374.121 635.942 374.121 635.942C371.531 610.025 349.352 619.184 337.176 628.216L337.181 628.225Z" fill="#403429"/>
<path d="M345.401 653.272C344.116 651.31 337.341 651.634 338.327 657.412C339.313 663.191 347.628 667.832 349.439 665.252C351.249 662.676 346.77 655.357 345.396 653.267L345.401 653.272Z" fill="#EEA886"/>
<path d="M331.952 688.077C331.952 688.077 298.318 707.676 290.729 741.898C283.139 776.12 269.413 836.221 269.173 843.334C269.173 843.334 314.688 821.43 339.34 827.459C339.34 827.459 354.861 771.691 363.029 758.519C371.193 745.347 359.061 714.382 359.061 714.382C359.061 714.382 347.459 695.799 331.956 688.077H331.952Z" fill="#17A9E1"/>
<path d="M360.821 688.69C360.153 690.24 359.447 692.403 358.765 694.787C354.791 693.134 347.207 686.139 346.977 685.923C350.141 687.149 360.821 688.69 360.821 688.69Z" fill="#A77860"/>
<path d="M345.045 705.903C345.045 705.903 348.597 709.975 353.546 718.57C359.159 728.313 363.711 737.943 364.928 740.106C367.405 744.507 376.142 749.035 380.042 750.712C383.629 752.253 445.505 753.563 446.26 753.494C447.02 753.425 445.362 772.288 445.362 772.288C445.362 772.288 359.948 774.731 356.22 771.321C352.492 767.917 341.714 755.049 337.181 748.662C332.869 742.579 326.256 732.595 322.748 728.293C318.829 723.486 310.597 707.027 321.061 698.819C334.429 688.331 341.817 701.091 345.035 705.903H345.045Z" fill="#17A9E1"/>
<path d="M326.981 733.961C326.981 733.961 333.57 754.016 339.339 762.885C345.108 771.755 353.855 780.561 353.855 780.561L357.054 771.205C357.054 771.205 332.716 741.962 326.977 733.961H326.981Z" fill="#406CB3"/>
<path d="M219.402 1019.45L221.443 1025.2L307.76 998.453L303.624 986.816L219.402 1019.45Z" fill="#1BB9F5"/>
<path d="M310.723 900.514H300.911V994.36H310.723V900.514Z" fill="#1BB9F5"/>
<path d="M334.753 895.532H276.885V901.061H334.753V895.532Z" fill="#5E5854"/>
<path d="M392.993 1019.46L390.952 1025.21L304.631 998.459L308.423 986.092L392.993 1019.46Z" fill="#1BB9F5"/>
<path d="M332.177 1024.59V1031.27L304.631 998.459L308.423 986.092L332.177 1024.59Z" fill="#1BB9F5"/>
<path d="M401.058 1027.45C401.058 1031.9 397.447 1035.51 392.993 1035.51C388.538 1035.51 384.928 1031.9 384.928 1027.45C384.928 1023 388.538 1019.38 392.993 1019.38C397.447 1019.38 401.058 1023 401.058 1027.45Z" fill="#5E5854"/>
<path d="M332.863 1027.45C332.863 1031.9 329.253 1035.51 324.798 1035.51C320.344 1035.51 316.733 1031.9 316.733 1027.45C316.733 1023 320.344 1019.38 324.798 1019.38C329.253 1019.38 332.863 1023 332.863 1027.45Z" fill="#5E5854"/>
<path d="M227.467 1027.45C227.467 1031.9 223.856 1035.51 219.402 1035.51C214.948 1035.51 211.337 1031.9 211.337 1027.45C211.337 1023 214.948 1019.38 219.402 1019.38C223.856 1019.38 227.467 1023 227.467 1027.45Z" fill="#5E5854"/>
<path d="M364.397 874.586H247.994C242.282 874.586 237.652 879.216 237.652 884.927V885.192C237.652 890.903 242.282 895.533 247.994 895.533H364.397C370.108 895.533 374.738 890.903 374.738 885.192V884.927C374.738 879.216 370.108 874.586 364.397 874.586Z" fill="#17A9E1"/>
<path d="M223.534 728.979H264.629C274.514 728.979 282.535 737.005 282.535 746.885V842.008C282.535 851.893 274.509 859.914 264.629 859.914H223.534C213.649 859.914 205.628 851.888 205.628 842.008V746.885C205.628 737 213.654 728.979 223.534 728.979Z" fill="#17A9E1"/>
<path d="M283.414 890.319C269.477 890.319 258.174 885.639 249.81 876.407C230.913 855.543 234.308 818.862 234.46 817.312C234.749 814.423 237.325 812.308 240.214 812.598C243.104 812.882 245.213 815.458 244.929 818.347C244.89 818.764 241.877 852.011 257.625 869.367C263.997 876.387 272.43 879.802 283.409 879.802C286.314 879.802 288.668 882.156 288.668 885.061C288.668 887.965 286.314 890.319 283.409 890.319H283.414Z" fill="#4D869C"/>
<path d="M555.667 559.158C555.667 559.158 571.861 567.081 567.858 588.632C563.855 610.183 562.084 613.087 566.563 621.505C571.042 629.923 576.325 665.848 572.298 672.657C568.265 679.466 522.401 642.737 516.044 611.924C509.686 581.106 520.076 567.405 523.746 562.298C527.42 557.191 541.372 551.907 555.672 559.163L555.667 559.158Z" fill="#0E2D3D"/>
<g filter="url(#filter4_d_77_6820)">
<path d="M560.15 636.95C560.15 636.95 568.392 638.628 573.023 645.442C576.241 650.181 576.506 660.714 576.967 662.696C577.433 664.677 583.58 687.121 583.58 687.121L566.41 698.63L560.15 636.95Z" fill="#FFC182"/>
<path d="M582.617 686.344L582.745 686.81L567.008 697.358L560.975 637.912C561.075 637.942 561.182 637.974 561.295 638.009C562.113 638.265 563.254 638.675 564.536 639.293C567.106 640.531 570.205 642.582 572.425 645.849C573.932 648.068 574.787 651.735 575.314 655.211C575.574 656.93 575.75 658.566 575.889 659.905C575.9 660.004 575.91 660.102 575.92 660.198C576.042 661.374 576.144 662.349 576.263 662.859L576.263 662.861C576.5 663.868 578.159 669.994 579.75 675.842C580.548 678.771 581.331 681.639 581.915 683.774C582.206 684.842 582.448 685.726 582.617 686.344Z" stroke="#FFC182" stroke-width="1.44693"/>
</g>
<path d="M623.592 1020.72C623.592 1020.72 634.796 1035.81 633.261 1038.19C631.725 1040.58 619.942 1040.93 612.765 1038.19C605.592 1035.46 605.421 1017.78 602.178 1010.19C600.819 1007.01 603.728 997.619 607.815 996.942C611.901 996.261 616.346 998.262 616.346 998.262C616.346 998.262 612.107 1008.96 623.592 1020.73V1020.72Z" fill="#1D3B54"/>
<path d="M616.426 998.135C616.426 998.135 618.786 1004.56 619.645 1010.69C620.361 1015.78 627.626 1026.58 627.288 1027.95C626.944 1029.32 617.721 1030.55 613.969 1027.03C610.211 1023.51 607.792 1013.26 606.968 1007.14C606.198 1001.43 605.227 998.611 605.227 998.611C605.227 998.611 612.845 994.377 616.431 998.135H616.426Z" fill="#EEA886"/>
<path d="M526.055 1020.97C526.055 1020.97 536.858 1035.81 535.317 1038.2C533.782 1040.59 521.998 1040.93 514.821 1038.2C507.649 1035.46 507.477 1017.78 504.235 1010.19C502.876 1007.01 505.785 997.621 509.871 996.944C513.958 996.263 518.751 998.406 518.751 998.406C518.751 998.406 514.566 1009.21 526.05 1020.97H526.055Z" fill="#1D3B54"/>
<path d="M518.755 998.398C518.755 998.398 519.608 1005.4 520.977 1010.35C522.341 1015.31 529.685 1026.58 529.346 1027.95C529.003 1029.31 519.78 1030.55 516.027 1027.03C512.269 1023.51 509.365 1013.31 509.027 1007.14C508.683 1000.96 509.88 996.937 509.88 996.937C509.88 996.937 515.174 994.646 518.76 998.398H518.755Z" fill="#EEA886"/>
<path d="M572.733 752.808C572.733 752.808 582.349 797.539 584.556 808.803C586.764 820.066 592.95 874.613 593.612 883.885C594.275 893.162 603.645 928.105 603.203 931.421C602.762 934.733 617.096 1001.27 617.096 1001.27C617.096 1001.27 612.2 1005.21 607.039 1001.63C604.385 999.788 575.589 939.334 575.589 922.773C575.589 899.878 558.659 869.992 556.476 864.87C536.181 817.289 540.179 802.739 537.53 799.648C534.881 796.558 534.65 801.557 533.105 808.405C531.56 815.249 528.248 874.436 526.261 881.942C524.275 889.448 525.815 914.845 524.711 927.654C523.607 940.463 518.761 998.4 518.761 998.4C518.761 998.4 515.008 1004.28 509.739 998.552C508.606 997.32 500.644 934.012 500.423 918.774C500.202 903.537 499.967 882.521 499.54 875.933C495.448 812.791 485.392 803.769 501.232 759.083C530.888 675.411 572.738 752.803 572.738 752.803L572.733 752.808Z" fill="#EEA886"/>
<path d="M508.161 740.303C508.161 740.303 480.767 778.641 492.561 860.199C492.561 860.199 557.537 869.034 592.348 849.975C592.348 849.975 577.955 765.886 572.74 752.803C567.525 739.719 508.166 740.303 508.166 740.303H508.161Z" fill="#141954"/>
<path d="M601.879 1008.87V1024.66H603.93V1012.45L601.879 1008.87Z" fill="#1D3B54"/>
<path d="M503.941 1008.87V1024.66H505.992V1012.45L503.941 1008.87Z" fill="#1D3B54"/>
<path d="M544.923 631.362C544.923 631.362 555.014 636.125 558.521 636.827C562.024 637.528 575.623 655.189 578.007 661.635C580.391 668.081 578.007 677.755 573.101 689.107C568.196 700.459 572.822 704.246 570.58 715.598C568.338 726.95 566.375 750.993 566.797 757.297C567.219 763.606 510.102 764.798 497.067 753.299C497.067 753.299 510.17 733.676 511.853 730.875C513.536 728.073 512.133 712.792 510.592 708.868C509.052 704.943 498.789 671.564 498.789 671.564C498.789 671.564 490.395 645.932 497.98 640.04C504.568 634.923 522.523 633.098 525.746 631.98C528.969 630.856 538.349 630.371 544.937 631.352L544.923 631.362Z" fill="#EDDAD3"/>
<path d="M548.146 653.853L554.279 646.671L548.951 627.765C548.951 627.765 547.16 638.292 548.141 653.853H548.146Z" fill="#D6C5BE"/>
<path d="M549.741 619.712C549.741 619.712 549.466 622.244 549.138 625.741C548.995 627.292 548.843 629.033 548.696 630.829C548.284 635.926 547.951 641.445 548.147 644.251C548.147 644.251 537.658 654.764 525.732 631.987C525.732 631.987 530.751 622.597 526.974 609.803C523.196 597.013 549.741 619.707 549.741 619.707V619.712Z" fill="#EEA886"/>
<path d="M548.145 644.254V653.854L536.077 644.838L548.145 644.254Z" fill="#EEA886"/>
<path d="M548.145 653.856L543.137 647.655L526.256 630.833L520.796 636.092L548.145 653.856Z" fill="#D6C5BE"/>
<g filter="url(#filter5_d_77_6820)">
<path d="M523.912 632.446C523.912 632.446 538.075 653.943 538.752 663.406C539.429 672.87 533.488 743.645 528.73 766.393C523.971 789.145 489.597 763.827 489.597 763.827C489.597 763.827 512.698 726.435 503.828 696.496C494.959 666.556 491.74 654.586 491.74 654.586C491.74 654.586 494.792 637.911 505.604 635.566C515.082 633.511 523.912 632.441 523.912 632.441V632.446Z" fill="#FFC182"/>
<path d="M522.482 633.358C522.934 633.296 523.295 633.249 523.551 633.216C523.646 633.363 523.768 633.552 523.913 633.779C524.3 634.382 524.854 635.256 525.521 636.334C526.855 638.49 528.64 641.462 530.445 644.728C532.252 647.995 534.073 651.545 535.482 654.86C536.899 658.193 537.87 661.218 538.031 663.458C538.196 665.764 537.956 671.905 537.419 680.245C536.883 688.558 536.056 698.997 535.059 709.852C533.063 731.577 530.391 754.918 528.022 766.245C527.447 768.991 526.439 770.953 525.155 772.32C523.874 773.683 522.28 774.496 520.458 774.883C516.775 775.665 512.194 774.695 507.635 772.966C503.1 771.245 498.697 768.817 495.42 766.81C493.783 765.809 492.432 764.915 491.491 764.273C491.111 764.013 490.798 763.795 490.56 763.627C490.723 763.351 490.939 762.98 491.201 762.519C491.82 761.43 492.693 759.843 493.712 757.846C495.75 753.852 498.374 748.213 500.72 741.632C505.403 728.496 509.023 711.483 504.522 696.29C500.088 681.323 497.067 670.848 495.154 664.116C494.198 660.75 493.519 658.319 493.079 656.731C492.859 655.937 492.699 655.353 492.594 654.968C492.545 654.79 492.508 654.654 492.483 654.56C492.484 654.554 492.485 654.548 492.486 654.542C492.51 654.425 492.547 654.25 492.598 654.025C492.7 653.576 492.859 652.928 493.082 652.142C493.53 650.568 494.236 648.45 495.271 646.265C497.362 641.854 500.695 637.371 505.757 636.273C510.478 635.25 515.04 634.471 518.423 633.948C520.114 633.687 521.51 633.489 522.482 633.358Z" stroke="#FFC182" stroke-width="1.44693"/>
</g>
<g filter="url(#filter6_d_77_6820)">
<path d="M578.934 664.511C578.934 664.511 581.489 673.553 571.536 693.534C571.536 693.534 571.693 719.107 571.972 727.099C572.252 735.09 577.903 763.818 577.903 763.818L564.305 771.059C562.323 772.222 559.865 770.613 560.145 768.327C562.931 745.334 572.002 658.119 552.413 634.68L560.272 636.995C560.272 636.995 574.239 648.426 578.934 664.507V664.511Z" fill="#FFC182"/>
<path d="M567.288 645.185C571.315 649.992 575.892 656.745 578.21 664.61V664.612L578.237 664.706L578.237 664.706L578.237 664.706L578.237 664.707L578.24 664.717C578.243 664.729 578.248 664.75 578.255 664.779C578.268 664.839 578.288 664.934 578.311 665.065C578.358 665.327 578.416 665.733 578.456 666.289C578.536 667.399 578.546 669.106 578.25 671.438C577.656 676.104 575.835 683.282 570.888 693.211L570.811 693.366L570.812 693.538L571.536 693.534C570.812 693.538 570.812 693.538 570.812 693.539L570.812 693.539L570.812 693.543L570.812 693.557L570.813 693.612L570.814 693.828L570.819 694.653C570.824 695.368 570.832 696.399 570.841 697.66C570.86 700.183 570.889 703.63 570.926 707.327C571 714.716 571.109 723.118 571.249 727.124C571.391 731.183 572.886 740.421 574.33 748.582C575.055 752.676 575.771 756.519 576.305 759.339C576.572 760.75 576.794 761.904 576.95 762.706C577.006 762.995 577.053 763.238 577.091 763.432L563.965 770.421L563.951 770.428L563.939 770.435C562.473 771.295 560.656 770.105 560.863 768.415L560.863 768.414C562.257 756.907 565.225 729.324 565.393 701.675C565.477 687.852 564.861 673.991 562.992 662.105C561.301 651.352 558.569 642.113 554.322 635.996L559.924 637.647C559.936 637.657 559.949 637.668 559.962 637.679C560.063 637.764 560.212 637.892 560.404 638.061C560.788 638.399 561.344 638.901 562.028 639.555C563.395 640.863 565.269 642.775 567.288 645.185Z" stroke="#FFC182" stroke-width="1.44693"/>
</g>
<path d="M554.279 646.682L562.005 648.816L548.956 627.775L554.279 646.682Z" fill="#FAE6DE"/>
<path d="M543.138 647.653L536.078 656.905L521.587 632.75L526.61 629.909L543.138 647.653Z" fill="#FAE6DE"/>
<path d="M555.364 683.549L553.359 685.135L572.114 708.831L574.118 707.244L555.364 683.549Z" fill="#17A9E1"/>
<path d="M552.192 706.086C552.192 706.086 553.983 706.12 555.16 705.232C557.196 703.697 557.927 699.924 561.518 700.199C565.109 700.474 566.772 711.732 565.874 713.861C564.977 715.99 559.992 717.06 552.624 715.588C545.256 714.121 552.192 706.086 552.192 706.086Z" fill="#EEA886"/>
<path d="M560.288 700.277C560.288 700.277 565.449 698.516 571.404 697.23C576.629 696.102 582.874 695.729 583.482 696.637C584.159 697.647 578.395 698.516 573.273 699.973C568.559 701.312 569.682 701.803 569.682 701.803C569.682 701.803 569.373 701.646 574.755 701.14C580.539 700.601 586.499 700.61 587.088 701.768C587.372 702.332 587.176 702.71 585.091 703.24C586.342 703.181 586.519 703.505 586.568 704.01C586.813 706.615 578.375 708.69 575.025 709.514C577.6 708.896 579.548 708.71 578.62 710.456C577.561 712.453 565.517 714.871 561.269 716.132C556.633 717.511 560.293 700.277 560.293 700.277H560.288Z" fill="#EEA886"/>
<g filter="url(#filter7_d_77_6820)">
<path d="M507.788 635.617C504.236 634.469 493.821 638.163 492.06 648.843C490.299 659.527 489.593 671.384 487.954 677.134C486.311 682.888 482.121 708.374 485.644 710.488C489.166 712.602 495.833 714.53 505.188 714.53C514.543 714.53 552.308 716.213 552.308 716.213L554.657 702.909C554.657 702.909 540.431 702.173 533.058 701.059C526.499 700.063 517.403 697.272 506.694 696.1C506.694 696.1 508.965 680.313 510.609 675.849C512.252 671.389 523.756 640.787 507.788 635.622V635.617Z" fill="#FFC182"/>
<path d="M505.978 695.996C505.978 695.996 505.978 695.997 506.694 696.1L505.978 695.997L505.871 696.737L506.615 696.819C511.932 697.401 516.853 698.385 521.278 699.352C522.304 699.577 523.307 699.801 524.282 700.019C527.492 700.737 530.41 701.389 532.949 701.775L532.95 701.775C536.667 702.336 542.092 702.8 546.57 703.123C548.813 703.285 550.825 703.412 552.276 703.499C552.896 703.535 553.413 703.565 553.803 703.587L551.706 715.462L550.698 715.418C549.647 715.372 548.135 715.306 546.292 715.227C542.605 715.07 537.591 714.859 532.285 714.649C521.681 714.228 509.884 713.807 505.188 713.807C495.914 713.807 489.389 711.893 486.016 709.868C485.946 709.826 485.835 709.722 485.709 709.488C485.585 709.255 485.469 708.934 485.367 708.514C485.165 707.675 485.049 706.541 485.011 705.174C484.935 702.446 485.176 698.921 485.581 695.255C486.391 687.92 487.844 680.155 488.65 677.333L488.65 677.332C489.488 674.391 490.08 669.927 490.68 664.925C490.777 664.112 490.875 663.283 490.974 662.443C491.488 658.087 492.039 653.422 492.774 648.96C493.616 643.852 496.521 640.424 499.646 638.402C501.211 637.388 502.824 636.734 504.245 636.402C505.59 636.087 506.698 636.075 507.418 636.262L507.565 636.31C511.289 637.515 513.419 640.185 514.506 643.674C515.603 647.197 515.622 651.528 515.085 655.912C514.035 664.476 510.898 672.975 509.989 675.438C509.968 675.495 509.949 675.548 509.93 675.598L509.93 675.599C509.08 677.907 508.092 683.044 507.322 687.526C506.935 689.783 506.599 691.901 506.36 693.453C506.24 694.229 506.145 694.865 506.079 695.306C506.047 695.527 506.021 695.699 506.004 695.817L505.985 695.95L505.98 695.985L505.978 695.993L505.978 695.996L505.978 695.996Z" stroke="#FFC182" stroke-width="1.44693"/>
</g>
<g filter="url(#filter8_d_77_6820)">
<path d="M555.479 726.59L593.21 719.109L621.197 659.229L580.921 663.463L555.479 726.59Z" fill="white"/>
</g>
<path d="M597.915 708.945C597.915 708.945 599.986 707.027 601.825 704.338C603.67 701.65 609.694 691.382 609.145 690.74C608.595 690.097 599.642 689.876 598.018 691.338C596.395 692.8 599.618 693.369 599.618 693.369C599.618 693.369 594.722 693.874 595.075 695.253C595.423 696.636 598.372 696.254 598.372 696.254C598.372 696.254 594.432 697.009 595.031 698.221C595.629 699.433 597.523 699.423 597.523 699.423C597.523 699.423 594.03 699.859 594.462 701.184C594.893 702.508 600.417 703.759 599.677 704.858C598.941 705.957 597.915 708.945 597.915 708.945Z" fill="#EEA886"/>
<path d="M553.317 561.549C553.317 561.549 576.83 568.937 564.065 609.517C551.301 650.098 519.188 604.813 522.543 580.093C525.903 555.368 553.312 561.549 553.312 561.549H553.317Z" fill="#EEA987"/>
<path d="M566.47 585.223C566.47 585.223 554.785 596.687 535.231 598.12C535.231 598.12 527.715 606.931 527.136 610.389C527.136 610.389 509.691 580.65 531.134 562.823C552.577 544.996 574.349 577.874 566.465 585.218L566.47 585.223Z" fill="#0E2D3D"/>
<path d="M535.469 598.936C535.317 595.983 533.497 589.262 529.112 591.141C524.721 593.025 529.381 606.707 532.29 605.868C532.29 605.868 535.827 605.922 535.469 598.936Z" fill="#EEA987"/>
<path d="M549.137 625.741C548.995 627.291 548.843 629.033 548.696 630.828C535.102 624.117 533.017 614.438 532.958 614.134C542.642 626.648 549.142 625.736 549.142 625.736L549.137 625.741Z" fill="#A77860"/>
<path d="M746.76 426.991C746.76 426.991 774.492 424.087 784.48 450.862C794.473 477.642 803.878 486.409 805.06 500.479C809.823 557.38 836.398 544.508 828.921 577.307C821.45 610.107 816.275 615.067 816.275 615.067L752.745 602.611L688.392 602.817C688.392 602.817 713.568 590.244 707.966 563.463C702.358 536.683 688.392 492.791 696.28 462.896C704.168 433 730.188 429.267 746.76 426.981V426.991Z" fill="#0E2D3D"/>
<path d="M857.704 659.842H640.051C650.559 632.89 660.876 607.758 663.819 604.677C670.069 598.157 700.833 577.749 726.652 569.596C752.456 561.452 767.134 569.326 767.134 569.326C767.134 569.326 815.043 582.763 835.422 604.775C841.108 610.917 849.845 634.994 857.704 659.842Z" fill="#17A9E1"/>
<path d="M765.918 538.232C765.918 538.232 763.686 565.916 769.019 574.206C774.351 582.502 764.456 593.756 744.078 589.905C723.7 586.054 724.882 574.501 724.882 574.501C724.882 574.501 730.587 557.419 728.919 543.747C727.251 530.074 765.913 538.232 765.913 538.232H765.918Z" fill="#EEA886"/>
<path d="M779.17 573.231C779.17 573.231 760.788 614.812 736.976 623.784C736.976 623.784 711.598 603.622 717.917 572.74C717.917 572.74 750.118 557.89 779.17 573.231Z" fill="#EEA886"/>
<path d="M750.416 442.654C750.416 442.654 787.14 447.952 781.763 502.17C776.387 556.383 743.975 552.081 741.806 552.037C739.643 551.993 709.291 553.165 706.661 487.011C706.661 487.011 705.435 438.091 750.411 442.658L750.416 442.654Z" fill="#EEA886"/>
<path d="M746.216 462.303C746.216 462.303 763.376 480.341 771.348 489.476C779.32 498.61 780.237 516.256 780.237 516.256C780.237 516.256 793.664 499.856 788.047 480.758C782.435 461.66 769.145 424.499 735.516 435.92C701.887 447.335 700.641 497.575 704.585 522.486C704.585 522.486 719.68 467.493 746.221 462.303H746.216Z" fill="#0E2D3D"/>
<path d="M732.098 549.744C732.098 549.744 747.801 557.608 763.72 545.191C763.72 545.191 757.612 555.351 746.947 555.906C736.282 556.46 732.098 549.744 732.098 549.744Z" fill="#A77860"/>
<path d="M713.19 385.368H691.301C690.997 383.485 690.727 381.591 690.491 379.717V379.702C689.044 368.287 688.681 357.867 688.681 357.867C688.681 357.867 682.289 328.609 700.754 326.809C700.754 326.809 705.699 328.359 705.994 330.39C707.107 338.21 709.653 355.115 709.766 359.118C709.82 361.183 711.768 375.145 713.195 385.373L713.19 385.368Z" fill="#323657"/>
<path d="M701.298 327.418C701.028 335.434 700.552 344.024 699.875 353.217C699.875 353.217 698.953 368.209 698.639 385.365H620.819C619.009 376.917 616.988 369.436 616.733 368.499C616.733 368.489 616.723 368.474 616.723 368.469C616.723 368.46 616.723 368.445 616.713 368.445V368.406C616.713 368.406 614.967 376.834 613.569 385.37H594.716C597.051 366.63 602.756 325.078 605.773 322.915C608.344 321.075 624.464 314.614 632.833 311.435C636.699 309.959 639.643 308.933 640.246 308.894C642.159 308.776 665.751 311.038 665.751 311.038C665.751 311.038 669.131 312.196 672.585 313.785C678.491 316.493 687.68 320.722 694.278 323.866C696.412 324.882 699.081 326.256 701.293 327.423L701.298 327.418Z" fill="#D8D5E0"/>
<path d="M640.373 308.846C642.105 324.741 659.756 324.741 659.756 324.741C659.756 324.741 667.06 318.348 666.83 313.619C666.825 313.516 666.82 313.408 666.805 313.31C666.697 312.437 665.711 311.358 665.608 309.611C665.593 309.376 665.588 309.131 665.584 308.89C665.579 308.655 665.579 308.419 665.579 308.184C665.584 306.977 665.652 305.785 665.726 304.956C665.75 304.666 665.775 304.416 665.795 304.22C665.824 303.926 665.844 303.759 665.844 303.759C665.844 303.759 662.998 300.761 659.383 297.19C653.064 290.945 644.376 282.939 644.361 286.123C644.361 286.289 644.386 286.495 644.435 286.726C645.961 293.893 640.373 308.846 640.373 308.846Z" fill="#EEA886"/>
<path d="M652.413 318.201L659.762 324.741C659.762 324.741 651.28 324.176 649.695 322.764L652.413 318.201Z" fill="#B4B1BA"/>
<path d="M694.283 323.86C689.824 321.741 684.163 319.111 679.144 316.796C676.755 315.682 674.499 314.652 672.585 313.779L669.563 312.483C669.73 312.891 675.23 326.121 679.385 355.139C680.449 362.566 682.107 373.339 683.736 385.358H699.228C700.077 368.291 700.499 353.51 700.499 353.51C701.191 344.16 701.588 335.413 701.848 327.269C699.587 326.308 696.658 324.983 694.283 323.855V323.86Z" fill="#323657"/>
<path d="M653.311 385.363H619.575C618.868 379.442 618.108 374.242 617.406 371.823C617.406 371.823 615.94 377.833 614.595 385.363H592.52C594.86 364.631 599.648 325.469 602.503 323.418C604.676 321.863 620.791 316.148 628.69 313.038C630.137 312.469 631.54 311.929 632.835 311.434C634.508 313.298 652.291 346.191 653.679 372.927C653.836 375.998 653.665 380.364 653.307 385.363H653.311Z" fill="#323657"/>
<path d="M667.789 319.359C667.789 319.359 668.417 328.385 660.784 328.596C653.15 328.807 647.087 321.473 647.087 321.473L659.758 324.741L667.47 318.201L667.784 319.354L667.789 319.359Z" fill="#D8D5E0"/>
<path d="M641.394 305.867C641.394 305.867 648.63 315.154 652.407 318.195L646.216 328.586L635.536 310.415L641.394 305.862V305.867Z" fill="#EAE6F2"/>
<path d="M666.292 319.906L659.758 324.739C659.758 324.739 665.497 314.27 665.61 309.614L666.292 319.906Z" fill="#B4B1BA"/>
<path d="M665.609 309.614L669.804 312.577L674.479 326.519L666.291 319.906L665.609 309.614Z" fill="#EAE6F2"/>
<path d="M686.395 263.085C686.395 263.085 691.001 274.3 687.994 275.649C685.507 276.767 689.5 287.712 689.991 289.488C690.476 291.259 685.438 291.98 684.275 292.966C683.118 293.952 678.609 307.099 674.523 307.08C670.436 307.06 652.874 298.804 648.454 293.123C644.034 287.442 642.41 263.703 646.756 254.22C651.103 244.738 678.246 243.487 686.395 263.085Z" fill="#EEA886"/>
<path d="M687.293 265.506C687.293 265.506 694.342 254.659 684.624 245.044C674.906 235.429 653.767 248.292 651.505 248.625C649.239 248.964 635.964 251.799 640.379 272.001C644.309 289.99 644.686 290.461 644.686 290.461C644.686 290.461 649.96 280.949 652.428 279.526C656.284 277.299 664.074 278.751 664.074 278.751C664.074 278.751 661.376 268.42 667.376 267.625C673.375 266.83 681.607 262.685 687.298 265.506H687.293Z" fill="#0E2D3D"/>
<path d="M658.438 272.407C658.065 270.989 657.015 264.955 651.623 267.869C646.232 270.783 653.233 282.684 654.096 282.915C654.959 283.15 661.577 284.337 658.438 272.407Z" fill="#EEA886"/>
<path d="M649.146 293.935C649.269 294.239 653.277 303.982 665.586 308.897C665.581 308.662 665.581 308.426 665.581 308.191C665.586 306.984 665.654 305.792 665.728 304.963C665.752 304.673 665.777 304.423 665.797 304.227C665.797 304.227 652.576 298.011 649.151 293.935H649.146Z" fill="#A77860"/>
<defs>
<filter id="filter0_d_77_6820" x="259.162" y="353.991" width="293.484" height="293.484" filterUnits="userSpaceOnUse" color-interpolation-filters="sRGB">
<feFlood flood-opacity="0" result="BackgroundImageFix"/>
<feColorMatrix in="SourceAlpha" type="matrix" values="0 0 0 0 0 0 0 0 0 0 0 0 0 0 0 0 0 0 127 0" result="hardAlpha"/>
<feOffset dx="2.89386" dy="5.78771"/>
<feGaussianBlur stdDeviation="8.68157"/>
<feColorMatrix type="matrix" values="0 0 0 0 0.109804 0 0 0 0 0.317647 0 0 0 0 0.458824 0 0 0 0.25 0"/>
<feBlend mode="normal" in2="BackgroundImageFix" result="effect1_dropShadow_77_6820"/>
<feBlend mode="normal" in="SourceGraphic" in2="effect1_dropShadow_77_6820" result="shape"/>
</filter>
<filter id="filter1_d_77_6820" x="560.486" y="443.73" width="388.862" height="450.404" filterUnits="userSpaceOnUse" color-interpolation-filters="sRGB">
<feFlood flood-opacity="0" result="BackgroundImageFix"/>
<feColorMatrix in="SourceAlpha" type="matrix" values="0 0 0 0 0 0 0 0 0 0 0 0 0 0 0 0 0 0 127 0" result="hardAlpha"/>
<feOffset dx="2.89386" dy="5.78771"/>
<feGaussianBlur stdDeviation="8.68157"/>
<feColorMatrix type="matrix" values="0 0 0 0 0.109804 0 0 0 0 0.317647 0 0 0 0 0.458824 0 0 0 0.25 0"/>
<feBlend mode="normal" in2="BackgroundImageFix" result="effect1_dropShadow_77_6820"/>
<feBlend mode="normal" in="SourceGraphic" in2="effect1_dropShadow_77_6820" result="shape"/>
</filter>
<filter id="filter2_d_77_6820" x="543.337" y="258.167" width="224.834" height="205.941" filterUnits="userSpaceOnUse" color-interpolation-filters="sRGB">
<feFlood flood-opacity="0" result="BackgroundImageFix"/>
<feColorMatrix in="SourceAlpha" type="matrix" values="0 0 0 0 0 0 0 0 0 0 0 0 0 0 0 0 0 0 127 0" result="hardAlpha"/>
<feOffset dx="2.89386" dy="5.78771"/>
<feGaussianBlur stdDeviation="8.68157"/>
<feColorMatrix type="matrix" values="0 0 0 0 0.109804 0 0 0 0 0.317647 0 0 0 0 0.458824 0 0 0 0.25 0"/>
<feBlend mode="normal" in2="BackgroundImageFix" result="effect1_dropShadow_77_6820"/>
<feBlend mode="normal" in="SourceGraphic" in2="effect1_dropShadow_77_6820" result="shape"/>
</filter>
<filter id="filter3_d_77_6820" x="303.065" y="380.863" width="205.681" height="186.339" filterUnits="userSpaceOnUse" color-interpolation-filters="sRGB">
<feFlood flood-opacity="0" result="BackgroundImageFix"/>
<feColorMatrix in="SourceAlpha" type="matrix" values="0 0 0 0 0 0 0 0 0 0 0 0 0 0 0 0 0 0 127 0" result="hardAlpha"/>
<feOffset dx="2.89386" dy="5.78771"/>
<feGaussianBlur stdDeviation="8.68157"/>
<feColorMatrix type="matrix" values="0 0 0 0 0.109804 0 0 0 0 0.317647 0 0 0 0 0.458824 0 0 0 0.25 0"/>
<feBlend mode="normal" in2="BackgroundImageFix" result="effect1_dropShadow_77_6820"/>
<feBlend mode="normal" in="SourceGraphic" in2="effect1_dropShadow_77_6820" result="shape"/>
</filter>
<filter id="filter4_d_77_6820" x="545.681" y="625.375" width="58.156" height="96.406" filterUnits="userSpaceOnUse" color-interpolation-filters="sRGB">
<feFlood flood-opacity="0" result="BackgroundImageFix"/>
<feColorMatrix in="SourceAlpha" type="matrix" values="0 0 0 0 0 0 0 0 0 0 0 0 0 0 0 0 0 0 127 0" result="hardAlpha"/>
<feOffset dx="2.89386" dy="5.78771"/>
<feGaussianBlur stdDeviation="8.68157"/>
<feColorMatrix type="matrix" values="0 0 0 0 0.109804 0 0 0 0 0.317647 0 0 0 0 0.458824 0 0 0 0.25 0"/>
<feBlend mode="normal" in2="BackgroundImageFix" result="effect1_dropShadow_77_6820"/>
<feBlend mode="normal" in="SourceGraphic" in2="effect1_dropShadow_77_6820" result="shape"/>
</filter>
<filter id="filter5_d_77_6820" x="475.127" y="620.866" width="83.9353" height="178.165" filterUnits="userSpaceOnUse" color-interpolation-filters="sRGB">
<feFlood flood-opacity="0" result="BackgroundImageFix"/>
<feColorMatrix in="SourceAlpha" type="matrix" values="0 0 0 0 0 0 0 0 0 0 0 0 0 0 0 0 0 0 127 0" result="hardAlpha"/>
<feOffset dx="2.89386" dy="5.78771"/>
<feGaussianBlur stdDeviation="8.68157"/>
<feColorMatrix type="matrix" values="0 0 0 0 0.109804 0 0 0 0 0.317647 0 0 0 0 0.458824 0 0 0 0.25 0"/>
<feBlend mode="normal" in2="BackgroundImageFix" result="effect1_dropShadow_77_6820"/>
<feBlend mode="normal" in="SourceGraphic" in2="effect1_dropShadow_77_6820" result="shape"/>
</filter>
<filter id="filter6_d_77_6820" x="537.944" y="623.104" width="61.5407" height="171.494" filterUnits="userSpaceOnUse" color-interpolation-filters="sRGB">
<feFlood flood-opacity="0" result="BackgroundImageFix"/>
<feColorMatrix in="SourceAlpha" type="matrix" values="0 0 0 0 0 0 0 0 0 0 0 0 0 0 0 0 0 0 127 0" result="hardAlpha"/>
<feOffset dx="2.89386" dy="5.78771"/>
<feGaussianBlur stdDeviation="8.68157"/>
<feColorMatrix type="matrix" values="0 0 0 0 0.109804 0 0 0 0 0.317647 0 0 0 0 0.458824 0 0 0 0.25 0"/>
<feBlend mode="normal" in2="BackgroundImageFix" result="effect1_dropShadow_77_6820"/>
<feBlend mode="normal" in="SourceGraphic" in2="effect1_dropShadow_77_6820" result="shape"/>
</filter>
<filter id="filter7_d_77_6820" x="469.804" y="623.841" width="105.11" height="115.523" filterUnits="userSpaceOnUse" color-interpolation-filters="sRGB">
<feFlood flood-opacity="0" result="BackgroundImageFix"/>
<feColorMatrix in="SourceAlpha" type="matrix" values="0 0 0 0 0 0 0 0 0 0 0 0 0 0 0 0 0 0 127 0" result="hardAlpha"/>
<feOffset dx="2.89386" dy="5.78771"/>
<feGaussianBlur stdDeviation="8.68157"/>
<feColorMatrix type="matrix" values="0 0 0 0 0.109804 0 0 0 0 0.317647 0 0 0 0 0.458824 0 0 0 0.25 0"/>
<feBlend mode="normal" in2="BackgroundImageFix" result="effect1_dropShadow_77_6820"/>
<feBlend mode="normal" in="SourceGraphic" in2="effect1_dropShadow_77_6820" result="shape"/>
</filter>
<filter id="filter8_d_77_6820" x="541.01" y="647.654" width="100.443" height="102.087" filterUnits="userSpaceOnUse" color-interpolation-filters="sRGB">
<feFlood flood-opacity="0" result="BackgroundImageFix"/>
<feColorMatrix in="SourceAlpha" type="matrix" values="0 0 0 0 0 0 0 0 0 0 0 0 0 0 0 0 0 0 127 0" result="hardAlpha"/>
<feOffset dx="2.89386" dy="5.78771"/>
<feGaussianBlur stdDeviation="8.68157"/>
<feColorMatrix type="matrix" values="0 0 0 0 0.109804 0 0 0 0 0.317647 0 0 0 0 0.458824 0 0 0 0.25 0"/>
<feBlend mode="normal" in2="BackgroundImageFix" result="effect1_dropShadow_77_6820"/>
<feBlend mode="normal" in="SourceGraphic" in2="effect1_dropShadow_77_6820" result="shape"/>
</filter>
<linearGradient id="paint0_linear_77_6820" x1="183.937" y1="188.35" x2="437.518" y2="679.895" gradientUnits="userSpaceOnUse">
<stop offset="0.24" stop-color="#8CC6FF"/>
<stop offset="1" stop-color="#0060FF" stop-opacity="0"/>
</linearGradient>
<linearGradient id="paint1_linear_77_6820" x1="1035.57" y1="336.347" x2="825.41" y2="716.868" gradientUnits="userSpaceOnUse">
<stop offset="0.24" stop-color="#8CC6FF"/>
<stop offset="1" stop-color="#0060FF" stop-opacity="0"/>
</linearGradient>
</defs>
</svg>
