<svg width="514" height="593" viewBox="0 0 514 593" fill="none" xmlns="http://www.w3.org/2000/svg">
<path d="M32.1282 266.619L489.687 2.4464C500.445 -3.76476 513.895 4.00173 513.895 16.424V544.765C513.895 557.191 500.445 564.954 489.687 558.743L32.1282 294.574C21.3697 288.363 21.3697 272.833 32.1282 266.619Z" fill="url(#paint0_linear_1_689)"/>
<path d="M475.379 209.821C473.464 214.419 470.926 218.658 467.893 222.453L472.346 231.788L463.356 238.531L454.366 245.275L446.647 238.386C442.154 240.239 437.376 241.486 432.426 242.039L428.976 251.781L417.852 250.191L406.727 248.602L406.141 238.284C401.543 236.37 397.304 233.832 393.508 230.799L384.173 235.251L377.43 226.262L370.687 217.272L377.576 209.556C375.722 205.063 374.475 200.282 373.923 195.335L364.181 191.885L365.77 180.761L367.359 169.636L377.677 169.05C379.592 164.452 382.13 160.213 385.163 156.417L380.71 147.082L389.7 140.339L398.69 133.596L406.409 140.485C410.902 138.631 415.68 137.384 420.63 136.832L424.08 127.09L435.204 128.679L446.329 130.268L446.915 140.586C451.513 142.501 455.752 145.039 459.547 148.072L468.883 143.619L475.626 152.609L482.369 161.599L475.48 169.318C477.334 173.811 478.581 178.589 479.133 183.539L488.875 186.989L487.286 198.113L485.697 209.238L475.379 209.824V209.821ZM432.09 150.454C410.563 147.38 390.618 162.341 387.545 183.868C384.471 205.395 399.432 225.34 420.959 228.413C442.486 231.487 462.431 216.526 465.504 194.999C468.578 173.472 453.617 153.527 432.09 150.454V150.454Z" fill="white"/>
<path d="M477.5 100.466C476.622 102.573 475.46 104.518 474.067 106.257L476.107 110.536L471.987 113.627L467.866 116.717L464.329 113.559C462.269 114.41 460.08 114.979 457.809 115.233L456.227 119.699L451.127 118.971L446.027 118.242L445.76 113.512C443.652 112.634 441.707 111.472 439.969 110.079L435.689 112.119L432.599 107.998L429.508 103.878L432.667 100.34C431.816 98.2802 431.243 96.0878 430.993 93.8209L426.527 92.2385L427.255 87.1388L427.984 82.039L432.714 81.7713C433.592 79.6637 434.754 77.7187 436.147 75.9804L434.107 71.7006L438.227 68.6103L442.348 65.52L445.885 68.6781C447.945 67.831 450.138 67.2583 452.405 67.0042L453.987 62.5381L459.087 63.2666L464.187 63.9952L464.454 68.7255C466.562 69.6032 468.507 70.7654 470.245 72.1581L474.525 70.1182L477.615 74.2387L480.706 78.3591L477.547 81.8967C478.398 83.9569 478.967 86.1493 479.221 88.4162L483.688 89.9987L482.959 95.0984L482.23 100.198L477.5 100.466V100.466ZM457.657 73.2492C447.786 71.8396 438.644 78.6979 437.234 88.5687C435.825 98.4395 442.683 107.582 452.554 108.991C462.425 110.401 471.567 103.543 472.976 93.6718C474.386 83.8011 467.528 74.6588 457.657 73.2492V73.2492Z" fill="white"/>
<path d="M130.816 231.876C130.816 231.876 103.295 222.934 101.058 223.93C98.822 224.93 98.5204 226.505 101.065 227.454C103.61 228.399 127.455 236.894 127.455 236.894C127.455 236.894 93.4444 231.995 91.4249 232.381C90.2423 232.608 89.4833 235.617 90.8048 236.254C92.1297 236.891 125.662 243.766 125.662 243.766C125.662 243.766 93.9053 239.25 92.3296 240.11C90.9505 240.862 90.92 243.841 93.2615 244.346C95.6029 244.851 124.931 250.787 124.931 250.787C124.931 250.787 101.689 249.022 100.801 250.598C100.259 251.56 99.4861 254.122 105.487 254.383C111.488 254.64 125.659 256.816 125.659 256.816L130.813 231.883L130.816 231.876Z" fill="#EEA886"/>
<path d="M161.145 247.29C161.145 247.29 152.24 243.749 151.599 238.131C151.057 233.353 147.089 227.427 145.872 225.601C144.243 223.157 141.813 213.825 138.957 215.818C136.103 217.807 142.27 231.368 143.033 234.455C143.799 237.545 131.641 230.961 128.601 231.554C125.562 232.151 117.28 253.468 126.073 256.995C134.87 260.519 146.205 258.279 147.648 259.218C149.092 260.157 153.964 262.044 153.964 262.044L161.145 247.29V247.29Z" fill="#EEA886"/>
<path d="M268.507 407.069C268.308 409.644 268.094 412.098 267.894 414.29H395.34C395.292 412.142 395.231 409.705 395.187 407.069C394.757 385.82 394.13 350.989 394.405 337.835C394.757 319.056 398.711 270.258 399.494 267.435C399.494 267.435 427.456 226.807 456.787 307.003C462.843 323.529 407.328 364.94 414.227 366.21C421.11 367.467 420.835 380.574 420.835 380.574C420.835 380.574 473.113 335.039 472.042 321.628C471.446 314.176 430.509 205.91 424.254 201.433C419.991 198.367 393.225 187.635 379.349 182.376C372.925 179.923 368.035 178.222 367.022 178.161C363.847 177.961 324.693 181.719 324.693 181.719C324.693 181.719 319.081 183.637 313.331 186.273C303.535 190.766 288.266 197.801 277.318 203.016C273.777 204.703 269.344 206.97 265.665 208.919C266.108 222.225 266.905 236.498 268.026 251.753C268.026 251.753 270.066 285.069 270.249 318.72C272.011 326.341 271.706 344.046 271.706 344.046C272.198 360.833 270.327 378.067 269.836 387.694C269.531 393.718 269.023 400.77 268.501 407.073L268.507 407.069Z" fill="#DBD8E3"/>
<path d="M263.004 407.07C264.844 395.159 266.592 382.754 268.032 370.887V370.796C268.263 368.864 268.493 366.946 268.724 365.045C268.724 364.954 268.74 364.845 268.754 364.754C269.672 356.72 270.425 349.038 270.977 342.003C271.39 336.605 271.024 331.35 270.272 326.182C268.097 290.2 267.006 252.255 267.006 252.255C265.857 236.708 265.196 222.206 264.752 208.668C264.752 208.668 313.92 185.443 318.379 184.108C318.379 184.108 309.057 206.002 302.067 254.952C299.369 273.748 294.385 305.39 290.769 337.693C289.343 350.434 286.998 363.327 284.758 375.468C282.644 386.922 280.617 397.714 279.53 407.066C279.452 407.632 279.391 408.201 279.33 408.767C279.16 410.377 278.96 412.234 278.733 414.287H261.869C262.251 411.912 262.634 409.489 263.004 407.066V407.07Z" fill="#323657"/>
<path d="M349.606 349.82C351.846 371.527 354.296 389.1 356.275 407.066C356.536 409.458 356.796 411.864 357.04 414.287H408.753C408.078 411.895 407.418 409.489 406.791 407.066C401.24 386.139 396.811 364.784 396.811 351.83C396.811 351.83 407.573 274.439 411.175 261.973C411.175 261.973 443.722 286.042 451.326 302.706C458.134 317.609 408.261 363.127 408.844 364.659C412.233 373.628 425.217 390.015 425.217 390.015C425.217 390.015 502.438 307.074 501.412 296.848C500.676 289.413 435.932 206.747 429.694 202.271C426.075 199.678 399.339 190.204 386.216 185.023C383.81 184.074 375.989 181.13 373.844 180.316C371.069 183.414 351.507 204.463 344.73 284.459C343.581 297.949 347.183 326.497 349.606 349.817V349.82Z" fill="#323657"/>
<path d="M363.406 182.322C363.406 182.322 363.673 168.88 368.854 141.687C370.24 134.408 326.593 160.842 326.593 160.842C326.593 160.842 326.728 163.39 326.816 166.836C326.864 168.656 326.891 170.72 326.881 172.79C326.874 173.522 326.871 174.247 326.85 174.966C326.81 176.89 326.722 178.73 326.559 180.299C326.396 181.912 325.441 184.762 325.102 185.544C323.303 189.695 348.706 192.847 363.406 182.329V182.322Z" fill="#EEA987"/>
<path d="M336.165 196.408L328.931 206.13C328.931 206.13 333.17 211.806 340.699 207.614L336.169 196.408H336.165Z" fill="#D44040"/>
<path d="M330.863 206.523C330.863 206.523 303.423 312.174 309.078 394.41L318.312 410.682L326.953 393.637C326.953 393.637 329.321 246.535 336.844 206.266L330.863 206.523V206.523Z" fill="#D44040"/>
<path d="M328.416 187.344L336.162 196.409C336.162 196.409 348.595 193.999 352.244 187.507C355.894 181.011 328.413 187.348 328.413 187.348L328.416 187.344Z" fill="#EEA987"/>
<path d="M326.639 179.411C326.639 179.411 327.54 186.32 336.164 196.405L326.751 209.051L321.658 182.817L326.642 179.411H326.639Z" fill="#C4C1CC"/>
<path d="M364.127 172.838C364.127 172.838 348.74 191.435 336.168 196.405L342.017 210.864L371.273 179.409L364.127 172.835V172.838Z" fill="#C4C1CC"/>
<path d="M138.02 262.376C138.02 262.376 204.34 334.426 219.988 330.577C227.223 328.798 238.181 316.308 247.239 304.567C250.224 300.7 253.152 296.641 255.937 292.625C255.944 292.619 255.944 292.609 255.944 292.609C267.055 276.567 275.76 261.194 275.76 261.194C275.76 261.194 308.598 222.71 282.246 205.554C282.246 205.554 271.142 204.432 264.822 209.092C258.99 213.395 244.799 240.486 242.495 245.508C240.191 250.523 222.272 285.933 220.598 286.98C218.928 288.027 201.328 277.465 191.918 271.132C176.717 260.899 157.616 243.065 157.616 243.065L138.013 262.376H138.02Z" fill="#323657"/>
<path d="M303.613 93.9227C303.613 93.9227 294.024 111.702 298.778 114.464C302.705 116.748 294.176 134.195 293.061 137.045C291.946 139.895 300.174 141.965 301.922 143.802C303.671 145.635 308.852 168.209 315.629 168.89C322.406 169.571 352.943 158.952 361.259 150.304C369.574 141.657 376.395 102.607 370.848 86.1325C365.298 69.6609 320.539 62.8635 303.616 93.9193L303.613 93.9227Z" fill="#EEA886"/>
<path d="M301.698 97.7754C301.698 97.7754 291.909 78.576 309.688 64.3341C327.468 50.0921 360.252 75.0892 363.949 76.0414C367.642 76.9936 388.61 78.4337 378.025 115.247C368.933 146.855 367.666 148.186 367.666 148.186C367.666 148.186 360.882 129.875 357.036 127.083C351.032 122.725 337.871 123.772 337.871 123.772C337.871 123.772 344.143 107.121 334.34 104.763C324.537 102.404 311.616 94.0955 301.698 97.7788V97.7754Z" fill="#16202E"/>
<path d="M348.314 114.233C349.178 111.949 351.974 102.133 360.398 107.896C368.822 113.66 355.149 132.165 353.682 132.402C352.214 132.643 341.039 133.453 348.314 114.233V114.233Z" fill="#EEA886"/>
<path d="M326.881 172.787C326.874 173.519 326.871 174.244 326.85 174.963C351.817 166.583 356.652 153.971 356.652 153.971C348.866 159.477 326.816 166.834 326.816 166.834C326.864 168.653 326.891 170.717 326.881 172.787V172.787Z" fill="#A77860"/>
<path d="M417.854 364.394C417.854 364.394 415.492 366.373 412.988 366.353C408.664 366.315 403.744 361.619 399.227 365.885C394.71 370.151 404.222 388.304 407.648 390.428C411.073 392.556 418.86 388.734 427.193 378.663C435.525 368.593 417.857 364.394 417.857 364.394H417.854Z" fill="#EEA886"/>
<path d="M400.957 364.668C400.957 364.668 392.214 367.671 382.896 372.218C374.723 376.206 365.13 382.299 366.109 384.369C367.593 387.514 374.885 381.618 383.258 378.212C390.964 375.078 389.974 377.003 389.974 377.003C389.974 377.003 390.225 376.44 382.496 381.506C374.184 386.955 365.486 393.156 366.251 394.867C367.204 396.988 367.502 397.171 370.843 395.69C369.104 396.958 369.206 397.618 369.667 398.401C372.052 402.457 385.518 396.375 390.866 393.959C386.769 395.839 383.967 397.666 387.03 399.204C390.533 400.963 409.18 391.495 416.188 388.754C423.829 385.765 400.953 364.665 400.953 364.665L400.957 364.668Z" fill="#EEA886"/>
<path d="M408.844 364.669C408.844 364.669 410.745 375.793 425.214 390.022C425.214 390.022 458.384 353.429 464.301 346.581L438.348 331.522L408.844 364.669V364.669Z" fill="#323657"/>
<path d="M27.1603 407.069H483.52V414.29H27.1603V407.069Z" fill="white"/>
<path d="M261.234 115.684H243.221C239.947 115.684 237.291 118.34 237.291 121.614V139.627C237.291 142.9 239.947 145.557 243.221 145.557H261.234C264.507 145.557 267.164 142.9 267.164 139.627V121.614C267.164 118.34 264.507 115.684 261.234 115.684Z" fill="#4CA1F4"/>
<g opacity="0.69">
<path opacity="0.72" d="M223.034 76.1196H125.834C124.133 76.1196 122.75 77.5021 122.75 79.2032V82.3104C122.75 84.0115 124.133 85.394 125.834 85.394H223.034C224.735 85.394 226.117 84.0115 226.117 82.3104V79.1998C226.117 77.4987 224.735 76.1162 223.034 76.1162V76.1196Z" fill="#D9D9D9"/>
<path opacity="0.72" d="M111.419 91.1172H223.034C224.737 91.1172 226.117 92.4977 226.117 94.2007V97.3114C226.117 99.0144 224.737 100.395 223.034 100.395H111.419C109.716 100.395 108.336 99.0144 108.336 97.3114V94.2007C108.336 92.4977 109.716 91.1172 111.419 91.1172Z" fill="#D9D9D9"/>
</g>
<path d="M261.234 73.3203H243.221C239.947 73.3203 237.291 75.9769 237.291 79.2502V97.2636C237.291 100.537 239.947 103.194 243.221 103.194H261.234C264.507 103.194 267.164 100.537 267.164 97.2636V79.2502C267.164 75.9769 264.507 73.3203 261.234 73.3203V73.3203Z" fill="#4CA1F4"/>
<g opacity="0.69">
<path opacity="0.72" d="M151.095 118.482H223.444C224.92 118.482 226.117 119.679 226.117 121.156V125.087C226.117 126.563 224.92 127.76 223.444 127.76H151.095C149.619 127.76 148.422 126.563 148.422 125.087V121.156C148.422 119.679 149.619 118.482 151.095 118.482Z" fill="#D9D9D9"/>
<path opacity="0.72" d="M223.339 133.483H133.333C131.798 133.483 130.554 134.727 130.554 136.262V139.983C130.554 141.518 131.798 142.761 133.333 142.761H223.339C224.874 142.761 226.117 141.518 226.117 139.983V136.262C226.117 134.727 224.874 133.483 223.339 133.483V133.483Z" fill="#D9D9D9"/>
</g>
<g opacity="0.69">
<path opacity="0.72" d="M116.614 160.85H222.895C224.674 160.85 226.117 162.292 226.117 164.072V166.905C226.117 168.685 224.674 170.127 222.895 170.127H116.614C114.834 170.127 113.391 168.685 113.391 166.905V164.072C113.391 162.292 114.834 160.85 116.614 160.85Z" fill="#D9D9D9"/>
<path opacity="0.72" d="M223.231 175.848H125.641C124.045 175.848 122.751 177.142 122.751 178.738V182.238C122.751 183.834 124.045 185.129 125.641 185.129H223.231C224.827 185.129 226.121 183.834 226.121 182.238V178.738C226.121 177.142 224.827 175.848 223.231 175.848Z" fill="#D9D9D9"/>
</g>
<path d="M243.221 158.051H261.234C264.509 158.051 267.164 160.706 267.164 163.981V181.994C267.164 185.269 264.509 187.924 261.234 187.924H243.221C239.946 187.924 237.291 185.269 237.291 181.994V163.981C237.291 160.706 239.946 158.051 243.221 158.051Z" fill="#4CA1F4"/>
<path d="M251.21 137.842L242.921 130.638C242.24 130.048 242.169 129.018 242.759 128.337C243.348 127.656 244.378 127.585 245.059 128.174L250.922 133.267L259.254 123.942C259.854 123.271 260.884 123.213 261.555 123.813C262.226 124.413 262.283 125.443 261.683 126.114L251.21 137.838V137.842Z" fill="white"/>
<path d="M251.21 180.208L242.921 173.004C242.24 172.414 242.169 171.384 242.759 170.703C243.348 170.022 244.378 169.951 245.059 170.54L250.922 175.633L259.254 166.308C259.854 165.637 260.884 165.58 261.555 166.179C262.226 166.779 262.283 167.809 261.683 168.48L251.21 180.204V180.208Z" fill="white"/>
<path d="M251.672 91.9003L251.621 91.2429C251.468 89.8774 251.926 88.3864 253.186 86.8717C254.325 85.5333 254.955 84.5472 254.955 83.4087C254.955 82.121 254.145 81.2603 252.553 81.2366C251.645 81.2366 250.631 81.5416 250.001 82.0194L249.395 80.4268C250.228 79.8202 251.668 79.417 253.01 79.417C255.917 79.417 257.232 81.2129 257.232 83.1308C257.232 84.8488 256.273 86.089 255.06 87.5291C253.949 88.8439 253.542 89.9553 253.62 91.2429L253.644 91.9003H251.672V91.9003ZM251.116 95.4379C251.116 94.5027 251.746 93.8453 252.634 93.8453C253.522 93.8453 254.125 94.5027 254.125 95.4379C254.125 96.3223 253.542 97.0034 252.61 97.0034C251.726 97.0034 251.119 96.3223 251.119 95.4379H251.116Z" fill="white"/>
<path d="M49.9256 326.877H31.9122C28.6389 326.877 25.9823 329.534 25.9823 332.807V350.82C25.9823 354.094 28.6389 356.75 31.9122 356.75H49.9256C53.1989 356.75 55.8555 354.094 55.8555 350.82V332.807C55.8555 329.534 53.1989 326.877 49.9256 326.877Z" fill="#4CA1F4"/>
<path d="M31.9122 284.51H49.9256C53.2006 284.51 55.8555 287.165 55.8555 290.44V308.453C55.8555 311.728 53.2006 314.383 49.9256 314.383H31.9122C28.6372 314.383 25.9823 311.728 25.9823 308.453V290.44C25.9823 287.165 28.6372 284.51 31.9122 284.51Z" fill="#4CA1F4"/>
<path d="M39.901 349.031L31.6126 341.827C30.9315 341.237 30.8604 340.207 31.45 339.526C32.0396 338.845 33.0697 338.774 33.7508 339.364L39.6129 344.457L47.9453 335.131C48.5451 334.46 49.5752 334.403 50.2461 335.003C50.917 335.602 50.9746 336.632 50.3749 337.303L39.901 349.028V349.031Z" fill="white"/>
<path d="M150.18 480.71C148.801 486.69 149.038 500.587 149.038 500.587C148.662 513.768 150.132 527.302 150.508 534.862C150.519 535.096 150.536 535.329 150.542 535.567C150.641 537.352 150.756 539.243 150.888 541.158H52.2888C52.3227 539.341 52.36 537.471 52.3905 535.567C52.587 524.408 52.7666 512.186 52.7802 503.46C30.2465 497.51 5.9135 489.744 6.37095 484.064C6.83856 478.219 24.3911 392.161 29.3011 388.647C32.6489 386.245 53.6611 377.824 64.5586 373.687C69.5973 371.765 73.4399 370.427 74.2261 370.383C76.72 370.227 107.457 373.172 107.457 373.172C107.457 373.172 111.869 374.683 116.369 376.75C124.058 380.277 136.043 385.794 144.646 389.891C147.425 391.209 150.898 392.998 153.785 394.53C153.436 404.973 152.816 416.172 151.928 428.144C151.928 428.144 150.332 454.296 150.18 480.71V480.71ZM52.4887 490.665C51.2756 474.282 46.3352 446.137 45.7862 444.144C45.7727 444.144 43.4685 446.34 43.4549 446.34C43.4549 446.33 42.6959 446.445 42.6857 446.435C42.6756 446.404 41.9877 446.699 41.9877 446.699C41.9877 446.699 27.068 467.539 26.9054 478.744C26.824 484.088 38.4806 487.914 52.4921 490.669L52.4887 490.665Z" fill="#DBD8E3"/>
<path d="M154.551 541.157H141.634C141.339 539.338 141.02 537.471 140.685 535.566C138.496 523.232 135.616 509.295 134.081 495.616C131.241 470.259 127.334 445.418 125.223 430.661C119.734 392.239 112.411 375.049 112.411 375.049C115.908 376.092 154.503 394.333 154.503 394.333C154.158 404.952 153.643 416.348 152.738 428.54C152.738 428.54 151.887 458.328 150.173 486.579C149.59 490.624 149.295 494.762 149.62 498.994C150.051 504.521 150.651 510.552 151.369 516.845C151.379 516.93 151.382 517.011 151.396 517.082C151.569 518.576 151.752 520.078 151.928 521.599C151.928 521.626 151.938 521.64 151.938 521.663C152.491 526.231 153.104 530.894 153.754 535.563C154.012 537.43 154.276 539.294 154.551 541.154V541.157Z" fill="#323657"/>
<path d="M117.606 498.655C114.672 505.581 104.557 522.68 104.557 522.68C104.557 522.68 97.2376 520.884 86.4689 518.098C85.7607 524.208 85.0458 529.955 84.3613 535.566C84.1342 537.443 83.9038 539.304 83.687 541.157H45.2747C45.7321 539.277 46.1659 537.409 46.5759 535.566C48.9241 525.163 50.5709 515.486 50.8081 508.424C25.052 501.068 -0.195872 492.827 0.193808 488.882C0.776634 483.047 20.1217 392.828 25.0283 389.314C27.8577 387.281 48.853 379.84 59.1541 375.78C61.0347 375.035 67.4627 372.622 69.1502 371.979C71.3358 374.411 86.3978 391.036 91.7177 453.835C92.3785 461.646 91.0096 475.901 89.4881 490.187C105.082 494.348 118.101 497.476 117.599 498.658L117.606 498.655ZM47.3688 476.243C45.8168 463.733 44.0582 451.145 42.7875 446.739C42.7875 446.739 38.4434 455.506 38.7823 468.362C38.8467 470.957 42.1538 473.617 47.3688 476.243Z" fill="#323657"/>
<path d="M72.6093 371.369C72.6093 371.369 76.5197 363.982 75.4387 343.01C75.1405 337.202 105.956 356.788 105.956 356.788C105.956 356.788 105.851 358.79 105.783 361.491C105.746 362.616 105.729 363.849 105.729 365.117C105.729 365.466 105.732 365.815 105.732 366.167C105.739 366.74 105.742 367.309 105.752 367.875C105.766 368.58 105.793 369.268 105.827 369.932C105.861 370.688 105.912 371.402 105.983 372.056C106.112 373.324 106.854 375.56 107.125 376.174C108.538 379.433 84.1438 379.62 72.6059 371.369H72.6093Z" fill="#EEA987"/>
<path d="M98.4458 384.706L104.125 392.337C104.125 392.337 100.797 396.793 94.8879 393.503L98.4458 384.706Z" fill="#E8734D"/>
<path d="M102.605 392.645C102.605 392.645 123.414 443.466 118.972 508.021L112.408 519.932L105.008 509.79C105.008 509.79 103.811 424.057 97.9053 392.445L102.602 392.649L102.605 392.645Z" fill="#E8734D"/>
<path d="M104.527 377.594L98.4449 384.706C98.4449 384.706 88.686 382.815 85.8193 377.719C82.9526 372.623 104.524 377.594 104.524 377.594H104.527Z" fill="#EEA987"/>
<path d="M105.922 371.365C105.922 371.365 105.214 376.787 98.4471 384.706L105.838 394.634L109.836 374.039L105.926 371.365H105.922Z" fill="#C4C1CC"/>
<path d="M74.4608 364.842C74.4608 364.842 88.5706 380.805 98.4414 384.705L93.8534 396.057L71.3332 371.212L74.4642 364.842H74.4608Z" fill="#C4C1CC"/>
<path d="M219.536 509.248C219.536 509.248 200.804 491.082 188.521 488.059C182.842 486.663 175.36 478.822 168.254 469.606C165.909 466.569 163.612 463.384 161.426 460.233C161.419 460.226 161.419 460.219 161.419 460.219C152.697 447.628 145.863 435.558 145.863 435.558C145.863 435.558 120.086 405.349 140.77 391.883C140.77 391.883 149.637 391.69 154.497 394.333C159.498 397.047 170.162 419.306 171.971 423.247C173.777 427.185 193.366 463.794 194.681 464.618C195.992 465.441 198.178 468.45 206.016 472.672C215.612 477.84 230.688 492.963 230.688 492.963L219.536 509.251V509.248Z" fill="#323657"/>
<path d="M129.628 530.274C129.628 530.274 127.012 530.169 125.89 529.565C125.89 529.565 123.932 528.308 122.488 527.502C122.027 527.248 121.624 527.034 121.346 526.926C120.191 526.468 117.517 525.808 115.054 523.927C112.59 522.05 104.559 514.537 104.559 514.537L109.751 506.561L112.146 498.662C112.146 498.662 130.868 500.522 133.365 502.007C133.609 502.152 133.843 502.305 134.053 502.467C136.046 503.928 136.913 505.853 137.872 506.74C138.221 507.069 141.484 510.559 141.301 511.976C141.05 513.941 140.078 515.202 138.861 515.798C138.861 515.798 138.201 519.624 136.222 521.335C136.222 521.335 135.727 524.886 132.66 526.312C132.66 526.312 131.752 529.857 129.628 530.28V530.274Z" fill="#EFAA88"/>
<path d="M99.8141 288.902C99.8141 288.902 133.652 280.746 126.526 323.587C119.396 366.428 111.281 369.905 90.6684 361.363C70.0561 352.82 71.4894 325.421 70.2594 312.012C69.0327 298.604 88.9911 289.529 99.8141 288.902Z" fill="#EEA886"/>
<path d="M82.044 318.572C81.5425 314.81 74.0708 313.536 73.5523 319.195C73.0339 324.857 77.1679 334.715 79.9803 333.698C82.7928 332.681 82.7352 323.759 82.044 318.568V318.572Z" fill="#EEA886"/>
<path d="M72.2374 333.912C72.2374 333.912 72.9151 320.436 77.8284 319.944C82.7384 319.453 83.5754 324.861 83.5754 324.861L88.5565 325.725C88.5565 325.725 86.8148 313.95 91.6943 311.815C96.5737 309.681 123.601 317.844 127.491 314.323C131.381 310.802 129.175 286.896 121.998 283.724C114.821 280.553 95.0286 273.505 80.7493 283.477C80.7493 283.477 69.4893 282.359 67.9543 291.457C66.4193 300.555 69.0827 327.209 72.2408 333.912H72.2374Z" fill="#16202E"/>
<path d="M118.528 498.658L104.557 522.68C104.557 522.68 67.5442 513.144 58.9102 510.708L78.6518 487.212C78.6518 487.212 107.759 493.86 118.531 498.662L118.528 498.658Z" fill="#323657"/>
<path d="M105.828 369.931H105.821C87.6724 368.081 80.6379 354.11 80.6379 354.11C92.0538 365.425 105.726 365.116 105.726 365.116C105.726 365.465 105.73 365.814 105.73 366.167C105.737 366.739 105.74 367.309 105.75 367.875C105.764 368.579 105.791 369.267 105.825 369.931H105.828Z" fill="#A77860"/>
<path d="M132.299 446.065L122.429 537.837H252.348L262.219 446.065H132.299Z" fill="#FFC955"/>
<path d="M112.089 529.578H133.789V537.836H112.089V529.578Z" fill="#FFC955"/>
<path d="M21.2367 537.646H374.348V543.238H21.2367V537.646Z" fill="url(#paint1_linear_1_689)"/>
<path d="M185.111 490.475C184.068 495.585 186.45 500.386 190.435 501.199C194.42 502.013 198.496 498.533 199.54 493.423C200.583 488.313 198.201 483.511 194.216 482.698C190.232 481.885 186.155 485.365 185.111 490.475Z" fill="#CFA345"/>
<path d="M460.511 322.688H343.597C337.982 322.688 333.425 327.246 333.425 332.861V445.228C333.425 450.842 337.982 455.4 343.597 455.4H460.511C466.126 455.4 470.684 450.842 470.684 445.228V332.861C470.684 327.246 466.126 322.688 460.511 322.688V322.688Z" fill="#E0E0E0"/>
<path d="M457.966 440.097L458.918 439.091L434.311 415.873L409.405 421.267L385.617 394.139L364.87 395.311L348.713 373.021L347.588 373.835L364.192 396.738L385.021 395.562L408.9 422.795L433.89 417.381L457.966 440.097Z" fill="#377B93"/>
<path d="M405.543 421.25C405.113 423.246 406.38 425.215 408.373 425.645C410.368 426.076 412.337 424.808 412.767 422.816C413.198 420.823 411.934 418.851 409.938 418.421C407.942 417.987 405.974 419.255 405.543 421.25Z" fill="#E6E6E6"/>
<path d="M408.229 426.323C410.594 426.835 412.935 425.327 413.447 422.962C413.959 420.596 412.451 418.255 410.086 417.743C407.721 417.232 405.379 418.739 404.867 421.105C404.356 423.47 405.864 425.811 408.229 426.323ZM409.794 419.095C411.414 419.444 412.444 421.047 412.095 422.667C411.746 424.286 410.143 425.317 408.524 424.968C406.904 424.619 405.874 423.016 406.223 421.396C406.572 419.776 408.175 418.746 409.794 419.095Z" fill="#377B93"/>
<path d="M381.714 394.301C381.28 396.297 382.551 398.266 384.543 398.696C386.539 399.13 388.508 397.863 388.938 395.867C389.372 393.871 388.105 391.902 386.109 391.472C384.113 391.038 382.144 392.305 381.714 394.301Z" fill="#E6E6E6"/>
<path d="M384.397 399.374C386.762 399.885 389.103 398.378 389.615 396.012C390.127 393.647 388.619 391.306 386.254 390.794C383.889 390.282 381.547 391.79 381.035 394.155C380.524 396.521 382.032 398.862 384.397 399.374ZM385.962 392.146C387.582 392.495 388.612 394.098 388.263 395.718C387.914 397.337 386.311 398.367 384.692 398.018C383.072 397.669 382.042 396.067 382.391 394.447C382.74 392.827 384.343 391.797 385.962 392.146Z" fill="#377B93"/>
<path d="M361.118 395.128C360.684 397.124 361.951 399.093 363.947 399.523C365.943 399.957 367.912 398.69 368.342 396.694C368.772 394.698 367.505 392.729 365.512 392.299C363.517 391.865 361.548 393.133 361.118 395.128Z" fill="#E6E6E6"/>
<path d="M363.803 400.201C366.168 400.713 368.51 399.205 369.021 396.84C369.533 394.474 368.025 392.133 365.66 391.621C363.295 391.11 360.953 392.617 360.442 394.983C359.93 397.348 361.438 399.689 363.803 400.201ZM365.369 392.973C366.988 393.322 368.018 394.925 367.669 396.545C367.32 398.164 365.718 399.195 364.098 398.846C362.478 398.497 361.448 396.894 361.797 395.274C362.146 393.654 363.749 392.624 365.369 392.973Z" fill="#377B93"/>
<path d="M430.508 416.184C430.074 418.18 431.342 420.149 433.338 420.579C435.333 421.009 437.302 419.742 437.732 417.75C438.163 415.754 436.896 413.785 434.903 413.355C432.907 412.921 430.939 414.188 430.508 416.184Z" fill="#E6E6E6"/>
<path d="M433.19 421.261C435.555 421.772 437.896 420.264 438.408 417.899C438.92 415.534 437.412 413.192 435.047 412.681C432.681 412.169 430.34 413.677 429.828 416.042C429.317 418.407 430.825 420.749 433.19 421.261ZM434.755 414.033C436.375 414.382 437.405 415.985 437.056 417.604C436.707 419.224 435.104 420.254 433.485 419.905C431.865 419.556 430.835 417.953 431.184 416.334C431.533 414.714 433.136 413.684 434.755 414.033Z" fill="#377B93"/>
<path d="M422.683 430.711H437.816V433.625H422.683V430.711Z" fill="white"/>
<path d="M412.156 400.804H427.289V403.718H412.156V400.804Z" fill="white"/>
<path d="M380.761 421.644H395.895V424.558H380.761V421.644Z" fill="white"/>
<path d="M367.191 380.714H382.324V383.628H367.191V380.714Z" fill="white"/>
<path d="M345.207 405.104H360.34V408.019H345.207V405.104Z" fill="white"/>
<path d="M406.681 332.83H460.582V338.12H406.681V332.83Z" fill="#4E8C63"/>
<path d="M406.681 347.062H460.582V352.351H406.681V347.062Z" fill="white"/>
<path d="M406.681 361.297H460.582V366.586H406.681V361.297Z" fill="white"/>
<path d="M386.691 332.83H395.688V338.12H386.691V332.83Z" fill="#4E8C63"/>
<path d="M386.691 347.062H395.688V352.351H386.691V347.062Z" fill="white"/>
<path d="M386.691 361.297H395.688V366.586H386.691V361.297Z" fill="white"/>
<path d="M244.279 403.504C244.279 403.504 251.354 387.477 243.147 388.801C243.147 388.801 240.352 391.112 237.485 395.816C235.313 399.38 230.796 408.814 230.966 412.006C231.132 415.195 233.402 417.577 235.852 422.7C235.852 422.7 240.945 432.212 241.162 433.357L246.546 430.562C246.546 430.562 241.982 421.47 238.766 413.473L244.279 403.504V403.504Z" fill="#DBD8E3"/>
<path d="M199.665 433.124L308.07 414.672L311.207 433.101L202.802 451.553L199.665 433.124Z" fill="#E8734D"/>
<path d="M308.438 416.888L314.227 415.902L316.608 429.892L310.819 430.878L308.438 416.888Z" fill="#2D3038"/>
<path d="M285.225 539.3H286.56C286.56 539.3 286.116 534.258 287.349 534.207C288.583 534.156 291.649 538.31 293.479 538.951C295.309 539.595 304.699 540.137 304.749 538.405C304.8 536.677 301.141 535.982 300.006 535.488C298.87 534.993 293.334 529.605 292.344 528.965C291.355 528.321 289.667 523.855 289.667 523.855L284.425 523.621C284.425 523.621 284.13 527.796 283.812 530.008C283.693 530.825 283.608 531.571 283.595 532.079C283.544 533.956 285.225 539.296 285.225 539.296V539.3Z" fill="#EEA886"/>
<path d="M251.458 538.304H252.569V533.61C253.494 533.688 256.612 536.636 257.574 537.49C258.536 538.341 259.858 538.304 263.921 538.561C267.98 538.819 268.363 536.389 267.719 535.562C267.075 534.735 265.002 534.373 263.921 533.858C262.84 533.339 258.577 528.531 257.438 527.396C256.303 526.257 255.609 523.001 255.609 523.001L250.865 523.414C250.865 523.414 250.895 526.396 250.353 528.894C250.353 528.894 250.35 528.907 250.35 528.914C250.302 529.127 250.251 529.337 250.197 529.541C249.492 532.14 251.458 538.307 251.458 538.307V538.304Z" fill="#EEA886"/>
<path d="M269.005 431.931C269.005 431.931 270.797 436.17 270.957 437.244C271.116 438.315 275.314 448.464 276.527 455.305C277.256 459.402 279.262 472.221 279.424 473.85C279.702 476.639 281.017 482.799 281.217 485.649C281.329 487.242 289.177 511.693 291.074 524.461C291.074 524.461 286.561 525.129 283.172 524.234C283.172 524.234 276.283 511.039 272.461 492.325C270.157 481.054 268.12 475.043 266.335 470.401C264.549 465.759 254.444 452.611 253.387 451.134C252.333 449.656 245.722 441.493 251.981 432.649C258.239 423.805 269.001 431.931 269.001 431.931H269.005Z" fill="#323657"/>
<path d="M246.411 469.493C246.984 473.302 246.381 478.303 245.185 492.223C243.989 506.143 247.279 522.998 247.279 522.998C251.409 524.411 256.17 522.998 256.17 522.998C256.062 522.018 256.17 489.068 256.17 486.134C256.17 483.199 257.014 479.865 257.231 476.494C257.38 474.196 258.447 469.964 259.65 465.64C260.009 464.346 260.382 463.045 260.745 461.784C260.948 461.076 261.148 460.381 261.341 459.71C263.035 453.838 265.312 431.162 265.312 431.162C265.312 431.162 252.69 420.996 246.547 430.566C240.403 440.135 243.558 447.095 243.775 448.291C243.992 449.487 245.842 465.691 246.415 469.496L246.411 469.493Z" fill="#323657"/>
<path d="M251.64 449.043C251.738 449.26 258.027 463.217 259.644 465.64C260.003 464.346 260.376 463.044 260.738 461.784C260.738 461.784 251.85 449.351 251.64 449.046V449.043Z" fill="#131521"/>
<path d="M251.458 538.303H252.569V533.61C253.494 533.688 256.612 536.636 257.574 537.49C258.536 538.34 259.858 538.303 263.921 538.561C267.98 538.818 268.363 536.388 267.719 535.562C267.075 534.735 265.002 534.372 263.921 533.857C259.577 534.088 254.277 527.985 251.736 527.995C250.384 528.002 250.397 528.751 250.356 528.893C250.356 528.893 250.353 528.907 250.353 528.913C250.306 529.127 250.255 529.337 250.201 529.54C249.496 532.139 251.461 538.306 251.461 538.306L251.458 538.303Z" fill="#C6C9CC"/>
<path d="M285.225 539.3H286.56C286.56 539.3 286.116 534.257 287.349 534.207C288.583 534.156 291.649 538.31 293.479 538.951C295.309 539.594 304.699 540.137 304.749 538.405C304.8 536.677 301.141 535.982 300.006 535.487C296.132 535.477 289.833 531.215 287.878 530.35C285.926 529.486 283.812 530.005 283.812 530.005C283.693 530.821 283.608 531.567 283.595 532.075C283.544 533.952 285.225 539.293 285.225 539.293V539.3Z" fill="#C6C9CC"/>
<path d="M257.859 378.7C257.859 378.7 255.847 384.027 257.412 388.148C257.412 388.148 250.029 387.667 249.747 386.806C249.466 385.945 250.045 377.962 249.029 375.6C248.012 373.242 257.859 378.7 257.859 378.7V378.7Z" fill="#EEA886"/>
<path d="M258.575 386.345C258.575 386.345 262.94 387.897 264.912 388.327C266.884 388.757 271.008 390.712 270.672 398.069C270.337 405.425 269.107 411.806 268.659 414.967C268.212 418.129 268.49 426.173 269.218 430.084C269.218 430.084 258.758 432.727 246.451 430.084C246.451 430.084 248.633 423.418 248.576 421.694C248.518 419.969 241.304 405.774 240.968 403.531C240.633 401.288 239.179 391.404 242.48 389.221C245.78 387.039 248.464 387.324 249.863 386.348C251.263 385.372 256.535 385.647 258.575 386.348V386.345Z" fill="#DBD8E3"/>
<path d="M241.732 441.642C259.603 446.383 273.824 441.659 273.824 441.659C272.526 438.992 271.574 436.336 270.883 433.757C270.395 431.937 270.036 430.158 269.782 428.454C268.328 418.715 270.222 411.261 270.222 411.261C268.159 394.284 242.47 389.215 240.413 394.596C238.357 399.977 244.402 423.107 244.707 425.089C245.012 427.071 241.732 441.639 241.732 441.639V441.642Z" fill="#DBD8E3"/>
<path d="M251.425 357.326C254.394 356.309 262.418 355.222 264.474 367.539C266.531 379.856 262.052 380.066 257.453 379.717C252.855 379.368 245.661 371.053 245.109 368.525C244.557 365.997 242.957 360.23 251.425 357.326V357.326Z" fill="#EEA886"/>
<path d="M262.816 362.056C262.816 362.056 260.367 367.298 257.151 369.128C257.151 369.128 255.138 374.698 250.777 376.952C250.777 376.952 239.202 369.284 245.918 360.175C252.634 351.063 262.061 358.318 262.816 362.059V362.056Z" fill="#16202E"/>
<path d="M257.439 367.308C257.179 366.668 255.444 365.624 254.668 367.383C253.892 369.142 256.684 372.239 257.45 372.073C258.215 371.907 258.429 369.741 257.443 367.308H257.439Z" fill="#EEA886"/>
<path d="M246.312 361.579C246.058 361.186 238.393 357.634 236.801 365.048C235.205 372.463 242.975 381.083 244.333 384.79C245.696 388.497 243.72 397.185 243.72 397.185C243.72 397.185 248.393 392.766 249.806 388.145C251.358 383.065 251.88 370.263 246.312 361.579V361.579Z" fill="#16202E"/>
<path d="M245.923 361.328C245.923 361.328 248.268 363.185 248.573 366.113C248.573 366.113 249.014 363.829 248.068 362.433C247.123 361.037 245.927 361.328 245.927 361.328H245.923Z" fill="#E54242"/>
<path d="M270.887 433.757C270.399 431.937 270.04 430.162 269.785 428.457L269.569 426.824C269.569 426.824 268.606 425.953 268.21 424.754C267.81 423.558 264.852 408.838 264.852 408.838C264.852 408.838 261.721 422.66 270.883 433.757H270.887Z" fill="#1D3B54"/>
<path d="M284.046 434.611C284.046 434.611 286.35 436.898 287.096 437.129C287.841 437.359 289.278 436.092 294.571 435.699C295.035 435.665 295.852 436.081 295.658 436.695C295.465 437.308 293.165 438.979 292.178 439.233C291.192 439.487 286.543 441.337 284.276 440.429C282.009 439.521 280.468 436.637 280.468 436.637L284.049 434.607L284.046 434.611Z" fill="#EEA886"/>
<path d="M266.144 388.731C266.144 388.731 272.263 391.157 272.626 399.662C272.989 408.167 273.321 412.61 273.653 413.921C273.985 415.233 274.618 420.512 276.16 423.687C277.655 426.767 287.461 436.516 287.461 436.516L282.714 440.979C282.714 440.979 269.041 427.262 268.211 424.751C267.381 422.243 263.962 404.789 263.69 401.844C263.47 399.473 260.343 388.904 266.14 388.728L266.144 388.731Z" fill="#DBD8E3"/>
<path d="M323.823 411.37C323.833 411.661 323.854 411.952 323.874 412.244H312.682C312.661 411.952 312.651 411.661 312.641 411.37H323.823ZM448.653 408.279C448.653 408.621 448.653 408.95 448.643 409.292C448.622 410.709 448.561 412.112 448.443 413.508C448.151 417.482 447.508 421.366 446.545 425.13C443.482 437.177 437.2 447.935 428.667 456.427C428.335 456.769 428.007 457.091 427.675 457.409C426.339 458.694 424.943 459.93 423.5 461.093C411.796 470.618 396.869 476.321 380.608 476.321C380.337 476.321 380.066 476.321 379.795 476.311C367.457 476.172 355.906 472.739 345.977 466.857C341.471 464.186 337.306 461.015 333.541 457.409C325.7 449.89 319.649 440.514 316.108 429.986C315.576 428.39 315.094 426.774 314.671 425.127C313.929 422.196 313.366 419.184 313.014 416.124V416.114C312.943 415.463 312.875 414.809 312.824 414.145C312.763 413.511 312.712 412.881 312.685 412.237C312.665 411.946 312.655 411.654 312.644 411.363C312.614 410.719 312.594 410.089 312.583 409.445C312.573 409.052 312.573 408.662 312.573 408.269C312.573 374.211 337.598 345.995 370.27 341.017C370.903 340.915 371.534 340.827 372.177 340.746C372.879 340.665 373.584 340.587 374.285 340.526C374.919 340.465 375.559 340.414 376.193 340.377C377.66 340.275 379.134 340.234 380.608 340.234C381.862 340.234 383.109 340.265 384.342 340.336C386.46 340.448 388.547 340.668 390.614 340.97C410.339 343.87 427.312 355.242 437.711 371.273C439.788 374.465 441.605 377.847 443.133 381.391C443.235 381.612 443.323 381.842 443.414 382.066C443.516 382.276 443.594 382.496 443.675 382.709C444.197 383.963 444.668 385.237 445.102 386.525C446.227 389.856 447.101 393.309 447.691 396.853C447.86 397.785 447.992 398.73 448.121 399.683C448.131 399.842 448.151 400.004 448.172 400.174C448.182 400.184 448.182 400.194 448.182 400.215C448.192 400.296 448.202 400.374 448.202 400.455C448.223 400.547 448.233 400.635 448.243 400.736V400.808C448.253 400.848 448.263 400.899 448.263 400.95C448.273 401.021 448.284 401.092 448.284 401.16C448.304 401.329 448.324 401.502 448.334 401.672C448.436 402.715 448.514 403.769 448.565 404.823C448.575 404.965 448.585 405.114 448.585 405.253C448.595 405.484 448.605 405.714 448.616 405.945C448.646 406.717 448.656 407.49 448.656 408.272L448.653 408.279ZM433.405 429.447L433.665 428.783C433.855 428.292 434.038 427.801 434.218 427.299L434.628 426.096C434.729 425.794 434.828 425.493 434.919 425.191C434.929 425.171 434.929 425.151 434.94 425.13C434.96 425.069 434.98 425.019 434.99 424.961C435.15 424.459 435.292 423.948 435.431 423.436L435.59 422.843C435.739 422.301 435.871 421.749 436 421.196C436.01 421.145 436.031 421.084 436.041 421.027C436.153 420.515 436.261 420.004 436.363 419.492C436.414 419.282 436.454 419.072 436.495 418.858C436.613 418.214 436.725 417.564 436.827 416.91C437.007 415.764 437.139 414.612 437.247 413.447C437.288 413.054 437.318 412.654 437.349 412.251C437.349 412.251 437.339 412.251 437.349 412.24C437.349 412.112 437.359 411.99 437.369 411.861C437.4 411.319 437.43 410.777 437.45 410.234V410.075C437.461 409.953 437.461 409.824 437.461 409.696C437.471 409.225 437.481 408.75 437.481 408.279C437.481 407.839 437.481 407.395 437.461 406.965C437.43 405.199 437.311 403.461 437.098 401.746C437.088 401.567 437.068 401.384 437.037 401.204C437.037 401.194 437.037 401.184 437.027 401.174C437.037 401.163 437.027 401.163 437.027 401.163C437.037 401.153 437.037 401.143 437.027 401.133C437.027 401.092 437.027 401.052 437.017 401.021V401.001C437.017 400.98 437.017 400.97 437.007 400.96C435.922 392.479 432.961 384.587 428.566 377.701C423.425 369.66 416.32 362.995 407.93 358.4C405.71 357.177 403.403 356.103 401.024 355.188C400.272 354.896 399.499 354.615 398.726 354.365C394.42 352.911 389.872 351.965 385.166 351.603C383.661 351.474 382.143 351.413 380.608 351.413C380.147 351.413 379.693 351.413 379.232 351.433C378.7 351.444 378.178 351.464 377.646 351.484C377.264 351.505 376.884 351.535 376.501 351.566C376.389 351.566 376.291 351.576 376.189 351.586C375.556 351.627 374.915 351.688 374.282 351.755C374.122 351.776 373.96 351.796 373.8 351.816C373.55 351.847 373.289 351.877 373.038 351.918C372.747 351.949 372.465 351.989 372.174 352.04C371.53 352.131 370.9 352.24 370.266 352.352C370.205 352.362 370.144 352.372 370.097 352.382C369.605 352.474 369.114 352.572 368.623 352.684C368.592 352.694 368.562 352.694 368.531 352.704C368.331 352.745 368.121 352.796 367.918 352.843C367.457 352.945 367.003 353.053 366.552 353.175C366.352 353.216 366.149 353.267 365.959 353.324C365.438 353.463 364.916 353.605 364.394 353.765C363.892 353.907 363.401 354.066 362.91 354.226C362.679 354.297 362.449 354.375 362.229 354.456C361.246 354.788 360.27 355.147 359.318 355.54C359.057 355.642 358.796 355.75 358.535 355.862C358.132 356.032 357.742 356.204 357.339 356.384C357.017 356.526 356.695 356.665 356.387 356.825C355.916 357.035 355.455 357.265 354.991 357.495C354.469 357.756 353.957 358.028 353.456 358.309C352.873 358.62 352.31 358.942 351.748 359.271C350.582 359.952 349.461 360.677 348.356 361.44C347.885 361.762 347.424 362.09 346.96 362.443C346.377 362.853 345.815 363.286 345.262 363.727C344.771 364.117 344.28 364.52 343.798 364.93C343.297 365.35 342.816 365.774 342.331 366.214C330.909 376.614 323.742 391.611 323.742 408.272C323.742 408.666 323.742 409.055 323.752 409.448C323.762 410.092 323.783 410.722 323.823 411.366C323.833 411.658 323.854 411.949 323.874 412.24C323.925 412.884 323.976 413.514 324.043 414.148C324.223 415.954 324.494 417.733 324.847 419.488C325.229 421.406 325.711 423.294 326.283 425.13C326.734 426.598 327.246 428.041 327.818 429.447C331.634 438.972 337.957 447.224 345.977 453.387C347.885 454.854 349.881 456.2 351.961 457.413C360.151 462.201 369.65 465 379.795 465.142C380.066 465.152 380.337 465.152 380.608 465.152C391.058 465.152 400.854 462.333 409.265 457.413C418.38 452.093 425.879 444.303 430.846 434.957C431.097 434.476 431.348 433.995 431.588 433.51L432.029 432.585C432.208 432.223 432.371 431.863 432.54 431.491L432.7 431.128C432.842 430.806 432.981 430.484 433.113 430.156L433.405 429.444V429.447Z" fill="#323657"/>
<path opacity="0.1" d="M340.535 448.35C318.405 426.221 318.405 390.342 340.535 368.212C362.665 346.083 398.544 346.083 420.673 368.212C442.803 390.342 442.803 426.221 420.673 448.35C398.544 470.48 362.665 470.48 340.535 448.35Z" fill="#B8B8B8"/>
<path opacity="0.3" d="M342.333 366.218C342.333 366.218 416.135 357.069 430.841 434.96C435.074 427.004 437.473 417.923 437.473 408.283C437.473 376.874 412.011 351.413 380.603 351.413C365.863 351.413 352.434 357.021 342.33 366.218H342.333Z" fill="#869AC2"/>
<path d="M428.673 498.248H459.996V500.108H428.673V498.248Z" fill="url(#paint2_linear_1_689)"/>
<path d="M455.799 589.507H453.055V504.946H455.799V589.507Z" fill="#706865"/>
<path d="M411.803 497.719H433.574V500.375H411.803V497.719Z" fill="#CCBDB7"/>
<path d="M418.564 475.063H426.809V500.105H418.564V475.063Z" fill="#FFAB55"/>
<path d="M350.596 500.139H471.23V504.947H350.596V500.139Z" fill="#B59074"/>
<path d="M494.389 471.037C494.389 471.037 495.707 489.539 492.092 491.755C489.828 493.141 480.798 497.82 481.065 498.698C481.333 499.575 486.165 506.505 486.165 506.505C486.165 506.505 503.511 495.082 504.07 491.484C504.615 487.966 503.216 464.393 500.834 463.305C499.048 462.492 498.106 463.162 495.856 464.836C492.698 467.181 494.392 471.037 494.392 471.037H494.389Z" fill="#FFC955"/>
<path d="M462.772 476.32L461.244 475.755C461.244 475.755 463.151 471.278 463.982 471.387C464.941 471.512 466.137 471.827 466.137 471.827L462.772 476.317V476.32Z" fill="#EAD8CF"/>
<path d="M462.419 477.093C462.616 476.948 465.669 471.089 465.669 471.089L472.195 471.977L468.668 478.916L462.419 477.093V477.093Z" fill="#DA9B5B"/>
<path d="M473.044 577.963C473.044 577.963 473.583 581.707 473.651 582.27C473.718 582.832 479.652 581.937 479.652 581.937L480.133 577.482C480.133 577.482 473.786 577.434 473.044 577.963V577.963Z" fill="#424773"/>
<path d="M473.589 581.792C473.589 581.792 471.708 584.048 469.892 585.031C468.073 586.014 465.216 586.403 464.142 587.42C463.366 588.155 461.316 591.317 468.865 591.252C476.415 591.188 480.058 591.7 480.864 590.487C481.674 589.274 479.692 581.534 479.692 581.534C479.692 581.534 477.903 582.178 473.586 581.788L473.589 581.792Z" fill="#292C47"/>
<path d="M435.032 577.997C435.032 577.997 435.571 581.741 435.639 582.304C435.707 582.866 441.64 581.972 441.64 581.972L442.121 577.516C442.121 577.516 435.774 577.468 435.032 577.997V577.997Z" fill="#424773"/>
<path d="M435.577 581.829C435.577 581.829 433.696 584.086 431.88 585.069C430.061 586.051 423.372 586.861 422.297 587.878C421.521 588.613 420.23 591.571 430.853 591.293C438.403 591.097 442.046 591.741 442.852 590.528C443.662 589.315 441.683 581.575 441.683 581.575C441.683 581.575 439.999 582.263 435.577 581.829V581.829Z" fill="#292C47"/>
<path d="M492.18 513.293C492.18 513.293 470.612 516.942 465.739 517.708C460.867 518.474 434.453 525.044 431.149 527.05C428.52 528.643 432.528 566.933 433.464 581.541H443.866L444.622 537.721C457.105 538.033 466.017 534.8 475.109 536.182C484.2 537.562 491.78 539.527 497.558 531.777C497.558 531.777 497.771 514.987 492.18 513.296V513.293Z" fill="#292C47"/>
<path d="M470.921 581.575L481.06 580.948L482.049 537.721C487.423 537.856 489.267 537.514 493.614 536.985L501.801 517.959C494.627 519.392 471.64 525.19 468.576 527.05C465.947 528.646 469.986 566.967 470.921 581.578V581.575Z" fill="#292C47"/>
<path d="M482.252 432.442C482.252 432.442 474.346 430.257 471.327 436.397C468.311 442.533 469.677 454.17 473.662 455.264C477.647 456.359 483.377 455.098 485.03 451.279C486.684 447.46 488.005 442.032 487.609 438.515C487.212 435.001 484.349 433.283 482.248 432.442H482.252Z" fill="#EEA886"/>
<path d="M475.73 454.041C475.73 454.041 475.818 458.71 475.303 459.703C474.788 460.699 486.312 460.449 486.312 460.449C486.312 460.449 484.496 454.844 485.526 450.066C486.546 445.339 475.73 454.038 475.73 454.038V454.041Z" fill="#EEA886"/>
<path d="M486.149 448.301C486.149 448.301 485.532 449.555 482.55 449.351C479.568 449.148 475.634 445.549 474.367 445.227C473.099 444.906 473.025 444.184 473.025 444.184L472.354 445.377L471.056 445.573C471.056 445.573 471.937 441.968 470.016 440.697C468.095 439.426 470.88 429.2 480.608 431.667C480.608 431.667 488.033 433.025 488.131 437.173C488.229 441.317 487.589 446.105 486.149 448.301V448.301Z" fill="#3A3F47"/>
<path d="M474.693 459.585C474.693 459.585 474.727 457.684 475.588 457.501C476.449 457.318 484.649 456.19 485.706 456.606L486.16 459.117C486.16 459.117 484.12 460.371 474.697 459.585H474.693Z" fill="#E2D2CA"/>
<path d="M472.325 443.336C472.546 441.778 474.318 439.988 475.334 442.415C476.348 444.841 474.65 448.378 473.511 448.189C472.373 447.999 472.027 445.451 472.325 443.336Z" fill="#EEA886"/>
<path d="M440.366 482.051C440.366 482.051 440.372 482.051 440.379 482.051C440.322 482.077 440.312 482.077 440.366 482.051Z" fill="#323657"/>
<path d="M484.556 433.557C484.556 433.557 494.196 433.103 486.24 448.152L484.556 433.557Z" fill="#3A3F47"/>
<path d="M506.035 586.702L505.317 588.718L475.017 579.332L476.47 575.245L506.035 586.702Z" fill="#918783"/>
<path d="M473.979 544.948H477.422V577.891H473.979V544.948Z" fill="#918783"/>
<path d="M465.541 543.2H485.855V545.142H465.541V543.2Z" fill="#5E5854"/>
<path d="M445.098 586.701L445.813 588.718L476.113 579.331L474.782 574.987L445.098 586.701Z" fill="#918783"/>
<path d="M466.446 588.504V590.849L476.113 579.331L474.782 574.987L466.446 588.504Z" fill="#918783"/>
<path d="M442.272 589.508C442.272 591.073 443.539 592.34 445.105 592.34C446.67 592.34 447.938 591.073 447.938 589.508C447.938 587.942 446.67 586.675 445.105 586.675C443.539 586.675 442.272 587.942 442.272 589.508Z" fill="#BFB2AC"/>
<path d="M466.209 589.508C466.209 591.073 467.477 592.34 469.042 592.34C470.608 592.34 471.875 591.073 471.875 589.508C471.875 587.942 470.608 586.675 469.042 586.675C467.477 586.675 466.209 587.942 466.209 589.508V589.508Z" fill="#BFB2AC"/>
<path d="M503.202 589.508C503.202 591.073 504.469 592.34 506.034 592.34C507.6 592.34 508.867 591.073 508.867 589.508C508.867 587.942 507.6 586.675 506.034 586.675C504.469 586.675 503.202 587.942 503.202 589.508Z" fill="#BFB2AC"/>
<path d="M496 535.847H455.138C453.135 535.847 451.509 537.473 451.509 539.476V539.571C451.509 541.573 453.135 543.2 455.138 543.2H496C498.002 543.2 499.629 541.573 499.629 539.571V539.476C499.629 537.473 498.002 535.847 496 535.847Z" fill="#E2D2CA"/>
<path d="M366.033 504.946H368.777V589.507H366.033V504.946Z" fill="#706865"/>
<path d="M454.663 436.905H390.711C388.712 436.905 387.089 438.528 387.089 440.528V483.508C387.089 485.507 388.712 487.13 390.711 487.13H454.663C456.662 487.13 458.285 485.507 458.285 483.508V440.528C458.285 438.528 456.662 436.905 454.663 436.905Z" fill="url(#paint3_linear_1_689)"/>
<path d="M389.877 439.619H455.496V479.258H389.877V439.619Z" fill="#F5F7FF"/>
<path d="M389.877 439.619H455.496V442.774H389.877V439.619Z" fill="#CECFD6"/>
<path d="M440.419 445.146H452.431C453.099 445.146 453.641 445.688 453.641 446.356V446.871C453.641 447.539 453.099 448.081 452.431 448.081H440.419C439.751 448.081 439.209 447.539 439.209 446.871V446.356C439.209 445.688 439.751 445.146 440.419 445.146Z" fill="#CECFD6"/>
<path d="M451.14 450.046H441.71C440.331 450.046 439.209 451.168 439.209 452.547V475.124C439.209 476.503 440.331 477.625 441.71 477.625H451.14C452.519 477.625 453.641 476.503 453.641 475.124V452.547C453.641 451.168 452.519 450.046 451.14 450.046Z" fill="#CECFD6"/>
<path d="M407.947 500.203V499.309C407.947 499.309 409.204 493.748 418.092 493.748C426.98 493.748 426.801 500.2 426.801 500.2H407.95L407.947 500.203Z" fill="#2E436E"/>
<path d="M426.911 494.574C426.911 494.574 424.98 494.425 424.272 493.998C423.564 493.571 419.331 490.725 418.338 491.182C417.346 491.636 410.728 493.663 410.958 494.632C411.189 495.601 411.799 495.506 412.266 495.333C412.734 495.164 417.535 494.154 417.962 494.324C417.962 494.324 413.242 496.045 413.225 497.302C413.205 498.559 414.211 498.864 414.659 499.339C415.106 499.813 415.645 500.992 416.858 501.084C418.071 501.175 424.007 499.108 425.227 499.017C426.447 498.922 428.711 499.091 428.863 498.895C429.016 498.695 426.908 494.578 426.908 494.578L426.911 494.574Z" fill="#EEA886"/>
<path d="M462.059 462.221C468.216 461.14 474.695 459.585 474.695 459.585L486.161 459.117C486.161 459.117 496.683 461.435 500.827 463.305C501.22 463.482 501.223 472.692 502.301 475.108L498.865 482.356C498.865 482.356 496.879 496.713 496.469 503.1C496.279 506.031 497.005 531.432 497.005 531.432C497.005 531.432 495.974 531.94 488.15 532.804C480.326 533.668 460.774 532.492 460.652 531.567C460.527 530.642 464.437 497.153 464.61 495.418C464.875 492.755 463.841 480.458 463.841 480.458C462.367 482.437 458.609 491.383 454.692 495.635C452.388 498.139 440.975 499.674 438.827 499.746C434.144 499.901 425.605 500.833 425.354 500.379C425.154 500.105 424.609 492.799 425.144 492.619C425.612 492.464 441.473 491.549 445.536 489.394C447.024 488.604 451.466 478.916 451.466 478.916C451.466 478.916 458.667 463.749 462.062 462.221H462.059Z" fill="#FFC955"/>
<path d="M503.901 484.73H484.654C480.808 484.73 477.684 487.855 477.684 491.701V523.726C477.684 527.572 480.808 530.696 484.654 530.696H503.901C507.747 530.696 510.871 527.572 510.871 523.726V491.701C510.871 487.855 507.747 484.73 503.901 484.73Z" fill="#E2D2CA"/>
<path d="M483.564 541.37C488.457 541.37 492.425 539.727 495.359 536.488C501.994 529.162 500.801 516.289 500.747 515.743C500.645 514.726 499.74 513.988 498.727 514.089C497.714 514.191 496.972 515.092 497.07 516.109C497.084 516.255 498.141 527.928 492.614 534.021C490.378 536.484 487.416 537.684 483.564 537.684C482.544 537.684 481.717 538.51 481.717 539.53C481.717 540.55 482.544 541.377 483.564 541.377V541.37Z" fill="#E2D2CA"/>
<path d="M436.297 459.438C436.297 462.773 435.097 465.826 433.108 468.191C432.644 468.743 432.132 469.262 431.587 469.733C431.431 469.868 431.272 470 431.109 470.126C430.926 470.272 430.74 470.41 430.55 470.546C428.757 471.817 426.646 472.664 424.359 472.942C423.956 472.992 423.549 473.023 423.136 473.037C422.987 473.04 422.838 473.043 422.689 473.043C422.248 473.043 421.814 473.023 421.384 472.982C420.903 472.938 420.432 472.867 419.968 472.772C417.907 472.355 416.013 471.471 414.404 470.234C413.919 469.861 413.458 469.458 413.031 469.025C412.947 468.94 412.865 468.855 412.784 468.767C412.479 468.445 412.191 468.106 411.92 467.757C410.137 465.456 409.08 462.569 409.08 459.438C409.08 451.923 415.173 445.83 422.689 445.83C430.204 445.83 436.297 451.923 436.297 459.438V459.438Z" fill="#EEF0F7"/>
<path d="M431.555 466.948L430.552 470.55C428.76 471.82 426.649 472.667 424.361 472.945C423.958 472.996 423.552 473.027 423.138 473.04C422.989 473.044 422.84 473.047 422.691 473.047C422.25 473.047 421.817 473.027 421.386 472.986C420.905 472.942 420.434 472.871 419.97 472.776C417.91 472.359 416.015 471.475 414.406 470.238C414.213 469.048 414.006 467.73 413.826 466.497C414.826 466.124 418.011 465.043 420.021 464.362C420.048 464.352 420.078 464.342 420.105 464.335C420.149 464.322 420.193 464.305 420.238 464.291C420.356 464.25 420.471 464.213 420.58 464.176C420.692 464.139 420.793 464.105 420.892 464.071C421.302 463.932 421.593 463.834 421.698 463.8C421.725 463.789 421.739 463.786 421.739 463.786H421.762L424.463 463.989L424.917 464.023L425.059 464.033C425.059 464.033 425.08 464.037 425.12 464.05C425.283 464.091 425.757 464.216 426.384 464.406C427.984 464.894 430.579 465.826 431.559 466.951L431.555 466.948Z" fill="#D9C7C1"/>
<path d="M423.399 452.682C423.399 452.682 426.639 453.227 426.09 458.3C425.541 463.373 422.681 462.925 422.488 462.919C422.295 462.912 419.611 462.98 419.469 456.779C419.469 456.779 419.428 452.194 423.396 452.682H423.399Z" fill="#EEA987"/>
<path d="M424.823 461.449C424.823 461.449 424.712 463.536 424.908 463.99C425.105 464.444 422.306 465.881 420.567 464.244C420.567 464.244 420.92 461.964 420.811 461.157C420.703 460.351 424.823 461.449 424.823 461.449Z" fill="#EEA987"/>
<path d="M426.157 456.867C426.157 456.867 426.516 456.491 426.641 456.877C426.767 457.264 426.069 458.972 426.109 459.05C426.109 459.05 426.041 459.199 425.957 459.114C425.872 459.033 426.153 456.867 426.153 456.867H426.157Z" fill="#EEA987"/>
<path d="M419.509 456.728C419.509 456.728 419.166 456.338 419.024 456.718C418.882 457.097 419.4 458.805 419.464 458.91C419.464 458.91 419.576 459.086 419.664 459.005C419.753 458.927 419.509 456.728 419.509 456.728Z" fill="#EEA987"/>
<path d="M426.367 456.437C426.256 457.131 426.151 457.646 426.151 457.646L425.68 458.263C425.68 458.263 425.707 456.901 425.636 456.687C425.608 456.606 425.575 456.464 425.544 456.308C425.49 456.05 425.436 455.762 425.395 455.664C425.334 455.508 422.62 454.715 420.2 455.83C420.2 455.83 420.221 456.04 420.221 456.274C420.221 456.545 420.19 456.85 420.065 456.897C419.834 456.982 419.929 458.49 419.929 458.49L419.553 458.053C419.553 458.053 419.445 457.263 419.336 456.359C419.336 456.359 419.336 456.359 419.336 456.352C419.313 456.142 419.289 455.925 419.265 455.708C419.211 454.797 419.302 453.143 420.488 452.171C421.288 451.828 422.569 451.537 424.697 452.187C424.697 452.187 425.185 452.221 425.324 452.353C426.652 453.814 426.374 456.437 426.374 456.437H426.367Z" fill="#E8734D"/>
<path d="M421.029 462.241C421.029 462.241 421.548 462.96 422.747 462.932C423.95 462.905 424.469 462.278 424.469 462.278C424.469 462.278 423.899 463.468 422.741 463.454C421.582 463.441 421.029 462.241 421.029 462.241V462.241Z" fill="#C78D71"/>
<path d="M420.235 464.288C420.235 464.288 421.103 465.799 422.75 465.941C423.793 466.033 424.698 464.708 425.125 464.057C425.125 464.057 422.784 463.054 420.235 464.288V464.288Z" fill="#EEA987"/>
<path d="M424.823 463.58C424.823 463.58 424.159 464.448 422.75 465.376L423.627 466.728L425.125 464.058L424.823 463.58V463.58Z" fill="#EDDAD3"/>
<path d="M420.632 463.783C420.632 463.783 421.476 464.84 422.75 465.376L421.788 466.768L420.104 464.332L420.632 463.783Z" fill="#EDDAD3"/>
<path d="M422.752 465.376L423.504 466.521C423.504 466.521 422.714 466.969 421.979 466.494L422.752 465.379V465.376Z" fill="#5073AB"/>
<path d="M432.426 466.734C432.426 466.734 432.419 466.761 432.405 466.809C432.324 467.103 432.006 468.232 431.592 469.733C431.436 469.868 431.277 470.001 431.114 470.126C430.931 470.272 430.745 470.411 430.555 470.546C428.763 471.817 426.652 472.664 424.364 472.942C424.568 468.232 425.127 464.054 425.127 464.054C425.567 464.169 425.988 464.284 426.381 464.399C429.834 465.389 431.585 466.26 432.182 466.592C432.185 466.592 432.192 466.595 432.195 466.598C432.351 466.687 432.422 466.734 432.422 466.734H432.426Z" fill="#323657"/>
<path d="M419.973 472.773C417.912 472.356 416.018 471.471 414.409 470.235C413.924 469.862 413.463 469.459 413.036 469.025C412.952 468.94 412.87 468.855 412.789 468.767C412.552 467.754 412.392 467.097 412.382 467.053C412.382 467.053 414.066 465.945 420.023 464.355C420.023 464.494 420.027 468.317 419.976 472.773H419.973Z" fill="#323657"/>
<path d="M423.186 466.646C423.132 467.886 423.125 470.292 423.146 473.04C422.996 473.043 422.847 473.047 422.698 473.047C422.258 473.047 421.824 473.026 421.394 472.986C421.655 469.597 422.098 467.479 422.298 466.642C422.363 466.368 422.403 466.232 422.403 466.232L423.203 466.365C423.196 466.449 423.193 466.544 423.19 466.649L423.186 466.646Z" fill="#5073AB"/>
<path d="M433.113 468.191C432.649 468.744 432.137 469.262 431.592 469.733C431.436 469.869 431.277 470.001 431.114 470.126L432.185 466.592C432.185 466.592 432.192 466.592 432.198 466.599C432.263 466.643 432.334 466.71 432.405 466.809C432.615 467.083 432.856 467.564 433.113 468.191V468.191Z" fill="#323657"/>
<path d="M413.035 469.025C412.95 468.94 412.869 468.855 412.788 468.767C412.483 468.445 412.195 468.107 411.924 467.758C412.076 467.392 412.232 467.144 412.381 467.053L413.035 469.025Z" fill="#323657"/>
<path d="M40.3669 303.09L40.3161 302.432C40.1636 301.067 40.6211 299.576 41.8816 298.061C43.0202 296.723 43.6504 295.737 43.6504 294.598C43.6504 293.31 42.8406 292.45 41.248 292.426C40.3398 292.426 39.3267 292.731 38.6964 293.209L38.0898 291.616C38.9234 291.01 40.3636 290.606 41.7054 290.606C44.6128 290.606 45.9275 292.402 45.9275 294.32C45.9275 296.038 44.9685 297.278 43.7554 298.719C42.644 300.033 42.2408 301.145 42.3153 302.432L42.3391 303.09H40.3669ZM39.8112 306.627C39.8112 305.692 40.4415 305.035 41.3259 305.035C42.2103 305.035 42.8169 305.692 42.8169 306.627C42.8169 307.512 42.2374 308.193 41.3022 308.193C40.4178 308.193 39.8112 307.512 39.8112 306.627Z" fill="white"/>
<defs>
<linearGradient id="paint0_linear_1_689" x1="513.895" y1="280.596" x2="24.0568" y2="280.596" gradientUnits="userSpaceOnUse">
<stop stop-color="#9A5CFF"/>
<stop offset="0.99" stop-color="#4059BF"/>
</linearGradient>
<linearGradient id="paint1_linear_1_689" x1="553.722" y1="540.442" x2="5.65962" y2="540.442" gradientUnits="userSpaceOnUse">
<stop stop-color="#9A5CFF"/>
<stop offset="0.99" stop-color="#4059BF"/>
</linearGradient>
<linearGradient id="paint2_linear_1_689" x1="459.996" y1="499.177" x2="428.673" y2="499.177" gradientUnits="userSpaceOnUse">
<stop stop-color="#FF9F55"/>
<stop offset="1" stop-color="#FFD255"/>
</linearGradient>
<linearGradient id="paint3_linear_1_689" x1="458.285" y1="462.014" x2="387.092" y2="462.014" gradientUnits="userSpaceOnUse">
<stop stop-color="#FF9F55"/>
<stop offset="1" stop-color="#FFD255"/>
</linearGradient>
</defs>
</svg>
