<svg width="35" height="51" viewBox="0 0 35 51" fill="none" xmlns="http://www.w3.org/2000/svg">
<path d="M17.1875 50.3203C18.5547 50.3203 19.2383 49.6367 19.2383 48.2695V41.8242C23.3398 41.3685 26.6927 39.9036 29.2969 37.4297C32.3568 34.5651 33.8867 30.5286 33.8867 25.3203C33.8867 23.8229 33.8216 22.7161 33.6914 22C33.9518 21.1536 33.8542 20.4701 33.3984 19.9492L33.2031 19.6562C32.5521 16.9219 31.5104 14.3503 30.0781 11.9414C28.6458 9.53255 27.0508 7.54688 25.293 5.98438C23.5352 4.42188 22.1517 3.25 21.1426 2.46875C20.1335 1.6875 19.2383 1.06901 18.457 0.613281L18.2617 0.515625L17.7734 0.320312H16.6016L16.1133 0.515625C15.918 0.580729 15.4297 0.857422 14.6484 1.3457C13.8672 1.83398 12.8092 2.63151 11.4746 3.73828C10.14 4.84505 8.82161 6.11458 7.51953 7.54688C6.21745 8.97917 4.96419 10.7695 3.75977 12.918C2.55534 15.0664 1.69271 17.3125 1.17188 19.6562L0.976562 19.9492C0.520833 20.4701 0.423177 21.1536 0.683594 22C0.553385 22.7161 0.488281 23.8229 0.488281 25.3203C0.488281 30.5286 2.01823 34.5651 5.07812 37.4297C7.68229 39.9036 11.0352 41.3685 15.1367 41.8242V48.2695C15.1367 49.6367 15.8203 50.3203 17.1875 50.3203ZM19.2383 6.17969C21.582 8.0026 23.5352 9.92318 25.0977 11.9414L19.2383 16.8242V6.17969ZM19.2383 22.1953L27.4414 15.75C27.832 16.4661 28.3854 18.0612 29.1016 20.5352L19.2383 27.5664V22.1953ZM19.2383 32.6445L29.6875 25.125V25.3203C29.6875 29.4219 28.5807 32.4818 26.3672 34.5C24.4792 36.1276 22.1029 37.2344 19.2383 37.8203V32.6445ZM15.1367 6.17969V16.8242L9.27734 12.2344C10.2539 10.737 12.207 8.71875 15.1367 6.17969ZM6.93359 15.75L15.1367 22.1953V27.5664L5.27344 20.5352C5.72917 18.9076 6.28255 17.3125 6.93359 15.75ZM8.00781 34.5C5.79427 32.2865 4.6875 29.2266 4.6875 25.3203V25.125L15.1367 32.6445V37.625C12.4674 37.3646 10.0911 36.3229 8.00781 34.5Z" fill="#3C3C3C"/>
</svg>
