<svg width="1200" height="695" viewBox="0 0 1200 695" fill="none" xmlns="http://www.w3.org/2000/svg">
<rect width="1200" height="695" fill="white"/>
<path d="M298.182 502.62H217.171C201.409 502.62 188.583 492.123 188.583 479.223V283.422H190.86V479.223C190.86 491.095 202.661 500.757 217.171 500.757H298.182V502.62Z" fill="#F89939"/>
<path d="M995.415 661.171H773.473C760.078 661.171 749.182 650.275 749.182 636.879V493.352H751.464V636.879C751.464 649.015 761.338 658.889 773.473 658.889H995.415C1007.55 658.889 1017.42 649.015 1017.42 636.879V302.21C1017.42 290.074 1007.55 280.2 995.415 280.2H940.689V277.918H995.415C1008.81 277.918 1019.71 288.814 1019.71 302.21V636.879C1019.71 650.275 1008.81 661.171 995.415 661.171Z" fill="#F89939"/>
<path d="M476.576 83.3728H467.893V62.1307C467.893 59.7322 469.836 57.7891 472.234 57.7891C474.633 57.7891 476.576 59.7322 476.576 62.1307V83.3728Z" fill="#F89939"/>
<path d="M185.39 296.957H194.073V318.199C194.073 320.598 192.13 322.541 189.731 322.541C187.333 322.541 185.39 320.598 185.39 318.199V296.957Z" fill="#F89939"/>
<path d="M262.995 497.332V506.015H241.753C239.354 506.015 237.411 504.072 237.411 501.674C237.411 499.275 239.354 497.332 241.753 497.332H262.995Z" fill="#F89939"/>
<path d="M759.003 143.834H750.319V122.592C750.319 120.193 752.263 118.25 754.661 118.25C757.059 118.25 759.003 120.193 759.003 122.592V143.834Z" fill="#F89939"/>
<path d="M948.488 283.398V274.715H969.73C972.129 274.715 974.072 276.658 974.072 279.056C974.072 281.455 972.129 283.398 969.73 283.398H948.488Z" fill="#F89939"/>
<path d="M745.977 599.598H754.66V620.84C754.66 623.238 752.717 625.181 750.318 625.181C747.92 625.181 745.977 623.238 745.977 620.84V599.598Z" fill="#F89939"/>
<path d="M755.805 140.909H753.523V54.2618C753.523 39.225 741.287 26.989 726.251 26.989H500.783C485.746 26.989 473.511 39.225 473.511 54.2618V79.1678H471.229V54.2618C471.229 37.9648 484.486 24.707 500.783 24.707H726.251C742.548 24.707 755.805 37.9648 755.805 54.2618V140.909Z" fill="#F89939"/>
<path d="M388.96 194.752C379.985 156.508 345.66 128.039 304.68 128.039C260.453 128.039 223.979 161.199 218.753 204.012C217.53 203.922 216.296 203.874 215.052 203.874C189.394 203.874 168.38 223.735 166.532 248.921C164.059 248.164 161.438 247.756 158.717 247.756C143.961 247.756 132 259.717 132 274.473C132 289.229 143.961 301.19 158.717 301.19H382.172C411.679 301.19 435.6 277.269 435.6 247.762C435.6 220.552 415.264 198.098 388.96 194.762V194.752Z" fill="#17A9E1"/>
<path d="M924.076 245.903C918.156 220.689 895.527 201.92 868.508 201.92C839.351 201.92 815.302 223.782 811.861 252.007C811.056 251.949 810.241 251.917 809.42 251.917C792.503 251.917 778.647 265.011 777.43 281.615C775.799 281.117 774.073 280.847 772.278 280.847C762.552 280.847 754.668 288.731 754.668 298.457C754.668 308.184 762.552 316.067 772.278 316.067H919.596C939.049 316.067 954.822 300.295 954.822 280.842C954.822 262.904 941.416 248.1 924.076 245.897V245.903Z" fill="#17A9E1"/>
<g filter="url(#filter0_d_306_5023)">
<path d="M654.239 136.98H700.387V494.565H644.1V147.12C644.1 141.523 648.642 136.98 654.239 136.98Z" fill="#97B0D5"/>
</g>
<g filter="url(#filter1_d_306_5023)">
<path d="M846.057 136.98H700.386V494.565H846.057V136.98Z" fill="url(#paint0_linear_306_5023)"/>
</g>
<path d="M832.992 152.17H713.449V177.738H832.992V152.17Z" fill="url(#paint1_linear_306_5023)"/>
<path d="M276.252 132.831L251.992 301.185H366.992L384.353 180.71C371.164 149.747 340.46 128.039 304.679 128.039C294.72 128.039 285.158 129.733 276.252 132.831Z" fill="#29B7EE"/>
<g filter="url(#filter2_d_306_5023)">
<path d="M293.935 75.8613H384.029V514.698H283.796V86.0006C283.796 80.4041 288.339 75.8613 293.935 75.8613Z" fill="#97B0D5"/>
</g>
<g filter="url(#filter3_d_306_5023)">
<path d="M597.956 75.8613H384.031V514.698H597.956V75.8613Z" fill="url(#paint2_linear_306_5023)"/>
</g>
<path d="M997.675 624.926V673.764C997.675 680.123 992.512 685.286 986.153 685.286H908.126V636.448C908.126 630.089 913.289 624.926 919.649 624.926H997.675Z" fill="url(#paint3_linear_306_5023)"/>
<path d="M970.369 643.816H926.471V647.904H970.369V643.816Z" fill="white"/>
<path d="M983.445 653.062H926.471V657.15H983.445V653.062Z" fill="white"/>
<path d="M954.091 662.311H926.471V666.398H954.091V662.311Z" fill="white"/>
<path d="M579.013 97.3418H402.977V139.228H579.013V97.3418Z" fill="url(#paint4_linear_306_5023)"/>
<path d="M569.879 111.082H537.989V125.499H569.879V111.082Z" fill="#1BB9F5"/>
<path d="M512.732 111.082H415.527V125.499H512.732V111.082Z" fill="#17A9E1"/>
<path d="M821.694 160.07H801.664V169.85H821.694V160.07Z" fill="#1BB9F5"/>
<path d="M785.8 160.07H724.753V169.85H785.8V160.07Z" fill="#17A9E1"/>
<path d="M832.992 192.979H713.449V218.546H832.992V192.979Z" fill="url(#paint5_linear_306_5023)"/>
<path d="M821.69 200.881H801.66V210.66H821.69V200.881Z" fill="#1BB9F5"/>
<path d="M785.8 200.881H724.753V210.66H785.8V200.881Z" fill="#F89939"/>
<path d="M832.992 234.359H713.449V259.927H832.992V234.359Z" fill="url(#paint6_linear_306_5023)"/>
<path d="M821.69 242.246H801.66V252.025H821.69V242.246Z" fill="#1BB9F5"/>
<path d="M785.8 242.246H724.753V252.025H785.8V242.246Z" fill="#17A9E1"/>
<path d="M579.013 158.418H402.977V200.304H579.013V158.418Z" fill="url(#paint7_linear_306_5023)"/>
<path d="M569.879 172.156H537.989V186.574H569.879V172.156Z" fill="#1BB9F5"/>
<path d="M512.732 172.156H415.527V186.574H512.732V172.156Z" fill="#F89939"/>
<path d="M579.013 219.492H402.977V261.378H579.013V219.492Z" fill="url(#paint8_linear_306_5023)"/>
<path d="M569.879 233.232H537.989V247.65H569.879V233.232Z" fill="#1BB9F5"/>
<path d="M512.732 233.232H415.527V247.65H512.732V233.232Z" fill="#17A9E1"/>
<path d="M370.208 141.776H304.11L297.624 134.348H370.208V141.776Z" fill="#ABDAF7"/>
<path d="M370.208 161.282H304.11L297.624 153.854H370.208V161.282Z" fill="#ABDAF7"/>
<path d="M370.208 180.772H304.11L297.624 173.344H370.208V180.772Z" fill="#ABDAF7"/>
<path d="M370.208 200.276H304.11L297.624 192.848H370.208V200.276Z" fill="#ABDAF7"/>
<path d="M370.208 219.766H304.11L297.624 212.338H370.208V219.766Z" fill="#ABDAF7"/>
<path d="M370.208 239.272H304.11L297.624 231.844H370.208V239.272Z" fill="#ABDAF7"/>
<path d="M690.558 173.864H656.376L653.024 168.602H690.558V173.864Z" fill="#ABDAF7"/>
<path d="M690.558 187.677H656.376L653.024 182.414H690.558V187.677Z" fill="#ABDAF7"/>
<path d="M690.558 201.489H656.376L653.024 196.227H690.558V201.489Z" fill="#ABDAF7"/>
<path d="M690.558 215.302H656.376L653.024 210.039H690.558V215.302Z" fill="#ABDAF7"/>
<path d="M690.558 229.116H656.376L653.024 223.854H690.558V229.116Z" fill="#ABDAF7"/>
<path d="M690.558 242.929H656.376L653.024 237.666H690.558V242.929Z" fill="#ABDAF7"/>
<path d="M333.917 343.306C315.412 343.306 300.359 328.254 300.359 309.749C300.359 291.244 315.412 276.191 333.917 276.191C352.422 276.191 367.474 291.244 367.474 309.749C367.474 328.254 352.422 343.306 333.917 343.306ZM333.917 278.473C316.672 278.473 302.641 292.504 302.641 309.749C302.641 326.994 316.672 341.024 333.917 341.024C351.162 341.024 365.192 326.994 365.192 309.749C365.192 292.504 351.162 278.473 333.917 278.473Z" fill="#ABDAF7"/>
<path d="M333.917 327.3C324.239 327.3 316.36 319.421 316.36 309.743C316.36 300.064 324.233 292.186 333.917 292.186C343.601 292.186 351.474 300.059 351.474 309.743C351.474 319.427 343.601 327.3 333.917 327.3ZM333.917 294.468C325.494 294.468 318.642 301.319 318.642 309.743C318.642 318.166 325.494 325.018 333.917 325.018C342.341 325.018 349.192 318.166 349.192 309.743C349.192 301.319 342.341 294.468 333.917 294.468Z" fill="#ABDAF7"/>
<path d="M364.214 277.825L302.006 340.033L303.619 341.647L365.828 279.438L364.214 277.825Z" fill="#ABDAF7"/>
<path d="M303.619 277.828L302.006 279.441L364.214 341.65L365.828 340.036L303.619 277.828Z" fill="#ABDAF7"/>
<g filter="url(#filter4_d_306_5023)">
<path d="M197.256 365.494H161.792C157.583 365.494 154.168 368.909 154.168 373.118V448.964C154.168 453.174 157.583 456.589 161.792 456.589H217.19C221.399 456.589 224.814 453.174 224.814 448.964V393.053L197.261 365.499L197.256 365.494Z" fill="url(#paint9_linear_306_5023)"/>
</g>
<path d="M197.494 365.377V385.311C197.494 389.521 200.909 392.936 205.118 392.936H225.053L197.499 365.382L197.494 365.377Z" fill="#97B0D5"/>
<g filter="url(#filter5_d_306_5023)">
<path d="M1031.74 343.252H984.471C978.859 343.252 974.311 347.8 974.311 353.412V454.503C974.311 460.115 978.859 464.664 984.471 464.664H1058.3C1063.92 464.664 1068.47 460.115 1068.47 454.503V379.981L1031.74 343.252H1031.74Z" fill="url(#paint10_linear_306_5023)"/>
</g>
<path d="M1031.74 343.252V369.821C1031.74 375.433 1036.29 379.981 1041.9 379.981H1068.47L1031.74 343.252Z" fill="#97B0D5"/>
<path d="M1018.57 592.259C1026.23 592.259 1032.45 586.044 1032.45 578.377C1032.45 570.71 1026.23 564.494 1018.57 564.494C1010.9 564.494 1004.68 570.71 1004.68 578.377C1004.68 586.044 1010.9 592.259 1018.57 592.259Z" fill="#28A44A"/>
<path d="M678.932 41.9947C687.853 38.2997 692.089 28.0727 688.394 19.1521C684.699 10.2316 674.472 5.99541 665.552 9.69043C656.631 13.3854 652.395 23.6124 656.09 32.533C659.785 41.4536 670.012 45.6897 678.932 41.9947Z" fill="#F89939"/>
<path d="M1025.98 514.606C1030.07 510.512 1030.07 503.875 1025.98 499.781C1021.88 495.687 1015.25 495.686 1011.15 499.78C1007.06 503.874 1007.06 510.512 1011.15 514.606C1015.25 518.7 1021.88 518.7 1025.98 514.606Z" fill="#28A44A"/>
<path d="M628.749 25.8411C628.749 31.8823 623.851 36.7798 617.81 36.7798C611.769 36.7798 606.871 31.8823 606.871 25.8411C606.871 19.7999 611.769 14.9023 617.81 14.9023C623.851 14.9023 628.749 19.7999 628.749 25.8411Z" fill="#F89939"/>
<path d="M891.883 235.284C891.883 241.426 886.901 246.408 880.759 246.408C874.617 246.408 869.635 241.426 869.635 235.284C869.635 229.142 874.617 224.16 880.759 224.16C886.901 224.16 891.883 229.142 891.883 235.284Z" fill="#29B7EE"/>
<path d="M1021.39 373.848H987.41V380.884H1021.39V373.848Z" fill="#ABDAF7"/>
<path d="M1055.23 391.936H987.546V398.972H1055.23V391.936Z" fill="#ABDAF7"/>
<path d="M1055.23 410.02H987.546V417.056H1055.23V410.02Z" fill="#ABDAF7"/>
<defs>
<filter id="filter0_d_306_5023" x="625.37" y="121.997" width="101.238" height="402.535" filterUnits="userSpaceOnUse" color-interpolation-filters="sRGB">
<feFlood flood-opacity="0" result="BackgroundImageFix"/>
<feColorMatrix in="SourceAlpha" type="matrix" values="0 0 0 0 0 0 0 0 0 0 0 0 0 0 0 0 0 0 127 0" result="hardAlpha"/>
<feOffset dx="3.74588" dy="7.49176"/>
<feGaussianBlur stdDeviation="11.2376"/>
<feComposite in2="hardAlpha" operator="out"/>
<feColorMatrix type="matrix" values="0 0 0 0 0.109804 0 0 0 0 0.317647 0 0 0 0 0.458824 0 0 0 0.25 0"/>
<feBlend mode="normal" in2="BackgroundImageFix" result="effect1_dropShadow_306_5023"/>
<feBlend mode="normal" in="SourceGraphic" in2="effect1_dropShadow_306_5023" result="shape"/>
</filter>
<filter id="filter1_d_306_5023" x="681.656" y="121.997" width="190.622" height="402.535" filterUnits="userSpaceOnUse" color-interpolation-filters="sRGB">
<feFlood flood-opacity="0" result="BackgroundImageFix"/>
<feColorMatrix in="SourceAlpha" type="matrix" values="0 0 0 0 0 0 0 0 0 0 0 0 0 0 0 0 0 0 127 0" result="hardAlpha"/>
<feOffset dx="3.74588" dy="7.49176"/>
<feGaussianBlur stdDeviation="11.2376"/>
<feColorMatrix type="matrix" values="0 0 0 0 0.109804 0 0 0 0 0.317647 0 0 0 0 0.458824 0 0 0 0.25 0"/>
<feBlend mode="normal" in2="BackgroundImageFix" result="effect1_dropShadow_306_5023"/>
<feBlend mode="normal" in="SourceGraphic" in2="effect1_dropShadow_306_5023" result="shape"/>
</filter>
<filter id="filter2_d_306_5023" x="265.066" y="60.8778" width="145.184" height="483.787" filterUnits="userSpaceOnUse" color-interpolation-filters="sRGB">
<feFlood flood-opacity="0" result="BackgroundImageFix"/>
<feColorMatrix in="SourceAlpha" type="matrix" values="0 0 0 0 0 0 0 0 0 0 0 0 0 0 0 0 0 0 127 0" result="hardAlpha"/>
<feOffset dx="3.74588" dy="7.49176"/>
<feGaussianBlur stdDeviation="11.2376"/>
<feComposite in2="hardAlpha" operator="out"/>
<feColorMatrix type="matrix" values="0 0 0 0 0.109804 0 0 0 0 0.317647 0 0 0 0 0.458824 0 0 0 0.25 0"/>
<feBlend mode="normal" in2="BackgroundImageFix" result="effect1_dropShadow_306_5023"/>
<feBlend mode="normal" in="SourceGraphic" in2="effect1_dropShadow_306_5023" result="shape"/>
</filter>
<filter id="filter3_d_306_5023" x="365.302" y="60.8778" width="258.875" height="483.787" filterUnits="userSpaceOnUse" color-interpolation-filters="sRGB">
<feFlood flood-opacity="0" result="BackgroundImageFix"/>
<feColorMatrix in="SourceAlpha" type="matrix" values="0 0 0 0 0 0 0 0 0 0 0 0 0 0 0 0 0 0 127 0" result="hardAlpha"/>
<feOffset dx="3.74588" dy="7.49176"/>
<feGaussianBlur stdDeviation="11.2376"/>
<feColorMatrix type="matrix" values="0 0 0 0 0.109804 0 0 0 0 0.317647 0 0 0 0 0.458824 0 0 0 0.25 0"/>
<feBlend mode="normal" in2="BackgroundImageFix" result="effect1_dropShadow_306_5023"/>
<feBlend mode="normal" in="SourceGraphic" in2="effect1_dropShadow_306_5023" result="shape"/>
</filter>
<filter id="filter4_d_306_5023" x="135.439" y="350.511" width="115.597" height="136.044" filterUnits="userSpaceOnUse" color-interpolation-filters="sRGB">
<feFlood flood-opacity="0" result="BackgroundImageFix"/>
<feColorMatrix in="SourceAlpha" type="matrix" values="0 0 0 0 0 0 0 0 0 0 0 0 0 0 0 0 0 0 127 0" result="hardAlpha"/>
<feOffset dx="3.74588" dy="7.49176"/>
<feGaussianBlur stdDeviation="11.2376"/>
<feColorMatrix type="matrix" values="0 0 0 0 0.109804 0 0 0 0 0.317647 0 0 0 0 0.458824 0 0 0 0.25 0"/>
<feBlend mode="normal" in2="BackgroundImageFix" result="effect1_dropShadow_306_5023"/>
<feBlend mode="normal" in="SourceGraphic" in2="effect1_dropShadow_306_5023" result="shape"/>
</filter>
<filter id="filter5_d_306_5023" x="955.581" y="328.268" width="139.106" height="166.363" filterUnits="userSpaceOnUse" color-interpolation-filters="sRGB">
<feFlood flood-opacity="0" result="BackgroundImageFix"/>
<feColorMatrix in="SourceAlpha" type="matrix" values="0 0 0 0 0 0 0 0 0 0 0 0 0 0 0 0 0 0 127 0" result="hardAlpha"/>
<feOffset dx="3.74588" dy="7.49176"/>
<feGaussianBlur stdDeviation="11.2376"/>
<feColorMatrix type="matrix" values="0 0 0 0 0.109804 0 0 0 0 0.317647 0 0 0 0 0.458824 0 0 0 0.25 0"/>
<feBlend mode="normal" in2="BackgroundImageFix" result="effect1_dropShadow_306_5023"/>
<feBlend mode="normal" in="SourceGraphic" in2="effect1_dropShadow_306_5023" result="shape"/>
</filter>
<linearGradient id="paint0_linear_306_5023" x1="700.386" y1="315.775" x2="846.052" y2="315.775" gradientUnits="userSpaceOnUse">
<stop stop-color="#F1F4FA"/>
<stop offset="1" stop-color="#D4E3F0"/>
</linearGradient>
<linearGradient id="paint1_linear_306_5023" x1="713.449" y1="164.951" x2="832.992" y2="164.951" gradientUnits="userSpaceOnUse">
<stop stop-color="#2D3952"/>
<stop offset="1" stop-color="#111E32"/>
</linearGradient>
<linearGradient id="paint2_linear_306_5023" x1="384.031" y1="295.277" x2="597.951" y2="295.277" gradientUnits="userSpaceOnUse">
<stop stop-color="#F1F4FA"/>
<stop offset="1" stop-color="#D4E3F0"/>
</linearGradient>
<linearGradient id="paint3_linear_306_5023" x1="952.899" y1="624.926" x2="952.899" y2="685.286" gradientUnits="userSpaceOnUse">
<stop stop-color="#2D3952"/>
<stop offset="1" stop-color="#111E32"/>
</linearGradient>
<linearGradient id="paint4_linear_306_5023" x1="402.977" y1="118.287" x2="579.013" y2="118.287" gradientUnits="userSpaceOnUse">
<stop stop-color="#2D3952"/>
<stop offset="1" stop-color="#111E32"/>
</linearGradient>
<linearGradient id="paint5_linear_306_5023" x1="-76.1468" y1="205.76" x2="-75.6174" y2="205.76" gradientUnits="userSpaceOnUse">
<stop stop-color="#2D3952"/>
<stop offset="1" stop-color="#111E32"/>
</linearGradient>
<linearGradient id="paint6_linear_306_5023" x1="-76.1468" y1="247.146" x2="-75.6174" y2="247.146" gradientUnits="userSpaceOnUse">
<stop stop-color="#2D3952"/>
<stop offset="1" stop-color="#111E32"/>
</linearGradient>
<linearGradient id="paint7_linear_306_5023" x1="402.977" y1="179.364" x2="579.013" y2="179.364" gradientUnits="userSpaceOnUse">
<stop stop-color="#2D3952"/>
<stop offset="1" stop-color="#111E32"/>
</linearGradient>
<linearGradient id="paint8_linear_306_5023" x1="402.977" y1="240.438" x2="579.013" y2="240.438" gradientUnits="userSpaceOnUse">
<stop stop-color="#2D3952"/>
<stop offset="1" stop-color="#111E32"/>
</linearGradient>
<linearGradient id="paint9_linear_306_5023" x1="154.173" y1="411.039" x2="224.814" y2="411.039" gradientUnits="userSpaceOnUse">
<stop stop-color="#F1F4FA"/>
<stop offset="1" stop-color="#D4E3F0"/>
</linearGradient>
<linearGradient id="paint10_linear_306_5023" x1="974.311" y1="403.96" x2="1068.47" y2="403.96" gradientUnits="userSpaceOnUse">
<stop stop-color="#F1F4FA"/>
<stop offset="1" stop-color="#D4E3F0"/>
</linearGradient>
</defs>
</svg>
