<svg width="1200" height="505" viewBox="0 0 1200 505" fill="none" xmlns="http://www.w3.org/2000/svg">
<rect width="1200" height="505" fill="white"/>
<path d="M983.091 405.708C982.63 407.394 982.169 409.064 981.707 410.702C972.259 407.314 962.318 402.988 952.154 397.484C905.28 372.019 845.602 315.315 827.517 189.612C819.723 135.421 829.664 83.8064 857.101 36.1367C858.692 37.0115 860.283 37.9023 861.81 38.8248C837.728 80.6252 824.208 130.601 832.591 188.864C850.373 312.341 908.604 367.947 954.349 392.84C964.179 398.2 973.866 402.415 983.091 405.692V405.708Z" fill="white"/>
<path d="M990.742 368.463C990.488 370.228 990.201 371.994 989.899 373.712C960.298 359.81 922.967 329.557 905.551 263.882C888.722 200.291 895.434 143.841 926.164 92.8633C927.373 94.2471 928.519 95.6627 929.68 97.0942C900.461 146.482 894.226 201.102 910.529 262.578C927.183 325.406 962.446 354.752 990.742 368.463Z" fill="white"/>
<path d="M711.294 110.348C713.775 193.79 704.279 247.711 680.484 285.201C655.56 324.488 613.998 348.235 545.683 362.185C532.958 364.793 520.376 366.097 508.033 366.097C469.589 366.097 433.372 353.58 401.64 329.085C364.738 300.581 336.474 257.652 320.266 207.405C321.856 206.737 323.415 206.101 325.037 205.481C340.911 254.884 368.603 297.098 404.789 325.045C445.46 356.474 493.846 367.561 544.665 357.19C671.704 331.2 710.944 271.235 706.172 110.491C704.82 64.8576 712.773 28.831 729.856 3C731.876 3 733.928 3.04771 735.995 3.09543C718.213 28.1948 709.926 64.1578 711.278 110.332L711.294 110.348Z" fill="white"/>
<path d="M552.776 283.021C547.496 283.896 542.04 284.357 536.489 284.357C495.532 284.357 448.641 259.544 425.816 189.495C427.614 189.463 429.395 189.447 431.193 189.447C456.34 264.65 510.26 284.834 551.933 277.995C608.224 268.769 662.367 210.808 651.901 121.561C647.4 83.2758 647.193 50.5894 649.595 22.9451C651.408 21.7999 653.301 20.6865 655.226 19.6367C652.426 47.79 652.331 81.3353 656.991 120.957C667.823 213.369 611.373 273.43 552.776 283.037V283.021Z" fill="white"/>
<path d="M586.894 188.457C584.922 197.444 581.47 206.622 575.553 214.32C567.696 224.611 556.657 230.719 542.74 232.421C541.07 232.628 539.431 232.723 537.825 232.723C529.188 232.723 521.283 229.781 514.268 223.88C504.995 216.086 498.235 203.997 493.32 190.923C495.213 191.018 497.09 191.098 498.951 191.177C503.516 202.757 509.56 213.223 517.577 219.967C524.75 225.979 533.021 228.476 542.119 227.347C554.621 225.804 564.483 220.38 571.497 211.234C576.364 204.888 579.434 197.269 581.311 189.666H581.343C583.283 189.3 585.129 188.903 586.926 188.441L586.894 188.457Z" fill="white"/>
<path d="M388.008 478.264H382.425C359.457 425.664 326.341 390.592 283.873 373.97C268.46 367.926 252.809 364.777 237.667 363.568C237.38 361.85 237.126 360.132 236.919 358.398C252.872 359.544 269.414 362.836 285.734 369.214C330.063 386.583 364.436 423.199 388.008 478.28V478.264Z" fill="white"/>
<path d="M277.144 319.72L261.318 336.04L254.717 326.337L252.522 323.077C245.476 324.842 235.073 311.068 230.906 303.719C226.755 296.339 243.408 284.966 243.408 284.966C240.688 276.823 229.777 271.701 229.474 269.442C229.172 267.215 231.876 264.814 241.801 269.442C251.743 274.103 260.363 290.565 260.363 290.565C262.129 285.778 254.287 272.814 255.735 271.351C257.166 269.919 264.849 271.685 270.766 284.155C276.715 296.657 273.168 311.386 273.168 311.386L273.247 311.513L277.16 319.705L277.144 319.72Z" fill="#98B2D8"/>
<path d="M242.804 283.536C242.804 283.536 254.558 296.992 253.302 302.273C252.045 307.553 246.113 301.43 246.113 301.43C246.113 301.43 251.552 307.712 249.787 309.796C248.021 311.88 241.468 306.599 241.468 306.599C241.468 306.599 249.31 316.365 241.468 314.918C233.626 313.47 223.765 298.678 231.336 297.199C231.336 297.199 230.414 286.43 237.301 290.105C237.301 290.105 234.215 281.134 242.804 283.536Z" fill="#B1C3E8"/>
<path d="M385.699 478.361C385.699 478.361 398.932 439.678 391.982 401.552C391.982 401.552 391.95 401.472 391.934 401.297C391.934 401.218 391.902 401.122 391.886 400.995C391.679 399.993 391.473 398.991 391.266 398.005C391.266 398.005 383.583 404.717 372.974 411.382C360.249 419.398 343.262 427.367 330.219 423.629C306.297 416.79 271.304 370.281 255.064 333.555C255.064 333.555 263.176 321.387 279.4 317.649C279.4 317.649 311.848 360.881 340.463 371.124C340.463 371.124 355.828 352.753 367.773 325.872C375.408 308.71 386.86 297.846 401.302 292.009C409.494 288.653 418.671 286.935 428.628 286.632L453.696 274.926C453.696 274.926 457.768 274.958 464.098 275.769C475.853 277.312 495.401 281.606 511.195 293.647C535.531 312.193 570.54 478.393 570.54 478.393H385.699V478.361Z" fill="#B7CAE5"/>
<path d="M391.934 401.307C391.728 400.21 391.505 399.112 391.266 397.999C391.266 397.999 383.584 404.711 372.975 411.376L380.371 348.055C387.894 377.051 391.505 398.715 391.918 401.307H391.934Z" fill="#97B3D1"/>
<path d="M464.101 275.745C460.236 300.336 435.613 323.049 417.847 322.747C403.547 322.492 401.448 302.006 401.305 291.985C409.496 288.629 418.674 286.911 428.631 286.609L453.698 274.902C453.698 274.902 457.77 274.934 464.101 275.745Z" fill="#CED9EA"/>
<path d="M421.552 453.23C421.552 453.23 478.017 394.458 480.483 332.68L497.136 384.755L490.726 438.978L421.552 453.23Z" fill="#97B3D1"/>
<path d="M419.915 478.348H356.689C356.689 478.348 356.848 469.711 366.615 466.816C376.381 463.937 382.616 451.769 411.914 453.376L419.915 478.348Z" fill="#98B2D8"/>
<path d="M484.604 420.242C484.604 420.242 454.813 437.373 407.907 449.541C407.907 449.541 401.401 465.224 412.821 478.362H503.58L484.62 420.258L484.604 420.242Z" fill="#B6C5DD"/>
<path d="M373.693 240.649C373.693 240.649 360.205 222.04 361.875 209.506C363.545 196.972 375.14 199.915 375.14 199.915C375.14 199.915 374.599 169.455 402.784 177.249C402.784 177.249 402.164 167.944 408.32 168.198C414.475 168.437 424.13 182.593 424.13 182.593C424.13 182.593 426.532 172.111 430.699 174.577C434.866 177.058 436.155 187.874 444.855 193.091C453.556 198.308 458.948 205.052 452.108 226.175C445.269 247.298 450.406 248.793 447.957 259.641C445.635 269.948 443.789 276.215 437.395 276.787C431.001 277.36 406.522 251.545 406.522 251.545L373.709 240.649H373.693Z" fill="#5D7CA0"/>
<path d="M453.714 274.895C453.714 274.895 438.015 312.973 421.521 310.11C413.329 308.679 411.5 303.684 411.436 297.894C411.357 290.339 414.299 281.48 409.846 277.758L429.617 249.668L433.975 243.465C433.975 243.465 439.303 258.878 453.73 274.895H453.714Z" fill="#98B2D8"/>
<path d="M411.42 297.898C411.34 290.343 414.283 281.483 409.829 277.762L429.6 249.672C431.286 251.644 432.495 255.159 432.988 260.663C435.596 289.675 420.263 296.419 411.42 297.898Z" fill="#799CBF"/>
<path d="M371.769 225.837C371.769 225.837 377.113 274.891 397.138 285.945C414.539 295.537 435.662 266.509 435.249 252.161C435.249 252.161 442.836 246.372 441.563 237.003C440.291 227.635 430.381 230.736 429.204 245.847C429.204 245.847 421.14 245.274 419.661 226.394C414.603 230.577 409.147 229.289 403.405 224.199C403.405 224.199 400.558 234.713 385.909 222.434C385.909 222.434 380.389 229.941 371.784 225.869L371.769 225.837Z" fill="#98B2D8"/>
<path d="M843.962 415.904C843.962 415.904 869.809 459.025 878.748 479.941H787.624C787.624 479.941 782.439 454.746 773.309 430.522L843.962 415.904Z" fill="#5D7CA0"/>
<path d="M808.428 425.515C803.433 442.041 795.83 456.15 784.553 466.854L787.639 479.929L677.38 478.561L689.659 403.088L808.444 425.499L808.428 425.515Z" fill="#799CBF"/>
<path d="M981.405 190.225C981.405 190.225 985.047 167.368 992.316 159.256C999.569 151.144 1019.42 139.151 1021.77 143.414C1024.13 147.677 1004.28 161.069 1004.28 161.069C1004.28 161.069 1013.25 158.938 1020.93 172.172C1028.61 185.405 1003.85 195.648 1003.85 195.648L998.933 206.751L979.289 194.376L981.405 190.24V190.225Z" fill="#799CBF"/>
<path d="M1006.79 161.499C1006.79 161.499 995.718 172.745 997.34 175.958C998.962 179.171 1005.05 174.129 1005.05 174.129C1005.05 174.129 1000.08 181.7 1003.94 183.656C1007.81 185.613 1013.77 179.059 1013.77 179.059C1013.77 179.059 1008.79 185.947 1011.66 187.219C1014.52 188.476 1029.82 177.691 1027.08 175.162C1024.35 172.633 1022.85 174.701 1022.85 174.701C1022.85 174.701 1026.05 169.309 1022.85 167.575C1019.37 165.698 1017.62 169.071 1017.62 169.071C1017.62 169.071 1020.23 164.935 1018.11 163.329C1016 161.722 1011.51 163.79 1011.51 163.79C1011.51 163.79 1012.98 156.903 1006.77 161.499H1006.79Z" fill="#98B2D8"/>
<path d="M996.514 161.232C993.158 160.278 986.319 167.261 986.319 167.261C983.631 170.712 983.09 177.599 982.979 180.78C982.629 189.656 979.272 194.364 979.272 194.364L989.245 200.647C996.96 190.706 994.431 177.981 993.19 173.464C996.944 167.849 998.519 161.789 996.514 161.216V161.232Z" fill="#98B2D8"/>
<path d="M1002.97 209.087C1002.97 209.087 969.682 297.762 916.763 305.619C893.095 309.134 875.217 309.484 862.715 308.816C847.811 308.053 840.479 305.794 839.938 305.635C839.906 305.635 839.906 305.603 839.906 305.603C839.906 305.603 825.384 332.643 834.785 371.501C844.153 410.327 847.589 418.455 847.589 418.455C847.589 418.455 776.251 470.912 718.243 423.147L665.897 341.757L649.498 316.244C649.498 316.244 664.561 266.793 707.029 234.647L707.061 234.616C723.062 222.479 742.992 212.793 767.455 209.214C780.005 207.321 793.732 207.035 808.747 208.832C808.747 208.832 820.279 212.093 839.016 218.948C849.1 222.639 861.3 227.378 874.899 233.216C913.757 249.869 924.43 254.832 924.43 254.832C924.43 254.832 965.816 214.002 976.505 189.236C976.505 189.236 997.835 191.384 1002.96 209.087H1002.97Z" fill="#B7CAE5"/>
<path d="M735.835 249.588C735.644 269.455 731.397 288.716 729.52 303.668L762.429 297.003L813.63 347.616C813.63 347.616 820.119 362.44 806.918 365.001C796.563 367.005 748.209 373.733 748.209 373.733C737.059 388.907 732.033 412.098 726.466 434.62L677.381 349.318L735.835 249.572V249.588Z" fill="#97B3D1"/>
<path d="M808.746 254.357C785.825 248.536 773.753 227.922 767.454 209.232C780.004 207.34 793.73 207.053 808.746 208.851C808.746 208.851 820.277 212.111 839.014 218.967C841.209 235.334 840.43 262.374 808.746 254.357Z" fill="#CED9EA"/>
<path d="M868.936 272.492C868.936 272.492 864.021 291.754 862.717 308.837C847.813 308.074 840.481 305.815 839.94 305.656C839.908 305.656 839.908 305.624 839.908 305.624C839.908 305.624 852.919 283.372 868.92 272.477L868.936 272.492Z" fill="#97B3D1"/>
<path d="M798.206 262.888L741.035 271.187C739.34 271.433 738.165 273.007 738.411 274.702L751.044 361.717C751.29 363.413 752.863 364.587 754.559 364.341L811.729 356.042C813.424 355.796 814.599 354.222 814.353 352.527L801.721 265.512C801.475 263.816 799.901 262.642 798.206 262.888Z" fill="#F2F4F9"/>
<path d="M770.111 300.656L778.859 297.236C778.859 297.236 787.178 274.189 797.532 288.695C797.532 288.695 804.69 284.432 804.467 282.078C804.244 279.724 804.149 276.32 804.149 276.32C804.149 276.32 818.639 279.454 815.394 299.654C812.15 319.854 799.775 317.294 787.607 317.516L772.449 323.497L770.095 300.656H770.111Z" fill="#98B2D8"/>
<path d="M775.756 328.825C775.756 328.825 707.568 373.95 678.126 352.191C673.641 348.866 669.569 345.351 665.911 341.772L649.512 316.26C649.512 316.26 664.574 266.808 707.043 234.663L707.075 234.631C721.151 228.301 735.864 230.607 736.612 243.65C738.409 274.714 711.847 293.817 708.554 307.909L769.664 295.534C769.664 295.534 779.605 306.08 775.756 328.825Z" fill="#C1CFE5"/>
<path d="M855.91 161.576C855.91 161.576 865.66 140.755 861.668 128.762C857.675 116.769 846.843 121.843 846.843 121.843C846.843 121.843 841.642 91.8287 815.429 104.776C815.429 104.776 814.284 95.5348 808.288 96.9186C802.291 98.3183 795.468 114.033 795.468 114.033C795.468 114.033 791.141 104.188 787.515 107.4C783.888 110.613 784.652 121.493 777.081 128.253C769.509 135.013 765.485 142.648 776.174 162.116C786.863 181.585 782.107 184.019 786.544 194.214C790.76 203.901 793.75 209.707 800.144 209.07C806.538 208.434 825.72 178.468 825.72 178.468L855.91 161.592V161.576Z" fill="#5D7CA0"/>
<path d="M783.744 210.263C783.744 210.263 798.823 247.403 822.507 241.327C830.571 239.259 830.619 230.606 829.601 224.896C828.249 217.468 823.699 209.308 827.374 204.823L802.672 180.948L797.232 175.684C797.232 175.684 794.894 191.828 783.744 210.263Z" fill="#98B2D8"/>
<path d="M829.6 224.895C828.248 217.467 823.699 209.307 827.373 204.822L802.672 180.947C801.383 183.206 800.858 186.88 801.415 192.368C804.31 221.364 820.645 225.086 829.6 224.895Z" fill="#799CBF"/>
<path d="M855.003 146.665C855.003 146.665 858.979 195.862 841.387 210.463C826.102 223.156 799.889 198.629 797.614 184.441C797.614 184.441 789.073 180.178 788.564 170.73C788.055 161.282 798.362 162.475 802.37 177.093C802.37 177.093 810.18 175.009 808.096 156.193C813.854 159.358 818.976 157.067 823.652 150.975C823.652 150.975 828.424 160.758 840.496 145.949C840.496 145.949 847.336 152.28 855.018 146.665H855.003Z" fill="#98B2D8"/>
<path d="M729.934 451.161V451.193C729.187 454.215 728.137 456.983 726.785 459.464C714.41 482.082 660.839 478.36 660.839 478.36H538.54C487.928 478.36 467.648 477.104 462.796 461.309C462.51 460.466 462.303 459.575 462.128 458.621C458.693 440.25 475.776 380.508 507.364 339.519C523.525 318.571 540.226 307.532 555.114 301.758C569.333 296.255 581.883 295.539 590.695 295.539C606.219 295.539 618.737 296.684 629.362 299.181C657.897 305.862 672.832 322.006 695.212 350.605C722.586 385.566 736.058 426.619 729.95 451.161H729.934Z" fill="url(#paint0_linear_306_5302)"/>
<g style="mix-blend-mode:multiply" opacity="0.22">
<path d="M514.842 436.654C528.107 415.786 532.29 386.821 535.981 357.443L547.512 417.201H647.401L665.756 357.443C665.326 385.374 669.16 412.764 682.409 438.976C682.409 438.976 617.1 512.891 514.858 436.654H514.842Z" fill="#1F395E"/>
</g>
<path d="M545.172 478.356H538.539C487.927 478.356 467.647 477.1 462.796 461.305C460.156 448.883 463.512 435.824 478.654 431.927C502.369 425.835 543.661 449.853 543.661 449.853L545.172 478.356Z" fill="url(#paint1_linear_306_5302)"/>
<path d="M729.938 451.164C729.938 451.164 729.97 451.164 729.938 451.196C729.19 454.218 728.14 456.985 726.788 459.467C714.414 482.085 660.843 478.363 660.843 478.363H624.546L629.159 447.633C629.159 447.633 693.498 417.841 716.545 427.146C727.822 431.679 731.274 441.111 729.938 451.164Z" fill="url(#paint2_linear_306_5302)"/>
<path d="M629.362 299.177C628.281 313.54 622.348 339.721 593.4 339.721C562.892 339.721 556.434 313.922 555.114 301.77C569.334 296.267 581.884 295.551 590.696 295.551C606.22 295.551 618.737 296.696 629.362 299.193V299.177Z" fill="#1F395E"/>
<path d="M655.715 478.347H538.537C535.705 478.347 533.415 476.056 533.415 473.225C533.415 470.394 535.705 468.104 538.537 468.104H655.715C658.546 468.104 660.836 470.394 660.836 473.225C660.836 476.056 658.546 478.347 655.715 478.347Z" fill="white"/>
<path d="M669.902 390.258L669.472 392.914V392.946L657.336 468.117H537.9L525.891 390.21C525.302 386.393 528.277 382.941 532.11 382.941H663.683C667.58 382.941 670.522 386.425 669.902 390.274V390.258Z" fill="#17A9E1"/>
<path d="M669.456 392.941L657.32 468.112H538.535L578.793 463.913C620.132 459.634 655.347 432.022 669.456 392.941Z" fill="#29B7EE"/>
<path d="M592.908 328.836H592.113C587.5 328.836 583.683 327.882 580.581 326.498C573.058 323.11 568.493 315.252 568.668 307.013C568.7 306.17 568.7 305.343 568.7 304.532C568.732 297.692 568.286 292.014 568.286 292.014V288.944L611.311 287.02C611.47 293.223 612.186 298.726 613.029 303.132C613.061 303.212 613.061 303.259 613.077 303.339C615.542 316.27 606.062 328.518 592.892 328.852L592.908 328.836Z" fill="#FEB19E"/>
<path d="M613.046 303.128C595.12 324.187 576.701 311.892 568.716 304.543C568.748 297.704 568.303 292.026 568.303 292.026V288.956L611.328 287.031C611.487 293.235 612.203 298.738 613.046 303.144V303.128Z" fill="#FF856A"/>
<path d="M555.132 268.026C555.132 268.026 568.477 305.628 590.729 305.628C612.982 305.628 622.239 265.131 622.239 265.131V229.916H553.446L555.148 268.026H555.132Z" fill="#FEB19E"/>
<path d="M547.973 246.809C547.973 246.809 541.42 248.002 542.534 255.525C543.647 263.048 550.486 272.178 556.038 267.375L547.973 246.809Z" fill="#FEB19E"/>
<path d="M627.421 243.662C627.421 243.662 634.07 243.964 633.99 251.567C633.91 259.17 628.375 269.143 622.22 265.135L627.421 243.662Z" fill="#FEB19E"/>
<path d="M627.422 243.661C627.422 243.661 625.116 256.815 622.221 265.134C622.221 265.134 616.956 264.068 615.238 250.198C615.238 250.198 603.85 252.425 596.692 241.657C596.692 241.657 594.99 252.33 583.999 244.759C576.667 250.739 567.998 251.375 558.168 247.319C558.168 247.319 559.822 261.317 555.13 268.029C555.13 268.029 553.428 262.494 547.973 246.81C547.973 246.81 545.634 246.89 544.139 249.021C544.139 249.021 532.353 225.958 537.904 214.872C543.455 203.785 550.931 208.048 550.931 208.048C550.931 208.048 548.163 192.89 564.594 187.339C581.025 181.788 581.025 174.312 583.586 175.807C586.147 177.302 587.212 182.853 587.212 182.853C587.212 182.853 615.604 179.863 623.287 210.386C623.287 210.386 643.789 211.038 631.621 245.411C631.621 245.411 630.826 243.979 627.438 243.661H627.422Z" fill="url(#paint3_linear_306_5302)"/>
<path d="M484.979 351.675L484.757 351.478H484.46H410.466C407.415 351.478 404.935 348.997 404.935 345.947V281.926C404.935 278.875 407.415 276.395 410.466 276.395H517.735C520.785 276.395 523.266 278.875 523.266 281.926V345.947C523.266 348.997 520.785 351.478 517.735 351.478H501.59H500.49L500.85 352.518L506.067 367.579C506.436 368.652 505.141 369.537 504.272 368.772C504.271 368.772 504.271 368.772 504.271 368.772L484.979 351.675Z" fill="white" stroke="#E4E4E4" stroke-width="1.56687"/>
<path d="M443.742 292.743H419.024C418.101 292.743 417.338 291.996 417.338 291.057C417.338 290.135 418.085 289.371 419.024 289.371H443.742C444.664 289.371 445.428 290.119 445.428 291.057C445.428 291.996 444.68 292.743 443.742 292.743Z" fill="#17A9E1"/>
<path d="M504.675 307.347H433.067C432.144 307.347 431.381 306.599 431.381 305.661C431.381 304.738 432.128 303.975 433.067 303.975H504.675C505.597 303.975 506.361 304.722 506.361 305.661C506.361 306.599 505.613 307.347 504.675 307.347Z" fill="#17A9E1"/>
<path d="M504.677 317.751H419.024C418.101 317.751 417.338 317.003 417.338 316.065C417.338 315.126 418.085 314.379 419.024 314.379H504.677C505.599 314.379 506.363 315.126 506.363 316.065C506.363 316.987 505.615 317.751 504.677 317.751Z" fill="#17A9E1"/>
<path d="M504.677 328.132H419.024C418.101 328.132 417.338 327.384 417.338 326.446C417.338 325.523 418.085 324.76 419.024 324.76H504.677C505.599 324.76 506.363 325.507 506.363 326.446C506.363 327.384 505.615 328.132 504.677 328.132Z" fill="#17A9E1"/>
<path d="M504.677 338.524H419.024C418.101 338.524 417.338 337.777 417.338 336.838C417.338 335.9 418.085 335.152 419.024 335.152H504.677C505.599 335.152 506.363 335.9 506.363 336.838C506.363 337.761 505.615 338.524 504.677 338.524Z" fill="#17A9E1"/>
<path d="M993.301 478.348H214.697C213.159 478.348 211.913 479.594 211.913 481.131V492.218C211.913 493.755 213.159 495.001 214.697 495.001H993.301C994.838 495.001 996.084 493.755 996.084 492.218V481.131C996.084 479.594 994.838 478.348 993.301 478.348Z" fill="#17A9E1"/>
<path d="M800.683 437.291H833.974V466.112C833.974 472.825 828.518 478.28 821.806 478.28H812.835C806.123 478.28 800.667 472.825 800.667 466.112V437.291H800.683Z" fill="url(#paint4_linear_306_5302)"/>
<path d="M811.244 437.291V428.399C811.244 426.936 812.421 425.759 813.884 425.759H817.24C818.704 425.759 819.881 424.582 819.881 423.119V419.762C819.881 418.299 818.704 417.122 817.24 417.122H806.44C799.012 417.122 793 411.11 793 403.682C793 396.254 799.012 390.241 806.44 390.241H820.772C822.235 390.241 823.412 389.064 823.412 387.601V386.408C823.412 378.71 829.647 372.475 837.345 372.475C845.044 372.475 851.279 378.71 851.279 386.408C851.279 394.711 844.535 401.455 836.232 401.455H811.021C809.558 401.455 808.381 402.632 808.381 404.095C808.381 405.559 809.558 406.736 811.021 406.736H824.796C829.886 406.736 834.005 410.855 834.005 415.945V421.703C834.005 426.793 829.886 430.912 824.796 430.912C823.332 430.912 822.155 432.09 822.155 433.553V437.323H811.276L811.244 437.291Z" fill="url(#paint5_linear_306_5302)"/>
<path d="M699.871 268.315H787.289C790.212 268.315 792.582 270.684 792.582 273.607V384.073C792.582 386.996 790.212 389.366 787.289 389.366H699.871C696.948 389.366 694.578 386.996 694.578 384.073V273.607C694.578 270.684 696.948 268.315 699.871 268.315Z" fill="white" stroke="#E4E4E4" stroke-width="1.56687"/>
<g style="mix-blend-mode:multiply">
<path d="M728.518 306.214H709.097V282.943H728.518V306.214ZM711.658 303.653H725.957V285.504H711.658V303.653Z" fill="#17A9E1"/>
<path d="M723.268 299.546L717.494 293.104L719.403 291.387L722.902 295.299C724.684 292.961 729.026 288.269 737.281 284.865L738.251 287.235C727.96 291.466 724.19 297.924 724.159 297.988L723.284 299.53L723.268 299.546Z" fill="#F89939"/>
<path d="M777.698 292.22H747.573C746.523 292.22 745.664 291.361 745.664 290.311C745.664 289.261 746.523 288.402 747.573 288.402H777.698C778.748 288.402 779.607 289.261 779.607 290.311C779.607 291.361 778.748 292.22 777.698 292.22Z" fill="#1BB9F5"/>
<path d="M777.698 301.438H747.573C746.523 301.438 745.664 300.58 745.664 299.53C745.664 298.48 746.523 297.621 747.573 297.621H777.698C778.748 297.621 779.607 298.48 779.607 299.53C779.607 300.58 778.748 301.438 777.698 301.438Z" fill="#1BB9F5"/>
</g>
<g style="mix-blend-mode:multiply">
<path d="M728.151 342.397H708.73V319.127H728.151V342.397ZM711.291 339.836H725.591V321.688H711.291V339.836Z" fill="#17A9E1"/>
<path d="M723.269 335.191L717.495 328.749L719.404 327.031L722.903 330.944C724.685 328.606 729.027 323.914 737.282 320.51L738.252 322.88C727.961 327.111 724.191 333.568 724.16 333.632L723.285 335.175L723.269 335.191Z" fill="#F89939"/>
<path d="M777.7 327.853H747.575C746.525 327.853 745.666 326.994 745.666 325.944C745.666 324.894 746.525 324.035 747.575 324.035H777.7C778.75 324.035 779.609 324.894 779.609 325.944C779.609 326.994 778.75 327.853 777.7 327.853Z" fill="#1BB9F5"/>
<path d="M777.7 337.083H747.575C746.525 337.083 745.666 336.224 745.666 335.174C745.666 334.125 746.525 333.266 747.575 333.266H777.7C778.75 333.266 779.609 334.125 779.609 335.174C779.609 336.224 778.75 337.083 777.7 337.083Z" fill="#1BB9F5"/>
</g>
<g style="mix-blend-mode:multiply">
<path d="M728.151 378.044H708.73V354.773H728.151V378.044ZM711.291 375.483H725.591V357.334H711.291V375.483Z" fill="#17A9E1"/>
<path d="M723.269 370.837L717.495 364.395L719.404 362.678L722.903 366.59C724.685 364.252 729.027 359.56 737.282 356.156L738.252 358.526C727.961 362.757 724.191 369.215 724.16 369.279L723.285 370.821L723.269 370.837Z" fill="#F89939"/>
<path d="M777.7 363.487H747.575C746.525 363.487 745.666 362.628 745.666 361.579C745.666 360.529 746.525 359.67 747.575 359.67H777.7C778.75 359.67 779.609 360.529 779.609 361.579C779.609 362.628 778.75 363.487 777.7 363.487Z" fill="#1BB9F5"/>
<path d="M777.7 372.73H747.575C746.525 372.73 745.666 371.871 745.666 370.821C745.666 369.771 746.525 368.912 747.575 368.912H777.7C778.75 368.912 779.609 369.771 779.609 370.821C779.609 371.871 778.75 372.73 777.7 372.73Z" fill="#1BB9F5"/>
</g>
<path d="M1006.92 99.3987H1094.34C1097.26 99.3987 1099.63 101.768 1099.63 104.691V215.157C1099.63 218.08 1097.26 220.45 1094.34 220.45H1006.92C1003.99 220.45 1001.62 218.08 1001.62 215.157V104.691C1001.62 101.768 1003.99 99.3987 1006.92 99.3987Z" fill="white" stroke="#E4E4E4" stroke-width="1.56687"/>
<g style="mix-blend-mode:multiply" opacity="0.5">
<path d="M1043.07 134.947C1045.03 126.69 1039.93 118.409 1031.67 116.451C1023.41 114.493 1015.13 119.599 1013.17 127.856C1011.22 136.113 1016.32 144.394 1024.58 146.352C1032.84 148.31 1041.12 143.203 1043.07 134.947Z" fill="url(#paint6_linear_306_5302)"/>
<path d="M1032.16 129.357L1042.4 111.113C1051.78 113.467 1056.27 122.311 1051.78 131.393L1032.14 129.373L1032.16 129.357Z" fill="#F89939"/>
<path d="M1022.55 163.399C1022.55 165.881 1020.55 167.885 1018.06 167.885C1015.58 167.885 1013.58 165.881 1013.58 163.399C1013.58 160.918 1015.58 158.914 1018.06 158.914C1020.55 158.914 1022.55 160.918 1022.55 163.399Z" fill="#F89939"/>
<path d="M1022.55 183.255C1022.55 185.736 1020.55 187.74 1018.06 187.74C1015.58 187.74 1013.58 185.736 1013.58 183.255C1013.58 180.774 1015.58 178.77 1018.06 178.77C1020.55 178.77 1022.55 180.774 1022.55 183.255Z" fill="#F89939"/>
<path d="M1081.04 167.885H1045.19C1042.7 167.885 1040.7 165.881 1040.7 163.399C1040.7 160.918 1042.7 158.914 1045.19 158.914H1081.04C1083.52 158.914 1085.52 160.918 1085.52 163.399C1085.52 165.881 1083.52 167.885 1081.04 167.885Z" fill="#1BB9F5"/>
<path d="M1081.04 187.74H1045.19C1042.7 187.74 1040.7 185.736 1040.7 183.255C1040.7 180.774 1042.7 178.77 1045.19 178.77H1081.04C1083.52 178.77 1085.52 180.774 1085.52 183.255C1085.52 185.736 1083.52 187.74 1081.04 187.74Z" fill="#1BB9F5"/>
<path d="M1022.55 203.415C1022.55 205.896 1020.55 207.901 1018.06 207.901C1015.58 207.901 1013.58 205.896 1013.58 203.415C1013.58 200.934 1015.58 198.93 1018.06 198.93C1020.55 198.93 1022.55 200.934 1022.55 203.415Z" fill="#F89939"/>
<path d="M1081.04 207.901H1045.19C1042.7 207.901 1040.7 205.896 1040.7 203.415C1040.7 200.934 1042.7 198.93 1045.19 198.93H1081.04C1083.52 198.93 1085.52 200.934 1085.52 203.415C1085.52 205.896 1083.52 207.901 1081.04 207.901Z" fill="#1BB9F5"/>
</g>
<path d="M259.359 42.9299H346.777C349.7 42.9299 352.07 45.2995 352.07 48.2225V179.175C352.07 182.098 349.7 184.467 346.777 184.467H259.359C256.436 184.467 254.067 182.098 254.067 179.175V48.2225C254.067 45.2995 256.436 42.9299 259.359 42.9299Z" fill="white" stroke="#E4E4E4" stroke-width="1.56687"/>
<path d="M281.585 87.5977L285.712 83.9325L298.534 98.37C299.242 99.1668 299.17 100.379 298.373 101.087L297.125 102.196C296.328 102.904 295.115 102.832 294.408 102.035L281.585 87.5977Z" fill="#17A9E1"/>
<path d="M277.123 61.0469C269.011 61.0469 262.395 67.6319 262.395 75.7756C262.395 83.9194 268.995 90.5044 277.123 90.5044C285.251 90.5044 291.852 83.9194 291.852 75.7756C291.852 67.6319 285.267 61.0469 277.123 61.0469ZM277.123 85.8122C271.588 85.8122 267.087 81.3268 267.087 75.7756C267.087 70.2245 271.588 65.7391 277.123 65.7391C282.659 65.7391 287.16 70.2245 287.16 75.7756C287.16 81.3268 282.674 85.8122 277.123 85.8122Z" fill="#17A9E1"/>
<path d="M336.784 69.1568H313.514C312.035 69.1568 310.842 67.9639 310.842 66.4847C310.842 65.0054 312.035 63.8125 313.514 63.8125H336.784C338.263 63.8125 339.456 65.0054 339.456 66.4847C339.456 67.9639 338.263 69.1568 336.784 69.1568Z" fill="#17A9E1"/>
<path d="M336.784 83.0279H313.514C312.035 83.0279 310.842 81.835 310.842 80.3558C310.842 78.8765 312.035 77.6836 313.514 77.6836H336.784C338.263 77.6836 339.456 78.8765 339.456 80.3558C339.456 81.835 338.263 83.0279 336.784 83.0279Z" fill="#17A9E1"/>
<path d="M336.784 95.8307H313.514C312.035 95.8307 310.842 94.6377 310.842 93.1585C310.842 91.6793 312.035 90.4863 313.514 90.4863H336.784C338.263 90.4863 339.456 91.6793 339.456 93.1585C339.456 94.6377 338.263 95.8307 336.784 95.8307Z" fill="#17A9E1"/>
<path d="M307.822 131.474H271.971C270.285 131.474 268.933 130.107 268.933 128.436C268.933 126.75 270.3 125.398 271.971 125.398H307.822C309.508 125.398 310.86 126.766 310.86 128.436C310.86 130.122 309.492 131.474 307.822 131.474Z" fill="#F89939"/>
<path d="M307.822 150.523H271.971C270.285 150.523 268.933 149.155 268.933 147.485C268.933 145.799 270.3 144.447 271.971 144.447H307.822C309.508 144.447 310.86 145.815 310.86 147.485C310.86 149.171 309.492 150.523 307.822 150.523Z" fill="#F89939"/>
<path d="M307.822 169.568H271.971C270.285 169.568 268.933 168.2 268.933 166.53C268.933 164.844 270.3 163.492 271.971 163.492H307.822C309.508 163.492 310.86 164.86 310.86 166.53C310.86 168.216 309.492 169.568 307.822 169.568Z" fill="#F89939"/>
<path d="M335.911 128.446C335.911 131.15 333.732 133.329 331.028 133.329C328.324 133.329 326.145 131.15 326.145 128.446C326.145 125.742 328.324 123.562 331.028 123.562C333.732 123.562 335.911 125.742 335.911 128.446Z" fill="#F89939"/>
<path d="M335.911 147.481C335.911 150.185 333.732 152.364 331.028 152.364C328.324 152.364 326.145 150.185 326.145 147.481C326.145 144.777 328.324 142.598 331.028 142.598C333.732 142.598 335.911 144.777 335.911 147.481Z" fill="#F89939"/>
<path d="M335.911 166.528C335.911 169.232 333.732 171.411 331.028 171.411C328.324 171.411 326.145 169.232 326.145 166.528C326.145 163.824 328.324 161.645 331.028 161.645C333.732 161.645 335.911 163.824 335.911 166.528Z" fill="#F89939"/>
<path d="M613.757 60.6174H773.849C779.249 60.6174 783.627 64.9952 783.627 70.3954V176.694C783.627 182.094 779.249 186.472 773.849 186.472H613.757C608.356 186.472 603.979 182.094 603.979 176.694V70.3954C603.979 64.9952 608.356 60.6174 613.757 60.6174Z" fill="white" stroke="#E4E4E4" stroke-width="1.56687"/>
<path d="M714.598 85.7714H625.907C623.346 85.7714 621.263 83.6877 621.263 81.1269C621.263 78.5661 623.346 76.4824 625.907 76.4824H714.598C717.159 76.4824 719.242 78.5661 719.242 81.1269C719.242 83.6877 717.159 85.7714 714.598 85.7714Z" fill="#1BB9F5"/>
<path d="M715.966 102.092H624.556C622.746 102.092 621.279 103.559 621.279 105.368V150.684C621.279 152.494 622.746 153.961 624.556 153.961H715.966C717.776 153.961 719.243 152.494 719.243 150.684V105.368C719.243 103.559 717.776 102.092 715.966 102.092Z" fill="#17A9E1"/>
<path d="M761.666 85.7714H735.405C732.844 85.7714 730.761 83.6877 730.761 81.1269C730.761 78.5661 732.844 76.4824 735.405 76.4824H761.666C764.227 76.4824 766.31 78.5661 766.31 81.1269C766.31 83.6877 764.227 85.7714 761.666 85.7714Z" fill="#1BB9F5"/>
<path d="M763.43 110.408H735.85C734.259 110.408 732.971 109.12 732.971 107.529C732.971 105.939 734.259 104.65 735.85 104.65H763.43C765.021 104.65 766.309 105.939 766.309 107.529C766.309 109.12 765.021 110.408 763.43 110.408Z" fill="#1BB9F5"/>
<path d="M763.43 123.432H735.85C734.259 123.432 732.971 122.143 732.971 120.553C732.971 118.962 734.259 117.674 735.85 117.674H763.43C765.021 117.674 766.309 118.962 766.309 120.553C766.309 122.143 765.021 123.432 763.43 123.432Z" fill="#1BB9F5"/>
<path d="M763.43 136.443H735.85C734.259 136.443 732.971 135.155 732.971 133.564C732.971 131.974 734.259 130.686 735.85 130.686H763.43C765.021 130.686 766.309 131.974 766.309 133.564C766.309 135.155 765.021 136.443 763.43 136.443Z" fill="#1BB9F5"/>
<path d="M763.43 149.469H735.85C734.259 149.469 732.971 148.18 732.971 146.59C732.971 144.999 734.259 143.711 735.85 143.711H763.43C765.021 143.711 766.309 144.999 766.309 146.59C766.309 148.18 765.021 149.469 763.43 149.469Z" fill="#1BB9F5"/>
<path d="M744.693 174.239H642.562C640.447 174.239 638.713 172.522 638.713 170.39C638.713 168.275 640.431 166.541 642.562 166.541H744.693C746.809 166.541 748.542 168.259 748.542 170.39C748.542 172.506 746.825 174.239 744.693 174.239Z" fill="#1BB9F5"/>
<path d="M108.541 209.594H260.076C264.351 209.594 267.834 213.077 267.834 217.352V309.128C267.834 313.404 264.351 316.886 260.076 316.886H108.541C104.266 316.886 100.783 313.404 100.783 309.128V217.352C100.783 213.077 104.266 209.594 108.541 209.594Z" fill="white" stroke="#E4E4E4" stroke-width="1.56687"/>
<g style="mix-blend-mode:multiply" opacity="0.5">
<path d="M160.683 259.061C156.77 263.006 151.331 265.439 145.318 265.439C133.325 265.439 123.591 255.705 123.591 243.712C123.591 231.719 133.325 221.969 145.318 221.969C147.752 221.969 150.106 222.382 152.285 223.114L145.318 243.712L160.683 259.061Z" fill="#1BB9F5"/>
<path d="M169.924 242.043C169.924 247.133 167.857 251.746 164.516 255.07L151.474 242.043L157.391 224.562C164.675 227.028 169.94 233.915 169.94 242.043H169.924Z" fill="#17A9E1"/>
<path d="M243.329 266.732H193.385V224.566C193.385 223.866 193.957 223.277 194.673 223.277C195.389 223.277 195.962 223.85 195.962 224.566V264.171H243.345C244.061 264.171 244.633 264.744 244.633 265.46C244.633 266.175 244.061 266.748 243.345 266.748L243.329 266.732Z" fill="#17A9E1"/>
<path d="M210.246 244.996H203.836V264.163H210.246V244.996Z" fill="#F89939"/>
<g style="mix-blend-mode:multiply">
<path d="M223.481 235.287H217.071V264.172H223.481V235.287Z" fill="#17A9E1"/>
</g>
<path d="M236.505 249.719H230.095V264.161H236.505V249.719Z" fill="#F89939"/>
<path d="M156.102 281.363H126.008C124.77 281.363 123.766 282.367 123.766 283.606C123.766 284.845 124.77 285.849 126.008 285.849H156.102C157.341 285.849 158.345 284.845 158.345 283.606C158.345 282.367 157.341 281.363 156.102 281.363Z" fill="#1BB9F5"/>
<path d="M200.752 281.803H170.659C169.42 281.803 168.416 282.807 168.416 284.045C168.416 285.284 169.42 286.288 170.659 286.288H200.752C201.991 286.288 202.995 285.284 202.995 284.045C202.995 282.807 201.991 281.803 200.752 281.803Z" fill="#1BB9F5"/>
<path d="M243.856 281.803H213.762C212.524 281.803 211.52 282.807 211.52 284.045C211.52 285.284 212.524 286.288 213.762 286.288H243.856C245.095 286.288 246.099 285.284 246.099 284.045C246.099 282.807 245.095 281.803 243.856 281.803Z" fill="#1BB9F5"/>
<path d="M174.601 302.288H144.507C143.267 302.288 142.265 301.286 142.265 300.045C142.265 298.805 143.267 297.803 144.507 297.803H174.601C175.842 297.803 176.844 298.805 176.844 300.045C176.844 301.286 175.842 302.288 174.601 302.288Z" fill="#1BB9F5"/>
<path d="M217.721 302.288H187.627C186.387 302.288 185.385 301.286 185.385 300.045C185.385 298.805 186.387 297.803 187.627 297.803H217.721C218.962 297.803 219.964 298.805 219.964 300.045C219.964 301.286 218.962 302.288 217.721 302.288Z" fill="#1BB9F5"/>
</g>
<defs>
<linearGradient id="paint0_linear_306_5302" x1="596.548" y1="468.292" x2="596.548" y2="314.197" gradientUnits="userSpaceOnUse">
<stop stop-color="#1F3A65"/>
<stop offset="1" stop-color="#294A7A"/>
</linearGradient>
<linearGradient id="paint1_linear_306_5302" x1="503.578" y1="480.249" x2="503.578" y2="438.815" gradientUnits="userSpaceOnUse">
<stop stop-color="#1F3A65"/>
<stop offset="1" stop-color="#294A7A"/>
</linearGradient>
<linearGradient id="paint2_linear_306_5302" x1="677.385" y1="480.255" x2="677.385" y2="438.821" gradientUnits="userSpaceOnUse">
<stop stop-color="#1F3A65"/>
<stop offset="1" stop-color="#294A7A"/>
</linearGradient>
<linearGradient id="paint3_linear_306_5302" x1="586.751" y1="255.861" x2="585.017" y2="188.818" gradientUnits="userSpaceOnUse">
<stop stop-color="#3F2323"/>
<stop offset="1" stop-color="#5E3434"/>
</linearGradient>
<linearGradient id="paint4_linear_306_5302" x1="800.683" y1="457.778" x2="833.974" y2="457.778" gradientUnits="userSpaceOnUse">
<stop stop-color="#1F3A65"/>
<stop offset="1" stop-color="#294A7A"/>
</linearGradient>
<linearGradient id="paint5_linear_306_5302" x1="848.225" y1="343.415" x2="805.963" y2="427.286" gradientUnits="userSpaceOnUse">
<stop stop-color="#E2E8F7"/>
<stop offset="1" stop-color="white"/>
</linearGradient>
<linearGradient id="paint6_linear_306_5302" x1="1024.61" y1="146.358" x2="1031.7" y2="116.457" gradientUnits="userSpaceOnUse">
<stop stop-color="#3855E1"/>
<stop offset="1" stop-color="#5C7EF7"/>
</linearGradient>
</defs>
</svg>
