<svg width="1200" height="1200" viewBox="0 0 1200 1200" fill="none" xmlns="http://www.w3.org/2000/svg">
<rect width="1200" height="1200" fill="white"/>
<rect x="172.404" y="208.375" width="851.436" height="505.501" rx="2.601" fill="white" stroke="#E4E4E4" stroke-width="1.734"/>
<rect x="195.758" y="287.949" width="151.775" height="380.956" rx="9.53698" fill="white" stroke="#E4E4E4" stroke-width="1.734"/>
<rect x="811.455" y="307.321" width="128.849" height="107.373" rx="5.42353" fill="white"/>
<path d="M912.155 365.179H901.383V402.081H912.155V365.179Z" fill="#F89939"/>
<path d="M896.137 375.532H885.365V402.081H896.137V375.532Z" fill="#F89939"/>
<path d="M927.692 348.078H916.92V402.082H927.692V348.078Z" fill="#F89939"/>
<path d="M925.956 321.097L925.766 319.934L897.334 324.588L888.115 344.232L857.462 346.313L847.532 360.961L824.097 360.381L824.067 361.562L848.146 362.158L858.114 347.451L888.889 345.366L898.138 325.654L925.956 321.097Z" fill="#28A44A"/>
<path d="M844.438 340.308C844.438 342.015 843.055 343.4 841.346 343.4C839.636 343.4 838.254 342.018 838.254 340.308C838.254 338.599 839.639 337.219 841.346 337.219C843.053 337.219 844.438 338.601 844.438 340.308Z" fill="#17A9E1"/>
<path d="M846.923 350.38V356.258C845.216 357.034 843.319 357.466 841.322 357.466C839.325 357.466 837.425 357.034 835.718 356.258V350.38C835.718 347.286 838.225 344.779 841.322 344.779C844.419 344.779 846.923 347.288 846.923 350.38Z" fill="#17A9E1"/>
<path d="M841.321 357.837C839.313 357.837 837.375 357.418 835.566 356.594C830.604 354.339 827.396 349.361 827.396 343.91C827.396 336.234 833.645 329.985 841.321 329.985C848.997 329.985 855.245 336.231 855.245 343.91C855.245 349.361 852.038 354.337 847.075 356.594C845.266 357.418 843.328 357.837 841.321 357.837ZM841.321 330.723C834.047 330.723 828.129 336.639 828.129 343.912C828.129 349.074 831.167 353.789 835.87 355.928C837.582 356.709 839.418 357.104 841.321 357.104C843.224 357.104 845.057 356.709 846.769 355.928C851.471 353.792 854.507 349.076 854.507 343.912C854.507 336.639 848.589 330.723 841.318 330.723H841.321Z" fill="url(#paint0_linear_77_3682)"/>
<path d="M877.82 375.788H828.518V380.182H877.82V375.788Z" fill="#17A9E1"/>
<path d="M873.778 394.211H828.518V398.605H873.778V394.211Z" fill="#17A9E1"/>
<path d="M867.676 385H828.518V389.394H867.676V385Z" fill="#17A9E1"/>
<rect x="811.455" y="307.321" width="128.849" height="107.373" rx="5.42353" stroke="#E4E4E4" stroke-width="1.734"/>
<path d="M650.439 599.283H853.533C858.027 599.283 862.056 600.159 864.929 601.537C867.865 602.944 869.316 604.72 869.316 606.399V694.216C869.316 695.893 867.866 697.668 864.93 699.076C862.057 700.453 858.03 701.329 853.537 701.329H650.444C645.949 701.329 641.92 700.453 639.047 699.076C636.111 697.668 634.661 695.892 634.661 694.214V606.396C634.661 604.719 636.111 602.944 639.047 601.536C641.919 600.159 645.947 599.283 650.439 599.283Z" fill="white" stroke="#E4E4E4" stroke-width="1.734"/>
<path d="M721.25 663.836C726.032 650.467 721.716 636.053 711.505 627.367C709.071 625.295 706.303 623.549 703.24 622.219C702.566 621.924 701.873 621.653 701.172 621.404C694.106 618.875 686.749 618.889 680.099 620.97C670.503 623.974 662.382 631.285 658.736 641.482C657.532 644.848 656.908 648.278 656.804 651.671C656.383 665.668 664.92 678.947 678.814 683.919C696.078 690.09 715.075 681.105 721.25 663.841V663.836ZM681.61 676.092C671.191 672.369 664.789 662.407 665.106 651.915C665.183 649.372 665.653 646.803 666.558 644.278C669.291 636.632 675.38 631.154 682.573 628.901C687.559 627.344 693.074 627.331 698.372 629.226C698.897 629.416 699.417 629.62 699.924 629.842C702.222 630.837 704.294 632.149 706.122 633.701C713.777 640.211 717.011 651.019 713.428 661.045C708.8 673.988 694.553 680.725 681.61 676.097V676.092Z" fill="#1BB9F5"/>
<path d="M682.574 628.902L680.095 620.971C670.499 623.975 662.378 631.286 658.732 641.484C657.528 644.85 656.904 648.279 656.8 651.672L665.106 651.921C665.183 649.378 665.654 646.809 666.558 644.284C669.291 636.638 675.38 631.16 682.574 628.907V628.902Z" fill="url(#paint1_linear_77_3682)"/>
<path d="M804.509 631.512H837.273C839.34 631.512 841.019 629.833 841.019 627.766C841.019 625.693 839.34 624.02 837.273 624.02H804.509C802.441 624.02 800.763 625.693 800.763 627.766C800.763 629.833 802.437 631.512 804.509 631.512Z" fill="#17A9E1"/>
<path d="M804.509 644.571H837.273C839.34 644.571 841.019 642.893 841.019 640.825C841.019 638.758 839.34 637.079 837.273 637.079H804.509C802.441 637.079 800.763 638.758 800.763 640.825C800.763 642.893 802.437 644.571 804.509 644.571Z" fill="#1BB9F5"/>
<path d="M804.509 657.644H837.273C839.34 657.644 841.019 655.965 841.019 653.898C841.019 651.83 839.34 650.152 837.273 650.152H804.509C802.441 650.152 800.763 651.83 800.763 653.898C800.763 655.965 802.437 657.644 804.509 657.644Z" fill="#1BB9F5"/>
<path d="M745.208 637.98H726.469V637.26H744.909L754.776 627.393H766.86V628.112H755.075L745.208 637.98Z" fill="#72ACFB"/>
<path d="M762.963 670.722H738.849L731.036 662.909L731.547 662.398L739.148 670.003H762.963V670.722Z" fill="#72ACFB"/>
<path d="M781.552 632.162H756.556V635.229H781.552V632.162Z" fill="#17A9E1"/>
<path d="M769.055 663.428H748.932V666.495H769.055V663.428Z" fill="#17A9E1"/>
<path d="M240.874 181.132V190.232H152.11V279.006H143V181.132H240.874Z" fill="#17A9E1"/>
<path d="M1034.51 166H962.259V171.059H1034.51V166Z" fill="#17A9E1"/>
<path d="M1034.51 175.55H962.259V196.856H1034.51V175.55Z" fill="#17A9E1"/>
<path d="M955.336 183.638H912.705V186.824H955.336V183.638Z" fill="#17A9E1"/>
<path d="M955.336 188.217H912.705V196.839H955.336V188.217Z" fill="#17A9E1"/>
<path d="M1036.1 166H1032.92V225.661H1036.1V166Z" fill="#17A9E1"/>
<path d="M952.997 450.525H654.046H654.042C642.391 450.525 632.928 459.983 632.928 471.638V557.176C632.928 568.827 642.386 578.29 654.042 578.29H952.993C964.648 578.29 974.11 568.827 974.11 557.172V471.638C974.11 459.987 964.652 450.525 952.997 450.525Z" fill="white" stroke="#E4E4E4" stroke-width="1.734"/>
<path d="M735.113 502.588C728.513 484.133 710.876 472.797 692.285 473.357C687.787 473.496 683.227 474.326 678.757 475.925C665.218 480.767 655.509 491.555 651.518 504.298C648.754 513.127 648.737 522.896 652.095 532.281C652.43 533.214 652.79 534.134 653.178 535.029C654.945 539.094 657.26 542.771 660.012 546.005C671.548 559.57 690.69 565.299 708.451 558.948C731.376 550.749 743.313 525.513 735.118 502.588H735.113ZM704.733 548.557C691.418 553.321 677.069 549.023 668.415 538.857C666.354 536.432 664.616 533.676 663.296 530.625C663.001 529.954 662.731 529.263 662.482 528.564C659.967 521.526 659.979 514.202 662.052 507.581C665.042 498.029 672.321 489.94 682.475 486.312C685.828 485.11 689.243 484.489 692.616 484.386C706.553 483.965 719.778 492.467 724.726 506.301C730.873 523.489 721.921 542.407 704.733 548.557Z" fill="#1BB9F5"/>
<path d="M662.052 507.579L651.518 504.291C655.509 491.548 665.217 480.761 678.757 475.919C683.227 474.32 687.786 473.49 692.285 473.351L692.616 484.38C689.242 484.486 685.828 485.108 682.474 486.306C672.32 489.933 665.045 498.022 662.052 507.575V507.579Z" fill="#17A9E1"/>
<path d="M663.296 530.62L653.178 535.024C652.79 534.128 652.43 533.208 652.095 532.276C648.737 522.891 648.754 513.121 651.518 504.292L662.052 507.58C659.979 514.201 659.967 521.525 662.482 528.563C662.731 529.262 663.005 529.953 663.296 530.624V530.62Z" fill="#F89939"/>
<path d="M660.01 546.007C657.258 542.772 654.943 539.096 653.177 535.031L663.294 530.626C664.619 533.673 666.357 536.433 668.414 538.858L660.01 546.007Z" fill="#28A44A"/>
<path d="M760.354 505.294H752.548V560.897H760.354V505.294Z" fill="#DEDEDE"/>
<path d="M779.737 516.578H771.931V560.883H779.737V516.578Z" fill="#DEDEDE"/>
<path d="M799.122 508.274H791.315V560.892H799.122V508.274Z" fill="#DEDEDE"/>
<path d="M818.504 524.679H810.697V560.883H818.504V524.679Z" fill="#DEDEDE"/>
<path d="M837.891 509.981H830.084V560.894H837.891V509.981Z" fill="#DEDEDE"/>
<path d="M857.272 502.3H849.465V560.889H857.272V502.3Z" fill="#DEDEDE"/>
<path d="M876.657 499.103H868.851V560.89H876.657V499.103Z" fill="#DEDEDE"/>
<path d="M760.354 526.007H752.548V560.894H760.354V526.007Z" fill="#F89939"/>
<path d="M779.737 533.092H771.931V560.887H779.737V533.092Z" fill="#F89939"/>
<path d="M799.122 527.876H791.315V560.89H799.122V527.876Z" fill="#F89939"/>
<path d="M818.504 538.172H810.697V560.884H818.504V538.172Z" fill="#F89939"/>
<path d="M837.891 528.947H830.084V560.889H837.891V528.947Z" fill="#F89939"/>
<path d="M857.272 524.138H849.465V560.893H857.272V524.138Z" fill="#F89939"/>
<path d="M876.657 522.133H868.851V560.896H876.657V522.133Z" fill="#F89939"/>
<path d="M898.044 505.294H890.237V560.897H898.044V505.294Z" fill="#DEDEDE"/>
<path d="M917.426 516.579H909.619V560.884H917.426V516.579Z" fill="#DEDEDE"/>
<path d="M936.813 508.275H929.006V560.893H936.813V508.275Z" fill="#DEDEDE"/>
<path d="M956.193 524.68H948.387V560.884H956.193V524.68Z" fill="#DEDEDE"/>
<path d="M898.044 526.007H890.237V560.894H898.044V526.007Z" fill="#F89939"/>
<path d="M917.426 533.093H909.619V560.888H917.426V533.093Z" fill="#F89939"/>
<path d="M936.813 527.877H929.006V560.891H936.813V527.877Z" fill="#F89939"/>
<path d="M956.193 538.173H948.387V560.885H956.193V538.173Z" fill="#F89939"/>
<path d="M953.224 477.821H751.188C749.548 477.821 748.215 476.488 748.215 474.848V472.849C748.215 471.209 749.548 469.876 751.188 469.876H953.224C954.864 469.876 956.193 471.205 956.193 472.845V474.844C956.193 476.484 954.86 477.817 953.22 477.817L953.224 477.821Z" fill="#17A9E1"/>
<path d="M953.224 491.667H751.188C749.548 491.667 748.215 490.333 748.215 488.694V486.694C748.215 485.054 749.548 483.721 751.188 483.721H953.224C954.864 483.721 956.193 485.05 956.193 486.69V488.689C956.193 490.329 954.86 491.662 953.22 491.662L953.224 491.667Z" fill="#1BB9F5"/>
<g style="mix-blend-mode:hard-light">
<path d="M384.916 287.949H573.58C586.09 287.949 596.258 298.106 596.258 310.626V663.615C596.258 676.125 586.1 686.293 573.58 686.293H384.916C372.406 686.293 362.238 676.135 362.238 663.615V310.616C362.238 298.106 372.396 287.949 384.906 287.949H384.916Z" fill="#F4F4F4" stroke="#787777" stroke-width="1.734"/>
</g>
<path d="M428.962 525.709H427.934V657.959H428.962V525.709Z" fill="#1BB9F5"/>
<path d="M479.106 525.709H478.078V657.959H479.106V525.709Z" fill="#1BB9F5"/>
<path d="M529.25 525.709H528.222V657.959H529.25V525.709Z" fill="#1BB9F5"/>
<path d="M579.383 525.709H578.354V657.959H579.383V525.709Z" fill="#72ACFB"/>
<path d="M378.312 604.357C378.312 604.357 398.741 621.561 418.489 601.182C438.237 580.802 461.008 573.993 481.143 591.155C501.278 608.317 509.116 584.762 529.241 565.462C549.375 546.162 549.05 535.179 578.865 535.179V657.972H378.312V604.347V604.357Z" fill="#17A9E1"/>
<path d="M440.915 514.71H428.455V519.525H440.915V514.71Z" fill="#1BB9F5"/>
<path d="M394.759 514.71H377.801V519.525H394.759V514.71Z" fill="#1BB9F5"/>
<path d="M493.949 514.71H478.599V519.525H493.949V514.71Z" fill="#1BB9F5"/>
<path d="M543.571 514.71H528.221V519.525H543.571V514.71Z" fill="#1BB9F5"/>
<path d="M578.864 514.71H563.514V519.525H578.864V514.71Z" fill="#1BB9F5"/>
<path d="M570.1 427.739H503.059V436.218H570.1V427.739Z" fill="#17A9E1"/>
<path d="M564.603 463.285H503.059V471.765H564.603V463.285Z" fill="#17A9E1"/>
<path d="M556.307 445.512H503.059V453.992H556.307V445.512Z" fill="#17A9E1"/>
<path d="M442.95 415.64C442.95 422.114 437.708 427.366 431.224 427.366C424.739 427.366 419.497 422.124 419.497 415.64C419.497 409.155 424.75 403.923 431.224 403.923C437.698 403.923 442.95 409.166 442.95 415.64Z" fill="#17A9E1"/>
<path d="M452.377 453.86V476.153C445.903 479.095 438.706 480.733 431.132 480.733C423.559 480.733 416.352 479.095 409.878 476.153V453.86C409.878 442.123 419.385 432.616 431.132 432.616C442.879 432.616 452.377 442.133 452.377 453.86Z" fill="#17A9E1"/>
<path d="M431.132 482.136C423.517 482.136 416.168 480.548 409.307 477.423C390.486 468.872 378.321 449.99 378.321 429.315C378.321 400.202 402.019 376.505 431.132 376.505C460.244 376.505 483.942 400.192 483.942 429.315C483.942 449.99 471.778 468.862 452.956 477.423C446.095 480.548 438.746 482.136 431.132 482.136ZM431.132 379.304C403.546 379.304 381.1 401.739 381.1 429.325C381.1 448.9 392.623 466.785 410.457 474.898C416.952 477.861 423.914 479.357 431.132 479.357C438.349 479.357 445.301 477.861 451.796 474.898C469.63 466.796 481.143 448.91 481.143 429.325C481.143 401.739 458.697 379.304 431.121 379.304H431.132Z" fill="url(#paint2_linear_77_3682)"/>
<path d="M535.898 407.011C518.298 407.011 503.996 392.699 503.996 375.109C503.996 357.519 518.308 343.207 535.898 343.207C553.488 343.207 567.8 357.519 567.8 375.109C567.8 392.699 553.488 407.011 535.898 407.011ZM535.898 349.589C521.83 349.589 510.379 361.041 510.379 375.109C510.379 389.176 521.82 400.628 535.898 400.628C549.976 400.628 561.407 389.176 561.407 375.109C561.407 361.041 549.966 349.589 535.898 349.589Z" fill="#17A9E1"/>
<path d="M476.816 311.507H428.739V319.172H476.816V311.507Z" fill="#17A9E1"/>
<path d="M268.913 315.191H220.836V322.856H268.913V315.191Z" fill="#17A9E1"/>
<path d="M268.913 423.295H220.836V430.96H268.913V423.295Z" fill="#17A9E1"/>
<path d="M268.913 533.567H220.836V541.232H268.913V533.567Z" fill="#17A9E1"/>
<path d="M476.806 331.258H435.824V338.933H476.806V331.258Z" fill="#17A9E1"/>
<path d="M261.818 350.955H220.836V358.63H261.818V350.955Z" fill="#17A9E1"/>
<path d="M261.818 460.048H220.836V467.724H261.818V460.048Z" fill="#17A9E1"/>
<path d="M261.818 570.319H220.836V577.995H261.818V570.319Z" fill="#17A9E1"/>
<path d="M476.806 351.023H410.905V358.688H476.806V351.023Z" fill="#17A9E1"/>
<path d="M286.737 386.746H220.836V394.411H286.737V386.746Z" fill="#17A9E1"/>
<path d="M286.737 496.801H220.836V504.466H286.737V496.801Z" fill="#17A9E1"/>
<path d="M286.737 607.072H220.836V614.737H286.737V607.072Z" fill="#17A9E1"/>
<g style="mix-blend-mode:hard-light">
<path d="M787.614 303.51H640.098L640.088 303.5H639.729C635.972 303.5 632.927 306.545 632.927 310.302V412.329C632.927 416.086 635.972 419.131 639.729 419.131H787.614C791.371 419.131 794.416 416.086 794.416 412.329V310.312C794.416 306.555 791.371 303.51 787.614 303.51Z" fill="#F4F4F4" stroke="#727272" stroke-width="1.734"/>
</g>
<path d="M650.029 334.414H699.144C700.977 334.414 702.463 335.9 702.463 337.733V339.219C702.463 341.051 700.977 342.537 699.144 342.537H650.029C648.197 342.537 646.711 341.051 646.711 339.219V337.733C646.711 335.9 648.197 334.414 650.029 334.414Z" fill="#1BB9F5"/>
<path d="M649.642 316.044H687.459C689.077 316.044 690.401 317.358 690.401 318.986V321.226C690.401 322.844 689.087 324.168 687.459 324.168H649.642C648.024 324.168 646.711 322.854 646.711 321.236V318.986C646.711 317.368 648.024 316.055 649.642 316.055V316.044Z" fill="#17A9E1"/>
<path d="M646.711 402.553L679.02 370.244L688.67 379.894L724.125 344.439L739.862 360.176L781.027 319.011V402.553H646.711Z" fill="#1BB9F5"/>
<path d="M780.661 402.547V338.479L738.203 380.937L722.995 365.729L697.638 391.085L678.419 383.451L646.711 402.547H780.661Z" fill="#17A9E1"/>
<path d="M903.901 1007.26C903.901 1007.26 891.991 1023.98 893.629 1026.64C895.258 1029.28 907.779 1029.67 915.403 1026.64C923.028 1023.6 923.211 1004.01 926.662 995.58C928.107 992.058 925.012 981.645 920.666 980.891C916.319 980.138 911.596 982.347 911.596 982.347C911.596 982.347 916.095 994.216 903.901 1007.26Z" fill="#3A3D5D"/>
<path d="M911.526 982.214C911.526 982.214 909.022 989.339 908.106 996.139C907.342 1001.78 899.626 1013.76 899.983 1015.28C900.349 1016.79 910.142 1018.17 914.132 1014.26C918.122 1010.36 920.698 998.999 921.573 992.2C922.398 985.868 923.425 982.743 923.425 982.743C923.425 982.743 915.323 978.05 911.516 982.214H911.526Z" fill="#DBA585"/>
<path d="M1007.54 1007.53C1007.54 1007.53 996.062 1023.98 997.701 1026.63C999.34 1029.27 1011.86 1029.66 1019.48 1026.63C1027.11 1023.59 1027.28 1004 1030.73 995.571C1032.18 992.049 1029.08 981.635 1024.75 980.882C1020.4 980.129 1015.31 982.511 1015.31 982.511C1015.31 982.511 1019.76 994.492 1007.55 1007.53H1007.54Z" fill="#3A3D5D"/>
<path d="M1015.3 982.509C1015.3 982.509 1014.4 990.265 1012.94 995.762C1011.48 1001.25 1003.69 1013.75 1004.04 1015.27C1004.41 1016.78 1014.2 1018.16 1018.19 1014.25C1022.18 1010.35 1025.27 999.03 1025.63 992.189C1026 985.349 1024.73 980.88 1024.73 980.88C1024.73 980.88 1019.1 978.335 1015.29 982.509H1015.3Z" fill="#DBA585"/>
<path d="M957.942 710.185C957.942 710.185 947.722 759.789 945.381 772.279C943.03 784.769 936.464 845.244 935.762 855.536C935.059 865.817 925.104 904.57 925.572 908.244C926.04 911.919 910.802 985.699 910.802 985.699C910.802 985.699 916.003 990.066 921.49 986.096C924.31 984.05 954.909 917.019 954.909 898.655C954.909 873.268 972.896 840.134 975.217 834.454C996.776 781.695 992.532 765.56 995.351 762.14C998.171 758.71 998.405 764.257 1000.05 771.851C1001.69 779.445 1005.22 845.071 1007.32 853.388C1009.43 861.714 1007.8 889.871 1008.97 904.071C1010.14 918.271 1015.29 982.523 1015.29 982.523C1015.29 982.523 1019.28 989.038 1024.88 982.686C1026.08 981.322 1034.54 911.125 1034.78 894.227C1035.01 877.34 1035.26 854.029 1035.71 846.731C1040.06 776.707 1050.75 766.711 1033.91 717.158C1002.4 624.373 957.932 710.195 957.932 710.195L957.942 710.185Z" fill="#DBA585"/>
<path d="M1026.56 696.332C1026.56 696.332 1055.68 738.841 1043.13 829.274C1043.13 829.274 974.098 839.077 937.106 817.945C937.106 817.945 952.396 724.712 957.944 710.196C963.491 695.691 1026.56 696.342 1026.56 696.342V696.332Z" fill="#42466C"/>
<path d="M926.977 994.092V1011.61H924.799V998.083L926.977 994.092Z" fill="#3A3D5D"/>
<path d="M1031.05 994.092V1011.61H1028.87V998.083L1031.05 994.092Z" fill="#3A3D5D"/>
<path d="M992.052 507.823C992.052 507.823 972.558 527.459 979.195 552.745C985.832 578.03 996.5 578.173 1008.26 567.301C1020.01 556.419 1026.94 544.978 1028.49 532.264C1030.04 519.55 1009.85 490.305 992.052 507.833V507.823Z" fill="#DBA585"/>
<path d="M988.236 592.152C988.236 592.152 991.127 585.535 993.152 578.094C993.509 576.781 993.834 575.437 994.119 574.104C995.117 569.421 995.524 564.8 994.445 561.634C991.34 552.452 1013.94 558.804 1013.94 558.804C1013.94 558.804 1009.56 583.102 1013.94 591.287C1018.32 599.481 988.226 592.131 988.226 592.131L988.236 592.152Z" fill="#DBA585"/>
<path d="M1045.52 603.729C1041.96 596.624 1039.3 594.344 1032.43 592.166C1028.59 590.954 1011.39 586.475 1011.39 586.475L990.749 585.722C990.749 585.722 976.549 588.084 965.535 591.901C954.51 595.718 940.076 616.586 940.076 616.586C940.076 616.586 959.987 663.35 963.804 676.766C967.611 690.193 965.077 710.948 965.077 710.948C988.947 723.947 1027.23 709.676 1027.23 709.676C1024.33 699.191 1024.21 686.946 1025.74 678.263C1025.92 677.234 1026.11 676.267 1026.34 675.341C1026.54 674.506 1026.82 673.315 1027.15 671.972C1027.16 671.911 1027.18 671.86 1027.19 671.799C1042.38 673.356 1056.62 673.977 1056.99 670.944C1058.66 657.222 1050.41 613.481 1045.51 603.719L1045.52 603.729ZM1035 657.039C1034.39 656.947 1033.08 656.947 1031.71 656.815C1033.4 652.112 1035.28 647.948 1035.28 647.948C1036.36 650.951 1040.45 657.853 1035.01 657.039H1035Z" fill="#E6D8D1"/>
<path d="M998.416 521.943C998.416 521.943 1007.74 538.891 1013.53 544.968C1019.32 551.046 1018.64 555.871 1018.64 555.871C1018.64 555.871 1041.22 528.02 1025.12 511.214C1009.01 494.408 988.247 501.177 982.17 515.876C976.093 530.565 978.322 548.511 978.322 548.511C978.322 548.511 978.505 531.267 998.416 521.953V521.943Z" fill="#CD7250"/>
<path d="M1004.56 504.196C1004.56 504.196 1002.3 491.787 1021.77 486.85C1041.23 481.913 1049.97 504.338 1047.57 518.019C1045.17 531.7 1028.54 566.381 1037.56 570.901C1046.58 575.41 1050.11 565.679 1050.11 565.679C1050.11 565.679 1047.29 582.74 1034.74 578.79C1022.18 574.84 1023.87 547.112 1025.77 536.057C1027.66 525.012 1004.55 504.186 1004.55 504.186L1004.56 504.196Z" fill="#CD7250"/>
<path d="M1010.83 564.833C1010.76 565.016 1005.84 576.335 993.163 578.096C993.519 576.783 993.845 575.439 994.13 574.106C994.13 574.106 1001.08 575.511 1010.83 564.833Z" fill="#997761"/>
<path d="M1035 648.112C1035 648.112 1034.07 650.077 1031.53 657.793C1028.93 636.121 1030.3 624.832 1030.3 624.832C1030.58 636.416 1035.01 648.112 1035.01 648.112H1035Z" fill="#C8BCB6"/>
<path d="M1007.6 501.592C1007.6 501.592 1021.41 504.249 1028.3 515.498C1028.3 515.498 1026.91 505.318 1020.03 502.376C1013.15 499.445 1007.6 501.603 1007.6 501.603V501.592Z" fill="#E6D8D1"/>
<path d="M1027.15 671.979C1026.83 673.322 1026.54 674.513 1026.34 675.348C1026.11 676.264 1025.91 677.241 1025.74 678.269C1017.19 673.617 1011.04 669.983 1011.04 669.983C1013.34 670.503 1027.16 671.989 1027.16 671.989L1027.15 671.979Z" fill="#C8BCB6"/>
<path d="M1012.54 586.774L988.235 606.593L990.739 585.715C990.739 585.715 1004.91 582.661 1012.54 586.774Z" fill="#DBA585"/>
<path d="M995.259 603.229L988.235 606.598L1012.12 582.931L995.259 603.229Z" fill="#CFC3BC"/>
<path d="M1028.59 670.277C1025.24 684.141 1037.63 715.341 1037.63 715.341L1013.09 723.016C1009.56 724.115 1005.85 721.957 1005.07 718.333C1001.79 703.064 994.09 665.482 993.163 644.594C991.993 617.935 1011.39 586.48 1011.39 586.48C1045.89 592.405 1036.44 644.594 1036.44 644.594C1036.44 644.594 1035.18 647.882 1033.51 653.023C1033.09 654.316 1032.65 655.72 1032.18 657.227C1031 661.085 1029.73 665.564 1028.59 670.287V670.277Z" fill="url(#paint3_linear_77_3682)"/>
<path d="M988.296 586.862L988.724 585.722C988.724 585.722 971.063 588.409 962.075 592.888C953.096 597.377 935.903 620.546 935.903 620.546L958.39 650.229C958.41 673.041 954.715 713.595 954.715 713.595L964.996 719.519C967.755 721.107 971.215 719.163 971.277 715.967C971.562 700.545 972.254 663.92 972.62 646.177C973.089 623.365 989.365 586.475 989.365 586.475C988.999 586.598 988.653 586.73 988.296 586.862Z" fill="url(#paint4_linear_77_3682)"/>
<path d="M956.271 693.817C956.271 693.817 973.22 694.478 975.857 693.817C978.493 693.155 996.083 685.531 997.142 677.988C998.2 670.455 956.271 684.747 956.271 684.747V693.817Z" fill="#DBA585"/>
<path d="M1008.86 670.273L940.066 662.221L971.144 687.507L1008.86 670.273Z" fill="#6D76BA"/>
<path d="M971.144 687.502L1008.86 674.645V670.268L969.872 682.779L971.144 687.502Z" fill="#363957"/>
<path d="M988.876 657.643C988.876 657.643 983.185 657.643 979.999 656.991C977.536 656.492 971.398 657.185 969.84 658.569C968.273 659.953 963.315 669.593 962.369 670.184C961.432 670.774 962.847 672.138 964.496 671.456C964.496 671.456 966.013 675.67 969.749 674.092C973.484 672.515 976.019 669.064 977.984 668.463C979.938 667.853 991.339 664.788 991.339 664.788C991.339 664.788 991.807 656.625 988.865 657.653L988.876 657.643Z" fill="#DBA585"/>
<path d="M992.041 581.875L978.94 602.61L972.619 606.6L987.359 585.946L992.041 581.875Z" fill="#F3E4DC"/>
<path d="M978.942 602.61L988.236 606.6L990.74 585.722L992.043 581.875L978.942 602.61Z" fill="#CFC3BC"/>
<path d="M958.338 684.12C958.338 684.12 957.636 692.884 958.338 694.716C958.338 694.716 915.911 690.472 911.961 684.547C908.001 678.613 908.154 671.406 908.154 671.406L958.348 684.12H958.338Z" fill="url(#paint5_linear_77_3682)"/>
<path d="M971.145 687.5L951.092 612.916L874.808 604.864L895.716 673.513L971.145 687.5Z" fill="#2A2B41"/>
<path d="M1012.12 582.931L995.26 603.229L1004.48 611.454L1014.43 587.145L1012.12 582.931Z" fill="#F3E4DC"/>
<path d="M1034.07 651.298C1034.07 651.298 1033.51 653.009 1033.51 653.019C1033.09 654.301 1032.65 655.716 1032.18 657.213C1028.92 658.241 1000.75 656.164 1000.75 656.164C1000.75 656.164 1024.33 650.637 1034.07 651.288V651.298Z" fill="#414469"/>
<path d="M1032.44 656.665C1027.9 656.329 1020.47 655.84 1014.38 655.81C1004.92 655.769 988.723 656.827 988.723 656.827L990.646 666.946C990.646 666.946 1019.33 671.608 1035 672.707C1035 672.707 1055.67 675.079 1057.21 671.995C1058.75 668.91 1056.7 649.112 1053.34 631.267C1049.98 613.423 1046.52 603.152 1042.41 597.635C1038.3 592.128 1016.58 587.822 1016.58 587.822L1035.01 648.124C1035.01 648.124 1037.64 653.499 1037.51 655.82C1037.47 656.532 1036.98 656.858 1036.32 656.98C1035.86 656.939 1034.83 656.858 1033.43 656.746L1032.44 656.665Z" fill="url(#paint6_linear_77_3682)"/>
<path d="M417.645 765.15H328.474V770.444H417.645V765.15Z" fill="#DCD0C8"/>
<path d="M340.423 1024.95H348.23L348.23 784.231H340.423L340.423 1024.95Z" fill="#6D6865"/>
<path d="M465.667 763.646H403.685V771.21H465.667V763.646Z" fill="#C6BBB5"/>
<path d="M446.409 699.164H422.936V770.45H446.409V699.164Z" fill="url(#paint7_linear_77_3682)"/>
<path d="M639.889 770.528H296.479V784.209H639.889V770.528Z" fill="#A98E75"/>
<path d="M230.579 687.687C230.579 687.687 226.823 740.355 237.114 746.666C243.558 750.616 269.271 763.93 268.507 766.434C267.744 768.928 253.991 788.656 253.991 788.656C253.991 788.656 204.611 756.133 203.023 745.892C201.466 735.886 205.456 668.774 212.246 665.679C217.325 663.368 220.013 665.282 226.416 670.036C235.404 676.713 230.579 687.687 230.579 687.687Z" fill="#F89939"/>
<path d="M291.329 992.065C291.329 992.065 289.792 1002.72 289.598 1004.32C289.405 1005.92 272.517 1003.37 272.517 1003.37L271.153 990.681C271.153 990.681 289.222 990.558 291.329 992.055V992.065Z" fill="#454971"/>
<path d="M289.768 1002.97C289.768 1002.97 295.123 1009.4 300.294 1012.2C305.465 1015 313.598 1016.1 316.662 1019.01C318.871 1021.09 324.704 1030.1 303.215 1029.92C281.727 1029.73 271.354 1031.19 269.053 1027.74C266.753 1024.28 272.382 1002.26 272.382 1002.26C272.382 1002.26 277.472 1004.09 289.758 1002.98L289.768 1002.97Z" fill="#2E3048"/>
<path d="M399.523 992.174C399.523 992.174 397.986 1002.83 397.793 1004.43C397.599 1006.03 380.712 1003.48 380.712 1003.48L379.348 990.79C379.348 990.79 397.416 990.657 399.523 992.164V992.174Z" fill="#454971"/>
<path d="M397.977 1003.08C397.977 1003.08 403.332 1009.5 408.503 1012.29C413.674 1015.09 432.719 1017.39 435.783 1020.29C437.992 1022.38 441.667 1030.81 411.424 1030.01C389.936 1029.45 379.563 1031.29 377.262 1027.83C374.962 1024.38 380.591 1002.36 380.591 1002.36C380.591 1002.36 385.385 1004.31 397.967 1003.08H397.977Z" fill="#2E3048"/>
<path d="M236.847 807.972C236.847 807.972 298.249 818.355 312.113 820.533C325.977 822.711 401.172 841.421 410.578 847.121C418.06 851.661 406.649 960.662 403.982 1002.24H374.37L372.222 877.507C336.686 878.392 311.319 869.19 285.443 873.13C259.567 877.059 237.987 882.647 221.537 860.589C221.537 860.589 220.927 812.807 236.847 807.982V807.972Z" fill="#2E3048"/>
<path d="M297.373 1002.36L268.514 1000.57L265.695 877.512C250.395 877.889 245.153 876.922 232.775 875.425L209.464 821.261C229.884 825.343 295.316 841.854 304.04 847.137C311.532 851.677 300.03 960.769 297.363 1002.36H297.373Z" fill="#2E3048"/>
<path d="M265.115 577.83C265.115 577.83 287.622 571.61 296.213 589.088C304.805 606.556 300.906 639.679 289.566 642.794C278.216 645.909 261.909 642.326 257.196 631.444C252.493 620.573 248.737 605.12 249.856 595.114C250.986 585.108 259.14 580.222 265.115 577.83Z" fill="#DBA585"/>
<path d="M283.683 639.306C283.683 639.306 283.439 652.59 284.905 655.43C286.37 658.26 253.562 657.548 253.562 657.548C253.562 657.548 258.734 641.586 255.802 627.997C252.901 614.54 283.683 639.306 283.683 639.306Z" fill="#DBA585"/>
<path d="M254.019 622.965C254.019 622.965 255.78 626.538 264.269 625.958C272.759 625.388 283.966 615.138 287.57 614.221C291.173 613.305 291.387 611.259 291.387 611.259L293.291 614.649L296.986 615.219C296.986 615.219 294.481 604.948 299.948 601.334C305.414 597.721 297.484 568.598 269.797 575.621C269.797 575.621 248.664 579.489 248.379 591.287C248.094 603.085 249.926 616.715 254.019 622.965Z" fill="#3E4148"/>
<path d="M286.623 655.096C286.623 655.096 286.532 649.681 284.078 649.161C281.625 648.652 258.294 645.436 255.281 646.617L253.988 653.762C253.988 653.762 259.791 657.335 286.623 655.096Z" fill="#DCD0C8"/>
<path d="M293.373 608.831C292.742 604.393 287.703 599.293 284.812 606.205C281.921 613.117 286.767 623.174 290.004 622.635C293.241 622.095 294.228 614.847 293.373 608.821V608.831Z" fill="#DBA585"/>
<path d="M384.367 719.037C384.367 719.037 384.346 719.037 384.326 719.037C384.498 719.107 384.518 719.118 384.367 719.037Z" fill="#363957"/>
<path d="M258.55 580.998C258.55 580.998 231.107 579.706 253.756 622.54L258.55 580.998Z" fill="#3E4148"/>
<path d="M197.404 1016.94L199.45 1022.69L285.71 995.963L281.577 984.338L197.404 1016.94Z" fill="#8C8581"/>
<path d="M288.66 898.099H278.857V991.881H288.66V898.099Z" fill="#8C8581"/>
<path d="M312.674 893.114H254.846V898.641H312.674V893.114Z" fill="#5D5955"/>
<path d="M370.868 1016.94L368.832 1022.7L282.572 995.965L286.369 983.607L370.868 1016.94Z" fill="#8C8581"/>
<path d="M310.107 1022.07V1028.75L282.572 995.965L286.369 983.607L310.107 1022.07Z" fill="#8C8581"/>
<path d="M378.932 1024.94C378.932 1029.39 375.328 1033 370.87 1033C366.411 1033 362.808 1029.39 362.808 1024.94C362.808 1020.49 366.421 1016.88 370.87 1016.88C375.318 1016.88 378.932 1020.48 378.932 1024.94Z" fill="#B9AFAA"/>
<path d="M310.791 1024.94C310.791 1029.39 307.177 1033 302.729 1033C298.281 1033 294.667 1029.39 294.667 1024.94C294.667 1020.49 298.27 1016.88 302.729 1016.88C307.187 1016.88 310.791 1020.48 310.791 1024.94Z" fill="#B9AFAA"/>
<path d="M205.464 1024.94C205.464 1029.39 201.86 1033 197.402 1033C192.943 1033 189.34 1029.39 189.34 1024.94C189.34 1020.49 192.943 1016.88 197.402 1016.88C201.86 1016.88 205.464 1020.48 205.464 1024.94Z" fill="#B9AFAA"/>
<path d="M342.174 893.112H226.109C220.327 893.112 215.645 888.43 215.645 882.648C215.645 876.866 220.327 872.184 226.109 872.184H342.174C347.956 872.184 352.638 876.866 352.638 882.648C352.638 888.43 347.956 893.112 342.174 893.112Z" fill="#DCD0C8"/>
<path d="M595.944 784.211H588.137V1024.93H595.944V784.211Z" fill="#6D6865"/>
<path d="M345.256 590.518H524.087C530.663 590.518 536.007 595.862 536.007 602.438V721.577C536.007 728.153 530.673 733.497 524.087 733.497H345.246C338.67 733.497 333.326 728.153 333.326 721.577V602.438C333.326 595.862 338.67 590.518 345.246 590.518H345.256Z" fill="url(#paint8_linear_77_3682)"/>
<path d="M528.069 598.253H341.278V711.091H528.069V598.253Z" fill="#F4F6FF"/>
<path style="mix-blend-mode:multiply" d="M519.773 721.733C519.773 724.94 516.404 727.535 512.251 727.535C508.097 727.535 504.718 724.94 504.718 721.733C504.718 718.527 508.087 715.921 512.251 715.921C516.414 715.921 519.773 718.517 519.773 721.733Z" fill="url(#paint9_linear_77_3682)"/>
<path d="M476.632 770.722V768.178C476.632 768.178 473.059 752.349 447.753 752.349C422.448 752.349 422.967 770.722 422.967 770.722H476.632Z" fill="#5070F0"/>
<path d="M422.651 754.694C422.651 754.694 428.148 754.267 430.163 753.045C432.179 751.823 444.221 743.731 447.051 745.024C449.881 746.327 468.712 752.098 468.061 754.847C467.41 757.605 465.669 757.33 464.335 756.852C463.012 756.363 449.331 753.493 448.13 753.981C448.13 753.981 461.567 758.888 461.618 762.461C461.668 766.044 458.808 766.909 457.536 768.263C456.263 769.617 454.736 772.976 451.275 773.231C447.814 773.495 430.917 767.612 427.445 767.347C423.974 767.072 417.531 767.561 417.093 766.991C416.655 766.431 422.661 754.704 422.661 754.704L422.651 754.694Z" fill="#DBA585"/>
<path d="M322.59 662.576C305.061 659.492 286.616 655.074 286.616 655.074L253.981 653.741C253.981 653.741 224.024 660.337 212.236 665.661C211.116 666.17 211.106 692.381 208.042 699.263L217.824 719.896C217.824 719.896 223.474 760.766 224.644 778.947C225.184 787.294 223.128 859.597 223.128 859.597C223.128 859.597 226.059 861.043 248.332 863.496C270.604 865.96 326.265 862.611 326.611 859.984C326.967 857.348 315.831 762.018 315.342 757.081C314.589 749.508 317.531 714.491 317.531 714.491C321.725 720.13 332.423 745.589 343.58 757.702C350.135 764.828 382.628 769.195 388.746 769.398C402.07 769.846 426.389 772.503 427.101 771.2C427.671 770.416 429.219 749.61 427.692 749.111C426.358 748.663 381.213 746.067 369.639 739.929C365.404 737.68 352.762 710.104 352.762 710.104C352.762 710.104 332.271 666.923 322.6 662.576H322.59Z" fill="#F89939"/>
<path d="M206.585 726.677H255.171C267.834 726.677 278.115 736.958 278.115 749.622V834.588C278.115 847.241 267.834 857.523 255.181 857.523H206.575C193.912 857.523 183.641 847.241 183.641 834.588V749.622C183.641 736.958 193.922 726.677 206.585 726.677Z" fill="#DCD0C8"/>
<path d="M261.382 887.903C247.456 887.903 236.157 883.231 227.8 873.998C208.917 853.151 212.307 816.495 212.46 814.948C212.745 812.057 215.32 809.939 218.211 810.235C221.102 810.53 223.209 813.095 222.924 815.986C222.883 816.403 219.87 849.629 235.608 866.964C241.97 873.978 250.398 877.388 261.382 877.388C264.283 877.388 266.634 879.739 266.634 882.64C266.634 885.541 264.283 887.903 261.382 887.903Z" fill="#DCD0C8"/>
<path d="M356.231 607.235H407.525C408.471 607.235 409.235 607.998 409.235 608.945V611.49C409.235 612.437 408.471 613.2 407.525 613.2H356.221C355.274 613.2 354.511 612.437 354.511 611.49V608.945C354.511 607.998 355.274 607.235 356.221 607.235H356.231Z" fill="#90C1FC"/>
<path d="M356.221 620.022H407.525C408.471 620.022 409.235 620.786 409.235 621.733V624.277C409.235 625.224 408.471 625.988 407.525 625.988H356.221C355.274 625.988 354.511 625.224 354.511 624.277V621.722C354.511 620.786 355.274 620.022 356.211 620.022H356.221Z" fill="#90C1FC"/>
<path d="M360.262 634.694H403.493C406.669 634.694 409.245 637.27 409.245 640.446V696.371C409.245 699.537 406.669 702.112 403.503 702.112H360.272C357.096 702.112 354.521 699.537 354.521 696.361V640.435C354.521 637.27 357.096 634.694 360.262 634.694Z" fill="#90C1FC"/>
<path d="M429.37 607.235H508.627C513.645 607.235 517.717 611.307 517.717 616.325V693.006C517.717 698.024 513.645 702.096 508.627 702.096H429.37C424.352 702.096 420.28 698.024 420.28 693.006V616.325C420.28 611.307 424.352 607.235 429.37 607.235Z" fill="#90C1FC"/>
<path d="M173.271 212.033C173.271 211.046 173.271 210.552 173.466 210.176C173.63 209.86 173.888 209.601 174.205 209.437C174.581 209.242 175.075 209.242 176.062 209.242H1020.18C1021.17 209.242 1021.66 209.242 1022.04 209.437C1022.35 209.601 1022.61 209.86 1022.78 210.176C1022.97 210.552 1022.97 211.046 1022.97 212.033V241.673H173.271V212.033Z" fill="#17A9E1"/>
<path d="M206.795 223.836C206.795 227.116 204.124 229.787 200.843 229.787C197.563 229.787 194.892 227.116 194.892 223.836C194.892 220.555 197.563 217.884 200.843 217.884C204.124 217.884 206.795 220.555 206.795 223.836Z" fill="#E00E0E"/>
<path d="M231.094 223.836C231.094 227.116 228.423 229.787 225.143 229.787C221.862 229.787 219.191 227.116 219.191 223.836C219.191 220.555 221.862 217.884 225.143 217.884C228.423 217.884 231.094 220.555 231.094 223.836Z" fill="#0DB632"/>
<path d="M255.422 223.836C255.422 227.116 252.751 229.787 249.47 229.787C246.189 229.787 243.519 227.116 243.519 223.836C243.519 220.555 246.189 217.884 249.47 217.884C252.751 217.884 255.422 220.555 255.422 223.836Z" fill="#FFC727"/>
<defs>
<linearGradient id="paint0_linear_77_3682" x1="827.394" y1="343.912" x2="855.242" y2="343.912" gradientUnits="userSpaceOnUse">
<stop stop-color="#D3D8DE"/>
<stop offset="1" stop-color="white"/>
</linearGradient>
<linearGradient id="paint1_linear_77_3682" x1="656.8" y1="636.478" x2="682.574" y2="636.478" gradientUnits="userSpaceOnUse">
<stop stop-color="#3855E1"/>
<stop offset="1" stop-color="#5C7EF7"/>
</linearGradient>
<linearGradient id="paint2_linear_77_3682" x1="378.311" y1="429.325" x2="483.932" y2="429.325" gradientUnits="userSpaceOnUse">
<stop stop-color="#D3D8DE"/>
<stop offset="1" stop-color="white"/>
</linearGradient>
<linearGradient id="paint3_linear_77_3682" x1="993.226" y1="658.218" x2="1038.39" y2="657.276" gradientUnits="userSpaceOnUse">
<stop stop-color="#3855E1"/>
<stop offset="1" stop-color="#5C7EF7"/>
</linearGradient>
<linearGradient id="paint4_linear_77_3682" x1="936.04" y1="656.169" x2="990.271" y2="654.786" gradientUnits="userSpaceOnUse">
<stop stop-color="#3855E1"/>
<stop offset="1" stop-color="#5C7EF7"/>
</linearGradient>
<linearGradient id="paint5_linear_77_3682" x1="908.282" y1="683.628" x2="958.279" y2="676.728" gradientUnits="userSpaceOnUse">
<stop stop-color="#3855E1"/>
<stop offset="1" stop-color="#5C7EF7"/>
</linearGradient>
<linearGradient id="paint6_linear_77_3682" x1="988.899" y1="632.785" x2="1058.76" y2="629.182" gradientUnits="userSpaceOnUse">
<stop stop-color="#3855E1"/>
<stop offset="1" stop-color="#5C7EF7"/>
</linearGradient>
<linearGradient id="paint7_linear_77_3682" x1="425.767" y1="683.496" x2="460.26" y2="689.73" gradientUnits="userSpaceOnUse">
<stop stop-color="#D8E9FF"/>
<stop offset="1" stop-color="#A7C8FF"/>
</linearGradient>
<linearGradient id="paint8_linear_77_3682" x1="357.775" y1="559.094" x2="549.366" y2="708.149" gradientUnits="userSpaceOnUse">
<stop stop-color="#D8E9FF"/>
<stop offset="1" stop-color="#A7C8FF"/>
</linearGradient>
<linearGradient id="paint9_linear_77_3682" x1="506.922" y1="717.621" x2="514.867" y2="727.92" gradientUnits="userSpaceOnUse">
<stop stop-color="#A7C8FF"/>
<stop offset="1" stop-color="#D8E9FF"/>
</linearGradient>
</defs>
</svg>
