<?xml version="1.0" encoding="UTF-8"?><svg id="Layer_1" xmlns="http://www.w3.org/2000/svg" xmlns:xlink="http://www.w3.org/1999/xlink" viewBox="0 0 1023 475"><defs><style>.cls-1{fill:url(#linear-gradient);}.cls-2{fill:#f89939;}.cls-3{fill:#f2f4f9;}.cls-4,.cls-5{fill:#fff;}.cls-6{fill:#feb19e;}.cls-7{fill:#ff856a;}.cls-8{fill:#98b2d8;}.cls-9{fill:#97b3d1;}.cls-10{fill:#c1cfe5;}.cls-11{fill:#b6c5dd;}.cls-12{fill:#b7cae5;}.cls-13{fill:#ced9ea;}.cls-14{fill:#b1c3e8;}.cls-15{fill:#1f395e;}.cls-16{fill:#1bb9f5;}.cls-17{fill:#17a9e1;}.cls-18{fill:#29b7ee;}.cls-19{fill:#5d7ca0;}.cls-20{fill:#799cbf;}.cls-21{fill:url(#linear-gradient-3);}.cls-22{fill:url(#linear-gradient-4);}.cls-23{fill:url(#linear-gradient-2);}.cls-24{fill:url(#linear-gradient-6);}.cls-25{fill:url(#linear-gradient-7);}.cls-26{fill:url(#linear-gradient-5);}.cls-27{opacity:.2;}.cls-28{opacity:.5;}.cls-5{stroke:#e4e4e4;stroke-width:1.6px;}</style><linearGradient id="linear-gradient" x1="508.5" y1="7.7" x2="508.5" y2="161.8" gradientTransform="translate(0 446) scale(1 -1)" gradientUnits="userSpaceOnUse"><stop offset="0" stop-color="#1f3a65"/><stop offset="1" stop-color="#294a7a"/></linearGradient><linearGradient id="linear-gradient-2" x1="415.6" y1="-4.2" x2="415.6" y2="37.2" gradientTransform="translate(0 446) scale(1 -1)" gradientUnits="userSpaceOnUse"><stop offset="0" stop-color="#1f3a65"/><stop offset="1" stop-color="#294a7a"/></linearGradient><linearGradient id="linear-gradient-3" x1="589.4" y1="-4.3" x2="589.4" y2="37.2" gradientTransform="translate(0 446) scale(1 -1)" gradientUnits="userSpaceOnUse"><stop offset="0" stop-color="#1f3a65"/><stop offset="1" stop-color="#294a7a"/></linearGradient><linearGradient id="linear-gradient-4" x1="498.8" y1="220.1" x2="497" y2="287.2" gradientTransform="translate(0 446) scale(1 -1)" gradientUnits="userSpaceOnUse"><stop offset="0" stop-color="#3f2323"/><stop offset="1" stop-color="#5e3434"/></linearGradient><linearGradient id="linear-gradient-5" x1="712.7" y1="18.2" x2="746" y2="18.2" gradientTransform="translate(0 446) scale(1 -1)" gradientUnits="userSpaceOnUse"><stop offset="0" stop-color="#1f3a65"/><stop offset="1" stop-color="#294a7a"/></linearGradient><linearGradient id="linear-gradient-6" x1="760.2" y1="132.6" x2="718" y2="48.7" gradientTransform="translate(0 446) scale(1 -1)" gradientUnits="userSpaceOnUse"><stop offset="0" stop-color="#e2e8f7"/><stop offset="1" stop-color="#fff"/></linearGradient><linearGradient id="linear-gradient-7" x1="936.6" y1="329.6" x2="943.7" y2="359.6" gradientTransform="translate(0 446) scale(1 -1)" gradientUnits="userSpaceOnUse"><stop offset="0" stop-color="#3855e1"/><stop offset="1" stop-color="#5c7ef7"/></linearGradient></defs><rect class="cls-4" width="1023" height="475"/><path class="cls-4" d="m895.1,375.7c-.5,1.7-.9,3.4-1.4,5-9.4-3.4-19.4-7.7-29.6-13.2-46.9-25.5-106.6-82.2-124.6-207.9-7.8-54.2,2.1-105.8,29.6-153.5,1.6.9,3.2,1.8,4.7,2.7-24.1,41.8-37.6,91.8-29.2,150,17.8,123.5,76,179.1,121.8,204,9.8,5.4,19.5,9.6,28.7,12.9h0Z"/><path class="cls-4" d="m902.7,338.5c-.3,1.8-.5,3.5-.8,5.2-29.6-13.9-66.9-44.2-84.3-109.8-16.8-63.6-10.1-120,20.6-171,1.2,1.4,2.4,2.8,3.5,4.2-29.2,49.4-35.5,104-19.2,165.5,16.7,62.8,51.9,92.2,80.2,105.9Z"/><path class="cls-4" d="m623.3,80.3c2.5,83.4-7,137.4-30.8,174.9-24.9,39.3-66.5,63-134.8,77-12.7,2.6-25.3,3.9-37.6,3.9-38.4,0-74.7-12.5-106.4-37-36.9-28.5-65.2-71.4-81.4-121.7,1.6-.7,3.1-1.3,4.8-1.9,15.9,49.4,43.6,91.6,79.8,119.6,40.7,31.4,89.1,42.5,139.9,32.1,127-26,166.3-86,161.5-246.7-1.4-45.6,6.6-81.7,23.7-107.5,2,0,4.1,0,6.1,0-17.8,25.1-26.1,61.1-24.7,107.2h0Z"/><path class="cls-4" d="m464.8,253c-5.3.9-10.7,1.3-16.3,1.3-41,0-87.8-24.8-110.7-94.9,1.8,0,3.6,0,5.4,0,25.1,75.2,79.1,95.4,120.7,88.5,56.3-9.2,110.4-67.2,100-156.4-4.5-38.3-4.7-71-2.3-98.6,1.8-1.1,3.7-2.3,5.6-3.3-2.8,28.2-2.9,61.7,1.8,101.3,10.8,92.4-45.6,152.5-104.2,162.1h0Z"/><path class="cls-4" d="m498.9,158.5c-2,9-5.4,18.2-11.3,25.9-7.9,10.3-18.9,16.4-32.8,18.1-1.7.2-3.3.3-4.9.3-8.6,0-16.5-2.9-23.6-8.8-9.3-7.8-16-19.9-20.9-33,1.9,0,3.8.2,5.6.3,4.6,11.6,10.6,22,18.6,28.8,7.2,6,15.4,8.5,24.5,7.4,12.5-1.5,22.4-7,29.4-16.1,4.9-6.3,7.9-14,9.8-21.6h0c1.9-.4,3.8-.8,5.6-1.2h0Z"/><path class="cls-4" d="m300,448.3h-5.6c-23-52.6-56.1-87.7-98.6-104.3-15.4-6-31.1-9.2-46.2-10.4-.3-1.7-.5-3.4-.7-5.2,16,1.1,32.5,4.4,48.8,10.8,44.3,17.4,78.7,54,102.3,109.1h0Z"/><path class="cls-8" d="m189.1,289.7l-15.8,16.3-6.6-9.7-2.2-3.3c-7,1.8-17.4-12-21.6-19.4-4.2-7.4,12.5-18.8,12.5-18.8-2.7-8.1-13.6-13.3-13.9-15.5-.3-2.2,2.4-4.6,12.3,0,9.9,4.7,18.6,21.1,18.6,21.1,1.8-4.8-6.1-17.8-4.6-19.2,1.4-1.4,9.1.3,15,12.8,5.9,12.5,2.4,27.2,2.4,27.2h0c0,.1,3.9,8.3,3.9,8.3h0Z"/><path class="cls-14" d="m154.8,253.5s11.8,13.5,10.5,18.7c-1.3,5.3-7.2-.8-7.2-.8,0,0,5.4,6.3,3.7,8.4-1.8,2.1-8.3-3.2-8.3-3.2,0,0,7.8,9.8,0,8.3-7.8-1.4-17.7-16.2-10.1-17.7,0,0-.9-10.8,6-7.1,0,0-3.1-9,5.5-6.6Z"/><path class="cls-12" d="m297.7,448.4s13.2-38.7,6.3-76.8c0,0,0,0,0-.3,0,0,0-.2,0-.3-.2-1-.4-2-.6-3,0,0-7.7,6.7-18.3,13.4-12.7,8-29.7,16-42.8,12.2-23.9-6.8-58.9-53.3-75.2-90.1,0,0,8.1-12.2,24.3-15.9,0,0,32.4,43.2,61.1,53.5,0,0,15.4-18.4,27.3-45.3,7.6-17.2,19.1-28,33.5-33.9,8.2-3.4,17.4-5.1,27.3-5.4l25.1-11.7s4.1,0,10.4.8c11.8,1.5,31.3,5.8,47.1,17.9,24.3,18.5,59.3,184.7,59.3,184.7h-184.8Z"/><path class="cls-9" d="m303.9,371.3c-.2-1.1-.4-2.2-.7-3.3,0,0-7.7,6.7-18.3,13.4l7.4-63.3c7.5,29,11.1,50.7,11.5,53.3h0Z"/><path class="cls-13" d="m376.1,245.7c-3.9,24.6-28.5,47.3-46.3,47-14.3-.3-16.4-20.7-16.5-30.8,8.2-3.4,17.4-5.1,27.3-5.4l25.1-11.7s4.1,0,10.4.8Z"/><path class="cls-9" d="m333.6,423.2s56.5-58.8,58.9-120.6l16.7,52.1-6.4,54.2-69.2,14.3Z"/><path class="cls-8" d="m331.9,448.3h-63.2s.2-8.6,9.9-11.5c9.8-2.9,16-15,45.3-13.4l8,25Z"/><path class="cls-11" d="m396.6,390.2s-29.8,17.1-76.7,29.3c0,0-6.5,15.7,4.9,28.8h90.8l-19-58.1h0Z"/><path class="cls-19" d="m285.7,210.6s-13.5-18.6-11.8-31.1,13.3-9.6,13.3-9.6c0,0-.5-30.5,27.6-22.7,0,0-.6-9.3,5.5-9.1,6.2.2,15.8,14.4,15.8,14.4,0,0,2.4-10.5,6.6-8,4.2,2.5,5.5,13.3,14.2,18.5,8.7,5.2,14.1,12,7.3,33.1-6.8,21.1-1.7,22.6-4.2,33.5-2.3,10.3-4.2,16.6-10.6,17.1-6.4.6-30.9-25.2-30.9-25.2l-32.8-10.9h0Z"/><path class="cls-8" d="m365.7,244.9s-15.7,38.1-32.2,35.2c-8.2-1.4-10-6.4-10.1-12.2,0-7.6,2.9-16.4-1.6-20.1l19.8-28.1,4.4-6.2s5.3,15.4,19.8,31.4h0Z"/><path class="cls-20" d="m323.4,267.9c0-7.6,2.9-16.4-1.6-20.1l19.8-28.1c1.7,2,2.9,5.5,3.4,11,2.6,29-12.7,35.8-21.6,37.2Z"/><path class="cls-8" d="m283.8,195.8s5.3,49.1,25.4,60.1c17.4,9.6,38.5-19.4,38.1-33.8,0,0,7.6-5.8,6.3-15.2-1.3-9.4-11.2-6.3-12.4,8.8,0,0-8.1-.6-9.5-19.5-5.1,4.2-10.5,2.9-16.3-2.2,0,0-2.8,10.5-17.5-1.8,0,0-5.5,7.5-14.1,3.4h0Z"/><path class="cls-19" d="m756,385.9s25.8,43.1,34.8,64h-91.1s-5.2-25.2-14.3-49.4l70.7-14.6Z"/><path class="cls-20" d="m720.4,395.5c-5,16.5-12.6,30.6-23.9,41.3l3.1,13.1-110.3-1.4,12.3-75.5,118.8,22.4h0Z"/><path class="cls-20" d="m893.4,160.2s3.6-22.9,10.9-31c7.3-8.1,27.1-20.1,29.5-15.8,2.4,4.3-17.5,17.7-17.5,17.7,0,0,9-2.1,16.6,11.1,7.7,13.2-17.1,23.5-17.1,23.5l-4.9,11.1-19.6-12.4,2.1-4.1h0Z"/><path class="cls-8" d="m918.8,131.5s-11.1,11.2-9.4,14.5c1.6,3.2,7.7-1.8,7.7-1.8,0,0-5,7.6-1.1,9.5,3.9,2,9.8-4.6,9.8-4.6,0,0-5,6.9-2.1,8.2,2.9,1.3,18.2-9.5,15.4-12.1-2.7-2.5-4.2-.5-4.2-.5,0,0,3.2-5.4,0-7.1-3.5-1.9-5.2,1.5-5.2,1.5,0,0,2.6-4.1.5-5.7-2.1-1.6-6.6.5-6.6.5,0,0,1.5-6.9-4.7-2.3h0Z"/><path class="cls-8" d="m908.5,131.2c-3.4-1-10.2,6-10.2,6-2.7,3.5-3.2,10.3-3.3,13.5-.3,8.9-3.7,13.6-3.7,13.6l10,6.3c7.7-9.9,5.2-22.7,3.9-27.2,3.8-5.6,5.3-11.7,3.3-12.2h0Z"/><path class="cls-12" d="m915,179.1s-33.3,88.7-86.2,96.5c-23.7,3.5-41.5,3.9-54,3.2-14.9-.8-22.2-3-22.8-3.2,0,0,0,0,0,0,0,0-14.5,27-5.1,65.9,9.4,38.8,12.8,47,12.8,47,0,0-71.3,52.5-129.3,4.7l-52.3-81.4-16.4-25.5s15.1-49.5,57.5-81.6h0c16-12.2,35.9-21.9,60.4-25.4,12.5-1.9,26.3-2.2,41.3-.4,0,0,11.5,3.3,30.3,10.1,10.1,3.7,22.3,8.4,35.9,14.3,38.9,16.7,49.5,21.6,49.5,21.6,0,0,41.4-40.8,52.1-65.6,0,0,21.3,2.1,26.5,19.9h0Z"/><path class="cls-9" d="m647.8,219.6c-.2,19.9-4.4,39.1-6.3,54.1l32.9-6.7,51.2,50.6s6.5,14.8-6.7,17.4c-10.4,2-58.7,8.7-58.7,8.7-11.1,15.2-16.2,38.4-21.7,60.9l-49.1-85.3,58.5-99.7h0Z"/><path class="cls-13" d="m720.7,224.4c-22.9-5.8-35-26.4-41.3-45.1,12.6-1.9,26.3-2.2,41.3-.4,0,0,11.5,3.3,30.3,10.1,2.2,16.4,1.4,43.4-30.3,35.4Z"/><path class="cls-9" d="m780.9,242.5s-4.9,19.3-6.2,36.3c-14.9-.8-22.2-3-22.8-3.2,0,0,0,0,0,0,0,0,13-22.3,29-33.1h0Z"/><path class="cls-3" d="m710.2,232.9l-57.2,8.3c-1.7.2-2.9,1.8-2.6,3.5l12.6,87c.2,1.7,1.8,2.9,3.5,2.6l57.2-8.3c1.7-.2,2.9-1.8,2.6-3.5l-12.6-87c-.2-1.7-1.8-2.9-3.5-2.6Z"/><path class="cls-8" d="m682.1,270.7l8.7-3.4s8.3-23,18.7-8.5c0,0,7.2-4.3,6.9-6.6-.2-2.4-.3-5.8-.3-5.8,0,0,14.5,3.1,11.2,23.3-3.2,20.2-15.6,17.6-27.8,17.9l-15.2,6-2.4-22.8h0Z"/><path class="cls-10" d="m687.8,298.8s-68.2,45.1-97.6,23.4c-4.5-3.3-8.6-6.8-12.2-10.4l-16.4-25.5s15.1-49.5,57.5-81.6h0c14.1-6.4,28.8-4.1,29.5,9,1.8,31.1-24.8,50.2-28.1,64.3l61.1-12.4s9.9,10.5,6.1,33.3Z"/><path class="cls-19" d="m767.9,131.6s9.8-20.8,5.8-32.8c-4-12-14.8-6.9-14.8-6.9,0,0-5.2-30-31.4-17.1,0,0-1.1-9.2-7.1-7.9-6,1.4-12.8,17.1-12.8,17.1,0,0-4.3-9.8-8-6.6-3.6,3.2-2.9,14.1-10.4,20.9-7.6,6.8-11.6,14.4-.9,33.9,10.7,19.5,5.9,21.9,10.4,32.1,4.2,9.7,7.2,15.5,13.6,14.9,6.4-.6,25.6-30.6,25.6-30.6l30.2-16.9h0Z"/><path class="cls-8" d="m695.7,180.3s15.1,37.1,38.8,31.1c8.1-2.1,8.1-10.7,7.1-16.4-1.4-7.4-5.9-15.6-2.2-20.1l-24.7-23.9-5.4-5.3s-2.3,16.1-13.5,34.6Z"/><path class="cls-20" d="m741.6,194.9c-1.4-7.4-5.9-15.6-2.2-20.1l-24.7-23.9c-1.3,2.3-1.8,5.9-1.3,11.4,2.9,29,19.2,32.7,28.2,32.5Z"/><path class="cls-8" d="m767,116.7s4,49.2-13.6,63.8c-15.3,12.7-41.5-11.8-43.8-26,0,0-8.5-4.3-9-13.7-.5-9.4,9.8-8.3,13.8,6.4,0,0,7.8-2.1,5.7-20.9,5.8,3.2,10.9.9,15.6-5.2,0,0,4.8,9.8,16.8-5,0,0,6.8,6.3,14.5.7h0Z"/><path class="cls-1" d="m641.9,421.2h0c-.7,3.1-1.8,5.8-3.1,8.3-12.4,22.6-65.9,18.9-65.9,18.9h-122.3c-50.6,0-70.9-1.3-75.7-17.1-.3-.8-.5-1.7-.7-2.7-3.4-18.4,13.6-78.1,45.2-119.1,16.2-20.9,32.9-32,47.8-37.8,14.2-5.5,26.8-6.2,35.6-6.2,15.5,0,28,1.1,38.7,3.6,28.5,6.7,43.5,22.8,65.8,51.4,27.4,35,40.8,76,34.7,100.6h0Z"/><g class="cls-27"><path class="cls-15" d="m426.8,406.7c13.3-20.9,17.4-49.8,21.1-79.2l11.5,59.8h99.9l18.4-59.8c-.4,27.9,3.4,55.3,16.7,81.5,0,0-65.3,73.9-167.6-2.3h0Z"/></g><path class="cls-23" d="m457.2,448.4h-6.6c-50.6,0-70.9-1.3-75.7-17.1-2.6-12.4.7-25.5,15.9-29.4,23.7-6.1,65,17.9,65,17.9l1.5,28.5Z"/><path class="cls-21" d="m641.9,421.2s0,0,0,0c-.7,3-1.8,5.8-3.1,8.3-12.4,22.6-65.9,18.9-65.9,18.9h-36.3l4.6-30.7s64.3-29.8,87.4-20.5c11.3,4.5,14.7,14,13.4,24Z"/><path class="cls-15" d="m541.4,269.2c-1.1,14.4-7,40.5-36,40.5s-37-25.8-38.3-38c14.2-5.5,26.8-6.2,35.6-6.2,15.5,0,28,1.1,38.7,3.6h0Z"/><path class="cls-4" d="m567.7,448.3h-117.2c-2.8,0-5.1-2.3-5.1-5.1s2.3-5.1,5.1-5.1h117.2c2.8,0,5.1,2.3,5.1,5.1s-2.3,5.1-5.1,5.1Z"/><path class="cls-17" d="m581.9,360.3l-.4,2.7h0s-12.1,75.2-12.1,75.2h-119.4l-12-77.9c-.6-3.8,2.4-7.3,6.2-7.3h131.6c3.9,0,6.8,3.5,6.2,7.3h0Z"/><path class="cls-18" d="m581.5,362.9l-12.1,75.2h-118.8l40.3-4.2c41.3-4.3,76.6-31.9,90.7-71Z"/><path class="cls-6" d="m504.9,298.8h-.8c-4.6,0-8.4-1-11.5-2.3-7.5-3.4-12.1-11.2-11.9-19.5,0-.8,0-1.7,0-2.5,0-6.8-.4-12.5-.4-12.5v-3.1l43-1.9c.2,6.2.9,11.7,1.7,16.1,0,0,0,.1,0,.2,2.5,12.9-7,25.2-20.2,25.5h0Z"/><path class="cls-7" d="m525,273.1c-17.9,21.1-36.3,8.8-44.3,1.4,0-6.8-.4-12.5-.4-12.5v-3.1l43-1.9c.2,6.2.9,11.7,1.7,16.1h0Z"/><path class="cls-6" d="m467.1,238s13.3,37.6,35.6,37.6,31.5-40.5,31.5-40.5v-35.2h-68.8l1.7,38.1h0Z"/><path class="cls-6" d="m460,216.8s-6.6,1.2-5.4,8.7c1.1,7.5,8,16.7,13.5,11.9l-8.1-20.6Z"/><path class="cls-6" d="m539.4,213.7s6.6.3,6.6,7.9c0,7.6-5.6,17.6-11.8,13.6l5.2-21.5Z"/><path class="cls-22" d="m539.4,213.7s-2.3,13.2-5.2,21.5c0,0-5.3-1.1-7-14.9,0,0-11.4,2.2-18.5-8.5,0,0-1.7,10.7-12.7,3.1-7.3,6-16,6.6-25.8,2.6,0,0,1.7,14-3,20.7,0,0-1.7-5.5-7.2-21.2,0,0-2.3,0-3.8,2.2,0,0-11.8-23.1-6.2-34.1,5.6-11.1,13-6.8,13-6.8,0,0-2.8-15.2,13.7-20.7,16.4-5.6,16.4-13,19-11.5,2.6,1.5,3.6,7,3.6,7,0,0,28.4-3,36.1,27.5,0,0,20.5.7,8.3,35,0,0-.8-1.4-4.2-1.8h0Z"/><path class="cls-5" d="m397,321.7l-.2-.2h-74.3c-3.1,0-5.5-2.5-5.5-5.5v-64c0-3.1,2.5-5.5,5.5-5.5h107.3c3,0,5.5,2.5,5.5,5.5v64c0,3.1-2.5,5.5-5.5,5.5h-17.2l.4,1,5.2,15.1c.4,1.1-.9,2-1.8,1.2h0l-19.3-17.1Z"/><path class="cls-17" d="m355.7,262.7h-24.7c-.9,0-1.7-.7-1.7-1.7s.7-1.7,1.7-1.7h24.7c.9,0,1.7.7,1.7,1.7s-.7,1.7-1.7,1.7Z"/><path class="cls-17" d="m416.7,277.3h-71.6c-.9,0-1.7-.7-1.7-1.7s.7-1.7,1.7-1.7h71.6c.9,0,1.7.7,1.7,1.7s-.7,1.7-1.7,1.7Z"/><path class="cls-17" d="m416.7,287.8h-85.7c-.9,0-1.7-.7-1.7-1.7s.7-1.7,1.7-1.7h85.7c.9,0,1.7.7,1.7,1.7s-.7,1.7-1.7,1.7Z"/><path class="cls-17" d="m416.7,298.1h-85.7c-.9,0-1.7-.7-1.7-1.7s.7-1.7,1.7-1.7h85.7c.9,0,1.7.7,1.7,1.7s-.7,1.7-1.7,1.7Z"/><path class="cls-17" d="m416.7,308.5h-85.7c-.9,0-1.7-.7-1.7-1.7s.7-1.7,1.7-1.7h85.7c.9,0,1.7.7,1.7,1.7s-.7,1.7-1.7,1.7Z"/><path class="cls-17" d="m905.3,448.3H126.7c-1.5,0-2.8,1.2-2.8,2.8v11.1c0,1.5,1.2,2.8,2.8,2.8h778.6c1.5,0,2.8-1.2,2.8-2.8v-11.1c0-1.5-1.2-2.8-2.8-2.8Z"/><path class="cls-26" d="m712.7,407.3h33.3v28.8c0,6.7-5.5,12.2-12.2,12.2h-9c-6.7,0-12.2-5.5-12.2-12.2v-28.8h0Z"/><path class="cls-24" d="m723.2,407.3v-8.9c0-1.5,1.2-2.6,2.6-2.6h3.4c1.5,0,2.6-1.2,2.6-2.6v-3.4c0-1.5-1.2-2.6-2.6-2.6h-10.8c-7.4,0-13.4-6-13.4-13.4s6-13.4,13.4-13.4h14.3c1.5,0,2.6-1.2,2.6-2.6v-1.2c0-7.7,6.2-13.9,13.9-13.9s13.9,6.2,13.9,13.9-6.7,15-15,15h-25.2c-1.5,0-2.6,1.2-2.6,2.6s1.2,2.6,2.6,2.6h13.8c5.1,0,9.2,4.1,9.2,9.2v5.8c0,5.1-4.1,9.2-9.2,9.2s-2.6,1.2-2.6,2.6v3.8h-10.9Z"/><path class="cls-5" d="m611.9,238.3h87.4c2.9,0,5.3,2.4,5.3,5.3v110.5c0,2.9-2.4,5.3-5.3,5.3h-87.4c-2.9,0-5.3-2.4-5.3-5.3v-110.5c0-2.9,2.4-5.3,5.3-5.3Z"/><g><path class="cls-17" d="m640.5,276.2h-19.4v-23.3h19.4v23.3Zm-16.9-2.6h14.3v-18.1h-14.3v18.1Z"/><path class="cls-2" d="m635.3,269.5l-5.8-6.4,1.9-1.7,3.5,3.9c1.8-2.3,6.1-7,14.4-10.4l1,2.4c-10.3,4.2-14.1,10.7-14.1,10.8l-.9,1.5h0Z"/><path class="cls-16" d="m689.7,262.2h-30.1c-1,0-1.9-.9-1.9-1.9s.9-1.9,1.9-1.9h30.1c1,0,1.9.9,1.9,1.9s-.9,1.9-1.9,1.9Z"/><path class="cls-16" d="m689.7,271.4h-30.1c-1,0-1.9-.9-1.9-1.9s.9-1.9,1.9-1.9h30.1c1,0,1.9.9,1.9,1.9s-.9,1.9-1.9,1.9Z"/></g><g><path class="cls-17" d="m640.2,312.4h-19.4v-23.3h19.4v23.3Zm-16.9-2.6h14.3v-18.1h-14.3v18.1Z"/><path class="cls-2" d="m635.3,305.2l-5.8-6.4,1.9-1.7,3.5,3.9c1.8-2.3,6.1-7,14.4-10.4l1,2.4c-10.3,4.2-14.1,10.7-14.1,10.8l-.9,1.5h0Z"/><path class="cls-16" d="m689.7,297.9h-30.1c-1,0-1.9-.9-1.9-1.9s.9-1.9,1.9-1.9h30.1c1,0,1.9.9,1.9,1.9s-.9,1.9-1.9,1.9Z"/><path class="cls-16" d="m689.7,307.1h-30.1c-1,0-1.9-.9-1.9-1.9s.9-1.9,1.9-1.9h30.1c1,0,1.9.9,1.9,1.9s-.9,1.9-1.9,1.9Z"/></g><g><path class="cls-17" d="m640.2,348h-19.4v-23.3h19.4v23.3Zm-16.9-2.6h14.3v-18.1h-14.3v18.1Z"/><path class="cls-2" d="m635.3,340.8l-5.8-6.4,1.9-1.7,3.5,3.9c1.8-2.3,6.1-7,14.4-10.4l1,2.4c-10.3,4.2-14.1,10.7-14.1,10.8l-.9,1.5h0Z"/><path class="cls-16" d="m689.7,333.5h-30.1c-1,0-1.9-.9-1.9-1.9s.9-1.9,1.9-1.9h30.1c1,0,1.9.9,1.9,1.9s-.9,1.9-1.9,1.9Z"/><path class="cls-16" d="m689.7,342.7h-30.1c-1,0-1.9-.9-1.9-1.9s.9-1.9,1.9-1.9h30.1c1,0,1.9.9,1.9,1.9s-.9,1.9-1.9,1.9Z"/></g><path class="cls-5" d="m918.9,69.4h87.4c2.9,0,5.3,2.4,5.3,5.3v110.5c0,2.9-2.4,5.3-5.3,5.3h-87.4c-2.9,0-5.3-2.4-5.3-5.3v-110.5c0-2.9,2.4-5.3,5.3-5.3Z"/><g class="cls-28"><path class="cls-25" d="m955.1,104.9c2-8.3-3.1-16.5-11.4-18.5-8.3-2-16.5,3.1-18.5,11.4-2,8.3,3.2,16.5,11.4,18.5,8.3,2,16.5-3.1,18.5-11.4Z"/><path class="cls-2" d="m944.2,99.4l10.2-18.2c9.4,2.4,13.9,11.2,9.4,20.3l-19.6-2h0Z"/><path class="cls-2" d="m934.5,133.4c0,2.5-2,4.5-4.5,4.5s-4.5-2-4.5-4.5,2-4.5,4.5-4.5,4.5,2,4.5,4.5Z"/><path class="cls-2" d="m934.5,153.3c0,2.5-2,4.5-4.5,4.5s-4.5-2-4.5-4.5,2-4.5,4.5-4.5,4.5,2,4.5,4.5Z"/><path class="cls-16" d="m993,137.9h-35.9c-2.5,0-4.5-2-4.5-4.5s2-4.5,4.5-4.5h35.9c2.5,0,4.5,2,4.5,4.5s-2,4.5-4.5,4.5Z"/><path class="cls-16" d="m993,157.7h-35.9c-2.5,0-4.5-2-4.5-4.5s2-4.5,4.5-4.5h35.9c2.5,0,4.5,2,4.5,4.5s-2,4.5-4.5,4.5Z"/><path class="cls-2" d="m934.5,173.4c0,2.5-2,4.5-4.5,4.5s-4.5-2-4.5-4.5,2-4.5,4.5-4.5,4.5,2,4.5,4.5Z"/><path class="cls-16" d="m993,177.9h-35.9c-2.5,0-4.5-2-4.5-4.5s2-4.5,4.5-4.5h35.9c2.5,0,4.5,2,4.5,4.5s-2,4.5-4.5,4.5Z"/></g><path class="cls-5" d="m171.4,12.9h87.4c2.9,0,5.3,2.4,5.3,5.3v131c0,2.9-2.4,5.3-5.3,5.3h-87.4c-2.9,0-5.3-2.4-5.3-5.3V18.2c0-2.9,2.4-5.3,5.3-5.3Z"/><path class="cls-17" d="m193.6,57.6l4.1-3.7,12.8,14.4c.7.8.6,2-.2,2.7l-1.2,1.1c-.8.7-2,.6-2.7-.2l-12.8-14.4Z"/><path class="cls-17" d="m189.1,31c-8.1,0-14.7,6.6-14.7,14.7s6.6,14.7,14.7,14.7,14.7-6.6,14.7-14.7-6.6-14.7-14.7-14.7Zm0,24.8c-5.5,0-10-4.5-10-10s4.5-10,10-10,10,4.5,10,10-4.5,10-10,10Z"/><path class="cls-17" d="m248.8,39.2h-23.3c-1.5,0-2.7-1.2-2.7-2.7s1.2-2.7,2.7-2.7h23.3c1.5,0,2.7,1.2,2.7,2.7s-1.2,2.7-2.7,2.7Z"/><path class="cls-17" d="m248.8,53h-23.3c-1.5,0-2.7-1.2-2.7-2.7s1.2-2.7,2.7-2.7h23.3c1.5,0,2.7,1.2,2.7,2.7s-1.2,2.7-2.7,2.7Z"/><path class="cls-17" d="m248.8,65.8h-23.3c-1.5,0-2.7-1.2-2.7-2.7s1.2-2.7,2.7-2.7h23.3c1.5,0,2.7,1.2,2.7,2.7s-1.2,2.7-2.7,2.7Z"/><path class="cls-2" d="m219.8,101.5h-35.9c-1.7,0-3-1.4-3-3s1.4-3,3-3h35.9c1.7,0,3,1.4,3,3s-1.4,3-3,3Z"/><path class="cls-2" d="m219.8,120.5h-35.9c-1.7,0-3-1.4-3-3s1.4-3,3-3h35.9c1.7,0,3,1.4,3,3s-1.4,3-3,3Z"/><path class="cls-2" d="m219.8,139.6h-35.9c-1.7,0-3-1.4-3-3s1.4-3,3-3h35.9c1.7,0,3,1.4,3,3s-1.4,3-3,3Z"/><path class="cls-2" d="m247.9,98.4c0,2.7-2.2,4.9-4.9,4.9s-4.9-2.2-4.9-4.9,2.2-4.9,4.9-4.9,4.9,2.2,4.9,4.9Z"/><path class="cls-2" d="m247.9,117.5c0,2.7-2.2,4.9-4.9,4.9s-4.9-2.2-4.9-4.9,2.2-4.9,4.9-4.9,4.9,2.2,4.9,4.9Z"/><path class="cls-2" d="m247.9,136.5c0,2.7-2.2,4.9-4.9,4.9s-4.9-2.2-4.9-4.9,2.2-4.9,4.9-4.9,4.9,2.2,4.9,4.9Z"/><path class="cls-5" d="m525.8,30.6h160.1c5.4,0,9.8,4.4,9.8,9.8v106.3c0,5.4-4.4,9.8-9.8,9.8h-160.1c-5.4,0-9.8-4.4-9.8-9.8V40.4c0-5.4,4.4-9.8,9.8-9.8Z"/><path class="cls-16" d="m626.6,55.8h-88.7c-2.6,0-4.6-2.1-4.6-4.6s2.1-4.6,4.6-4.6h88.7c2.6,0,4.6,2.1,4.6,4.6s-2.1,4.6-4.6,4.6Z"/><path class="cls-17" d="m628,72.1h-91.4c-1.8,0-3.3,1.5-3.3,3.3v45.3c0,1.8,1.5,3.3,3.3,3.3h91.4c1.8,0,3.3-1.5,3.3-3.3v-45.3c0-1.8-1.5-3.3-3.3-3.3Z"/><path class="cls-16" d="m673.7,55.8h-26.3c-2.6,0-4.6-2.1-4.6-4.6s2.1-4.6,4.6-4.6h26.3c2.6,0,4.6,2.1,4.6,4.6s-2.1,4.6-4.6,4.6Z"/><path class="cls-16" d="m675.4,80.4h-27.6c-1.6,0-2.9-1.3-2.9-2.9s1.3-2.9,2.9-2.9h27.6c1.6,0,2.9,1.3,2.9,2.9s-1.3,2.9-2.9,2.9Z"/><path class="cls-16" d="m675.4,93.4h-27.6c-1.6,0-2.9-1.3-2.9-2.9s1.3-2.9,2.9-2.9h27.6c1.6,0,2.9,1.3,2.9,2.9s-1.3,2.9-2.9,2.9Z"/><path class="cls-16" d="m675.4,106.4h-27.6c-1.6,0-2.9-1.3-2.9-2.9s1.3-2.9,2.9-2.9h27.6c1.6,0,2.9,1.3,2.9,2.9s-1.3,2.9-2.9,2.9Z"/><path class="cls-16" d="m675.4,119.5h-27.6c-1.6,0-2.9-1.3-2.9-2.9s1.3-2.9,2.9-2.9h27.6c1.6,0,2.9,1.3,2.9,2.9s-1.3,2.9-2.9,2.9Z"/><path class="cls-16" d="m656.7,144.2h-102.1c-2.1,0-3.8-1.7-3.8-3.8s1.7-3.8,3.8-3.8h102.1c2.1,0,3.8,1.7,3.8,3.8s-1.7,3.8-3.8,3.8Z"/><path class="cls-5" d="m20.5,179.6h151.5c4.3,0,7.8,3.5,7.8,7.8v91.8c0,4.3-3.5,7.8-7.8,7.8H20.5c-4.3,0-7.8-3.5-7.8-7.8v-91.8c0-4.3,3.5-7.8,7.8-7.8Z"/><g class="cls-28"><path class="cls-16" d="m72.7,229.1c-3.9,3.9-9.4,6.4-15.4,6.4-12,0-21.7-9.7-21.7-21.7s9.7-21.7,21.7-21.7,4.8.4,7,1.1l-7,20.6,15.4,15.3Z"/><path class="cls-17" d="m81.9,212c0,5.1-2.1,9.7-5.4,13l-13-13,5.9-17.5c7.3,2.5,12.5,9.4,12.5,17.5h0Z"/><path class="cls-17" d="m155.3,236.7h-49.9v-42.2c0-.7.6-1.3,1.3-1.3s1.3.6,1.3,1.3v39.6h47.4c.7,0,1.3.6,1.3,1.3s-.6,1.3-1.3,1.3h0Z"/><path class="cls-2" d="m122.2,215h-6.4v19.2h6.4v-19.2Z"/><path class="cls-17" d="m135.5,205.3h-6.4v28.9h6.4v-28.9Z"/><path class="cls-2" d="m148.5,219.7h-6.4v14.4h6.4v-14.4Z"/><path class="cls-16" d="m68.1,251.4h-30.1c-1.2,0-2.2,1-2.2,2.2s1,2.2,2.2,2.2h30.1c1.2,0,2.2-1,2.2-2.2s-1-2.2-2.2-2.2Z"/><path class="cls-16" d="m112.8,251.8h-30.1c-1.2,0-2.2,1-2.2,2.2s1,2.2,2.2,2.2h30.1c1.2,0,2.2-1,2.2-2.2s-1-2.2-2.2-2.2Z"/><path class="cls-16" d="m155.9,251.8h-30.1c-1.2,0-2.2,1-2.2,2.2s1,2.2,2.2,2.2h30.1c1.2,0,2.2-1,2.2-2.2s-1-2.2-2.2-2.2Z"/><path class="cls-16" d="m86.6,272.3h-30.1c-1.2,0-2.2-1-2.2-2.2s1-2.2,2.2-2.2h30.1c1.2,0,2.2,1,2.2,2.2s-1,2.2-2.2,2.2Z"/><path class="cls-16" d="m129.7,272.3h-30.1c-1.2,0-2.2-1-2.2-2.2s1-2.2,2.2-2.2h30.1c1.2,0,2.2,1,2.2,2.2s-1,2.2-2.2,2.2Z"/></g></svg>