<svg width="1200" height="887" viewBox="0 0 1200 887" fill="none" xmlns="http://www.w3.org/2000/svg">
<rect width="1200" height="887" fill="white"/>
<rect x="172.404" y="45.3752" width="851.436" height="505.501" rx="2.601" fill="white" stroke="#E4E4E4" stroke-width="1.734"/>
<rect x="195.758" y="124.949" width="151.775" height="380.956" rx="9.53698" fill="white" stroke="#E4E4E4" stroke-width="1.734"/>
<rect x="811.455" y="144.322" width="128.849" height="107.373" rx="5.42353" fill="white"/>
<path d="M912.155 202.182H901.383V239.084H912.155V202.182Z" fill="#F89939"/>
<path d="M896.137 212.535H885.365V239.084H896.137V212.535Z" fill="#F89939"/>
<path d="M927.692 185.08H916.92V239.084H927.692V185.08Z" fill="#F89939"/>
<path d="M925.956 158.099L925.766 156.936L897.334 161.59L888.115 181.234L857.462 183.315L847.532 197.963L824.097 197.383L824.067 198.564L848.146 199.16L858.114 184.453L888.889 182.368L898.138 162.656L925.956 158.099Z" fill="#28A44A"/>
<path d="M844.438 177.308C844.438 179.015 843.055 180.4 841.346 180.4C839.636 180.4 838.254 179.018 838.254 177.308C838.254 175.598 839.639 174.219 841.346 174.219C843.053 174.219 844.438 175.601 844.438 177.308Z" fill="#17A9E1"/>
<path d="M846.923 187.381V193.259C845.216 194.034 843.319 194.466 841.322 194.466C839.325 194.466 837.425 194.034 835.718 193.259V187.381C835.718 184.286 838.225 181.779 841.322 181.779C844.419 181.779 846.923 184.289 846.923 187.381Z" fill="#17A9E1"/>
<path d="M841.321 194.838C839.313 194.838 837.375 194.419 835.566 193.595C830.604 191.34 827.396 186.362 827.396 180.911C827.396 173.235 833.645 166.986 841.321 166.986C848.997 166.986 855.245 173.232 855.245 180.911C855.245 186.362 852.038 191.338 847.075 193.595C845.266 194.419 843.328 194.838 841.321 194.838ZM841.321 167.724C834.047 167.724 828.129 173.64 828.129 180.913C828.129 186.075 831.167 190.79 835.87 192.929C837.582 193.71 839.418 194.105 841.321 194.105C843.224 194.105 845.057 193.71 846.769 192.929C851.471 190.793 854.507 186.077 854.507 180.913C854.507 173.64 848.589 167.724 841.318 167.724H841.321Z" fill="url(#paint0_linear_306_4391)"/>
<path d="M877.82 212.789H828.518V217.184H877.82V212.789Z" fill="#17A9E1"/>
<path d="M873.778 231.213H828.518V235.607H873.778V231.213Z" fill="#17A9E1"/>
<path d="M867.676 222.002H828.518V226.396H867.676V222.002Z" fill="#28A44A"/>
<rect x="811.455" y="144.322" width="128.849" height="107.373" rx="5.42353" stroke="#E4E4E4" stroke-width="1.734"/>
<path d="M650.439 436.285H853.533C858.027 436.285 862.056 437.161 864.929 438.539C867.865 439.946 869.316 441.722 869.316 443.401V531.218C869.316 532.895 867.866 534.67 864.93 536.078C862.057 537.455 858.03 538.331 853.537 538.331H650.444C645.949 538.331 641.92 537.455 639.047 536.078C636.111 534.67 634.661 532.894 634.661 531.216V443.398C634.661 441.721 636.111 439.946 639.047 438.538C641.919 437.161 645.947 436.285 650.439 436.285Z" fill="white" stroke="#E4E4E4" stroke-width="1.734"/>
<path d="M721.25 500.839C726.032 487.47 721.716 473.056 711.505 464.369C709.071 462.297 706.303 460.551 703.24 459.221C702.566 458.927 701.873 458.655 701.172 458.407C694.106 455.878 686.749 455.891 680.099 457.972C670.503 460.976 662.382 468.287 658.736 478.485C657.532 481.851 656.908 485.28 656.804 488.673C656.383 502.671 664.92 515.949 678.814 520.921C696.078 527.092 715.075 518.107 721.25 500.843V500.839ZM681.61 513.095C671.191 509.371 664.789 499.409 665.106 488.917C665.183 486.375 665.653 483.805 666.558 481.281C669.291 473.635 675.38 468.156 682.573 465.903C687.559 464.347 693.074 464.333 698.372 466.229C698.897 466.419 699.417 466.622 699.924 466.844C702.222 467.839 704.294 469.151 706.122 470.703C713.777 477.213 717.011 488.022 713.428 498.047C708.8 510.991 694.553 517.727 681.61 513.099V513.095Z" fill="#1BB9F5"/>
<path d="M682.574 465.905L680.095 457.975C670.499 460.979 662.378 468.29 658.732 478.487C657.528 481.853 656.904 485.282 656.8 488.675L665.106 488.924C665.183 486.382 665.654 483.812 666.558 481.288C669.291 473.642 675.38 468.163 682.574 465.91V465.905Z" fill="#17A9E1"/>
<path d="M804.509 468.513H837.273C839.34 468.513 841.019 466.835 841.019 464.767C841.019 462.695 839.34 461.021 837.273 461.021H804.509C802.441 461.021 800.763 462.695 800.763 464.767C800.763 466.835 802.437 468.513 804.509 468.513Z" fill="#17A9E1"/>
<path d="M804.509 481.572H837.273C839.34 481.572 841.019 479.894 841.019 477.826C841.019 475.759 839.34 474.08 837.273 474.08H804.509C802.441 474.08 800.763 475.759 800.763 477.826C800.763 479.894 802.437 481.572 804.509 481.572Z" fill="#1BB9F5"/>
<path d="M804.509 494.644H837.273C839.34 494.644 841.019 492.966 841.019 490.898C841.019 488.831 839.34 487.152 837.273 487.152H804.509C802.441 487.152 800.763 488.831 800.763 490.898C800.763 492.966 802.437 494.644 804.509 494.644Z" fill="#1BB9F5"/>
<path d="M745.208 474.981H726.469V474.262H744.909L754.776 464.395H766.86V465.114H755.075L745.208 474.981Z" fill="#72ACFB"/>
<path d="M762.963 507.725H738.849L731.036 499.912L731.547 499.4L739.148 507.005H762.963V507.725Z" fill="#72ACFB"/>
<path d="M781.552 469.164H756.556V472.231H781.552V469.164Z" fill="#17A9E1"/>
<path d="M769.055 500.43H748.932V503.497H769.055V500.43Z" fill="#17A9E1"/>
<path d="M240.874 18.1309V27.2312H152.11V116.005H143V18.1309H240.874Z" fill="#17A9E1"/>
<path d="M1034.51 3H962.259V8.05913H1034.51V3Z" fill="#17A9E1"/>
<path d="M1034.51 12.5508H962.259V33.8562H1034.51V12.5508Z" fill="#17A9E1"/>
<path d="M955.336 20.6387H912.705V23.8248H955.336V20.6387Z" fill="#17A9E1"/>
<path d="M955.336 25.2168H912.705V33.8387H955.336V25.2168Z" fill="#17A9E1"/>
<path d="M1036.1 3H1032.92V62.6611H1036.1V3Z" fill="#17A9E1"/>
<path d="M952.997 287.524H654.046H654.042C642.391 287.524 632.928 296.982 632.928 308.637V394.175C632.928 405.826 642.386 415.289 654.042 415.289H952.993C964.648 415.289 974.11 405.826 974.11 394.171V308.637C974.11 296.986 964.652 287.524 952.997 287.524Z" fill="white" stroke="#E4E4E4" stroke-width="1.734"/>
<path d="M735.113 339.587C728.513 321.131 710.876 309.796 692.285 310.356C687.787 310.495 683.227 311.325 678.757 312.924C665.218 317.766 655.509 328.554 651.518 341.296C648.754 350.125 648.737 359.895 652.095 369.28C652.43 370.212 652.79 371.132 653.178 372.028C654.945 376.093 657.26 379.769 660.012 383.004C671.548 396.568 690.69 402.298 708.451 395.947C731.376 387.748 743.313 362.512 735.118 339.587H735.113ZM704.733 385.556C691.418 390.32 677.069 386.022 668.415 375.856C666.354 373.431 664.616 370.674 663.296 367.624C663.001 366.953 662.731 366.262 662.482 365.563C659.967 358.525 659.979 351.201 662.052 344.58C665.042 335.027 672.321 326.938 682.475 323.311C685.828 322.109 689.243 321.487 692.616 321.385C706.553 320.964 719.778 329.466 724.726 343.3C730.873 360.488 721.921 379.405 704.733 385.556Z" fill="#1BB9F5"/>
<path d="M662.052 344.578L651.518 341.29C655.509 328.547 665.217 317.76 678.757 312.918C683.227 311.319 687.786 310.489 692.285 310.35L692.616 321.379C689.242 321.485 685.828 322.107 682.474 323.305C672.32 326.932 665.045 335.021 662.052 344.574V344.578Z" fill="#17A9E1"/>
<path d="M663.296 367.617L653.178 372.021C652.79 371.125 652.43 370.205 652.095 369.273C648.737 359.888 648.754 350.118 651.518 341.289L662.052 344.577C659.979 351.198 659.967 358.522 662.482 365.56C662.731 366.259 663.005 366.95 663.296 367.621V367.617Z" fill="#F89939"/>
<path d="M660.01 383.005C657.258 379.77 654.943 376.094 653.177 372.029L663.294 367.625C664.619 370.672 666.357 373.432 668.414 375.857L660.01 383.005Z" fill="#28A44A"/>
<path d="M760.354 342.293H752.548V397.896H760.354V342.293Z" fill="#DEDEDE"/>
<path d="M779.736 353.578H771.93V397.883H779.736V353.578Z" fill="#DEDEDE"/>
<path d="M799.122 345.273H791.315V397.892H799.122V345.273Z" fill="#DEDEDE"/>
<path d="M818.504 361.678H810.697V397.881H818.504V361.678Z" fill="#DEDEDE"/>
<path d="M837.891 346.98H830.084V397.893H837.891V346.98Z" fill="#DEDEDE"/>
<path d="M857.272 339.299H849.465V397.888H857.272V339.299Z" fill="#DEDEDE"/>
<path d="M876.657 336.102H868.851V397.888H876.657V336.102Z" fill="#DEDEDE"/>
<path d="M760.354 363.006H752.548V397.892H760.354V363.006Z" fill="#F89939"/>
<path d="M779.736 370.09H771.93V397.885H779.736V370.09Z" fill="#F89939"/>
<path d="M799.122 364.875H791.315V397.889H799.122V364.875Z" fill="#F89939"/>
<path d="M818.504 375.172H810.697V397.884H818.504V375.172Z" fill="#F89939"/>
<path d="M837.891 365.945H830.084V397.888H837.891V365.945Z" fill="#F89939"/>
<path d="M857.272 361.137H849.465V397.892H857.272V361.137Z" fill="#F89939"/>
<path d="M876.657 359.133H868.851V397.896H876.657V359.133Z" fill="#F89939"/>
<path d="M898.044 342.293H890.237V397.896H898.044V342.293Z" fill="#DEDEDE"/>
<path d="M917.426 353.578H909.619V397.883H917.426V353.578Z" fill="#DEDEDE"/>
<path d="M936.813 345.273H929.006V397.892H936.813V345.273Z" fill="#DEDEDE"/>
<path d="M956.193 361.678H948.387V397.881H956.193V361.678Z" fill="#DEDEDE"/>
<path d="M898.044 363.006H890.237V397.892H898.044V363.006Z" fill="#F89939"/>
<path d="M917.426 370.09H909.619V397.885H917.426V370.09Z" fill="#F89939"/>
<path d="M936.813 364.875H929.006V397.889H936.813V364.875Z" fill="#F89939"/>
<path d="M956.193 375.172H948.387V397.884H956.193V375.172Z" fill="#F89939"/>
<path d="M953.224 314.82H751.188C749.548 314.82 748.215 313.487 748.215 311.847V309.848C748.215 308.208 749.548 306.875 751.188 306.875H953.224C954.864 306.875 956.193 308.204 956.193 309.844V311.843C956.193 313.483 954.86 314.816 953.22 314.816L953.224 314.82Z" fill="#17A9E1"/>
<path d="M953.224 328.666H751.188C749.548 328.666 748.215 327.333 748.215 325.693V323.693C748.215 322.053 749.548 320.72 751.188 320.72H953.224C954.864 320.72 956.193 322.049 956.193 323.689V325.689C956.193 327.329 954.86 328.662 953.22 328.662L953.224 328.666Z" fill="#1BB9F5"/>
<g style="mix-blend-mode:hard-light">
<path d="M384.916 124.949H573.58C586.09 124.949 596.258 135.107 596.258 147.627V500.616C596.258 513.126 586.1 523.294 573.58 523.294H384.916C372.406 523.294 362.238 513.136 362.238 500.616V147.617C362.238 135.107 372.396 124.949 384.906 124.949H384.916Z" fill="#F4F4F4" stroke="#787777" stroke-width="1.734"/>
</g>
<path d="M428.962 362.711H427.934V494.961H428.962V362.711Z" fill="#1BB9F5"/>
<path d="M479.106 362.711H478.078V494.961H479.106V362.711Z" fill="#1BB9F5"/>
<path d="M529.25 362.711H528.222V494.961H529.25V362.711Z" fill="#1BB9F5"/>
<path d="M579.383 362.711H578.354V494.961H579.383V362.711Z" fill="#72ACFB"/>
<path d="M378.312 441.358C378.312 441.358 398.741 458.562 418.489 438.182C438.237 417.803 461.008 410.993 481.143 428.156C501.278 445.318 509.116 421.763 529.241 402.463C549.375 383.163 549.05 372.18 578.865 372.18V494.973H378.312V441.348V441.358Z" fill="#17A9E1"/>
<path d="M440.915 351.711H428.455V356.526H440.915V351.711Z" fill="#1BB9F5"/>
<path d="M394.759 351.711H377.801V356.526H394.759V351.711Z" fill="#1BB9F5"/>
<path d="M493.95 351.711H478.6V356.526H493.95V351.711Z" fill="#1BB9F5"/>
<path d="M543.571 351.711H528.221V356.526H543.571V351.711Z" fill="#1BB9F5"/>
<path d="M578.864 351.711H563.514V356.526H578.864V351.711Z" fill="#1BB9F5"/>
<path d="M570.1 264.74H503.059V273.22H570.1V264.74Z" fill="#17A9E1"/>
<path d="M564.603 300.287H503.059V308.766H564.603V300.287Z" fill="#17A9E1"/>
<path d="M556.307 282.514H503.059V290.993H556.307V282.514Z" fill="#F89939"/>
<path d="M442.951 252.64C442.951 259.114 437.709 264.367 431.225 264.367C424.74 264.367 419.498 259.124 419.498 252.64C419.498 246.156 424.751 240.924 431.225 240.924C437.699 240.924 442.951 246.166 442.951 252.64Z" fill="#17A9E1"/>
<path d="M452.378 290.861V313.154C445.904 316.096 438.707 317.735 431.133 317.735C423.56 317.735 416.353 316.096 409.879 313.154V290.861C409.879 279.125 419.386 269.617 431.133 269.617C442.88 269.617 452.378 279.135 452.378 290.861Z" fill="#17A9E1"/>
<path d="M431.133 319.137C423.518 319.137 416.169 317.549 409.308 314.424C390.487 305.873 378.322 286.991 378.322 266.316C378.322 237.203 402.02 213.506 431.133 213.506C460.245 213.506 483.943 237.193 483.943 266.316C483.943 286.991 471.779 305.863 452.957 314.424C446.096 317.549 438.747 319.137 431.133 319.137ZM431.133 216.305C403.547 216.305 381.101 238.74 381.101 266.326C381.101 285.901 392.624 303.786 410.458 311.899C416.953 314.861 423.915 316.358 431.133 316.358C438.35 316.358 445.302 314.861 451.797 311.899C469.631 303.797 481.144 285.911 481.144 266.326C481.144 238.74 458.698 216.305 431.122 216.305H431.133Z" fill="url(#paint1_linear_306_4391)"/>
<path d="M535.898 244.011C518.298 244.011 503.996 229.699 503.996 212.109C503.996 194.519 518.308 180.207 535.898 180.207C553.488 180.207 567.8 194.519 567.8 212.109C567.8 229.699 553.488 244.011 535.898 244.011ZM535.898 186.589C521.83 186.589 510.379 198.041 510.379 212.109C510.379 226.177 521.82 237.629 535.898 237.629C549.976 237.629 561.407 226.177 561.407 212.109C561.407 198.041 549.966 186.589 535.898 186.589Z" fill="#17A9E1"/>
<path d="M476.816 148.508H428.739V156.173H476.816V148.508Z" fill="#17A9E1"/>
<path d="M268.913 152.191H220.836V159.856H268.913V152.191Z" fill="#F89939"/>
<path d="M268.913 260.297H220.836V267.962H268.913V260.297Z" fill="#17A9E1"/>
<path d="M268.913 370.566H220.836V378.231H268.913V370.566Z" fill="#F89939"/>
<path d="M476.806 168.26H435.824V175.935H476.806V168.26Z" fill="#F89939"/>
<path d="M261.818 187.957H220.836V195.632H261.818V187.957Z" fill="#17A9E1"/>
<path d="M261.818 297.049H220.836V304.724H261.818V297.049Z" fill="#F89939"/>
<path d="M261.818 407.32H220.836V414.996H261.818V407.32Z" fill="#17A9E1"/>
<path d="M476.806 188.023H410.905V195.689H476.806V188.023Z" fill="#17A9E1"/>
<path d="M286.737 223.746H220.836V231.411H286.737V223.746Z" fill="#F89939"/>
<path d="M286.737 333.801H220.836V341.466H286.737V333.801Z" fill="#17A9E1"/>
<path d="M286.737 444.072H220.836V451.737H286.737V444.072Z" fill="#F89939"/>
<g style="mix-blend-mode:hard-light">
<path d="M787.614 140.51H640.098L640.088 140.5H639.729C635.972 140.5 632.927 143.545 632.927 147.302V249.329C632.927 253.086 635.972 256.131 639.729 256.131H787.614C791.371 256.131 794.416 253.086 794.416 249.329V147.312C794.416 143.555 791.371 140.51 787.614 140.51Z" fill="#F4F4F4" stroke="#727272" stroke-width="1.734"/>
</g>
<path d="M650.029 171.414H699.144C700.977 171.414 702.463 172.9 702.463 174.733V176.219C702.463 178.051 700.977 179.537 699.144 179.537H650.029C648.197 179.537 646.711 178.051 646.711 176.219V174.733C646.711 172.9 648.197 171.414 650.029 171.414Z" fill="#1BB9F5"/>
<path d="M649.642 153.043H687.459C689.077 153.043 690.401 154.356 690.401 155.985V158.224C690.401 159.843 689.087 161.166 687.459 161.166H649.642C648.024 161.166 646.711 159.853 646.711 158.234V155.985C646.711 154.366 648.024 153.053 649.642 153.053V153.043Z" fill="#F89939"/>
<path d="M646.711 239.554L679.02 207.244L688.67 216.894L724.125 181.44L739.862 197.177L781.027 156.012V239.554H646.711Z" fill="#1BB9F5"/>
<path d="M780.661 239.547V175.479L738.203 217.937L722.995 202.729L697.638 228.085L678.419 220.451L646.711 239.547H780.661Z" fill="#17A9E1"/>
<path d="M903.901 844.255C903.901 844.255 891.991 860.98 893.629 863.637C895.258 866.284 907.779 866.67 915.403 863.637C923.028 860.604 923.211 841.008 926.662 832.58C928.107 829.058 925.012 818.644 920.666 817.891C916.319 817.138 911.596 819.347 911.596 819.347C911.596 819.347 916.095 831.216 903.901 844.255Z" fill="#3A3D5D"/>
<path d="M911.526 819.213C911.526 819.213 909.022 826.338 908.106 833.138C907.342 838.777 899.626 850.758 899.983 852.275C900.349 853.792 910.142 855.166 914.132 851.257C918.122 847.359 920.698 835.998 921.573 829.199C922.398 822.867 923.425 819.742 923.425 819.742C923.425 819.742 915.323 815.049 911.516 819.213H911.526Z" fill="#DBA585"/>
<path d="M1007.54 844.531C1007.54 844.531 996.062 860.981 997.701 863.628C999.34 866.274 1011.86 866.661 1019.48 863.628C1027.11 860.594 1027.28 840.999 1030.73 832.57C1032.18 829.048 1029.08 818.635 1024.75 817.882C1020.4 817.128 1015.31 819.51 1015.31 819.51C1015.31 819.51 1019.76 831.491 1007.55 844.531H1007.54Z" fill="#3A3D5D"/>
<path d="M1015.3 819.508C1015.3 819.508 1014.4 827.265 1012.94 832.762C1011.48 838.248 1003.69 850.749 1004.04 852.265C1004.41 853.782 1014.2 855.156 1018.19 851.248C1022.18 847.349 1025.27 836.029 1025.63 829.189C1026 822.348 1024.73 817.88 1024.73 817.88C1024.73 817.88 1019.1 815.335 1015.29 819.508H1015.3Z" fill="#DBA585"/>
<path d="M957.942 547.184C957.942 547.184 947.722 596.788 945.381 609.278C943.03 621.768 936.464 682.243 935.762 692.535C935.059 702.816 925.104 741.569 925.572 745.243C926.04 748.918 910.802 822.698 910.802 822.698C910.802 822.698 916.003 827.065 921.49 823.095C924.31 821.049 954.909 754.018 954.909 735.654C954.909 710.267 972.896 677.133 975.217 671.453C996.776 618.694 992.532 602.559 995.351 599.139C998.171 595.709 998.405 601.257 1000.05 608.85C1001.69 616.444 1005.22 682.07 1007.32 690.387C1009.43 698.714 1007.8 726.87 1008.97 741.07C1010.14 755.27 1015.29 819.522 1015.29 819.522C1015.29 819.522 1019.28 826.037 1024.88 819.685C1026.08 818.321 1034.54 748.124 1034.78 731.226C1035.01 714.339 1035.26 691.028 1035.71 683.73C1040.06 613.706 1050.75 603.71 1033.91 554.157C1002.4 461.372 957.932 547.194 957.932 547.194L957.942 547.184Z" fill="#DBA585"/>
<path d="M1026.56 533.332C1026.56 533.332 1055.68 575.841 1043.13 666.274C1043.13 666.274 974.098 676.077 937.106 654.945C937.106 654.945 952.396 561.712 957.944 547.196C963.491 532.691 1026.56 533.342 1026.56 533.342V533.332Z" fill="#42466C"/>
<path d="M926.977 831.092V848.611H924.799V835.082L926.977 831.092Z" fill="#3A3D5D"/>
<path d="M1031.05 831.092V848.611H1028.87V835.082L1031.05 831.092Z" fill="#3A3D5D"/>
<path d="M992.052 344.824C992.052 344.824 972.558 364.46 979.195 389.746C985.832 415.031 996.5 415.174 1008.26 404.302C1020.01 393.42 1026.94 381.979 1028.49 369.265C1030.04 356.551 1009.85 327.305 992.052 344.834V344.824Z" fill="#DBA585"/>
<path d="M988.236 429.152C988.236 429.152 991.127 422.535 993.152 415.094C993.509 413.781 993.834 412.437 994.119 411.104C995.117 406.421 995.524 401.8 994.445 398.634C991.34 389.452 1013.94 395.804 1013.94 395.804C1013.94 395.804 1009.56 420.102 1013.94 428.287C1018.32 436.481 988.226 429.131 988.226 429.131L988.236 429.152Z" fill="#DBA585"/>
<path d="M1045.52 440.73C1041.96 433.625 1039.3 431.345 1032.43 429.166C1028.59 427.955 1011.39 423.476 1011.39 423.476L990.749 422.723C990.749 422.723 976.549 425.084 965.535 428.902C954.51 432.719 940.076 453.586 940.076 453.586C940.076 453.586 959.987 500.35 963.804 513.767C967.611 527.193 965.077 547.949 965.077 547.949C988.947 560.948 1027.23 546.676 1027.23 546.676C1024.33 536.192 1024.21 523.946 1025.74 515.263C1025.92 514.235 1026.11 513.268 1026.34 512.342C1026.54 511.507 1026.82 510.316 1027.15 508.972C1027.16 508.911 1027.18 508.86 1027.19 508.799C1042.38 510.357 1056.62 510.977 1056.99 507.944C1058.66 494.222 1050.41 450.482 1045.51 440.72L1045.52 440.73ZM1035 494.039C1034.39 493.947 1033.08 493.947 1031.71 493.815C1033.4 489.112 1035.28 484.949 1035.28 484.949C1036.36 487.952 1040.45 494.853 1035.01 494.039H1035Z" fill="#E6D8D1"/>
<path d="M998.416 358.942C998.416 358.942 1007.74 375.89 1013.53 381.967C1019.32 388.045 1018.64 392.87 1018.64 392.87C1018.64 392.87 1041.22 365.019 1025.12 348.213C1009.01 331.407 988.247 338.176 982.17 352.875C976.093 367.564 978.322 385.51 978.322 385.51C978.322 385.51 978.505 368.266 998.416 358.952V358.942Z" fill="#CD7250"/>
<path d="M1004.56 341.195C1004.56 341.195 1002.3 328.787 1021.77 323.85C1041.23 318.913 1049.97 341.338 1047.57 355.019C1045.17 368.7 1028.54 403.381 1037.56 407.9C1046.58 412.41 1050.11 402.678 1050.11 402.678C1050.11 402.678 1047.29 419.739 1034.74 415.789C1022.18 411.84 1023.87 384.111 1025.77 373.057C1027.66 362.012 1004.55 341.185 1004.55 341.185L1004.56 341.195Z" fill="#CD7250"/>
<path d="M1010.83 401.832C1010.76 402.015 1005.84 413.335 993.163 415.096C993.519 413.783 993.845 412.439 994.13 411.105C994.13 411.105 1001.08 412.51 1010.83 401.832Z" fill="#997761"/>
<path d="M1035 485.112C1035 485.112 1034.07 487.077 1031.53 494.793C1028.93 473.121 1030.3 461.832 1030.3 461.832C1030.58 473.416 1035.01 485.112 1035.01 485.112H1035Z" fill="#C8BCB6"/>
<path d="M1007.6 338.593C1007.6 338.593 1021.41 341.25 1028.3 352.498C1028.3 352.498 1026.91 342.319 1020.03 339.377C1013.15 336.445 1007.6 338.603 1007.6 338.603V338.593Z" fill="#E6D8D1"/>
<path d="M1027.15 508.979C1026.83 510.323 1026.54 511.514 1026.34 512.349C1026.11 513.265 1025.91 514.242 1025.74 515.27C1017.19 510.618 1011.04 506.984 1011.04 506.984C1013.34 507.504 1027.16 508.99 1027.16 508.99L1027.15 508.979Z" fill="#C8BCB6"/>
<path d="M1012.54 423.774L988.235 443.593L990.739 422.716C990.739 422.716 1004.91 419.662 1012.54 423.774Z" fill="#DBA585"/>
<path d="M995.259 440.229L988.235 443.599L1012.12 419.932L995.259 440.229Z" fill="#CFC3BC"/>
<path d="M1028.59 507.277C1025.24 521.141 1037.63 552.341 1037.63 552.341L1013.09 560.016C1009.56 561.115 1005.85 558.957 1005.07 555.333C1001.79 540.064 994.09 502.482 993.163 481.594C991.993 454.935 1011.39 423.48 1011.39 423.48C1045.89 429.405 1036.44 481.594 1036.44 481.594C1036.44 481.594 1035.18 484.882 1033.51 490.023C1033.09 491.316 1032.65 492.72 1032.18 494.227C1031 498.085 1029.73 502.564 1028.59 507.287V507.277Z" fill="#17A9E1"/>
<path d="M988.296 423.863L988.724 422.723C988.724 422.723 971.063 425.41 962.075 429.889C953.096 434.378 935.903 457.546 935.903 457.546L958.39 487.229C958.41 510.041 954.715 550.596 954.715 550.596L964.996 556.52C967.755 558.108 971.215 556.164 971.277 552.967C971.562 537.546 972.254 500.92 972.62 483.178C973.089 460.366 989.365 423.476 989.365 423.476C988.999 423.598 988.653 423.73 988.296 423.863Z" fill="#17A9E1"/>
<path d="M956.271 530.817C956.271 530.817 973.22 531.478 975.857 530.817C978.493 530.155 996.083 522.531 997.142 514.988C998.2 507.455 956.271 521.747 956.271 521.747V530.817Z" fill="#DBA585"/>
<path d="M1008.86 507.272L940.066 499.221L971.144 524.506L1008.86 507.272Z" fill="#6D76BA"/>
<path d="M971.144 524.501L1008.86 511.645V507.268L969.872 519.778L971.144 524.501Z" fill="#363957"/>
<path d="M988.876 494.641C988.876 494.641 983.185 494.641 979.999 493.99C977.536 493.491 971.398 494.183 969.84 495.567C968.273 496.952 963.315 506.592 962.369 507.182C961.432 507.773 962.847 509.137 964.496 508.455C964.496 508.455 966.013 512.669 969.749 511.091C973.484 509.513 976.019 506.062 977.984 505.462C979.938 504.851 991.339 501.787 991.339 501.787C991.339 501.787 991.807 493.623 988.865 494.651L988.876 494.641Z" fill="#DBA585"/>
<path d="M992.041 418.875L978.94 439.61L972.619 443.601L987.359 422.947L992.041 418.875Z" fill="#F3E4DC"/>
<path d="M978.942 439.61L988.236 443.601L990.74 422.723L992.043 418.875L978.942 439.61Z" fill="#CFC3BC"/>
<path d="M958.338 521.12C958.338 521.12 957.636 529.885 958.338 531.717C958.338 531.717 915.911 527.472 911.961 521.548C908.001 515.613 908.154 508.406 908.154 508.406L958.348 521.12H958.338Z" fill="#17A9E1"/>
<path d="M971.145 524.499L951.092 449.915L874.808 441.863L895.716 510.513L971.145 524.499Z" fill="#2A2B41"/>
<path d="M1012.12 419.932L995.26 440.229L1004.48 448.454L1014.43 424.146L1012.12 419.932Z" fill="#F3E4DC"/>
<path d="M1034.07 488.298C1034.07 488.298 1033.51 490.008 1033.51 490.018C1033.09 491.301 1032.65 492.716 1032.18 494.212C1028.92 495.24 1000.75 493.164 1000.75 493.164C1000.75 493.164 1024.33 487.636 1034.07 488.288V488.298Z" fill="#414469"/>
<path d="M1032.44 493.663C1027.9 493.327 1020.47 492.839 1014.38 492.808C1004.92 492.767 988.723 493.826 988.723 493.826L990.646 503.944C990.646 503.944 1019.33 508.606 1035 509.706C1035 509.706 1055.67 512.078 1057.21 508.993C1058.75 505.909 1056.7 486.11 1053.34 468.266C1049.98 450.421 1046.52 440.15 1042.41 434.633C1038.3 429.126 1016.58 424.82 1016.58 424.82L1035.01 485.123C1035.01 485.123 1037.64 490.497 1037.51 492.818C1037.47 493.531 1036.98 493.857 1036.32 493.979C1035.86 493.938 1034.83 493.857 1033.43 493.745L1032.44 493.663Z" fill="#17A9E1"/>
<path d="M417.644 602.148H328.473V607.442H417.644V602.148Z" fill="#DCD0C8"/>
<path d="M340.423 861.949H348.23L348.23 621.228H340.423L340.423 861.949Z" fill="#6D6865"/>
<path d="M465.667 600.645H403.685V608.208H465.667V600.645Z" fill="#C6BBB5"/>
<path d="M446.409 536.162H422.936V607.448H446.409V536.162Z" fill="url(#paint2_linear_306_4391)"/>
<path d="M639.889 607.527H296.479V621.208H639.889V607.527Z" fill="#A98E75"/>
<path d="M230.579 524.685C230.579 524.685 226.823 577.353 237.114 583.664C243.558 587.614 269.271 600.929 268.507 603.433C267.744 605.927 253.991 625.654 253.991 625.654C253.991 625.654 204.611 593.131 203.023 582.891C201.466 572.885 205.456 505.772 212.246 502.678C217.325 500.367 220.013 502.281 226.416 507.034C235.404 513.712 230.579 524.685 230.579 524.685Z" fill="#0E96CA"/>
<path d="M291.329 829.065C291.329 829.065 289.792 839.722 289.598 841.32C289.405 842.919 272.517 840.374 272.517 840.374L271.153 827.68C271.153 827.68 289.222 827.558 291.329 829.054V829.065Z" fill="#454971"/>
<path d="M289.768 839.972C289.768 839.972 295.123 846.395 300.294 849.195C305.465 851.994 313.598 853.104 316.662 856.005C318.871 858.092 324.704 867.1 303.215 866.917C281.727 866.734 271.354 868.189 269.053 864.739C266.753 861.278 272.382 839.26 272.382 839.26C272.382 839.26 277.472 841.092 289.758 839.983L289.768 839.972Z" fill="#2E3048"/>
<path d="M399.523 829.172C399.523 829.172 397.986 839.83 397.793 841.428C397.599 843.027 380.712 840.482 380.712 840.482L379.348 827.788C379.348 827.788 397.416 827.656 399.523 829.162V829.172Z" fill="#454971"/>
<path d="M397.977 840.076C397.977 840.076 403.332 846.499 408.503 849.289C413.674 852.088 432.719 854.388 435.783 857.29C437.992 859.376 441.667 867.805 411.424 867.011C389.936 866.451 379.563 868.283 377.262 864.832C374.962 861.382 380.591 839.354 380.591 839.354C380.591 839.354 385.385 841.308 397.967 840.076H397.977Z" fill="#2E3048"/>
<path d="M236.848 644.969C236.848 644.969 298.25 655.352 312.114 657.53C325.978 659.708 401.173 678.418 410.579 684.118C418.061 688.658 406.65 797.659 403.983 839.241H374.371L372.223 714.504C336.687 715.389 311.32 706.187 285.444 710.127C259.568 714.056 237.988 719.644 221.538 697.586C221.538 697.586 220.928 649.804 236.848 644.979V644.969Z" fill="#2E3048"/>
<path d="M297.373 839.36L268.514 837.569L265.695 714.511C250.395 714.887 245.153 713.92 232.775 712.424L209.464 658.26C229.884 662.342 295.316 678.852 304.04 684.136C311.532 688.676 300.03 797.768 297.363 839.36H297.373Z" fill="#2E3048"/>
<path d="M265.115 414.827C265.115 414.827 287.622 408.608 296.213 426.086C304.805 443.553 300.906 476.677 289.566 479.792C278.216 482.907 261.909 479.323 257.196 468.442C252.493 457.57 248.737 442.118 249.856 432.112C250.986 422.105 259.14 417.219 265.115 414.827Z" fill="#DBA585"/>
<path d="M283.683 476.305C283.683 476.305 283.439 489.589 284.905 492.429C286.37 495.259 253.562 494.546 253.562 494.546C253.562 494.546 258.734 478.585 255.802 464.996C252.901 451.538 283.683 476.305 283.683 476.305Z" fill="#DBA585"/>
<path d="M254.019 459.964C254.019 459.964 255.78 463.537 264.269 462.957C272.759 462.387 283.966 452.136 287.57 451.22C291.173 450.304 291.387 448.258 291.387 448.258L293.291 451.647L296.986 452.218C296.986 452.218 294.481 441.947 299.948 438.333C305.414 434.719 297.484 405.596 269.797 412.62C269.797 412.62 248.664 416.488 248.379 428.286C248.094 440.084 249.926 453.714 254.019 459.964Z" fill="#3E4148"/>
<path d="M286.623 492.093C286.623 492.093 286.532 486.678 284.078 486.159C281.625 485.65 258.294 482.433 255.281 483.614L253.988 490.76C253.988 490.76 259.791 494.333 286.623 492.093Z" fill="#DCD0C8"/>
<path d="M293.373 445.829C292.742 441.391 287.703 436.291 284.812 443.203C281.921 450.115 286.767 460.172 290.004 459.633C293.241 459.093 294.228 451.845 293.373 445.819V445.829Z" fill="#DBA585"/>
<path d="M384.367 556.035C384.367 556.035 384.346 556.035 384.326 556.035C384.498 556.106 384.518 556.116 384.367 556.035Z" fill="#363957"/>
<path d="M258.549 417.996C258.549 417.996 231.106 416.704 253.755 459.538L258.549 417.996Z" fill="#3E4148"/>
<path d="M197.404 853.94L199.45 859.692L285.71 832.961L281.577 821.336L197.404 853.94Z" fill="#8C8581"/>
<path d="M288.66 735.098H278.857V828.88H288.66V735.098Z" fill="#8C8581"/>
<path d="M312.674 730.111H254.846V735.639H312.674V730.111Z" fill="#5D5955"/>
<path d="M370.868 853.943L368.832 859.694L282.572 832.963L286.369 820.605L370.868 853.943Z" fill="#8C8581"/>
<path d="M310.107 859.073V865.751L282.572 832.963L286.369 820.605L310.107 859.073Z" fill="#8C8581"/>
<path d="M378.932 861.939C378.932 866.387 375.328 870.001 370.87 870.001C366.411 870.001 362.808 866.387 362.808 861.939C362.808 857.491 366.421 853.877 370.87 853.877C375.318 853.877 378.932 857.48 378.932 861.939Z" fill="#B9AFAA"/>
<path d="M310.791 861.939C310.791 866.387 307.177 870.001 302.729 870.001C298.281 870.001 294.667 866.387 294.667 861.939C294.667 857.491 298.27 853.877 302.729 853.877C307.187 853.877 310.791 857.48 310.791 861.939Z" fill="#B9AFAA"/>
<path d="M205.464 861.939C205.464 866.387 201.86 870.001 197.402 870.001C192.943 870.001 189.34 866.387 189.34 861.939C189.34 857.491 192.943 853.877 197.402 853.877C201.86 853.877 205.464 857.48 205.464 861.939Z" fill="#B9AFAA"/>
<path d="M342.174 730.112H226.109C220.327 730.112 215.645 725.43 215.645 719.648C215.645 713.866 220.327 709.184 226.109 709.184H342.174C347.956 709.184 352.638 713.866 352.638 719.648C352.638 725.43 347.956 730.112 342.174 730.112Z" fill="#DCD0C8"/>
<path d="M595.944 621.209H588.137V861.93H595.944V621.209Z" fill="#6D6865"/>
<path d="M345.256 427.516H524.087C530.663 427.516 536.007 432.86 536.007 439.436V558.575C536.007 565.15 530.673 570.495 524.087 570.495H345.246C338.67 570.495 333.326 565.15 333.326 558.575V439.436C333.326 432.86 338.67 427.516 345.246 427.516H345.256Z" fill="url(#paint3_linear_306_4391)"/>
<path d="M528.069 435.25H341.278V548.088H528.069V435.25Z" fill="#F4F6FF"/>
<path style="mix-blend-mode:multiply" d="M519.773 558.732C519.773 561.939 516.404 564.534 512.251 564.534C508.097 564.534 504.718 561.939 504.718 558.732C504.718 555.526 508.087 552.92 512.251 552.92C516.414 552.92 519.773 555.516 519.773 558.732Z" fill="url(#paint4_linear_306_4391)"/>
<path d="M476.632 607.721V605.177C476.632 605.177 473.059 589.348 447.753 589.348C422.448 589.348 422.967 607.721 422.967 607.721H476.632Z" fill="#5070F0"/>
<path d="M422.651 591.693C422.651 591.693 428.148 591.265 430.163 590.044C432.179 588.822 444.221 580.729 447.051 582.022C449.881 583.325 468.712 589.097 468.061 591.845C467.41 594.604 465.669 594.329 464.335 593.851C463.012 593.362 449.331 590.491 448.13 590.98C448.13 590.98 461.567 595.886 461.618 599.459C461.668 603.043 458.808 603.908 457.536 605.262C456.263 606.615 454.736 609.975 451.275 610.229C447.814 610.494 430.917 604.61 427.445 604.345C423.974 604.071 417.531 604.559 417.093 603.989C416.655 603.429 422.661 591.703 422.661 591.703L422.651 591.693Z" fill="#DBA585"/>
<path d="M322.59 499.576C305.061 496.492 286.616 492.074 286.616 492.074L253.981 490.74C253.981 490.74 224.024 497.337 212.236 502.66C211.116 503.169 211.106 529.381 208.042 536.262L217.824 556.896C217.824 556.896 223.474 597.766 224.644 615.946C225.184 624.293 223.128 696.597 223.128 696.597C223.128 696.597 226.059 698.043 248.332 700.496C270.604 702.959 326.265 699.61 326.611 696.984C326.967 694.347 315.831 599.018 315.342 594.081C314.589 586.507 317.531 551.491 317.531 551.491C321.725 557.13 332.423 582.588 343.58 594.702C350.135 601.827 382.628 606.194 388.746 606.398C402.07 606.846 426.389 609.503 427.101 608.2C427.671 607.416 429.219 586.609 427.692 586.111C426.358 585.663 381.213 583.067 369.639 576.929C365.404 574.679 352.762 547.103 352.762 547.103C352.762 547.103 332.271 503.923 322.6 499.576H322.59Z" fill="#17A9E1"/>
<path d="M206.585 563.676H255.171C267.834 563.676 278.115 573.957 278.115 586.62V671.587C278.115 684.24 267.834 694.521 255.181 694.521H206.575C193.912 694.521 183.641 684.24 183.641 671.587V586.62C183.641 573.957 193.922 563.676 206.585 563.676Z" fill="#DCD0C8"/>
<path d="M261.382 724.903C247.456 724.903 236.157 720.231 227.8 710.998C208.917 690.151 212.307 653.495 212.46 651.948C212.745 649.057 215.32 646.939 218.211 647.235C221.102 647.53 223.209 650.095 222.924 652.986C222.883 653.403 219.87 686.629 235.608 703.964C241.97 710.978 250.398 714.388 261.382 714.388C264.283 714.388 266.634 716.739 266.634 719.64C266.634 722.541 264.283 724.903 261.382 724.903Z" fill="#DCD0C8"/>
<path d="M356.231 444.232H407.525C408.471 444.232 409.235 444.996 409.235 445.943V448.487C409.235 449.434 408.471 450.198 407.525 450.198H356.221C355.274 450.198 354.511 449.434 354.511 448.487V445.943C354.511 444.996 355.274 444.232 356.221 444.232H356.231Z" fill="#90C1FC"/>
<path d="M356.22 457.021H407.524C408.471 457.021 409.234 457.785 409.234 458.732V461.277C409.234 462.223 408.471 462.987 407.524 462.987H356.22C355.273 462.987 354.51 462.223 354.51 461.277V458.721C354.51 457.785 355.273 457.021 356.21 457.021H356.22Z" fill="#90C1FC"/>
<path d="M360.263 471.691H403.494C406.67 471.691 409.246 474.267 409.246 477.443V533.368C409.246 536.534 406.67 539.109 403.504 539.109H360.273C357.097 539.109 354.521 536.534 354.521 533.358V477.433C354.521 474.267 357.097 471.691 360.263 471.691Z" fill="#90C1FC"/>
<path d="M429.37 444.232H508.627C513.645 444.232 517.717 448.304 517.717 453.323V530.004C517.717 535.022 513.645 539.094 508.627 539.094H429.37C424.352 539.094 420.28 535.022 420.28 530.004V453.323C420.28 448.304 424.352 444.232 429.37 444.232Z" fill="#90C1FC"/>
<path d="M173.271 49.0339C173.271 48.0464 173.271 47.5527 173.466 47.1769C173.63 46.8602 173.888 46.6019 174.205 46.4374C174.581 46.2422 175.075 46.2422 176.062 46.2422H1020.18C1021.17 46.2422 1021.66 46.2422 1022.04 46.4374C1022.35 46.6019 1022.61 46.8602 1022.78 47.1769C1022.97 47.5527 1022.97 48.0464 1022.97 49.0339V78.6736H173.271V49.0339Z" fill="#17A9E1"/>
<path d="M206.795 60.8363C206.795 64.1168 204.124 66.7877 200.843 66.7877C197.563 66.7877 194.892 64.1168 194.892 60.8363C194.892 57.5557 197.563 54.8848 200.843 54.8848C204.124 54.8848 206.795 57.5557 206.795 60.8363Z" fill="#E00E0E"/>
<path d="M231.094 60.8363C231.094 64.1168 228.423 66.7877 225.143 66.7877C221.862 66.7877 219.191 64.1168 219.191 60.8363C219.191 57.5557 221.862 54.8848 225.143 54.8848C228.423 54.8848 231.094 57.5557 231.094 60.8363Z" fill="#0DB632"/>
<path d="M255.422 60.8363C255.422 64.1168 252.751 66.7877 249.47 66.7877C246.189 66.7877 243.519 64.1168 243.519 60.8363C243.519 57.5557 246.189 54.8848 249.47 54.8848C252.751 54.8848 255.422 57.5557 255.422 60.8363Z" fill="#FFC727"/>
<defs>
<linearGradient id="paint0_linear_306_4391" x1="827.394" y1="180.913" x2="855.242" y2="180.913" gradientUnits="userSpaceOnUse">
<stop stop-color="#D3D8DE"/>
<stop offset="1" stop-color="white"/>
</linearGradient>
<linearGradient id="paint1_linear_306_4391" x1="378.312" y1="266.326" x2="483.933" y2="266.326" gradientUnits="userSpaceOnUse">
<stop stop-color="#D3D8DE"/>
<stop offset="1" stop-color="white"/>
</linearGradient>
<linearGradient id="paint2_linear_306_4391" x1="425.767" y1="520.495" x2="460.26" y2="526.728" gradientUnits="userSpaceOnUse">
<stop stop-color="#D8E9FF"/>
<stop offset="1" stop-color="#A7C8FF"/>
</linearGradient>
<linearGradient id="paint3_linear_306_4391" x1="357.775" y1="396.092" x2="549.366" y2="545.147" gradientUnits="userSpaceOnUse">
<stop stop-color="#D8E9FF"/>
<stop offset="1" stop-color="#A7C8FF"/>
</linearGradient>
<linearGradient id="paint4_linear_306_4391" x1="506.922" y1="554.62" x2="514.867" y2="564.919" gradientUnits="userSpaceOnUse">
<stop stop-color="#A7C8FF"/>
<stop offset="1" stop-color="#D8E9FF"/>
</linearGradient>
</defs>
</svg>
