<svg width="1200" height="1200" viewBox="0 0 1200 1200" fill="none" xmlns="http://www.w3.org/2000/svg">
<rect width="1200" height="1200" fill="white"/>
<path d="M983.093 756.708C982.632 758.394 982.171 760.064 981.709 761.702C972.261 758.314 962.32 753.988 952.156 748.484C905.282 723.019 845.604 666.315 827.519 540.612C819.725 486.421 829.666 434.806 857.103 387.137C858.694 388.012 860.285 388.902 861.812 389.825C837.73 431.625 824.21 481.601 832.593 539.864C850.375 663.341 908.606 718.947 954.351 743.84C964.181 749.2 973.868 753.415 983.093 756.692V756.708Z" fill="white"/>
<path d="M990.743 719.462C990.489 721.228 990.202 722.994 989.9 724.711C960.299 710.81 922.968 680.557 905.552 614.882C888.723 551.29 895.435 494.841 926.165 443.863C927.374 445.247 928.52 446.662 929.681 448.094C900.462 497.481 894.227 552.102 910.53 613.578C927.183 676.405 962.447 705.752 990.743 719.462Z" fill="white"/>
<path d="M711.294 461.348C713.775 544.79 704.279 598.711 680.484 636.201C655.56 675.488 613.998 699.235 545.683 713.185C532.958 715.793 520.376 717.097 508.033 717.097C469.589 717.097 433.372 704.58 401.64 680.085C364.738 651.581 336.474 608.652 320.266 558.405C321.856 557.737 323.415 557.101 325.037 556.481C340.911 605.884 368.603 648.098 404.789 676.045C445.46 707.474 493.846 718.561 544.665 708.19C671.704 682.2 710.944 622.235 706.172 461.491C704.82 415.858 712.773 379.831 729.856 354C731.876 354 733.928 354.048 735.995 354.095C718.213 379.195 709.926 415.158 711.278 461.332L711.294 461.348Z" fill="white"/>
<path d="M552.778 634.02C547.498 634.895 542.042 635.356 536.491 635.356C495.533 635.356 448.643 610.543 425.818 540.494C427.616 540.462 429.397 540.446 431.195 540.446C456.342 615.649 510.262 635.833 551.935 628.994C608.226 619.768 662.369 561.807 651.903 472.56C647.402 434.275 647.195 401.588 649.597 373.944C651.41 372.799 653.303 371.686 655.228 370.636C652.428 398.789 652.333 432.334 656.993 471.956C667.825 564.368 611.375 624.429 552.778 634.036V634.02Z" fill="white"/>
<path d="M586.894 539.458C584.922 548.445 581.47 557.623 575.553 565.321C567.696 575.612 556.657 581.72 542.74 583.422C541.07 583.629 539.431 583.724 537.825 583.724C529.188 583.724 521.283 580.782 514.268 574.88C504.995 567.087 498.235 554.998 493.32 541.924C495.213 542.019 497.09 542.099 498.951 542.178C503.516 553.758 509.56 564.224 517.577 570.968C524.75 576.98 533.021 579.477 542.119 578.348C554.621 576.805 564.483 571.381 571.497 562.235C576.364 555.889 579.434 548.27 581.311 540.667H581.343C583.283 540.301 585.129 539.904 586.926 539.442L586.894 539.458Z" fill="white"/>
<path d="M388.009 829.264H382.426C359.458 776.664 326.342 741.592 283.874 724.97C268.461 718.926 252.81 715.777 237.667 714.568C237.381 712.85 237.127 711.132 236.92 709.398C252.873 710.544 269.415 713.836 285.735 720.214C330.064 737.583 364.437 774.199 388.009 829.28V829.264Z" fill="white"/>
<path d="M277.145 670.72L261.319 687.039L254.718 677.337L252.523 674.076C245.477 675.842 235.074 662.067 230.907 654.719C226.756 647.338 243.409 635.966 243.409 635.966C240.689 627.822 229.778 622.7 229.475 620.442C229.173 618.215 231.877 615.813 241.802 620.442C251.744 625.102 260.364 641.565 260.364 641.565C262.13 636.777 254.288 623.814 255.736 622.35C257.167 620.919 264.85 622.684 270.767 635.155C276.716 647.657 273.169 662.385 273.169 662.385L273.248 662.513L277.161 670.704L277.145 670.72Z" fill="#98B2D8"/>
<path d="M242.805 634.535C242.805 634.535 254.559 647.991 253.303 653.272C252.046 658.552 246.113 652.429 246.113 652.429C246.113 652.429 251.553 658.711 249.788 660.795C248.022 662.879 241.469 657.598 241.469 657.598C241.469 657.598 249.311 667.364 241.469 665.917C233.627 664.469 223.766 649.677 231.337 648.198C231.337 648.198 230.414 637.429 237.302 641.104C237.302 641.104 234.216 632.133 242.805 634.535Z" fill="#B1C3E8"/>
<path d="M385.701 829.36C385.701 829.36 398.934 790.677 391.983 752.551C391.983 752.551 391.952 752.471 391.936 752.296C391.936 752.217 391.904 752.121 391.888 751.994C391.681 750.992 391.474 749.99 391.268 749.004C391.268 749.004 383.585 755.716 372.976 762.381C360.251 770.397 343.264 778.366 330.221 774.628C306.299 767.789 271.306 721.28 255.066 684.554C255.066 684.554 263.178 672.386 279.402 668.648C279.402 668.648 311.85 711.88 340.465 722.123C340.465 722.123 355.83 703.752 367.775 676.871C375.41 659.709 386.862 648.845 401.304 643.008C409.496 639.652 418.673 637.934 428.63 637.631L453.698 625.925C453.698 625.925 457.77 625.957 464.1 626.768C475.855 628.311 495.403 632.605 511.197 644.646C535.533 663.192 570.542 829.392 570.542 829.392H385.701V829.36Z" fill="#B7CAE5"/>
<path d="M391.936 752.307C391.73 751.209 391.507 750.112 391.268 748.998C391.268 748.998 383.586 755.711 372.977 762.375L380.373 699.054C387.896 728.05 391.507 749.714 391.92 752.307H391.936Z" fill="#97B3D1"/>
<path d="M464.103 626.743C460.238 651.334 435.615 674.047 417.849 673.745C403.549 673.49 401.45 653.004 401.307 642.983C409.498 639.627 418.676 637.909 428.633 637.607L453.7 625.9C453.7 625.9 457.772 625.932 464.103 626.743Z" fill="#CED9EA"/>
<path d="M421.553 804.229C421.553 804.229 478.018 745.457 480.484 683.679L497.137 735.755L490.727 789.978L421.553 804.229Z" fill="#97B3D1"/>
<path d="M419.915 829.348H356.689C356.689 829.348 356.848 820.711 366.615 817.816C376.381 814.937 382.616 802.769 411.914 804.375L419.915 829.348Z" fill="#98B2D8"/>
<path d="M484.605 771.24C484.605 771.24 454.814 788.371 407.908 800.539C407.908 800.539 401.402 816.222 412.822 829.36H503.581L484.621 771.256L484.605 771.24Z" fill="#B6C5DD"/>
<path d="M373.694 591.65C373.694 591.65 360.206 573.041 361.876 560.507C363.546 547.973 375.141 550.916 375.141 550.916C375.141 550.916 374.6 520.456 402.785 528.25C402.785 528.25 402.165 518.945 408.321 519.199C414.476 519.438 424.131 533.594 424.131 533.594C424.131 533.594 426.533 523.112 430.7 525.578C434.867 528.059 436.156 538.875 444.856 544.092C453.557 549.309 458.949 556.053 452.109 577.176C445.27 598.299 450.407 599.794 447.958 610.642C445.636 620.949 443.79 627.216 437.396 627.788C431.002 628.361 406.523 602.546 406.523 602.546L373.71 591.65H373.694Z" fill="#5D7CA0"/>
<path d="M453.716 625.896C453.716 625.896 438.017 663.974 421.523 661.111C413.331 659.68 411.502 654.685 411.438 648.895C411.359 641.34 414.301 632.481 409.848 628.759L429.619 600.669L433.977 594.466C433.977 594.466 439.305 609.879 453.732 625.896H453.716Z" fill="#98B2D8"/>
<path d="M411.421 648.898C411.341 641.343 414.284 632.483 409.83 628.762L429.601 600.672C431.287 602.644 432.496 606.159 432.989 611.663C435.597 640.675 420.264 647.419 411.421 648.898Z" fill="#799CBF"/>
<path d="M371.77 576.839C371.77 576.839 377.114 625.892 397.139 636.947C414.54 646.538 435.663 617.51 435.25 603.163C435.25 603.163 442.837 597.373 441.564 588.005C440.292 578.636 430.382 581.738 429.205 596.848C429.205 596.848 421.141 596.276 419.662 577.396C414.604 581.579 409.148 580.29 403.406 575.201C403.406 575.201 400.559 585.714 385.91 573.435C385.91 573.435 380.39 580.943 371.785 576.871L371.77 576.839Z" fill="#98B2D8"/>
<path d="M843.962 766.907C843.962 766.907 869.809 810.028 878.748 830.944H787.624C787.624 830.944 782.439 805.749 773.309 781.525L843.962 766.907Z" fill="#5D7CA0"/>
<path d="M808.429 776.518C803.434 793.044 795.831 807.153 784.554 817.857L787.64 830.932L677.381 829.564L689.66 754.091L808.445 776.502L808.429 776.518Z" fill="#799CBF"/>
<path d="M981.407 541.226C981.407 541.226 985.049 518.369 992.318 510.257C999.571 502.146 1019.42 490.153 1021.78 494.415C1024.13 498.678 1004.28 512.071 1004.28 512.071C1004.28 512.071 1013.25 509.939 1020.93 523.173C1028.61 536.407 1003.85 546.65 1003.85 546.65L998.935 557.752L979.291 545.377L981.407 541.242V541.226Z" fill="#799CBF"/>
<path d="M1006.79 512.501C1006.79 512.501 995.718 523.747 997.34 526.96C998.962 530.173 1005.05 525.131 1005.05 525.131C1005.05 525.131 1000.08 532.702 1003.94 534.658C1007.81 536.614 1013.77 530.061 1013.77 530.061C1013.77 530.061 1008.79 536.949 1011.66 538.221C1014.52 539.478 1029.82 528.693 1027.08 526.164C1024.35 523.635 1022.85 525.703 1022.85 525.703C1022.85 525.703 1026.05 520.311 1022.85 518.577C1019.37 516.7 1017.62 520.072 1017.62 520.072C1017.62 520.072 1020.23 515.937 1018.11 514.33C1016 512.724 1011.51 514.792 1011.51 514.792C1011.51 514.792 1012.98 507.905 1006.77 512.501H1006.79Z" fill="#98B2D8"/>
<path d="M996.515 512.234C993.159 511.279 986.32 518.262 986.32 518.262C983.632 521.714 983.091 528.601 982.98 531.782C982.63 540.657 979.273 545.365 979.273 545.365L989.246 551.648C996.961 541.707 994.432 528.982 993.191 524.465C996.945 518.85 998.519 512.79 996.515 512.218V512.234Z" fill="#98B2D8"/>
<path d="M1002.97 560.088C1002.97 560.088 969.682 648.763 916.763 656.62C893.095 660.135 875.217 660.485 862.715 659.817C847.811 659.054 840.479 656.795 839.938 656.636C839.906 656.636 839.906 656.604 839.906 656.604C839.906 656.604 825.384 683.644 834.785 722.502C844.153 761.328 847.589 769.456 847.589 769.456C847.589 769.456 776.251 821.913 718.243 774.148L665.897 692.758L649.498 667.245C649.498 667.245 664.561 617.794 707.029 585.648L707.061 585.617C723.062 573.48 742.992 563.794 767.455 560.215C780.005 558.322 793.732 558.036 808.747 559.833C808.747 559.833 820.279 563.094 839.016 569.949C849.1 573.639 861.3 578.379 874.899 584.217C913.757 600.87 924.43 605.833 924.43 605.833C924.43 605.833 965.816 565.003 976.505 540.237C976.505 540.237 997.835 542.385 1002.96 560.088H1002.97Z" fill="#B7CAE5"/>
<path d="M735.835 600.59C735.644 620.456 731.397 639.718 729.52 654.67L762.429 648.005L813.63 698.618C813.63 698.618 820.119 713.442 806.918 716.003C796.563 718.007 748.209 724.735 748.209 724.735C737.059 739.909 732.033 763.1 726.466 785.622L677.381 700.319L735.835 600.574V600.59Z" fill="#97B3D1"/>
<path d="M808.746 605.359C785.826 599.538 773.754 578.924 767.455 560.234C780.005 558.342 793.731 558.055 808.746 559.853C808.746 559.853 820.278 563.113 839.015 569.969C841.21 586.336 840.431 613.376 808.746 605.359Z" fill="#CED9EA"/>
<path d="M868.936 623.493C868.936 623.493 864.021 642.755 862.717 659.838C847.813 659.075 840.481 656.816 839.94 656.657C839.908 656.657 839.908 656.625 839.908 656.625C839.908 656.625 852.919 634.373 868.92 623.478L868.936 623.493Z" fill="#97B3D1"/>
<path d="M798.207 613.888L741.036 622.187C739.341 622.433 738.166 624.007 738.412 625.702L751.044 712.717C751.291 714.413 752.864 715.587 754.56 715.341L811.73 707.042C813.425 706.796 814.6 705.222 814.354 703.527L801.722 616.512C801.476 614.816 799.902 613.642 798.207 613.888Z" fill="#F2F4F9"/>
<path d="M770.11 651.657L778.858 648.237C778.858 648.237 787.177 625.19 797.531 639.696C797.531 639.696 804.689 635.433 804.466 633.079C804.243 630.725 804.148 627.321 804.148 627.321C804.148 627.321 818.638 630.455 815.393 650.655C812.149 670.855 799.774 668.295 787.606 668.517L772.448 674.498L770.094 651.657H770.11Z" fill="#98B2D8"/>
<path d="M775.756 679.826C775.756 679.826 707.568 724.951 678.126 703.192C673.641 699.867 669.569 696.352 665.911 692.773L649.512 667.261C649.512 667.261 664.574 617.809 707.043 585.664L707.075 585.632C721.151 579.302 735.864 581.608 736.612 594.651C738.409 625.715 711.847 644.818 708.554 658.91L769.664 646.535C769.664 646.535 779.605 657.081 775.756 679.826Z" fill="#C1CFE5"/>
<path d="M855.91 512.578C855.91 512.578 865.66 491.757 861.668 479.764C857.675 467.771 846.843 472.845 846.843 472.845C846.843 472.845 841.642 442.831 815.429 455.778C815.429 455.778 814.284 446.537 808.288 447.921C802.291 449.32 795.468 465.035 795.468 465.035C795.468 465.035 791.141 455.189 787.515 458.402C783.888 461.615 784.652 472.495 777.081 479.255C769.509 486.015 765.485 493.65 776.174 513.118C786.863 532.587 782.107 535.021 786.544 545.216C790.76 554.903 793.75 560.708 800.144 560.072C806.538 559.436 825.72 529.47 825.72 529.47L855.91 512.593V512.578Z" fill="#5D7CA0"/>
<path d="M783.744 561.265C783.744 561.265 798.823 598.405 822.507 592.329C830.571 590.261 830.619 581.609 829.601 575.899C828.249 568.471 823.699 560.311 827.374 555.825L802.672 531.951L797.232 526.686C797.232 526.686 794.894 542.83 783.744 561.265Z" fill="#98B2D8"/>
<path d="M829.599 575.897C828.247 568.469 823.698 560.31 827.372 555.824L802.671 531.95C801.382 534.208 800.857 537.883 801.414 543.37C804.309 572.366 820.644 576.088 829.599 575.897Z" fill="#799CBF"/>
<path d="M855.002 497.668C855.002 497.668 858.978 546.865 841.386 561.466C826.101 574.159 799.888 549.632 797.614 535.444C797.614 535.444 789.072 531.181 788.563 521.733C788.054 512.285 798.361 513.478 802.369 528.096C802.369 528.096 810.179 526.012 808.095 507.195C813.853 510.361 818.975 508.07 823.651 501.978C823.651 501.978 828.423 511.76 840.496 496.952C840.496 496.952 847.335 503.283 855.017 497.668H855.002Z" fill="#98B2D8"/>
<path d="M729.934 802.163V802.195C729.187 805.217 728.137 807.984 726.785 810.466C714.41 833.084 660.839 829.362 660.839 829.362H538.54C487.928 829.362 467.648 828.105 462.796 812.311C462.51 811.468 462.303 810.577 462.128 809.623C458.693 791.251 475.776 731.509 507.364 690.52C523.525 669.572 540.226 658.533 555.114 652.76C569.333 647.256 581.883 646.541 590.695 646.541C606.219 646.541 618.737 647.686 629.362 650.183C657.897 656.863 672.832 673.008 695.212 701.606C722.586 736.567 736.058 777.62 729.95 802.163H729.934Z" fill="url(#paint0_linear_77_4810)"/>
<g style="mix-blend-mode:multiply" opacity="0.22">
<path d="M514.842 787.655C528.107 766.786 532.29 737.822 535.981 708.444L547.512 768.202H647.401L665.756 708.444C665.326 736.374 669.16 763.764 682.409 789.977C682.409 789.977 617.1 863.891 514.858 787.655H514.842Z" fill="#1F395E"/>
</g>
<path d="M545.171 829.359H538.538C487.926 829.359 467.646 828.103 462.795 812.308C460.155 799.886 463.511 786.827 478.653 782.93C502.369 776.838 543.66 800.856 543.66 800.856L545.171 829.359Z" fill="url(#paint1_linear_77_4810)"/>
<path d="M729.937 802.164C729.937 802.164 729.969 802.164 729.937 802.196C729.189 805.218 728.139 807.986 726.787 810.467C714.413 833.085 660.842 829.363 660.842 829.363H624.545L629.158 798.633C629.158 798.633 693.497 768.842 716.544 778.147C727.821 782.68 731.273 792.112 729.937 802.164Z" fill="url(#paint2_linear_77_4810)"/>
<path d="M629.362 650.18C628.28 664.543 622.347 690.724 593.399 690.724C562.891 690.724 556.433 664.924 555.113 652.772C569.333 647.269 581.883 646.553 590.695 646.553C606.219 646.553 618.736 647.698 629.362 650.196V650.18Z" fill="#1F395E"/>
<path d="M655.714 829.348H538.536C535.704 829.348 533.414 827.058 533.414 824.227C533.414 821.395 535.704 819.105 538.536 819.105H655.714C658.545 819.105 660.835 821.395 660.835 824.227C660.835 827.058 658.545 829.348 655.714 829.348Z" fill="white"/>
<path d="M669.902 741.26L669.472 743.916V743.948L657.336 819.118H537.9L525.891 741.212C525.302 737.394 528.277 733.943 532.11 733.943H663.683C667.58 733.943 670.522 737.426 669.902 741.275V741.26Z" fill="#17A9E1"/>
<path d="M669.456 743.944L657.32 819.115H538.535L578.793 814.915C620.132 810.637 655.347 783.024 669.456 743.944Z" fill="#29B7EE"/>
<path d="M592.907 679.838H592.112C587.499 679.838 583.682 678.883 580.58 677.5C573.057 674.112 568.492 666.254 568.667 658.015C568.699 657.172 568.699 656.345 568.699 655.534C568.731 648.694 568.285 643.016 568.285 643.016V639.946L611.31 638.021C611.469 644.225 612.185 649.728 613.028 654.134C613.06 654.214 613.06 654.261 613.076 654.341C615.541 667.272 606.061 679.52 592.891 679.854L592.907 679.838Z" fill="#FEB19E"/>
<path d="M613.046 654.131C595.12 675.19 576.701 662.895 568.716 655.546C568.748 648.707 568.303 643.029 568.303 643.029V639.959L611.328 638.034C611.487 644.237 612.203 649.741 613.046 654.147V654.131Z" fill="#FF856A"/>
<path d="M555.131 619.026C555.131 619.026 568.476 656.628 590.728 656.628C612.981 656.628 622.238 616.131 622.238 616.131V580.916H553.445L555.147 619.026H555.131Z" fill="#FEB19E"/>
<path d="M547.973 597.809C547.973 597.809 541.42 599.002 542.534 606.525C543.647 614.049 550.486 623.179 556.038 618.375L547.973 597.809Z" fill="#FEB19E"/>
<path d="M627.422 594.663C627.422 594.663 634.071 594.965 633.991 602.568C633.911 610.171 628.376 620.144 622.221 616.135L627.422 594.663Z" fill="#FEB19E"/>
<path d="M627.422 594.662C627.422 594.662 625.116 607.816 622.221 616.135C622.221 616.135 616.956 615.069 615.238 601.199C615.238 601.199 603.85 603.426 596.692 592.658C596.692 592.658 594.99 603.331 583.999 595.76C576.667 601.74 567.998 602.376 558.168 598.32C558.168 598.32 559.822 612.318 555.13 619.03C555.13 619.03 553.428 613.495 547.973 597.811C547.973 597.811 545.634 597.891 544.139 600.022C544.139 600.022 532.353 576.959 537.904 565.873C543.455 554.786 550.931 559.049 550.931 559.049C550.931 559.049 548.163 543.891 564.594 538.34C581.025 532.789 581.025 525.313 583.586 526.808C586.147 528.303 587.212 533.854 587.212 533.854C587.212 533.854 615.604 530.864 623.287 561.387C623.287 561.387 643.789 562.039 631.621 596.412C631.621 596.412 630.826 594.98 627.438 594.662H627.422Z" fill="url(#paint3_linear_77_4810)"/>
<path d="M484.978 702.675L484.756 702.478H484.459H410.465C407.414 702.478 404.934 699.997 404.934 696.947V632.926C404.934 629.875 407.414 627.395 410.465 627.395H517.734C520.784 627.395 523.265 629.875 523.265 632.926V696.947C523.265 699.997 520.784 702.478 517.734 702.478H501.589H500.489L500.849 703.518L506.066 718.579C506.435 719.652 505.14 720.537 504.271 719.772C504.271 719.772 504.27 719.772 504.27 719.772L484.978 702.675Z" fill="white" stroke="#E4E4E4" stroke-width="1.56687"/>
<path d="M443.742 643.743H419.024C418.101 643.743 417.338 642.995 417.338 642.057C417.338 641.134 418.085 640.371 419.024 640.371H443.742C444.664 640.371 445.428 641.118 445.428 642.057C445.428 642.995 444.68 643.743 443.742 643.743Z" fill="#17A9E1"/>
<path d="M504.675 658.347H433.067C432.144 658.347 431.381 657.599 431.381 656.661C431.381 655.738 432.128 654.975 433.067 654.975H504.675C505.597 654.975 506.361 655.722 506.361 656.661C506.361 657.599 505.613 658.347 504.675 658.347Z" fill="#17A9E1"/>
<path d="M504.677 668.751H419.024C418.101 668.751 417.338 668.004 417.338 667.065C417.338 666.127 418.085 665.379 419.024 665.379H504.677C505.599 665.379 506.363 666.127 506.363 667.065C506.363 667.988 505.615 668.751 504.677 668.751Z" fill="#17A9E1"/>
<path d="M504.677 679.132H419.024C418.101 679.132 417.338 678.385 417.338 677.446C417.338 676.524 418.085 675.76 419.024 675.76H504.677C505.599 675.76 506.363 676.508 506.363 677.446C506.363 678.385 505.615 679.132 504.677 679.132Z" fill="#17A9E1"/>
<path d="M504.677 689.525H419.024C418.101 689.525 417.338 688.777 417.338 687.839C417.338 686.9 418.085 686.153 419.024 686.153H504.677C505.599 686.153 506.363 686.9 506.363 687.839C506.363 688.761 505.615 689.525 504.677 689.525Z" fill="#17A9E1"/>
<path d="M993.3 829.351H214.696C213.158 829.351 211.912 830.597 211.912 832.134V843.22C211.912 844.758 213.158 846.004 214.696 846.004H993.3C994.837 846.004 996.083 844.758 996.083 843.22V832.134C996.083 830.597 994.837 829.351 993.3 829.351Z" fill="#17A9E1"/>
<path d="M800.682 788.293H833.973V817.115C833.973 823.827 828.517 829.283 821.805 829.283H812.834C806.122 829.283 800.666 823.827 800.666 817.115V788.293H800.682Z" fill="url(#paint4_linear_77_4810)"/>
<path d="M811.242 788.292V779.401C811.242 777.938 812.419 776.76 813.882 776.76H817.238C818.702 776.76 819.879 775.583 819.879 774.12V770.764C819.879 769.301 818.702 768.124 817.238 768.124H806.438C799.01 768.124 792.998 762.111 792.998 754.683C792.998 747.255 799.01 741.243 806.438 741.243H820.77C822.233 741.243 823.41 740.066 823.41 738.602V737.41C823.41 729.711 829.645 723.476 837.343 723.476C845.042 723.476 851.277 729.711 851.277 737.41C851.277 745.712 844.533 752.456 836.23 752.456H811.019C809.556 752.456 808.379 753.633 808.379 755.097C808.379 756.56 809.556 757.737 811.019 757.737H824.794C829.884 757.737 834.003 761.857 834.003 766.947V772.704C834.003 777.794 829.884 781.914 824.794 781.914C823.33 781.914 822.153 783.091 822.153 784.554V788.324H811.274L811.242 788.292Z" fill="url(#paint5_linear_77_4810)"/>
<path d="M699.871 619.315H787.289C790.212 619.315 792.582 621.685 792.582 624.608V735.073C792.582 737.996 790.212 740.366 787.289 740.366H699.871C696.948 740.366 694.578 737.996 694.578 735.073V624.608C694.578 621.685 696.948 619.315 699.871 619.315Z" fill="white" stroke="#E4E4E4" stroke-width="1.56687"/>
<g style="mix-blend-mode:multiply">
<path d="M728.519 657.213H709.098V633.943H728.519V657.213ZM711.659 654.652H725.958V636.504H711.659V654.652Z" fill="#17A9E1"/>
<path d="M723.268 650.546L717.494 644.104L719.403 642.386L722.902 646.299C724.684 643.961 729.026 639.269 737.281 635.865L738.251 638.235C727.96 642.466 724.19 648.923 724.159 648.987L723.284 650.53L723.268 650.546Z" fill="#F89939"/>
<path d="M777.7 643.22H747.575C746.525 643.22 745.666 642.361 745.666 641.311C745.666 640.261 746.525 639.402 747.575 639.402H777.7C778.75 639.402 779.609 640.261 779.609 641.311C779.609 642.361 778.75 643.22 777.7 643.22Z" fill="#1BB9F5"/>
<path d="M777.7 652.437H747.575C746.525 652.437 745.666 651.579 745.666 650.529C745.666 649.479 746.525 648.62 747.575 648.62H777.7C778.75 648.62 779.609 649.479 779.609 650.529C779.609 651.579 778.75 652.437 777.7 652.437Z" fill="#1BB9F5"/>
</g>
<g style="mix-blend-mode:multiply">
<path d="M728.151 693.399H708.73V670.128H728.151V693.399ZM711.291 690.838H725.591V672.689H711.291V690.838Z" fill="#17A9E1"/>
<path d="M723.27 686.193L717.496 679.751L719.405 678.033L722.904 681.946C724.686 679.608 729.028 674.916 737.283 671.512L738.253 673.882C727.962 678.113 724.192 684.57 724.161 684.634L723.286 686.177L723.27 686.193Z" fill="#F89939"/>
<path d="M777.7 678.854H747.575C746.525 678.854 745.666 677.996 745.666 676.946C745.666 675.896 746.525 675.037 747.575 675.037H777.7C778.75 675.037 779.609 675.896 779.609 676.946C779.609 677.996 778.75 678.854 777.7 678.854Z" fill="#1BB9F5"/>
<path d="M777.7 688.084H747.575C746.525 688.084 745.666 687.226 745.666 686.176C745.666 685.126 746.525 684.267 747.575 684.267H777.7C778.75 684.267 779.609 685.126 779.609 686.176C779.609 687.226 778.75 688.084 777.7 688.084Z" fill="#1BB9F5"/>
</g>
<g style="mix-blend-mode:multiply">
<path d="M728.151 729.046H708.73V705.775H728.151V729.046ZM711.291 726.485H725.591V708.336H711.291V726.485Z" fill="#17A9E1"/>
<path d="M723.27 721.84L717.496 715.398L719.405 713.68L722.904 717.593C724.686 715.255 729.028 710.563 737.283 707.159L738.253 709.529C727.962 713.76 724.192 720.217 724.161 720.281L723.286 721.824L723.27 721.84Z" fill="#F89939"/>
<path d="M777.7 714.489H747.575C746.525 714.489 745.666 713.63 745.666 712.581C745.666 711.531 746.525 710.672 747.575 710.672H777.7C778.75 710.672 779.609 711.531 779.609 712.581C779.609 713.63 778.75 714.489 777.7 714.489Z" fill="#1BB9F5"/>
<path d="M777.7 723.731H747.575C746.525 723.731 745.666 722.873 745.666 721.823C745.666 720.773 746.525 719.914 747.575 719.914H777.7C778.75 719.914 779.609 720.773 779.609 721.823C779.609 722.873 778.75 723.731 777.7 723.731Z" fill="#1BB9F5"/>
</g>
<path d="M1006.92 450.399H1094.34C1097.26 450.399 1099.63 452.769 1099.63 455.692V566.157C1099.63 569.08 1097.26 571.45 1094.34 571.45H1006.92C1003.99 571.45 1001.63 569.08 1001.63 566.157V455.692C1001.63 452.769 1003.99 450.399 1006.92 450.399Z" fill="white" stroke="#E4E4E4" stroke-width="1.56687"/>
<g style="mix-blend-mode:multiply" opacity="0.5">
<path d="M1043.07 485.946C1045.03 477.689 1039.93 469.408 1031.67 467.451C1023.41 465.493 1015.13 470.599 1013.17 478.856C1011.22 487.113 1016.32 495.393 1024.58 497.351C1032.84 499.309 1041.12 494.203 1043.07 485.946Z" fill="url(#paint6_linear_77_4810)"/>
<path d="M1032.16 480.358L1042.4 462.114C1051.78 464.468 1056.27 473.311 1051.78 482.394L1032.14 480.374L1032.16 480.358Z" fill="#F89939"/>
<path d="M1022.55 514.401C1022.55 516.882 1020.55 518.886 1018.07 518.886C1015.58 518.886 1013.58 516.882 1013.58 514.401C1013.58 511.92 1015.58 509.916 1018.07 509.916C1020.55 509.916 1022.55 511.92 1022.55 514.401Z" fill="#F89939"/>
<path d="M1022.55 534.256C1022.55 536.738 1020.55 538.742 1018.07 538.742C1015.58 538.742 1013.58 536.738 1013.58 534.256C1013.58 531.775 1015.58 529.771 1018.07 529.771C1020.55 529.771 1022.55 531.775 1022.55 534.256Z" fill="#F89939"/>
<path d="M1081.04 518.886H1045.19C1042.71 518.886 1040.7 516.882 1040.7 514.401C1040.7 511.92 1042.71 509.916 1045.19 509.916H1081.04C1083.52 509.916 1085.52 511.92 1085.52 514.401C1085.52 516.882 1083.52 518.886 1081.04 518.886Z" fill="#1BB9F5"/>
<path d="M1081.04 538.742H1045.19C1042.71 538.742 1040.7 536.738 1040.7 534.256C1040.7 531.775 1042.71 529.771 1045.19 529.771H1081.04C1083.52 529.771 1085.52 531.775 1085.52 534.256C1085.52 536.738 1083.52 538.742 1081.04 538.742Z" fill="#1BB9F5"/>
<path d="M1022.55 554.418C1022.55 556.899 1020.55 558.903 1018.07 558.903C1015.58 558.903 1013.58 556.899 1013.58 554.418C1013.58 551.936 1015.58 549.932 1018.07 549.932C1020.55 549.932 1022.55 551.936 1022.55 554.418Z" fill="#F89939"/>
<path d="M1081.04 558.903H1045.19C1042.71 558.903 1040.7 556.899 1040.7 554.418C1040.7 551.936 1042.71 549.932 1045.19 549.932H1081.04C1083.52 549.932 1085.52 551.936 1085.52 554.418C1085.52 556.899 1083.52 558.903 1081.04 558.903Z" fill="#1BB9F5"/>
</g>
<path d="M259.359 393.931H346.777C349.7 393.931 352.07 396.3 352.07 399.223V530.176C352.07 533.099 349.7 535.468 346.777 535.468H259.359C256.436 535.468 254.067 533.099 254.067 530.176V399.223C254.067 396.3 256.436 393.931 259.359 393.931Z" fill="white" stroke="#E4E4E4" stroke-width="1.56687"/>
<path d="M281.584 438.598L285.711 434.933L298.533 449.37C299.241 450.167 299.169 451.379 298.372 452.087L297.124 453.196C296.327 453.904 295.114 453.832 294.407 453.035L281.584 438.598Z" fill="#17A9E1"/>
<path d="M277.123 412.047C269.011 412.047 262.395 418.632 262.395 426.776C262.395 434.919 268.995 441.504 277.123 441.504C285.251 441.504 291.852 434.919 291.852 426.776C291.852 418.632 285.267 412.047 277.123 412.047ZM277.123 436.812C271.588 436.812 267.087 432.327 267.087 426.776C267.087 421.225 271.588 416.739 277.123 416.739C282.659 416.739 287.16 421.225 287.16 426.776C287.16 432.327 282.674 436.812 277.123 436.812Z" fill="#17A9E1"/>
<path d="M336.784 420.158H313.514C312.035 420.158 310.842 418.965 310.842 417.486C310.842 416.006 312.035 414.813 313.514 414.813H336.784C338.263 414.813 339.456 416.006 339.456 417.486C339.456 418.965 338.263 420.158 336.784 420.158Z" fill="#17A9E1"/>
<path d="M336.784 434.027H313.514C312.035 434.027 310.842 432.834 310.842 431.355C310.842 429.876 312.035 428.683 313.514 428.683H336.784C338.263 428.683 339.456 429.876 339.456 431.355C339.456 432.834 338.263 434.027 336.784 434.027Z" fill="#17A9E1"/>
<path d="M336.784 446.831H313.514C312.035 446.831 310.842 445.638 310.842 444.159C310.842 442.68 312.035 441.487 313.514 441.487H336.784C338.263 441.487 339.456 442.68 339.456 444.159C339.456 445.638 338.263 446.831 336.784 446.831Z" fill="#17A9E1"/>
<path d="M307.821 482.475H271.97C270.284 482.475 268.932 481.107 268.932 479.437C268.932 477.751 270.3 476.399 271.97 476.399H307.821C309.507 476.399 310.859 477.767 310.859 479.437C310.859 481.123 309.491 482.475 307.821 482.475Z" fill="#F89939"/>
<path d="M307.821 501.522H271.97C270.284 501.522 268.932 500.154 268.932 498.484C268.932 496.798 270.3 495.446 271.97 495.446H307.821C309.507 495.446 310.859 496.814 310.859 498.484C310.859 500.17 309.491 501.522 307.821 501.522Z" fill="#F89939"/>
<path d="M307.821 520.57H271.97C270.284 520.57 268.932 519.202 268.932 517.532C268.932 515.846 270.3 514.494 271.97 514.494H307.821C309.507 514.494 310.859 515.862 310.859 517.532C310.859 519.218 309.491 520.57 307.821 520.57Z" fill="#F89939"/>
<path d="M335.911 479.446C335.911 482.15 333.732 484.329 331.028 484.329C328.324 484.329 326.145 482.15 326.145 479.446C326.145 476.742 328.324 474.563 331.028 474.563C333.732 474.563 335.911 476.742 335.911 479.446Z" fill="#F89939"/>
<path d="M335.911 498.481C335.911 501.185 333.732 503.364 331.028 503.364C328.324 503.364 326.145 501.185 326.145 498.481C326.145 495.777 328.324 493.598 331.028 493.598C333.732 493.598 335.911 495.777 335.911 498.481Z" fill="#F89939"/>
<path d="M335.911 517.528C335.911 520.232 333.732 522.411 331.028 522.411C328.324 522.411 326.145 520.232 326.145 517.528C326.145 514.824 328.324 512.645 331.028 512.645C333.732 512.645 335.911 514.824 335.911 517.528Z" fill="#F89939"/>
<path d="M613.757 411.619H773.849C779.249 411.619 783.627 415.997 783.627 421.397V527.695C783.627 533.096 779.249 537.473 773.849 537.473H613.757C608.356 537.473 603.979 533.096 603.979 527.695V421.397C603.979 415.997 608.356 411.619 613.757 411.619Z" fill="white" stroke="#E4E4E4" stroke-width="1.56687"/>
<path d="M714.599 436.772H625.908C623.347 436.772 621.264 434.689 621.264 432.128C621.264 429.567 623.347 427.483 625.908 427.483H714.599C717.16 427.483 719.243 429.567 719.243 432.128C719.243 434.689 717.16 436.772 714.599 436.772Z" fill="#1BB9F5"/>
<path d="M715.968 453.092H624.558C622.748 453.092 621.281 454.559 621.281 456.368V501.684C621.281 503.494 622.748 504.961 624.558 504.961H715.968C717.778 504.961 719.245 503.494 719.245 501.684V456.368C719.245 454.559 717.778 453.092 715.968 453.092Z" fill="#17A9E1"/>
<path d="M761.667 436.772H735.406C732.845 436.772 730.762 434.689 730.762 432.128C730.762 429.567 732.845 427.483 735.406 427.483H761.667C764.227 427.483 766.311 429.567 766.311 432.128C766.311 434.689 764.227 436.772 761.667 436.772Z" fill="#1BB9F5"/>
<path d="M763.432 461.408H735.852C734.261 461.408 732.973 460.12 732.973 458.529C732.973 456.939 734.261 455.65 735.852 455.65H763.432C765.023 455.65 766.311 456.939 766.311 458.529C766.311 460.12 765.023 461.408 763.432 461.408Z" fill="#1BB9F5"/>
<path d="M763.432 474.433H735.852C734.261 474.433 732.973 473.145 732.973 471.554C732.973 469.964 734.261 468.675 735.852 468.675H763.432C765.023 468.675 766.311 469.964 766.311 471.554C766.311 473.145 765.023 474.433 763.432 474.433Z" fill="#1BB9F5"/>
<path d="M763.432 487.445H735.852C734.261 487.445 732.973 486.157 732.973 484.566C732.973 482.976 734.261 481.688 735.852 481.688H763.432C765.023 481.688 766.311 482.976 766.311 484.566C766.311 486.157 765.023 487.445 763.432 487.445Z" fill="#1BB9F5"/>
<path d="M763.432 500.47H735.852C734.261 500.47 732.973 499.181 732.973 497.591C732.973 496 734.261 494.712 735.852 494.712H763.432C765.023 494.712 766.311 496 766.311 497.591C766.311 499.181 765.023 500.47 763.432 500.47Z" fill="#1BB9F5"/>
<path d="M744.693 525.24H642.562C640.447 525.24 638.713 523.522 638.713 521.391C638.713 519.275 640.431 517.542 642.562 517.542H744.693C746.809 517.542 748.542 519.259 748.542 521.391C748.542 523.506 746.825 525.24 744.693 525.24Z" fill="#1BB9F5"/>
<path d="M108.541 560.594H260.076C264.351 560.594 267.834 564.077 267.834 568.352V660.129C267.834 664.404 264.351 667.887 260.076 667.887H108.541C104.266 667.887 100.783 664.404 100.783 660.129V568.352C100.783 564.077 104.266 560.594 108.541 560.594Z" fill="white" stroke="#E4E4E4" stroke-width="1.56687"/>
<g style="mix-blend-mode:multiply" opacity="0.5">
<path d="M160.682 610.063C156.769 614.007 151.33 616.441 145.317 616.441C133.324 616.441 123.59 606.706 123.59 594.713C123.59 582.72 133.324 572.97 145.317 572.97C147.751 572.97 150.105 573.384 152.284 574.115L145.317 594.713L160.682 610.063Z" fill="#1BB9F5"/>
<path d="M169.923 593.046C169.923 598.136 167.856 602.748 164.515 606.073L151.473 593.046L157.39 575.565C164.674 578.031 169.939 584.918 169.939 593.046H169.923Z" fill="#17A9E1"/>
<path d="M243.327 617.735H193.383V575.569C193.383 574.869 193.955 574.28 194.671 574.28C195.387 574.28 195.96 574.853 195.96 575.569V615.174H243.343C244.059 615.174 244.631 615.747 244.631 616.462C244.631 617.178 244.059 617.751 243.343 617.751L243.327 617.735Z" fill="#17A9E1"/>
<path d="M210.244 595.996H203.834V615.163H210.244V595.996Z" fill="#F89939"/>
<g style="mix-blend-mode:multiply">
<path d="M223.48 586.289H217.07V615.173H223.48V586.289Z" fill="#17A9E1"/>
</g>
<path d="M236.504 600.721H230.094V615.163H236.504V600.721Z" fill="#F89939"/>
<path d="M156.1 632.364H126.006C124.768 632.364 123.764 633.368 123.764 634.607C123.764 635.846 124.768 636.85 126.006 636.85H156.1C157.339 636.85 158.343 635.846 158.343 634.607C158.343 633.368 157.339 632.364 156.1 632.364Z" fill="#1BB9F5"/>
<path d="M200.752 632.805H170.659C169.42 632.805 168.416 633.809 168.416 635.048C168.416 636.287 169.42 637.291 170.659 637.291H200.752C201.991 637.291 202.995 636.287 202.995 635.048C202.995 633.809 201.991 632.805 200.752 632.805Z" fill="#1BB9F5"/>
<path d="M243.854 632.805H213.76C212.522 632.805 211.518 633.809 211.518 635.048C211.518 636.287 212.522 637.291 213.76 637.291H243.854C245.093 637.291 246.097 636.287 246.097 635.048C246.097 633.809 245.093 632.805 243.854 632.805Z" fill="#1BB9F5"/>
<path d="M174.6 653.29H144.506C143.266 653.29 142.264 652.288 142.264 651.047C142.264 649.806 143.266 648.804 144.506 648.804H174.6C175.841 648.804 176.843 649.806 176.843 651.047C176.843 652.288 175.841 653.29 174.6 653.29Z" fill="#1BB9F5"/>
<path d="M217.719 653.29H187.626C186.385 653.29 185.383 652.288 185.383 651.047C185.383 649.806 186.385 648.804 187.626 648.804H217.719C218.96 648.804 219.962 649.806 219.962 651.047C219.962 652.288 218.96 653.29 217.719 653.29Z" fill="#1BB9F5"/>
</g>
<defs>
<linearGradient id="paint0_linear_77_4810" x1="596.548" y1="819.293" x2="596.548" y2="665.198" gradientUnits="userSpaceOnUse">
<stop stop-color="#1F3A65"/>
<stop offset="1" stop-color="#294A7A"/>
</linearGradient>
<linearGradient id="paint1_linear_77_4810" x1="503.577" y1="831.252" x2="503.577" y2="789.817" gradientUnits="userSpaceOnUse">
<stop stop-color="#1F3A65"/>
<stop offset="1" stop-color="#294A7A"/>
</linearGradient>
<linearGradient id="paint2_linear_77_4810" x1="677.384" y1="831.256" x2="677.384" y2="789.821" gradientUnits="userSpaceOnUse">
<stop stop-color="#1F3A65"/>
<stop offset="1" stop-color="#294A7A"/>
</linearGradient>
<linearGradient id="paint3_linear_77_4810" x1="586.751" y1="606.862" x2="585.017" y2="539.819" gradientUnits="userSpaceOnUse">
<stop stop-color="#3F2323"/>
<stop offset="1" stop-color="#5E3434"/>
</linearGradient>
<linearGradient id="paint4_linear_77_4810" x1="800.682" y1="808.78" x2="833.973" y2="808.78" gradientUnits="userSpaceOnUse">
<stop stop-color="#1F3A65"/>
<stop offset="1" stop-color="#294A7A"/>
</linearGradient>
<linearGradient id="paint5_linear_77_4810" x1="848.223" y1="694.416" x2="805.961" y2="778.287" gradientUnits="userSpaceOnUse">
<stop stop-color="#E2E8F7"/>
<stop offset="1" stop-color="white"/>
</linearGradient>
<linearGradient id="paint6_linear_77_4810" x1="1024.61" y1="497.358" x2="1031.7" y2="467.457" gradientUnits="userSpaceOnUse">
<stop stop-color="#3855E1"/>
<stop offset="1" stop-color="#5C7EF7"/>
</linearGradient>
</defs>
</svg>
