<?xml version="1.0" encoding="UTF-8"?><svg id="Layer_1" xmlns="http://www.w3.org/2000/svg" xmlns:xlink="http://www.w3.org/1999/xlink" viewBox="0 0 940 650"><defs><style>.cls-1,.cls-2,.cls-3,.cls-4{fill:none;}.cls-5{clip-path:url(#clippath);}.cls-2{stroke-miterlimit:4;stroke-width:2px;}.cls-2,.cls-3,.cls-4{stroke:#dfdfdf;}.cls-6,.cls-7{fill:#fa4c24;}.cls-8{fill:#ffe0cf;}.cls-9{fill:#f4f8f9;}.cls-10{fill:#e7eef3;}.cls-11{fill:#fff;}.cls-12{fill:#ffe270;}.cls-13{fill:#ffd250;}.cls-14{fill:#ffab56;}.cls-15{fill:#ffcfc0;}.cls-16,.cls-17{fill:#ff44a0;}.cls-18{fill:#ff982a;}.cls-19{fill:#ff5cab;}.cls-20{fill:#ff7bba;}.cls-21{fill:#64caff;}.cls-22{fill:#9ff497;}.cls-23{fill:#b98080;}.cls-24{fill:#7361ba;}.cls-25{fill:#ae6c6c;}.cls-26{fill:#a2dbff;}.cls-27{fill:#6ce79a;}.cls-28,.cls-29{fill:#44c4ff;}.cls-30{fill:#9b5e5e;}.cls-31{fill:#483887;}.cls-32{fill:#5844a0;}.cls-33,.cls-34{fill:#852dee;}.cls-35,.cls-36{fill:#5044ff;}.cls-3{stroke-width:2px;}.cls-37{clip-path:url(#clippath-1);}.cls-7,.cls-34,.cls-36,.cls-29,.cls-17{fill-rule:evenodd;}</style><clipPath id="clippath"><rect class="cls-1" x="505.9" y="292.4" width="44.5" height="44.5"/></clipPath><clipPath id="clippath-1"><rect class="cls-1" x="295.5" y="190.9" width="44.5" height="44.5"/></clipPath></defs><rect class="cls-11" x="-43.2" y="-30" width="1026.5" height="710"/><path d="m587.6,101.9h1.4v-5.6l2.5,5.6h.9l2.5-5.6v5.6h1.4v-8.2h-1.4l-2.9,6.5-2.9-6.5h-1.5v8.2Zm13-1.6l-1.8-5h-1.5l2.6,6.4-1.3,3.2h1.4l4-9.6h-1.4l-1.9,5Zm8.8-2.9v-2.7h1.5c1.1,0,1.5.5,1.5,1.4s-.5,1.3-1.5,1.3h-1.5Zm4.4-1.3c0-1.3-1-2.5-2.9-2.5h-2.8v8.2h1.4v-3.3h1.5c2.1,0,2.9-1.3,2.9-2.4Zm2.6,2.3c0-1.4.6-1.8,1.6-1.8h.3v-1.4c-.9,0-1.6.4-2,1.1v-.9h-1.4v6.5h1.4v-3.4Zm9.4.2c0-2.1-1.5-3.4-3.3-3.4s-3.3,1.3-3.3,3.4,1.4,3.4,3.3,3.4,3.4-1.3,3.4-3.4Zm-5.3,0c0-1.5.9-2.2,1.9-2.2s2,.7,2,2.2-1,2.2-2,2.2-1.9-.7-1.9-2.2Zm7.3-4.1c.5,0,.9-.4.9-.9s-.4-.9-.9-.9-.9.4-.9.9.4.9.9.9Zm-.7.9v7.8c0,.5-.2.7-.8.7h-.5v1.1h.7c1.2,0,1.9-.5,1.9-1.8v-7.8h-1.4Zm5.9,1c1,0,1.8.6,1.8,1.6h-3.6c.1-1,.9-1.6,1.8-1.6Zm3.1,3.6h-1.5c-.2.5-.7.9-1.5.9s-1.8-.7-1.9-1.7h5c0-.2,0-.4,0-.7,0-1.9-1.3-3.2-3.2-3.2s-3.3,1.3-3.3,3.4,1.4,3.4,3.3,3.4,2.6-.9,3-2.1Zm1.1-1.3c0,2.1,1.3,3.4,3.2,3.4s2.6-.9,3-2.2h-1.5c-.2.7-.7,1-1.6,1s-1.8-.8-1.8-2.2.7-2.2,1.8-2.2,1.3.4,1.6,1h1.5c-.4-1.4-1.4-2.2-3-2.2s-3.2,1.3-3.2,3.4Zm7.8,1.5c0,1.3.7,1.8,1.9,1.8h1.1v-1.1h-.8c-.6,0-.8-.2-.8-.7v-3.6h1.6v-1.1h-1.6v-1.6h-1.4v1.6h-.8v1.1h.8v3.6Z"/><path d="m656.5,322.7c0,2.1,1.5,3.1,3.2,3.1s3.2-1,3.2-3.1v-5.2h-1.4v5.3c0,1.3-.7,1.9-1.9,1.9s-1.9-.6-1.9-1.9v-5.3h-1.4v5.2Zm13.1,1.2c0-2.4-3.8-1.6-3.8-2.9s.4-.7,1.1-.7,1.2.4,1.2,1h1.4c0-1.3-1-2.1-2.5-2.1s-2.5.8-2.5,1.9c0,2.4,3.8,1.7,3.8,2.9s-.4.8-1.2.8-1.3-.4-1.3-1h-1.4c0,1.2,1.2,2.1,2.7,2.1s2.5-.8,2.5-1.9Zm4.2-3.7c1,0,1.8.6,1.8,1.6h-3.6c.1-1,.9-1.6,1.8-1.6Zm3.1,3.6h-1.5c-.2.5-.7.9-1.5.9s-1.8-.7-1.9-1.7h5c0-.2,0-.4,0-.7,0-1.9-1.3-3.2-3.2-3.2s-3.3,1.3-3.3,3.4,1.4,3.4,3.3,3.4,2.6-.9,3-2.1Zm2.9-1.5c0-1.4.6-1.8,1.6-1.8h.3v-1.4c-.9,0-1.6.4-2,1.1v-.9h-1.4v6.5h1.4v-3.4Zm6.3,3.4h1.4v-5.6l2.5,5.6h.9l2.5-5.6v5.6h1.4v-8.2h-1.4l-2.9,6.5-2.9-6.5h-1.5v8.2Zm10-3.3c0,2,1.4,3.4,3.1,3.4s1.9-.5,2.3-1.1v1h1.4v-6.5h-1.4v.9c-.4-.5-1.2-1.1-2.3-1.1-1.7,0-3.1,1.3-3.1,3.3Zm5.3,0c0,1.4-1,2.2-2,2.2s-2-.8-2-2.2,1-2.2,2-2.2,2,.8,2,2.2Zm7.8,3.3h1.3v-3.9c0-1.8-1.1-2.8-2.7-2.8s-1.5.3-1.9.9v-.7h-1.3v6.5h1.3v-3.7c0-1.2.7-1.8,1.7-1.8s1.6.6,1.6,1.8v3.7Zm2.6-3.3c0,2,1.4,3.4,3.1,3.4s1.9-.5,2.3-1.1v1h1.4v-6.5h-1.4v.9c-.4-.5-1.2-1.1-2.3-1.1-1.7,0-3.1,1.3-3.1,3.3Zm5.4,0c0,1.4-1,2.2-2,2.2s-2-.8-2-2.2,1-2.2,2-2.2,2,.8,2,2.2Zm2.7,0c0,2,1.4,3.4,3.1,3.4s1.8-.5,2.3-1.1v1.1c0,1.3-.8,1.9-1.8,1.9s-1.7-.5-1.9-1.1h-1.3c.2,1.4,1.5,2.3,3.2,2.3s3.2-1.3,3.2-3.1v-6.6h-1.4v.9c-.4-.6-1.2-1.1-2.3-1.1-1.7,0-3.1,1.3-3.1,3.3Zm5.3,0c0,1.4-1,2.2-2,2.2s-2-.8-2-2.2,1-2.2,2-2.2,2,.8,2,2.2Zm5.9-2.2c1,0,1.8.6,1.8,1.6h-3.6c.1-1,.9-1.6,1.8-1.6Zm3.1,3.6h-1.5c-.3.5-.7.9-1.5.9s-1.8-.7-1.9-1.7h5c0-.2,0-.4,0-.7,0-1.9-1.3-3.2-3.2-3.2s-3.3,1.3-3.3,3.4,1.4,3.4,3.3,3.4,2.6-.9,3-2.1Zm10.8,1.9h1.3v-3.9c0-1.8-1.2-2.8-2.7-2.8s-1.9.5-2.3,1.3c-.5-.9-1.3-1.3-2.3-1.3s-1.5.3-1.9.9v-.7h-1.4v6.5h1.4v-3.7c0-1.2.7-1.8,1.6-1.8s1.6.6,1.6,1.8v3.7h1.3v-3.7c0-1.2.7-1.8,1.6-1.8s1.6.6,1.6,1.8v3.7Zm5.8-5.5c1,0,1.8.6,1.8,1.6h-3.6c.1-1,.9-1.6,1.8-1.6Zm3.1,3.6h-1.5c-.3.5-.7.9-1.5.9s-1.8-.7-1.9-1.7h5c0-.2,0-.4,0-.7,0-1.9-1.3-3.2-3.2-3.2s-3.3,1.3-3.3,3.4,1.4,3.4,3.3,3.4,2.6-.9,3-2.1Zm6.1,1.9h1.3v-3.9c0-1.8-1.2-2.8-2.7-2.8s-1.5.3-1.9.9v-.7h-1.4v6.5h1.4v-3.7c0-1.2.7-1.8,1.6-1.8s1.6.6,1.6,1.8v3.7Zm3.3-1.8c0,1.3.7,1.8,1.9,1.8h1.1v-1.1h-.8c-.6,0-.8-.2-.8-.7v-3.6h1.6v-1.1h-1.6v-1.6h-1.4v1.6h-.8v1.1h.8v3.6Z"/><path d="m515,482.9h1.4v-3.6h2.7v-1.1h-2.7v-2.4h3.5v-1.1h-4.8v8.2Zm8.9-5.5c1,0,1.8.6,1.8,1.6h-3.6c.1-1,.9-1.6,1.8-1.6Zm3.1,3.6h-1.5c-.2.5-.7.9-1.5.9s-1.8-.7-1.9-1.7h5c0-.2,0-.4,0-.7,0-1.9-1.3-3.2-3.2-3.2s-3.3,1.3-3.3,3.4,1.4,3.4,3.3,3.4,2.6-.9,3-2.1Zm4.3-3.6c1,0,1.8.6,1.8,1.6h-3.6c.1-1,.9-1.6,1.8-1.6Zm3.1,3.6h-1.5c-.2.5-.7.9-1.5.9s-1.8-.7-1.9-1.7h5c0-.2,0-.4,0-.7,0-1.9-1.3-3.2-3.2-3.2s-3.3,1.3-3.3,3.4,1.4,3.4,3.3,3.4,2.6-.9,3-2.1Zm1.1-1.4c0,2,1.4,3.4,3.1,3.4s1.8-.5,2.3-1.1v1h1.4v-8.8h-1.4v3.2c-.5-.6-1.4-1-2.3-1-1.7,0-3.1,1.3-3.1,3.3Zm5.3,0c0,1.4-1,2.2-2,2.2s-2-.8-2-2.2,1-2.2,2-2.2,2,.8,2,2.2Zm4.5-2.3v-3.2h-1.4v8.8h1.4v-.9c.4.6,1.2,1.1,2.3,1.1,1.7,0,3.1-1.4,3.1-3.4s-1.3-3.3-3.1-3.3-1.8.5-2.3,1.1Zm4,2.3c0,1.4-1,2.2-2,2.2s-2-.8-2-2.2,1-2.2,2-2.2,2,.8,2,2.2Zm2.3,0c0,2,1.4,3.4,3.1,3.4s1.9-.5,2.3-1.1v1h1.4v-6.5h-1.4v.9c-.4-.5-1.2-1.1-2.3-1.1-1.7,0-3.1,1.3-3.1,3.3Zm5.3,0c0,1.4-1,2.2-2,2.2s-2-.8-2-2.2,1-2.2,2-2.2,2,.8,2,2.2Zm2.7,0c0,2.1,1.3,3.4,3.2,3.4s2.6-.9,3-2.2h-1.5c-.2.7-.7,1-1.6,1s-1.8-.8-1.8-2.2.7-2.2,1.8-2.2,1.3.4,1.6,1h1.5c-.4-1.4-1.4-2.2-3-2.2s-3.2,1.3-3.2,3.4Zm7.6,3.3h1.4v-2.8l2.4,2.8h1.8l-3-3.3,3-3.3h-1.9l-2.4,2.9v-5.1h-1.4v8.8Z"/><path d="m34,393.2h1.4v-5.6l2.5,5.6h.9l2.5-5.6v5.6h1.4v-8.2h-1.4l-2.9,6.5-2.9-6.5h-1.5v8.2Zm13-1.6l-1.8-5h-1.5l2.6,6.4-1.3,3.2h1.4l4-9.6h-1.4l-1.9,5Zm13-.8c0-3-4.4-1.8-4.4-3.7s.6-1.2,1.4-1.2c.9,0,1.3.5,1.4,1.1h1.5c-.1-1.4-1.2-2.2-2.8-2.2s-2.8.9-2.8,2.3c0,3,4.4,1.7,4.4,3.7s-.5,1.2-1.5,1.2-1.4-.5-1.5-1.2h-1.4c0,1.5,1.3,2.4,2.9,2.4s2.8-1.2,2.8-2.4Zm4.3-3.2c1,0,1.8.6,1.8,1.6h-3.6c.1-1,.9-1.6,1.8-1.6Zm3.1,3.6h-1.5c-.2.5-.7.9-1.5.9s-1.8-.7-1.9-1.7h5c0-.2,0-.4,0-.7,0-1.9-1.3-3.2-3.2-3.2s-3.3,1.3-3.3,3.4,1.4,3.4,3.3,3.4,2.6-.9,3-2.1Zm2.9-1.5c0-1.4.6-1.8,1.6-1.8h.3v-1.4c-.9,0-1.6.4-2,1.1v-.9h-1.4v6.5h1.4v-3.4Zm2.4-3.1l2.5,6.5h1.6l2.5-6.5h-1.4l-1.8,5.3-1.8-5.3h-1.4Zm7.6,6.5h1.4v-6.5h-1.4v6.5Zm.7-7.4c.5,0,.9-.4.9-.9s-.4-.9-.9-.9-.9.4-.9.9.4.9.9.9Zm2,4.1c0,2.1,1.3,3.4,3.2,3.4s2.6-.9,3-2.2h-1.5c-.2.7-.7,1-1.6,1s-1.8-.8-1.8-2.2.7-2.2,1.8-2.2,1.3.4,1.6,1h1.5c-.4-1.4-1.4-2.2-3-2.2s-3.2,1.3-3.2,3.4Zm10.3-2.2c1,0,1.8.6,1.8,1.6h-3.6c.1-1,.9-1.6,1.8-1.6Zm3.1,3.6h-1.5c-.2.5-.7.9-1.5.9s-1.8-.7-1.9-1.7h5c0-.2,0-.4,0-.7,0-1.9-1.3-3.2-3.2-3.2s-3.3,1.3-3.3,3.4,1.4,3.4,3.3,3.4,2.6-.9,3-2.1Zm6.4.1c0-2.4-3.8-1.6-3.8-2.9s.4-.7,1.1-.7,1.2.4,1.2,1h1.4c0-1.3-1-2.1-2.5-2.1s-2.5.8-2.5,1.9c0,2.4,3.8,1.7,3.8,2.9s-.4.8-1.2.8-1.3-.4-1.3-1h-1.4c0,1.2,1.2,2.1,2.7,2.1s2.5-.8,2.5-1.9Z"/><path d="m18.4,119h1.4v-5.6l2.5,5.6h.9l2.5-5.6v5.6h1.4v-8.2h-1.4l-2.9,6.5-2.9-6.5h-1.5v8.2Zm13-1.6l-1.8-5h-1.5l2.6,6.4-1.3,3.2h1.4l4-9.6h-1.4l-1.9,5Zm13,1.6h1.4l-3-8.3h-1.6l-3,8.3h1.4l.6-1.7h3.5l.6,1.7Zm-1-2.8h-2.7l1.4-3.8,1.3,3.8Zm3.2-.5c0,2.1,1.3,3.4,3.2,3.4s2.6-.9,3-2.2h-1.5c-.2.7-.7,1-1.6,1s-1.8-.8-1.8-2.2.7-2.2,1.8-2.2,1.3.4,1.6,1h1.5c-.4-1.4-1.4-2.2-3-2.2s-3.2,1.3-3.2,3.4Zm7.1,0c0,2.1,1.3,3.4,3.2,3.4s2.6-.9,3-2.2h-1.5c-.2.7-.7,1-1.6,1s-1.8-.8-1.8-2.2.7-2.2,1.8-2.2,1.3.4,1.6,1h1.5c-.4-1.4-1.4-2.2-3-2.2s-3.2,1.3-3.2,3.4Zm13.8,0c0-2.1-1.5-3.4-3.3-3.4s-3.3,1.3-3.3,3.4,1.4,3.4,3.3,3.4,3.4-1.3,3.4-3.4Zm-5.3,0c0-1.5.9-2.2,1.9-2.2s2,.7,2,2.2-1,2.2-2,2.2-1.9-.7-1.9-2.2Zm12.5-3.3h-1.4v3.6c0,1.2-.7,1.8-1.6,1.8s-1.6-.6-1.6-1.8v-3.6h-1.3v3.8c0,1.8,1.2,2.8,2.7,2.8s1.5-.3,1.9-.9v.8h1.4v-6.5Zm6.4,6.5h1.3v-3.9c0-1.8-1.2-2.8-2.7-2.8s-1.5.3-1.9.9v-.7h-1.4v6.5h1.4v-3.7c0-1.2.7-1.8,1.6-1.8s1.6.6,1.6,1.8v3.7Zm3.3-1.8c0,1.3.7,1.8,1.9,1.8h1.1v-1.1h-.8c-.6,0-.8-.2-.8-.7v-3.6h1.6v-1.1h-1.6v-1.6h-1.4v1.6h-.8v1.1h.8v3.6Z"/><circle class="cls-3" cx="407.5" cy="300.6" r="78.7"/><circle class="cls-2" cx="405.9" cy="302.2" r="160.8"/><path class="cls-4" d="m575.2,97.1h-95.2v52.2"/><path class="cls-4" d="m131.3,114.9h172.3v52.2"/><path class="cls-4" d="m502.2,479.2h-72.6v-9.6"/><path class="cls-34" d="m574.8,323.7c3.2-24.9.8-50.2-7-74.1l-5,1.6-76,20.3,64.9-3.4c4,17.3,5,35.2,2.7,52.9-2.8,21.9-10.4,43-22.3,61.6l17.3,11c13.5-21.2,22.1-45.1,25.3-70Z"/><path class="cls-17" d="m496.3,421.6l-37.5-50.9,26.5,58.5c-14.9,9.3-31.3,15.9-48.5,19.6-21.6,4.6-44,4.3-65.5-.8l-4.7,19.9c24.4,5.8,49.9,6.1,74.4,1,24.6-5.2,47.7-15.7,67.7-30.9l-12.4-16.3s0,0,0,0Z"/><path class="cls-29" d="m259.3,388.7c13.3,22.5,31.5,41.6,53.3,55.9l11.2-17.1,37.8-50.9-48.8,43c-14.4-11.4-26.6-25.4-35.9-41.2-11.7-19.8-18.6-42-20.4-64.8l-20.4,1.5c2,26,9.9,51.2,23.1,73.7Z"/><path class="cls-7" d="m278.1,189.7c-17.2,19.6-29.8,42.9-36.6,68.1l16.2,2.3,66.5,10.1-58.9-22.2c6.4-16.6,15.9-30.9,28.1-44.8,15.2-17.2,34.1-30.7,55.3-39.5l-7.8-18.9c-24.1,9.9-45.6,25.3-62.9,44.9Z"/><path class="cls-36" d="m404.1,152.5l4.3,63,9-62.6c17.3,1.2,34,5.6,50.1,12.9,20.2,9.1,38.1,22.6,52.5,39.5l15.6-13.3c-16.3-19.2-36.7-34.5-59.7-44.9-22.9-10.3-47.9-15.5-73-15h-.1s0,0,0,0h0l1.4,20.5s0,0,0,0Z"/><rect class="cls-35" x="575.6" y="88.6" width="5.9" height="17.8" rx=".7" ry=".7"/><rect class="cls-6" x="124.3" y="106.4" width="5.9" height="17.8" rx=".7" ry=".7"/><rect class="cls-16" x="503" y="469.5" width="5.9" height="17.8" rx=".7" ry=".7"/><rect class="cls-33" x="644.5" y="312.4" width="5.9" height="17.8" rx=".7" ry=".7"/><rect class="cls-28" x="196.2" y="379.8" width="5.9" height="17.8" rx=".7" ry=".7"/><path class="cls-4" d="m576,321.3l68.6.7"/><path class="cls-4" d="m259.1,388.7h-57.1"/><path d="m583.2,120.9c.8,0,1.5-.6,1.5-1.4s-.7-1.5-1.5-1.5-1.4.6-1.4,1.5.6,1.4,1.4,1.4Zm7.6-1.8v-3h1.6c1.2,0,1.8.6,1.8,1.5s-.5,1.5-1.8,1.5h-1.6Zm4.4-1.5c0-1.4-.9-2.4-2.9-2.4h-2.7v8.3h1.1v-3.5h1.6c2.1,0,2.9-1.1,2.9-2.4Zm2.4,2.3c0-1.5.8-2,1.8-2h.3v-1.1c-1,0-1.7.5-2.1,1.2v-1.1h-1.1v6.5h1.1v-3.5Zm9.5.3c0-2.1-1.4-3.3-3.3-3.3s-3.3,1.3-3.3,3.3,1.4,3.4,3.2,3.4,3.3-1.3,3.3-3.4Zm-5.5,0c0-1.6,1-2.4,2.2-2.4s2.2.8,2.2,2.4-1.1,2.4-2.2,2.4-2.1-.8-2.1-2.4Zm6.5,0c0,2,1.3,3.4,3.1,3.4s2-.6,2.4-1.3v1.2h1.1v-8.8h-1.1v3.4c-.5-.7-1.4-1.3-2.4-1.3-1.8,0-3.1,1.3-3.1,3.3Zm5.5,0c0,1.5-1,2.4-2.2,2.4s-2.2-.9-2.2-2.4,1-2.4,2.2-2.4,2.2.9,2.2,2.4Zm8.7-3.2h-1.1v3.6c0,1.4-.7,2.1-1.9,2.1s-1.8-.7-1.8-2v-3.7h-1.1v3.8c0,1.9,1.2,2.8,2.7,2.8s1.7-.4,2.1-1.1v1h1.1v-6.5Zm1.4,3.2c0,2.1,1.3,3.4,3.2,3.4s2.7-.9,3-2.2h-1.2c-.2.8-.9,1.3-1.8,1.3s-2.1-.8-2.1-2.5.9-2.4,2.1-2.4,1.6.5,1.8,1.3h1.2c-.3-1.4-1.4-2.2-3-2.2s-3.2,1.3-3.2,3.3Zm7.8,1.5c0,1.3.7,1.8,1.8,1.8h1v-.9h-.8c-.7,0-.9-.2-.9-.9v-3.8h1.7v-.9h-1.7v-1.6h-1.1v1.6h-.8v.9h.8v3.8Zm7-4.6h1.1c.1-.8.7-1.4,1.7-1.4s1.6.6,1.6,1.4-.8,1.4-2.2,1.4h-.3v.9h.3c1.5,0,2.4.5,2.4,1.7s-.5,1.6-1.7,1.6-1.8-.7-1.9-1.6h-1c.1,1.7,1.3,2.5,3,2.5s2.7-1,2.7-2.4-.7-2-1.7-2.2h0c.9-.3,1.5-1,1.5-2s-.9-2.2-2.6-2.2-2.7.9-2.8,2.3Zm12.8-.1c-.1-1.2-1-2.2-2.6-2.2s-3,1.7-3,4.4.6,4.4,3.1,4.4,2.8-1.3,2.8-2.8-1.1-2.9-2.7-2.9-2,.5-2.3,1.3c0-2.5.7-3.5,2.1-3.5s1.5.5,1.6,1.3h1Zm-2.6,1.8c1.2,0,1.9.8,1.9,2s-.7,1.9-1.8,1.9-2-.9-2-2,1-1.9,2-1.9Zm4.4.4c0,2.5.6,4.4,3,4.4s3-1.9,3-4.4-.6-4.3-3-4.3-3,1.9-3,4.3Zm4.9,0c0,1.8-.2,3.4-1.9,3.4s-1.9-1.5-1.9-3.4.2-3.3,1.9-3.3,1.9,1.6,1.9,3.3Zm-74.9,19.7c.8,0,1.5-.6,1.5-1.4s-.7-1.5-1.5-1.5-1.4.6-1.4,1.5.6,1.4,1.4,1.4Zm9.6,1.4l-2.6-7.1h-1.2l3.1,8.3h1.2l3.1-8.3h-1.1l-2.6,7.1Zm4.5-2.1c0,2,1.3,3.4,3.1,3.4s2-.6,2.4-1.3v1.2h1.1v-6.5h-1.1v1.2c-.4-.7-1.2-1.3-2.4-1.3-1.7,0-3.1,1.3-3.1,3.3Zm5.5,0c0,1.5-1,2.4-2.2,2.4s-2.2-.9-2.2-2.4,1-2.4,2.2-2.4,2.2.9,2.2,2.4Zm2.9,3.3h1.1v-8.8h-1.1v8.8Zm2.9,0h1.1v-6.5h-1.1v6.5Zm.6-7.6c.4,0,.7-.3.7-.7s-.3-.7-.7-.7-.7.3-.7.7.3.7.7.7Zm2,4.3c0,2,1.3,3.4,3.1,3.4s2-.6,2.4-1.3v1.2h1.1v-8.8h-1.1v3.4c-.5-.7-1.4-1.3-2.4-1.3-1.8,0-3.1,1.3-3.1,3.3Zm5.5,0c0,1.5-1,2.4-2.2,2.4s-2.2-.9-2.2-2.4,1-2.4,2.2-2.4,2.2.9,2.2,2.4Zm7.7,3.3h1.2s2-6.7,2-6.7l1.9,6.7h1.2l2.4-8.3h-1.2l-1.8,7-1.9-7h-1.2l-2,7-1.8-7h-1.2l2.3,8.3Zm9.5-3.3c0,2,1.3,3.4,3.1,3.4s2-.6,2.4-1.3v1.2h1.1v-6.5h-1.1v1.2c-.4-.7-1.2-1.3-2.4-1.3-1.7,0-3.1,1.3-3.1,3.3Zm5.5,0c0,1.5-1,2.4-2.2,2.4s-2.2-.9-2.2-2.4,1-2.4,2.2-2.4,2.2.9,2.2,2.4Zm4-.3c0-1.5.8-2,1.8-2h.3v-1.1c-1,0-1.7.5-2.1,1.2v-1.1h-1.1v6.5h1.1v-3.5Zm4.4,0c0-1.5.8-2,1.8-2h.3v-1.1c-1,0-1.7.5-2.1,1.2v-1.1h-1.1v6.5h1.1v-3.5Zm2.9.3c0,2,1.3,3.4,3.1,3.4s2-.6,2.4-1.3v1.2h1.1v-6.5h-1.1v1.2c-.4-.7-1.2-1.3-2.4-1.3-1.7,0-3.1,1.3-3.1,3.3Zm5.5,0c0,1.5-1,2.4-2.2,2.4s-2.2-.9-2.2-2.4,1-2.4,2.2-2.4,2.2.9,2.2,2.4Zm7.7,3.3h1.1v-3.8c0-1.9-1.2-2.8-2.7-2.8s-1.7.4-2.1,1v-.9h-1.1v6.5h1.1v-3.6c0-1.4.8-2.1,1.9-2.1s1.8.7,1.8,2v3.7Zm3.1-1.8c0,1.3.7,1.8,1.8,1.8h1v-.9h-.8c-.7,0-.9-.2-.9-.9v-3.8h1.7v-.9h-1.7v-1.6h-1.1v1.6h-.8v.9h.8v3.8Zm6.5.5l-2-5.3h-1.2l2.6,6.4-1.3,3.1h1.1l3.9-9.6h-1.1l-2,5.3Zm3.3,2.9h.7l1.3-3.2h-1.2l-.9,3.2Zm6-5.8c0,2.5,1.8,4.2,4.1,4.2s3.2-.9,3.8-2.5h-1.3c-.5,1-1.3,1.5-2.5,1.5-1.7,0-3-1.3-3-3.3s1.3-3.3,3-3.3,2.1.6,2.5,1.6h1.3c-.6-1.6-2-2.5-3.8-2.5s-4.1,1.8-4.1,4.2Zm15.7.9c0-2.1-1.4-3.3-3.3-3.3s-3.3,1.3-3.3,3.3,1.4,3.4,3.2,3.4,3.3-1.3,3.3-3.4Zm-5.5,0c0-1.6,1-2.4,2.2-2.4s2.2.8,2.2,2.4-1.1,2.4-2.2,2.4-2.1-.8-2.1-2.4Zm11.6,3.3h1.1v-3.8c0-1.9-1.2-2.8-2.7-2.8s-1.7.4-2.1,1v-.9h-1.1v6.5h1.1v-3.6c0-1.4.8-2.1,1.9-2.1s1.8.7,1.8,2v3.7Zm3.1-1.8c0,1.3.7,1.8,1.8,1.8h1v-.9h-.8c-.7,0-.9-.2-.9-.9v-3.8h1.7v-.9h-1.7v-1.6h-1.1v1.6h-.8v.9h.8v3.8Zm5.2-1.8c0-1.5.8-2,1.8-2h.3v-1.1c-1,0-1.7.5-2.1,1.2v-1.1h-1.1v6.5h1.1v-3.5Zm2.9.3c0,2,1.3,3.4,3.1,3.4s2-.6,2.4-1.3v1.2h1.1v-6.5h-1.1v1.2c-.4-.7-1.2-1.3-2.4-1.3-1.7,0-3.1,1.3-3.1,3.3Zm5.5,0c0,1.5-1,2.4-2.2,2.4s-2.2-.9-2.2-2.4,1-2.4,2.2-2.4,2.2.9,2.2,2.4Zm2.5,0c0,2.1,1.3,3.4,3.2,3.4s2.7-.9,3-2.2h-1.2c-.2.8-.9,1.3-1.8,1.3s-2.1-.8-2.1-2.5.9-2.4,2.1-2.4,1.6.5,1.8,1.3h1.2c-.3-1.4-1.4-2.2-3-2.2s-3.2,1.3-3.2,3.3Zm7.8,1.5c0,1.3.7,1.8,1.8,1.8h1v-.9h-.8c-.7,0-.9-.2-.9-.9v-3.8h1.7v-.9h-1.7v-1.6h-1.1v1.6h-.8v.9h.8v3.8Zm8.8,0c0-2.3-3.8-1.5-3.8-3s.5-.9,1.3-.9,1.4.5,1.4,1.1h1.1c0-1.3-1-2-2.5-2s-2.4.8-2.4,1.8c0,2.4,3.8,1.6,3.8,3s-.5,1-1.3,1-1.5-.5-1.5-1.1h-1.1c0,1.2,1.1,2,2.7,2s2.4-.8,2.4-1.9Zm-157.4,17.1c.8,0,1.5-.6,1.5-1.4s-.7-1.5-1.5-1.5-1.4.6-1.4,1.5.6,1.4,1.4,1.4Zm11-3.3c0,.9-.5,1.6-1.8,1.6h-1.6v-3.1h1.6c1.2,0,1.8.6,1.8,1.5Zm-4.4-2.4v8.3h1.1v-3.4h1.3l2,3.4h1.3l-2.1-3.5c1.4-.3,2-1.3,2-2.4s-.9-2.4-2.9-2.4h-2.7Zm10,2.6c1.1,0,2.1.7,2.1,2h-4.1c.1-1.3,1-2,2.1-2Zm3,3.7h-1.2c-.2.7-.9,1.2-1.8,1.2s-2-.7-2.1-2h5.2c0-.2,0-.4,0-.7,0-1.8-1.2-3.1-3.1-3.1s-3.2,1.3-3.2,3.3,1.4,3.4,3.2,3.4,2.7-.9,3-2.1Zm6.2.2c0-2.3-3.8-1.5-3.8-3s.5-.9,1.3-.9,1.4.5,1.4,1.1h1.1c0-1.3-1-2-2.5-2s-2.4.8-2.4,1.8c0,2.4,3.8,1.6,3.8,3s-.5,1-1.3,1-1.5-.5-1.5-1.1h-1.1c0,1.2,1.1,2,2.7,2s2.4-.8,2.4-1.9Zm2.6-3.5v-1.2h-1.1v9.6h1.1v-4.3c.4.7,1.2,1.3,2.4,1.3,1.7,0,3.1-1.4,3.1-3.4s-1.3-3.3-3.1-3.3-2,.6-2.4,1.3Zm4.4,2c0,1.5-1,2.4-2.2,2.4s-2.2-.9-2.2-2.4,1-2.4,2.2-2.4,2.2.9,2.2,2.4Zm8.7,0c0-2.1-1.4-3.3-3.3-3.3s-3.3,1.3-3.3,3.3,1.4,3.4,3.2,3.4,3.3-1.3,3.3-3.4Zm-5.5,0c0-1.6,1-2.4,2.2-2.4s2.2.8,2.2,2.4-1.1,2.4-2.2,2.4-2.1-.8-2.1-2.4Zm11.6,3.3h1.1v-3.8c0-1.9-1.2-2.8-2.7-2.8s-1.7.4-2.1,1v-.9h-1.1v6.5h1.1v-3.6c0-1.4.8-2.1,1.9-2.1s1.8.7,1.8,2v3.7Zm7.5-1.8c0-2.3-3.8-1.5-3.8-3s.5-.9,1.3-.9,1.4.5,1.4,1.1h1.1c0-1.3-1-2-2.5-2s-2.4.8-2.4,1.8c0,2.4,3.8,1.6,3.8,3s-.5,1-1.3,1-1.5-.5-1.5-1.1h-1.1c0,1.2,1.1,2,2.7,2s2.4-.8,2.4-1.9Zm1.5,1.8h1.1v-6.5h-1.1v6.5Zm.6-7.6c.4,0,.7-.3.7-.7s-.3-.7-.7-.7-.7.3-.7.7.3.7.7.7Zm3.4,2.3v-3.5h-1.1v8.8h1.1v-1.2c.4.7,1.2,1.3,2.4,1.3,1.7,0,3.1-1.4,3.1-3.4s-1.3-3.3-3.1-3.3-2,.6-2.4,1.3Zm4.4,2c0,1.5-1,2.4-2.2,2.4s-2.2-.9-2.2-2.4,1-2.4,2.2-2.4,2.2.9,2.2,2.4Zm2.5,3.3h1.1v-8.8h-1.1v8.8Zm5.7-5.7c1.1,0,2.1.7,2.1,2h-4.1c.1-1.3,1-2,2.1-2Zm3,3.7h-1.2c-.2.7-.9,1.2-1.8,1.2s-2-.7-2.1-2h5.2c0-.2,0-.4,0-.7,0-1.8-1.2-3.1-3.1-3.1s-3.2,1.3-3.2,3.3,1.4,3.4,3.2,3.4,2.7-.9,3-2.1Zm10.1-.2c0-3.1-4.5-1.7-4.5-3.9s.7-1.4,1.6-1.3c1,0,1.5.6,1.6,1.2h1.2c-.1-1.3-1.2-2.1-2.7-2.1s-2.7.9-2.7,2.3c0,3.1,4.5,1.6,4.5,3.9s-.6,1.4-1.7,1.4-1.6-.7-1.7-1.4h-1.2c0,1.4,1.2,2.3,2.9,2.3s2.8-1.2,2.8-2.3Zm4.4-3.4c1.1,0,2.1.7,2.1,2h-4.1c.1-1.3,1-2,2.1-2Zm3,3.7h-1.2c-.2.7-.9,1.2-1.8,1.2s-2-.7-2.1-2h5.2c0-.2,0-.4,0-.7,0-1.8-1.2-3.1-3.1-3.1s-3.2,1.3-3.2,3.3,1.4,3.4,3.2,3.4,2.7-.9,3-2.1Zm2.6-1.5c0-1.5.8-2,1.8-2h.3v-1.1c-1,0-1.7.5-2.1,1.2v-1.1h-1.1v6.5h1.1v-3.5Zm2.6-3l2.5,6.5h1.3l2.5-6.5h-1.2l-2,5.5-2-5.5h-1.2Zm7.4,6.5h1.1v-6.5h-1.1v6.5Zm.6-7.6c.4,0,.7-.3.7-.7s-.3-.7-.7-.7-.7.3-.7.7.3.7.7.7Zm2,4.3c0,2.1,1.3,3.4,3.2,3.4s2.7-.9,3-2.2h-1.2c-.2.8-.9,1.3-1.8,1.3s-2.1-.8-2.1-2.5.9-2.4,2.1-2.4,1.6.5,1.8,1.3h1.2c-.3-1.4-1.4-2.2-3-2.2s-3.2,1.3-3.2,3.3Zm10.4-2.4c1.1,0,2.1.7,2,2h-4.1c.1-1.3,1-2,2.1-2Zm3,3.7h-1.2c-.2.7-.9,1.2-1.8,1.2s-2-.7-2.1-2h5.2c0-.2,0-.4,0-.7,0-1.8-1.2-3.1-3.1-3.1s-3.2,1.3-3.2,3.3,1.4,3.4,3.2,3.4,2.7-.9,3-2.1Zm4.2-5.4h2.3v7.4h1.1v-7.4h2.3v-.9h-5.6v.9Zm9.7,1.7c1.1,0,2.1.7,2.1,2h-4.1c.1-1.3,1-2,2.1-2Zm3,3.7h-1.2c-.2.7-.9,1.2-1.8,1.2s-2-.7-2.1-2h5.2c0-.2,0-.4,0-.7,0-1.8-1.2-3.1-3.1-3.1s-3.2,1.3-3.2,3.3,1.4,3.4,3.2,3.4,2.7-.9,3-2.1Zm1.1-1.3c0,2,1.3,3.4,3.1,3.4s2-.6,2.4-1.3v1.2h1.1v-6.5h-1.1v1.2c-.4-.7-1.2-1.3-2.4-1.3-1.7,0-3.1,1.3-3.1,3.3Zm5.5,0c0,1.5-1,2.4-2.2,2.4s-2.2-.9-2.2-2.4,1-2.4,2.2-2.4,2.2.9,2.2,2.4Zm12.3,3.3h1.1v-3.8c0-1.9-1.1-2.8-2.6-2.8s-1.9.5-2.3,1.4c-.4-1-1.3-1.4-2.4-1.4s-1.6.4-2.1,1.1v-.9h-1.1v6.5h1.1v-3.6c0-1.4.7-2.1,1.8-2.1s1.8.7,1.8,2v3.7h1.1v-3.6c0-1.4.7-2.1,1.8-2.1s1.8.7,1.8,2v3.7Zm-158.2,15.3c.8,0,1.5-.6,1.5-1.4s-.7-1.5-1.5-1.5-1.4.6-1.4,1.5.6,1.4,1.4,1.4Zm11,2.5h1.4l-3.8-4.1,3.7-4.1h-1.4l-3.4,3.8v-3.8h-1.1v8.3h1.1v-3.8l3.4,3.8Zm5.4-5.7c1.1,0,2.1.7,2.1,2h-4.1c.1-1.3,1-2,2.1-2Zm3,3.7h-1.2c-.2.7-.9,1.2-1.8,1.2s-2-.7-2.1-2h5.2c0-.2,0-.4,0-.7,0-1.8-1.2-3.1-3.1-3.1s-3.2,1.3-3.2,3.3,1.4,3.4,3.2,3.4,2.7-.9,3-2.1Zm4,.8l-2-5.3h-1.2l2.6,6.4-1.3,3.1h1.1l3.9-9.6h-1.1l-2,5.3Zm7-2.9c0,2.5,1.8,4.2,4.1,4.2s3.2-.9,3.8-2.5h-1.3c-.5,1-1.3,1.5-2.5,1.5-1.7,0-3-1.3-3-3.3s1.3-3.3,3-3.3,2.1.6,2.5,1.6h1.3c-.6-1.6-2-2.5-3.8-2.5s-4.1,1.8-4.1,4.2Zm15.7.9c0-2.1-1.4-3.3-3.3-3.3s-3.3,1.3-3.3,3.3,1.4,3.4,3.2,3.4,3.3-1.3,3.3-3.4Zm-5.5,0c0-1.6,1-2.4,2.2-2.4s2.2.8,2.2,2.4-1.1,2.4-2.2,2.4-2.1-.8-2.1-2.4Zm11.6,3.3h1.1v-3.8c0-1.9-1.2-2.8-2.7-2.8s-1.7.4-2.1,1v-.9h-1.1v6.5h1.1v-3.6c0-1.4.8-2.1,1.9-2.1s1.8.7,1.8,2v3.7Zm3.1-1.8c0,1.3.7,1.8,1.8,1.8h1v-.9h-.8c-.7,0-.9-.2-.9-.9v-3.8h1.7v-.9h-1.7v-1.6h-1.1v1.6h-.8v.9h.8v3.8Zm3.7-1.5c0,2,1.3,3.4,3.1,3.4s2-.6,2.4-1.3v1.2h1.1v-6.5h-1.1v1.2c-.4-.7-1.2-1.3-2.4-1.3-1.7,0-3.1,1.3-3.1,3.3Zm5.5,0c0,1.5-1,2.4-2.2,2.4s-2.2-.9-2.2-2.4,1-2.4,2.2-2.4,2.2.9,2.2,2.4Zm2.5,0c0,2.1,1.3,3.4,3.2,3.4s2.7-.9,3-2.2h-1.2c-.2.8-.9,1.3-1.8,1.3s-2.1-.8-2.1-2.5.9-2.4,2.1-2.4,1.6.5,1.8,1.3h1.2c-.3-1.4-1.4-2.2-3-2.2s-3.2,1.3-3.2,3.3Zm7.8,1.5c0,1.3.7,1.8,1.8,1.8h1v-.9h-.8c-.7,0-.9-.2-.9-.9v-3.8h1.7v-.9h-1.7v-1.6h-1.1v1.6h-.8v.9h.8v3.8Zm8.8,0c0-2.3-3.8-1.5-3.8-3s.5-.9,1.3-.9,1.4.5,1.4,1.1h1.1c0-1.3-1-2-2.5-2s-2.4.8-2.4,1.8c0,2.4,3.8,1.6,3.8,3s-.5,1-1.3,1-1.5-.5-1.5-1.1h-1.1c0,1.2,1.1,2,2.7,2s2.4-.8,2.4-1.9Zm-83.7,17.1c.8,0,1.5-.6,1.5-1.4s-.7-1.5-1.5-1.5-1.4.6-1.4,1.5.6,1.4,1.4,1.4Zm6.1-1.6c0,2.5,1.8,4.2,4.1,4.2s3.2-.9,3.8-2.5h-1.3c-.5,1-1.3,1.5-2.5,1.5-1.7,0-3-1.3-3-3.3s1.3-3.3,3-3.3,2.1.6,2.5,1.6h1.3c-.6-1.6-2-2.5-3.8-2.5s-4.1,1.8-4.1,4.2Zm15.7.9c0-2.1-1.4-3.3-3.3-3.3s-3.3,1.3-3.3,3.3,1.4,3.4,3.2,3.4,3.3-1.3,3.3-3.4Zm-5.5,0c0-1.6,1-2.4,2.2-2.4s2.2.8,2.2,2.4-1.1,2.4-2.2,2.4-2.1-.8-2.1-2.4Zm11.6,3.3h1.1v-3.8c0-1.9-1.2-2.8-2.7-2.8s-1.7.4-2.1,1v-.9h-1.1v6.5h1.1v-3.6c0-1.4.8-2.1,1.9-2.1s1.8.7,1.8,2v3.7Zm3,0h1.1v-5.6h1.4v-.9h-1.4v-.5c0-.8.3-1.2,1.3-1.2v-.9c-1.7,0-2.4.7-2.4,2.1v.5h-.8v.9h.8v5.6Zm3.7,0h1.1v-6.5h-1.1v6.5Zm.6-7.6c.4,0,.7-.3.7-.7s-.3-.7-.7-.7-.7.3-.7.7.3.7.7.7Zm2,4.3c0,2,1.3,3.4,3.1,3.4s2-.6,2.4-1.3v1.4c0,1.4-.9,2.1-2,2.1s-1.8-.5-2.1-1.3h-1.1c.2,1.4,1.4,2.3,3.1,2.3s3.1-1.3,3.1-3.1v-6.6h-1.1v1.2c-.4-.7-1.2-1.3-2.4-1.3-1.7,0-3.1,1.3-3.1,3.3Zm5.5,0c0,1.5-1,2.4-2.2,2.4s-2.2-.9-2.2-2.4,1-2.4,2.2-2.4,2.2.9,2.2,2.4Zm8.7-3.2h-1.1v3.6c0,1.4-.7,2.1-1.9,2.1s-1.8-.7-1.8-2v-3.7h-1.1v3.8c0,1.9,1.2,2.8,2.7,2.8s1.7-.4,2.1-1.1v1h1.1v-6.5Zm2.9,3c0-1.5.8-2,1.8-2h.3v-1.1c-1,0-1.7.5-2.1,1.2v-1.1h-1.1v6.5h1.1v-3.5Zm6.1-2.2c1.1,0,2.1.7,2.1,2h-4.1c.1-1.3,1-2,2.1-2Zm3,3.7h-1.2c-.2.7-.9,1.2-1.8,1.2s-2-.7-2.1-2h5.2c0-.2,0-.4,0-.7,0-1.8-1.2-3.1-3.1-3.1s-3.2,1.3-3.2,3.3,1.4,3.4,3.2,3.4,2.7-.9,3-2.1Zm.6,3.7h.7l1.3-3.2h-1.2l-.9,3.2Zm7.5-6v-3h1.6c1.2,0,1.8.6,1.8,1.5s-.5,1.5-1.8,1.5h-1.6Zm4.4-1.5c0-1.4-.9-2.4-2.9-2.4h-2.7v8.3h1.1v-3.5h1.6c2.1,0,2.9-1.1,2.9-2.4Zm2.4,2.3c0-1.5.8-2,1.8-2h.3v-1.1c-1,0-1.7.5-2.1,1.2v-1.1h-1.1v6.5h1.1v-3.5Zm3.3,3.5h1.1v-6.5h-1.1v6.5Zm.6-7.6c.4,0,.7-.3.7-.7s-.3-.7-.7-.7-.7.3-.7.7.3.7.7.7Zm2,4.3c0,2.1,1.3,3.4,3.2,3.4s2.7-.9,3-2.2h-1.2c-.2.8-.9,1.3-1.8,1.3s-2.1-.8-2.1-2.5.9-2.4,2.1-2.4,1.6.5,1.8,1.3h1.2c-.3-1.4-1.4-2.2-3-2.2s-3.2,1.3-3.2,3.3Zm10.4-2.4c1.1,0,2.1.7,2.1,2h-4.1c.1-1.3,1-2,2.1-2Zm3,3.7h-1.2c-.2.7-.9,1.2-1.8,1.2s-2-.7-2.1-2h5.2c0-.2,0-.4,0-.7,0-1.8-1.2-3.1-3.1-3.1s-3.2,1.3-3.2,3.3,1.4,3.4,3.2,3.4,2.7-.9,3-2.1Zm.6,3.7h.7l1.3-3.2h-1.2l-.9,3.2Zm7.1-5.8c0-2,1.3-3.3,3-3.3s3,1.3,3,3.3-1.3,3.3-3,3.3-3-1.3-3-3.3Zm7.2,0c0-2.5-1.8-4.2-4.2-4.2s-4.2,1.7-4.2,4.2,1.8,4.2,4.2,4.2.8,0,1.2-.2l1.6,1.6h1.4l-2.1-2.1c1.2-.7,2-2,2-3.6Zm7.2-2.4h-1.1v3.6c0,1.4-.7,2.1-1.9,2.1s-1.8-.7-1.8-2v-3.7h-1.1v3.8c0,1.9,1.2,2.8,2.7,2.8s1.7-.4,2.1-1.1v1h1.1v-6.5Zm8,3.2c0-2.1-1.4-3.3-3.3-3.3s-3.3,1.3-3.3,3.3,1.4,3.4,3.2,3.4,3.3-1.3,3.3-3.4Zm-5.5,0c0-1.6,1-2.4,2.2-2.4s2.2.8,2.2,2.4-1.1,2.4-2.2,2.4-2.1-.8-2.1-2.4Zm7.1,1.5c0,1.3.7,1.8,1.8,1.8h1v-.9h-.8c-.7,0-.9-.2-.9-.9v-3.8h1.7v-.9h-1.7v-1.6h-1.1v1.6h-.8v.9h.8v3.8Zm6.8-3.9c1.1,0,2.1.7,2.1,2h-4.1c.1-1.3,1-2,2.1-2Zm3,3.7h-1.2c-.2.7-.9,1.2-1.8,1.2s-2-.7-2.1-2h5.2c0-.2,0-.4,0-.7,0-1.8-1.2-3.1-3.1-3.1s-3.2,1.3-3.2,3.3,1.4,3.4,3.2,3.4,2.7-.9,3-2.1Zm-139.5,17.3c.8,0,1.5-.6,1.5-1.4s-.7-1.5-1.5-1.5-1.4.6-1.4,1.5.6,1.4,1.4,1.4Zm7.6-1.8v-3h1.6c1.2,0,1.8.6,1.8,1.5s-.5,1.5-1.8,1.5h-1.6Zm4.4-1.5c0-1.4-.9-2.4-2.9-2.4h-2.7v8.3h1.1v-3.5h1.6c2.1,0,2.9-1.1,2.9-2.4Zm2.4,2.3c0-1.5.8-2,1.8-2h.3v-1.1c-1,0-1.7.5-2.1,1.2v-1.1h-1.1v6.5h1.1v-3.5Zm9.5.3c0-2.1-1.4-3.3-3.3-3.3s-3.3,1.3-3.3,3.3,1.4,3.4,3.2,3.4,3.3-1.3,3.3-3.4Zm-5.5,0c0-1.6,1-2.4,2.2-2.4s2.2.8,2.2,2.4-1.1,2.4-2.2,2.4-2.1-.8-2.1-2.4Zm6.5,0c0,2,1.3,3.4,3.1,3.4s2-.6,2.4-1.3v1.2h1.1v-8.8h-1.1v3.4c-.5-.7-1.4-1.3-2.4-1.3-1.8,0-3.1,1.3-3.1,3.3Zm5.5,0c0,1.5-1,2.4-2.2,2.4s-2.2-.9-2.2-2.4,1-2.4,2.2-2.4,2.2.9,2.2,2.4Zm8.7-3.2h-1.1v3.6c0,1.4-.7,2.1-1.9,2.1s-1.8-.7-1.8-2v-3.7h-1.1v3.8c0,1.9,1.2,2.8,2.7,2.8s1.7-.4,2.1-1.1v1h1.1v-6.5Zm1.4,3.2c0,2.1,1.3,3.4,3.2,3.4s2.7-.9,3-2.2h-1.2c-.2.8-.9,1.3-1.8,1.3s-2.1-.8-2.1-2.5.9-2.4,2.1-2.4,1.6.5,1.8,1.3h1.2c-.3-1.4-1.4-2.2-3-2.2s-3.2,1.3-3.2,3.3Zm7.8,1.5c0,1.3.7,1.8,1.8,1.8h1v-.9h-.8c-.7,0-.9-.2-.9-.9v-3.8h1.7v-.9h-1.7v-1.6h-1.1v1.6h-.8v.9h.8v3.8Zm11.7-4.1c0,.9-.5,1.6-1.8,1.6h-1.6v-3.1h1.6c1.2,0,1.8.6,1.8,1.5Zm-4.4-2.4v8.3h1.1v-3.4h1.3l2,3.4h1.3l-2.1-3.5c1.4-.3,2-1.3,2-2.4s-.9-2.4-2.9-2.4h-2.7Zm10,2.6c1.1,0,2.1.7,2.1,2h-4.1c.1-1.3,1-2,2.1-2Zm3,3.7h-1.2c-.2.7-.9,1.2-1.8,1.2s-2-.7-2.1-2h5.2c0-.2,0-.4,0-.7,0-1.8-1.2-3.1-3.1-3.1s-3.2,1.3-3.2,3.3,1.4,3.4,3.2,3.4,2.7-.9,3-2.1Zm1.2-1.3c0,2,1.3,3.4,3.1,3.4s2-.6,2.4-1.3v1.4c0,1.4-.9,2.1-2,2.1s-1.8-.5-2.1-1.3h-1.1c.2,1.4,1.4,2.3,3.1,2.3s3.1-1.3,3.1-3.1v-6.6h-1.1v1.2c-.4-.7-1.2-1.3-2.4-1.3-1.7,0-3.1,1.3-3.1,3.3Zm5.5,0c0,1.5-1,2.4-2.2,2.4s-2.2-.9-2.2-2.4,1-2.4,2.2-2.4,2.2.9,2.2,2.4Zm2.9,3.3h1.1v-6.5h-1.1v6.5Zm.6-7.6c.4,0,.7-.3.7-.7s-.3-.7-.7-.7-.7.3-.7.7.3.7.7.7Zm7,5.8c0-2.3-3.8-1.5-3.8-3s.5-.9,1.3-.9,1.4.5,1.4,1.1h1.1c0-1.3-1-2-2.5-2s-2.4.8-2.4,1.8c0,2.4,3.8,1.6,3.8,3s-.5,1-1.3,1-1.5-.5-1.5-1.1h-1.1c0,1.2,1.1,2,2.7,2s2.4-.8,2.4-1.9Zm1.8,0c0,1.3.7,1.8,1.8,1.8h1v-.9h-.8c-.7,0-.9-.2-.9-.9v-3.8h1.7v-.9h-1.7v-1.6h-1.1v1.6h-.8v.9h.8v3.8Zm5.2-1.8c0-1.5.8-2,1.8-2h.3v-1.1c-1,0-1.7.5-2.1,1.2v-1.1h-1.1v6.5h1.1v-3.5Zm2.9.3c0,2,1.3,3.4,3.1,3.4s2-.6,2.4-1.3v1.2h1.1v-6.5h-1.1v1.2c-.4-.7-1.2-1.3-2.4-1.3-1.7,0-3.1,1.3-3.1,3.3Zm5.5,0c0,1.5-1,2.4-2.2,2.4s-2.2-.9-2.2-2.4,1-2.4,2.2-2.4,2.2.9,2.2,2.4Zm3.2,1.5c0,1.3.7,1.8,1.8,1.8h1v-.9h-.8c-.7,0-.9-.2-.9-.9v-3.8h1.7v-.9h-1.7v-1.6h-1.1v1.6h-.8v.9h.8v3.8Zm4.1,1.8h1.1v-6.5h-1.1v6.5Zm.6-7.6c.4,0,.7-.3.7-.7s-.3-.7-.7-.7-.7.3-.7.7.3.7.7.7Zm8.5,4.3c0-2.1-1.4-3.3-3.3-3.3s-3.3,1.3-3.3,3.3,1.4,3.4,3.2,3.4,3.3-1.3,3.3-3.4Zm-5.5,0c0-1.6,1-2.4,2.2-2.4s2.2.8,2.2,2.4-1.1,2.4-2.2,2.4-2.1-.8-2.1-2.4Zm11.6,3.3h1.1v-3.8c0-1.9-1.1-2.8-2.7-2.8s-1.7.4-2.1,1v-.9h-1.1v6.5h1.1v-3.6c0-1.4.8-2.1,1.9-2.1s1.8.7,1.8,2v3.7Z"/><path d="m658.1,344.7c.8,0,1.5-.6,1.5-1.4s-.7-1.5-1.5-1.5-1.4.6-1.4,1.5.6,1.4,1.4,1.4Zm7.6-1.8v-3h1.6c1.2,0,1.8.6,1.8,1.5s-.5,1.5-1.8,1.5h-1.6Zm4.4-1.5c0-1.4-.9-2.4-2.9-2.4h-2.7v8.3h1.1v-3.5h1.6c2.1,0,2.9-1.1,2.9-2.4Zm.9,2.6c0,2,1.3,3.4,3.1,3.4s2-.6,2.4-1.3v1.2h1.1v-6.5h-1.1v1.2c-.4-.7-1.2-1.3-2.4-1.3-1.7,0-3.1,1.3-3.1,3.3Zm5.5,0c0,1.5-1,2.4-2.2,2.4s-2.2-.9-2.2-2.4,1-2.4,2.2-2.4,2.2.9,2.2,2.4Zm4-.3c0-1.5.8-2,1.8-2h.3v-1.1c-1,0-1.7.5-2.1,1.2v-1.1h-1.1v6.5h1.1v-3.5Zm3.6,1.8c0,1.3.7,1.8,1.8,1.8h1v-.9h-.8c-.7,0-.9-.2-.9-.9v-3.8h1.7v-.9h-1.7v-1.6h-1.1v1.6h-.8v.9h.8v3.8Zm8.8,0c0-2.3-3.8-1.5-3.8-3s.5-.9,1.3-.9,1.4.5,1.4,1.1h1.1c0-1.3-1-2-2.5-2s-2.4.8-2.4,1.8c0,2.4,3.8,1.6,3.8,3s-.5,1-1.3,1-1.5-.5-1.5-1.1h-1.1c0,1.2,1.1,2,2.7,2s2.4-.8,2.4-1.9Zm9.7-4.7c0-1.1-.7-1.9-2-1.9s-2.2.8-2.2,1.8.2,1.1.7,1.7c-1.3.5-1.9,1.4-1.9,2.6s1.2,2.5,2.9,2.5,2-.4,2.8-1.2l1.1,1.1h1.4l-1.9-1.9c.2-.2.3-.5.5-.7l1-1.7h-1.2l-.8,1.4c0,.1-.1.2-.2.3l-2.5-2.5c-.6-.6-.9-1-.9-1.5s.4-.9,1.1-.9,1,.4,1,1h1.1Zm-2.6,5.7c-1.1,0-1.8-.7-1.8-1.6s.5-1.4,1.5-1.8l2.4,2.4c-.6.7-1.3,1-2.1,1Zm14.9-1.5c0-3.1-4.5-1.7-4.5-3.9s.7-1.4,1.6-1.3c1,0,1.5.6,1.6,1.2h1.2c-.1-1.3-1.2-2.1-2.7-2.1s-2.7.9-2.7,2.3c0,3.1,4.5,1.6,4.5,3.9s-.6,1.4-1.7,1.4-1.6-.7-1.7-1.4h-1.1c0,1.4,1.2,2.3,2.9,2.3s2.7-1.2,2.7-2.3Zm4.4-3.4c1.1,0,2.1.7,2.1,2h-4.1c.1-1.3,1-2,2-2Zm3,3.7h-1.2c-.2.7-.9,1.2-1.8,1.2s-2-.7-2.1-2h5.2c0-.2,0-.4,0-.7,0-1.8-1.2-3.1-3.1-3.1s-3.2,1.3-3.2,3.3,1.4,3.4,3.2,3.4,2.7-.9,3-2.1Zm2.6-1.5c0-1.5.8-2,1.8-2h.3v-1.1c-1,0-1.7.5-2.1,1.2v-1.1h-1.1v6.5h1.1v-3.5Zm2.6-3l2.5,6.5h1.3l2.5-6.5h-1.1l-2,5.5-2-5.5h-1.2Zm7.4,6.5h1.1v-6.5h-1.1v6.5Zm.6-7.6c.4,0,.7-.3.7-.7s-.3-.7-.7-.7-.7.3-.7.7.3.7.7.7Zm2,4.3c0,2.1,1.3,3.4,3.2,3.4s2.7-.9,3-2.2h-1.2c-.2.8-.9,1.3-1.8,1.3s-2.1-.8-2.1-2.5.9-2.4,2.1-2.4,1.6.5,1.8,1.3h1.2c-.3-1.4-1.4-2.2-3-2.2s-3.2,1.3-3.2,3.3Zm10.4-2.4c1.1,0,2.1.7,2.1,2h-4.1c.1-1.3,1-2,2.1-2Zm3,3.7h-1.2c-.2.7-.9,1.2-1.8,1.2s-2-.7-2.1-2h5.2c0-.2,0-.4,0-.7,0-1.8-1.2-3.1-3.1-3.1s-3.2,1.3-3.2,3.3,1.4,3.4,3.2,3.4,2.7-.9,3-2.1Zm4.3-2.1c0,2.5,1.8,4.2,4.1,4.2s3.2-.9,3.8-2.5h-1.3c-.5,1-1.3,1.5-2.5,1.5-1.7,0-3-1.3-3-3.3s1.3-3.3,3-3.3,2.1.6,2.5,1.6h1.3c-.6-1.6-2-2.5-3.8-2.5s-4.1,1.8-4.1,4.2Zm9.2.9c0,2,1.3,3.4,3.1,3.4s2-.6,2.4-1.3v1.2h1.1v-6.5h-1.1v1.2c-.4-.7-1.2-1.3-2.4-1.3-1.7,0-3.1,1.3-3.1,3.3Zm5.5,0c0,1.5-1,2.4-2.2,2.4s-2.2-.9-2.2-2.4,1-2.4,2.2-2.4,2.2.9,2.2,2.4Zm3.1,1.5c0,1.3.7,1.8,1.8,1.8h1v-.9h-.8c-.7,0-.9-.2-.9-.9v-3.8h1.7v-.9h-1.7v-1.6h-1.1v1.6h-.8v.9h.8v3.8Zm3.7-1.5c0,2,1.3,3.4,3.1,3.4s2-.6,2.4-1.3v1.2h1.1v-6.5h-1.1v1.2c-.4-.7-1.2-1.3-2.4-1.3-1.7,0-3.1,1.3-3.1,3.3Zm5.5,0c0,1.5-1,2.4-2.2,2.4s-2.2-.9-2.2-2.4,1-2.4,2.2-2.4,2.2.9,2.2,2.4Zm2.9,3.3h1.1v-8.8h-1.1v8.8Zm9.1-3.3c0-2.1-1.4-3.3-3.3-3.3s-3.3,1.3-3.3,3.3,1.4,3.4,3.2,3.4,3.3-1.3,3.3-3.4Zm-5.5,0c0-1.6,1-2.4,2.2-2.4s2.2.8,2.2,2.4-1.1,2.4-2.2,2.4-2.1-.8-2.1-2.4Zm6.5,0c0,2,1.3,3.4,3.1,3.4s2-.6,2.4-1.3v1.4c0,1.4-.9,2.1-2,2.1s-1.8-.5-2.1-1.3h-1.1c.2,1.4,1.4,2.3,3.1,2.3s3.1-1.3,3.1-3.1v-6.6h-1.1v1.2c-.4-.7-1.2-1.3-2.4-1.3-1.7,0-3.1,1.3-3.1,3.3Zm5.5,0c0,1.5-1,2.4-2.2,2.4s-2.2-.9-2.2-2.4,1-2.4,2.2-2.4,2.2.9,2.2,2.4Zm8.7-3.2h-1.1v3.6c0,1.4-.7,2.1-1.9,2.1s-1.8-.7-1.8-2v-3.7h-1.1v3.8c0,1.9,1.2,2.8,2.7,2.8s1.7-.4,2.1-1.1v1h1.1v-6.5Zm4.6.8c1.1,0,2.1.7,2.1,2h-4.1c.1-1.3,1-2,2.1-2Zm3,3.7h-1.2c-.2.7-.9,1.2-1.8,1.2s-2-.7-2.1-2h5.2c0-.2,0-.4,0-.7,0-1.8-1.2-3.1-3.1-3.1s-3.2,1.3-3.2,3.3,1.4,3.4,3.2,3.4,2.7-.9,3-2.1Zm5.8-3.3v-3.5h-1.1v8.8h1.1v-1.2c.4.7,1.2,1.3,2.4,1.3,1.7,0,3.1-1.4,3.1-3.4s-1.3-3.3-3.1-3.3-2,.6-2.4,1.3Zm4.4,2c0,1.5-1,2.4-2.2,2.4s-2.2-.9-2.2-2.4,1-2.4,2.2-2.4,2.2.9,2.2,2.4Zm5,2l-2-5.3h-1.2l2.6,6.4-1.3,3.1h1.1l3.9-9.6h-1.1l-2,5.3Zm12.7-1c0-3.1-4.5-1.7-4.5-3.9s.7-1.4,1.6-1.3c1,0,1.5.6,1.6,1.2h1.2c-.1-1.3-1.2-2.1-2.7-2.1s-2.7.9-2.7,2.3c0,3.1,4.5,1.6,4.5,3.9s-.6,1.4-1.7,1.4-1.6-.7-1.7-1.4h-1.1c0,1.4,1.2,2.3,2.9,2.3s2.7-1.2,2.7-2.3Zm4.4-3.4c1.1,0,2.1.7,2.1,2h-4.1c.1-1.3,1-2,2.1-2Zm3,3.7h-1.2c-.2.7-.9,1.2-1.8,1.2s-2-.7-2.1-2h5.2c0-.2,0-.4,0-.7,0-1.8-1.2-3.1-3.1-3.1s-3.2,1.3-3.2,3.3,1.4,3.4,3.2,3.4,2.7-.9,3-2.1Zm2.6-1.5c0-1.5.8-2,1.8-2h.3v-1.1c-1,0-1.7.5-2.1,1.2v-1.1h-1.1v6.5h1.1v-3.5Zm3.3,3.5h1.1v-6.5h-1.1v6.5Zm.6-7.6c.4,0,.7-.3.7-.7s-.3-.7-.7-.7-.7.3-.7.7.3.7.7.7Zm2,4.3c0,2,1.3,3.4,3.1,3.4s2-.6,2.4-1.3v1.2h1.1v-6.5h-1.1v1.2c-.4-.7-1.2-1.3-2.4-1.3-1.7,0-3.1,1.3-3.1,3.3Zm5.5,0c0,1.5-1,2.4-2.2,2.4s-2.2-.9-2.2-2.4,1-2.4,2.2-2.4,2.2.9,2.2,2.4Zm2.9,3.3h1.1v-8.8h-1.1v8.8Zm11.5-8.3v6.6l-4.3-6.6h-1.1v8.3h1.1v-6.6l4.3,6.6h1.1v-8.3h-1.1Zm8.7,1.8h-1.1v3.6c0,1.4-.7,2.1-1.9,2.1s-1.8-.7-1.8-2v-3.7h-1.1v3.8c0,1.9,1.2,2.8,2.7,2.8s1.7-.4,2.1-1.1v1h1.1v-6.5Zm11.2,6.5h1.1v-3.8c0-1.9-1.2-2.8-2.6-2.8s-1.9.5-2.3,1.4c-.4-1-1.3-1.4-2.4-1.4s-1.6.4-2,1.1v-.9h-1.1v6.5h1.1v-3.6c0-1.4.7-2.1,1.8-2.1s1.8.7,1.8,2v3.7h1.1v-3.6c0-1.4.7-2.1,1.8-2.1s1.8.7,1.8,2v3.7Zm3.9-5.3v-3.5h-1.1v8.8h1.1v-1.2c.4.7,1.2,1.3,2.4,1.3,1.7,0,3.1-1.4,3.1-3.4s-1.3-3.3-3.1-3.3-2,.6-2.4,1.3Zm4.4,2c0,1.5-1,2.4-2.2,2.4s-2.2-.9-2.2-2.4,1-2.4,2.2-2.4,2.2.9,2.2,2.4Zm5.3-2.4c1.1,0,2.1.7,2,2h-4.1c.1-1.3,1-2,2.1-2Zm3,3.7h-1.2c-.2.7-.9,1.2-1.8,1.2s-2-.7-2.1-2h5.2c0-.2,0-.4,0-.7,0-1.8-1.2-3.1-3.1-3.1s-3.2,1.3-3.2,3.3,1.4,3.4,3.2,3.4,2.7-.9,3-2.1Zm2.6-1.5c0-1.5.8-2,1.8-2h.3v-1.1c-1,0-1.7.5-2.1,1.2v-1.1h-1.1v6.5h1.1v-3.5Zm-261.8,18.8c.8,0,1.5-.6,1.5-1.4s-.7-1.5-1.5-1.5-1.4.6-1.4,1.5.6,1.4,1.4,1.4Zm7.2-1.6c0-2,1.3-3.3,3-3.3s3,1.3,3,3.3-1.3,3.3-3,3.3-3-1.3-3-3.3Zm7.2,0c0-2.5-1.8-4.2-4.2-4.2s-4.2,1.7-4.2,4.2,1.8,4.2,4.2,4.2.8,0,1.2-.2l1.6,1.6h1.4l-2.1-2.1c1.2-.7,2-2,2-3.6Zm7.2-2.4h-1.1v3.6c0,1.4-.7,2.1-1.9,2.1s-1.8-.7-1.8-2v-3.7h-1.1v3.8c0,1.9,1.2,2.8,2.7,2.8s1.7-.4,2.1-1.1v1h1.1v-6.5Zm8,3.2c0-2.1-1.4-3.3-3.3-3.3s-3.3,1.3-3.3,3.3,1.4,3.4,3.2,3.4,3.3-1.3,3.3-3.4Zm-5.5,0c0-1.6,1-2.4,2.2-2.4s2.2.8,2.2,2.4-1.1,2.4-2.2,2.4-2.1-.8-2.1-2.4Zm7.1,1.5c0,1.3.7,1.8,1.8,1.8h1v-.9h-.8c-.7,0-.9-.2-.9-.9v-3.8h1.7v-.9h-1.7v-1.6h-1.1v1.6h-.8v.9h.8v3.8Zm6.8-3.9c1.1,0,2.1.7,2,2h-4.1c.1-1.3,1-2,2.1-2Zm3,3.7h-1.2c-.2.7-.9,1.2-1.8,1.2s-2-.7-2.1-2h5.2c0-.2,0-.4,0-.7,0-1.8-1.2-3.1-3.1-3.1s-3.2,1.3-3.2,3.3,1.4,3.4,3.2,3.4,2.7-.9,3-2.1Zm9.7-4.5c0-1.1-.7-1.9-2-1.9s-2.2.8-2.2,1.8.2,1.1.7,1.7c-1.3.5-1.9,1.4-1.9,2.6s1.2,2.5,2.9,2.5,2.1-.4,2.8-1.2l1.1,1.1h1.4l-1.9-1.9c.2-.2.3-.5.5-.7l1-1.7h-1.2l-.8,1.4c0,.1-.1.2-.2.3l-2.5-2.5c-.6-.6-.9-1-.9-1.5s.4-.9,1.1-.9,1,.4,1,1h1.1Zm-2.6,5.7c-1.1,0-1.8-.7-1.8-1.6s.5-1.4,1.5-1.8l2.4,2.4c-.6.7-1.3,1-2.1,1Zm17.4-3.4c0-2.5-1.8-4.2-4.2-4.2s-4.2,1.7-4.2,4.2,1.8,4.2,4.2,4.2,4.2-1.7,4.2-4.2Zm-7.2,0c0-2,1.3-3.3,3-3.3s3.1,1.3,3.1,3.3-1.3,3.3-3.1,3.3-3-1.3-3-3.3Zm9.7.6c0-1.5.8-2,1.8-2h.3v-1.1c-1,0-1.7.5-2.1,1.2v-1.1h-1.1v6.5h1.1v-3.5Zm2.9.3c0,2,1.3,3.4,3.1,3.4s2-.6,2.4-1.3v1.2h1.1v-8.8h-1.1v3.4c-.5-.7-1.4-1.3-2.4-1.3-1.8,0-3.1,1.3-3.1,3.3Zm5.5,0c0,1.5-1,2.4-2.2,2.4s-2.2-.9-2.2-2.4,1-2.4,2.2-2.4,2.2.9,2.2,2.4Zm5.7-2.4c1.1,0,2.1.7,2,2h-4.1c.1-1.3,1-2,2.1-2Zm3,3.7h-1.2c-.2.7-.9,1.2-1.8,1.2s-2-.7-2.1-2h5.2c0-.2,0-.4,0-.7,0-1.8-1.2-3.1-3.1-3.1s-3.2,1.3-3.2,3.3,1.4,3.4,3.2,3.4,2.7-.9,3-2.1Zm2.6-1.5c0-1.5.8-2,1.8-2h.3v-1.1c-1,0-1.7.5-2.1,1.2v-1.1h-1.1v6.5h1.1v-3.5Zm6.5,3.5h1.1v-6.1l2.7,6.1h.8l2.7-6.1v6.1h1.1v-8.2h-1.2l-3,6.8-3-6.8h-1.2v8.2Zm9.8-3.3c0,2,1.3,3.4,3.1,3.4s2-.6,2.4-1.3v1.2h1.1v-6.5h-1.1v1.2c-.4-.7-1.2-1.3-2.4-1.3-1.7,0-3.1,1.3-3.1,3.3Zm5.5,0c0,1.5-1,2.4-2.2,2.4s-2.2-.9-2.2-2.4,1-2.4,2.2-2.4,2.2.9,2.2,2.4Zm7.7,3.3h1.1v-3.8c0-1.9-1.1-2.8-2.7-2.8s-1.7.4-2.1,1v-.9h-1.1v6.5h1.1v-3.6c0-1.4.8-2.1,1.9-2.1s1.8.7,1.8,2v3.7Zm2.4-3.3c0,2,1.3,3.4,3.1,3.4s2-.6,2.4-1.3v1.2h1.1v-6.5h-1.1v1.2c-.4-.7-1.2-1.3-2.4-1.3-1.7,0-3.1,1.3-3.1,3.3Zm5.5,0c0,1.5-1,2.4-2.2,2.4s-2.2-.9-2.2-2.4,1-2.4,2.2-2.4,2.2.9,2.2,2.4Zm2.5,0c0,2,1.3,3.4,3.1,3.4s2-.6,2.4-1.3v1.4c0,1.4-.9,2.1-2,2.1s-1.8-.5-2.1-1.3h-1.1c.2,1.4,1.4,2.3,3.1,2.3s3.1-1.3,3.1-3.1v-6.6h-1.1v1.2c-.4-.7-1.2-1.3-2.4-1.3-1.7,0-3.1,1.3-3.1,3.3Zm5.5,0c0,1.5-1,2.4-2.2,2.4s-2.2-.9-2.2-2.4,1-2.4,2.2-2.4,2.2.9,2.2,2.4Zm5.7-2.4c1.1,0,2.1.7,2,2h-4.1c.1-1.3,1-2,2.1-2Zm3,3.7h-1.2c-.2.7-.9,1.2-1.8,1.2s-2-.7-2.1-2h5.2c0-.2,0-.4,0-.7,0-1.8-1.2-3.1-3.1-3.1s-3.2,1.3-3.2,3.3,1.4,3.4,3.2,3.4,2.7-.9,3-2.1Zm10.9,2h1.1v-3.8c0-1.9-1.2-2.8-2.6-2.8s-1.9.5-2.3,1.4c-.4-1-1.3-1.4-2.4-1.4s-1.6.4-2,1.1v-.9h-1.1v6.5h1.1v-3.6c0-1.4.7-2.1,1.8-2.1s1.8.7,1.8,2v3.7h1.1v-3.6c0-1.4.7-2.1,1.8-2.1s1.8.7,1.8,2v3.7Zm5.6-5.7c1.1,0,2.1.7,2.1,2h-4.1c.1-1.3,1-2,2.1-2Zm3,3.7h-1.2c-.2.7-.9,1.2-1.8,1.2s-2-.7-2.1-2h5.2c0-.2,0-.4,0-.7,0-1.8-1.2-3.1-3.1-3.1s-3.2,1.3-3.2,3.3,1.4,3.4,3.2,3.4,2.7-.9,3-2.1Zm6.3,2h1.1v-3.8c0-1.9-1.1-2.8-2.7-2.8s-1.7.4-2.1,1v-.9h-1.1v6.5h1.1v-3.6c0-1.4.8-2.1,1.9-2.1s1.8.7,1.8,2v3.7Zm3.1-1.8c0,1.3.7,1.8,1.8,1.8h1v-.9h-.8c-.7,0-.9-.2-.9-.9v-3.8h1.7v-.9h-1.7v-1.6h-1.1v1.6h-.8v.9h.8v3.8Z"/><path d="m516.5,501.9c.8,0,1.5-.6,1.5-1.4s-.7-1.5-1.5-1.5-1.4.6-1.4,1.5.6,1.4,1.4,1.4Zm6.1-1.6c0,2.5,1.8,4.2,4.1,4.2s3.2-.9,3.8-2.5h-1.3c-.5,1-1.3,1.5-2.5,1.5-1.7,0-3-1.3-3-3.3s1.3-3.3,3-3.3,2.1.6,2.5,1.6h1.3c-.6-1.6-2-2.5-3.8-2.5s-4.1,1.8-4.1,4.2Zm15.3-2.4h-1.1v3.6c0,1.4-.7,2.1-1.9,2.1s-1.8-.7-1.8-2v-3.7h-1.1v3.8c0,1.9,1.2,2.8,2.7,2.8s1.7-.4,2.1-1.1v1h1.1v-6.5Zm6.5,4.7c0-2.3-3.8-1.5-3.8-3s.5-.9,1.3-.9,1.4.5,1.4,1.1h1.1c0-1.3-1-2-2.5-2s-2.4.8-2.4,1.8c0,2.4,3.8,1.6,3.8,3s-.5,1-1.3,1-1.5-.5-1.5-1.1h-1.1c0,1.2,1.1,2,2.7,2s2.4-.8,2.4-1.9Zm1.8,0c0,1.3.7,1.8,1.8,1.8h1v-.9h-.8c-.7,0-.9-.2-.9-.9v-3.8h1.7v-.9h-1.7v-1.6h-1.1v1.6h-.8v.9h.8v3.8Zm10.2-1.5c0-2.1-1.4-3.3-3.3-3.3s-3.3,1.3-3.3,3.3,1.4,3.4,3.2,3.4,3.3-1.3,3.3-3.4Zm-5.5,0c0-1.6,1-2.4,2.2-2.4s2.2.8,2.2,2.4-1.1,2.4-2.2,2.4-2.1-.8-2.1-2.4Zm16.3,3.3h1.1v-3.8c0-1.9-1.2-2.8-2.6-2.8s-1.9.5-2.3,1.4c-.4-1-1.3-1.4-2.4-1.4s-1.6.4-2.1,1.1v-.9h-1.1v6.5h1.1v-3.6c0-1.4.7-2.1,1.8-2.1s1.8.7,1.8,2v3.7h1.1v-3.6c0-1.4.7-2.1,1.8-2.1s1.8.7,1.8,2v3.7Zm5.6-5.7c1.1,0,2.1.7,2.1,2h-4.1c.1-1.3,1-2,2.1-2Zm3,3.7h-1.2c-.2.7-.9,1.2-1.8,1.2s-2-.7-2.1-2h5.2c0-.2,0-.4,0-.7,0-1.8-1.2-3.1-3.1-3.1s-3.2,1.3-3.2,3.3,1.4,3.4,3.2,3.4,2.7-.9,3-2.1Zm2.6-1.5c0-1.5.8-2,1.8-2h.3v-1.1c-1,0-1.7.5-2.1,1.2v-1.1h-1.1v6.5h1.1v-3.5Zm6.5,3.5h1.1v-3.7h2.9v-.9h-2.9v-2.8h3.6v-.9h-4.7v8.3Zm8.7-5.7c1.1,0,2.1.7,2.1,2h-4.1c.1-1.3,1-2,2.1-2Zm3,3.7h-1.2c-.2.7-.9,1.2-1.8,1.2s-2-.7-2.1-2h5.2c0-.2,0-.4,0-.7,0-1.8-1.2-3.1-3.1-3.1s-3.2,1.3-3.2,3.3,1.4,3.4,3.2,3.4,2.7-.9,3-2.1Zm4.3-3.7c1.1,0,2.1.7,2.1,2h-4.1c.1-1.3,1-2,2.1-2Zm3,3.7h-1.2c-.2.7-.9,1.2-1.8,1.2s-2-.7-2.1-2h5.2c0-.2,0-.4,0-.7,0-1.8-1.2-3.1-3.1-3.1s-3.2,1.3-3.2,3.3,1.4,3.4,3.2,3.4,2.7-.9,3-2.1Zm1.2-1.3c0,2,1.3,3.4,3.1,3.4s2-.6,2.4-1.3v1.2h1.1v-8.8h-1.1v3.4c-.5-.7-1.4-1.3-2.4-1.3-1.8,0-3.1,1.3-3.1,3.3Zm5.5,0c0,1.5-1,2.4-2.2,2.4s-2.2-.9-2.2-2.4,1-2.4,2.2-2.4,2.2.9,2.2,2.4Zm4-2v-3.5h-1.1v8.8h1.1v-1.2c.4.7,1.2,1.3,2.4,1.3,1.7,0,3.1-1.4,3.1-3.4s-1.3-3.3-3.1-3.3-2,.6-2.4,1.3Zm4.4,2c0,1.5-1,2.4-2.2,2.4s-2.2-.9-2.2-2.4,1-2.4,2.2-2.4,2.2.9,2.2,2.4Zm2.1,0c0,2,1.3,3.4,3.1,3.4s2-.6,2.4-1.3v1.2h1.1v-6.5h-1.1v1.2c-.4-.7-1.2-1.3-2.4-1.3-1.7,0-3.1,1.3-3.1,3.3Zm5.5,0c0,1.5-1,2.4-2.2,2.4s-2.2-.9-2.2-2.4,1-2.4,2.2-2.4,2.2.9,2.2,2.4Zm2.5,0c0,2.1,1.3,3.4,3.2,3.4s2.7-.9,3-2.2h-1.2c-.2.8-.9,1.3-1.8,1.3s-2.1-.8-2.1-2.5.9-2.4,2.1-2.4,1.6.5,1.8,1.3h1.2c-.3-1.4-1.4-2.2-3-2.2s-3.2,1.3-3.2,3.3Zm7.6,3.3h1.1v-2.9l2.5,2.9h1.5l-3.1-3.3,3.1-3.2h-1.5l-2.5,2.9v-5.2h-1.1v8.8Zm-120.5,15.3c.8,0,1.5-.6,1.5-1.4s-.7-1.5-1.5-1.5-1.4.6-1.4,1.5.6,1.4,1.4,1.4Zm6.1-1.6c0,2.5,1.8,4.2,4.1,4.2s3.2-.9,3.8-2.5h-1.3c-.5,1-1.3,1.5-2.5,1.5-1.7,0-3-1.3-3-3.3s1.3-3.3,3-3.3,2.1.6,2.5,1.6h1.3c-.6-1.6-2-2.5-3.8-2.5s-4.1,1.8-4.1,4.2Zm15.3-2.4h-1.1v3.6c0,1.4-.7,2.1-1.9,2.1s-1.8-.7-1.8-2v-3.7h-1.1v3.8c0,1.9,1.2,2.8,2.7,2.8s1.7-.4,2.1-1.1v1h1.1v-6.5Zm6.5,4.7c0-2.3-3.8-1.5-3.8-3s.5-.9,1.3-.9,1.4.5,1.4,1.1h1.1c0-1.3-1-2-2.5-2s-2.4.8-2.4,1.8c0,2.4,3.8,1.6,3.8,3s-.5,1-1.3,1-1.5-.5-1.5-1.1h-1.1c0,1.2,1.1,2,2.7,2s2.4-.8,2.4-1.9Zm1.8,0c0,1.3.7,1.8,1.8,1.8h1v-.9h-.8c-.7,0-.9-.2-.9-.9v-3.8h1.7v-.9h-1.7v-1.6h-1.1v1.6h-.8v.9h.8v3.8Zm10.2-1.5c0-2.1-1.4-3.3-3.3-3.3s-3.3,1.3-3.3,3.3,1.4,3.4,3.2,3.4,3.3-1.3,3.3-3.4Zm-5.5,0c0-1.6,1-2.4,2.2-2.4s2.2.8,2.2,2.4-1.1,2.4-2.2,2.4-2.1-.8-2.1-2.4Zm16.3,3.3h1.1v-3.8c0-1.9-1.2-2.8-2.6-2.8s-1.9.5-2.3,1.4c-.4-1-1.3-1.4-2.4-1.4s-1.6.4-2.1,1.1v-.9h-1.1v6.5h1.1v-3.6c0-1.4.7-2.1,1.8-2.1s1.8.7,1.8,2v3.7h1.1v-3.6c0-1.4.7-2.1,1.8-2.1s1.8.7,1.8,2v3.7Zm5.6-5.7c1.1,0,2.1.7,2.1,2h-4.1c.1-1.3,1-2,2.1-2Zm3,3.7h-1.2c-.2.7-.9,1.2-1.8,1.2s-2-.7-2.1-2h5.2c0-.2,0-.4,0-.7,0-1.8-1.2-3.1-3.1-3.1s-3.2,1.3-3.2,3.3,1.4,3.4,3.2,3.4,2.7-.9,3-2.1Zm2.6-1.5c0-1.5.8-2,1.8-2h.3v-1.1c-1,0-1.7.5-2.1,1.2v-1.1h-1.1v6.5h1.1v-3.5Zm11.2,1.8c0-2.3-3.8-1.5-3.8-3s.5-.9,1.3-.9,1.4.5,1.4,1.1h1.1c0-1.3-1-2-2.5-2s-2.4.8-2.4,1.8c0,2.4,3.8,1.6,3.8,3s-.5,1-1.3,1-1.5-.5-1.5-1.1h-1.1c0,1.2,1.1,2,2.7,2s2.4-.8,2.4-1.9Zm1.1-1.5c0,2,1.3,3.4,3.1,3.4s2-.6,2.4-1.3v1.2h1.1v-6.5h-1.1v1.2c-.4-.7-1.2-1.3-2.4-1.3-1.7,0-3.1,1.3-3.1,3.3Zm5.5,0c0,1.5-1,2.4-2.2,2.4s-2.2-.9-2.2-2.4,1-2.4,2.2-2.4,2.2.9,2.2,2.4Zm3.2,1.5c0,1.3.7,1.8,1.8,1.8h1v-.9h-.8c-.7,0-.9-.2-.9-.9v-3.8h1.7v-.9h-1.7v-1.6h-1.1v1.6h-.8v.9h.8v3.8Zm4.1,1.8h1.1v-6.5h-1.1v6.5Zm.6-7.6c.4,0,.7-.3.7-.7s-.3-.7-.7-.7-.7.3-.7.7.3.7.7.7Zm7,5.8c0-2.3-3.8-1.5-3.8-3s.5-.9,1.3-.9,1.4.5,1.4,1.1h1.1c0-1.3-1-2-2.5-2s-2.4.8-2.4,1.8c0,2.4,3.8,1.6,3.8,3s-.5,1-1.3,1-1.5-.5-1.5-1.1h-1.1c0,1.2,1.1,2,2.7,2s2.4-.8,2.4-1.9Zm1.7,1.8h1.1v-5.6h1.4v-.9h-1.4v-.5c0-.8.3-1.2,1.3-1.2v-.9c-1.7,0-2.4.7-2.4,2.1v.5h-.8v.9h.8v5.6Zm3.3-3.3c0,2,1.3,3.4,3.1,3.4s2-.6,2.4-1.3v1.2h1.1v-6.5h-1.1v1.2c-.4-.7-1.2-1.3-2.4-1.3-1.7,0-3.1,1.3-3.1,3.3Zm5.5,0c0,1.5-1,2.4-2.2,2.4s-2.2-.9-2.2-2.4,1-2.4,2.2-2.4,2.2.9,2.2,2.4Zm2.5,0c0,2.1,1.3,3.4,3.2,3.4s2.7-.9,3-2.2h-1.2c-.2.8-.9,1.3-1.8,1.3s-2.1-.8-2.1-2.5.9-2.4,2.1-2.4,1.6.5,1.8,1.3h1.2c-.3-1.4-1.4-2.2-3-2.2s-3.2,1.3-3.2,3.3Zm7.8,1.5c0,1.3.7,1.8,1.8,1.8h1v-.9h-.8c-.7,0-.9-.2-.9-.9v-3.8h1.7v-.9h-1.7v-1.6h-1.1v1.6h-.8v.9h.8v3.8Zm4.1,1.8h1.1v-6.5h-1.1v6.5Zm.6-7.6c.4,0,.7-.3.7-.7s-.3-.7-.7-.7-.7.3-.7.7.3.7.7.7Zm8.5,4.3c0-2.1-1.4-3.3-3.3-3.3s-3.3,1.3-3.3,3.3,1.4,3.4,3.2,3.4,3.3-1.3,3.3-3.4Zm-5.5,0c0-1.6,1-2.4,2.2-2.4s2.2.8,2.2,2.4-1.1,2.4-2.2,2.4-2.1-.8-2.1-2.4Zm11.6,3.3h1.1v-3.8c0-1.9-1.2-2.8-2.7-2.8s-1.7.4-2.1,1v-.9h-1.1v6.5h1.1v-3.6c0-1.4.8-2.1,1.9-2.1s1.8.7,1.8,2v3.7Zm10.7-1.8c0-2.3-3.8-1.5-3.8-3s.5-.9,1.3-.9,1.4.5,1.4,1.1h1.1c0-1.3-1-2-2.5-2s-2.4.8-2.4,1.8c0,2.4,3.8,1.6,3.8,3s-.5,1-1.3,1-1.5-.5-1.5-1.1h-1.1c0,1.2,1.1,2,2.7,2s2.4-.8,2.4-1.9Zm7.3-4.7h-1.1v3.6c0,1.4-.7,2.1-1.9,2.1s-1.8-.7-1.8-2v-3.7h-1.1v3.8c0,1.9,1.2,2.8,2.7,2.8s1.7-.4,2.1-1.1v1h1.1v-6.5Zm2.9,3c0-1.5.8-2,1.8-2h.3v-1.1c-1,0-1.7.5-2.1,1.2v-1.1h-1.1v6.5h1.1v-3.5Zm2.6-3l2.5,6.5h1.3l2.5-6.5h-1.2l-2,5.5-2-5.5h-1.2Zm10.2.8c1.1,0,2.1.7,2.1,2h-4.1c.1-1.3,1-2,2.1-2Zm3,3.7h-1.2c-.2.7-.9,1.2-1.8,1.2s-2-.7-2.1-2h5.2c0-.2,0-.4,0-.7,0-1.8-1.2-3.1-3.1-3.1s-3.2,1.3-3.2,3.3,1.4,3.4,3.2,3.4,2.7-.9,3-2.1Zm4,.8l-2-5.3h-1.2l2.6,6.4-1.3,3.1h1.1l3.9-9.6h-1.1l-2,5.3Zm8.9-.5c0-2.3-3.8-1.5-3.8-3s.5-.9,1.3-.9,1.4.5,1.4,1.1h1.1c0-1.3-1-2-2.5-2s-2.4.8-2.4,1.8c0,2.4,3.8,1.6,3.8,3s-.5,1-1.3,1-1.5-.5-1.5-1.1h-1.1c0,1.2,1.1,2,2.7,2s2.4-.8,2.4-1.9Zm-184.4,17.1c.8,0,1.5-.6,1.5-1.4s-.7-1.5-1.5-1.5-1.4.6-1.4,1.5.6,1.4,1.4,1.4Zm6.1-1.6c0,2.5,1.8,4.2,4.1,4.2s3.2-.9,3.8-2.5h-1.3c-.5,1-1.3,1.5-2.5,1.5-1.7,0-3-1.3-3-3.3s1.3-3.3,3-3.3,2.1.6,2.5,1.6h1.3c-.6-1.6-2-2.5-3.8-2.5s-4.1,1.8-4.1,4.2Zm9.6,4.1h1.1v-3.6c0-1.4.8-2.1,1.9-2.1s1.8.7,1.8,2v3.7h1.1v-3.8c0-1.9-1.2-2.8-2.6-2.8s-1.7.4-2.1,1.1v-3.2h-1.1v8.8Zm7.2-3.3c0,2,1.3,3.4,3.1,3.4s2-.6,2.4-1.3v1.2h1.1v-6.5h-1.1v1.2c-.4-.7-1.2-1.3-2.4-1.3-1.7,0-3.1,1.3-3.1,3.3Zm5.5,0c0,1.5-1,2.4-2.2,2.4s-2.2-.9-2.2-2.4,1-2.4,2.2-2.4,2.2.9,2.2,2.4Zm3.2,1.5c0,1.3.7,1.8,1.8,1.8h1v-.9h-.8c-.7,0-.9-.2-.9-.9v-3.8h1.7v-.9h-1.7v-1.6h-1.1v1.6h-.8v.9h.8v3.8Zm7,3.8h1.1l3.2-13.2h-1.1l-3.2,13.2Zm8.7-6.2c0,2.5,1.8,4.2,4.1,4.2s3.2-.9,3.8-2.5h-1.3c-.5,1-1.3,1.5-2.5,1.5-1.7,0-3-1.3-3-3.3s1.3-3.3,3-3.3,2.1.6,2.5,1.6h1.3c-.6-1.6-2-2.5-3.8-2.5s-4.1,1.8-4.1,4.2Zm9.2.9c0,2,1.3,3.4,3.1,3.4s2-.6,2.4-1.3v1.2h1.1v-6.5h-1.1v1.2c-.4-.7-1.2-1.3-2.4-1.3-1.7,0-3.1,1.3-3.1,3.3Zm5.5,0c0,1.5-1,2.4-2.2,2.4s-2.2-.9-2.2-2.4,1-2.4,2.2-2.4,2.2.9,2.2,2.4Zm2.9,3.3h1.1v-8.8h-1.1v8.8Zm2.9,0h1.1v-8.8h-1.1v8.8Zm2.9,0h1.1v-6.5h-1.1v6.5Zm.6-7.6c.4,0,.7-.3.7-.7s-.3-.7-.7-.7-.7.3-.7.7.3.7.7.7Zm7.1,7.6h1.1v-3.8c0-1.9-1.2-2.8-2.7-2.8s-1.7.4-2.1,1v-.9h-1.1v6.5h1.1v-3.6c0-1.4.8-2.1,1.9-2.1s1.8.7,1.8,2v3.7Zm2.4-3.3c0,2,1.3,3.4,3.1,3.4s2-.6,2.4-1.3v1.4c0,1.4-.9,2.1-2,2.1s-1.8-.5-2.1-1.3h-1.1c.2,1.4,1.4,2.3,3.1,2.3s3.1-1.3,3.1-3.1v-6.6h-1.1v1.2c-.4-.7-1.2-1.3-2.4-1.3-1.7,0-3.1,1.3-3.1,3.3Zm5.5,0c0,1.5-1,2.4-2.2,2.4s-2.2-.9-2.2-2.4,1-2.4,2.2-2.4,2.2.9,2.2,2.4Zm-86.2,18.5c.8,0,1.5-.6,1.5-1.4s-.7-1.5-1.5-1.5-1.4.6-1.4,1.5.6,1.4,1.4,1.4Zm11-3.3c0,.9-.5,1.6-1.8,1.6h-1.6v-3.1h1.6c1.2,0,1.8.6,1.8,1.5Zm-4.4-2.4v8.3h1.1v-3.4h1.3l2,3.4h1.3l-2.1-3.5c1.4-.3,2-1.3,2-2.4s-.9-2.4-2.9-2.4h-2.7Zm10,2.6c1.1,0,2.1.7,2.1,2h-4.1c.1-1.3,1-2,2.1-2Zm3,3.7h-1.2c-.2.7-.9,1.2-1.8,1.2s-2-.7-2.1-2h5.2c0-.2,0-.4,0-.7,0-1.8-1.2-3.1-3.1-3.1s-3.2,1.3-3.2,3.3,1.4,3.4,3.2,3.4,2.7-.9,3-2.1Zm1.8.2c0,1.3.7,1.8,1.8,1.8h1v-.9h-.8c-.7,0-.9-.2-.9-.9v-3.8h1.7v-.9h-1.7v-1.6h-1.1v1.6h-.8v.9h.8v3.8Zm9.8-4.7h-1.1v3.6c0,1.4-.7,2.1-1.9,2.1s-1.8-.7-1.8-2v-3.7h-1.1v3.8c0,1.9,1.2,2.8,2.7,2.8s1.7-.4,2.1-1.1v1h1.1v-6.5Zm2.9,3c0-1.5.8-2,1.8-2h.3v-1.1c-1,0-1.7.5-2.1,1.2v-1.1h-1.1v6.5h1.1v-3.5Zm8.1,3.5h1.1v-3.8c0-1.9-1.2-2.8-2.7-2.8s-1.7.4-2.1,1v-.9h-1.1v6.5h1.1v-3.6c0-1.4.8-2.1,1.9-2.1s1.8.7,1.8,2v3.7Zm5.7,2h1.1l3.2-13.2h-1.1l-3.2,13.2Zm8.7-6.2c0,2.5,1.8,4.2,4.1,4.2s3.2-.9,3.8-2.5h-1.3c-.5,1-1.3,1.5-2.5,1.5-1.7,0-3-1.3-3-3.3s1.3-3.3,3-3.3,2.1.6,2.5,1.6h1.3c-.6-1.6-2-2.5-3.8-2.5s-4.1,1.8-4.1,4.2Zm15.7.9c0-2.1-1.4-3.3-3.3-3.3s-3.3,1.3-3.3,3.3,1.4,3.4,3.2,3.4,3.3-1.3,3.3-3.4Zm-5.5,0c0-1.6,1-2.4,2.2-2.4s2.2.8,2.2,2.4-1.1,2.4-2.2,2.4-2.1-.8-2.1-2.4Zm16.3,3.3h1.1v-3.8c0-1.9-1.2-2.8-2.6-2.8s-1.9.5-2.3,1.4c-.4-1-1.3-1.4-2.4-1.4s-1.6.4-2.1,1.1v-.9h-1.1v6.5h1.1v-3.6c0-1.4.7-2.1,1.8-2.1s1.8.7,1.8,2v3.7h1.1v-3.6c0-1.4.7-2.1,1.8-2.1s1.8.7,1.8,2v3.7Zm3.9-5.3v-1.2h-1.1v9.6h1.1v-4.3c.4.7,1.2,1.3,2.4,1.3,1.7,0,3.1-1.4,3.1-3.4s-1.3-3.3-3.1-3.3-2,.6-2.4,1.3Zm4.4,2c0,1.5-1,2.4-2.2,2.4s-2.2-.9-2.2-2.4,1-2.4,2.2-2.4,2.2.9,2.2,2.4Zm2.5,3.3h1.1v-8.8h-1.1v8.8Zm2.5-3.3c0,2,1.3,3.4,3.1,3.4s2-.6,2.4-1.3v1.2h1.1v-6.5h-1.1v1.2c-.4-.7-1.2-1.3-2.4-1.3-1.7,0-3.1,1.3-3.1,3.3Zm5.5,0c0,1.5-1,2.4-2.2,2.4s-2.2-.9-2.2-2.4,1-2.4,2.2-2.4,2.2.9,2.2,2.4Zm2.9,3.3h1.1v-6.5h-1.1v6.5Zm.6-7.6c.4,0,.7-.3.7-.7s-.3-.7-.7-.7-.7.3-.7.7.3.7.7.7Zm7.1,7.6h1.1v-3.8c0-1.9-1.2-2.8-2.7-2.8s-1.7.4-2.1,1v-.9h-1.1v6.5h1.1v-3.6c0-1.4.8-2.1,1.9-2.1s1.8.7,1.8,2v3.7Zm3.1-1.8c0,1.3.7,1.8,1.8,1.8h1v-.9h-.8c-.7,0-.9-.2-.9-.9v-3.8h1.7v-.9h-1.7v-1.6h-1.1v1.6h-.8v.9h.8v3.8Z"/><path d="m35.5,412.2c.8,0,1.5-.6,1.5-1.4s-.7-1.5-1.5-1.5-1.4.6-1.4,1.5.6,1.4,1.4,1.4Zm11.9.2c0-3.1-4.5-1.7-4.5-3.9s.7-1.4,1.6-1.3c1,0,1.5.6,1.6,1.2h1.2c-.1-1.3-1.2-2.1-2.7-2.1s-2.7.9-2.7,2.3c0,3.1,4.5,1.6,4.5,3.9s-.6,1.4-1.7,1.4-1.6-.7-1.7-1.4h-1.2c0,1.4,1.2,2.3,2.9,2.3s2.8-1.2,2.8-2.3Zm4.4-3.4c1.1,0,2.1.7,2.1,2h-4.1c.1-1.3,1-2,2.1-2Zm3,3.7h-1.2c-.2.7-.9,1.2-1.8,1.2s-2-.7-2.1-2h5.2c0-.2,0-.4,0-.7,0-1.8-1.2-3.1-3.1-3.1s-3.2,1.3-3.2,3.3,1.4,3.4,3.2,3.4,2.7-.9,3-2.1Zm1.6,2h1.1v-8.8h-1.1v8.8Zm3.1,0h1.1v-5.6h1.4v-.9h-1.4v-.5c0-.8.3-1.2,1.3-1.2v-.9c-1.7,0-2.4.7-2.4,2.1v.5h-.8v.9h.8v5.6Zm12.2-2.3c0-3.1-4.5-1.7-4.5-3.9s.7-1.4,1.6-1.3c1,0,1.5.6,1.6,1.2h1.2c-.1-1.3-1.2-2.1-2.7-2.1s-2.7.9-2.7,2.3c0,3.1,4.5,1.6,4.5,3.9s-.6,1.4-1.7,1.4-1.6-.7-1.7-1.4h-1.2c0,1.4,1.2,2.3,2.9,2.3s2.8-1.2,2.8-2.3Zm4.4-3.4c1.1,0,2.1.7,2.1,2h-4.1c.1-1.3,1-2,2.1-2Zm3,3.7h-1.2c-.2.7-.9,1.2-1.8,1.2s-2-.7-2.1-2h5.2c0-.2,0-.4,0-.7,0-1.8-1.2-3.1-3.1-3.1s-3.2,1.3-3.2,3.3,1.4,3.4,3.2,3.4,2.7-.9,3-2.1Zm2.6-1.5c0-1.5.8-2,1.8-2h.3v-1.1c-1,0-1.7.5-2.1,1.2v-1.1h-1.1v6.5h1.1v-3.5Zm2.6-3l2.5,6.5h1.3l2.5-6.5h-1.2l-2,5.5-2-5.5h-1.2Zm7.4,6.5h1.1v-6.5h-1.1v6.5Zm.6-7.6c.4,0,.7-.3.7-.7s-.3-.7-.7-.7-.7.3-.7.7.3.7.7.7Zm2,4.3c0,2.1,1.3,3.4,3.2,3.4s2.7-.9,3-2.2h-1.2c-.2.8-.9,1.3-1.8,1.3s-2.1-.8-2.1-2.5.9-2.4,2.1-2.4,1.6.5,1.8,1.3h1.2c-.3-1.4-1.4-2.2-3-2.2s-3.2,1.3-3.2,3.3Zm10.4-2.4c1.1,0,2.1.7,2.1,2h-4.1c.1-1.3,1-2,2.1-2Zm3,3.7h-1.2c-.2.7-.9,1.2-1.8,1.2s-2-.7-2.1-2h5.2c0-.2,0-.4,0-.7,0-1.8-1.2-3.1-3.1-3.1s-3.2,1.3-3.2,3.3,1.4,3.4,3.2,3.4,2.7-.9,3-2.1Zm-72.1,17.3c.8,0,1.5-.6,1.5-1.4s-.7-1.5-1.5-1.5-1.4.6-1.4,1.5.6,1.4,1.4,1.4Zm6-4.9h2.3v7.4h1.1v-7.4h2.3v-.9h-5.6v.9Zm6.9,7.4h1.1v-6.5h-1.1v6.5Zm.6-7.6c.4,0,.7-.3.7-.7s-.3-.7-.7-.7-.7.3-.7.7.3.7.7.7Zm2,4.3c0,2.1,1.3,3.4,3.2,3.4s2.7-.9,3-2.2h-1.2c-.2.8-.9,1.3-1.8,1.3s-2.1-.8-2.1-2.5.9-2.4,2.1-2.4,1.6.5,1.8,1.3h1.2c-.3-1.4-1.4-2.2-3-2.2s-3.2,1.3-3.2,3.3Zm7.6,3.3h1.1v-2.9l2.5,2.9h1.5l-3.1-3.3,3.1-3.2h-1.5l-2.5,2.9v-5.2h-1.1v8.8Zm8.9-5.7c1.1,0,2.1.7,2.1,2h-4.1c.1-1.3,1-2,2.1-2Zm3,3.7h-1.2c-.2.7-.9,1.2-1.8,1.2s-2-.7-2.1-2h5.2c0-.2,0-.4,0-.7,0-1.8-1.2-3.1-3.1-3.1s-3.2,1.3-3.2,3.3,1.4,3.4,3.2,3.4,2.7-.9,3-2.1Zm1.8.2c0,1.3.7,1.8,1.8,1.8h1v-.9h-.8c-.7,0-.9-.2-.9-.9v-3.8h1.7v-.9h-1.7v-1.6h-1.1v1.6h-.8v.9h.8v3.8Zm6.8-1.5c0,2.1,1.3,3.4,3.2,3.4s2.7-.9,3-2.2h-1.2c-.2.8-.9,1.3-1.8,1.3s-2.1-.8-2.1-2.5.9-2.4,2.1-2.4,1.6.5,1.8,1.3h1.2c-.3-1.4-1.4-2.2-3-2.2s-3.2,1.3-3.2,3.3Zm8.7-.3c0-1.5.8-2,1.8-2h.3v-1.1c-1,0-1.7.5-2.1,1.2v-1.1h-1.1v6.5h1.1v-3.5Zm6.1-2.2c1.1,0,2.1.7,2.1,2h-4.1c.1-1.3,1-2,2.1-2Zm3,3.7h-1.2c-.2.7-.9,1.2-1.8,1.2s-2-.7-2.1-2h5.2c0-.2,0-.4,0-.7,0-1.8-1.2-3.1-3.1-3.1s-3.2,1.3-3.2,3.3,1.4,3.4,3.2,3.4,2.7-.9,3-2.1Zm1.2-1.3c0,2,1.3,3.4,3.1,3.4s2-.6,2.4-1.3v1.2h1.1v-6.5h-1.1v1.2c-.4-.7-1.2-1.3-2.4-1.3-1.7,0-3.1,1.3-3.1,3.3Zm5.5,0c0,1.5-1,2.4-2.2,2.4s-2.2-.9-2.2-2.4,1-2.4,2.2-2.4,2.2.9,2.2,2.4Zm3.2,1.5c0,1.3.7,1.8,1.8,1.8h1v-.9h-.8c-.7,0-.9-.2-.9-.9v-3.8h1.7v-.9h-1.7v-1.6h-1.1v1.6h-.8v.9h.8v3.8Zm4.1,1.8h1.1v-6.5h-1.1v6.5Zm.6-7.6c.4,0,.7-.3.7-.7s-.3-.7-.7-.7-.7.3-.7.7.3.7.7.7Zm8.5,4.3c0-2.1-1.4-3.3-3.3-3.3s-3.3,1.3-3.3,3.3,1.4,3.4,3.2,3.4,3.3-1.3,3.3-3.4Zm-5.5,0c0-1.6,1-2.4,2.2-2.4s2.2.8,2.2,2.4-1.1,2.4-2.2,2.4-2.1-.8-2.1-2.4Zm11.6,3.3h1.1v-3.8c0-1.9-1.2-2.8-2.7-2.8s-1.7.4-2.1,1v-.9h-1.1v6.5h1.1v-3.6c0-1.4.8-2.1,1.9-2.1s1.8.7,1.8,2v3.7Zm-90.6,15.3c.8,0,1.5-.6,1.5-1.4s-.7-1.5-1.5-1.5-1.4.6-1.4,1.5.6,1.4,1.4,1.4Zm11,2.5h1.4l-3.8-4.1,3.7-4.1h-1.4l-3.4,3.8v-3.8h-1.1v8.3h1.1v-3.8l3.4,3.8Zm7.4,0h1.1v-3.8c0-1.9-1.2-2.8-2.7-2.8s-1.7.4-2.1,1v-.9h-1.1v6.5h1.1v-3.6c0-1.4.8-2.1,1.9-2.1s1.8.7,1.8,2v3.7Zm9-3.3c0-2.1-1.4-3.3-3.3-3.3s-3.3,1.3-3.3,3.3,1.4,3.4,3.2,3.4,3.3-1.3,3.3-3.4Zm-5.5,0c0-1.6,1-2.4,2.2-2.4s2.2.8,2.2,2.4-1.1,2.4-2.2,2.4-2.1-.8-2.1-2.4Zm8.2,3.3h1.1l1.6-5.2,1.6,5.2h1.1l2-6.5h-1.1l-1.5,5.5-1.6-5.5h-1.1l-1.6,5.5-1.5-5.5h-1.1l2,6.5Zm8.5,0h1.1v-8.8h-1.1v8.8Zm5.7-5.7c1.1,0,2.1.7,2.1,2h-4.1c.1-1.3,1-2,2.1-2Zm3,3.7h-1.2c-.2.7-.9,1.2-1.8,1.2s-2-.7-2.1-2h5.2c0-.2,0-.4,0-.7,0-1.8-1.2-3.1-3.1-3.1s-3.2,1.3-3.2,3.3,1.4,3.4,3.2,3.4,2.7-.9,3-2.1Zm1.2-1.3c0,2,1.3,3.4,3.1,3.4s2-.6,2.4-1.3v1.2h1.1v-8.8h-1.1v3.4c-.5-.7-1.4-1.3-2.4-1.3-1.8,0-3.1,1.3-3.1,3.3Zm5.5,0c0,1.5-1,2.4-2.2,2.4s-2.2-.9-2.2-2.4,1-2.4,2.2-2.4,2.2.9,2.2,2.4Zm2.5,0c0,2,1.3,3.4,3.1,3.4s2-.6,2.4-1.3v1.4c0,1.4-.9,2.1-2,2.1s-1.8-.5-2.1-1.3h-1.1c.2,1.4,1.4,2.3,3.1,2.3s3.1-1.3,3.1-3.1v-6.6h-1.1v1.2c-.4-.7-1.2-1.3-2.4-1.3-1.7,0-3.1,1.3-3.1,3.3Zm5.5,0c0,1.5-1,2.4-2.2,2.4s-2.2-.9-2.2-2.4,1-2.4,2.2-2.4,2.2.9,2.2,2.4Zm5.7-2.4c1.1,0,2.1.7,2.1,2h-4.1c.1-1.3,1-2,2.1-2Zm3,3.7h-1.2c-.2.7-.9,1.2-1.8,1.2s-2-.7-2.1-2h5.2c0-.2,0-.4,0-.7,0-1.8-1.2-3.1-3.1-3.1s-3.2,1.3-3.2,3.3,1.4,3.4,3.2,3.4,2.7-.9,3-2.1Zm4.7,2h1.1v-6.1l2.7,6.1h.8l2.7-6.1v6.1h1.1v-8.2h-1.2l-3,6.8-3-6.8h-1.2v8.2Zm9.8-3.3c0,2,1.3,3.4,3.1,3.4s2-.6,2.4-1.3v1.2h1.1v-6.5h-1.1v1.2c-.4-.7-1.2-1.3-2.4-1.3-1.7,0-3.1,1.3-3.1,3.3Zm5.5,0c0,1.5-1,2.4-2.2,2.4s-2.2-.9-2.2-2.4,1-2.4,2.2-2.4,2.2.9,2.2,2.4Zm7.7,3.3h1.1v-3.8c0-1.9-1.2-2.8-2.7-2.8s-1.7.4-2.1,1v-.9h-1.1v6.5h1.1v-3.6c0-1.4.8-2.1,1.9-2.1s1.8.7,1.8,2v3.7Zm2.4-3.3c0,2,1.3,3.4,3.1,3.4s2-.6,2.4-1.3v1.2h1.1v-6.5h-1.1v1.2c-.4-.7-1.2-1.3-2.4-1.3-1.7,0-3.1,1.3-3.1,3.3Zm5.5,0c0,1.5-1,2.4-2.2,2.4s-2.2-.9-2.2-2.4,1-2.4,2.2-2.4,2.2.9,2.2,2.4Zm2.5,0c0,2,1.3,3.4,3.1,3.4s2-.6,2.4-1.3v1.4c0,1.4-.9,2.1-2,2.1s-1.8-.5-2.1-1.3h-1.1c.2,1.4,1.4,2.3,3.1,2.3s3.1-1.3,3.1-3.1v-6.6h-1.1v1.2c-.4-.7-1.2-1.3-2.4-1.3-1.7,0-3.1,1.3-3.1,3.3Zm5.5,0c0,1.5-1,2.4-2.2,2.4s-2.2-.9-2.2-2.4,1-2.4,2.2-2.4,2.2.9,2.2,2.4Zm5.7-2.4c1.1,0,2.1.7,2.1,2h-4.1c.1-1.3,1-2,2.1-2Zm3,3.7h-1.2c-.2.7-.9,1.2-1.8,1.2s-2-.7-2.1-2h5.2c0-.2,0-.4,0-.7,0-1.8-1.2-3.1-3.1-3.1s-3.2,1.3-3.2,3.3,1.4,3.4,3.2,3.4,2.7-.9,3-2.1Zm10.9,2h1.1v-3.8c0-1.9-1.2-2.8-2.6-2.8s-1.9.5-2.3,1.4c-.4-1-1.3-1.4-2.4-1.4s-1.6.4-2.1,1.1v-.9h-1.1v6.5h1.1v-3.6c0-1.4.7-2.1,1.8-2.1s1.8.7,1.8,2v3.7h1.1v-3.6c0-1.4.7-2.1,1.8-2.1s1.8.7,1.8,2v3.7Zm5.6-5.7c1.1,0,2.1.7,2.1,2h-4.1c.1-1.3,1-2,2.1-2Zm3,3.7h-1.2c-.2.7-.9,1.2-1.8,1.2s-2-.7-2.1-2h5.2c0-.2,0-.4,0-.7,0-1.8-1.2-3.1-3.1-3.1s-3.2,1.3-3.2,3.3,1.4,3.4,3.2,3.4,2.7-.9,3-2.1Zm6.3,2h1.1v-3.8c0-1.9-1.2-2.8-2.7-2.8s-1.7.4-2.1,1v-.9h-1.1v6.5h1.1v-3.6c0-1.4.8-2.1,1.9-2.1s1.8.7,1.8,2v3.7Zm3.1-1.8c0,1.3.7,1.8,1.8,1.8h1v-.9h-.8c-.7,0-.9-.2-.9-.9v-3.8h1.7v-.9h-1.7v-1.6h-1.1v1.6h-.8v.9h.8v3.8Zm-151.9,17.1c.8,0,1.5-.6,1.5-1.4s-.7-1.5-1.5-1.5-1.4.6-1.4,1.5.6,1.4,1.4,1.4Zm12.1,2.5h1.1l-3-8.2h-1.2l-3,8.2h1.1l.7-1.8h3.6l.7,1.8Zm-1-2.7h-3l1.5-4.2,1.5,4.2Zm8.1.9c0-2.3-3.8-1.5-3.8-3s.5-.9,1.3-.9,1.4.5,1.4,1.1h1.1c0-1.3-1-2-2.5-2s-2.4.8-2.4,1.8c0,2.4,3.8,1.6,3.8,3s-.5,1-1.3,1-1.5-.5-1.5-1.1h-1.1c0,1.2,1.1,2,2.7,2s2.4-.8,2.4-1.9Zm6.2,0c0-2.3-3.8-1.5-3.8-3s.5-.9,1.3-.9,1.4.5,1.4,1.1h1.1c0-1.3-1-2-2.5-2s-2.4.8-2.4,1.8c0,2.4,3.8,1.6,3.8,3s-.5,1-1.3,1-1.5-.5-1.5-1.1h-1.1c0,1.2,1.1,2,2.7,2s2.4-.8,2.4-1.9Zm1.5,1.8h1.1v-6.5h-1.1v6.5Zm.6-7.6c.4,0,.7-.3.7-.7s-.3-.7-.7-.7-.7.3-.7.7.3.7.7.7Zm7,5.8c0-2.3-3.8-1.5-3.8-3s.5-.9,1.3-.9,1.4.5,1.4,1.1h1.1c0-1.3-1-2-2.5-2s-2.4.8-2.4,1.8c0,2.4,3.8,1.6,3.8,3s-.5,1-1.3,1-1.5-.5-1.5-1.1h-1.1c0,1.2,1.1,2,2.7,2s2.4-.8,2.4-1.9Zm1.8,0c0,1.3.7,1.8,1.8,1.8h1v-.9h-.8c-.7,0-.9-.2-.9-.9v-3.8h1.7v-.9h-1.7v-1.6h-1.1v1.6h-.8v.9h.8v3.8Zm6.8-3.9c1.1,0,2.1.7,2.1,2h-4.1c.1-1.3,1-2,2.1-2Zm3,3.7h-1.2c-.2.7-.9,1.2-1.8,1.2s-2-.7-2.1-2h5.2c0-.2,0-.4,0-.7,0-1.8-1.2-3.1-3.1-3.1s-3.2,1.3-3.2,3.3,1.4,3.4,3.2,3.4,2.7-.9,3-2.1Zm1.2-1.3c0,2,1.3,3.4,3.1,3.4s2-.6,2.4-1.3v1.2h1.1v-8.8h-1.1v3.4c-.5-.7-1.4-1.3-2.4-1.3-1.8,0-3.1,1.3-3.1,3.3Zm5.5,0c0,1.5-1,2.4-2.2,2.4s-2.2-.9-2.2-2.4,1-2.4,2.2-2.4,2.2.9,2.2,2.4Zm11.4,1c0-3.1-4.5-1.7-4.5-3.9s.7-1.4,1.6-1.3c1,0,1.5.6,1.6,1.2h1.2c-.1-1.3-1.2-2.1-2.7-2.1s-2.7.9-2.7,2.3c0,3.1,4.5,1.6,4.5,3.9s-.6,1.4-1.7,1.4-1.6-.7-1.7-1.4h-1.2c0,1.4,1.2,2.3,2.9,2.3s2.8-1.2,2.8-2.3Zm4.4-3.4c1.1,0,2.1.7,2.1,2h-4.1c.1-1.3,1-2,2.1-2Zm3,3.7h-1.2c-.2.7-.9,1.2-1.8,1.2s-2-.7-2.1-2h5.2c0-.2,0-.4,0-.7,0-1.8-1.2-3.1-3.1-3.1s-3.2,1.3-3.2,3.3,1.4,3.4,3.2,3.4,2.7-.9,3-2.1Zm2.6-1.5c0-1.5.8-2,1.8-2h.3v-1.1c-1,0-1.7.5-2.1,1.2v-1.1h-1.1v6.5h1.1v-3.5Zm2.6-3l2.5,6.5h1.3l2.5-6.5h-1.2l-2,5.5-2-5.5h-1.2Zm7.4,6.5h1.1v-6.5h-1.1v6.5Zm.6-7.6c.4,0,.7-.3.7-.7s-.3-.7-.7-.7-.7.3-.7.7.3.7.7.7Zm2,4.3c0,2.1,1.3,3.4,3.2,3.4s2.7-.9,3-2.2h-1.2c-.2.8-.9,1.3-1.8,1.3s-2.1-.8-2.1-2.5.9-2.4,2.1-2.4,1.6.5,1.8,1.3h1.2c-.3-1.4-1.4-2.2-3-2.2s-3.2,1.3-3.2,3.3Zm10.4-2.4c1.1,0,2.1.7,2.1,2h-4.1c.1-1.3,1-2,2.1-2Zm3,3.7h-1.2c-.2.7-.9,1.2-1.8,1.2s-2-.7-2.1-2h5.2c0-.2,0-.4,0-.7,0-1.8-1.2-3.1-3.1-3.1s-3.2,1.3-3.2,3.3,1.4,3.4,3.2,3.4,2.7-.9,3-2.1Zm-100.2,17.3c.8,0,1.5-.6,1.5-1.4s-.7-1.5-1.5-1.5-1.4.6-1.4,1.5.6,1.4,1.4,1.4Zm6.1-1.6c0,2.5,1.8,4.2,4.1,4.2s3.2-.9,3.8-2.5h-1.3c-.5,1-1.3,1.5-2.5,1.5-1.7,0-3-1.3-3-3.3s1.3-3.3,3-3.3,2.1.6,2.5,1.6h1.3c-.6-1.6-2-2.5-3.8-2.5s-4.1,1.8-4.1,4.2Zm9.2.9c0,2,1.3,3.4,3.1,3.4s2-.6,2.4-1.3v1.2h1.1v-6.5h-1.1v1.2c-.4-.7-1.2-1.3-2.4-1.3-1.7,0-3.1,1.3-3.1,3.3Zm5.5,0c0,1.5-1,2.4-2.2,2.4s-2.2-.9-2.2-2.4,1-2.4,2.2-2.4,2.2.9,2.2,2.4Zm2.9,3.3h1.1v-8.8h-1.1v8.8Zm5.7-5.7c1.1,0,2.1.7,2.1,2h-4.1c.1-1.3,1-2,2.1-2Zm3,3.7h-1.2c-.2.7-.9,1.2-1.8,1.2s-2-.7-2.1-2h5.2c0-.2,0-.4,0-.7,0-1.8-1.2-3.1-3.1-3.1s-3.2,1.3-3.2,3.3,1.4,3.4,3.2,3.4,2.7-.9,3-2.1Zm6.3,2h1.1v-3.8c0-1.9-1.2-2.8-2.7-2.8s-1.7.4-2.1,1v-.9h-1.1v6.5h1.1v-3.6c0-1.4.8-2.1,1.9-2.1s1.8.7,1.8,2v3.7Zm2.4-3.3c0,2,1.3,3.4,3.1,3.4s2-.6,2.4-1.3v1.2h1.1v-8.8h-1.1v3.4c-.5-.7-1.4-1.3-2.4-1.3-1.8,0-3.1,1.3-3.1,3.3Zm5.5,0c0,1.5-1,2.4-2.2,2.4s-2.2-.9-2.2-2.4,1-2.4,2.2-2.4,2.2.9,2.2,2.4Zm2.5,0c0,2,1.3,3.4,3.1,3.4s2-.6,2.4-1.3v1.2h1.1v-6.5h-1.1v1.2c-.4-.7-1.2-1.3-2.4-1.3-1.7,0-3.1,1.3-3.1,3.3Zm5.5,0c0,1.5-1,2.4-2.2,2.4s-2.2-.9-2.2-2.4,1-2.4,2.2-2.4,2.2.9,2.2,2.4Zm4-.3c0-1.5.8-2,1.8-2h.3v-1.1c-1,0-1.7.5-2.1,1.2v-1.1h-1.1v6.5h1.1v-3.5Zm6.7,3.5h1.1v-5.6h1.4v-.9h-1.4v-.5c0-.8.3-1.2,1.3-1.2v-.9c-1.7,0-2.4.7-2.4,2.1v.5h-.8v.9h.8v5.6Zm9.9-3.3c0-2.1-1.4-3.3-3.3-3.3s-3.3,1.3-3.3,3.3,1.4,3.4,3.2,3.4,3.3-1.3,3.3-3.4Zm-5.5,0c0-1.6,1-2.4,2.2-2.4s2.2.8,2.2,2.4-1.1,2.4-2.2,2.4-2.1-.8-2.1-2.4Zm8-.3c0-1.5.8-2,1.8-2h.3v-1.1c-1,0-1.7.5-2.1,1.2v-1.1h-1.1v6.5h1.1v-3.5Zm11.9,1.3c0-3.1-4.5-1.7-4.5-3.9s.7-1.4,1.6-1.3c1,0,1.5.6,1.6,1.2h1.2c-.1-1.3-1.2-2.1-2.7-2.1s-2.7.9-2.7,2.3c0,3.1,4.5,1.6,4.5,3.9s-.6,1.4-1.7,1.4-1.6-.7-1.7-1.4h-1.2c0,1.4,1.2,2.3,2.9,2.3s2.8-1.2,2.8-2.3Zm1.2-1c0,2.1,1.3,3.4,3.2,3.4s2.7-.9,3-2.2h-1.2c-.2.8-.9,1.3-1.8,1.3s-2.1-.8-2.1-2.5.9-2.4,2.1-2.4,1.6.5,1.8,1.3h1.2c-.3-1.4-1.4-2.2-3-2.2s-3.2,1.3-3.2,3.3Zm7.6,3.3h1.1v-3.6c0-1.4.8-2.1,1.9-2.1s1.8.7,1.8,2v3.7h1.1v-3.8c0-1.9-1.2-2.8-2.6-2.8s-1.7.4-2.1,1.1v-3.2h-1.1v8.8Zm10.3-5.7c1.1,0,2.1.7,2.1,2h-4.1c.1-1.3,1-2,2.1-2Zm3,3.7h-1.2c-.2.7-.9,1.2-1.8,1.2s-2-.7-2.1-2h5.2c0-.2,0-.4,0-.7,0-1.8-1.2-3.1-3.1-3.1s-3.2,1.3-3.2,3.3,1.4,3.4,3.2,3.4,2.7-.9,3-2.1Zm1.2-1.3c0,2,1.3,3.4,3.1,3.4s2-.6,2.4-1.3v1.2h1.1v-8.8h-1.1v3.4c-.5-.7-1.4-1.3-2.4-1.3-1.8,0-3.1,1.3-3.1,3.3Zm5.5,0c0,1.5-1,2.4-2.2,2.4s-2.2-.9-2.2-2.4,1-2.4,2.2-2.4,2.2.9,2.2,2.4Zm8.7-3.2h-1.1v3.6c0,1.4-.7,2.1-1.9,2.1s-1.8-.7-1.8-2v-3.7h-1.1v3.8c0,1.9,1.2,2.8,2.7,2.8s1.7-.4,2.1-1.1v1h1.1v-6.5Zm1.8,6.5h1.1v-8.8h-1.1v8.8Zm2.9,0h1.1v-6.5h-1.1v6.5Zm.6-7.6c.4,0,.7-.3.7-.7s-.3-.7-.7-.7-.7.3-.7.7.3.7.7.7Zm7.1,7.6h1.1v-3.8c0-1.9-1.2-2.8-2.7-2.8s-1.7.4-2.1,1v-.9h-1.1v6.5h1.1v-3.6c0-1.4.8-2.1,1.9-2.1s1.8.7,1.8,2v3.7Zm2.4-3.3c0,2,1.3,3.4,3.1,3.4s2-.6,2.4-1.3v1.4c0,1.4-.9,2.1-2,2.1s-1.8-.5-2.1-1.3h-1.1c.2,1.4,1.4,2.3,3.1,2.3s3.1-1.3,3.1-3.1v-6.6h-1.1v1.2c-.4-.7-1.2-1.3-2.4-1.3-1.7,0-3.1,1.3-3.1,3.3Zm5.5,0c0,1.5-1,2.4-2.2,2.4s-2.2-.9-2.2-2.4,1-2.4,2.2-2.4,2.2.9,2.2,2.4Zm-147.5,18.5c.8,0,1.5-.6,1.5-1.4s-.7-1.5-1.5-1.5-1.4.6-1.4,1.5.6,1.4,1.4,1.4Zm6.5,2.5h1.1v-6.1l2.7,6.1h.8l2.7-6.1v6.1h1.1v-8.2h-1.2l-3,6.8-3-6.8h-1.2v8.2Zm9.8-3.3c0,2,1.3,3.4,3.1,3.4s2-.6,2.4-1.3v1.2h1.1v-6.5h-1.1v1.2c-.4-.7-1.2-1.3-2.4-1.3-1.7,0-3.1,1.3-3.1,3.3Zm5.5,0c0,1.5-1,2.4-2.2,2.4s-2.2-.9-2.2-2.4,1-2.4,2.2-2.4,2.2.9,2.2,2.4Zm2.9,3.3h1.1v-6.5h-1.1v6.5Zm.6-7.6c.4,0,.7-.3.7-.7s-.3-.7-.7-.7-.7.3-.7.7.3.7.7.7Zm7.1,7.6h1.1v-3.8c0-1.9-1.2-2.8-2.7-2.8s-1.7.4-2.1,1v-.9h-1.1v6.5h1.1v-3.6c0-1.4.8-2.1,1.9-2.1s1.8.7,1.8,2v3.7Zm3.1-1.8c0,1.3.7,1.8,1.8,1.8h1v-.9h-.8c-.7,0-.9-.2-.9-.9v-3.8h1.7v-.9h-1.7v-1.6h-1.1v1.6h-.8v.9h.8v3.8Zm6.8-3.9c1.1,0,2.1.7,2.1,2h-4.1c.1-1.3,1-2,2.1-2Zm3,3.7h-1.2c-.2.7-.9,1.2-1.8,1.2s-2-.7-2.1-2h5.2c0-.2,0-.4,0-.7,0-1.8-1.2-3.1-3.1-3.1s-3.2,1.3-3.2,3.3,1.4,3.4,3.2,3.4,2.7-.9,3-2.1Zm6.3,2h1.1v-3.8c0-1.9-1.2-2.8-2.7-2.8s-1.7.4-2.1,1v-.9h-1.1v6.5h1.1v-3.6c0-1.4.8-2.1,1.9-2.1s1.8.7,1.8,2v3.7Zm2.4-3.3c0,2,1.3,3.4,3.1,3.4s2-.6,2.4-1.3v1.2h1.1v-6.5h-1.1v1.2c-.4-.7-1.2-1.3-2.4-1.3-1.7,0-3.1,1.3-3.1,3.3Zm5.5,0c0,1.5-1,2.4-2.2,2.4s-2.2-.9-2.2-2.4,1-2.4,2.2-2.4,2.2.9,2.2,2.4Zm7.7,3.3h1.1v-3.8c0-1.9-1.2-2.8-2.7-2.8s-1.7.4-2.1,1v-.9h-1.1v6.5h1.1v-3.6c0-1.4.8-2.1,1.9-2.1s1.8.7,1.8,2v3.7Zm2.4-3.3c0,2.1,1.3,3.4,3.2,3.4s2.7-.9,3-2.2h-1.2c-.2.8-.9,1.3-1.8,1.3s-2.1-.8-2.1-2.5.9-2.4,2.1-2.4,1.6.5,1.8,1.3h1.2c-.3-1.4-1.4-2.2-3-2.2s-3.2,1.3-3.2,3.3Zm10.4-2.4c1.1,0,2.1.7,2.1,2h-4.1c.1-1.3,1-2,2.1-2Zm3,3.7h-1.2c-.2.7-.9,1.2-1.8,1.2s-2-.7-2.1-2h5.2c0-.2,0-.4,0-.7,0-1.8-1.2-3.1-3.1-3.1s-3.2,1.3-3.2,3.3,1.4,3.4,3.2,3.4,2.7-.9,3-2.1Zm10,2h1.1v-8.3h-1.1v3.6h-4.2v-3.6h-1.1v8.3h1.1v-3.7h4.2v3.7Zm2.9,0h1.1v-6.5h-1.1v6.5Zm.6-7.6c.4,0,.7-.3.7-.7s-.3-.7-.7-.7-.7.3-.7.7.3.7.7.7Zm7,5.8c0-2.3-3.8-1.5-3.8-3s.5-.9,1.3-.9,1.4.5,1.4,1.1h1.1c0-1.3-1-2-2.5-2s-2.4.8-2.4,1.8c0,2.4,3.8,1.6,3.8,3s-.5,1-1.3,1-1.5-.5-1.5-1.1h-1.1c0,1.2,1.1,2,2.7,2s2.4-.8,2.4-1.9Zm1.8,0c0,1.3.7,1.8,1.8,1.8h1v-.9h-.8c-.7,0-.9-.2-.9-.9v-3.8h1.7v-.9h-1.7v-1.6h-1.1v1.6h-.8v.9h.8v3.8Zm10.2-1.5c0-2.1-1.4-3.3-3.3-3.3s-3.3,1.3-3.3,3.3,1.4,3.4,3.2,3.4,3.3-1.3,3.3-3.4Zm-5.5,0c0-1.6,1-2.4,2.2-2.4s2.2.8,2.2,2.4-1.1,2.4-2.2,2.4-2.1-.8-2.1-2.4Zm8-.3c0-1.5.8-2,1.8-2h.3v-1.1c-1,0-1.7.5-2.1,1.2v-1.1h-1.1v6.5h1.1v-3.5Zm5.8,2.3l-2-5.3h-1.2l2.6,6.4-1.3,3.1h1.1l3.9-9.6h-1.1l-2,5.3Z"/><path d="m20,138c.8,0,1.5-.6,1.5-1.4s-.7-1.5-1.5-1.5-1.4.6-1.4,1.5.6,1.4,1.4,1.4Zm14.4-1.6c0-2.5-1.8-4.2-4.2-4.2s-4.2,1.7-4.2,4.2,1.8,4.2,4.2,4.2,4.2-1.7,4.2-4.2Zm-7.2,0c0-2,1.3-3.3,3-3.3s3,1.3,3,3.3-1.3,3.3-3,3.3-3-1.3-3-3.3Zm9.7.6c0-1.5.8-2,1.8-2h.3v-1.1c-1,0-1.7.5-2.1,1.2v-1.1h-1.1v6.5h1.1v-3.5Zm2.9.3c0,2,1.3,3.4,3.1,3.4s2-.6,2.4-1.3v1.2h1.1v-8.8h-1.1v3.4c-.5-.7-1.4-1.3-2.4-1.3-1.8,0-3.1,1.3-3.1,3.3Zm5.5,0c0,1.5-1,2.4-2.2,2.4s-2.2-.9-2.2-2.4,1-2.4,2.2-2.4,2.2.9,2.2,2.4Zm5.7-2.4c1.1,0,2.1.7,2.1,2h-4.1c.1-1.3,1-2,2.1-2Zm3,3.7h-1.2c-.2.7-.9,1.2-1.8,1.2s-2-.7-2.1-2h5.2c0-.2,0-.4,0-.7,0-1.8-1.2-3.1-3.1-3.1s-3.2,1.3-3.2,3.3,1.4,3.4,3.2,3.4,2.7-.9,3-2.1Zm2.6-1.5c0-1.5.8-2,1.8-2h.3v-1.1c-1,0-1.7.5-2.1,1.2v-1.1h-1.1v6.5h1.1v-3.5Zm8,1.8c0-2.3-3.8-1.5-3.8-3s.5-.9,1.3-.9,1.4.5,1.4,1.1h1.1c0-1.3-1-2-2.5-2s-2.4.8-2.4,1.8c0,2.4,3.8,1.6,3.8,3s-.5,1-1.3,1-1.5-.5-1.5-1.1h-1.1c0,1.2,1.1,2,2.7,2s2.4-.8,2.4-1.9Zm-44.7,17.1c.8,0,1.5-.6,1.5-1.4s-.7-1.5-1.5-1.5-1.4.6-1.4,1.5.6,1.4,1.4,1.4Zm6-4.9h2.3v7.4h1.1v-7.4h2.3v-.9h-5.6v.9Zm6.9,7.4h1.1v-6.5h-1.1v6.5Zm.6-7.6c.4,0,.7-.3.7-.7s-.3-.7-.7-.7-.7.3-.7.7.3.7.7.7Zm2,4.3c0,2.1,1.3,3.4,3.2,3.4s2.7-.9,3-2.2h-1.2c-.2.8-.9,1.3-1.8,1.3s-2.1-.8-2.1-2.5.9-2.4,2.1-2.4,1.6.5,1.8,1.3h1.2c-.3-1.4-1.4-2.2-3-2.2s-3.2,1.3-3.2,3.3Zm7.6,3.3h1.1v-2.9l2.5,2.9h1.5l-3.1-3.3,3.1-3.2h-1.5l-2.5,2.9v-5.2h-1.1v8.8Zm8.9-5.7c1.1,0,2.1.7,2.1,2h-4.1c.1-1.3,1-2,2.1-2Zm3,3.7h-1.2c-.2.7-.9,1.2-1.8,1.2s-2-.7-2.1-2h5.2c0-.2,0-.4,0-.7,0-1.8-1.2-3.1-3.1-3.1s-3.2,1.3-3.2,3.3,1.4,3.4,3.2,3.4,2.7-.9,3-2.1Zm1.8.2c0,1.3.7,1.8,1.8,1.8h1v-.9h-.8c-.7,0-.9-.2-.9-.9v-3.8h1.7v-.9h-1.7v-1.6h-1.1v1.6h-.8v.9h.8v3.8Zm8.8,0c0-2.3-3.8-1.5-3.8-3s.5-.9,1.3-.9,1.4.5,1.4,1.1h1.1c0-1.3-1-2-2.5-2s-2.4.8-2.4,1.8c0,2.4,3.8,1.6,3.8,3s-.5,1-1.3,1-1.5-.5-1.5-1.1h-1.1c0,1.2,1.1,2,2.7,2s2.4-.8,2.4-1.9Zm-45.5,17.1c.8,0,1.5-.6,1.5-1.4s-.7-1.5-1.5-1.5-1.4.6-1.4,1.5.6,1.4,1.4,1.4Zm7.2-1.6c0-2,1.3-3.3,3-3.3s3,1.3,3,3.3-1.3,3.3-3,3.3-3-1.3-3-3.3Zm7.2,0c0-2.5-1.8-4.2-4.2-4.2s-4.2,1.7-4.2,4.2,1.8,4.2,4.2,4.2.8,0,1.2-.2l1.6,1.6h1.4l-2.1-2.1c1.2-.7,2-2,2-3.6Zm7.2-2.4h-1.1v3.6c0,1.4-.7,2.1-1.9,2.1s-1.8-.7-1.8-2v-3.7h-1.1v3.8c0,1.9,1.2,2.8,2.7,2.8s1.7-.4,2.1-1.1v1h1.1v-6.5Zm1.8,6.5h1.1v-6.5h-1.1v6.5Zm.6-7.6c.4,0,.7-.3.7-.7s-.3-.7-.7-.7-.7.3-.7.7.3.7.7.7Zm2,4.3c0,2.1,1.3,3.4,3.2,3.4s2.7-.9,3-2.2h-1.2c-.2.8-.9,1.3-1.8,1.3s-2.1-.8-2.1-2.5.9-2.4,2.1-2.4,1.6.5,1.8,1.3h1.2c-.3-1.4-1.4-2.2-3-2.2s-3.2,1.3-3.2,3.3Zm7.6,3.3h1.1v-2.9l2.5,2.9h1.5l-3.1-3.3,3.1-3.2h-1.5l-2.5,2.9v-5.2h-1.1v8.8Zm17.2-4.1c0-2.5-1.8-4.2-4.2-4.2s-4.2,1.7-4.2,4.2,1.8,4.2,4.2,4.2,4.2-1.7,4.2-4.2Zm-7.2,0c0-2,1.3-3.3,3-3.3s3,1.3,3,3.3-1.3,3.3-3,3.3-3-1.3-3-3.3Zm9.7.6c0-1.5.8-2,1.8-2h.3v-1.1c-1,0-1.7.5-2.1,1.2v-1.1h-1.1v6.5h1.1v-3.5Zm2.9.3c0,2,1.3,3.4,3.1,3.4s2-.6,2.4-1.3v1.2h1.1v-8.8h-1.1v3.4c-.5-.7-1.4-1.3-2.4-1.3-1.8,0-3.1,1.3-3.1,3.3Zm5.5,0c0,1.5-1,2.4-2.2,2.4s-2.2-.9-2.2-2.4,1-2.4,2.2-2.4,2.2.9,2.2,2.4Zm5.7-2.4c1.1,0,2.1.7,2.1,2h-4.1c.1-1.3,1-2,2.1-2Zm3,3.7h-1.2c-.2.7-.9,1.2-1.8,1.2s-2-.7-2.1-2h5.2c0-.2,0-.4,0-.7,0-1.8-1.2-3.1-3.1-3.1s-3.2,1.3-3.2,3.3,1.4,3.4,3.2,3.4,2.7-.9,3-2.1Zm2.6-1.5c0-1.5.8-2,1.8-2h.3v-1.1c-1,0-1.7.5-2.1,1.2v-1.1h-1.1v6.5h1.1v-3.5Zm8,1.8c0-2.3-3.8-1.5-3.8-3s.5-.9,1.3-.9,1.4.5,1.4,1.1h1.1c0-1.3-1-2-2.5-2s-2.4.8-2.4,1.8c0,2.4,3.8,1.6,3.8,3s-.5,1-1.3,1-1.5-.5-1.5-1.1h-1.1c0,1.2,1.1,2,2.7,2s2.4-.8,2.4-1.9Zm4.4,3.8h1.1l3.2-13.2h-1.1l-3.2,13.2Zm17-6.2c0-2.5-1.8-4.2-4.2-4.2s-4.2,1.7-4.2,4.2,1.8,4.2,4.2,4.2,4.2-1.7,4.2-4.2Zm-7.2,0c0-2,1.3-3.3,3-3.3s3,1.3,3,3.3-1.3,3.3-3,3.3-3-1.3-3-3.3Zm9.7.6c0-1.5.8-2,1.8-2h.3v-1.1c-1,0-1.7.5-2.1,1.2v-1.1h-1.1v6.5h1.1v-3.5Zm2.9.3c0,2,1.3,3.4,3.1,3.4s2-.6,2.4-1.3v1.2h1.1v-8.8h-1.1v3.4c-.5-.7-1.4-1.3-2.4-1.3-1.8,0-3.1,1.3-3.1,3.3Zm5.5,0c0,1.5-1,2.4-2.2,2.4s-2.2-.9-2.2-2.4,1-2.4,2.2-2.4,2.2.9,2.2,2.4Zm5.7-2.4c1.1,0,2.1.7,2.1,2h-4.1c.1-1.3,1-2,2.1-2Zm3,3.7h-1.2c-.2.7-.9,1.2-1.8,1.2s-2-.7-2.1-2h5.2c0-.2,0-.4,0-.7,0-1.8-1.2-3.1-3.1-3.1s-3.2,1.3-3.2,3.3,1.4,3.4,3.2,3.4,2.7-.9,3-2.1Zm2.6-1.5c0-1.5.8-2,1.8-2h.3v-1.1c-1,0-1.7.5-2.1,1.2v-1.1h-1.1v6.5h1.1v-3.5Zm6-3.9h2.3v7.4h1.1v-7.4h2.3v-.9h-5.6v.9Zm9.7,1.7c1.1,0,2.1.7,2.1,2h-4.1c.1-1.3,1-2,2.1-2Zm3,3.7h-1.2c-.2.7-.9,1.2-1.8,1.2s-2-.7-2.1-2h5.2c0-.2,0-.4,0-.7,0-1.8-1.2-3.1-3.1-3.1s-3.2,1.3-3.2,3.3,1.4,3.4,3.2,3.4,2.7-.9,3-2.1Zm10.9,2h1.1v-3.8c0-1.9-1.2-2.8-2.6-2.8s-1.9.5-2.3,1.4c-.4-1-1.3-1.4-2.4-1.4s-1.6.4-2.1,1.1v-.9h-1.1v6.5h1.1v-3.6c0-1.4.7-2.1,1.8-2.1s1.8.7,1.8,2v3.7h1.1v-3.6c0-1.4.7-2.1,1.8-2.1s1.8.7,1.8,2v3.7Zm3.9-5.3v-1.2h-1.1v9.6h1.1v-4.3c.4.7,1.2,1.3,2.4,1.3,1.7,0,3.1-1.4,3.1-3.4s-1.3-3.3-3.1-3.3-2,.6-2.4,1.3Zm4.4,2c0,1.5-1,2.4-2.2,2.4s-2.2-.9-2.2-2.4,1-2.4,2.2-2.4,2.2.9,2.2,2.4Zm2.5,3.3h1.1v-8.8h-1.1v8.8Zm2.5-3.3c0,2,1.3,3.4,3.1,3.4s2-.6,2.4-1.3v1.2h1.1v-6.5h-1.1v1.2c-.4-.7-1.2-1.3-2.4-1.3-1.7,0-3.1,1.3-3.1,3.3Zm5.5,0c0,1.5-1,2.4-2.2,2.4s-2.2-.9-2.2-2.4,1-2.4,2.2-2.4,2.2.9,2.2,2.4Zm3.2,1.5c0,1.3.7,1.8,1.8,1.8h1v-.9h-.8c-.7,0-.9-.2-.9-.9v-3.8h1.7v-.9h-1.7v-1.6h-1.1v1.6h-.8v.9h.8v3.8Zm6.8-3.9c1.1,0,2.1.7,2.1,2h-4.1c.1-1.3,1-2,2.1-2Zm3,3.7h-1.2c-.2.7-.9,1.2-1.8,1.2s-2-.7-2.1-2h5.2c0-.2,0-.4,0-.7,0-1.8-1.2-3.1-3.1-3.1s-3.2,1.3-3.2,3.3,1.4,3.4,3.2,3.4,2.7-.9,3-2.1Zm6.2.2c0-2.3-3.8-1.5-3.8-3s.5-.9,1.3-.9,1.4.5,1.4,1.1h1.1c0-1.3-1-2-2.5-2s-2.4.8-2.4,1.8c0,2.4,3.8,1.6,3.8,3s-.5,1-1.3,1-1.5-.5-1.5-1.1h-1.1c0,1.2,1.1,2,2.7,2s2.4-.8,2.4-1.9Zm-192.5,17.1c.8,0,1.5-.6,1.5-1.4s-.7-1.5-1.5-1.5-1.4.6-1.4,1.5.6,1.4,1.4,1.4Zm7.2-1.6c0-2,1.3-3.3,3-3.3s3,1.3,3,3.3-1.3,3.3-3,3.3-3-1.3-3-3.3Zm7.2,0c0-2.5-1.8-4.2-4.2-4.2s-4.2,1.7-4.2,4.2,1.8,4.2,4.2,4.2.8,0,1.2-.2l1.6,1.6h1.4l-2.1-2.1c1.2-.7,2-2,2-3.6Zm7.2-2.4h-1.1v3.6c0,1.4-.7,2.1-1.9,2.1s-1.8-.7-1.8-2v-3.7h-1.1v3.8c0,1.9,1.2,2.8,2.7,2.8s1.7-.4,2.1-1.1v1h1.1v-6.5Zm8,3.2c0-2.1-1.4-3.3-3.3-3.3s-3.3,1.3-3.3,3.3,1.4,3.4,3.2,3.4,3.3-1.3,3.3-3.4Zm-5.5,0c0-1.6,1-2.4,2.2-2.4s2.2.8,2.2,2.4-1.1,2.4-2.2,2.4-2.1-.8-2.1-2.4Zm7.1,1.5c0,1.3.7,1.8,1.8,1.8h1v-.9h-.8c-.7,0-.9-.2-.9-.9v-3.8h1.7v-.9h-1.7v-1.6h-1.1v1.6h-.8v.9h.8v3.8Zm3.7-1.5c0,2,1.3,3.4,3.1,3.4s2-.6,2.4-1.3v1.2h1.1v-6.5h-1.1v1.2c-.4-.7-1.2-1.3-2.4-1.3-1.7,0-3.1,1.3-3.1,3.3Zm5.5,0c0,1.5-1,2.4-2.2,2.4s-2.2-.9-2.2-2.4,1-2.4,2.2-2.4,2.2.9,2.2,2.4Zm3.2,1.5c0,1.3.7,1.8,1.8,1.8h1v-.9h-.8c-.7,0-.9-.2-.9-.9v-3.8h1.7v-.9h-1.7v-1.6h-1.1v1.6h-.8v.9h.8v3.8Zm4.1,1.8h1.1v-6.5h-1.1v6.5Zm.6-7.6c.4,0,.7-.3.7-.7s-.3-.7-.7-.7-.7.3-.7.7.3.7.7.7Zm8.5,4.3c0-2.1-1.4-3.3-3.3-3.3s-3.3,1.3-3.3,3.3,1.4,3.4,3.2,3.4,3.3-1.3,3.3-3.4Zm-5.5,0c0-1.6,1-2.4,2.2-2.4s2.2.8,2.2,2.4-1.1,2.4-2.2,2.4-2.1-.8-2.1-2.4Zm11.6,3.3h1.1v-3.8c0-1.9-1.2-2.8-2.7-2.8s-1.7.4-2.1,1v-.9h-1.1v6.5h1.1v-3.6c0-1.4.8-2.1,1.9-2.1s1.8.7,1.8,2v3.7Zm7.5-1.8c0-2.3-3.8-1.5-3.8-3s.5-.9,1.3-.9,1.4.5,1.4,1.1h1.1c0-1.3-1-2-2.5-2s-2.4.8-2.4,1.8c0,2.4,3.8,1.6,3.8,3s-.5,1-1.3,1-1.5-.5-1.5-1.1h-1.1c0,1.2,1.1,2,2.7,2s2.4-.8,2.4-1.9Zm-70.5,17.1c.8,0,1.5-.6,1.5-1.4s-.7-1.5-1.5-1.5-1.4.6-1.4,1.5.6,1.4,1.4,1.4Zm6.5,2.5h1.1v-8.3h-1.1v8.3Zm7.7,0h1.1v-3.8c0-1.9-1.2-2.8-2.7-2.8s-1.7.4-2.1,1v-.9h-1.1v6.5h1.1v-3.6c0-1.4.8-2.1,1.9-2.1s1.8.7,1.8,2v3.7Zm2.1-6.5l2.5,6.5h1.3l2.5-6.5h-1.2l-2,5.5-2-5.5h-1.2Zm13.6,3.2c0-2.1-1.4-3.3-3.3-3.3s-3.3,1.3-3.3,3.3,1.4,3.4,3.2,3.4,3.3-1.3,3.3-3.4Zm-5.5,0c0-1.6,1-2.4,2.2-2.4s2.2.8,2.2,2.4-1.1,2.4-2.2,2.4-2.1-.8-2.1-2.4Zm6.9,3.3h1.1v-6.5h-1.1v6.5Zm.6-7.6c.4,0,.7-.3.7-.7s-.3-.7-.7-.7-.7.3-.7.7.3.7.7.7Zm2,4.3c0,2.1,1.3,3.4,3.2,3.4s2.7-.9,3-2.2h-1.2c-.2.8-.9,1.3-1.8,1.3s-2.1-.8-2.1-2.5.9-2.4,2.1-2.4,1.6.5,1.8,1.3h1.2c-.3-1.4-1.4-2.2-3-2.2s-3.2,1.3-3.2,3.3Zm10.4-2.4c1.1,0,2.1.7,2.1,2h-4.1c.1-1.3,1-2,2.1-2Zm3,3.7h-1.2c-.2.7-.9,1.2-1.8,1.2s-2-.7-2.1-2h5.2c0-.2,0-.4,0-.7,0-1.8-1.2-3.1-3.1-3.1s-3.2,1.3-3.2,3.3,1.4,3.4,3.2,3.4,2.7-.9,3-2.1Zm6.2.2c0-2.3-3.8-1.5-3.8-3s.5-.9,1.3-.9,1.4.5,1.4,1.1h1.1c0-1.3-1-2-2.5-2s-2.4.8-2.4,1.8c0,2.4,3.8,1.6,3.8,3s-.5,1-1.3,1-1.5-.5-1.5-1.1h-1.1c0,1.2,1.1,2,2.7,2s2.4-.8,2.4-1.9Z"/><path class="cls-20" d="m464.2,178.9c.4-.8.6-1.7.6-2.6,0-1.6-.6-3-1.6-4.1l-4.6,4.1,5.6,2.6Z"/><path class="cls-22" d="m463.1,172.2c-1.1-1.3-2.8-2.1-4.6-2.1s-4.1,1.1-5.2,2.9l5.2,3.3,4.6-4.1Z"/><path class="cls-14" d="m458.5,176.3l-5.2-3.3c-.6,1-1,2.2-1,3.5,0,3.4,2.9,6.1,6.3,6.1,2.5,0,4.6-1.5,5.5-3.6l-5.6-2.6Z"/><path class="cls-9" d="m460.2,187.8l-.9-1.6c-.3-.6-1.2-.6-1.5,0l-.9,1.6c-.2.3-.4.4-.8.4h-18.9c-.5,0-.9.4-.9.9v24.6c0,.5.4.9.9.9h42.7c.5,0,.9-.4.9-.9v-24.6c0-.5-.4-.9-.9-.9h-18.9c-.3,0-.6-.2-.8-.4Z"/><path class="cls-10" d="m479.9,188.3h-2c.5,0,.9.4.9.9v24.6c0,.5-.4.9-.9.9h2c.5,0,.9-.4.9-.9v-24.6c0-.5-.4-.9-.9-.9Z"/><path class="cls-12" d="m458.9,197l.9-.6v-.9c.1,0,0-1.8,0-1.8l-.6-2.3h-1.8c0-.1-.4.5-.4.5,0,.1-.2.2-.4.3l-1.9.4c-.4,0-.6.6-.3.9l1.3,1.5c.1.1.2.3.1.4l-.2,2c0,.4.4.7.8.5l1.8-.8c.1,0,.3,0,.4,0h.2Z"/><path class="cls-13" d="m462.2,192.5l-1.9-.4c-.2,0-.3-.1-.4-.3l-1-1.7c-.2-.4-.7-.4-.9,0l-.6,1.1c.7,1.2,1.7,3.4,1.5,5.8l1.6.7c.4.2.8-.1.8-.5l-.2-2c0-.2,0-.3.1-.4l1.3-1.5c.3-.3.1-.8-.3-.9Z"/><path class="cls-12" d="m447,200.6l.9-.6v-.9c.1,0,0-1.8,0-1.8l-.6-2.3h-1.8c0-.1-.4.5-.4.5,0,.1-.2.2-.4.3l-1.9.4c-.4,0-.6.6-.3.9l1.3,1.5c.1.1.2.3.1.4l-.2,2c0,.4.4.7.8.5l1.8-.8c.1,0,.3,0,.4,0h.2Z"/><path class="cls-13" d="m450.4,196.1l-1.9-.4c-.2,0-.3-.1-.4-.3l-1-1.7c-.2-.4-.7-.4-.9,0l-.6,1.1c.7,1.2,1.8,3.4,1.5,5.8l1.6.7c.4.2.8-.1.8-.5l-.2-2c0-.2,0-.3.1-.4l1.3-1.5c.3-.3.1-.8-.3-.9h0Z"/><path class="cls-12" d="m470.8,200.6l.9-.6v-.9c.1,0,0-1.8,0-1.8l-.6-2.3h-1.8c0-.1-.4.5-.4.5,0,.1-.2.2-.4.3l-1.9.4c-.4,0-.6.6-.3.9l1.3,1.5c.1.1.2.3.1.4l-.2,2c0,.4.4.7.8.5l1.8-.8c.1,0,.3,0,.4,0h.2Z"/><path class="cls-13" d="m474.1,196.1l-1.9-.4c-.2,0-.3-.1-.4-.3l-1-1.7c-.2-.4-.7-.4-.9,0l-.6,1.1c.7,1.2,1.7,3.4,1.5,5.8l1.6.7c.4.2.8-.1.8-.5l-.2-2c0-.2,0-.3.1-.4l1.3-1.5c.3-.3.1-.8-.3-.9Z"/><path class="cls-31" d="m447.9,206.2h-5.5c-.4,0-.7-.3-.7-.7s.3-.7.7-.7h5.5c.4,0,.7.3.7.7s-.3.7-.7.7Z"/><path class="cls-31" d="m447.9,208.9h-5.5c-.4,0-.7-.3-.7-.7s.3-.7.7-.7h5.5c.4,0,.7.3.7.7s-.3.7-.7.7Z"/><path class="cls-31" d="m447.9,211.6h-5.5c-.4,0-.7-.3-.7-.7s.3-.7.7-.7h5.5c.4,0,.7.3.7.7s-.3.7-.7.7Z"/><path class="cls-31" d="m456.8,206.2h-5.5c-.4,0-.7-.3-.7-.7s.3-.7.7-.7h5.5c.4,0,.7.3.7.7s-.3.7-.7.7Z"/><path class="cls-31" d="m456.8,208.9h-5.5c-.4,0-.7-.3-.7-.7s.3-.7.7-.7h5.5c.4,0,.7.3.7.7s-.3.7-.7.7Z"/><path class="cls-31" d="m456.8,211.6h-5.5c-.4,0-.7-.3-.7-.7s.3-.7.7-.7h5.5c.4,0,.7.3.7.7s-.3.7-.7.7Z"/><path class="cls-31" d="m465.7,206.2h-5.5c-.4,0-.7-.3-.7-.7s.3-.7.7-.7h5.5c.4,0,.7.3.7.7s-.3.7-.7.7Z"/><path class="cls-31" d="m465.7,208.9h-5.5c-.4,0-.7-.3-.7-.7s.3-.7.7-.7h5.5c.4,0,.7.3.7.7s-.3.7-.7.7Z"/><path class="cls-31" d="m465.7,211.6h-5.5c-.4,0-.7-.3-.7-.7s.3-.7.7-.7h5.5c.4,0,.7.3.7.7s-.3.7-.7.7Z"/><path class="cls-31" d="m474.7,206.2h-5.5c-.4,0-.7-.3-.7-.7s.3-.7.7-.7h5.5c.4,0,.7.3.7.7s-.3.7-.7.7h0Z"/><path class="cls-31" d="m474.7,208.9h-5.5c-.4,0-.7-.3-.7-.7s.3-.7.7-.7h5.5c.4,0,.7.3.7.7s-.3.7-.7.7h0Z"/><path class="cls-31" d="m474.7,211.6h-5.5c-.4,0-.7-.3-.7-.7s.3-.7.7-.7h5.5c.4,0,.7.3.7.7s-.3.7-.7.7h0Z"/><g class="cls-5"><g><path class="cls-14" d="m545.6,334.7l-21.5-2.9c-.9-.1-1.6-1-1.4-1.9l2.9-21.5c.1-.9,1-1.6,1.9-1.4l21.5,2.9c.9.1,1.6,1,1.4,1.9l-2.9,21.5c-.1.9-1,1.6-1.9,1.4h0Z"/><path class="cls-18" d="m527.4,306.9c-.9-.1-1.8.5-1.9,1.4l-2.9,21.4h16.4c1.8,0,3.3-1.5,3.3-3.3v-17.5l-14.9-2Z"/><path class="cls-22" d="m531.1,323.5l-21.7,1.7c-.9,0-1.7-.6-1.8-1.5l-1.7-21.7c0-.9.6-1.7,1.5-1.8l21.7-1.7c.9,0,1.7.6,1.8,1.5l1.7,21.7c0,.9-.6,1.7-1.5,1.8h0Z"/><path class="cls-27" d="m514,304.7v20.2l17.1-1.3c.9,0,1.6-.9,1.5-1.8l-1.6-20.3h-13.8c-1.8,0-3.3,1.5-3.3,3.3h0Z"/><path class="cls-12" d="m539.1,328.1h-21.7c-.9,0-1.7-.8-1.7-1.7v-21.7c0-.9.8-1.7,1.7-1.7h21.7c.9,0,1.7.8,1.7,1.7v21.7c0,.9-.8,1.7-1.7,1.7Z"/><path class="cls-13" d="m539.1,303h-2.3c.9,0,1.7.8,1.7,1.7v21.7c0,.9-.8,1.7-1.7,1.7h2.3c.9,0,1.7-.8,1.7-1.7v-21.7c0-.9-.8-1.7-1.7-1.7h0Z"/><path class="cls-31" d="m528.2,306.2c-.2,0-.4,0-.5-.2-.2-.3-.2-.7,0-.9l9.3-8.2c.3-.2.7-.2.9,0,.2.3.2.7,0,.9l-9.3,8.2c-.1.1-.3.2-.4.2Z"/><path class="cls-32" d="m538.1,298.9c1.2,0,2.2-1,2.2-2.2s-1-2.2-2.2-2.2-2.2,1-2.2,2.2,1,2.2,2.2,2.2Z"/><path class="cls-31" d="m535.4,309.5h-14.4c-.4,0-.7-.3-.7-.7s.3-.7.7-.7h14.4c.4,0,.7.3.7.7s-.3.7-.7.7Z"/><path class="cls-31" d="m535.4,312.9h-14.4c-.4,0-.7-.3-.7-.7s.3-.7.7-.7h14.4c.4,0,.7.3.7.7s-.3.7-.7.7Z"/><path class="cls-31" d="m535.4,316.3h-14.4c-.4,0-.7-.3-.7-.7s.3-.7.7-.7h14.4c.4,0,.7.3.7.7s-.3.7-.7.7Z"/><path class="cls-31" d="m535.4,319.6h-14.4c-.4,0-.7-.3-.7-.7s.3-.7.7-.7h14.4c.4,0,.7.3.7.7s-.3.7-.7.7Z"/><path class="cls-31" d="m535.4,323h-14.4c-.4,0-.7-.3-.7-.7s.3-.7.7-.7h14.4c.4,0,.7.3.7.7s-.3.7-.7.7Z"/></g></g><g class="cls-37"><g><path class="cls-31" d="m312.8,221.5c-.4,0-.7-.3-.7-.7v-5.6c0-.5-.4-.9-.9-.9h-8.2c-.5,0-.9.4-.9.9v5.6c0,.4-.3.7-.7.7s-.7-.3-.7-.7v-5.6c0-1.3,1-2.3,2.3-2.3h8.2c1.3,0,2.3,1,2.3,2.3v5.6c0,.4-.3.7-.7.7Z"/><path class="cls-22" d="m311.6,209.3c-.3,0-.6-.3-.7-.6-.2-1.4.2-2.8,1.1-3.8.9-1.1,2.1-1.8,3.5-1.9.4,0,.7.2.7.6,0,.4-.2.7-.6.7-1,.1-2,.6-2.6,1.4-.6.8-.9,1.8-.8,2.9,0,.4-.2.7-.6.7,0,0,0,0,0,0h0Z"/><path class="cls-22" d="m309,209.6c-.3,0-.6-.3-.7-.6-.2-2.1.4-4.1,1.7-5.8,1.3-1.6,3.2-2.7,5.3-2.9.4,0,.7.2.7.6,0,.4-.2.7-.6.7-1.7.2-3.3,1.1-4.4,2.4-1.1,1.4-1.6,3.1-1.4,4.8,0,.4-.2.7-.6.7,0,0,0,0,0,0h0Z"/><path class="cls-22" d="m314,209c-.3,0-.6-.2-.7-.6,0-.8.1-1.5.6-2.1.5-.6,1.2-1,1.9-1,.4,0,.7.2.7.6,0,.4-.2.7-.6.7-.4,0-.8.2-1,.5-.2.3-.4.7-.3,1.1,0,.4-.2.7-.6.8,0,0,0,0,0,0h0Z"/><path class="cls-22" d="m323.5,220.1c-.3,0-.6-.3-.7-.6,0-.4.2-.7.6-.7,1-.1,2-.6,2.6-1.4.6-.8.9-1.8.8-2.9,0-.4.2-.7.6-.7.4,0,.7.2.7.6.2,1.4-.2,2.8-1.1,3.8-.9,1.1-2.1,1.8-3.5,1.9,0,0,0,0,0,0h0Z"/><path class="cls-22" d="m323.9,222.8c-.3,0-.6-.3-.7-.6,0-.4.2-.7.6-.7,1.7-.2,3.3-1.1,4.4-2.4,1.1-1.4,1.6-3.1,1.4-4.8,0-.4.2-.7.6-.7.4,0,.7.2.7.6.2,2.1-.4,4.1-1.7,5.8-1.3,1.6-3.2,2.7-5.3,2.9,0,0,0,0,0,0h0Z"/><path class="cls-22" d="m323.2,217.7c-.3,0-.6-.3-.7-.6,0-.4.2-.7.6-.7.4,0,.8-.2,1-.5.2-.3.4-.7.3-1.1,0-.4.2-.7.6-.8.4,0,.7.2.8.6,0,.8-.1,1.5-.6,2.1s-1.2,1-1.9,1c0,0,0,0,0,0h0Z"/><path class="cls-25" d="m315,235.3h-15.9c-1,0-1.7-.8-1.7-1.7v-10.7h19.4v10.7c0,1-.8,1.7-1.7,1.7h0Z"/><path class="cls-30" d="m316.8,222.9h-19.4v3.9l5.4,1.9c.3,0,.4.3.4.6v.4c0,1.6,1.3,2.9,2.9,2.9h1.9c1.6,0,2.9-1.3,2.9-2.9v-.4c0-.3.2-.5.4-.6l5.4-1.9v-3.9h0Z"/><path class="cls-23" d="m305,227.3h2.7c0-.1,6.2-2.1,6.2-2.1l3.3-1.7.4-2.4v-2.2c-.1,0-.7-.6-.7-.6l-.7-.2h-19.5c-.7,0-1.2.6-1.2,1.2v3.8c0,.5.3,1,.8,1.2l8.7,3Z"/><path class="cls-25" d="m317.5,218.1h-1.3c.1.2.2.4.2.6v3.8c0,.5-.3,1-.8,1.2l-10.4,3.6c0,0-.1,0-.2,0l1.7.6c.3,0,.5,0,.8,0l10.4-3.6c.5-.2.8-.6.8-1.2v-3.8c0-.7-.6-1.2-1.2-1.2h0Z"/><path class="cls-12" d="m308,230.6h-1.9c-.5,0-.9-.4-.9-.9v-3.3c0-.5.4-.9.9-.9h1.9c.5,0,.9.4.9.9v3.3c0,.5-.4.9-.9.9h0Z"/><path class="cls-24" d="m321.9,213l-4.1-4.1c-.3-.3-.3-.9,0-1.2l1.3-1.3c1.5-1.5,3.9-1.5,5.3,0,1.5,1.5,1.5,3.9,0,5.3l-1.3,1.3c-.3.3-.9.3-1.2,0h0Z"/><path class="cls-31" d="m326.1,209.1l-4.4-4.4c-.6-.6-.6-1.4,0-2l7.2-7.2c.6-.6,1.4-.6,2,0l4.4,4.4c.6.6.6,1.4,0,2l-7.2,7.2c-.6.6-1.4.6-2,0h0Z"/><path class="cls-32" d="m325.2,208.2l-2.6-2.6c-.4-.4-.4-1.2,0-1.6l7.6-7.6c.4-.4,1.2-.4,1.6,0l2.6,2.6c.4.4.4,1.2,0,1.6l-7.6,7.6c-.4.4-1.2.4-1.6,0h0Z"/><path class="cls-26" d="m324.4,200l-5.1-5.1c-.3-.3-.3-.8,0-1.1l2.8-2.8c.3-.3.8-.3,1.1,0l5.1,5.1-3.8,3.9Z"/><path class="cls-21" d="m320.2,197.4c-.2,0-.3,0-.5-.2-.3-.3-.3-.7,0-.9l4.8-4.8c.3-.3.7-.3.9,0s.3.7,0,.9l-4.8,4.8c-.1.1-.3.2-.5.2Z"/><path class="cls-21" d="m322,199.2c-.2,0-.3,0-.5-.2-.3-.3-.3-.7,0-.9l4.8-4.8c.3-.3.7-.3.9,0,.3.3.3.7,0,.9l-4.8,4.8c-.1.1-.3.2-.5.2h0Z"/><path class="cls-26" d="m330.8,206.4l5.1,5.1c.3.3.8.3,1.1,0l2.8-2.8c.3-.3.3-.8,0-1.1l-5.1-5.1-3.9,3.9Z"/><path class="cls-21" d="m334.1,211.3c-.2,0-.3,0-.5-.2-.3-.3-.3-.7,0-.9l4.8-4.8c.3-.3.7-.3.9,0,.3.3.3.7,0,.9l-4.8,4.8c-.1.1-.3.2-.5.2Z"/><path class="cls-21" d="m332.3,209.5c-.2,0-.3,0-.5-.2-.3-.3-.3-.7,0-.9l4.8-4.8c.3-.3.7-.3.9,0,.3.3.3.7,0,.9l-4.8,4.8c-.1.1-.3.2-.5.2Z"/><path class="cls-31" d="m326.8,204.7c-.2,0-.4,0-.5-.2-.3-.3-.3-.7,0-.9l3.4-3.3c.3-.3.7-.3.9,0,.3.3.3.7,0,.9l-3.4,3.3c-.1.1-.3.2-.5.2Z"/></g></g><path class="cls-24" d="m326.6,370.4c-.4,0-.7-.3-.7-.7v-5.9c0-.1-.1-.2-.2-.2h-3.4c-.4,0-.7-.3-.7-.7s.3-.7.7-.7h3.4c.9,0,1.6.7,1.6,1.6v5.9c0,.4-.3.7-.7.7Z"/><path class="cls-32" d="m322.3,385.3c-.4,0-.7-.3-.7-.7v-2.9c0-.4.3-.7.7-.7s.7.3.7.7v2.9c0,.4-.3.7-.7.7Z"/><path class="cls-9" d="m318.9,387.3h-24.2c-.7,0-1.2-.5-1.2-1.2v-39.2c0-.7.5-1.2,1.2-1.2h24.2c.7,0,1.2.5,1.2,1.2v39.2c0,.7-.5,1.2-1.2,1.2Z"/><path class="cls-10" d="m318.9,345.7h-2.2c.7,0,1.2.5,1.2,1.2v39.2c0,.7-.5,1.2-1.2,1.2h2.2c.7,0,1.2-.5,1.2-1.2v-39.2c0-.7-.5-1.2-1.2-1.2Z"/><path class="cls-20" d="m310.7,352.3h-7.7c-.5,0-.8-.4-.8-.8v-1.4c0-.5.4-.8.8-.8h7.7c.5,0,.8.4.8.8v1.4c0,.5-.4.8-.8.8Z"/><path class="cls-19" d="m310.7,349.2h-1.7c.5,0,.8.4.8.8v1.4c0,.5-.4.8-.8.8h1.7c.5,0,.8-.4.8-.8v-1.4c0-.5-.4-.8-.8-.8Z"/><path class="cls-31" d="m313.5,355.9h-13.4c-.4,0-.7-.3-.7-.7s.3-.7.7-.7h13.4c.4,0,.7.3.7.7s-.3.7-.7.7Z"/><path class="cls-31" d="m313.5,358.7h-13.4c-.4,0-.7-.3-.7-.7s.3-.7.7-.7h13.4c.4,0,.7.3.7.7s-.3.7-.7.7Z"/><path class="cls-31" d="m313.5,361.5h-13.4c-.4,0-.7-.3-.7-.7s.3-.7.7-.7h13.4c.4,0,.7.3.7.7s-.3.7-.7.7Z"/><path class="cls-31" d="m313.5,364.4h-13.4c-.4,0-.7-.3-.7-.7s.3-.7.7-.7h13.4c.4,0,.7.3.7.7s-.3.7-.7.7Z"/><path class="cls-31" d="m313.5,367.2h-13.4c-.4,0-.7-.3-.7-.7s.3-.7.7-.7h13.4c.4,0,.7.3.7.7s-.3.7-.7.7Z"/><path class="cls-31" d="m313.5,370.1h-13.4c-.4,0-.7-.3-.7-.7s.3-.7.7-.7h13.4c.4,0,.7.3.7.7s-.3.7-.7.7Z"/><path class="cls-31" d="m313.5,372.9h-13.4c-.4,0-.7-.3-.7-.7s.3-.7.7-.7h13.4c.4,0,.7.3.7.7s-.3.7-.7.7Z"/><path class="cls-26" d="m302.4,374.3l-.6-2.5-2.5-1.6-1.8-1.2-4-1-4.9,1.2c-.5.1-1.1.3-1.5.6l-1.8,1.1c-1.1.6-1.7,1.8-1.7,3v4.7c0,1.6.9,3,2.3,3.7,1.8.9,3.5,1.5,5.3,1.8l2.5-2.1,1.8,1.9,3.8-1.2,2.2-1.6,1-3.2v-3.7Z"/><path class="cls-21" d="m301.7,370.9l-1.8-1.1c-.5-.3-1-.5-1.5-.6l-4.9-1.2-1.1.3,4.6,1.2,2.5,1.5c1.1.6,1.7,1.8,1.7,3v4.8c0,1.6-.9,3-2.3,3.7-1.2.6-2.4,1.1-3.6,1.4l.4.4c1.8-.3,3.6-.9,5.4-1.8,1.4-.7,2.3-2.1,2.3-3.7v-4.8c0-1.2-.6-2.4-1.7-3h0Z"/><path class="cls-20" d="m295.8,384.2l-1.1-14.2v-1.6c-.1,0-1.2-.4-1.2-.4l-1.1.4v1.6c-.1,0-1.2,14.1-1.2,14.1,1.5.2,3.1.2,4.6,0Z"/><path class="cls-15" d="m291.9,363.8h3.2v4.2h-3.2v-4.2Z"/><path class="cls-32" d="m299.2,359.5l.9-1.8-.2-2.1-.8-1.8-1.6-.7s-1.7,0-1.7,0c0,0-.9-1.3-.9-1.3l-1.7-1.9-1.8.2-2.6.7-1.2.9-.4.5-.4.5c0,.2-.2.3-.3.5,0,0,0,0,0,0-.8,1.8-.3,4,1.3,5.3l1.7,1.4,8.7.8.9-.7c.1,0,.2-.2.3-.3v-.2Z"/><path class="cls-31" d="m300.5,355.1l-.3-1.2c-.3-1-1.3-1.6-2.3-1.3-1,.2-1.9-.3-2.3-1.2v-.3c-.4-.9-1.2-1.6-2.1-1.7-.4,0-.8,0-1.2,0-2.4,0-4.7,1.3-5.8,3.4,1.2-1.2,2.9-2,4.7-1.9.4,0,.8,0,1.2,0,.9.2,1.7.8,2,1.7v.3c.4.9,1.4,1.5,2.4,1.2,1-.3,2,.3,2.3,1.3l.3,1.2c.3,1.1.2,2.2-.3,3.1,1.3-1.1,1.8-2.9,1.4-4.6Z"/><path class="cls-8" d="m293.5,365.6c-2.4,0-4.4-2-4.4-4.4v-3.8c0-.3.2-.5.6-.5,1.8,0,3.3-.3,4.5-1.1.2-.2.5-.1.7.1.5.6,1.4.9,2.5.9.3,0,.5.2.5.5v3.8c0,2.4-2,4.4-4.4,4.4h0Z"/><path class="cls-15" d="m297.3,356.8c-1.1,0-1.9-.3-2.5-.9-.2-.2-.5-.3-.7-.1-1.1.8-2.7,1.1-4.5,1.1-.3,0-.5.2-.5.5v1.7c0-.3.2-.5.5-.5,1.8,0,3.3-.3,4.5-1.1.2-.2.5-.1.7.1.5.6,1.4.9,2.5.9.3,0,.5.2.5.5v-1.7c0-.3-.2-.5-.5-.5h0Z"/><path class="cls-10" d="m293.5,368l-1.3,1.6c-.4.5-1.2.7-1.8.4l-2.9-1.2c-.3-.1-.3-.5,0-.7l.9-.6c.7-.5,1.7-.6,2.5-.3l2.6.8Z"/><path class="cls-10" d="m293.5,368l1.3,1.6c.4.5,1.2.7,1.8.4l2.9-1.2c.3-.1.3-.5,0-.7l-.9-.6c-.7-.5-1.7-.6-2.5-.3l-2.6.8Z"/><path class="cls-10" d="m296.4,375.8h-2.1c-.4,0-.7-.3-.7-.7s.3-.7.7-.7h2.1c.4,0,.7.3.7.7s-.3.7-.7.7Z"/><path class="cls-22" d="m317.3,343.3v2.5c0,.2,0,.3-.2.4l-2.1,1.2c-.3.2-.3.6,0,.8l2.1,1.2c.1,0,.2.2.2.4v2.5c0,.3.2.5.5.5h9.9c.3,0,.5-.2.5-.5v-9.1c0-.3-.2-.5-.5-.5h-9.8c-.3,0-.5.2-.5.5h0Z"/><path class="cls-27" d="m327.6,342.8h-1.7c.3,0,.5.2.5.5v9.1c0,.3-.2.5-.5.5h1.7c.3,0,.5-.2.5-.5v-9.1c0-.3-.2-.5-.5-.5h0Z"/><path class="cls-9" d="m325.1,345.9h-4.8c-.4,0-.7-.3-.7-.7s.3-.7.7-.7h4.8c.4,0,.7.3.7.7s-.3.7-.7.7Z"/><path class="cls-9" d="m325.1,348.5h-4.8c-.4,0-.7-.3-.7-.7s.3-.7.7-.7h4.8c.4,0,.7.3.7.7s-.3.7-.7.7Z"/><path class="cls-9" d="m325.1,351.1h-4.8c-.4,0-.7-.3-.7-.7s.3-.7.7-.7h4.8c.4,0,.7.3.7.7s-.3.7-.7.7Z"/><path class="cls-32" d="m324.5,380.2h-4.4v-18.3c0-.3.2-.5.5-.5h3.4c.3,0,.5.2.5.5v18.3Z"/><path class="cls-24" d="m324.5,380.2h-4.4l1.5,2.6c.3.5,1.1.5,1.4,0l1.5-2.6Z"/><path class="cls-24" d="m323.6,361.4h-2.6v-1.7c0-.7.6-1.3,1.3-1.3s1.3.6,1.3,1.3v1.7h0Z"/><path class="cls-20" d="m315.9,377.1c0-.4-.4-.6-.8-.5s-.6.4-.5.8c0,.1,0,.6-.1.9,0,0-.2.2-.5.2-.2,0-.8.1-.9.9,0,.3,0,.6,0,.9,0,1.3,0,1.5-.5,1.5-.1,0-.3,0-.4,0-.2-.2-.2-1.1-.2-1.7,0-.7,0-1.4-.1-2-.3-1.1-1-1.4-1.6-1.5-1.5-.2-2.5.8-3.2,1.9h-1c-.4-.2-.7,0-.8.4,0,.4.2.7.6.8h.5c-.3.7-.4,1.2-.4,1.2-.1.4.1.7.5.8.4.1.7-.1.8-.5,0-.3.3-.8.5-1.3l1.1.2s0,0,.1,0c.3,0,.6-.2.7-.6,0-.4-.2-.7-.6-.8h-.5c.4-.6.9-.9,1.5-.9.5,0,.6.7.5,2.1,0,1,0,2.1.6,2.7.3.3.7.4,1.2.4s.2,0,.2,0c.8,0,1.4-.5,1.6-1.3.2-.5.1-1.1,0-1.6,0-.1,0-.3,0-.5.6-.1.9-.4,1.1-.7.6-.8.4-1.8.4-1.9h0Z"/><path class="cls-26" d="m398.2,314h-3c-1.2,0-2.3-.8-2.6-2-.2-.8-.5-1.5-.9-2.1l-1.4-.2h-3.4l-4.6-.3-4.2-.4c-1.2,1.1-1.9,2.6-1.9,4.3v13.2h16.7c-.5-2.9-1.2-6-1.6-7h6.9v-5.6Z"/><path class="cls-21" d="m385.2,312.6c2.5,0,4.8-1,6.4-2.7-1.1-1.5-2.8-2.4-4.7-2.4h-5c-1.5,0-2.9.6-3.9,1.5,1.6,2.2,4.3,3.6,7.2,3.6h0Z"/><path class="cls-8" d="m403.8,318c0-2.2-1.8-4-4-4h-1.7v5.6h5.7v-1.6Z"/><path class="cls-32" d="m397.8,330.5c.2-2.1-1.5-4-3.7-4h-18.1v5.1h11.5c2,0,3.7,1.6,3.7,3.7v2.2h5.2c.4,0,.7-.3.8-.7.2-1.2.5-4,.7-6.3Z"/><path class="cls-31" d="m393.9,331.7c0,.6-.5,1.1-1.1,1.1h-1.6c-.6,0-1.1-.5-1.1-1.1s.5-1.1,1.1-1.1h1.6c.6,0,1.1.5,1.1,1.1Z"/><path class="cls-21" d="m392.8,320.7h-1.4c-1,0-2-.4-2.7-1.1l-1.8-1.9c-.4-.4-.4-1.1,0-1.6.4-.4,1.1-.4,1.6,0l1.8,1.9c.3.3.7.5,1.1.5h1.4c.6,0,1.1.5,1.1,1.1s-.5,1.1-1.1,1.1h0Z"/><path class="cls-8" d="m387.2,298.2l-4.4,3.7-3.8,2.5c.4,3.1,3,5.5,6.2,5.5s6.3-2.8,6.3-6.3v-4.9l-2.5-1.3-1.9.8Z"/><path class="cls-15" d="m391.5,298.7v-3.7h-12.6v8.6c0,.3,0,.5,0,.8,0,0,0,0,0,0,.2,0,.4,0,.6,0h1.7c1.7-.3,3.3-1.2,4.2-2.7l.7-1.1c.4-.6,1-1,1.7-1.2l3.4-.7c.1,0,.2,0,.4,0h0Z"/><path class="cls-32" d="m376.7,300.3l1.3.2s2.2.2,2.3,0c0-.2,1.3-2.7,1.3-2.7,0,0,1.8-1.2,1.8-1.2s2.7-.2,2.7-.2l4.1-2.4v-2.7l-1.5-3.1-1.8-.8s0,0-.1,0c-5.5-1.3-10.7,2.9-10.8,8.6,0,1.2.1,2.4.4,3.6,0,.3.1.5.3.7h0Z"/><path class="cls-31" d="m390.3,288.7c-.9-.5-2.1-1-3.3-1.3,1.7,1,2.7,2.9,2.5,4.9,0,1.2-1,2.3-2.2,2.5l-4.5.9c-.8.1-1.4.6-1.8,1.3l-1.2,2c-.5.8-1.3,1.2-2.1,1.3h-.9c.5,1,1.5,1.6,2.6,1.5h1.7c.9-.2,1.7-.7,2.1-1.4l1.2-2c.4-.7,1.1-1.1,1.8-1.3l4.5-.9c1.2-.2,2.1-1.3,2.2-2.5.1-2-.9-3.9-2.6-4.9Z"/><path class="cls-24" d="m380.8,331.7c-1.7,0-3.1-1.3-3.3-3l-1.6-16.4c-.2-2-1.8-3.5-3.8-3.5s-1.8.8-1.8,1.8v21.9c0,2.8,2.3,5.1,5.1,5.1h15.8v-4.3c0-.9-.7-1.6-1.6-1.6h-8.9Z"/><path class="cls-20" d="m416.6,314h3c1.2,0,2.3-.8,2.6-2,.2-.8.5-1.5.9-2.1l1.4-.2h3.4l4.6-.3,4.2-.4c1.2,1.1,1.9,2.6,1.9,4.3v13.2h-16.7c.5-2.9,1.2-6,1.6-7h-6.9v-5.6Z"/><path class="cls-19" d="m429.5,312.6c-2.5,0-4.8-1-6.4-2.7,1.1-1.5,2.8-2.4,4.7-2.4h5c1.5,0,2.9.6,3.9,1.5-1.6,2.2-4.3,3.6-7.2,3.6Z"/><path class="cls-8" d="m410.9,318c0-2.2,1.8-4,4-4h1.7v5.6h-5.7v-1.6Z"/><path class="cls-32" d="m416.9,330.5c-.2-2.1,1.5-4,3.7-4h18.1v5.1h-12.8c-1.3,0-2.4,1.1-2.4,2.4v3.5h-5.2c-.4,0-.7-.3-.8-.7-.2-1.2-.5-4-.7-6.3h0Z"/><path class="cls-31" d="m424.6,331.7c0,.6-.5,1.1-1.1,1.1h-1.6c-.6,0-1.1-.5-1.1-1.1s.5-1.1,1.1-1.1h1.6c.6,0,1.1.5,1.1,1.1Z"/><path class="cls-19" d="m423.3,320.7h-1.4c-.6,0-1.1-.5-1.1-1.1s.5-1.1,1.1-1.1h1.4c.4,0,.8-.2,1.1-.5l1.8-1.9c.4-.4,1.1-.4,1.6,0,.4.4.4,1.1,0,1.6l-1.8,1.9c-.7.7-1.7,1.1-2.7,1.1h0Z"/><path class="cls-8" d="m427.6,298.2l4.4,3.7,3.8,2.5c-.4,3.1-3,5.5-6.2,5.5s-6.3-2.8-6.3-6.3v-4.9l2.5-1.3,1.9.8Z"/><path class="cls-15" d="m423.2,298.7v-3.7h12.6v8.6c0,.3,0,.5,0,.8,0,0,0,0,0,0-.2,0-.4,0-.6,0h-1.7c-1.7-.3-3.3-1.2-4.2-2.7l-.7-1.1c-.4-.6-1-1-1.7-1.2l-3.4-.7c-.1,0-.2,0-.4,0h0Z"/><path class="cls-14" d="m438,300.3l-1.3.2s-2.2.2-2.3,0c0-.2-1.3-2.7-1.3-2.7,0,0-1.8-1.2-1.8-1.2s-2.7-.2-2.7-.2l-4.1-2.4v-2.7l1.5-3.1,1.8-.8s0,0,.1,0c5.5-1.3,10.7,2.9,10.8,8.6,0,1.2-.1,2.4-.4,3.6,0,.3-.1.5-.3.7h0Z"/><path class="cls-18" d="m424.5,288.7c.9-.5,2.1-1,3.3-1.3-1.7,1-2.7,2.9-2.5,4.9,0,1.2,1,2.3,2.2,2.5l4.5.9c.8.1,1.4.6,1.8,1.3l1.2,2c.5.8,1.3,1.2,2.1,1.3h.9c-.5,1-1.5,1.6-2.6,1.5h-1.7c-.9-.2-1.7-.7-2.1-1.4l-1.2-2c-.4-.7-1.1-1.1-1.8-1.3l-4.5-.9c-1.2-.2-2.1-1.3-2.2-2.5-.1-2,.9-3.9,2.6-4.9Z"/><path class="cls-24" d="m434,331.7c1.7,0,3.1-1.3,3.3-3l1.6-16.4c.2-2,1.8-3.5,3.8-3.5s1.8.8,1.8,1.8v21.9c0,2.8-2.3,5.1-5.1,5.1h-15.8v-4.3c0-.9.7-1.6,1.6-1.6h8.9Z"/><path class="cls-23" d="m415.5,324.4h-16.6c-1.9,0-3.5-1.6-3.5-3.5v-1.3h23.5v1.3c0,1.9-1.6,3.5-3.5,3.5Z"/><path class="cls-23" d="m409.6,336.8c0,.4-.4.8-.8.8h-2.8c-.4,0-.8-.4-.8-.8v-12.4h4.4v12.4h0Z"/><path class="cls-25" d="m405.2,324.4h4.4v2.3h-4.4v-2.3Z"/><path class="cls-22" d="m426.2,263.5h-37.7c-1.1,0-2,.9-2,2v13.3c0,1.1.9,2,2,2h4.9c.5,0,1,.3,1.4.7l1.9,2.7c.7,1,2.1,1,2.7,0l1.9-2.7c.3-.4.8-.7,1.4-.7h9.6c.5,0,1,.3,1.4.7l1.9,2.7c.7,1,2.1,1,2.7,0l1.9-2.7c.3-.4.8-.7,1.4-.7h4.9c1.1,0,2-.9,2-2v-13.3c0-1.1-.9-2-2-2h0Z"/><path class="cls-27" d="m426.2,263.5h-3.5c1.1,0,2,.9,2,2v13.3c0,1.1-.9,2-2,2h3.5c1.1,0,2-.9,2-2v-13.3c0-1.1-.9-2-2-2Z"/><path class="cls-31" d="m395.4,268.9h-3.7c-.6,0-1.1-.5-1.1-1.1s.5-1.1,1.1-1.1h3.7c.6,0,1.1.5,1.1,1.1s-.5,1.1-1.1,1.1Z"/><path class="cls-31" d="m404.6,268.9h-3.7c-.6,0-1.1-.5-1.1-1.1s.5-1.1,1.1-1.1h3.7c.6,0,1.1.5,1.1,1.1s-.5,1.1-1.1,1.1Z"/><path class="cls-31" d="m413.8,268.9h-3.7c-.6,0-1.1-.5-1.1-1.1s.5-1.1,1.1-1.1h3.7c.6,0,1.1.5,1.1,1.1s-.5,1.1-1.1,1.1Z"/><path class="cls-31" d="m423,268.9h-3.7c-.6,0-1.1-.5-1.1-1.1s.5-1.1,1.1-1.1h3.7c.6,0,1.1.5,1.1,1.1s-.5,1.1-1.1,1.1Z"/><path class="cls-31" d="m395.4,277.5h-3.7c-.6,0-1.1-.5-1.1-1.1s.5-1.1,1.1-1.1h3.7c.6,0,1.1.5,1.1,1.1s-.5,1.1-1.1,1.1Z"/><path class="cls-31" d="m404.6,277.5h-3.7c-.6,0-1.1-.5-1.1-1.1s.5-1.1,1.1-1.1h3.7c.6,0,1.1.5,1.1,1.1s-.5,1.1-1.1,1.1Z"/><path class="cls-31" d="m413.8,277.5h-3.7c-.6,0-1.1-.5-1.1-1.1s.5-1.1,1.1-1.1h3.7c.6,0,1.1.5,1.1,1.1s-.5,1.1-1.1,1.1Z"/><path class="cls-31" d="m423,277.5h-3.7c-.6,0-1.1-.5-1.1-1.1s.5-1.1,1.1-1.1h3.7c.6,0,1.1.5,1.1,1.1s-.5,1.1-1.1,1.1Z"/><path class="cls-31" d="m395.4,273h-3.7c-.6,0-1.1-.5-1.1-1.1s.5-1.1,1.1-1.1h3.7c.6,0,1.1.5,1.1,1.1s-.5,1.1-1.1,1.1Z"/><path class="cls-31" d="m404.6,273h-3.7c-.6,0-1.1-.5-1.1-1.1s.5-1.1,1.1-1.1h3.7c.6,0,1.1.5,1.1,1.1s-.5,1.1-1.1,1.1Z"/><path class="cls-31" d="m413.8,273h-3.7c-.6,0-1.1-.5-1.1-1.1s.5-1.1,1.1-1.1h3.7c.6,0,1.1.5,1.1,1.1s-.5,1.1-1.1,1.1Z"/><path class="cls-31" d="m423,273h-3.7c-.6,0-1.1-.5-1.1-1.1s.5-1.1,1.1-1.1h3.7c.6,0,1.1.5,1.1,1.1s-.5,1.1-1.1,1.1Z"/><path class="cls-20" d="m422.6,405.9h-1.7c-.6,0-1.1.1-1.6.3-1.5.6-2.6,2.1-2.6,3.8v1.7c0,.7.4,1.3,1,1.6,1.1.6,2.5,1,3.8,1s3.1-.5,4.4-1.3c.5-.3.8-.9.8-1.5v-1.5c0-1.7-1-3.2-2.5-3.8-.5-.2-1.1-.3-1.7-.3h0Z"/><path class="cls-9" d="m421.7,411.7c-.4,0-.7-.3-.7-.7v-6.2c0-.4.3-.7.7-.7s.7.3.7.7v6.2c0,.4-.3.7-.7.7Z"/><path class="cls-22" d="m437.9,405.9h-1.7c-.6,0-1.1.1-1.6.3-1.5.6-2.6,2.1-2.6,3.8v1.7c0,.7.4,1.3,1,1.6,1.1.6,2.5,1,3.8,1s3.1-.5,4.4-1.3c.5-.3.8-.9.8-1.5v-1.5c0-1.7-1-3.2-2.5-3.8-.5-.2-1.1-.3-1.7-.3h0Z"/><path class="cls-9" d="m437,411.7c-.4,0-.7-.3-.7-.7v-6.2c0-.4.3-.7.7-.7s.7.3.7.7v6.2c0,.4-.3.7-.7.7Z"/><path class="cls-14" d="m453.1,405.9h-1.7c-.6,0-1.1.1-1.6.3-1.5.6-2.6,2.1-2.6,3.8v1.7c0,.7.4,1.3,1,1.6,1.1.6,2.5,1,3.8,1s3.1-.5,4.4-1.3c.5-.3.8-.9.8-1.5v-1.5c0-1.7-1-3.2-2.5-3.8-.5-.2-1.1-.3-1.7-.3h0Z"/><path class="cls-9" d="m452.3,411.7c-.4,0-.7-.3-.7-.7v-6.2c0-.4.3-.7.7-.7s.7.3.7.7v6.2c0,.4-.3.7-.7.7Z"/><path class="cls-9" d="m449.8,417.6h-26.1c-.5,0-1,.4-1,1v19.3c0,.3.3.6.6.6h26.8c.3,0,.6-.3.6-.6v-19.3c0-.5-.4-1-1-1h0Z"/><path class="cls-10" d="m449.8,417.6h-2c.5,0,1,.4,1,1v19.8h1.4c.3,0,.6-.3.6-.6v-19.3c0-.5-.4-1-1-1h0Z"/><path class="cls-20" d="m442.4,432.6c.4-.8.6-1.7.6-2.6,0-1.6-.6-3-1.6-4.1l-4.6,4.1,5.6,2.6Z"/><path class="cls-22" d="m441.4,425.9c-1.1-1.3-2.8-2.1-4.6-2.1s-4.1,1.1-5.2,2.9l5.2,3.3,4.6-4.1Z"/><path class="cls-14" d="m436.8,430l-5.2-3.3c-.6,1-1,2.2-1,3.5,0,3.4,2.9,6.1,6.3,6.1,2.5,0,4.6-1.5,5.5-3.6l-5.6-2.6Z"/><path class="cls-32" d="m426.3,402.2l.7-1.4-.2-1.7-.7-1.5-1.3-.6s-1.3,0-1.4,0c0,0-.7-1.1-.7-1.1l-1.4-1.5h-1.5c0,.1-2.1.7-2.1.7l-1,.7-.4.4-.3.4c0,.1-.1.3-.2.4,0,0,0,0,0,0-.6,1.5-.2,3.2,1,4.2l1.4,1.1,7,.6.7-.5c0,0,.2-.1.3-.2h0Z"/><path class="cls-31" d="m427.4,398.7l-.3-1c-.2-.8-1-1.3-1.8-1.1-.8.2-1.6-.2-1.8-1v-.3c-.3-.7-1-1.3-1.7-1.4-.3,0-.6,0-.9,0-2,0-3.7,1.1-4.7,2.7,1-1,2.4-1.6,3.8-1.6.3,0,.6,0,.9,0,.8.1,1.4.7,1.6,1.4v.3c.3.7,1.1,1.2,1.9,1,.8-.2,1.6.3,1.8,1.1l.3,1c.2.9.1,1.7-.2,2.5,1-.9,1.5-2.3,1.1-3.7h0Z"/><path class="cls-8" d="m421.7,407.1c-1.9,0-3.5-1.6-3.5-3.5v-3.1c0-.2.2-.4.4-.4,1.4,0,2.7-.2,3.6-.9.2-.1.4,0,.6,0,.4.5,1.1.7,2,.8.2,0,.4.2.4.4v3.1c0,1.9-1.6,3.5-3.5,3.5Z"/><path class="cls-15" d="m424.8,400c-.9,0-1.6-.3-2-.8-.1-.2-.4-.2-.6,0-.9.6-2.1.9-3.6.9-.2,0-.4.2-.4.4v1.4c0-.2.2-.4.4-.4,1.4,0,2.7-.2,3.6-.9.2-.1.4,0,.6,0,.4.5,1.1.7,2,.8.2,0,.4.2.4.4v-1.4c0-.2-.2-.4-.4-.4h0Z"/><path class="cls-32" d="m441.6,402.2l.7-1.4-.2-1.7-.7-1.5-1.3-.6s-1.3,0-1.4,0c0,0-.7-1.1-.7-1.1l-1.4-1.5h-1.5c0,.1-2.1.7-2.1.7l-1,.7-.4.4-.3.4c0,.1-.1.3-.2.4,0,0,0,0,0,0-.6,1.5-.2,3.2,1,4.2l1.4,1.1,7,.6.7-.5c0,0,.2-.1.3-.2h0Z"/><path class="cls-31" d="m442.6,398.7l-.3-1c-.2-.8-1-1.3-1.8-1.1-.8.2-1.6-.2-1.8-1v-.3c-.3-.7-1-1.3-1.7-1.4-.3,0-.6,0-.9,0-2,0-3.7,1.1-4.7,2.7,1-1,2.4-1.6,3.8-1.6.3,0,.6,0,.9,0,.8.1,1.4.7,1.6,1.4v.3c.3.7,1.1,1.2,1.9,1,.8-.2,1.6.3,1.8,1.1l.3,1c.2.9.1,1.7-.2,2.5,1-.9,1.5-2.3,1.1-3.7h0Z"/><path class="cls-8" d="m437,407.1c-1.9,0-3.5-1.6-3.5-3.5v-3.1c0-.2.2-.4.4-.4,1.4,0,2.7-.2,3.6-.9.2-.1.4,0,.6,0,.4.5,1.1.7,2,.8.2,0,.4.2.4.4v3.1c0,1.9-1.6,3.5-3.5,3.5Z"/><path class="cls-15" d="m440.1,400c-.9,0-1.6-.3-2-.8-.1-.2-.4-.2-.6,0-.9.6-2.1.9-3.6.9-.2,0-.4.2-.4.4v1.4c0-.2.2-.4.4-.4,1.4,0,2.7-.2,3.6-.9.2-.1.4,0,.6,0,.4.5,1.1.7,2,.8.2,0,.4.2.4.4v-1.4c0-.2-.2-.4-.4-.4h0Z"/><path class="cls-32" d="m456.9,402.2l.7-1.4-.2-1.7-.7-1.5-1.3-.6s-1.3,0-1.4,0c0,0-.7-1.1-.7-1.1l-1.4-1.5h-1.5c0,.1-2.1.7-2.1.7l-1,.7-.4.4-.3.4c0,.1-.1.3-.2.4,0,0,0,0,0,0-.7,1.5-.2,3.2,1,4.2l1.4,1.1,7,.6.7-.5c0,0,.2-.1.3-.2h0Z"/><path class="cls-31" d="m457.9,398.7l-.3-1c-.2-.8-1-1.3-1.8-1.1-.8.2-1.6-.2-1.8-1v-.3c-.3-.7-1-1.3-1.7-1.4-.3,0-.6,0-.9,0-2,0-3.7,1.1-4.7,2.7,1-1,2.4-1.6,3.8-1.6.3,0,.6,0,.9,0,.8.1,1.4.7,1.6,1.4v.3c.3.7,1.1,1.2,1.9,1,.8-.2,1.6.3,1.8,1.1l.3,1c.2.9.1,1.7-.2,2.5,1-.9,1.5-2.3,1.1-3.7h0Z"/><path class="cls-8" d="m452.3,407.1c-1.9,0-3.5-1.6-3.5-3.5v-3.1c0-.2.2-.4.4-.4,1.4,0,2.7-.2,3.6-.9.2-.1.4,0,.6,0,.4.5,1.1.7,2,.8.2,0,.4.2.4.4v3.1c0,1.9-1.6,3.5-3.5,3.5Z"/><path class="cls-15" d="m455.4,400c-.9,0-1.6-.3-2-.8-.1-.2-.4-.2-.6,0-.9.6-2.1.9-3.6.9-.2,0-.4.2-.4.4v1.4c0-.2.2-.4.4-.4,1.4,0,2.7-.2,3.6-.9.2-.1.4,0,.6,0,.4.5,1.1.7,2,.8.2,0,.4.2.4.4v-1.4c0-.2-.2-.4-.4-.4h0Z"/><path class="cls-31" d="m430.1,421.1h-3.6c-.4,0-.7-.3-.7-.7s.3-.7.7-.7h3.6c.4,0,.7.3.7.7s-.3.7-.7.7Z"/><path class="cls-31" d="m430.1,423.5h-3.6c-.4,0-.7-.3-.7-.7s.3-.7.7-.7h3.6c.4,0,.7.3.7.7s-.3.7-.7.7Z"/><path class="cls-31" d="m447.1,421.1h-3.6c-.4,0-.7-.3-.7-.7s.3-.7.7-.7h3.6c.4,0,.7.3.7.7s-.3.7-.7.7Z"/><path class="cls-31" d="m447.1,423.5h-3.6c-.4,0-.7-.3-.7-.7s.3-.7.7-.7h3.6c.4,0,.7.3.7.7s-.3.7-.7.7Z"/><path class="cls-31" d="m457,426h-2.5c-.4,0-.7-.3-.7-.7s.3-.7.7-.7h1.9v-6.4c0-.4.3-.7.7-.7s.7.3.7.7v7c0,.4-.3.7-.7.7h0Z"/><path class="cls-31" d="m419.1,426h-2.5c-.4,0-.7-.3-.7-.7v-7c0-.4.3-.7.7-.7s.7.3.7.7v6.4h1.9c.4,0,.7.3.7.7s-.3.7-.7.7Z"/></svg>