<?xml version="1.0" encoding="UTF-8"?><svg id="Layer_1" xmlns="http://www.w3.org/2000/svg" xmlns:xlink="http://www.w3.org/1999/xlink" viewBox="0 0 480 300"><defs><style>.cls-1{fill:url(#linear-gradient);}.cls-2,.cls-3{fill:#fff;}.cls-4{fill:#ffb852;}.cls-5{fill:#d4f1fc;}.cls-6,.cls-7{fill:#17a9e1;}.cls-8,.cls-9{fill:#29b7ee;}.cls-10{fill:#3d3d89;}.cls-11{fill:#c1baba;}.cls-11,.cls-9,.cls-12{isolation:isolate;}.cls-11,.cls-9,.cls-13{opacity:.2;}.cls-12{fill:#191d3f;opacity:.1;}.cls-7{font-family:BebasNeue-Regular, 'Bebas Neue';font-size:7.3px;}.cls-14{opacity:.6;}.cls-15{opacity:.9;}.cls-3{stroke:#e7e7e7;stroke-width:2px;}</style><linearGradient id="linear-gradient" x1="123.1" y1="160.7" x2="311.9" y2="103.8" gradientTransform="translate(0 302) scale(1 -1)" gradientUnits="userSpaceOnUse"><stop offset="0" stop-color="#d8e9ff"/><stop offset="1" stop-color="#a7c8ff"/></linearGradient></defs><rect class="cls-2" x="-10" y="-11" width="490" height="325"/><path class="cls-1" d="m287.3,281.8c0,6.6-5.3,12-11.9,12h-106.2c0,0-5.4,0-5.4,0-1.6,0-3.2-.3-4.6-.9-2.9-1.2-5.3-3.6-6.5-6.6-.6-1.4-.9-2.9-.9-4.5h0v-58c0,0-.1-58.9-.1-58.9v-30.2s0-1.4,0-1.4v-30.2s0-3.1,0-3.1v-35.6s0-5.7,0-5.7h0c0-6.6,5.3-12,11.9-11.9h111.6c6.6-.1,11.9,5.2,12,11.8h0v32.1s-1.2,1.3-1.2,1.3h0c.8.8,1.2,1.8,1.2,2.9v13.5c0,1-.4,2-1.1,2.8l1.1,1.1v16.4c-.1.7-.5,1.3-1,1.8l1,1h.1c0,.1,0,34.9,0,34.9v115.2h0Z"/><path class="cls-2" d="m280.1,65v201.2c0,4.2-3.4,7.6-7.6,7.6h-106.4c-4.2,0-7.6-3.4-7.6-7.6V65c3-2.4,6.9-3.9,11-3.9h99.6c4.2,0,8,1.4,11,3.9Z"/><path class="cls-5" d="m280.1,208.3v60c0,3-3.4,5.5-7.6,5.5h-106.4c-4.2,0-7.6-2.4-7.6-5.5v-60c3-1.7,6.9-2.8,11-2.8h99.6c4.2,0,8,1,11,2.8Z"/><path class="cls-12" d="m162.9,276.7s13.9,3.3,43.2,5c29.3,1.7,61.9,6.8,70.9-2.2,9.7-9.7,4.2-11.4,4.2-11.4,0,0,3.3,3.6-7.3,6.6-10.5,3-111.2,2-111.2,2h0Z"/><path class="cls-6" d="m280.3,30v35c-3-2.4-6.9-3.9-11-3.9h-99.6c-4.2,0-8,1.4-11,3.9V30c0-4.2,3.4-7.6,7.6-7.6h106.4c4.2,0,7.6,3.4,7.6,7.6h0Z"/><path class="cls-2" d="m215.7,32.8v.3h-1v3h-.3v-3h-1v-.3h2.4,0Z"/><path class="cls-2" d="m218,34.9c0,.2,0,.4,0,.5,0,.2-.1.3-.2.4,0,.1-.2.2-.3.3-.1,0-.3,0-.4,0s-.3,0-.4,0c-.1,0-.2-.1-.3-.3,0-.1-.2-.2-.2-.4,0-.2,0-.3,0-.5s0-.4,0-.5c0-.2.1-.3.2-.4,0-.1.2-.2.3-.3.1,0,.3,0,.4,0s.3,0,.4,0c.1,0,.2.1.3.3,0,.1.2.2.2.4,0,.2,0,.3,0,.5Zm-.3,0c0-.3,0-.5-.2-.7-.1-.2-.3-.3-.6-.3s-.4,0-.6.3c-.1.2-.2.4-.2.7s0,.5.2.7c.1.2.3.3.6.3s.4,0,.6-.3c.1-.2.2-.4.2-.7Z"/><path class="cls-2" d="m220.6,36c0,0-.2,0-.3,0-.1,0-.3,0-.5,0s-.3,0-.5,0c-.1,0-.3-.1-.4-.2-.1-.1-.2-.2-.2-.4,0-.2,0-.3,0-.5s0-.3,0-.5c0-.1.1-.3.2-.4,0-.1.2-.2.3-.3.1,0,.3,0,.5,0s.3,0,.4,0c.1,0,.2,0,.3.1v-1.3h.3c0,0,0,3.5,0,3.5h0Zm-.3-1.9s0,0-.1,0c0,0,0,0-.1,0,0,0-.1,0-.2,0,0,0-.1,0-.2,0-.1,0-.3,0-.4,0,0,0-.2.1-.2.2s-.1.2-.1.3c0,.1,0,.2,0,.4,0,.3,0,.6.2.7.2.2.4.3.6.3s.3,0,.4,0c0,0,.2,0,.2,0v-1.7h0Z"/><path class="cls-2" d="m222.1,33.6c.2,0,.3,0,.4,0,.1,0,.2.1.3.2,0,0,.1.2.1.3,0,.1,0,.2,0,.4v1.5s0,0-.1,0c0,0-.1,0-.2,0,0,0-.2,0-.3,0,0,0-.2,0-.3,0s-.2,0-.3,0c-.1,0-.2,0-.3-.1,0,0-.1-.1-.2-.2,0,0,0-.2,0-.3s0-.2,0-.3c0,0,.1-.2.2-.2,0,0,.2-.1.3-.1.1,0,.3,0,.4,0h.1s0,0,.1,0c0,0,0,0,.1,0,0,0,0,0,0,0h0c0-.2,0-.3,0-.4,0,0,0-.1,0-.2,0,0,0-.1-.2-.1,0,0-.2,0-.3,0s-.3,0-.4,0c0,0-.1,0-.2,0v-.3s0,0,.2,0c.1,0,.2,0,.4,0Zm0,2.2c.1,0,.2,0,.3,0,0,0,.2,0,.2,0v-.8s0,0-.2,0c0,0-.2,0-.3,0s-.1,0-.2,0c0,0-.2,0-.2,0,0,0-.1,0-.2.1,0,0,0,.1,0,.2s0,.2,0,.2c0,0,0,.1.1.1,0,0,.1,0,.2,0,0,0,.2,0,.3,0h0Z"/><path class="cls-2" d="m224.4,36.1c0-.2-.2-.4-.3-.6,0-.2-.2-.4-.3-.6,0-.2-.2-.4-.2-.6,0-.2-.1-.4-.2-.6h.3c0,.1,0,.3.1.5,0,.2.1.3.2.5,0,.2.1.4.2.6,0,.2.2.4.3.6,0-.2.1-.4.2-.5,0-.2,0-.3.1-.5,0-.2,0-.3.1-.5,0-.2,0-.4.1-.6h.3c0,.4-.2.9-.3,1.3-.1.4-.3.8-.4,1.2,0,.1-.1.3-.2.4,0,0-.1.2-.2.2,0,0-.2.1-.3.1,0,0-.2,0-.4,0s-.1,0-.2,0c0,0,0,0-.1,0v-.2c0,0,.1,0,.2,0,0,0,.1,0,.2,0s.2,0,.2,0c0,0,.1,0,.2,0,0,0,.1,0,.1-.2s0-.2.1-.3h0Z"/><path class="cls-2" d="m207.8,43c0-1.1.2-2,.6-2.6.4-.6.9-.9,1.6-.9s1.2.3,1.6.9c.4.6.6,1.5.6,2.6s-.2,2-.6,2.6c-.4.6-.9.9-1.6.9s-1.2-.3-1.6-.9c-.4-.6-.6-1.5-.6-2.6h0Zm3.6,0c0-.4,0-.8,0-1.1,0-.3-.1-.7-.2-.9-.1-.3-.3-.5-.5-.6-.2-.2-.4-.2-.7-.2s-.5,0-.7.2c-.2.2-.3.4-.4.6-.1.3-.2.6-.2.9,0,.3,0,.7,0,1.1s0,.8,0,1.1c0,.3.1.7.2.9.1.3.3.5.4.6.2.2.4.2.7.2s.5,0,.7-.2c.2-.2.3-.4.5-.6.1-.3.2-.6.2-.9,0-.3,0-.7,0-1.1Z"/><path class="cls-2" d="m217.5,42.3c0,1.4-.3,2.4-1,3.1-.6.7-1.6,1-2.8,1v-.5c.4,0,.8,0,1.2-.1.4,0,.7-.2.9-.4.3-.2.5-.5.6-.8.2-.3.3-.7.3-1.2-.2,0-.4.2-.6.2-.2,0-.5,0-.8,0s-.7,0-.9-.2c-.2-.1-.5-.3-.6-.4-.2-.2-.3-.4-.3-.6,0-.2-.1-.5-.1-.8s0-.5.1-.7c0-.2.2-.5.4-.7.2-.2.4-.4.6-.5.2-.1.5-.2.9-.2.7,0,1.2.2,1.6.7.4.5.5,1.2.5,2.1h0Zm-2.1.8c.3,0,.6,0,.8,0,.2,0,.4-.1.6-.2,0,0,0-.2,0-.2v-.2c0-.3,0-.6,0-.9,0-.3-.1-.5-.2-.7-.1-.2-.3-.4-.4-.5-.2-.1-.4-.2-.7-.2s-.4,0-.6.1c-.2,0-.3.2-.4.3,0,.1-.2.3-.2.5,0,.2,0,.4,0,.6,0,.5.1.9.3,1.1s.6.4,1,.4h0Z"/><path class="cls-2" d="m222.9,46c.6,0,1.1-.1,1.3-.4.3-.3.4-.6.4-1s0-.5-.2-.7c-.1-.2-.2-.3-.4-.5-.2-.1-.4-.2-.6-.2-.2,0-.5,0-.8,0h0v-.5h.2c.2,0,.4,0,.5,0,.2,0,.3,0,.5-.2.1,0,.3-.2.4-.4,0-.2.1-.4.1-.6s0-.4-.1-.5c0-.2-.2-.3-.3-.4-.1,0-.3-.2-.4-.2-.2,0-.3,0-.5,0-.3,0-.6,0-.8.2-.2,0-.4.2-.5.3l-.3-.5c0,0,.1,0,.2-.2,0,0,.2-.1.4-.2.1,0,.3,0,.4-.1.2,0,.3,0,.5,0,.3,0,.6,0,.9.1.2,0,.4.2.6.4.2.2.3.3.4.5,0,.2.1.4.1.7,0,.4-.1.7-.3,1-.2.2-.5.4-.8.5.2,0,.4.1.5.2.2,0,.3.2.5.4.1.1.2.3.3.5,0,.2.1.4.1.7s0,.5-.2.8c0,.2-.2.4-.4.6-.2.2-.4.3-.8.4s-.7.1-1.1.1-.4,0-.6,0c-.2,0-.3,0-.5,0-.1,0-.2,0-.3-.1,0,0-.2,0-.2,0l.2-.6s0,0,.2,0c0,0,.2,0,.3.1.1,0,.3,0,.4,0,.2,0,.3,0,.5,0h0Z"/><path class="cls-2" d="m226.7,43c0-1.1.2-2,.6-2.6.4-.6.9-.9,1.6-.9s1.2.3,1.6.9c.4.6.6,1.5.6,2.6s-.2,2-.6,2.6c-.4.6-.9.9-1.6.9s-1.2-.3-1.6-.9c-.4-.6-.6-1.5-.6-2.6h0Zm3.6,0c0-.4,0-.8,0-1.1,0-.3-.1-.7-.2-.9-.1-.3-.3-.5-.5-.6-.2-.2-.4-.2-.7-.2s-.5,0-.7.2c-.2.2-.3.4-.4.6-.1.3-.2.6-.2.9,0,.3,0,.7,0,1.1s0,.8,0,1.1c0,.3.1.7.2.9.1.3.3.5.4.6.2.2.4.2.7.2s.5,0,.7-.2c.2-.2.3-.4.5-.6.1-.3.2-.6.2-.9,0-.3,0-.7,0-1.1Z"/><g class="cls-14"><path class="cls-2" d="m266.9,31.4h-.5v-.7c0-.2-.2-.4-.4-.4h-10c-.3,0-.4.2-.4.4v3.5c0,.2.2.4.4.4h10c.2,0,.4-.2.4-.4v-1.1h.5c.2,0,.4-.2.4-.4v-.9c0-.2-.2-.4-.4-.4Zm-9,2.5h-1.7v-3.1h1.7v3.1Zm2,0h-1.7v-3.1h1.7v3.1Zm2,0h-1.7v-3.1h1.7v3.1Zm2,0h-1.7v-3.1h1.7v3.1Zm2,0h-1.7v-3.1h1.7v3.1Z"/><path class="cls-2" d="m178.4,28.5h-1.9v5.9h1.9v-5.9Z"/><path class="cls-2" d="m175.9,30.5h-1.9v3.9h1.9v-3.9Z"/><path class="cls-2" d="m173.4,32.4h-1.9v2h1.9v-2Z"/><path class="cls-2" d="m181.9,33.4h-.6v.8h-.3v-.8h-1.7v-.2l1.6-1.9h.3l-1.5,1.9h1.3v-.7h.3v.7h.6v.3Z"/><path class="cls-2" d="m184.5,32.7h.3v1.1c-.1.1-.3.2-.5.3-.2,0-.4,0-.6,0s-.6,0-.8-.2c-.2-.1-.4-.3-.6-.5-.1-.2-.2-.5-.2-.8s0-.5.2-.8c.1-.2.3-.4.6-.5.2-.1.5-.2.8-.2s.4,0,.6.1c.2,0,.3.2.5.3l-.2.2c-.2-.2-.5-.3-.9-.3s-.4,0-.6.2c-.2.1-.3.2-.4.4-.1.2-.2.4-.2.6s0,.4.2.6c.1.2.3.3.4.4.2.1.4.2.6.2s.6,0,.8-.2v-1h0Z"/></g><path class="cls-10" d="m272.5,18.2h-106.4c-6,0-10.9,4.9-10.9,10.9v237.1c0,6,4.9,10.9,10.9,10.9h106.4c6,0,10.9-4.9,10.9-10.9V29.1c0-6-4.9-10.9-10.9-10.9Zm6.9,246.6c0,4.2-3.4,7.5-7.5,7.5h-105.2c-4.2,0-7.5-3.4-7.5-7.5V31.4c0-4.2,3.4-7.5,7.5-7.5h105.2c4.2,0,7.5,3.4,7.5,7.5v233.4h0Z"/><path class="cls-8" d="m182.9,165.2h.9v20.1h-.9c-3.6,0-6.6-3-6.6-6.6v-7c0-3.6,3-6.6,6.6-6.6Z"/><path class="cls-8" d="m193.6,165.2h-7.5v20.1h7.5v-20.1Z"/><path class="cls-8" d="m203.3,165.2h-7.5v20.1h7.5v-20.1Z"/><path class="cls-8" d="m213.1,165.2h-7.5v20.1h7.5v-20.1Z"/><path class="cls-8" d="m222.8,165.2h-7.5v20.1h7.5v-20.1Z"/><path class="cls-9" d="m232.5,165.2h-7.5v20.1h7.5v-20.1Z"/><path class="cls-9" d="m242.3,165.2h-7.5v20.1h7.5v-20.1Z"/><path class="cls-9" d="m252,165.2h-7.5v20.1h7.5v-20.1Z"/><path class="cls-9" d="m254.2,165.2h.9c3.6,0,6.6,3,6.6,6.6v7c0,3.6-3,6.6-6.6,6.6h-.9v-20.1Z"/><path class="cls-8" d="m175.3,216.8h-7.3c-.4,0-.8.4-.8.8v7.3c0,.4.4.8.8.8h7.3c.4,0,.8-.4.8-.8v-7.3c0-.4-.4-.8-.8-.8Z"/><path class="cls-8" d="m186,216.8h-7.3c-.4,0-.8.4-.8.8v7.3c0,.4.4.8.8.8h7.3c.4,0,.8-.4.8-.8v-7.3c0-.4-.4-.8-.8-.8Z"/><path class="cls-8" d="m180.9,228.6h-7.3c-.4,0-.8.4-.8.8v7.3c0,.4.4.8.8.8h7.3c.4,0,.8-.4.8-.8v-7.3c0-.4-.4-.8-.8-.8Z"/><path class="cls-8" d="m191.2,228.6h-7.3c-.4,0-.8.4-.8.8v7.3c0,.4.4.8.8.8h7.3c.4,0,.8-.4.8-.8v-7.3c0-.4-.4-.8-.8-.8Z"/><path class="cls-8" d="m201.6,228.6h-7.3c-.4,0-.8.4-.8.8v7.3c0,.4.4.8.8.8h7.3c.4,0,.8-.4.8-.8v-7.3c0-.4-.4-.8-.8-.8Z"/><path class="cls-8" d="m212,228.6h-7.3c-.4,0-.8.4-.8.8v7.3c0,.4.4.8.8.8h7.3c.4,0,.8-.4.8-.8v-7.3c0-.4-.4-.8-.8-.8Z"/><path class="cls-8" d="m222.4,228.6h-7.3c-.4,0-.8.4-.8.8v7.3c0,.4.4.8.8.8h7.3c.4,0,.8-.4.8-.8v-7.3c0-.4-.4-.8-.8-.8Z"/><path class="cls-8" d="m232.7,228.6h-7.3c-.4,0-.8.4-.8.8v7.3c0,.4.4.8.8.8h7.3c.4,0,.8-.4.8-.8v-7.3c0-.4-.4-.8-.8-.8Z"/><path class="cls-8" d="m243.1,228.6h-7.3c-.4,0-.8.4-.8.8v7.3c0,.4.4.8.8.8h7.3c.4,0,.8-.4.8-.8v-7.3c0-.4-.4-.8-.8-.8Z"/><path class="cls-8" d="m253.5,228.6h-7.3c-.4,0-.8.4-.8.8v7.3c0,.4.4.8.8.8h7.3c.4,0,.8-.4.8-.8v-7.3c0-.4-.4-.8-.8-.8Z"/><path class="cls-8" d="m263.9,228.6h-7.3c-.4,0-.8.4-.8.8v7.3c0,.4.4.8.8.8h7.3c.4,0,.8-.4.8-.8v-7.3c0-.4-.4-.8-.8-.8Z"/><path class="cls-8" d="m196.6,216.8h-7.3c-.4,0-.8.4-.8.8v7.3c0,.4.4.8.8.8h7.3c.4,0,.8-.4.8-.8v-7.3c0-.4-.4-.8-.8-.8Z"/><path class="cls-8" d="m207.3,216.8h-7.3c-.4,0-.8.4-.8.8v7.3c0,.4.4.8.8.8h7.3c.4,0,.8-.4.8-.8v-7.3c0-.4-.4-.8-.8-.8Z"/><path class="cls-8" d="m217.9,216.8h-7.3c-.4,0-.8.4-.8.8v7.3c0,.4.4.8.8.8h7.3c.4,0,.8-.4.8-.8v-7.3c0-.4-.4-.8-.8-.8Z"/><path class="cls-8" d="m228.6,216.8h-7.3c-.4,0-.8.4-.8.8v7.3c0,.4.4.8.8.8h7.3c.4,0,.8-.4.8-.8v-7.3c0-.4-.4-.8-.8-.8Z"/><path class="cls-8" d="m239.3,216.8h-7.3c-.4,0-.8.4-.8.8v7.3c0,.4.4.8.8.8h7.3c.4,0,.8-.4.8-.8v-7.3c0-.4-.4-.8-.8-.8Z"/><path class="cls-8" d="m249.9,216.8h-7.3c-.4,0-.8.4-.8.8v7.3c0,.4.4.8.8.8h7.3c.4,0,.8-.4.8-.8v-7.3c0-.4-.4-.8-.8-.8Z"/><path class="cls-8" d="m260.6,216.8h-7.3c-.4,0-.8.4-.8.8v7.3c0,.4.4.8.8.8h7.3c.4,0,.8-.4.8-.8v-7.3c0-.4-.4-.8-.8-.8Z"/><path class="cls-8" d="m271.3,216.8h-7.3c-.4,0-.8.4-.8.8v7.3c0,.4.4.8.8.8h7.3c.4,0,.8-.4.8-.8v-7.3c0-.4-.4-.8-.8-.8Z"/><path class="cls-8" d="m175.3,253.1h-7.3c-.4,0-.8.4-.8.8v7.3c0,.4.4.8.8.8h7.3c.4,0,.8-.4.8-.8v-7.3c0-.4-.4-.8-.8-.8Z"/><path class="cls-8" d="m186,253.1h-7.3c-.4,0-.8.4-.8.8v7.3c0,.4.4.8.8.8h7.3c.4,0,.8-.4.8-.8v-7.3c0-.4-.4-.8-.8-.8Z"/><path class="cls-8" d="m249.9,253.1h-7.3s0,0-.1,0c0,0,0,0-.1,0h-53c-.4,0-.8.4-.8.8v7.3c0,.4.4.8.8.8h53s0,0,.1,0c0,0,0,0,.1,0h7.3c.4,0,.8-.4.8-.8v-7.3c0-.4-.4-.8-.8-.8Z"/><path class="cls-8" d="m260.6,253.1h-7.3c-.4,0-.8.4-.8.8v7.3c0,.4.4.8.8.8h7.3c.4,0,.8-.4.8-.8v-7.3c0-.4-.4-.8-.8-.8Z"/><path class="cls-8" d="m271.3,253.1h-7.3c-.4,0-.8.4-.8.8v7.3c0,.4.4.8.8.8h7.3c.4,0,.8-.4.8-.8v-7.3c0-.4-.4-.8-.8-.8Z"/><path class="cls-8" d="m175.3,240h-7.3c-.4,0-.8.4-.8.8v7.3c0,.4.4.8.8.8h7.3c.4,0,.8-.4.8-.8v-7.3c0-.4-.4-.8-.8-.8Z"/><path class="cls-8" d="m186,240h-7.3c-.4,0-.8.4-.8.8v7.3c0,.4.4.8.8.8h7.3c.4,0,.8-.4.8-.8v-7.3c0-.4-.4-.8-.8-.8Z"/><path class="cls-8" d="m196.6,240h-7.3c-.4,0-.8.4-.8.8v7.3c0,.4.4.8.8.8h7.3c.4,0,.8-.4.8-.8v-7.3c0-.4-.4-.8-.8-.8Z"/><path class="cls-8" d="m207.3,240h-7.3c-.4,0-.8.4-.8.8v7.3c0,.4.4.8.8.8h7.3c.4,0,.8-.4.8-.8v-7.3c0-.4-.4-.8-.8-.8Z"/><path class="cls-8" d="m217.9,240h-7.3c-.4,0-.8.4-.8.8v7.3c0,.4.4.8.8.8h7.3c.4,0,.8-.4.8-.8v-7.3c0-.4-.4-.8-.8-.8Z"/><path class="cls-8" d="m228.6,240h-7.3c-.4,0-.8.4-.8.8v7.3c0,.4.4.8.8.8h7.3c.4,0,.8-.4.8-.8v-7.3c0-.4-.4-.8-.8-.8Z"/><path class="cls-8" d="m239.3,240h-7.3c-.4,0-.8.4-.8.8v7.3c0,.4.4.8.8.8h7.3c.4,0,.8-.4.8-.8v-7.3c0-.4-.4-.8-.8-.8Z"/><path class="cls-8" d="m249.9,240h-7.3c-.4,0-.8.4-.8.8v7.3c0,.4.4.8.8.8h7.3c.4,0,.8-.4.8-.8v-7.3c0-.4-.4-.8-.8-.8Z"/><path class="cls-8" d="m271.3,240h-13.9c-.4,0-.8.4-.8.8v7.3c0,.4.4.8.8.8h13.9c.4,0,.8-.4.8-.8v-7.3c0-.4-.4-.8-.8-.8Z"/><path class="cls-11" d="m287.2,144h-130.2c-1.9,0-3.8-.6-5.3-1.6v-30.2s0-1.4,0-1.4v-30.2s0-3.1,0-3.1v-35.6c1.5-1.1,3.5-1.8,5.6-1.8h129.8v28.1s-1.2,1.3-1.2,1.3h0c.8.8,1.2,1.8,1.2,2.9v13.5c0,1-.4,2-1.1,2.8l1.1,1.1v16.4c-.1.7-.5,1.3-1,1.8l1,1h.1c0,.1,0,34.9,0,34.9Z"/><path class="cls-2" d="m295.3,45.9c0-5.3-4.3-9.7-9.7-9.7h-134.9c-5.4,0-9.7,4.3-9.7,9.7l-.2,84.5c0,1.1.2,2.2.6,3.2,1.3,3.7,4.9,6.4,9.1,6.4h134.9c3.5,0,6.7-1.9,8.3-4.8.8-1.4,1.3-3.1,1.3-4.9l.2-84.5h0Z"/><path class="cls-6" d="m213.2,52.9c0,1.5-1.2,2.7-2.7,2.7s-2.7-1.2-2.7-2.7,1.2-2.7,2.7-2.7,2.7,1.2,2.7,2.7Z"/><path class="cls-6" d="m219.9,52.9c0,1.5-1.2,2.7-2.7,2.7s-2.7-1.2-2.7-2.7,1.2-2.7,2.7-2.7,2.7,1.2,2.7,2.7Z"/><path class="cls-4" d="m226.6,52.9c0,1.5-1.2,2.7-2.7,2.7s-2.7-1.2-2.7-2.7,1.2-2.7,2.7-2.7,2.7,1.2,2.7,2.7Z"/><path class="cls-6" d="m237.9,74.7h-13.2c-1.6,0-2.9,1.3-2.9,2.9s1.3,2.9,2.9,2.9h13.2c1.6,0,2.9-1.3,2.9-2.9s-1.3-2.9-2.9-2.9Z"/><path class="cls-6" d="m269.4,74.7h-22.2c-1.6,0-2.9,1.3-2.9,2.9s1.3,2.9,2.9,2.9h22.2c1.6,0,2.9-1.3,2.9-2.9s-1.3-2.9-2.9-2.9Z"/><path class="cls-6" d="m269.4,91.3h-44.7c-1.6,0-2.9,1.3-2.9,2.9s1.3,2.9,2.9,2.9h44.7c1.6,0,2.9-1.3,2.9-2.9s-1.3-2.9-2.9-2.9Z"/><path class="cls-6" d="m237.9,105.4h-13.2c-1.6,0-2.9,1.3-2.9,2.9s1.3,2.9,2.9,2.9h13.2c1.6,0,2.9-1.3,2.9-2.9s-1.3-2.9-2.9-2.9Z"/><path class="cls-6" d="m211.7,100.1l-4.8-5.6-5.6,4.8-.4,4.4,3.5-3c-2.6,8.5-10.5,14.4-19.7,14.4s-18.2-6.9-20.2-16.4c-.2-.8-1-1.4-1.8-1.2-.8.2-1.4,1-1.2,1.8,1.1,5.2,4,10,8.2,13.4,4.2,3.5,9.6,5.4,15,5.4s11.2-2,15.5-5.7c3.7-3.2,6.3-7.5,7.5-12.1l3.6,4.2.4-4.4h0Z"/><path class="cls-6" d="m168.3,89.7l.4-4.4-3.5,3c2.6-8.5,10.5-14.4,19.7-14.4s17.8,6.5,20.1,15.8c.2.8,1,1.3,1.9,1.1.8-.2,1.3-1,1.1-1.9-1.2-5.1-4.2-9.7-8.3-13-4.2-3.3-9.4-5.2-14.8-5.2s-11.2,2-15.5,5.7c-3.7,3.2-6.3,7.5-7.5,12.1l-3.6-4.2-.4,4.4,4.8,5.6,5.6-4.8h0Z"/><path class="cls-6" d="m171.5,96v5.8c0,.5.2.9.5,1.3.3.3.8.5,1.3.5s.9-.2,1.3-.5c.3-.3.5-.8.5-1.3v-5.8h-1.2v5.8c0,.2,0,.3-.2.5-.1.1-.3.2-.5.2s-.3,0-.5-.2c-.1-.1-.2-.3-.2-.5v-5.8h-1.1Z"/><path class="cls-6" d="m176.3,96v7.5h1.1v-2.8h.6c.5,0,.9-.2,1.3-.5.3-.3.5-.8.5-1.3v-1.1c0-.5-.1-.9-.5-1.3-.3-.3-.8-.5-1.3-.5h-1.8Zm2.3,1.3c.1.1.2.3.2.5v1.1c0,.2,0,.3-.2.5-.1.1-.3.2-.5.2h-.7v-2.4h.7c.2,0,.3,0,.5.2h0Z"/><path class="cls-6" d="m182.7,96h-1.8v7.5h1.8c.5,0,.9-.2,1.3-.5s.5-.8.5-1.3v-3.9c0-.5-.2-.9-.5-1.3-.3-.3-.8-.5-1.3-.5Zm.7,5.7c0,.2,0,.3-.2.5-.1.1-.3.2-.5.2h-.7v-5.2h.7c.2,0,.3,0,.4.2s.2.3.2.5v3.9h0Z"/><path class="cls-6" d="m185.5,103.5h1.2l.3-1.7h1.2l.3,1.7h1.2l-1.3-7.5h-1.6l-1.3,7.5Zm2-5.8l.4,3h-.8l.4-3h0Z"/><path class="cls-6" d="m192,103.5v-6.4h1.2v-1.1h-3.5v1.1h1.2v6.4h1.1Z"/><path class="cls-6" d="m174.9,94.5h-3.3v-8h1.2v6.8h2.1v1.2Z"/><path class="cls-6" d="m177.3,92.6l-.3,1.8h-1.3l1.4-8h1.7l1.3,8h-1.3l-.3-1.8h-1.3Zm.6-4.4l-.4,3.2h.9l-.4-3.2Z"/><path class="cls-6" d="m181.3,87.7h-1.3v-1.2h3.8v1.2h-1.3v6.8h-1.2v-6.8Z"/><path class="cls-6" d="m184.8,94.5v-8.1h3.5v1.2h-2.2v2.2h1.6v1.2h-1.6v2.2h2.2v1.2h-3.5Z"/><path class="cls-6" d="m193.1,92.5c0,.6-.1,1-.4,1.4-.2.3-.5.5-.8.6-.2,0-.4,0-.7,0-.5,0-.9-.1-1.2-.3-.3-.2-.5-.5-.6-.8-.1-.3-.2-.7-.3-1.1h1.2c0,.4.2.7.4.9.1.2.3.2.5.2.3,0,.5-.1.6-.4,0-.1.1-.3.1-.5,0-.3-.1-.7-.5-1-.2-.2-.6-.6-1.1-1-.4-.4-.7-.7-.9-1-.2-.3-.3-.7-.3-1.1,0-.7.2-1.3.7-1.7.3-.2.7-.3,1.1-.3s.8,0,1.1.3c.2.2.4.4.6.6.1.3.2.6.3.9l-1.2.2c0-.3-.1-.6-.3-.8-.1-.1-.3-.2-.5-.2s-.4,0-.5.3c0,.2-.1.4-.1.6,0,.4.2.7.5,1.1.1.1.3.3.5.5.3.2.5.4.6.5.3.3.5.6.7.9,0,.1.1.3.2.4.1.3.2.5.2.8h0Z"/><path class="cls-6" d="m195.2,87.7h-1.3v-1.2h3.8v1.2h-1.3v6.8h-1.2v-6.8Z"/><path class="cls-6" d="m197.6,97.1v-1.1h-3.2v7.5h3.2v-1.1h-2.1v-2h1.5v-1.1h-1.5v-2h2.1Z"/><g><g class="cls-15"><path class="cls-3" d="m394.6,115.5v44.5c0,2.6-2.1,4.7-4.7,4.7h-77.9c-2.6,0-4.7-2.1-4.7-4.7v-44.5h87.2Z"/><path class="cls-6" d="m395,113v2.9h-87.9v-2.9c0-2.8,2.3-5,5-5h77.9c2.8,0,5,2.3,5,5h0Z"/><path class="cls-2" d="m317.2,112.4c0,.7-.6,1.3-1.3,1.3s-1.3-.6-1.3-1.3.6-1.3,1.3-1.3,1.3.6,1.3,1.3Z"/><path class="cls-2" d="m320.5,112.4c0,.7-.6,1.3-1.3,1.3s-1.3-.6-1.3-1.3.6-1.3,1.3-1.3,1.3.6,1.3,1.3Z"/><path class="cls-2" d="m323.7,112.4c0,.7-.6,1.3-1.3,1.3s-1.3-.6-1.3-1.3.6-1.3,1.3-1.3,1.3.6,1.3,1.3Z"/></g><path class="cls-6" d="m354.6,129.2h-8.3c-1,0-1.8.8-1.8,1.8s.8,1.8,1.8,1.8h8.3c1,0,1.8-.8,1.8-1.8s-.8-1.8-1.8-1.8Z"/><path class="cls-6" d="m385.4,139.7h-39.2c-1,0-1.8.8-1.8,1.8s.8,1.8,1.8,1.8h39.2c1,0,1.8-.8,1.8-1.8s-.8-1.8-1.8-1.8Z"/><path class="cls-6" d="m354.6,148.6h-8.3c-1,0-1.8.8-1.8,1.8s.8,1.8,1.8,1.8h8.3c1,0,1.8-.8,1.8-1.8s-.8-1.8-1.8-1.8Z"/><path class="cls-6" d="m340.1,141.7v-3.7l-2.9-.3c-.3-1.3-.8-2.5-1.5-3.5l1.9-2.2-2.6-2.6-2.2,1.9c-1.1-.7-2.3-1.2-3.5-1.5l-.3-2.9h-3.7l-.3,2.9c-1.3.3-2.5.8-3.5,1.5l-2.2-1.9-2.6,2.6,1.9,2.2c-.7,1.1-1.2,2.3-1.5,3.5l-2.9.3v3.7l2.9.3c.3,1.3.8,2.5,1.5,3.5l-1.9,2.2,2.6,2.6,2.2-1.9s0,0,0,0c1,.7,2.2,1.2,3.5,1.4v2.9h4.2v-2.9c.6-.1,1.2-.3,1.7-.5.4-.1.7-.3,1-.5.3-.1.6-.3.8-.5l2.2,1.9,2.6-2.6-1.9-2.2c.7-1.1,1.2-2.3,1.5-3.5l2.9-.3Zm-13,4.7c-3.6,0-6.5-2.9-6.5-6.5s2.9-6.5,6.5-6.5,6.5,2.9,6.5,6.5-2.9,6.5-6.5,6.5Z"/><g class="cls-13"><path class="cls-6" d="m337.2,137.8c-1.1-3.1-3.6-4-3.6-4l2.7-3.1,1.3,1.3-1.9,2.2c.7,1.1,1.2,2.3,1.5,3.5Z"/><path class="cls-6" d="m317,142c1.1,3.1,3.6,4,3.6,4l-2.7,3.1-1.3-1.3,1.9-2.2c-.7-1.1-1.2-2.3-1.5-3.5Z"/></g><g class="cls-13"><path class="cls-6" d="m325,129.8c-3.1,1.1-4,3.6-4,3.6l-3.1-2.7,1.3-1.3,2.2,1.9c1.1-.7,2.3-1.2,3.5-1.5h0Z"/><path class="cls-6" d="m336.3,149.1l-1.3,1.3-2.2-1.9c-.3.2-.5.3-.8.5-.3.2-.6.3-.9.4-.6.2-1.2.4-1.8.6.6-.2,1.2-.5,1.6-.8.4-.3.7-.5,1-.8,1-1,1.4-2,1.4-2l3.1,2.7h0Z"/></g><g class="cls-13"><path class="cls-6" d="m335.8,145.6c1.4-3,.3-5.4.3-5.4l4.1-.3v1.8s-2.9.3-2.9.3c-.3,1.2-.7,2.4-1.5,3.5h0Z"/><path class="cls-6" d="m318.5,134.2c-1.4,3-.3,5.4-.3,5.4l-4.1.3v-1.8s2.9-.3,2.9-.3c.3-1.2.7-2.4,1.5-3.5h0Z"/></g><g class="cls-13"><path class="cls-6" d="m326.9,152.9h-1.9v-2.9c-1.3-.3-2.5-.7-3.6-1.5,0,0,0,0,0,0,3,1.3,5.3.2,5.3.2v4.1Z"/><path class="cls-6" d="m332.8,131.2c-3-1.4-5.4-.3-5.4-.3l-.3-4.1h1.8s.3,2.9.3,2.9c1.2.3,2.4.7,3.5,1.5h0Z"/></g><path class="cls-6" d="m327.1,132.6c-4,0-7.3,3.3-7.3,7.3s3.3,7.3,7.3,7.3,7.3-3.3,7.3-7.3-3.3-7.3-7.3-7.3Zm0,13.8c-3.6,0-6.5-2.9-6.5-6.5s2.9-6.5,6.5-6.5,6.5,2.9,6.5,6.5-2.9,6.5-6.5,6.5Z"/><path class="cls-6" d="m327.2,142.5c0,.3-.1.6-.4.9-.2.2-.5.4-.9.4s-.6-.1-.9-.4c-.2-.2-.4-.5-.4-.9v-2.8c0-.3.1-.6.4-.9.2-.2.5-.4.9-.4s.6.1.9.4c.2.2.4.5.4.9v2.8h0Zm-.8-2.8c0-.1,0-.2-.1-.3,0,0-.2-.1-.3-.1s-.2,0-.3.1c0,0-.1.2-.1.3v2.8c0,.1,0,.2.1.3,0,0,.2.1.3.1s.2,0,.3-.1c0,0,.1-.2.1-.3v-2.8Z"/><path class="cls-6" d="m328.5,143.7v-4h-.7v-.5c.2,0,.4,0,.5-.2.2-.1.3-.3.4-.4h.5v5.1h-.8Z"/><path class="cls-6" d="m324.4,137.7l-.3-1.5h.2l.2,1.2.2-1.2h.2l-.3,1.5h-.3Z"/><path class="cls-6" d="m325.2,137.7v-1.5h.6v.2h-.4v.4h.3v.2h-.3v.4h.4v.2h-.6Z"/><path class="cls-6" d="m326.3,136.2c.1,0,.2,0,.3.1,0,0,0,.1,0,.3v.2c0,.1,0,.2-.1.3l.2.6h-.2v-.6h-.3v.6h-.2v-1.5h.4Zm.1.4c0,0,0-.1-.1-.1h-.1v.5h.1s0,0,0,0c0,0,0,0,0,0v-.2Z"/><path class="cls-6" d="m327.6,137.3c0,.1,0,.2,0,.3,0,0,0,0-.2.1,0,0,0,0-.1,0,0,0-.2,0-.2,0,0,0,0,0-.1-.1,0,0,0-.1,0-.2h.2c0,0,0,.1,0,.2,0,0,0,0,0,0s0,0,.1,0c0,0,0,0,0-.1s0-.1,0-.2c0,0-.1-.1-.2-.2,0,0-.1-.1-.2-.2,0,0,0-.1,0-.2,0-.1,0-.2.1-.3,0,0,.1,0,.2,0s.1,0,.2,0c0,0,0,0,.1.1,0,0,0,.1,0,.2h-.2s0,0,0-.1c0,0,0,0,0,0s0,0,0,0c0,0,0,0,0,.1s0,.1,0,.2c0,0,0,0,.1,0,0,0,0,0,.1,0,0,0,.1.1.1.2,0,0,0,0,0,0,0,0,0,.1,0,.1h0Z"/><path class="cls-6" d="m328,137.7h-.2v-1.5h.2v1.5Z"/><path class="cls-6" d="m328.6,136.2c.1,0,.2,0,.3.1,0,0,.1.2.1.3v.8c0,.1,0,.2-.1.3,0,0-.2.1-.3.1s-.2,0-.3-.1c0,0-.1-.2-.1-.3v-.8c0-.1,0-.2.1-.3,0,0,.2-.1.2-.1h0Zm.1.4s0,0,0,0c0,0,0,0,0,0s0,0,0,0c0,0,0,0,0,0v.8s0,0,0,0c0,0,0,0,0,0s0,0,0,0c0,0,0,0,0,0v-.8Z"/><path class="cls-6" d="m329.4,136.2l.3,1v-1h.2v1.5h-.2l-.3-1v1h-.2v-1.5h.3,0Z"/></g><g class="cls-15"><path class="cls-3" d="m113.6,137v44.1c0,2.6-2.1,4.6-4.6,4.6H31.8c-2.6,0-4.6-2.1-4.6-4.6v-44.1h86.5Z"/><path class="cls-6" d="m114,134.5v2.9H26.8v-2.9c0-2.8,2.2-5,5-5h77.2c2.8,0,5,2.2,5,5h0Z"/><path class="cls-2" d="m36.9,133.8c0,.7-.6,1.3-1.3,1.3s-1.3-.6-1.3-1.3.6-1.3,1.3-1.3,1.3.6,1.3,1.3Z"/><path class="cls-2" d="m40.1,133.8c0,.7-.6,1.3-1.3,1.3s-1.3-.6-1.3-1.3.6-1.3,1.3-1.3,1.3.6,1.3,1.3Z"/><path class="cls-2" d="m43.3,133.8c0,.7-.6,1.3-1.3,1.3s-1.3-.6-1.3-1.3.6-1.3,1.3-1.3,1.3.6,1.3,1.3Z"/></g><path class="cls-6" d="m73.9,150.6h-8.2c-1,0-1.8.8-1.8,1.8s.8,1.8,1.8,1.8h8.2c1,0,1.8-.8,1.8-1.8s-.8-1.8-1.8-1.8Z"/><path class="cls-6" d="m104.5,150.6h-24.8c-1,0-1.8.8-1.8,1.8s.8,1.8,1.8,1.8h24.8c1,0,1.8-.8,1.8-1.8s-.8-1.8-1.8-1.8Z"/><path class="cls-6" d="m104.5,160.9h-38.8c-1,0-1.8.8-1.8,1.8s.8,1.8,1.8,1.8h38.8c1,0,1.8-.8,1.8-1.8s-.8-1.8-1.8-1.8Z"/><path class="cls-6" d="m73.9,169.8h-8.2c-1,0-1.8.8-1.8,1.8s.8,1.8,1.8,1.8h8.2c1,0,1.8-.8,1.8-1.8s-.8-1.8-1.8-1.8Z"/><path class="cls-6" d="m59.6,163v-3.7l-2.9-.3c-.3-1.3-.8-2.5-1.5-3.5l1.8-2.2-2.6-2.6-2.2,1.8c-1.1-.7-2.2-1.2-3.5-1.5l-.3-2.9h-3.7l-.3,2.9c-1.3.3-2.5.8-3.5,1.5l-2.2-1.8-2.6,2.6,1.8,2.2c-.7,1.1-1.2,2.2-1.5,3.5l-2.9.3v3.7l2.9.3c.3,1.3.8,2.5,1.5,3.5l-1.8,2.2,2.6,2.6,2.2-1.8s0,0,0,0c1,.7,2.2,1.1,3.4,1.4v2.9h4.1v-2.9c.6-.1,1.2-.3,1.7-.5.4-.1.7-.3,1-.5.3-.1.6-.3.8-.5l2.2,1.8,2.6-2.6-1.8-2.2c.7-1.1,1.2-2.2,1.5-3.5l2.9-.3Zm-12.9,4.6c-3.6,0-6.5-2.9-6.5-6.5s2.9-6.5,6.5-6.5,6.5,2.9,6.5,6.5-2.9,6.5-6.5,6.5Z"/><g class="cls-13"><path class="cls-6" d="m56.7,159.1c-1.1-3.1-3.6-4-3.6-4l2.7-3,1.3,1.3-1.8,2.2c.7,1.1,1.2,2.2,1.5,3.5h0Z"/><path class="cls-6" d="m36.7,163.3c1.1,3.1,3.6,4,3.6,4l-2.7,3-1.3-1.3,1.8-2.2c-.7-1.1-1.2-2.2-1.5-3.5Z"/></g><g class="cls-13"><path class="cls-6" d="m44.6,151.1c-3.1,1.1-4,3.6-4,3.6l-3-2.7,1.3-1.3,2.2,1.8c1.1-.7,2.2-1.2,3.5-1.5h0Z"/><path class="cls-6" d="m55.8,170.3l-1.3,1.3-2.2-1.8c-.3.2-.5.3-.8.5-.3.2-.6.3-.9.4-.6.2-1.2.4-1.8.6.6-.2,1.1-.5,1.6-.8.4-.3.7-.5,1-.8,1-1,1.4-2,1.4-2l3,2.7h0Z"/></g><g class="cls-13"><path class="cls-6" d="m55.3,166.8c1.4-3,.3-5.3.3-5.3l4-.3v1.8s-2.9.3-2.9.3c-.3,1.2-.7,2.4-1.4,3.5h0Z"/><path class="cls-6" d="m38.1,155.5c-1.4,3-.3,5.3-.3,5.3l-4,.3v-1.8s2.9-.3,2.9-.3c.3-1.2.7-2.4,1.4-3.5h0Z"/></g><g class="cls-13"><path class="cls-6" d="m46.5,174.1h-1.9v-2.9c-1.3-.3-2.5-.7-3.6-1.4,0,0,0,0,0,0,2.9,1.3,5.2.2,5.2.2v4.1Z"/><path class="cls-6" d="m52.3,152.6c-3-1.4-5.3-.3-5.3-.3l-.3-4h1.8s.3,2.9.3,2.9c1.2.3,2.4.7,3.5,1.4h0Z"/></g><path class="cls-6" d="m46.7,154c-4,0-7.2,3.2-7.2,7.2s3.2,7.2,7.2,7.2,7.2-3.2,7.2-7.2-3.2-7.2-7.2-7.2Zm0,13.7c-3.6,0-6.5-2.9-6.5-6.5s2.9-6.5,6.5-6.5,6.5,2.9,6.5,6.5-2.9,6.5-6.5,6.5Z"/><path class="cls-6" d="m46.1,163.7c0,.3-.1.6-.4.9-.2.2-.5.4-.9.4s-.6-.1-.9-.4c-.2-.2-.4-.5-.4-.9v-2.8c0-.3.1-.6.4-.9.2-.2.5-.4.9-.4s.6.1.9.4c.2.2.4.5.4.9v2.8h0Zm-.8-2.8c0-.1,0-.2-.1-.3s-.2-.1-.3-.1-.2,0-.3.1c0,0-.1.2-.1.3v2.8c0,.1,0,.2.1.3,0,0,.2.1.3.1s.2,0,.3-.1c0,0,.1-.2.1-.3v-2.8Z"/><path class="cls-6" d="m46.7,161.2c0-.5.1-.9.4-1.1.2-.2.5-.3.9-.3s.6.1.9.4c.2.3.4.6.4.9s0,.7-.2,1c0,.2-.3.5-.6.9,0,.1-.2.3-.4.6v.2c-.2.1-.3.2-.3.3,0,0,0,0,0,0h1.5v.8h-2.5v-.7s0-.1.2-.3c0,0,.1-.2.2-.3l.2-.3c.1-.2.3-.4.6-.8.2-.3.4-.6.5-.9,0-.2.1-.4.1-.6s0-.3-.1-.4c0-.1-.2-.2-.4-.2s-.4.1-.5.4c0,0,0,.2,0,.3v.2h-.8c0-.1,0-.1,0-.1Z"/><path class="cls-6" d="m43.8,158.9l-.3-1.5h.2l.2,1.2.2-1.2h.2l-.3,1.5h-.3Z"/><path class="cls-6" d="m44.6,158.9v-1.5h.6v.2h-.4v.4h.3v.2h-.3v.4h.4v.2h-.6Z"/><path class="cls-6" d="m45.7,157.4c.1,0,.2,0,.3.1,0,0,0,.1,0,.3v.2c0,.1,0,.2-.1.3l.2.7h-.2v-.6h-.3v.6h-.2v-1.5h.4,0Zm.1.4c0,0,0-.1-.1-.1h-.1v.5h.1s0,0,0,0,0,0,0,0v-.2h0Z"/><path class="cls-6" d="m47,158.6c0,.1,0,.2,0,.3,0,0,0,0-.2.1,0,0,0,0-.1,0,0,0-.2,0-.2,0,0,0,0,0-.1-.1,0,0,0-.1,0-.2h.2c0,0,0,.1,0,.2,0,0,0,0,0,0s0,0,.1,0c0,0,0,0,0,0s0-.1,0-.2c0,0-.1-.1-.2-.2,0,0-.1-.1-.2-.2,0,0,0-.1,0-.2,0-.1,0-.2.1-.3,0,0,.1,0,.2,0s.2,0,.2,0c0,0,0,0,.1.1,0,0,0,.1,0,.2h-.2s0,0,0-.1c0,0,0,0,0,0s0,0,0,0c0,0,0,0,0,.1,0,0,0,.1,0,.2,0,0,0,0,0,0,0,0,0,0,0,0,0,0,0,.1.1.2,0,0,0,0,0,0,0,0,0,0,0,.1h0Z"/><path class="cls-6" d="m47.4,158.9h-.2v-1.5h.2v1.5Z"/><path class="cls-6" d="m48,157.4c0,0,.2,0,.3.1,0,0,.1.2.1.3v.8c0,0,0,.2-.1.3,0,0-.2.1-.3.1s-.2,0-.3-.1c0,0-.1-.2-.1-.3v-.8c0,0,0-.2.1-.3,0,0,.2-.1.3-.1Zm.1.4s0,0,0,0c0,0,0,0,0,0s0,0,0,0c0,0,0,0,0,0v.8s0,0,0,0,0,0,0,0,0,0,0,0c0,0,0,0,0,0v-.8Z"/><path class="cls-6" d="m48.8,157.4l.3,1v-1h.2v1.5h-.2l-.3-1v1h-.2v-1.5h.3Z"/><path class="cls-6" d="m322.2,62.1h0c0,0-59.2,0-59.2,0-9.4,0-17-7.6-17-17s7.6-17,17-17h.2c1.8-8.6,7.6-15.6,15.3-19.3,3.6-1.7,7.6-2.6,11.8-2.6,15.3,0,27.8,12.4,27.8,27.8s0,.7,0,1.1c.9-.2,1.8-.3,2.7-.3,7.5,0,13.7,6.1,13.7,13.7s-5.4,12.9-12.3,13.6Z"/><path class="cls-6" d="m321.8,51.1c0,4.5-2.2,8.5-5.6,11h-53.2c-9.4,0-17-7.6-17-17s7.6-17,17-17h.2c1.8-8.6,7.6-15.6,15.3-19.3,14.9.4,26.9,12.7,26.9,27.8s0,.7,0,1.1c.9-.2,1.8-.3,2.7-.3,7.5,0,13.7,6.1,13.7,13.7h0Z"/><path class="cls-2" d="m295.9,27.3h-11.7v17.9h11.7v-17.9Z"/><path class="cls-2" d="m290,54.8l10.5-13.4h-21.1l10.5,13.4Z"/><g><g class="cls-15"><path class="cls-3" d="m450.6,195.5v44.5c0,2.6-2.1,4.7-4.7,4.7h-77.9c-2.6,0-4.7-2.1-4.7-4.7v-44.5h87.2Z"/><path class="cls-6" d="m451,193v2.9h-87.9v-2.9c0-2.8,2.3-5,5-5h77.9c2.8,0,5,2.3,5,5h0Z"/><path class="cls-2" d="m373.2,192.4c0,.7-.6,1.3-1.3,1.3s-1.3-.6-1.3-1.3.6-1.3,1.3-1.3,1.3.6,1.3,1.3Z"/><path class="cls-2" d="m376.5,192.4c0,.7-.6,1.3-1.3,1.3s-1.3-.6-1.3-1.3.6-1.3,1.3-1.3,1.3.6,1.3,1.3Z"/><path class="cls-2" d="m379.7,192.4c0,.7-.6,1.3-1.3,1.3s-1.3-.6-1.3-1.3.6-1.3,1.3-1.3,1.3.6,1.3,1.3Z"/></g><path class="cls-6" d="m410.6,209.2h-8.3c-1,0-1.8.8-1.8,1.8s.8,1.8,1.8,1.8h8.3c1,0,1.8-.8,1.8-1.8s-.8-1.8-1.8-1.8Z"/><path class="cls-6" d="m441.4,219.7h-39.2c-1,0-1.8.8-1.8,1.8s.8,1.8,1.8,1.8h39.2c1,0,1.8-.8,1.8-1.8s-.8-1.8-1.8-1.8Z"/><path class="cls-6" d="m410.6,228.6h-8.3c-1,0-1.8.8-1.8,1.8s.8,1.8,1.8,1.8h8.3c1,0,1.8-.8,1.8-1.8s-.8-1.8-1.8-1.8Z"/><path class="cls-6" d="m396.1,221.7v-3.7l-2.9-.3c-.3-1.3-.8-2.5-1.5-3.5l1.9-2.2-2.6-2.6-2.2,1.9c-1.1-.7-2.3-1.2-3.5-1.5l-.3-2.9h-3.7l-.3,2.9c-1.3.3-2.5.8-3.5,1.5l-2.2-1.9-2.6,2.6,1.9,2.2c-.7,1.1-1.2,2.3-1.5,3.5l-2.9.3v3.7l2.9.3c.3,1.3.8,2.5,1.5,3.5l-1.9,2.2,2.6,2.6,2.2-1.9s0,0,0,0c1,.7,2.2,1.2,3.5,1.4v2.9h4.2v-2.9c.6-.1,1.2-.3,1.7-.5.4-.1.7-.3,1-.5.3-.1.6-.3.8-.5l2.2,1.9,2.6-2.6-1.9-2.2c.7-1.1,1.2-2.3,1.5-3.5l2.9-.3Zm-13,4.7c-3.6,0-6.5-2.9-6.5-6.5s2.9-6.5,6.5-6.5,6.5,2.9,6.5,6.5-2.9,6.5-6.5,6.5Z"/><g class="cls-13"><path class="cls-6" d="m393.2,217.8c-1.1-3.1-3.6-4-3.6-4l2.7-3.1,1.3,1.3-1.9,2.2c.7,1.1,1.2,2.3,1.5,3.5Z"/><path class="cls-6" d="m373,222c1.1,3.1,3.6,4,3.6,4l-2.7,3.1-1.3-1.3,1.9-2.2c-.7-1.1-1.2-2.3-1.5-3.5Z"/></g><g class="cls-13"><path class="cls-6" d="m381,209.8c-3.1,1.1-4,3.6-4,3.6l-3.1-2.7,1.3-1.3,2.2,1.9c1.1-.7,2.3-1.2,3.5-1.5h0Z"/><path class="cls-6" d="m392.3,229.1l-1.3,1.3-2.2-1.9c-.3.2-.5.3-.8.5-.3.2-.6.3-.9.4-.6.2-1.2.4-1.8.6.6-.2,1.2-.5,1.6-.8.4-.3.7-.5,1-.8,1-1,1.4-2,1.4-2l3.1,2.7h0Z"/></g><g class="cls-13"><path class="cls-6" d="m391.8,225.6c1.4-3,.3-5.4.3-5.4l4.1-.3v1.8s-2.9.3-2.9.3c-.3,1.2-.7,2.4-1.5,3.5h0Z"/><path class="cls-6" d="m374.5,214.2c-1.4,3-.3,5.4-.3,5.4l-4.1.3v-1.8s2.9-.3,2.9-.3c.3-1.2.7-2.4,1.5-3.5h0Z"/></g><g class="cls-13"><path class="cls-6" d="m382.9,232.9h-1.9v-2.9c-1.3-.3-2.5-.7-3.6-1.5,0,0,0,0,0,0,3,1.3,5.3.2,5.3.2v4.1Z"/><path class="cls-6" d="m388.8,211.2c-3-1.4-5.4-.3-5.4-.3l-.3-4.1h1.8s.3,2.9.3,2.9c1.2.3,2.4.7,3.5,1.5h0Z"/></g><path class="cls-6" d="m383.1,212.6c-4,0-7.3,3.3-7.3,7.3s3.3,7.3,7.3,7.3,7.3-3.3,7.3-7.3-3.3-7.3-7.3-7.3Zm0,13.8c-3.6,0-6.5-2.9-6.5-6.5s2.9-6.5,6.5-6.5,6.5,2.9,6.5,6.5-2.9,6.5-6.5,6.5Z"/><g><path class="cls-6" d="m380.4,217.7l-.3-1.5h.2l.2,1.2.2-1.2h.2l-.3,1.5h-.3Z"/><path class="cls-6" d="m381.2,217.7v-1.5h.6v.2h-.4v.4h.3v.2h-.3v.4h.4v.2h-.6Z"/><path class="cls-6" d="m382.3,216.2c.1,0,.2,0,.3.1,0,0,0,.1,0,.3v.2c0,.1,0,.2-.1.3l.2.6h-.2v-.6h-.3v.6h-.2v-1.5h.4Zm.1.4c0,0,0-.1-.1-.1h-.1v.5h.1s0,0,0,0c0,0,0,0,0,0v-.2Z"/><path class="cls-6" d="m383.6,217.3c0,.1,0,.2,0,.3,0,0,0,0-.2.1,0,0,0,0-.1,0,0,0-.2,0-.2,0,0,0,0,0-.1-.1,0,0,0-.1,0-.2h.2c0,0,0,.1,0,.2,0,0,0,0,0,0s0,0,.1,0c0,0,0,0,0-.1s0-.1,0-.2c0,0-.1-.1-.2-.2,0,0-.1-.1-.2-.2,0,0,0-.1,0-.2,0-.1,0-.2.1-.3,0,0,.1,0,.2,0s.1,0,.2,0c0,0,0,0,.1.1,0,0,0,.1,0,.2h-.2s0,0,0-.1c0,0,0,0,0,0s0,0,0,0c0,0,0,0,0,.1s0,.1,0,.2c0,0,0,0,.1,0,0,0,0,0,.1,0,0,0,.1.1.1.2,0,0,0,0,0,0,0,0,0,.1,0,.1h0Z"/><path class="cls-6" d="m384,217.7h-.2v-1.5h.2v1.5Z"/><path class="cls-6" d="m384.6,216.2c.1,0,.2,0,.3.1,0,0,.1.2.1.3v.8c0,.1,0,.2-.1.3,0,0-.2.1-.3.1s-.2,0-.3-.1c0,0-.1-.2-.1-.3v-.8c0-.1,0-.2.1-.3,0,0,.2-.1.2-.1h0Zm.1.4s0,0,0,0c0,0,0,0,0,0s0,0,0,0c0,0,0,0,0,0v.8s0,0,0,0c0,0,0,0,0,0s0,0,0,0c0,0,0,0,0,0v-.8Z"/><path class="cls-6" d="m385.4,216.2l.3,1v-1h.2v1.5h-.2l-.3-1v1h-.2v-1.5h.3,0Z"/></g><text class="cls-7" transform="translate(380.1 223.7)"><tspan x="0" y="0">03</tspan></text></g></svg>