<svg width="1200" height="1200" viewBox="0 0 1200 1200" fill="none" xmlns="http://www.w3.org/2000/svg">
<rect width="1200" height="1200" fill="white"/>
<path d="M793.514 989.272C793.563 1008.76 777.814 1024.6 758.33 1024.68L444.889 1024.9H429.017C424.201 1024.9 419.631 1023.96 415.479 1022.24C406.781 1018.61 399.852 1011.66 396.314 1002.91C394.619 998.805 393.71 994.333 393.685 989.64H393.784L393.587 818.559L393.366 644.726L393.268 555.733V551.531L393.169 462.49V453.202L393.022 348.116V331.359L392.973 331.433C392.924 311.875 408.698 296.077 428.157 296.101L757.47 295.782C776.978 295.683 792.703 311.556 792.777 331.015H792.703V342.809L792.826 425.733L789.091 429.541L789.362 429.811C791.597 431.998 792.85 434.971 792.85 438.091V478.042C792.85 481.089 791.671 484.013 789.509 486.2L792.875 489.467L792.924 537.993C792.457 540.008 791.425 541.875 789.951 543.423L792.949 546.323L793.293 546.691L793.342 649.369L793.465 989.272H793.514Z" fill="url(#paint0_linear_77_5995)"/>
<path d="M772.31 349.432V943.29C772.31 955.698 762.187 965.796 749.779 965.796H435.675C423.218 965.796 413.145 955.698 413.145 943.29V349.432C422.088 342.282 433.39 338.031 445.749 338.031H739.705C752.015 338.031 763.366 342.282 772.31 349.432Z" fill="white"/>
<path d="M772.31 772.455V949.678C772.31 958.548 762.187 965.772 749.779 965.772H435.675C423.218 965.772 413.145 958.548 413.145 949.678V772.455C422.088 767.344 433.39 764.297 445.749 764.297H739.705C752.015 764.297 763.366 767.344 772.31 772.455Z" fill="#D4F1FC"/>
<path opacity="0.14" d="M426.387 974.129C426.387 974.129 467.468 983.859 554.028 988.945C640.588 994.031 736.756 1008.94 763.39 982.532C792.137 954.006 775.896 948.797 775.896 948.797C775.896 948.797 785.503 959.338 754.495 968.134C723.488 976.93 426.411 974.154 426.411 974.154L426.387 974.129Z" fill="#191D3F"/>
<path d="M772.801 246.075V349.442C763.857 342.316 752.506 338.066 740.221 338.066H446.24C433.906 338.066 422.604 342.316 413.66 349.442V246.075C413.66 233.667 423.734 223.594 436.191 223.594H750.295C762.702 223.594 772.825 233.667 772.825 246.075H772.801Z" fill="#17A9E1"/>
<path d="M582.287 254.454V255.264H579.24V263.987H578.306V255.264H575.26V254.454H582.311H582.287Z" fill="white"/>
<path d="M589.166 260.454C589.166 261.019 589.092 261.535 588.921 261.977C588.749 262.444 588.527 262.837 588.257 263.157C587.962 263.476 587.618 263.722 587.225 263.918C586.832 264.09 586.39 264.189 585.923 264.189C585.456 264.189 585.014 264.09 584.621 263.918C584.228 263.746 583.884 263.501 583.589 263.157C583.294 262.837 583.073 262.444 582.925 261.977C582.753 261.51 582.68 261.019 582.68 260.454C582.68 259.889 582.753 259.397 582.925 258.931C583.097 258.464 583.318 258.071 583.589 257.751C583.884 257.432 584.228 257.162 584.621 256.99C585.014 256.818 585.456 256.719 585.923 256.719C586.39 256.719 586.832 256.818 587.225 256.99C587.618 257.162 587.962 257.432 588.257 257.751C588.552 258.071 588.773 258.464 588.921 258.931C589.092 259.397 589.166 259.889 589.166 260.454ZM588.208 260.454C588.208 259.569 588.011 258.857 587.594 258.316C587.176 257.8 586.611 257.53 585.923 257.53C585.235 257.53 584.645 257.8 584.252 258.316C583.835 258.832 583.638 259.545 583.638 260.454C583.638 261.363 583.835 262.051 584.252 262.567C584.67 263.083 585.235 263.353 585.923 263.353C586.611 263.353 587.201 263.083 587.594 262.567C588.011 262.051 588.208 261.338 588.208 260.454Z" fill="white"/>
<path d="M596.758 263.764C596.488 263.862 596.144 263.936 595.751 264.034C595.333 264.108 594.817 264.157 594.178 264.157C593.662 264.157 593.171 264.084 592.753 263.912C592.336 263.74 591.967 263.494 591.648 263.175C591.328 262.855 591.107 262.462 590.935 261.995C590.763 261.528 590.689 261.012 590.689 260.447C590.689 259.907 590.763 259.415 590.911 258.948C591.058 258.506 591.255 258.113 591.525 257.769C591.795 257.45 592.139 257.179 592.532 257.007C592.925 256.811 593.392 256.737 593.908 256.737C594.375 256.737 594.793 256.811 595.137 256.934C595.481 257.057 595.726 257.204 595.898 257.302V253.469L596.783 253.297V263.764H596.758ZM595.874 258.162C595.874 258.162 595.677 258.039 595.554 257.966C595.432 257.892 595.284 257.818 595.112 257.769C594.94 257.695 594.768 257.646 594.571 257.622C594.375 257.573 594.178 257.548 593.957 257.548C593.515 257.548 593.146 257.622 592.852 257.794C592.557 257.941 592.311 258.162 592.139 258.432C591.967 258.703 591.82 258.998 591.746 259.366C591.672 259.71 591.623 260.103 591.623 260.496C591.623 261.43 591.869 262.143 592.336 262.659C592.803 263.15 593.417 263.42 594.203 263.42C594.645 263.42 594.989 263.42 595.259 263.347C595.53 263.297 595.726 263.273 595.874 263.224V258.236V258.162Z" fill="white"/>
<path d="M601.305 256.719C601.772 256.719 602.165 256.793 602.484 256.916C602.804 257.039 603.074 257.235 603.271 257.456C603.467 257.702 603.615 257.972 603.713 258.292C603.811 258.611 603.86 258.955 603.86 259.348V263.845C603.86 263.845 603.639 263.894 603.467 263.943C603.295 263.967 603.099 264.017 602.853 264.041C602.632 264.09 602.362 264.115 602.091 264.139C601.821 264.164 601.526 264.164 601.231 264.164C600.863 264.164 600.519 264.115 600.199 264.041C599.88 263.967 599.61 263.82 599.364 263.648C599.118 263.476 598.946 263.23 598.823 262.96C598.701 262.69 598.627 262.346 598.627 261.928C598.627 261.51 598.701 261.216 598.848 260.945C598.995 260.675 599.192 260.454 599.462 260.257C599.733 260.085 600.052 259.938 600.421 259.864C600.789 259.79 601.182 259.741 601.625 259.741C601.747 259.741 601.895 259.741 602.018 259.741C602.165 259.741 602.288 259.766 602.435 259.79C602.558 259.79 602.681 259.84 602.779 259.864C602.878 259.864 602.951 259.913 602.976 259.938V259.496C602.976 259.25 602.976 259.004 602.927 258.783C602.902 258.537 602.804 258.341 602.681 258.144C602.558 257.948 602.386 257.8 602.165 257.702C601.944 257.579 601.649 257.53 601.28 257.53C600.765 257.53 600.371 257.579 600.101 257.628C599.855 257.702 599.659 257.751 599.536 257.8L599.413 257.014C599.561 256.94 599.806 256.867 600.126 256.818C600.445 256.744 600.838 256.719 601.305 256.719ZM601.379 263.353C601.723 263.353 602.042 263.353 602.288 263.329C602.558 263.329 602.779 263.279 602.951 263.23V260.724C602.951 260.724 602.681 260.626 602.46 260.577C602.239 260.528 601.944 260.503 601.551 260.503C601.33 260.503 601.108 260.503 600.863 260.552C600.617 260.577 600.396 260.65 600.199 260.749C600.003 260.847 599.831 260.994 599.708 261.191C599.585 261.363 599.511 261.609 599.511 261.928C599.511 262.198 599.561 262.419 599.634 262.591C599.733 262.763 599.855 262.911 600.003 263.034C600.175 263.132 600.347 263.23 600.593 263.279C600.814 263.329 601.084 263.353 601.354 263.353H601.379Z" fill="white"/>
<path d="M608.086 264.133C607.791 263.568 607.496 262.978 607.226 262.388C606.956 261.774 606.685 261.16 606.44 260.545C606.194 259.931 605.973 259.317 605.776 258.678C605.58 258.064 605.408 257.45 605.26 256.86H606.218C606.317 257.302 606.44 257.769 606.612 258.285C606.759 258.801 606.956 259.317 607.152 259.857C607.349 260.398 607.57 260.963 607.815 261.528C608.061 262.093 608.307 262.658 608.602 263.199C608.798 262.634 608.995 262.093 609.142 261.602C609.29 261.111 609.437 260.595 609.585 260.103C609.707 259.612 609.855 259.096 609.978 258.58C610.101 258.064 610.223 257.499 610.371 256.884H611.255C610.96 258.211 610.616 259.513 610.248 260.766C609.879 262.02 609.462 263.174 609.019 264.206C608.847 264.624 608.675 264.968 608.479 265.263C608.307 265.558 608.086 265.803 607.865 266C607.643 266.196 607.373 266.344 607.078 266.418C606.784 266.516 606.415 266.565 606.022 266.565C605.801 266.565 605.58 266.54 605.383 266.491C605.187 266.442 605.088 266.393 605.039 266.368L605.211 265.631C605.211 265.631 605.359 265.705 605.53 265.754C605.702 265.803 605.874 265.828 606.071 265.828C606.317 265.828 606.562 265.803 606.759 265.754C606.956 265.705 607.152 265.607 607.324 265.484C607.496 265.361 607.644 265.189 607.766 264.968C607.889 264.747 608.037 264.501 608.159 264.157L608.086 264.133Z" fill="white"/>
<path d="M558.994 284.543C558.994 281.177 559.559 278.597 560.665 276.804C561.771 275.035 563.343 274.125 565.407 274.125C567.471 274.125 569.019 275.01 570.124 276.804C571.255 278.597 571.795 281.153 571.795 284.543C571.795 287.934 571.23 290.465 570.124 292.234C568.994 294.003 567.422 294.912 565.407 294.912C563.392 294.912 561.795 294.027 560.689 292.234C559.559 290.44 559.019 287.885 559.019 284.543H558.994ZM569.756 284.543C569.756 283.388 569.682 282.307 569.535 281.251C569.387 280.219 569.142 279.285 568.798 278.474C568.454 277.664 568.011 277.025 567.446 276.558C566.881 276.091 566.193 275.845 565.382 275.845C564.572 275.845 563.834 276.091 563.294 276.558C562.729 277.025 562.287 277.688 561.967 278.474C561.623 279.285 561.402 280.194 561.255 281.251C561.107 282.283 561.033 283.388 561.033 284.543C561.033 285.698 561.107 286.779 561.255 287.836C561.402 288.868 561.648 289.801 561.967 290.587C562.311 291.374 562.753 292.012 563.294 292.504C563.859 292.971 564.547 293.216 565.382 293.216C566.218 293.216 566.906 292.971 567.446 292.504C568.011 292.037 568.454 291.398 568.798 290.587C569.142 289.801 569.387 288.868 569.535 287.836C569.682 286.804 569.756 285.698 569.756 284.543Z" fill="white"/>
<path d="M587.568 282.484C587.568 286.489 586.61 289.486 584.694 291.526C582.777 293.54 579.976 294.548 576.315 294.548L576.266 293C577.519 293 578.698 292.852 579.73 292.557C580.787 292.263 581.696 291.82 582.482 291.231C583.268 290.616 583.883 289.855 584.374 288.897C584.865 287.938 585.185 286.808 585.357 285.457C584.841 285.727 584.227 285.948 583.49 286.169C582.752 286.366 581.991 286.464 581.155 286.464C580.074 286.464 579.165 286.292 578.428 285.973C577.691 285.629 577.077 285.186 576.61 284.646C576.143 284.081 575.824 283.442 575.603 282.729C575.381 281.992 575.283 281.255 575.283 280.469C575.283 279.732 575.406 278.995 575.627 278.258C575.848 277.521 576.217 276.833 576.708 276.243C577.2 275.629 577.814 275.137 578.551 274.769C579.288 274.376 580.173 274.204 581.18 274.204C583.268 274.204 584.841 274.941 585.922 276.39C587.003 277.865 587.544 279.904 587.544 282.533L587.568 282.484ZM581.327 284.842C582.212 284.842 582.974 284.744 583.637 284.548C584.3 284.351 584.915 284.105 585.48 283.835C585.48 283.614 585.504 283.393 585.529 283.172C585.529 282.951 585.529 282.729 585.529 282.459C585.529 281.55 585.455 280.715 585.332 279.904C585.209 279.093 584.988 278.381 584.644 277.766C584.3 277.152 583.858 276.661 583.318 276.317C582.752 275.973 582.064 275.776 581.205 275.776C580.492 275.776 579.902 275.899 579.386 276.169C578.895 276.439 578.477 276.759 578.182 277.177C577.888 277.594 577.642 278.086 577.519 278.651C577.372 279.216 577.298 279.781 577.298 280.371C577.298 281.894 577.642 283 578.33 283.737C579.018 284.474 580.001 284.818 581.327 284.818V284.842Z" fill="white"/>
<path d="M603.514 293.201C605.332 293.201 606.635 292.832 607.421 292.071C608.207 291.309 608.6 290.277 608.6 288.999C608.6 288.164 608.453 287.451 608.133 286.886C607.814 286.321 607.396 285.879 606.831 285.535C606.291 285.191 605.652 284.97 604.939 284.822C604.227 284.675 603.465 284.601 602.654 284.601H602.359V283.053H603.023C603.539 283.053 604.079 283.004 604.62 282.906C605.16 282.808 605.652 282.611 606.119 282.316C606.561 282.021 606.954 281.653 607.249 281.161C607.544 280.695 607.691 280.08 607.691 279.319C607.691 278.68 607.593 278.139 607.372 277.697C607.151 277.255 606.88 276.886 606.512 276.616C606.168 276.346 605.75 276.149 605.283 276.026C604.816 275.903 604.325 275.83 603.809 275.83C602.777 275.83 601.966 275.977 601.401 276.272C600.836 276.567 600.345 276.837 600.001 277.083L599.19 275.609C599.386 275.486 599.632 275.314 599.927 275.142C600.222 274.97 600.566 274.798 600.983 274.65C601.377 274.503 601.843 274.38 602.31 274.257C602.802 274.159 603.342 274.11 603.907 274.11C604.915 274.11 605.75 274.233 606.487 274.478C607.2 274.724 607.814 275.068 608.281 275.535C608.748 275.977 609.116 276.518 609.337 277.132C609.558 277.746 609.681 278.434 609.681 279.147C609.681 280.326 609.362 281.26 608.748 281.997C608.133 282.734 607.322 283.274 606.34 283.594C606.88 283.717 607.396 283.938 607.912 284.208C608.428 284.478 608.87 284.847 609.288 285.265C609.681 285.707 610.025 286.223 610.271 286.837C610.517 287.451 610.639 288.164 610.639 288.999C610.639 289.835 610.492 290.621 610.197 291.333C609.902 292.046 609.46 292.66 608.87 293.201C608.281 293.717 607.544 294.134 606.635 294.429C605.725 294.724 604.694 294.872 603.465 294.872C602.826 294.872 602.261 294.822 601.72 294.749C601.205 294.675 600.738 294.552 600.32 294.454C599.927 294.331 599.583 294.233 599.288 294.11C599.018 293.987 598.797 293.889 598.674 293.815L599.165 292.144C599.165 292.144 599.46 292.316 599.73 292.439C600.001 292.562 600.32 292.66 600.689 292.759C601.057 292.857 601.475 292.955 601.942 293.029C602.408 293.103 602.924 293.152 603.49 293.152L603.514 293.201Z" fill="white"/>
<path d="M614.672 284.543C614.672 281.177 615.237 278.597 616.343 276.804C617.448 275.035 619.021 274.125 621.085 274.125C623.149 274.125 624.696 275.01 625.802 276.804C626.932 278.597 627.473 281.153 627.473 284.543C627.473 287.934 626.908 290.465 625.802 292.234C624.672 294.003 623.099 294.912 621.085 294.912C619.07 294.912 617.473 294.027 616.367 292.234C615.237 290.44 614.696 287.885 614.696 284.543H614.672ZM625.433 284.543C625.433 283.388 625.36 282.307 625.212 281.251C625.065 280.219 624.819 279.285 624.475 278.474C624.131 277.664 623.689 277.025 623.124 276.558C622.559 276.091 621.871 275.845 621.06 275.845C620.249 275.845 619.512 276.091 618.972 276.558C618.407 277.025 617.964 277.688 617.645 278.474C617.301 279.285 617.08 280.194 616.932 281.251C616.785 282.283 616.711 283.388 616.711 284.543C616.711 285.698 616.785 286.779 616.932 287.836C617.08 288.868 617.325 289.801 617.645 290.587C617.989 291.374 618.431 292.012 618.972 292.504C619.537 292.971 620.225 293.216 621.06 293.216C621.895 293.216 622.583 292.971 623.124 292.504C623.689 292.037 624.131 291.398 624.475 290.587C624.819 289.801 625.065 288.868 625.212 287.836C625.36 286.804 625.433 285.698 625.433 284.543Z" fill="white"/>
<g opacity="0.6">
<path d="M733.465 250.079H732.016V248.015C732.016 247.278 731.426 246.688 730.689 246.688H701.18C700.443 246.688 699.854 247.278 699.854 248.015V258.211C699.854 258.948 700.443 259.538 701.18 259.538H730.689C731.426 259.538 732.016 258.948 732.016 258.211V254.919H733.465C734.104 254.919 734.62 254.403 734.62 253.764V251.233C734.62 250.595 734.104 250.079 733.465 250.079ZM706.831 257.523H701.893V248.408H706.831V257.523ZM712.63 257.523H707.691V248.408H712.63V257.523ZM718.428 257.523H713.49V248.408H718.428V257.523ZM724.227 257.523H719.288V248.408H724.227V257.523ZM730.026 257.523H725.087V248.408H730.026V257.523Z" fill="white"/>
<path d="M472.216 241.797H466.564V259.07H472.216V241.797Z" fill="white"/>
<path d="M464.846 247.454H459.195V259.051H464.846V247.454Z" fill="white"/>
<path d="M457.497 253.094H451.846V259.04H457.497V253.094Z" fill="white"/>
<path d="M482.411 256.123H480.667V258.408H479.782V256.123H474.893V255.484L479.487 249.735H480.47L476.047 255.337H479.807V253.322H480.667V255.337H482.411V256.123Z" fill="white"/>
<path d="M490.224 254.077H491.109V257.394C490.716 257.738 490.224 258.033 489.684 258.205C489.143 258.401 488.553 258.5 487.939 258.5C487.079 258.5 486.293 258.303 485.605 257.935C484.917 257.566 484.376 257.026 483.959 256.362C483.566 255.699 483.369 254.937 483.369 254.102C483.369 253.266 483.566 252.505 483.959 251.841C484.352 251.178 484.892 250.637 485.605 250.269C486.293 249.9 487.079 249.704 487.964 249.704C488.627 249.704 489.241 249.802 489.782 250.023C490.322 250.244 490.789 250.539 491.182 250.957L490.617 251.546C489.929 250.858 489.069 250.539 488.013 250.539C487.3 250.539 486.686 250.686 486.121 251.006C485.556 251.325 485.114 251.743 484.794 252.283C484.475 252.824 484.303 253.438 484.303 254.126C484.303 254.814 484.475 255.404 484.794 255.969C485.114 256.51 485.556 256.952 486.121 257.247C486.686 257.566 487.325 257.713 488.013 257.713C488.897 257.713 489.659 257.492 490.273 257.05V254.126L490.224 254.077Z" fill="white"/>
</g>
<path d="M749.78 211.328H435.676C417.863 211.328 403.465 225.775 403.465 243.539V943.27C403.465 961.059 417.863 975.482 435.676 975.482H749.78C767.569 975.482 781.991 961.034 781.991 943.27V243.539C781.991 225.751 767.544 211.328 749.78 211.328ZM770.148 939.093C770.148 951.354 760.173 961.354 747.888 961.354H437.544C425.234 961.354 415.283 951.378 415.283 939.093V250.223C415.283 237.962 425.234 228.011 437.544 228.011H747.888C760.148 228.011 770.148 237.962 770.148 250.223V939.118V939.093Z" fill="#3D3D89"/>
<path d="M485.431 645.188H488.207V704.648H485.431C474.694 704.648 465.996 695.925 465.996 685.213V664.623C465.996 653.886 474.718 645.188 485.431 645.188Z" fill="#29B7EE"/>
<path d="M516.955 645.188H494.744V704.648H516.955V645.188Z" fill="#29B7EE"/>
<path d="M545.7 645.188H523.488V704.648H545.7V645.188Z" fill="#29B7EE"/>
<path d="M574.45 645.188H552.238V704.648H574.45V645.188Z" fill="#29B7EE"/>
<path d="M603.221 645.188H581.01V704.648H603.221V645.188Z" fill="#29B7EE"/>
<path opacity="0.2" d="M631.965 645.188H609.754V704.648H631.965V645.188Z" fill="#29B7EE"/>
<path opacity="0.2" d="M660.715 645.188H638.504V704.648H660.715V645.188Z" fill="#29B7EE"/>
<path opacity="0.2" d="M689.463 645.188H667.252V704.648H689.463V645.188Z" fill="#29B7EE"/>
<path opacity="0.2" d="M695.996 645.188H698.773C709.51 645.188 718.207 653.91 718.207 664.623V685.213C718.207 695.95 709.485 704.648 698.773 704.648H695.996V645.188Z" fill="#29B7EE"/>
<path d="M463.021 797.36H441.399C440.083 797.36 439.016 798.427 439.016 799.744V821.365C439.016 822.682 440.083 823.749 441.399 823.749H463.021C464.337 823.749 465.404 822.682 465.404 821.365V799.744C465.404 798.427 464.337 797.36 463.021 797.36Z" fill="#29B7EE"/>
<path d="M494.495 797.36H472.874C471.557 797.36 470.49 798.427 470.49 799.744V821.365C470.49 822.682 471.557 823.749 472.874 823.749H494.495C495.811 823.749 496.878 822.682 496.878 821.365V799.744C496.878 798.427 495.811 797.36 494.495 797.36Z" fill="#29B7EE"/>
<path d="M479.435 832.204H457.813C456.497 832.204 455.43 833.271 455.43 834.587V856.209C455.43 857.525 456.497 858.592 457.813 858.592H479.435C480.751 858.592 481.818 857.525 481.818 856.209V834.587C481.818 833.271 480.751 832.204 479.435 832.204Z" fill="#29B7EE"/>
<path d="M510.05 832.204H488.428C487.112 832.204 486.045 833.271 486.045 834.587V856.209C486.045 857.525 487.112 858.592 488.428 858.592H510.05C511.366 858.592 512.433 857.525 512.433 856.209V834.587C512.433 833.271 511.366 832.204 510.05 832.204Z" fill="#29B7EE"/>
<path d="M540.69 832.204H519.069C517.753 832.204 516.686 833.271 516.686 834.587V856.209C516.686 857.525 517.753 858.592 519.069 858.592H540.69C542.007 858.592 543.074 857.525 543.074 856.209V834.587C543.074 833.271 542.007 832.204 540.69 832.204Z" fill="#29B7EE"/>
<path d="M571.302 832.204H549.68C548.364 832.204 547.297 833.271 547.297 834.587V856.209C547.297 857.525 548.364 858.592 549.68 858.592H571.302C572.618 858.592 573.685 857.525 573.685 856.209V834.587C573.685 833.271 572.618 832.204 571.302 832.204Z" fill="#29B7EE"/>
<path d="M601.917 832.204H580.295C578.979 832.204 577.912 833.271 577.912 834.587V856.209C577.912 857.525 578.979 858.592 580.295 858.592H601.917C603.233 858.592 604.3 857.525 604.3 856.209V834.587C604.3 833.271 603.233 832.204 601.917 832.204Z" fill="#29B7EE"/>
<path d="M632.528 832.204H610.907C609.59 832.204 608.523 833.271 608.523 834.587V856.209C608.523 857.525 609.59 858.592 610.907 858.592H632.528C633.845 858.592 634.912 857.525 634.912 856.209V834.587C634.912 833.271 633.845 832.204 632.528 832.204Z" fill="#29B7EE"/>
<path d="M663.144 832.204H641.522C640.206 832.204 639.139 833.271 639.139 834.587V856.209C639.139 857.525 640.206 858.592 641.522 858.592H663.144C664.46 858.592 665.527 857.525 665.527 856.209V834.587C665.527 833.271 664.46 832.204 663.144 832.204Z" fill="#29B7EE"/>
<path d="M693.761 832.204H672.139C670.823 832.204 669.756 833.271 669.756 834.587V856.209C669.756 857.525 670.823 858.592 672.139 858.592H693.761C695.077 858.592 696.144 857.525 696.144 856.209V834.587C696.144 833.271 695.077 832.204 693.761 832.204Z" fill="#29B7EE"/>
<path d="M724.396 832.204H702.774C701.458 832.204 700.391 833.271 700.391 834.587V856.209C700.391 857.525 701.458 858.592 702.774 858.592H724.396C725.712 858.592 726.779 857.525 726.779 856.209V834.587C726.779 833.271 725.712 832.204 724.396 832.204Z" fill="#29B7EE"/>
<path d="M525.948 797.36H504.327C503.01 797.36 501.943 798.427 501.943 799.744V821.365C501.943 822.682 503.01 823.749 504.327 823.749H525.948C527.265 823.749 528.332 822.682 528.332 821.365V799.744C528.332 798.427 527.265 797.36 525.948 797.36Z" fill="#29B7EE"/>
<path d="M557.419 797.36H535.797C534.481 797.36 533.414 798.427 533.414 799.744V821.365C533.414 822.682 534.481 823.749 535.797 823.749H557.419C558.735 823.749 559.802 822.682 559.802 821.365V799.744C559.802 798.427 558.735 797.36 557.419 797.36Z" fill="#29B7EE"/>
<path d="M588.894 797.36H567.272C565.956 797.36 564.889 798.427 564.889 799.744V821.365C564.889 822.682 565.956 823.749 567.272 823.749H588.894C590.21 823.749 591.277 822.682 591.277 821.365V799.744C591.277 798.427 590.21 797.36 588.894 797.36Z" fill="#29B7EE"/>
<path d="M620.37 797.36H598.749C597.432 797.36 596.365 798.427 596.365 799.744V821.365C596.365 822.682 597.432 823.749 598.749 823.749H620.37C621.686 823.749 622.753 822.682 622.753 821.365V799.744C622.753 798.427 621.686 797.36 620.37 797.36Z" fill="#29B7EE"/>
<path d="M651.841 797.36H630.219C628.903 797.36 627.836 798.427 627.836 799.744V821.365C627.836 822.682 628.903 823.749 630.219 823.749H651.841C653.157 823.749 654.224 822.682 654.224 821.365V799.744C654.224 798.427 653.157 797.36 651.841 797.36Z" fill="#29B7EE"/>
<path d="M683.292 797.36H661.67C660.354 797.36 659.287 798.427 659.287 799.744V821.365C659.287 822.682 660.354 823.749 661.67 823.749H683.292C684.608 823.749 685.675 822.682 685.675 821.365V799.744C685.675 798.427 684.608 797.36 683.292 797.36Z" fill="#29B7EE"/>
<path d="M714.769 797.36H693.147C691.831 797.36 690.764 798.427 690.764 799.744V821.365C690.764 822.682 691.831 823.749 693.147 823.749H714.769C716.085 823.749 717.152 822.682 717.152 821.365V799.744C717.152 798.427 716.085 797.36 714.769 797.36Z" fill="#29B7EE"/>
<path d="M746.239 797.36H724.618C723.301 797.36 722.234 798.427 722.234 799.744V821.365C722.234 822.682 723.301 823.749 724.618 823.749H746.239C747.556 823.749 748.623 822.682 748.623 821.365V799.744C748.623 798.427 747.556 797.36 746.239 797.36Z" fill="#29B7EE"/>
<path d="M463.021 904.532H441.399C440.083 904.532 439.016 905.599 439.016 906.916V928.537C439.016 929.853 440.083 930.921 441.399 930.921H463.021C464.337 930.921 465.404 929.853 465.404 928.537V906.916C465.404 905.599 464.337 904.532 463.021 904.532Z" fill="#29B7EE"/>
<path d="M494.495 904.532H472.874C471.557 904.532 470.49 905.599 470.49 906.916V928.537C470.49 929.853 471.557 930.921 472.874 930.921H494.495C495.811 930.921 496.878 929.853 496.878 928.537V906.916C496.878 905.599 495.811 904.532 494.495 904.532Z" fill="#29B7EE"/>
<path d="M683.315 904.532H661.669C661.521 904.532 661.398 904.532 661.251 904.581C661.128 904.581 660.981 904.532 660.833 904.532H620.686C620.686 904.532 620.587 904.532 620.514 904.532C620.465 904.532 620.415 904.532 620.342 904.532H504.297C502.995 904.532 501.914 905.589 501.914 906.916V928.562C501.914 929.864 502.971 930.945 504.297 930.945H620.342C620.342 930.945 620.44 930.945 620.514 930.945C620.563 930.945 620.612 930.945 620.686 930.945H660.833C660.981 930.945 661.104 930.945 661.251 930.896C661.374 930.896 661.521 930.945 661.669 930.945H683.315C684.617 930.945 685.698 929.889 685.698 928.562V906.916C685.698 905.613 684.642 904.532 683.315 904.532Z" fill="#29B7EE"/>
<path d="M714.769 904.532H693.147C691.831 904.532 690.764 905.599 690.764 906.916V928.537C690.764 929.853 691.831 930.921 693.147 930.921H714.769C716.085 930.921 717.152 929.853 717.152 928.537V906.916C717.152 905.599 716.085 904.532 714.769 904.532Z" fill="#29B7EE"/>
<path d="M746.239 904.532H724.618C723.301 904.532 722.234 905.599 722.234 906.916V928.537C722.234 929.853 723.301 930.921 724.618 930.921H746.239C747.556 930.921 748.623 929.853 748.623 928.537V906.916C748.623 905.599 747.556 904.532 746.239 904.532Z" fill="#29B7EE"/>
<path d="M463.021 865.985H441.399C440.083 865.985 439.016 867.052 439.016 868.369V889.99C439.016 891.307 440.083 892.374 441.399 892.374H463.021C464.337 892.374 465.404 891.307 465.404 889.99V868.369C465.404 867.052 464.337 865.985 463.021 865.985Z" fill="#29B7EE"/>
<path d="M494.495 865.985H472.874C471.557 865.985 470.49 867.052 470.49 868.369V889.99C470.49 891.307 471.557 892.374 472.874 892.374H494.495C495.811 892.374 496.878 891.307 496.878 889.99V868.369C496.878 867.052 495.811 865.985 494.495 865.985Z" fill="#29B7EE"/>
<path d="M525.948 865.985H504.327C503.01 865.985 501.943 867.052 501.943 868.369V889.99C501.943 891.307 503.01 892.374 504.327 892.374H525.948C527.265 892.374 528.332 891.307 528.332 889.99V868.369C528.332 867.052 527.265 865.985 525.948 865.985Z" fill="#29B7EE"/>
<path d="M557.419 865.985H535.797C534.481 865.985 533.414 867.052 533.414 868.369V889.99C533.414 891.307 534.481 892.374 535.797 892.374H557.419C558.735 892.374 559.802 891.307 559.802 889.99V868.369C559.802 867.052 558.735 865.985 557.419 865.985Z" fill="#29B7EE"/>
<path d="M588.894 865.985H567.272C565.956 865.985 564.889 867.052 564.889 868.369V889.99C564.889 891.307 565.956 892.374 567.272 892.374H588.894C590.21 892.374 591.277 891.307 591.277 889.99V868.369C591.277 867.052 590.21 865.985 588.894 865.985Z" fill="#29B7EE"/>
<path d="M620.37 865.985H598.749C597.432 865.985 596.365 867.052 596.365 868.369V889.99C596.365 891.307 597.432 892.374 598.749 892.374H620.37C621.686 892.374 622.753 891.307 622.753 889.99V868.369C622.753 867.052 621.686 865.985 620.37 865.985Z" fill="#29B7EE"/>
<path d="M651.841 865.985H630.219C628.903 865.985 627.836 867.052 627.836 868.369V889.99C627.836 891.307 628.903 892.374 630.219 892.374H651.841C653.157 892.374 654.224 891.307 654.224 889.99V868.369C654.224 867.052 653.157 865.985 651.841 865.985Z" fill="#29B7EE"/>
<path d="M683.292 865.985H661.67C660.354 865.985 659.287 867.052 659.287 868.369V889.99C659.287 891.307 660.354 892.374 661.67 892.374H683.292C684.608 892.374 685.675 891.307 685.675 889.99V868.369C685.675 867.052 684.608 865.985 683.292 865.985Z" fill="#29B7EE"/>
<path d="M746.265 865.985H705.282C703.979 865.985 702.898 867.042 702.898 868.369V890.015C702.898 891.317 703.955 892.398 705.282 892.398H746.265C747.567 892.398 748.648 891.342 748.648 890.015V868.369C748.648 867.066 747.591 865.985 746.265 865.985Z" fill="#29B7EE"/>
<path opacity="0.2" d="M793.343 582.53H408.969C403.22 582.53 397.864 580.835 393.367 577.886L393.269 488.893V484.692L393.171 395.65V386.363L393.023 281.276C397.692 277.935 403.417 275.969 409.608 275.969H792.729L792.827 358.893L789.093 362.702L789.363 362.972C791.599 365.159 792.852 368.132 792.852 371.252V411.203C792.852 414.25 791.673 417.173 789.511 419.36L792.877 422.628L792.926 471.154C792.459 473.169 791.427 475.036 789.953 476.584L792.95 479.483L793.294 479.852L793.343 582.53Z" fill="#C1BABA"/>
<g filter="url(#filter0_d_77_5995)">
<path d="M817.177 293.095C817.177 277.346 804.376 264.594 788.626 264.594H390.345C374.547 264.594 361.795 277.346 361.795 293.095L361.156 542.58C361.156 545.921 361.721 549.14 362.802 552.138C366.709 563.194 377.274 571.155 389.707 571.155H787.987C798.454 571.155 807.619 565.479 812.582 557.052C815.088 552.801 816.538 547.862 816.538 542.604L817.177 293.12V293.095Z" fill="white"/>
</g>
<path d="M574.868 313.785C574.868 318.233 571.28 321.82 566.833 321.82C562.386 321.82 558.799 318.233 558.799 313.785C558.799 309.338 562.386 305.751 566.833 305.751C571.28 305.751 574.868 309.363 574.868 313.785Z" fill="#17A9E1"/>
<path d="M594.647 313.785C594.647 318.233 591.06 321.82 586.613 321.82C582.165 321.82 578.578 318.233 578.578 313.785C578.578 309.338 582.165 305.751 586.613 305.751C591.06 305.751 594.647 309.363 594.647 313.785Z" fill="#17A9E1"/>
<path d="M614.452 313.785C614.452 318.233 610.864 321.82 606.417 321.82C601.97 321.82 598.383 318.233 598.383 313.785C598.383 309.338 601.97 305.751 606.417 305.751C610.864 305.751 614.452 309.363 614.452 313.785Z" fill="#FFB852"/>
<path d="M647.913 378.063H609.019C604.326 378.063 600.518 381.872 600.518 386.565C600.518 391.258 604.326 395.066 609.019 395.066H647.913C652.606 395.066 656.414 391.258 656.414 386.565C656.414 381.872 652.606 378.063 647.913 378.063Z" fill="#17A9E1"/>
<path d="M740.863 378.063H675.433C670.74 378.063 666.932 381.872 666.932 386.565C666.932 391.258 670.74 395.066 675.433 395.066H740.863C745.556 395.066 749.364 391.258 749.364 386.565C749.364 381.872 745.556 378.063 740.863 378.063Z" fill="#17A9E1"/>
<path d="M740.862 426.923H609.019C604.326 426.923 600.518 430.731 600.518 435.424C600.518 440.117 604.326 443.925 609.019 443.925H740.862C745.555 443.925 749.363 440.117 749.363 435.424C749.363 430.731 745.555 426.923 740.862 426.923Z" fill="#17A9E1"/>
<path d="M647.913 468.72H609.019C604.326 468.72 600.518 472.528 600.518 477.221C600.518 481.914 604.326 485.722 609.019 485.722H647.913C652.606 485.722 656.414 481.914 656.414 477.221C656.414 472.528 652.606 468.72 647.913 468.72Z" fill="#17A9E1"/>
<path d="M570.519 452.947L556.489 436.313L539.855 450.342L538.75 463.365L549.094 454.642C541.28 479.753 518.16 497.198 491.059 497.198C462.386 497.198 437.324 476.854 431.477 448.844C430.961 446.387 428.553 444.814 426.096 445.33C423.639 445.846 422.066 448.254 422.582 450.711C425.826 466.19 434.376 480.293 446.661 490.392C459.118 500.637 474.892 506.289 491.035 506.289C507.177 506.289 523.983 500.269 536.661 489.36C547.619 479.925 555.334 467.37 558.848 453.512L569.388 465.994L570.494 452.971L570.519 452.947Z" fill="#17A9E1"/>
<path d="M442.264 422.29L443.37 409.268L433.026 417.991C440.839 392.88 463.959 375.435 491.06 375.435C518.161 375.435 543.689 394.624 550.274 422.069C550.864 424.502 553.296 426 555.753 425.435C558.185 424.846 559.684 422.413 559.119 419.956C555.532 404.944 546.859 391.307 534.721 381.627C522.387 371.774 506.908 366.344 491.085 366.344C474.328 366.344 458.136 372.364 445.458 383.273C434.5 392.708 426.785 405.263 423.271 419.121L412.731 406.639L411.625 419.661L425.655 436.295L442.288 422.266L442.264 422.29Z" fill="#17A9E1"/>
<path d="M451.725 440.86V457.985C451.725 459.459 452.241 460.688 453.272 461.72C454.304 462.752 455.558 463.268 457.032 463.268C458.506 463.268 459.734 462.752 460.791 461.744C461.823 460.737 462.339 459.484 462.339 457.985V440.86H458.85V457.961C458.85 458.501 458.653 458.943 458.285 459.312C457.916 459.681 457.474 459.877 456.933 459.877C456.393 459.877 455.951 459.681 455.582 459.312C455.214 458.943 455.017 458.501 455.017 457.961V440.86H451.749H451.725Z" fill="#17A9E1"/>
<path d="M465.928 440.862V463H469.269V454.646H471.186C472.635 454.646 473.864 454.13 474.896 453.098C475.928 452.066 476.419 450.813 476.419 449.339V446.12C476.419 444.597 475.977 443.344 475.068 442.361C474.11 441.329 472.807 440.813 471.186 440.813H465.928V440.862ZM472.66 444.793C473.004 445.137 473.176 445.604 473.176 446.194V449.437C473.176 449.978 472.979 450.42 472.611 450.788C472.242 451.157 471.775 451.354 471.259 451.354H469.245V444.277H471.259C471.825 444.277 472.291 444.449 472.635 444.818L472.66 444.793Z" fill="#17A9E1"/>
<path d="M484.967 440.86H479.709V463.022H484.967C486.417 463.022 487.645 462.506 488.677 461.474C489.709 460.442 490.225 459.189 490.225 457.715V446.142C490.225 444.693 489.709 443.44 488.702 442.408C487.694 441.376 486.441 440.86 484.967 440.86ZM486.957 457.789C486.957 458.305 486.785 458.747 486.417 459.14C486.048 459.533 485.606 459.705 485.065 459.705H483.051V444.251H485.065C485.581 444.251 486.023 444.447 486.392 444.816C486.761 445.184 486.957 445.651 486.957 446.167V457.764V457.789Z" fill="#17A9E1"/>
<path d="M493.125 463.029H496.589L497.4 457.943H500.889L501.675 463.029H505.189L501.479 440.891H496.884L493.125 463.029ZM499.169 445.953L500.398 454.675H497.916L499.145 445.953H499.169Z" fill="#17A9E1"/>
<path d="M512.412 463.022V444.226H515.926V440.86H505.508V444.226H509.071V463.022H512.412Z" fill="#17A9E1"/>
<path d="M461.918 436.392H452.164V412.657H455.751V432.829H461.918V436.392Z" fill="#17A9E1"/>
<path d="M468.993 430.937L468.133 436.392H464.398L468.428 412.657H473.342L477.322 436.392H473.563L472.728 430.937H468.993ZM470.86 418.087L469.534 427.448H472.187L470.86 418.087Z" fill="#17A9E1"/>
<path d="M480.791 416.269H476.982V412.657H488.162V416.269H484.378V436.392H480.791V416.269Z" fill="#17A9E1"/>
<path d="M491.037 436.385V412.626H501.234V416.213H494.624V422.7H499.465V426.287H494.624V432.773H501.234V436.361H491.037V436.385Z" fill="#17A9E1"/>
<path d="M515.529 430.493C515.529 432.139 515.136 433.564 514.251 434.744C513.662 435.53 512.851 436.095 511.794 436.439C511.229 436.611 510.566 436.709 509.804 436.709C508.404 436.709 507.249 436.365 506.315 435.677C505.554 435.112 504.939 434.326 504.497 433.368C504.055 432.385 503.785 431.279 503.711 430.002L507.126 429.756C507.274 431.132 507.642 432.139 508.232 432.753C508.65 433.22 509.165 433.441 509.706 433.417C510.492 433.392 511.106 432.999 511.573 432.262C511.819 431.894 511.942 431.378 511.942 430.69C511.942 429.707 511.5 428.724 510.591 427.741C509.878 427.078 508.822 426.07 507.396 424.719C506.217 423.564 505.382 422.532 504.866 421.623C504.325 420.591 504.079 419.486 504.079 418.282C504.079 416.12 504.792 414.473 506.266 413.368C507.151 412.704 508.281 412.36 509.608 412.36C510.935 412.36 511.966 412.655 512.876 413.22C513.588 413.663 514.153 414.277 514.595 415.088C515.038 415.874 515.283 416.808 515.382 417.839L511.966 418.454C511.868 417.471 511.598 416.734 511.131 416.193C510.812 415.8 510.32 415.604 509.706 415.604C509.043 415.604 508.551 415.898 508.207 416.464C507.937 416.93 507.79 417.52 507.79 418.208C507.79 419.289 508.256 420.395 509.19 421.525C509.534 421.943 510.075 422.459 510.787 423.048C511.623 423.736 512.163 424.228 512.433 424.498C513.318 425.382 514.006 426.242 514.473 427.102C514.694 427.496 514.89 427.889 515.013 428.208C515.357 429.043 515.529 429.805 515.554 430.468L515.529 430.493Z" fill="#17A9E1"/>
<path d="M521.799 416.269H517.99V412.657H529.17V416.269H525.386V436.392H521.799V416.269Z" fill="#17A9E1"/>
<path d="M528.751 444.201V440.86H519.242V463.022H528.751V459.656H522.584V453.612H527.08V450.246H522.584V444.201H528.751Z" fill="#17A9E1"/>
<g opacity="0.95">
<path d="M1098.98 503.985V623.796C1098.98 630.738 1093.36 636.359 1086.41 636.359H876.856C869.914 636.359 864.293 630.738 864.293 623.796V503.985H1098.98Z" fill="white" stroke="#E7E7E7" stroke-width="2"/>
<path d="M1099.98 497.173V504.986H863.316V497.173C863.316 489.679 869.385 483.61 876.879 483.61H1086.44C1093.93 483.61 1100 489.679 1100 497.173H1099.98Z" fill="#17A9E1"/>
<path d="M890.688 495.407C890.688 497.373 889.091 498.97 887.125 498.97C885.16 498.97 883.562 497.373 883.562 495.407C883.562 493.442 885.16 491.845 887.125 491.845C889.091 491.845 890.688 493.442 890.688 495.407Z" fill="white"/>
<path d="M899.461 495.407C899.461 497.373 897.864 498.97 895.899 498.97C893.933 498.97 892.336 497.373 892.336 495.407C892.336 493.442 893.933 491.845 895.899 491.845C897.864 491.845 899.461 493.442 899.461 495.407Z" fill="white"/>
<path d="M908.231 495.407C908.231 497.373 906.634 498.97 904.668 498.97C902.703 498.97 901.105 497.373 901.105 495.407C901.105 493.442 902.703 491.845 904.668 491.845C906.634 491.845 908.231 493.442 908.231 495.407Z" fill="white"/>
</g>
<path d="M991.178 540.798H968.819C966.116 540.798 963.93 542.985 963.93 545.688C963.93 548.39 966.116 550.577 968.819 550.577H991.178C993.881 550.577 996.067 548.39 996.067 545.688C996.067 542.985 993.881 540.798 991.178 540.798Z" fill="#17A9E1"/>
<path d="M1074.23 540.798H1007C1004.3 540.798 1002.12 542.985 1002.12 545.688C1002.12 548.39 1004.3 550.577 1007 550.577H1074.23C1076.93 550.577 1079.12 548.39 1079.12 545.688C1079.12 542.985 1076.93 540.798 1074.23 540.798Z" fill="#17A9E1"/>
<path d="M1074.22 568.876H968.843C966.14 568.876 963.953 571.063 963.953 573.766C963.953 576.469 966.14 578.655 968.843 578.655H1074.22C1076.93 578.655 1079.11 576.469 1079.11 573.766C1079.11 571.063 1076.93 568.876 1074.22 568.876Z" fill="#17A9E1"/>
<path d="M991.178 592.892H968.819C966.116 592.892 963.93 595.079 963.93 597.782C963.93 600.484 966.116 602.671 968.819 602.671H991.178C993.881 602.671 996.067 600.484 996.067 597.782C996.067 595.079 993.881 592.892 991.178 592.892Z" fill="#17A9E1"/>
<path d="M952.381 574.477V564.527L944.592 563.814C943.88 560.35 942.504 557.131 940.636 554.281L945.649 548.261L938.622 541.234L932.602 546.246C929.752 544.379 926.533 543.003 923.069 542.291L922.356 534.502H912.405L911.693 542.291C908.229 543.003 905.034 544.379 902.16 546.246L896.14 541.234L889.113 548.261L894.125 554.281C892.258 557.131 890.882 560.35 890.17 563.814L882.381 564.527V574.477L890.17 575.19C890.882 578.654 892.258 581.873 894.125 584.723L889.113 590.743L896.14 597.77L902.16 592.758C902.16 592.758 902.307 592.856 902.381 592.905C905.182 594.699 908.327 596.025 911.693 596.713L911.816 604.551H922.946L923.069 596.713C924.617 596.394 926.116 595.927 927.565 595.362C928.523 594.993 929.432 594.551 930.342 594.084C931.128 593.691 931.865 593.224 932.602 592.758L938.622 597.77L945.649 590.743L940.636 584.723C942.504 581.873 943.88 578.654 944.592 575.19L952.381 574.477ZM917.344 587.057C907.663 587.057 899.826 579.219 899.826 569.514C899.826 559.809 907.663 551.996 917.344 551.996C927.025 551.996 934.862 559.834 934.862 569.514C934.862 579.195 927.025 587.057 917.344 587.057Z" fill="#17A9E1"/>
<g opacity="0.2">
<path d="M944.594 563.816C941.523 555.462 934.889 553.03 934.889 553.03L942.137 544.799L945.65 548.263L940.638 554.283C942.505 557.133 943.881 560.352 944.594 563.816Z" fill="#17A9E1"/>
<path d="M890.096 575.189C893.167 583.543 899.801 585.976 899.801 585.976L892.553 594.207L889.039 590.742L894.051 584.723C892.184 581.872 890.808 578.654 890.096 575.189Z" fill="#17A9E1"/>
</g>
<g opacity="0.2">
<path d="M911.664 542.262C903.311 545.333 900.903 551.967 900.903 551.967L892.672 544.719L896.136 541.205L902.156 546.217C905.006 544.35 908.225 542.974 911.689 542.262H911.664Z" fill="#17A9E1"/>
<path d="M942.056 594.297L938.592 597.811L932.572 592.798C931.86 593.265 931.098 593.707 930.336 594.125C929.55 594.543 928.739 594.936 927.904 595.255C926.356 595.894 924.734 596.385 923.039 596.754C924.734 596.14 926.16 595.378 927.388 594.543C928.42 593.855 929.329 593.093 930.066 592.356C932.843 589.653 933.801 587.049 933.801 587.049L942.032 594.297H942.056Z" fill="#17A9E1"/>
</g>
<g opacity="0.2">
<path d="M940.633 584.749C944.367 576.665 941.394 570.277 941.394 570.277L952.353 569.564L952.402 574.503L944.589 575.216C943.901 578.557 942.598 581.8 940.657 584.749H940.633Z" fill="#17A9E1"/>
<path d="M894.074 554.283C890.339 562.367 893.312 568.755 893.312 568.755L882.354 569.467L882.305 564.529L890.118 563.816C890.806 560.475 892.108 557.232 894.049 554.283H894.074Z" fill="#17A9E1"/>
</g>
<g opacity="0.2">
<path d="M916.876 604.584H911.765L911.643 596.746C908.301 596.058 905.058 594.755 902.109 592.814C902.183 592.864 902.281 592.888 902.355 592.913C910.316 596.475 916.581 593.576 916.581 593.576L916.876 604.584Z" fill="#17A9E1"/>
<path d="M932.604 546.224C924.521 542.49 918.132 545.462 918.132 545.462L917.42 534.504L922.358 534.455L923.071 542.268C926.413 542.956 929.656 544.259 932.604 546.2V546.224Z" fill="#17A9E1"/>
</g>
<path d="M917.346 549.986C906.559 549.986 897.812 558.733 897.812 569.519C897.812 580.305 906.559 589.052 917.346 589.052C928.132 589.052 936.879 580.305 936.879 569.519C936.879 558.733 928.132 549.986 917.346 549.986ZM917.346 587.062C907.665 587.062 899.827 579.224 899.827 569.519C899.827 559.814 907.665 552.001 917.346 552.001C927.026 552.001 934.864 559.838 934.864 569.519C934.864 579.2 927.026 587.062 917.346 587.062Z" fill="#17A9E1"/>
<path d="M917.566 576.603C917.566 577.512 917.247 578.299 916.584 578.938C915.945 579.576 915.159 579.896 914.249 579.896C913.34 579.896 912.554 579.576 911.915 578.938C911.276 578.299 910.957 577.512 910.957 576.603V569.06C910.957 568.151 911.276 567.365 911.94 566.726C912.579 566.087 913.365 565.768 914.274 565.768C915.183 565.768 915.969 566.087 916.608 566.751C917.247 567.39 917.566 568.176 917.566 569.085V576.628V576.603ZM915.404 569.011C915.404 568.692 915.281 568.397 915.06 568.151C914.814 567.906 914.544 567.807 914.2 567.807C913.856 567.807 913.586 567.93 913.365 568.151C913.144 568.397 913.021 568.667 913.021 569.011V576.579C913.021 576.898 913.144 577.193 913.365 577.439C913.586 577.685 913.881 577.783 914.2 577.783C914.52 577.783 914.814 577.66 915.06 577.439C915.306 577.193 915.404 576.923 915.404 576.579V569.011Z" fill="#17A9E1"/>
<path d="M921.031 579.773V569.11H919.262V567.66C919.753 567.611 920.244 567.414 920.687 567.095C921.129 566.775 921.473 566.382 921.67 565.94H923.119V579.773H921.031Z" fill="#17A9E1"/>
<path d="M910.072 563.554L909.359 559.549H909.998L910.49 562.669L911.006 559.549H911.644L910.907 563.554H910.072Z" fill="#17A9E1"/>
<path d="M912.139 563.554V559.549H913.859V560.163H912.753V561.269H913.564V561.883H912.753V562.989H913.859V563.603H912.139V563.554Z" fill="#17A9E1"/>
<path d="M915.233 559.518C915.577 559.518 915.822 559.616 915.97 559.788C916.117 559.96 916.166 560.181 916.166 560.476V561.066C916.166 561.36 916.068 561.581 915.847 561.778L916.289 563.523H915.626L915.257 562.024H914.864V563.523H914.25V559.518H915.208H915.233ZM915.601 560.476C915.601 560.255 915.479 560.132 915.257 560.132H914.889V561.409H915.257C915.257 561.409 915.429 561.385 915.503 561.311C915.577 561.237 915.601 561.164 915.601 561.066V560.476Z" fill="#17A9E1"/>
<path d="M918.624 562.549C918.624 562.819 918.55 563.065 918.403 563.261C918.305 563.384 918.157 563.482 917.985 563.556C917.887 563.581 917.789 563.605 917.641 563.605C917.396 563.605 917.199 563.556 917.052 563.433C916.929 563.335 916.806 563.212 916.732 563.04C916.659 562.868 916.609 562.696 916.609 562.475L917.175 562.426C917.199 562.671 917.273 562.819 917.371 562.942C917.445 563.015 917.518 563.065 917.617 563.065C917.74 563.065 917.862 562.991 917.936 562.868C917.985 562.794 917.985 562.721 917.985 562.598C917.985 562.426 917.912 562.254 917.764 562.106C917.641 561.984 917.469 561.836 917.224 561.59C917.027 561.394 916.88 561.222 916.806 561.074C916.708 560.902 916.683 560.706 916.683 560.509C916.683 560.141 916.806 559.871 917.052 559.674C917.199 559.551 917.396 559.502 917.617 559.502C917.838 559.502 918.01 559.551 918.182 559.649C918.305 559.723 918.403 559.821 918.477 559.969C918.55 560.092 918.6 560.264 918.6 560.436L918.01 560.534C918.01 560.362 917.936 560.239 917.862 560.141C917.813 560.067 917.74 560.042 917.617 560.042C917.494 560.042 917.42 560.092 917.371 560.19C917.322 560.264 917.297 560.362 917.297 560.485C917.297 560.657 917.371 560.853 917.543 561.05C917.592 561.124 917.69 561.197 917.813 561.296C917.961 561.418 918.034 561.492 918.084 561.541C918.231 561.689 918.354 561.836 918.428 561.984C918.477 562.057 918.501 562.106 918.526 562.18C918.575 562.328 918.624 562.45 918.624 562.573V562.549Z" fill="#17A9E1"/>
<path d="M919.729 563.554H919.115V559.549H919.729V563.554Z" fill="#17A9E1"/>
<path d="M921.23 559.471C921.5 559.471 921.721 559.569 921.918 559.741C922.114 559.938 922.188 560.159 922.188 560.429V562.616C922.188 562.886 922.09 563.107 921.918 563.304C921.721 563.5 921.5 563.574 921.23 563.574C920.959 563.574 920.738 563.476 920.542 563.304C920.345 563.107 920.271 562.886 920.271 562.616V560.429C920.271 560.159 920.37 559.938 920.542 559.741C920.738 559.544 920.959 559.471 921.205 559.471H921.23ZM921.549 560.429C921.549 560.429 921.525 560.257 921.451 560.183C921.377 560.11 921.303 560.085 921.205 560.085C921.107 560.085 921.033 560.11 920.96 560.183C920.886 560.257 920.861 560.331 920.861 560.429V562.616C920.861 562.616 920.886 562.788 920.96 562.861C921.033 562.935 921.107 562.96 921.205 562.96C921.303 562.96 921.377 562.935 921.451 562.861C921.525 562.788 921.549 562.714 921.549 562.616V560.429Z" fill="#17A9E1"/>
<path d="M923.39 559.518L924.201 562.22V559.518H924.815V563.523H924.176L923.341 560.943V563.523H922.727V559.518H923.415H923.39Z" fill="#17A9E1"/>
<g opacity="0.95">
<path d="M335.659 566.797V686.608C335.659 693.55 330.038 699.171 323.096 699.171H113.563C106.621 699.171 101 693.55 101 686.608V566.797H335.659Z" fill="white" stroke="#E7E7E7" stroke-width="2"/>
<path d="M336.659 559.985V567.798H100V559.985C100 552.491 106.069 546.422 113.563 546.422H323.121C330.615 546.422 336.683 552.491 336.683 559.985H336.659Z" fill="#17A9E1"/>
<path d="M127.397 558.219C127.397 560.185 125.8 561.782 123.834 561.782C121.869 561.782 120.271 560.185 120.271 558.219C120.271 556.254 121.869 554.657 123.834 554.657C125.8 554.657 127.397 556.254 127.397 558.219Z" fill="white"/>
<path d="M136.141 558.219C136.141 560.185 134.544 561.782 132.578 561.782C130.613 561.782 129.016 560.185 129.016 558.219C129.016 556.254 130.613 554.657 132.578 554.657C134.544 554.657 136.141 556.254 136.141 558.219Z" fill="white"/>
<path d="M144.914 558.219C144.914 560.185 143.317 561.782 141.352 561.782C139.386 561.782 137.789 560.185 137.789 558.219C137.789 556.254 139.386 554.657 141.352 554.657C143.317 554.657 144.914 556.254 144.914 558.219Z" fill="white"/>
</g>
<path d="M227.861 603.61H205.503C202.8 603.61 200.613 605.797 200.613 608.5C200.613 611.203 202.8 613.389 205.503 613.389H227.861C230.564 613.389 232.751 611.203 232.751 608.5C232.751 605.797 230.564 603.61 227.861 603.61Z" fill="#17A9E1"/>
<path d="M310.912 603.61H243.688C240.986 603.61 238.799 605.797 238.799 608.5C238.799 611.203 240.986 613.389 243.688 613.389H310.912C313.615 613.389 315.801 611.203 315.801 608.5C315.801 605.797 313.615 603.61 310.912 603.61Z" fill="#17A9E1"/>
<path d="M310.907 631.688H205.526C202.823 631.688 200.637 633.875 200.637 636.578C200.637 639.281 202.823 641.467 205.526 641.467H310.907C313.61 641.467 315.797 639.281 315.797 636.578C315.797 633.875 313.61 631.688 310.907 631.688Z" fill="#17A9E1"/>
<path d="M227.861 655.704H205.503C202.8 655.704 200.613 657.891 200.613 660.594C200.613 663.296 202.8 665.483 205.503 665.483H227.861C230.564 665.483 232.751 663.296 232.751 660.594C232.751 657.891 230.564 655.704 227.861 655.704Z" fill="#17A9E1"/>
<path d="M189.068 637.289V627.338L181.28 626.625C180.567 623.161 179.191 619.942 177.324 617.092L182.336 611.072L175.309 604.045L169.29 609.057C166.439 607.19 163.221 605.814 159.756 605.102L159.044 597.313H149.093L148.38 605.102C144.916 605.814 141.722 607.19 138.847 609.057L132.828 604.045L125.801 611.072L130.813 617.092C128.946 619.942 127.57 623.161 126.857 626.625L119.068 627.338V637.289L126.857 638.001C127.57 641.465 128.946 644.684 130.813 647.534L125.801 653.554L132.828 660.581L138.847 655.569C138.847 655.569 138.995 655.667 139.068 655.716C141.869 657.51 145.014 658.836 148.38 659.524L148.503 667.362H159.634L159.756 659.524C161.304 659.205 162.803 658.738 164.253 658.173C165.211 657.805 166.12 657.362 167.029 656.895C167.815 656.502 168.552 656.035 169.29 655.569L175.309 660.581L182.336 653.554L177.324 647.534C179.191 644.684 180.567 641.465 181.28 638.001L189.068 637.289ZM154.032 649.868C144.351 649.868 136.513 642.03 136.513 632.325C136.513 622.62 144.351 614.807 154.032 614.807C163.712 614.807 171.55 622.645 171.55 632.325C171.55 642.006 163.712 649.868 154.032 649.868Z" fill="#17A9E1"/>
<g opacity="0.2">
<path d="M181.281 626.652C178.21 618.298 171.576 615.865 171.576 615.865L178.824 607.61L182.338 611.074L177.326 617.094C179.193 619.944 180.569 623.163 181.281 626.627V626.652Z" fill="#17A9E1"/>
<path d="M126.807 638.032C129.878 646.386 136.512 648.818 136.512 648.818L129.264 657.049L125.75 653.585L130.762 647.565C128.895 644.715 127.519 641.496 126.807 638.032Z" fill="#17A9E1"/>
</g>
<g opacity="0.2">
<path d="M148.352 605.073C139.998 608.144 137.59 614.778 137.59 614.778L129.359 607.53L132.824 604.016L138.843 609.028C141.694 607.161 144.912 605.785 148.377 605.073H148.352Z" fill="#17A9E1"/>
<path d="M178.744 657.108L175.279 660.622L169.26 655.609C168.547 656.076 167.786 656.518 167.024 656.936C166.238 657.354 165.427 657.747 164.591 658.066C163.044 658.705 161.422 659.196 159.727 659.565C161.422 658.951 162.847 658.189 164.075 657.354C165.107 656.666 166.016 655.904 166.754 655.167C169.53 652.464 170.488 649.86 170.488 649.86L178.719 657.108H178.744Z" fill="#17A9E1"/>
</g>
<g opacity="0.2">
<path d="M177.32 647.56C181.055 639.476 178.082 633.088 178.082 633.088L189.04 632.375L189.089 637.314L181.276 638.027C180.588 641.368 179.286 644.611 177.345 647.56H177.32Z" fill="#17A9E1"/>
<path d="M130.761 617.094C127.027 625.178 130 631.566 130 631.566L119.041 632.279L118.992 627.34L126.805 626.627C127.493 623.286 128.796 620.043 130.737 617.094H130.761Z" fill="#17A9E1"/>
</g>
<g opacity="0.2">
<path d="M153.563 667.395H148.453L148.33 659.557C144.989 658.869 141.745 657.567 138.797 655.625C138.871 655.675 138.969 655.699 139.043 655.724C147.003 659.286 153.269 656.387 153.269 656.387L153.563 667.395Z" fill="#17A9E1"/>
<path d="M169.292 609.035C161.208 605.301 154.82 608.274 154.82 608.274L154.107 597.315L159.046 597.266L159.759 605.079C163.1 605.767 166.343 607.07 169.292 609.011V609.035Z" fill="#17A9E1"/>
</g>
<path d="M154.031 612.797C143.245 612.797 134.498 621.544 134.498 632.331C134.498 643.117 143.245 651.864 154.031 651.864C164.817 651.864 173.564 643.117 173.564 632.331C173.564 621.544 164.817 612.797 154.031 612.797ZM154.031 649.874C144.351 649.874 136.513 642.036 136.513 632.331C136.513 622.625 144.351 614.812 154.031 614.812C163.712 614.812 171.55 622.65 171.55 632.331C171.55 642.011 163.712 649.874 154.031 649.874Z" fill="#17A9E1"/>
<path d="M152.36 639.252C152.36 640.185 152.041 640.972 151.377 641.635C150.714 642.274 149.928 642.618 149.018 642.618C148.109 642.618 147.299 642.298 146.635 641.635C145.972 640.972 145.652 640.185 145.652 639.252V631.586C145.652 630.652 145.972 629.866 146.635 629.203C147.299 628.539 148.085 628.22 149.018 628.22C149.952 628.22 150.738 628.539 151.402 629.203C152.041 629.866 152.385 630.652 152.385 631.586V639.252H152.36ZM150.149 631.537C150.149 631.193 150.026 630.922 149.78 630.677C149.534 630.431 149.264 630.308 148.92 630.308C148.576 630.308 148.306 630.431 148.06 630.677C147.815 630.922 147.716 631.193 147.716 631.537V639.227C147.716 639.571 147.839 639.841 148.06 640.087C148.306 640.333 148.576 640.456 148.92 640.456C149.264 640.456 149.534 640.333 149.78 640.087C150.026 639.841 150.149 639.571 150.149 639.227V631.537Z" fill="#17A9E1"/>
<path d="M154.08 632.372C154.08 631.045 154.449 630.013 155.161 629.325C155.775 628.711 156.586 628.392 157.618 628.392C158.552 628.392 159.338 628.736 160.001 629.424C160.665 630.111 160.984 630.922 160.984 631.856C160.984 632.79 160.763 633.748 160.345 634.632C160.124 635.124 159.584 635.984 158.724 637.188C158.503 637.507 158.159 638.023 157.692 638.736L157.323 639.301C157.078 639.669 156.881 639.964 156.758 640.185C156.709 640.308 156.66 640.357 156.66 640.382H160.812V642.446H154.08V640.505C154.08 640.505 154.228 640.21 154.547 639.718C154.694 639.497 154.842 639.252 155.038 639.006L155.579 638.22C155.898 637.777 156.414 637.065 157.102 636.107C157.766 635.197 158.232 634.362 158.552 633.625C158.822 633.011 158.945 632.446 158.945 631.93C158.945 631.512 158.822 631.143 158.576 630.849C158.306 630.529 157.987 630.382 157.569 630.382C156.979 630.382 156.562 630.726 156.316 631.414C156.242 631.635 156.193 631.905 156.193 632.225V632.765H154.105V632.396L154.08 632.372Z" fill="#17A9E1"/>
<path d="M146.167 626.282L145.43 622.204H146.069L146.584 625.373L147.1 622.204H147.739L147.002 626.282H146.167Z" fill="#17A9E1"/>
<path d="M148.281 626.282V622.204H150.026V622.818H148.896V623.924H149.731V624.538H148.896V625.643H150.026V626.258H148.281V626.282Z" fill="#17A9E1"/>
<path d="M151.426 622.235C151.77 622.235 152.016 622.333 152.188 622.53C152.335 622.702 152.409 622.923 152.409 623.218V623.807C152.409 624.102 152.286 624.348 152.089 624.544L152.556 626.314H151.893L151.524 624.79H151.106V626.314H150.492V622.235H151.45H151.426ZM151.794 623.218C151.794 622.972 151.672 622.874 151.45 622.874H151.082V624.176H151.45C151.45 624.176 151.622 624.151 151.696 624.078C151.77 624.004 151.794 623.93 151.794 623.832V623.242V623.218Z" fill="#17A9E1"/>
<path d="M154.866 625.275C154.866 625.57 154.793 625.791 154.645 626.012C154.547 626.159 154.399 626.233 154.227 626.307C154.129 626.331 154.006 626.356 153.884 626.356C153.638 626.356 153.441 626.307 153.294 626.184C153.171 626.086 153.048 625.963 152.974 625.791C152.901 625.619 152.852 625.422 152.852 625.226L153.441 625.177C153.466 625.422 153.54 625.594 153.638 625.693C153.712 625.766 153.785 625.815 153.884 625.815C154.006 625.815 154.129 625.742 154.203 625.619C154.252 625.545 154.277 625.471 154.277 625.349C154.277 625.177 154.203 625.005 154.056 624.833C153.933 624.71 153.761 624.538 153.515 624.317C153.318 624.12 153.171 623.948 153.073 623.776C152.974 623.604 152.925 623.408 152.925 623.211C152.925 622.842 153.048 622.548 153.294 622.376C153.441 622.253 153.638 622.204 153.859 622.204C154.08 622.204 154.277 622.253 154.424 622.351C154.547 622.425 154.645 622.523 154.719 622.67C154.793 622.818 154.842 622.965 154.866 623.137L154.277 623.236C154.277 623.064 154.203 622.941 154.129 622.842C154.08 622.769 153.982 622.744 153.884 622.744C153.785 622.744 153.687 622.793 153.638 622.892C153.589 622.965 153.564 623.064 153.564 623.186C153.564 623.383 153.638 623.555 153.81 623.752C153.859 623.825 153.957 623.923 154.08 624.022C154.227 624.145 154.326 624.218 154.35 624.267C154.498 624.415 154.621 624.562 154.694 624.71C154.743 624.784 154.768 624.833 154.793 624.906C154.842 625.054 154.891 625.177 154.891 625.299L154.866 625.275Z" fill="#17A9E1"/>
<path d="M155.995 626.282H155.381V622.204H155.995V626.282Z" fill="#17A9E1"/>
<path d="M157.496 622.157C157.767 622.157 157.988 622.255 158.184 622.452C158.381 622.648 158.479 622.869 158.479 623.14V625.375C158.479 625.646 158.381 625.867 158.184 626.063C157.988 626.26 157.767 626.358 157.496 626.358C157.226 626.358 157.005 626.26 156.809 626.063C156.612 625.867 156.514 625.646 156.514 625.375V623.14C156.514 622.869 156.612 622.648 156.809 622.452C157.005 622.255 157.226 622.157 157.496 622.157ZM157.84 623.115C157.84 623.115 157.816 622.943 157.742 622.869C157.668 622.796 157.595 622.771 157.496 622.771C157.398 622.771 157.324 622.796 157.251 622.869C157.177 622.943 157.152 623.017 157.152 623.115V625.351C157.152 625.351 157.177 625.523 157.251 625.597C157.324 625.67 157.398 625.695 157.496 625.695C157.595 625.695 157.668 625.67 157.742 625.597C157.816 625.523 157.84 625.449 157.84 625.351V623.115Z" fill="#17A9E1"/>
<path d="M159.704 622.204L160.514 624.955V622.204H161.129V626.282H160.465L159.63 623.678V626.282H159.016V622.204H159.704Z" fill="#17A9E1"/>
<path d="M896.533 340.841L896.582 341.062H721.963C694.248 341.062 671.791 318.605 671.791 290.89C671.791 263.175 694.248 240.693 721.963 240.693C722.11 240.693 722.282 240.693 722.43 240.693C727.835 215.435 744.862 194.526 767.639 183.789C778.228 178.776 790.071 176 802.553 176C847.811 176 884.519 212.708 884.519 257.966C884.519 259.071 884.469 260.152 884.445 261.234C887.049 260.718 889.727 260.447 892.479 260.447C914.715 260.447 932.774 278.506 932.774 300.742C932.774 321.651 916.877 338.801 896.533 340.841Z" fill="#17A9E1"/>
<path d="M895.403 308.499C895.403 321.865 888.867 333.732 878.843 341.054H721.963C694.248 341.054 671.791 318.597 671.791 290.882C671.791 263.167 694.248 240.686 721.963 240.686C722.11 240.686 722.282 240.686 722.43 240.686C727.835 215.427 744.862 194.518 767.639 183.781C811.742 185.083 847.123 221.275 847.123 265.698C847.123 266.804 847.074 267.885 847.049 268.99C849.629 268.45 852.332 268.179 855.084 268.179C877.32 268.179 895.379 286.238 895.379 308.474L895.403 308.499Z" fill="#17A9E1"/>
<path d="M818.942 237.984H784.471V290.712H818.942V237.984Z" fill="white"/>
<path d="M801.694 319.306L832.775 279.625H770.588L801.694 319.306Z" fill="white"/>
<defs>
<filter id="filter0_d_77_5995" x="341.156" y="248.594" width="504.02" height="354.561" filterUnits="userSpaceOnUse" color-interpolation-filters="sRGB">
<feFlood flood-opacity="0" result="BackgroundImageFix"/>
<feColorMatrix in="SourceAlpha" type="matrix" values="0 0 0 0 0 0 0 0 0 0 0 0 0 0 0 0 0 0 127 0" result="hardAlpha"/>
<feOffset dx="4.00001" dy="8.00001"/>
<feGaussianBlur stdDeviation="12"/>
<feColorMatrix type="matrix" values="0 0 0 0 0.109804 0 0 0 0 0.317647 0 0 0 0 0.458824 0 0 0 0.25 0"/>
<feBlend mode="normal" in2="BackgroundImageFix" result="effect1_dropShadow_77_5995"/>
<feBlend mode="normal" in="SourceGraphic" in2="effect1_dropShadow_77_5995" result="shape"/>
</filter>
<linearGradient id="paint0_linear_77_5995" x1="441.288" y1="135.536" x2="998.436" y2="303.513" gradientUnits="userSpaceOnUse">
<stop stop-color="#D8E9FF"/>
<stop offset="1" stop-color="#A7C8FF"/>
</linearGradient>
</defs>
</svg>
