<svg width="1200" height="858" viewBox="0 0 1200 858" fill="none" xmlns="http://www.w3.org/2000/svg">
<rect width="1200" height="858" fill="white"/>
<path d="M793.514 816.272C793.563 835.756 777.814 851.603 758.329 851.677L444.889 851.898H429.017C424.201 851.898 419.631 850.965 415.479 849.245C406.781 845.608 399.852 838.655 396.314 829.908C394.619 825.805 393.71 821.333 393.685 816.64H393.783L393.587 645.559L393.366 471.726L393.267 382.733V378.531L393.169 289.49V280.202L393.022 175.116V158.359L392.973 158.433C392.924 138.875 408.698 123.077 428.157 123.101L757.47 122.782C776.978 122.683 792.703 138.556 792.777 158.015H792.703V169.809L792.826 252.733L789.091 256.541L789.361 256.811C791.597 258.998 792.85 261.971 792.85 265.091V305.042C792.85 308.089 791.671 311.013 789.509 313.2L792.875 316.467L792.924 364.993C792.457 367.008 791.425 368.875 789.951 370.423L792.949 373.323L793.293 373.691L793.342 476.369L793.465 816.272H793.514Z" fill="url(#paint0_linear_229_9777)"/>
<path d="M772.31 176.432V770.29C772.31 782.698 762.187 792.796 749.779 792.796H435.675C423.218 792.796 413.144 782.698 413.144 770.29V176.432C422.088 169.282 433.39 165.031 445.749 165.031H739.705C752.015 165.031 763.366 169.282 772.31 176.432Z" fill="white"/>
<path d="M772.31 599.454V776.678C772.31 785.548 762.187 792.771 749.779 792.771H435.675C423.218 792.771 413.144 785.548 413.144 776.678V599.454C422.088 594.344 433.39 591.297 445.749 591.297H739.705C752.015 591.297 763.366 594.344 772.31 599.454Z" fill="#D4F1FC"/>
<path opacity="0.14" d="M426.387 801.13C426.387 801.13 467.468 810.859 554.028 815.945C640.588 821.031 736.756 835.945 763.39 809.532C792.136 781.007 775.896 775.798 775.896 775.798C775.896 775.798 785.503 786.338 754.495 795.134C723.488 803.931 426.411 801.154 426.411 801.154L426.387 801.13Z" fill="#191D3F"/>
<path d="M772.801 73.0753V176.442C763.857 169.316 752.506 165.066 740.221 165.066H446.24C433.906 165.066 422.604 169.316 413.66 176.442V73.0753C413.66 60.6675 423.734 50.5938 436.191 50.5938H750.294C762.702 50.5938 772.825 60.6675 772.825 73.0753H772.801Z" fill="#17A9E1"/>
<path d="M582.287 81.4531V82.2639H579.24V90.9863H578.307V82.2639H575.26V81.4531H582.311H582.287Z" fill="white"/>
<path d="M589.166 87.4534C589.166 88.0185 589.092 88.5345 588.92 88.9767C588.748 89.4436 588.527 89.8367 588.257 90.1561C587.962 90.4755 587.618 90.7212 587.225 90.9178C586.832 91.0897 586.389 91.188 585.922 91.188C585.456 91.188 585.013 91.0897 584.62 90.9178C584.227 90.7458 583.883 90.5001 583.588 90.1561C583.293 89.8367 583.072 89.4436 582.925 88.9767C582.753 88.5099 582.679 88.0185 582.679 87.4534C582.679 86.8883 582.753 86.3969 582.925 85.93C583.097 85.4632 583.318 85.0701 583.588 84.7507C583.883 84.4313 584.227 84.161 584.62 83.989C585.013 83.817 585.456 83.7188 585.922 83.7188C586.389 83.7188 586.832 83.817 587.225 83.989C587.618 84.161 587.962 84.4313 588.257 84.7507C588.551 85.0701 588.773 85.4632 588.92 85.93C589.092 86.3969 589.166 86.8883 589.166 87.4534ZM588.207 87.4534C588.207 86.5689 588.011 85.8563 587.593 85.3158C587.176 84.7998 586.61 84.5296 585.922 84.5296C585.235 84.5296 584.645 84.7998 584.252 85.3158C583.834 85.8318 583.637 86.5443 583.637 87.4534C583.637 88.3625 583.834 89.0505 584.252 89.5664C584.669 90.0824 585.235 90.3527 585.922 90.3527C586.61 90.3527 587.2 90.0824 587.593 89.5664C588.011 89.0505 588.207 88.3379 588.207 87.4534Z" fill="white"/>
<path d="M596.758 90.7637C596.488 90.862 596.144 90.9357 595.751 91.034C595.333 91.1077 594.817 91.1568 594.179 91.1568C593.663 91.1568 593.171 91.0831 592.753 90.9111C592.336 90.7391 591.967 90.4935 591.648 90.174C591.328 89.8546 591.107 89.4615 590.935 88.9947C590.763 88.5278 590.69 88.0119 590.69 87.4468C590.69 86.9062 590.763 86.4148 590.911 85.948C591.058 85.5057 591.255 85.1126 591.525 84.7686C591.795 84.4492 592.139 84.1789 592.532 84.0069C592.925 83.8104 593.392 83.7367 593.908 83.7367C594.375 83.7367 594.793 83.8104 595.137 83.9332C595.481 84.0561 595.726 84.2035 595.898 84.3018V80.4688L596.783 80.2969V90.7637H596.758ZM595.874 85.1617C595.874 85.1617 595.677 85.0389 595.554 84.9652C595.432 84.8915 595.284 84.8177 595.112 84.7686C594.94 84.6949 594.768 84.6458 594.572 84.6212C594.375 84.5721 594.178 84.5475 593.957 84.5475C593.515 84.5475 593.147 84.6212 592.852 84.7932C592.557 84.9406 592.311 85.1617 592.139 85.432C591.967 85.7023 591.82 85.9971 591.746 86.3657C591.672 86.7097 591.623 87.1028 591.623 87.4959C591.623 88.4295 591.869 89.1421 592.336 89.6581C592.803 90.1495 593.417 90.4197 594.203 90.4197C594.645 90.4197 594.989 90.4197 595.26 90.346C595.53 90.2969 595.726 90.2723 595.874 90.2232V85.2354V85.1617Z" fill="white"/>
<path d="M601.305 83.7188C601.772 83.7188 602.165 83.7925 602.485 83.9153C602.804 84.0382 603.074 84.2347 603.271 84.4559C603.467 84.7016 603.615 84.9718 603.713 85.2912C603.811 85.6106 603.86 85.9546 603.86 86.3477V90.8441C603.86 90.8441 603.639 90.8932 603.467 90.9424C603.295 90.9669 603.099 91.016 602.853 91.0406C602.632 91.0898 602.362 91.1143 602.091 91.1389C601.821 91.1635 601.526 91.1635 601.231 91.1635C600.863 91.1635 600.519 91.1143 600.2 91.0406C599.88 90.9669 599.61 90.8195 599.364 90.6475C599.118 90.4755 598.946 90.2298 598.824 89.9595C598.701 89.6893 598.627 89.3453 598.627 88.9276C598.627 88.5099 598.701 88.2151 598.848 87.9448C598.996 87.6745 599.192 87.4534 599.462 87.2568C599.733 87.0849 600.052 86.9374 600.421 86.8637C600.789 86.79 601.182 86.7409 601.625 86.7409C601.747 86.7409 601.895 86.7409 602.018 86.7409C602.165 86.7409 602.288 86.7654 602.435 86.79C602.558 86.79 602.681 86.8391 602.779 86.8637C602.878 86.8637 602.951 86.9129 602.976 86.9374V86.4952C602.976 86.2495 602.976 86.0038 602.927 85.7826C602.902 85.5369 602.804 85.3404 602.681 85.1438C602.558 84.9473 602.386 84.7998 602.165 84.7015C601.944 84.5787 601.649 84.5296 601.281 84.5296C600.765 84.5296 600.371 84.5787 600.101 84.6278C599.856 84.7015 599.659 84.7507 599.536 84.7998L599.413 84.0136C599.561 83.9399 599.806 83.8662 600.126 83.817C600.445 83.7433 600.838 83.7188 601.305 83.7188ZM601.379 90.3527C601.723 90.3527 602.042 90.3527 602.288 90.3281C602.558 90.3281 602.779 90.2789 602.951 90.2298V87.7237C602.951 87.7237 602.681 87.6254 602.46 87.5762C602.239 87.5271 601.944 87.5025 601.551 87.5025C601.33 87.5025 601.109 87.5025 600.863 87.5517C600.617 87.5762 600.396 87.65 600.2 87.7482C600.003 87.8465 599.831 87.9939 599.708 88.1905C599.585 88.3625 599.512 88.6082 599.512 88.9276C599.512 89.1979 599.561 89.419 599.634 89.591C599.733 89.763 599.856 89.9104 600.003 90.0332C600.175 90.1315 600.347 90.2298 600.593 90.279C600.814 90.3281 601.084 90.3527 601.354 90.3527H601.379Z" fill="white"/>
<path d="M608.085 91.1321C607.79 90.567 607.496 89.9773 607.225 89.3876C606.955 88.7734 606.685 88.1591 606.439 87.5449C606.193 86.9306 605.972 86.3164 605.776 85.6776C605.579 85.0633 605.407 84.4491 605.26 83.8594H606.218C606.316 84.3016 606.439 84.7685 606.611 85.2844C606.759 85.8004 606.955 86.3164 607.152 86.8569C607.348 87.3975 607.569 87.9626 607.815 88.5277C608.061 89.0928 608.306 89.6579 608.601 90.1985C608.798 89.6333 608.994 89.0928 609.142 88.6014C609.289 88.11 609.437 87.594 609.584 87.1026C609.707 86.6112 609.854 86.0952 609.977 85.5793C610.1 85.0633 610.223 84.4982 610.37 83.8839H611.255C610.96 85.2107 610.616 86.5129 610.247 87.766C609.879 89.0191 609.461 90.1739 609.019 91.2058C608.847 91.6235 608.675 91.9675 608.478 92.2623C608.306 92.5572 608.085 92.8029 607.864 92.9994C607.643 93.196 607.373 93.3434 607.078 93.4171C606.783 93.5154 606.414 93.5645 606.021 93.5645C605.8 93.5645 605.579 93.54 605.383 93.4908C605.186 93.4417 605.088 93.3925 605.039 93.368L605.211 92.6309C605.211 92.6309 605.358 92.7046 605.53 92.7537C605.702 92.8029 605.874 92.8275 606.071 92.8275C606.316 92.8275 606.562 92.8029 606.759 92.7537C606.955 92.7046 607.152 92.6063 607.324 92.4835C607.496 92.3606 607.643 92.1886 607.766 91.9675C607.889 91.7464 608.036 91.5007 608.159 91.1567L608.085 91.1321Z" fill="white"/>
<path d="M558.994 111.543C558.994 108.177 559.559 105.597 560.665 103.803C561.771 102.034 563.343 101.125 565.407 101.125C567.471 101.125 569.019 102.01 570.124 103.803C571.255 105.597 571.795 108.152 571.795 111.543C571.795 114.933 571.23 117.464 570.124 119.233C568.994 121.002 567.422 121.911 565.407 121.911C563.392 121.911 561.795 121.027 560.69 119.233C559.559 117.44 559.019 114.884 559.019 111.543H558.994ZM569.756 111.543C569.756 110.388 569.682 109.307 569.535 108.25C569.387 107.218 569.142 106.285 568.798 105.474C568.454 104.663 568.011 104.024 567.446 103.557C566.881 103.091 566.193 102.845 565.382 102.845C564.572 102.845 563.835 103.091 563.294 103.557C562.729 104.024 562.287 104.688 561.967 105.474C561.623 106.285 561.402 107.194 561.255 108.25C561.107 109.282 561.034 110.388 561.034 111.543C561.034 112.698 561.107 113.779 561.255 114.835C561.402 115.867 561.648 116.801 561.967 117.587C562.311 118.373 562.753 119.012 563.294 119.503C563.859 119.97 564.547 120.216 565.382 120.216C566.218 120.216 566.906 119.97 567.446 119.503C568.011 119.037 568.454 118.398 568.798 117.587C569.142 116.801 569.387 115.867 569.535 114.835C569.682 113.803 569.756 112.698 569.756 111.543Z" fill="white"/>
<path d="M587.568 109.483C587.568 113.488 586.61 116.486 584.694 118.525C582.777 120.54 579.976 121.547 576.315 121.547L576.266 119.999C577.519 119.999 578.699 119.852 579.731 119.557C580.787 119.262 581.696 118.82 582.482 118.23C583.269 117.616 583.883 116.854 584.374 115.896C584.866 114.938 585.185 113.808 585.357 112.456C584.841 112.726 584.227 112.948 583.49 113.169C582.753 113.365 581.991 113.464 581.156 113.464C580.074 113.464 579.165 113.292 578.428 112.972C577.691 112.628 577.077 112.186 576.61 111.645C576.143 111.08 575.824 110.441 575.603 109.729C575.382 108.992 575.283 108.255 575.283 107.468C575.283 106.731 575.406 105.994 575.627 105.257C575.848 104.52 576.217 103.832 576.708 103.242C577.2 102.628 577.814 102.137 578.551 101.768C579.288 101.375 580.173 101.203 581.18 101.203C583.269 101.203 584.841 101.94 585.922 103.39C587.003 104.864 587.544 106.903 587.544 109.532L587.568 109.483ZM581.328 111.842C582.212 111.842 582.974 111.744 583.637 111.547C584.301 111.351 584.915 111.105 585.48 110.835C585.48 110.613 585.504 110.392 585.529 110.171C585.529 109.95 585.529 109.729 585.529 109.459C585.529 108.55 585.455 107.714 585.332 106.903C585.21 106.093 584.988 105.38 584.645 104.766C584.301 104.152 583.858 103.66 583.318 103.316C582.753 102.972 582.065 102.776 581.205 102.776C580.492 102.776 579.902 102.898 579.386 103.169C578.895 103.439 578.477 103.758 578.183 104.176C577.888 104.594 577.642 105.085 577.519 105.65C577.372 106.215 577.298 106.781 577.298 107.37C577.298 108.894 577.642 109.999 578.33 110.736C579.018 111.473 580.001 111.817 581.328 111.817V111.842Z" fill="white"/>
<path d="M603.514 120.2C605.332 120.2 606.635 119.832 607.421 119.07C608.207 118.308 608.6 117.276 608.6 115.999C608.6 115.163 608.453 114.451 608.133 113.886C607.814 113.321 607.396 112.878 606.831 112.534C606.291 112.19 605.652 111.969 604.939 111.822C604.227 111.675 603.465 111.601 602.654 111.601H602.359V110.053H603.023C603.539 110.053 604.079 110.004 604.62 109.905C605.16 109.807 605.652 109.611 606.119 109.316C606.561 109.021 606.954 108.652 607.249 108.161C607.544 107.694 607.691 107.08 607.691 106.318C607.691 105.679 607.593 105.139 607.372 104.697C607.151 104.254 606.88 103.886 606.512 103.616C606.168 103.345 605.75 103.149 605.283 103.026C604.816 102.903 604.325 102.829 603.809 102.829C602.777 102.829 601.966 102.977 601.401 103.272C600.836 103.566 600.345 103.837 600.001 104.082L599.19 102.608C599.386 102.485 599.632 102.313 599.927 102.141C600.222 101.969 600.566 101.797 600.984 101.65C601.377 101.502 601.844 101.38 602.31 101.257C602.802 101.159 603.342 101.109 603.907 101.109C604.915 101.109 605.75 101.232 606.487 101.478C607.2 101.724 607.814 102.068 608.281 102.534C608.748 102.977 609.116 103.517 609.337 104.131C609.558 104.746 609.681 105.434 609.681 106.146C609.681 107.326 609.362 108.259 608.748 108.996C608.133 109.733 607.323 110.274 606.34 110.593C606.88 110.716 607.396 110.937 607.912 111.208C608.428 111.478 608.871 111.846 609.288 112.264C609.681 112.706 610.025 113.222 610.271 113.837C610.517 114.451 610.64 115.163 610.64 115.999C610.64 116.834 610.492 117.62 610.197 118.333C609.902 119.046 609.46 119.66 608.871 120.2C608.281 120.716 607.544 121.134 606.635 121.429C605.726 121.724 604.694 121.871 603.465 121.871C602.826 121.871 602.261 121.822 601.721 121.748C601.205 121.674 600.738 121.552 600.32 121.453C599.927 121.331 599.583 121.232 599.288 121.109C599.018 120.987 598.797 120.888 598.674 120.815L599.165 119.144C599.165 119.144 599.46 119.316 599.73 119.439C600.001 119.561 600.32 119.66 600.689 119.758C601.057 119.856 601.475 119.955 601.942 120.028C602.409 120.102 602.925 120.151 603.49 120.151L603.514 120.2Z" fill="white"/>
<path d="M614.671 111.543C614.671 108.177 615.236 105.597 616.342 103.803C617.448 102.034 619.02 101.125 621.084 101.125C623.148 101.125 624.696 102.01 625.802 103.803C626.932 105.597 627.472 108.152 627.472 111.543C627.472 114.933 626.907 117.464 625.802 119.233C624.671 121.002 623.099 121.911 621.084 121.911C619.069 121.911 617.472 121.027 616.367 119.233C615.237 117.44 614.696 114.884 614.696 111.543H614.671ZM625.433 111.543C625.433 110.388 625.359 109.307 625.212 108.25C625.064 107.218 624.819 106.285 624.475 105.474C624.131 104.663 623.689 104.024 623.123 103.557C622.558 103.091 621.87 102.845 621.06 102.845C620.249 102.845 619.512 103.091 618.971 103.557C618.406 104.024 617.964 104.688 617.644 105.474C617.3 106.285 617.079 107.194 616.932 108.25C616.784 109.282 616.711 110.388 616.711 111.543C616.711 112.698 616.784 113.779 616.932 114.835C617.079 115.867 617.325 116.801 617.644 117.587C617.988 118.373 618.431 119.012 618.971 119.503C619.536 119.97 620.224 120.216 621.06 120.216C621.895 120.216 622.583 119.97 623.123 119.503C623.689 119.037 624.131 118.398 624.475 117.587C624.819 116.801 625.064 115.867 625.212 114.835C625.359 113.803 625.433 112.698 625.433 111.543Z" fill="white"/>
<g opacity="0.6">
<path d="M733.466 77.0782H732.016V75.0143C732.016 74.2772 731.426 73.6875 730.689 73.6875H701.181C700.443 73.6875 699.854 74.2772 699.854 75.0143V85.2109C699.854 85.948 700.443 86.5376 701.181 86.5376H730.689C731.426 86.5376 732.016 85.948 732.016 85.2109V81.9185H733.466C734.104 81.9185 734.62 81.4025 734.62 80.7637V78.233C734.62 77.5942 734.104 77.0782 733.466 77.0782ZM706.832 84.5229H701.893V75.4074H706.832V84.5229ZM712.63 84.5229H707.692V75.4074H712.63V84.5229ZM718.429 84.5229H713.49V75.4074H718.429V84.5229ZM724.227 84.5229H719.289V75.4074H724.227V84.5229ZM730.026 84.5229H725.087V75.4074H730.026V84.5229Z" fill="white"/>
<path d="M472.216 68.7969H466.565V86.0697H472.216V68.7969Z" fill="white"/>
<path d="M464.846 74.4531H459.195V86.0502H464.846V74.4531Z" fill="white"/>
<path d="M457.497 80.0938H451.846V86.0397H457.497V80.0938Z" fill="white"/>
<path d="M482.412 83.1226H480.667V85.4076H479.783V83.1226H474.893V82.4838L479.488 76.7344H480.471L476.048 82.3363H479.807V80.3216H480.667V82.3363H482.412V83.1226Z" fill="white"/>
<path d="M490.225 81.0766H491.109V84.3936C490.716 84.7375 490.225 85.0324 489.684 85.2044C489.144 85.4009 488.554 85.4992 487.94 85.4992C487.08 85.4992 486.294 85.3027 485.606 84.9341C484.918 84.5656 484.377 84.025 483.959 83.3616C483.566 82.6982 483.37 81.9366 483.37 81.1012C483.37 80.2658 483.566 79.5041 483.959 78.8407C484.353 78.1774 484.893 77.6368 485.606 77.2683C486.294 76.8997 487.08 76.7031 487.964 76.7031C488.628 76.7031 489.242 76.8014 489.782 77.0225C490.323 77.2437 490.79 77.5385 491.183 77.9562L490.618 78.5459C489.93 77.8579 489.07 77.5385 488.013 77.5385C487.301 77.5385 486.687 77.6859 486.122 78.0053C485.556 78.3247 485.114 78.7424 484.795 79.283C484.475 79.8235 484.303 80.4378 484.303 81.1257C484.303 81.8137 484.475 82.4034 484.795 82.9685C485.114 83.509 485.556 83.9513 486.122 84.2462C486.687 84.5656 487.325 84.713 488.013 84.713C488.898 84.713 489.66 84.4918 490.274 84.0496V81.1257L490.225 81.0766Z" fill="white"/>
</g>
<path d="M749.78 38.3281H435.676C417.863 38.3281 403.465 52.7753 403.465 70.5395V770.27C403.465 788.059 417.863 802.482 435.676 802.482H749.78C767.568 802.482 781.991 788.034 781.991 770.27V70.5395C781.991 52.7508 767.544 38.3281 749.78 38.3281ZM770.148 766.093C770.148 778.354 760.173 788.354 747.888 788.354H437.543C425.234 788.354 415.283 778.378 415.283 766.093V77.2225C415.283 64.9621 425.234 55.0112 437.543 55.0112H747.888C760.148 55.0112 770.148 64.9621 770.148 77.2225V766.118V766.093Z" fill="#3D3D89"/>
<path d="M485.43 472.188H488.206V531.647H485.43C474.693 531.647 465.995 522.925 465.995 512.212V491.622C465.995 480.885 474.717 472.188 485.43 472.188Z" fill="#29B7EE"/>
<path d="M516.954 472.188H494.743V531.647H516.954V472.188Z" fill="#29B7EE"/>
<path d="M545.699 472.188H523.487V531.647H545.699V472.188Z" fill="#29B7EE"/>
<path d="M574.449 472.188H552.237V531.647H574.449V472.188Z" fill="#29B7EE"/>
<path d="M603.22 472.188H581.008V531.647H603.22V472.188Z" fill="#29B7EE"/>
<path opacity="0.2" d="M631.964 472.188H609.753V531.647H631.964V472.188Z" fill="#29B7EE"/>
<path opacity="0.2" d="M660.714 472.188H638.503V531.647H660.714V472.188Z" fill="#29B7EE"/>
<path opacity="0.2" d="M689.462 472.188H667.25V531.647H689.462V472.188Z" fill="#29B7EE"/>
<path opacity="0.2" d="M695.995 472.188H698.772C709.509 472.188 718.207 480.91 718.207 491.622V512.212C718.207 522.949 709.484 531.647 698.772 531.647H695.995V472.188Z" fill="#29B7EE"/>
<path d="M463.021 624.36H441.4C440.083 624.36 439.016 625.427 439.016 626.744V648.365C439.016 649.682 440.083 650.749 441.4 650.749H463.021C464.337 650.749 465.404 649.682 465.404 648.365V626.744C465.404 625.427 464.337 624.36 463.021 624.36Z" fill="#29B7EE"/>
<path d="M494.495 624.36H472.874C471.557 624.36 470.49 625.427 470.49 626.744V648.365C470.49 649.682 471.557 650.749 472.874 650.749H494.495C495.811 650.749 496.878 649.682 496.878 648.365V626.744C496.878 625.427 495.811 624.36 494.495 624.36Z" fill="#29B7EE"/>
<path d="M479.435 659.204H457.814C456.497 659.204 455.43 660.271 455.43 661.587V683.209C455.43 684.525 456.497 685.592 457.814 685.592H479.435C480.752 685.592 481.819 684.525 481.819 683.209V661.587C481.819 660.271 480.752 659.204 479.435 659.204Z" fill="#29B7EE"/>
<path d="M510.05 659.204H488.428C487.112 659.204 486.045 660.271 486.045 661.587V683.209C486.045 684.525 487.112 685.592 488.428 685.592H510.05C511.366 685.592 512.433 684.525 512.433 683.209V661.587C512.433 660.271 511.366 659.204 510.05 659.204Z" fill="#29B7EE"/>
<path d="M540.69 659.204H519.069C517.753 659.204 516.686 660.271 516.686 661.587V683.209C516.686 684.525 517.753 685.592 519.069 685.592H540.69C542.007 685.592 543.074 684.525 543.074 683.209V661.587C543.074 660.271 542.007 659.204 540.69 659.204Z" fill="#29B7EE"/>
<path d="M571.303 659.204H549.681C548.365 659.204 547.298 660.271 547.298 661.587V683.209C547.298 684.525 548.365 685.592 549.681 685.592H571.303C572.619 685.592 573.686 684.525 573.686 683.209V661.587C573.686 660.271 572.619 659.204 571.303 659.204Z" fill="#29B7EE"/>
<path d="M601.917 659.204H580.296C578.979 659.204 577.912 660.271 577.912 661.587V683.209C577.912 684.525 578.979 685.592 580.296 685.592H601.917C603.233 685.592 604.301 684.525 604.301 683.209V661.587C604.301 660.271 603.233 659.204 601.917 659.204Z" fill="#29B7EE"/>
<path d="M632.529 659.204H610.907C609.591 659.204 608.524 660.271 608.524 661.587V683.209C608.524 684.525 609.591 685.592 610.907 685.592H632.529C633.845 685.592 634.912 684.525 634.912 683.209V661.587C634.912 660.271 633.845 659.204 632.529 659.204Z" fill="#29B7EE"/>
<path d="M663.144 659.204H641.522C640.206 659.204 639.139 660.271 639.139 661.587V683.209C639.139 684.525 640.206 685.592 641.522 685.592H663.144C664.46 685.592 665.527 684.525 665.527 683.209V661.587C665.527 660.271 664.46 659.204 663.144 659.204Z" fill="#29B7EE"/>
<path d="M693.761 659.204H672.139C670.823 659.204 669.756 660.271 669.756 661.587V683.209C669.756 684.525 670.823 685.592 672.139 685.592H693.761C695.077 685.592 696.144 684.525 696.144 683.209V661.587C696.144 660.271 695.077 659.204 693.761 659.204Z" fill="#29B7EE"/>
<path d="M724.396 659.204H702.775C701.459 659.204 700.391 660.271 700.391 661.587V683.209C700.391 684.525 701.459 685.592 702.775 685.592H724.396C725.713 685.592 726.78 684.525 726.78 683.209V661.587C726.78 660.271 725.713 659.204 724.396 659.204Z" fill="#29B7EE"/>
<path d="M525.948 624.36H504.327C503.01 624.36 501.943 625.427 501.943 626.744V648.365C501.943 649.682 503.01 650.749 504.327 650.749H525.948C527.265 650.749 528.332 649.682 528.332 648.365V626.744C528.332 625.427 527.265 624.36 525.948 624.36Z" fill="#29B7EE"/>
<path d="M557.42 624.36H535.798C534.482 624.36 533.415 625.427 533.415 626.744V648.365C533.415 649.682 534.482 650.749 535.798 650.749H557.42C558.736 650.749 559.803 649.682 559.803 648.365V626.744C559.803 625.427 558.736 624.36 557.42 624.36Z" fill="#29B7EE"/>
<path d="M588.894 624.36H567.272C565.956 624.36 564.889 625.427 564.889 626.744V648.365C564.889 649.682 565.956 650.749 567.272 650.749H588.894C590.21 650.749 591.277 649.682 591.277 648.365V626.744C591.277 625.427 590.21 624.36 588.894 624.36Z" fill="#29B7EE"/>
<path d="M620.37 624.36H598.749C597.432 624.36 596.365 625.427 596.365 626.744V648.365C596.365 649.682 597.432 650.749 598.749 650.749H620.37C621.687 650.749 622.754 649.682 622.754 648.365V626.744C622.754 625.427 621.687 624.36 620.37 624.36Z" fill="#29B7EE"/>
<path d="M651.842 624.36H630.22C628.904 624.36 627.837 625.427 627.837 626.744V648.365C627.837 649.682 628.904 650.749 630.22 650.749H651.842C653.158 650.749 654.225 649.682 654.225 648.365V626.744C654.225 625.427 653.158 624.36 651.842 624.36Z" fill="#29B7EE"/>
<path d="M683.292 624.36H661.67C660.354 624.36 659.287 625.427 659.287 626.744V648.365C659.287 649.682 660.354 650.749 661.67 650.749H683.292C684.608 650.749 685.675 649.682 685.675 648.365V626.744C685.675 625.427 684.608 624.36 683.292 624.36Z" fill="#29B7EE"/>
<path d="M714.769 624.36H693.147C691.831 624.36 690.764 625.427 690.764 626.744V648.365C690.764 649.682 691.831 650.749 693.147 650.749H714.769C716.085 650.749 717.152 649.682 717.152 648.365V626.744C717.152 625.427 716.085 624.36 714.769 624.36Z" fill="#29B7EE"/>
<path d="M746.24 624.36H724.619C723.302 624.36 722.235 625.427 722.235 626.744V648.365C722.235 649.682 723.302 650.749 724.619 650.749H746.24C747.556 650.749 748.623 649.682 748.623 648.365V626.744C748.623 625.427 747.556 624.36 746.24 624.36Z" fill="#29B7EE"/>
<path d="M463.021 731.532H441.4C440.083 731.532 439.016 732.599 439.016 733.916V755.537C439.016 756.853 440.083 757.921 441.4 757.921H463.021C464.337 757.921 465.404 756.853 465.404 755.537V733.916C465.404 732.599 464.337 731.532 463.021 731.532Z" fill="#29B7EE"/>
<path d="M494.495 731.532H472.874C471.557 731.532 470.49 732.599 470.49 733.916V755.537C470.49 756.853 471.557 757.921 472.874 757.921H494.495C495.811 757.921 496.878 756.853 496.878 755.537V733.916C496.878 732.599 495.811 731.532 494.495 731.532Z" fill="#29B7EE"/>
<path d="M683.316 731.532H661.669C661.522 731.532 661.399 731.532 661.252 731.581C661.129 731.581 660.981 731.532 660.834 731.532H620.686C620.686 731.532 620.588 731.532 620.514 731.532C620.465 731.532 620.416 731.532 620.343 731.532H504.298C502.996 731.532 501.915 732.589 501.915 733.916V755.562C501.915 756.864 502.971 757.945 504.298 757.945H620.343C620.343 757.945 620.441 757.945 620.514 757.945C620.564 757.945 620.613 757.945 620.686 757.945H660.834C660.981 757.945 661.104 757.945 661.252 757.896C661.374 757.896 661.522 757.945 661.669 757.945H683.316C684.618 757.945 685.699 756.889 685.699 755.562V733.916C685.699 732.613 684.642 731.532 683.316 731.532Z" fill="#29B7EE"/>
<path d="M714.769 731.532H693.147C691.831 731.532 690.764 732.599 690.764 733.916V755.537C690.764 756.853 691.831 757.921 693.147 757.921H714.769C716.085 757.921 717.152 756.853 717.152 755.537V733.916C717.152 732.599 716.085 731.532 714.769 731.532Z" fill="#29B7EE"/>
<path d="M746.24 731.532H724.619C723.302 731.532 722.235 732.599 722.235 733.916V755.537C722.235 756.853 723.302 757.921 724.619 757.921H746.24C747.556 757.921 748.623 756.853 748.623 755.537V733.916C748.623 732.599 747.556 731.532 746.24 731.532Z" fill="#29B7EE"/>
<path d="M463.021 692.985H441.4C440.083 692.985 439.016 694.052 439.016 695.369V716.99C439.016 718.307 440.083 719.374 441.4 719.374H463.021C464.337 719.374 465.404 718.307 465.404 716.99V695.369C465.404 694.052 464.337 692.985 463.021 692.985Z" fill="#29B7EE"/>
<path d="M494.495 692.985H472.874C471.557 692.985 470.49 694.052 470.49 695.369V716.99C470.49 718.307 471.557 719.374 472.874 719.374H494.495C495.811 719.374 496.878 718.307 496.878 716.99V695.369C496.878 694.052 495.811 692.985 494.495 692.985Z" fill="#29B7EE"/>
<path d="M525.948 692.985H504.327C503.01 692.985 501.943 694.052 501.943 695.369V716.99C501.943 718.307 503.01 719.374 504.327 719.374H525.948C527.265 719.374 528.332 718.307 528.332 716.99V695.369C528.332 694.052 527.265 692.985 525.948 692.985Z" fill="#29B7EE"/>
<path d="M557.42 692.985H535.798C534.482 692.985 533.415 694.052 533.415 695.369V716.99C533.415 718.307 534.482 719.374 535.798 719.374H557.42C558.736 719.374 559.803 718.307 559.803 716.99V695.369C559.803 694.052 558.736 692.985 557.42 692.985Z" fill="#29B7EE"/>
<path d="M588.894 692.985H567.272C565.956 692.985 564.889 694.052 564.889 695.369V716.99C564.889 718.307 565.956 719.374 567.272 719.374H588.894C590.21 719.374 591.277 718.307 591.277 716.99V695.369C591.277 694.052 590.21 692.985 588.894 692.985Z" fill="#29B7EE"/>
<path d="M620.37 692.985H598.749C597.432 692.985 596.365 694.052 596.365 695.369V716.99C596.365 718.307 597.432 719.374 598.749 719.374H620.37C621.687 719.374 622.754 718.307 622.754 716.99V695.369C622.754 694.052 621.687 692.985 620.37 692.985Z" fill="#29B7EE"/>
<path d="M651.842 692.985H630.22C628.904 692.985 627.837 694.052 627.837 695.369V716.99C627.837 718.307 628.904 719.374 630.22 719.374H651.842C653.158 719.374 654.225 718.307 654.225 716.99V695.369C654.225 694.052 653.158 692.985 651.842 692.985Z" fill="#29B7EE"/>
<path d="M683.292 692.985H661.67C660.354 692.985 659.287 694.052 659.287 695.369V716.99C659.287 718.307 660.354 719.374 661.67 719.374H683.292C684.608 719.374 685.675 718.307 685.675 716.99V695.369C685.675 694.052 684.608 692.985 683.292 692.985Z" fill="#29B7EE"/>
<path d="M746.265 692.985H705.283C703.98 692.985 702.899 694.042 702.899 695.369V717.015C702.899 718.317 703.956 719.398 705.283 719.398H746.265C747.568 719.398 748.649 718.342 748.649 717.015V695.369C748.649 694.066 747.592 692.985 746.265 692.985Z" fill="#29B7EE"/>
<path opacity="0.2" d="M793.344 409.529H408.97C403.221 409.529 397.864 407.834 393.368 404.886L393.27 315.893V311.691L393.172 222.65V213.362L393.024 108.276C397.692 104.934 403.417 102.969 409.609 102.969H792.73L792.828 185.893L789.094 189.701L789.364 189.971C791.6 192.158 792.853 195.131 792.853 198.251V238.202C792.853 241.249 791.673 244.173 789.511 246.36L792.877 249.627L792.926 298.153C792.46 300.168 791.428 302.035 789.953 303.583L792.951 306.483L793.295 306.851L793.344 409.529Z" fill="#C1BABA"/>
<g filter="url(#filter0_d_229_9777)">
<path d="M817.177 120.095C817.177 104.346 804.376 91.5938 788.627 91.5938H390.346C374.548 91.5938 361.796 104.346 361.796 120.095L361.157 369.579C361.157 372.921 361.722 376.14 362.803 379.137C366.71 390.194 377.275 398.154 389.707 398.154H787.988C798.455 398.154 807.62 392.479 812.583 384.051C815.089 379.801 816.539 374.862 816.539 369.604L817.177 120.12V120.095Z" fill="white"/>
</g>
<path d="M574.867 140.784C574.867 145.232 571.28 148.819 566.833 148.819C562.386 148.819 558.799 145.232 558.799 140.784C558.799 136.337 562.386 132.75 566.833 132.75C571.28 132.75 574.867 136.362 574.867 140.784Z" fill="#17A9E1"/>
<path d="M594.646 140.784C594.646 145.232 591.059 148.819 586.612 148.819C582.164 148.819 578.577 145.232 578.577 140.784C578.577 136.337 582.164 132.75 586.612 132.75C591.059 132.75 594.646 136.362 594.646 140.784Z" fill="#17A9E1"/>
<path d="M614.451 140.784C614.451 145.232 610.864 148.819 606.416 148.819C601.969 148.819 598.382 145.232 598.382 140.784C598.382 136.337 601.969 132.75 606.416 132.75C610.864 132.75 614.451 136.362 614.451 140.784Z" fill="#FFB852"/>
<path d="M647.913 205.062H609.019C604.326 205.062 600.517 208.871 600.517 213.564C600.517 218.257 604.326 222.065 609.019 222.065H647.913C652.606 222.065 656.414 218.257 656.414 213.564C656.414 208.871 652.606 205.062 647.913 205.062Z" fill="#17A9E1"/>
<path d="M740.863 205.062H675.433C670.74 205.062 666.932 208.871 666.932 213.564C666.932 218.257 670.74 222.065 675.433 222.065H740.863C745.556 222.065 749.364 218.257 749.364 213.564C749.364 208.871 745.556 205.062 740.863 205.062Z" fill="#17A9E1"/>
<path d="M740.861 253.922H609.018C604.325 253.922 600.517 257.73 600.517 262.423C600.517 267.116 604.325 270.924 609.018 270.924H740.861C745.554 270.924 749.362 267.116 749.362 262.423C749.362 257.73 745.554 253.922 740.861 253.922Z" fill="#17A9E1"/>
<path d="M647.913 295.719H609.018C604.325 295.719 600.517 299.527 600.517 304.22C600.517 308.913 604.325 312.721 609.018 312.721H647.913C652.606 312.721 656.414 308.913 656.414 304.22C656.414 299.527 652.606 295.719 647.913 295.719Z" fill="#17A9E1"/>
<path d="M570.52 279.946L556.49 263.312L539.856 277.342L538.75 290.364L549.094 281.642C541.281 306.752 518.161 324.197 491.06 324.197C462.387 324.197 437.325 303.853 431.478 275.843C430.962 273.386 428.554 271.814 426.097 272.33C423.64 272.846 422.067 275.254 422.583 277.711C425.826 293.19 434.377 307.293 446.662 317.391C459.119 327.637 474.893 333.288 491.035 333.288C507.178 333.288 523.984 327.268 536.662 316.359C547.62 306.924 555.335 294.369 558.849 280.512L569.389 292.993L570.495 279.971L570.52 279.946Z" fill="#17A9E1"/>
<path d="M442.265 249.29L443.37 236.268L433.026 244.99C440.84 219.879 463.96 202.435 491.061 202.435C518.162 202.435 543.69 221.624 550.275 249.069C550.864 251.501 553.297 253 555.754 252.435C558.186 251.845 559.685 249.413 559.12 246.956C555.533 231.943 546.859 218.307 534.722 208.626C522.388 198.774 506.909 193.344 491.085 193.344C474.329 193.344 458.137 199.363 445.459 210.273C434.501 219.707 426.786 232.263 423.272 246.12L412.731 233.639L411.626 246.661L425.655 263.295L442.289 249.265L442.265 249.29Z" fill="#17A9E1"/>
<path d="M451.725 267.859V284.985C451.725 286.459 452.241 287.687 453.273 288.719C454.305 289.751 455.558 290.267 457.032 290.267C458.506 290.267 459.735 289.751 460.791 288.744C461.823 287.737 462.339 286.483 462.339 284.985V267.859H458.85V284.96C458.85 285.501 458.654 285.943 458.285 286.312C457.917 286.68 457.474 286.877 456.934 286.877C456.393 286.877 455.951 286.68 455.582 286.312C455.214 285.943 455.017 285.501 455.017 284.96V267.859H451.749H451.725Z" fill="#17A9E1"/>
<path d="M465.928 267.862V289.999H469.27V281.645H471.186C472.636 281.645 473.864 281.129 474.896 280.098C475.928 279.066 476.419 277.813 476.419 276.338V273.12C476.419 271.596 475.977 270.343 475.068 269.36C474.11 268.328 472.808 267.812 471.186 267.812H465.928V267.862ZM472.66 271.793C473.004 272.137 473.176 272.604 473.176 273.193V276.437C473.176 276.977 472.98 277.419 472.611 277.788C472.242 278.157 471.776 278.353 471.26 278.353H469.245V271.277H471.26C471.825 271.277 472.292 271.449 472.636 271.817L472.66 271.793Z" fill="#17A9E1"/>
<path d="M484.967 267.859H479.709V290.022H484.967C486.417 290.022 487.645 289.506 488.677 288.474C489.709 287.442 490.225 286.189 490.225 284.714V273.142C490.225 271.692 489.709 270.439 488.702 269.407C487.695 268.375 486.441 267.859 484.967 267.859ZM486.957 284.788C486.957 285.304 486.785 285.746 486.417 286.14C486.048 286.533 485.606 286.705 485.066 286.705H483.051V271.25H485.066C485.582 271.25 486.024 271.447 486.392 271.815C486.761 272.184 486.957 272.651 486.957 273.167V284.764V284.788Z" fill="#17A9E1"/>
<path d="M493.126 290.028H496.59L497.401 284.942H500.89L501.676 290.028H505.19L501.48 267.891H496.885L493.126 290.028ZM499.17 272.952L500.399 281.674H497.917L499.146 272.952H499.17Z" fill="#17A9E1"/>
<path d="M512.413 290.022V271.225H515.927V267.859H505.509V271.225H509.071V290.022H512.413Z" fill="#17A9E1"/>
<path d="M461.92 263.391H452.165V239.656H455.753V259.828H461.92V263.391Z" fill="#17A9E1"/>
<path d="M468.994 257.936L468.134 263.391H464.4L468.429 239.656H473.343L477.323 263.391H473.564L472.729 257.936H468.994ZM470.862 245.086L469.535 254.447H472.188L470.862 245.086Z" fill="#17A9E1"/>
<path d="M480.791 243.268H476.983V239.656H488.162V243.268H484.379V263.391H480.791V243.268Z" fill="#17A9E1"/>
<path d="M491.038 263.384V239.625H501.234V243.212H494.625V249.699H499.465V253.286H494.625V259.772H501.234V263.36H491.038V263.384Z" fill="#17A9E1"/>
<path d="M515.53 257.492C515.53 259.138 515.137 260.563 514.253 261.743C513.663 262.529 512.852 263.094 511.796 263.438C511.231 263.61 510.567 263.708 509.805 263.708C508.405 263.708 507.25 263.364 506.317 262.676C505.555 262.111 504.941 261.325 504.498 260.367C504.056 259.384 503.786 258.278 503.712 257.001L507.127 256.755C507.275 258.131 507.643 259.138 508.233 259.752C508.651 260.219 509.167 260.44 509.707 260.416C510.494 260.391 511.108 259.998 511.575 259.261C511.82 258.893 511.943 258.377 511.943 257.689C511.943 256.706 511.501 255.723 510.592 254.74C509.879 254.077 508.823 253.069 507.398 251.718C506.218 250.563 505.383 249.531 504.867 248.622C504.326 247.59 504.081 246.485 504.081 245.281C504.081 243.119 504.793 241.472 506.267 240.367C507.152 239.703 508.282 239.359 509.609 239.359C510.936 239.359 511.968 239.654 512.877 240.219C513.589 240.662 514.154 241.276 514.597 242.087C515.039 242.873 515.285 243.807 515.383 244.838L511.968 245.453C511.869 244.47 511.599 243.733 511.132 243.192C510.813 242.799 510.322 242.603 509.707 242.603C509.044 242.603 508.552 242.897 508.208 243.463C507.938 243.929 507.791 244.519 507.791 245.207C507.791 246.288 508.258 247.394 509.191 248.524C509.535 248.942 510.076 249.458 510.788 250.047C511.624 250.735 512.164 251.227 512.434 251.497C513.319 252.381 514.007 253.241 514.474 254.101C514.695 254.495 514.892 254.888 515.014 255.207C515.358 256.042 515.53 256.804 515.555 257.467L515.53 257.492Z" fill="#17A9E1"/>
<path d="M521.799 243.268H517.991V239.656H529.17V243.268H525.386V263.391H521.799V243.268Z" fill="#17A9E1"/>
<path d="M528.752 271.201V267.859H519.243V290.022H528.752V286.655H522.585V280.611H527.081V277.245H522.585V271.201H528.752Z" fill="#17A9E1"/>
<g opacity="0.95">
<path d="M1098.98 330.985V450.796C1098.98 457.738 1093.36 463.359 1086.41 463.359H876.855C869.914 463.359 864.293 457.738 864.293 450.796V330.985H1098.98Z" fill="white" stroke="#E7E7E7" stroke-width="2"/>
<path d="M1099.97 324.173V331.986H863.316V324.173C863.316 316.679 869.385 310.61 876.879 310.61H1086.44C1093.93 310.61 1100 316.679 1100 324.173H1099.97Z" fill="#17A9E1"/>
<path d="M890.688 322.407C890.688 324.373 889.091 325.97 887.125 325.97C885.16 325.97 883.563 324.373 883.563 322.407C883.563 320.442 885.16 318.845 887.125 318.845C889.091 318.845 890.688 320.442 890.688 322.407Z" fill="white"/>
<path d="M899.462 322.407C899.462 324.373 897.865 325.97 895.899 325.97C893.933 325.97 892.336 324.373 892.336 322.407C892.336 320.442 893.933 318.845 895.899 318.845C897.865 318.845 899.462 320.442 899.462 322.407Z" fill="white"/>
<path d="M908.23 322.407C908.23 324.373 906.633 325.97 904.667 325.97C902.702 325.97 901.104 324.373 901.104 322.407C901.104 320.442 902.702 318.845 904.667 318.845C906.633 318.845 908.23 320.442 908.23 322.407Z" fill="white"/>
</g>
<path d="M991.177 367.799H968.818C966.116 367.799 963.929 369.986 963.929 372.688C963.929 375.391 966.116 377.578 968.818 377.578H991.177C993.88 377.578 996.066 375.391 996.066 372.688C996.066 369.986 993.88 367.799 991.177 367.799Z" fill="#17A9E1"/>
<path d="M1074.23 367.799H1007C1004.3 367.799 1002.11 369.986 1002.11 372.688C1002.11 375.391 1004.3 377.578 1007 377.578H1074.23C1076.93 377.578 1079.12 375.391 1079.12 372.688C1079.12 369.986 1076.93 367.799 1074.23 367.799Z" fill="#17A9E1"/>
<path d="M1074.22 395.877H968.842C966.139 395.877 963.952 398.064 963.952 400.766C963.952 403.469 966.139 405.656 968.842 405.656H1074.22C1076.93 405.656 1079.11 403.469 1079.11 400.766C1079.11 398.064 1076.93 395.877 1074.22 395.877Z" fill="#17A9E1"/>
<path d="M991.177 419.893H968.818C966.116 419.893 963.929 422.079 963.929 424.782C963.929 427.485 966.116 429.671 968.818 429.671H991.177C993.88 429.671 996.066 427.485 996.066 424.782C996.066 422.079 993.88 419.893 991.177 419.893Z" fill="#17A9E1"/>
<path d="M952.379 401.477V391.527L944.591 390.814C943.878 387.35 942.502 384.131 940.635 381.281L945.647 375.261L938.62 368.234L932.6 373.246C929.75 371.379 926.532 370.003 923.067 369.291L922.355 361.502H912.404L911.691 369.291C908.227 370.003 905.033 371.379 902.158 373.246L896.138 368.234L889.111 375.261L894.124 381.281C892.256 384.131 890.88 387.35 890.168 390.814L882.379 391.527V401.477L890.168 402.19C890.88 405.654 892.256 408.873 894.124 411.723L889.111 417.743L896.138 424.77L902.158 419.758C902.158 419.758 902.305 419.856 902.379 419.905C905.18 421.699 908.325 423.025 911.691 423.713L911.814 431.551H922.944L923.067 423.713C924.615 423.394 926.114 422.927 927.563 422.362C928.522 421.993 929.431 421.551 930.34 421.084C931.126 420.691 931.863 420.224 932.6 419.758L938.62 424.77L945.647 417.743L940.635 411.723C942.502 408.873 943.878 405.654 944.591 402.19L952.379 401.477ZM917.342 414.057C907.662 414.057 899.824 406.219 899.824 396.514C899.824 386.809 907.662 378.996 917.342 378.996C927.023 378.996 934.861 386.834 934.861 396.514C934.861 406.195 927.023 414.057 917.342 414.057Z" fill="#17A9E1"/>
<g opacity="0.2">
<path d="M944.592 390.816C941.521 382.462 934.887 380.03 934.887 380.03L942.135 371.799L945.649 375.263L940.637 381.283C942.504 384.133 943.88 387.352 944.592 390.816Z" fill="#17A9E1"/>
<path d="M890.095 402.189C893.166 410.543 899.8 412.976 899.8 412.976L892.552 421.207L889.038 417.742L894.051 411.723C892.183 408.872 890.807 405.654 890.095 402.189Z" fill="#17A9E1"/>
</g>
<g opacity="0.2">
<path d="M911.664 369.262C903.31 372.333 900.902 378.967 900.902 378.967L892.671 371.719L896.135 368.205L902.155 373.217C905.005 371.35 908.224 369.974 911.688 369.262H911.664Z" fill="#17A9E1"/>
<path d="M942.055 421.297L938.591 424.811L932.571 419.798C931.859 420.265 931.097 420.707 930.336 421.125C929.549 421.543 928.738 421.936 927.903 422.255C926.355 422.894 924.734 423.385 923.038 423.754C924.734 423.14 926.159 422.378 927.387 421.543C928.419 420.855 929.328 420.093 930.065 419.356C932.842 416.653 933.8 414.049 933.8 414.049L942.031 421.297H942.055Z" fill="#17A9E1"/>
</g>
<g opacity="0.2">
<path d="M940.632 411.749C944.367 403.665 941.394 397.277 941.394 397.277L952.352 396.564L952.401 401.503L944.588 402.216C943.9 405.557 942.598 408.8 940.657 411.749H940.632Z" fill="#17A9E1"/>
<path d="M894.073 381.283C890.338 389.367 893.311 395.755 893.311 395.755L882.353 396.467L882.304 391.529L890.117 390.816C890.805 387.475 892.107 384.232 894.048 381.283H894.073Z" fill="#17A9E1"/>
</g>
<g opacity="0.2">
<path d="M916.875 431.584H911.765L911.642 423.746C908.3 423.058 905.057 421.755 902.109 419.814C902.182 419.864 902.281 419.888 902.354 419.913C910.315 423.475 916.58 420.576 916.58 420.576L916.875 431.584Z" fill="#17A9E1"/>
<path d="M932.603 373.224C924.519 369.49 918.131 372.462 918.131 372.462L917.418 361.504L922.357 361.455L923.07 369.268C926.411 369.956 929.654 371.259 932.603 373.2V373.224Z" fill="#17A9E1"/>
</g>
<path d="M917.345 376.986C906.558 376.986 897.812 385.733 897.812 396.52C897.812 407.306 906.558 416.053 917.345 416.053C928.131 416.053 936.878 407.306 936.878 396.52C936.878 385.733 928.131 376.986 917.345 376.986ZM917.345 414.063C907.664 414.063 899.826 406.225 899.826 396.52C899.826 386.814 907.664 379.001 917.345 379.001C927.025 379.001 934.863 386.839 934.863 396.52C934.863 406.2 927.025 414.063 917.345 414.063Z" fill="#17A9E1"/>
<path d="M917.565 403.603C917.565 404.512 917.245 405.298 916.582 405.937C915.943 406.576 915.157 406.895 914.248 406.895C913.339 406.895 912.553 406.576 911.914 405.937C911.275 405.298 910.956 404.512 910.956 403.603V396.06C910.956 395.151 911.275 394.365 911.938 393.726C912.577 393.087 913.363 392.768 914.273 392.768C915.182 392.768 915.968 393.087 916.607 393.75C917.245 394.389 917.565 395.175 917.565 396.084V403.628V403.603ZM915.403 396.011C915.403 395.691 915.28 395.397 915.059 395.151C914.813 394.905 914.543 394.807 914.199 394.807C913.855 394.807 913.585 394.93 913.363 395.151C913.142 395.397 913.019 395.667 913.019 396.011V403.578C913.019 403.898 913.142 404.193 913.363 404.438C913.585 404.684 913.879 404.782 914.199 404.782C914.518 404.782 914.813 404.659 915.059 404.438C915.304 404.193 915.403 403.922 915.403 403.578V396.011Z" fill="#17A9E1"/>
<path d="M921.029 406.772V396.109H919.26V394.659C919.752 394.61 920.243 394.414 920.685 394.094C921.128 393.775 921.472 393.382 921.668 392.939H923.118V406.772H921.029Z" fill="#17A9E1"/>
<path d="M910.071 390.554L909.359 386.549H909.997L910.489 389.669L911.005 386.549H911.644L910.906 390.554H910.071Z" fill="#17A9E1"/>
<path d="M912.137 390.554V386.549H913.857V387.163H912.751V388.269H913.562V388.883H912.751V389.989H913.857V390.603H912.137V390.554Z" fill="#17A9E1"/>
<path d="M915.232 386.518C915.576 386.518 915.822 386.616 915.969 386.788C916.116 386.96 916.166 387.181 916.166 387.476V388.066C916.166 388.36 916.067 388.581 915.846 388.778L916.288 390.523H915.625L915.257 389.024H914.863V390.523H914.249V386.518H915.207H915.232ZM915.6 387.476C915.6 387.255 915.478 387.132 915.257 387.132H914.888V388.409H915.257C915.257 388.409 915.429 388.385 915.502 388.311C915.576 388.237 915.6 388.164 915.6 388.066V387.476Z" fill="#17A9E1"/>
<path d="M918.623 389.549C918.623 389.819 918.55 390.065 918.402 390.261C918.304 390.384 918.156 390.482 917.984 390.556C917.886 390.581 917.788 390.605 917.64 390.605C917.395 390.605 917.198 390.556 917.051 390.433C916.928 390.335 916.805 390.212 916.731 390.04C916.658 389.868 916.609 389.696 916.609 389.475L917.174 389.426C917.198 389.671 917.272 389.819 917.37 389.942C917.444 390.015 917.518 390.065 917.616 390.065C917.739 390.065 917.862 389.991 917.935 389.868C917.984 389.794 917.984 389.721 917.984 389.598C917.984 389.426 917.911 389.254 917.763 389.106C917.64 388.984 917.468 388.836 917.223 388.59C917.026 388.394 916.879 388.222 916.805 388.074C916.707 387.902 916.682 387.706 916.682 387.509C916.682 387.141 916.805 386.871 917.051 386.674C917.198 386.551 917.395 386.502 917.616 386.502C917.837 386.502 918.009 386.551 918.181 386.649C918.304 386.723 918.402 386.821 918.476 386.969C918.55 387.092 918.599 387.264 918.599 387.436L918.009 387.534C918.009 387.362 917.935 387.239 917.862 387.141C917.812 387.067 917.739 387.042 917.616 387.042C917.493 387.042 917.419 387.092 917.37 387.19C917.321 387.264 917.296 387.362 917.296 387.485C917.296 387.657 917.37 387.853 917.542 388.05C917.591 388.124 917.69 388.197 917.812 388.296C917.96 388.418 918.034 388.492 918.083 388.541C918.23 388.689 918.353 388.836 918.427 388.984C918.476 389.057 918.5 389.106 918.525 389.18C918.574 389.328 918.623 389.45 918.623 389.573V389.549Z" fill="#17A9E1"/>
<path d="M919.728 390.554H919.114V386.549H919.728V390.554Z" fill="#17A9E1"/>
<path d="M921.228 386.471C921.499 386.471 921.72 386.569 921.916 386.741C922.113 386.938 922.187 387.159 922.187 387.429V389.616C922.187 389.886 922.088 390.107 921.916 390.304C921.72 390.5 921.499 390.574 921.228 390.574C920.958 390.574 920.737 390.476 920.54 390.304C920.344 390.107 920.27 389.886 920.27 389.616V387.429C920.27 387.159 920.368 386.938 920.54 386.741C920.737 386.544 920.958 386.471 921.204 386.471H921.228ZM921.548 387.429C921.548 387.429 921.523 387.257 921.449 387.183C921.376 387.11 921.302 387.085 921.204 387.085C921.105 387.085 921.032 387.11 920.958 387.183C920.884 387.257 920.86 387.331 920.86 387.429V389.616C920.86 389.616 920.884 389.788 920.958 389.861C921.032 389.935 921.105 389.96 921.204 389.96C921.302 389.96 921.376 389.935 921.449 389.861C921.523 389.788 921.548 389.714 921.548 389.616V387.429Z" fill="#17A9E1"/>
<path d="M923.389 386.518L924.2 389.22V386.518H924.814V390.523H924.175L923.34 387.943V390.523H922.726V386.518H923.414H923.389Z" fill="#17A9E1"/>
<g opacity="0.95">
<path d="M335.659 393.797V513.608C335.659 520.549 330.038 526.171 323.096 526.171H113.563C106.621 526.171 101 520.549 101 513.608V393.797H335.659Z" fill="white" stroke="#E7E7E7" stroke-width="2"/>
<path d="M336.659 386.985V394.798H100V386.985C100 379.491 106.069 373.422 113.563 373.422H323.121C330.615 373.422 336.683 379.491 336.683 386.985H336.659Z" fill="#17A9E1"/>
<path d="M127.396 385.219C127.396 387.185 125.799 388.782 123.834 388.782C121.868 388.782 120.271 387.185 120.271 385.219C120.271 383.253 121.868 381.656 123.834 381.656C125.799 381.656 127.396 383.253 127.396 385.219Z" fill="white"/>
<path d="M136.141 385.219C136.141 387.185 134.544 388.782 132.578 388.782C130.613 388.782 129.016 387.185 129.016 385.219C129.016 383.253 130.613 381.656 132.578 381.656C134.544 381.656 136.141 383.253 136.141 385.219Z" fill="white"/>
<path d="M144.914 385.219C144.914 387.185 143.317 388.782 141.352 388.782C139.386 388.782 137.789 387.185 137.789 385.219C137.789 383.253 139.386 381.656 141.352 381.656C143.317 381.656 144.914 383.253 144.914 385.219Z" fill="white"/>
</g>
<path d="M227.862 430.61H205.503C202.8 430.61 200.614 432.797 200.614 435.5C200.614 438.203 202.8 440.389 205.503 440.389H227.862C230.564 440.389 232.751 438.203 232.751 435.5C232.751 432.797 230.564 430.61 227.862 430.61Z" fill="#17A9E1"/>
<path d="M310.912 430.61H243.688C240.985 430.61 238.798 432.797 238.798 435.5C238.798 438.203 240.985 440.389 243.688 440.389H310.912C313.614 440.389 315.801 438.203 315.801 435.5C315.801 432.797 313.614 430.61 310.912 430.61Z" fill="#17A9E1"/>
<path d="M310.907 458.688H205.526C202.823 458.688 200.636 460.875 200.636 463.578C200.636 466.281 202.823 468.467 205.526 468.467H310.907C313.609 468.467 315.796 466.281 315.796 463.578C315.796 460.875 313.609 458.688 310.907 458.688Z" fill="#17A9E1"/>
<path d="M227.861 482.704H205.502C202.8 482.704 200.613 484.891 200.613 487.594C200.613 490.296 202.8 492.483 205.502 492.483H227.861C230.564 492.483 232.75 490.296 232.75 487.594C232.75 484.891 230.564 482.704 227.861 482.704Z" fill="#17A9E1"/>
<path d="M189.068 464.288V454.337L181.279 453.625C180.567 450.16 179.191 446.942 177.323 444.091L182.336 438.072L175.309 431.045L169.289 436.057C166.439 434.19 163.22 432.814 159.756 432.101L159.043 424.312H149.092L148.38 432.101C144.915 432.814 141.721 434.19 138.847 436.057L132.827 431.045L125.8 438.072L130.812 444.091C128.945 446.942 127.569 450.16 126.856 453.625L119.068 454.337V464.288L126.856 465.001C127.569 468.465 128.945 471.684 130.812 474.534L125.8 480.553L132.827 487.58L138.847 482.568C138.847 482.568 138.994 482.666 139.068 482.716C141.869 484.509 145.014 485.836 148.38 486.524L148.503 494.362H159.633L159.756 486.524C161.304 486.204 162.802 485.738 164.252 485.173C165.21 484.804 166.119 484.362 167.028 483.895C167.815 483.502 168.552 483.035 169.289 482.568L175.309 487.58L182.336 480.553L177.323 474.534C179.191 471.684 180.567 468.465 181.279 465.001L189.068 464.288ZM154.031 476.868C144.35 476.868 136.513 469.03 136.513 459.325C136.513 449.62 144.35 441.806 154.031 441.806C163.712 441.806 171.549 449.644 171.549 459.325C171.549 469.005 163.712 476.868 154.031 476.868Z" fill="#17A9E1"/>
<g opacity="0.2">
<path d="M181.281 453.651C178.209 445.297 171.576 442.865 171.576 442.865L178.824 434.609L182.337 438.074L177.325 444.093C179.192 446.944 180.568 450.162 181.281 453.627V453.651Z" fill="#17A9E1"/>
<path d="M126.807 465.031C129.878 473.385 136.512 475.818 136.512 475.818L129.264 484.048L125.75 480.584L130.762 474.564C128.895 471.714 127.519 468.496 126.807 465.031Z" fill="#17A9E1"/>
</g>
<g opacity="0.2">
<path d="M148.352 432.072C139.998 435.143 137.59 441.777 137.59 441.777L129.359 434.529L132.824 431.016L138.843 436.028C141.694 434.161 144.912 432.785 148.377 432.072H148.352Z" fill="#17A9E1"/>
<path d="M178.744 484.107L175.279 487.621L169.26 482.609C168.547 483.076 167.786 483.518 167.024 483.936C166.238 484.353 165.427 484.746 164.591 485.066C163.044 485.705 161.422 486.196 159.727 486.565C161.422 485.95 162.847 485.189 164.075 484.353C165.107 483.665 166.016 482.904 166.754 482.167C169.53 479.464 170.488 476.859 170.488 476.859L178.719 484.107H178.744Z" fill="#17A9E1"/>
</g>
<g opacity="0.2">
<path d="M177.32 474.559C181.055 466.476 178.082 460.087 178.082 460.087L189.04 459.375L189.09 464.314L181.276 465.026C180.588 468.368 179.286 471.611 177.345 474.559H177.32Z" fill="#17A9E1"/>
<path d="M130.761 444.094C127.027 452.177 130 458.565 130 458.565L119.041 459.278L118.992 454.339L126.805 453.627C127.493 450.285 128.796 447.042 130.737 444.094H130.761Z" fill="#17A9E1"/>
</g>
<g opacity="0.2">
<path d="M153.563 494.394H148.453L148.33 486.556C144.989 485.868 141.745 484.566 138.797 482.625C138.871 482.674 138.969 482.699 139.043 482.723C147.003 486.286 153.269 483.387 153.269 483.387L153.563 494.394Z" fill="#17A9E1"/>
<path d="M169.291 436.035C161.208 432.3 154.819 435.273 154.819 435.273L154.107 424.315L159.045 424.266L159.758 432.079C163.099 432.767 166.343 434.069 169.291 436.01V436.035Z" fill="#17A9E1"/>
</g>
<path d="M154.031 439.797C143.244 439.797 134.497 448.544 134.497 459.33C134.497 470.116 143.244 478.863 154.031 478.863C164.817 478.863 173.564 470.116 173.564 459.33C173.564 448.544 164.817 439.797 154.031 439.797ZM154.031 476.873C144.35 476.873 136.512 469.035 136.512 459.33C136.512 449.625 144.35 441.812 154.031 441.812C163.711 441.812 171.549 449.649 171.549 459.33C171.549 469.011 163.711 476.873 154.031 476.873Z" fill="#17A9E1"/>
<path d="M152.359 466.252C152.359 467.185 152.04 467.972 151.377 468.635C150.713 469.274 149.927 469.618 149.018 469.618C148.109 469.618 147.298 469.298 146.635 468.635C145.971 467.972 145.652 467.185 145.652 466.252V458.586C145.652 457.652 145.971 456.866 146.635 456.203C147.298 455.539 148.084 455.22 149.018 455.22C149.952 455.22 150.738 455.539 151.401 456.203C152.04 456.866 152.384 457.652 152.384 458.586V466.252H152.359ZM150.148 458.537C150.148 458.193 150.025 457.922 149.78 457.677C149.534 457.431 149.264 457.308 148.92 457.308C148.576 457.308 148.305 457.431 148.06 457.677C147.814 457.922 147.716 458.193 147.716 458.537V466.227C147.716 466.571 147.838 466.841 148.06 467.087C148.305 467.333 148.576 467.456 148.92 467.456C149.264 467.456 149.534 467.333 149.78 467.087C150.025 466.841 150.148 466.571 150.148 466.227V458.537Z" fill="#17A9E1"/>
<path d="M154.079 459.372C154.079 458.045 154.447 457.013 155.16 456.325C155.774 455.711 156.585 455.392 157.617 455.392C158.551 455.392 159.337 455.736 160 456.424C160.664 457.111 160.983 457.922 160.983 458.856C160.983 459.79 160.762 460.748 160.344 461.632C160.123 462.124 159.583 462.984 158.723 464.188C158.501 464.507 158.157 465.023 157.691 465.736L157.322 466.301C157.076 466.669 156.88 466.964 156.757 467.185C156.708 467.308 156.659 467.357 156.659 467.382H160.811V469.446H154.079V467.505C154.079 467.505 154.226 467.21 154.546 466.718C154.693 466.497 154.841 466.252 155.037 466.006L155.578 465.22C155.897 464.777 156.413 464.065 157.101 463.107C157.764 462.197 158.231 461.362 158.551 460.625C158.821 460.011 158.944 459.446 158.944 458.93C158.944 458.512 158.821 458.143 158.575 457.849C158.305 457.529 157.986 457.382 157.568 457.382C156.978 457.382 156.56 457.726 156.315 458.414C156.241 458.635 156.192 458.905 156.192 459.225V459.765H154.103V459.396L154.079 459.372Z" fill="#17A9E1"/>
<path d="M146.167 453.282L145.43 449.203H146.069L146.584 452.373L147.1 449.203H147.739L147.002 453.282H146.167Z" fill="#17A9E1"/>
<path d="M148.281 453.282V449.203H150.026V449.817H148.896V450.923H149.731V451.537H148.896V452.643H150.026V453.257H148.281V453.282Z" fill="#17A9E1"/>
<path d="M151.426 449.234C151.77 449.234 152.016 449.333 152.188 449.529C152.335 449.701 152.409 449.922 152.409 450.217V450.807C152.409 451.102 152.286 451.347 152.089 451.544L152.556 453.313H151.893L151.524 451.79H151.106V453.313H150.492V449.234H151.45H151.426ZM151.794 450.217C151.794 449.971 151.672 449.873 151.45 449.873H151.082V451.175H151.45C151.45 451.175 151.622 451.151 151.696 451.077C151.77 451.003 151.794 450.93 151.794 450.831V450.242V450.217Z" fill="#17A9E1"/>
<path d="M154.866 452.274C154.866 452.569 154.793 452.79 154.645 453.012C154.547 453.159 154.399 453.233 154.227 453.306C154.129 453.331 154.006 453.355 153.884 453.355C153.638 453.355 153.441 453.306 153.294 453.183C153.171 453.085 153.048 452.962 152.974 452.79C152.901 452.618 152.852 452.422 152.852 452.225L153.441 452.176C153.466 452.422 153.54 452.594 153.638 452.692C153.712 452.766 153.785 452.815 153.884 452.815C154.006 452.815 154.129 452.741 154.203 452.618C154.252 452.545 154.277 452.471 154.277 452.348C154.277 452.176 154.203 452.004 154.056 451.832C153.933 451.709 153.761 451.537 153.515 451.316C153.318 451.12 153.171 450.948 153.073 450.776C152.974 450.604 152.925 450.407 152.925 450.211C152.925 449.842 153.048 449.547 153.294 449.375C153.441 449.252 153.638 449.203 153.859 449.203C154.08 449.203 154.277 449.252 154.424 449.351C154.547 449.424 154.645 449.523 154.719 449.67C154.793 449.817 154.842 449.965 154.866 450.137L154.277 450.235C154.277 450.063 154.203 449.94 154.129 449.842C154.08 449.768 153.982 449.744 153.884 449.744C153.785 449.744 153.687 449.793 153.638 449.891C153.589 449.965 153.564 450.063 153.564 450.186C153.564 450.382 153.638 450.554 153.81 450.751C153.859 450.825 153.957 450.923 154.08 451.021C154.227 451.144 154.326 451.218 154.35 451.267C154.498 451.414 154.621 451.562 154.694 451.709C154.743 451.783 154.768 451.832 154.793 451.906C154.842 452.053 154.891 452.176 154.891 452.299L154.866 452.274Z" fill="#17A9E1"/>
<path d="M155.995 453.282H155.38V449.203H155.995V453.282Z" fill="#17A9E1"/>
<path d="M157.496 449.156C157.766 449.156 157.987 449.255 158.184 449.451C158.38 449.648 158.479 449.869 158.479 450.139V452.375C158.479 452.645 158.38 452.866 158.184 453.063C157.987 453.259 157.766 453.358 157.496 453.358C157.226 453.358 157.004 453.259 156.808 453.063C156.611 452.866 156.513 452.645 156.513 452.375V450.139C156.513 449.869 156.611 449.648 156.808 449.451C157.004 449.255 157.226 449.156 157.496 449.156ZM157.84 450.114C157.84 450.114 157.815 449.943 157.742 449.869C157.668 449.795 157.594 449.771 157.496 449.771C157.398 449.771 157.324 449.795 157.25 449.869C157.176 449.943 157.152 450.016 157.152 450.114V452.35C157.152 452.35 157.176 452.522 157.25 452.596C157.324 452.67 157.398 452.694 157.496 452.694C157.594 452.694 157.668 452.67 157.742 452.596C157.815 452.522 157.84 452.449 157.84 452.35V450.114Z" fill="#17A9E1"/>
<path d="M159.704 449.203L160.514 451.955V449.203H161.129V453.282H160.465L159.63 450.677V453.282H159.016V449.203H159.704Z" fill="#17A9E1"/>
<path d="M896.534 167.841L896.583 168.062H721.963C694.248 168.062 671.791 145.605 671.791 117.89C671.791 90.1746 694.248 67.693 721.963 67.693C722.111 67.693 722.283 67.693 722.43 67.693C727.836 42.435 744.863 21.5258 767.639 10.7887C778.229 5.77641 790.072 3 802.553 3C847.811 3 884.519 39.7077 884.519 84.9657C884.519 86.0714 884.47 87.1525 884.445 88.2335C887.05 87.7176 889.728 87.4473 892.48 87.4473C914.715 87.4473 932.775 105.506 932.775 127.742C932.775 148.651 916.878 165.801 896.534 167.841Z" fill="#17A9E1"/>
<path d="M895.403 135.499C895.403 148.865 888.868 160.732 878.843 168.054H721.963C694.248 168.054 671.791 145.597 671.791 117.882C671.791 90.1671 694.248 67.6855 721.963 67.6855C722.111 67.6855 722.283 67.6855 722.43 67.6855C727.836 42.4275 744.863 21.5184 767.639 10.7812C811.742 12.0835 847.123 48.2752 847.123 92.6979C847.123 93.8035 847.074 94.8846 847.05 95.9902C849.629 95.4497 852.332 95.1794 855.084 95.1794C877.32 95.1794 895.379 113.238 895.379 135.474L895.403 135.499Z" fill="#17A9E1"/>
<path d="M818.942 64.9844H784.471V117.712H818.942V64.9844Z" fill="white"/>
<path d="M801.693 146.306L832.775 106.625H770.588L801.693 146.306Z" fill="white"/>
<defs>
<filter id="filter0_d_229_9777" x="341.157" y="75.5937" width="504.02" height="354.561" filterUnits="userSpaceOnUse" color-interpolation-filters="sRGB">
<feFlood flood-opacity="0" result="BackgroundImageFix"/>
<feColorMatrix in="SourceAlpha" type="matrix" values="0 0 0 0 0 0 0 0 0 0 0 0 0 0 0 0 0 0 127 0" result="hardAlpha"/>
<feOffset dx="4.00001" dy="8.00001"/>
<feGaussianBlur stdDeviation="12"/>
<feColorMatrix type="matrix" values="0 0 0 0 0.109804 0 0 0 0 0.317647 0 0 0 0 0.458824 0 0 0 0.25 0"/>
<feBlend mode="normal" in2="BackgroundImageFix" result="effect1_dropShadow_229_9777"/>
<feBlend mode="normal" in="SourceGraphic" in2="effect1_dropShadow_229_9777" result="shape"/>
</filter>
<linearGradient id="paint0_linear_229_9777" x1="441.288" y1="-37.4642" x2="998.436" y2="130.513" gradientUnits="userSpaceOnUse">
<stop stop-color="#D8E9FF"/>
<stop offset="1" stop-color="#A7C8FF"/>
</linearGradient>
</defs>
</svg>
