<?xml version="1.0" encoding="UTF-8"?><svg id="Layer_1" xmlns="http://www.w3.org/2000/svg" viewBox="0 0 528 492"><defs><style>.cls-1{stroke:#e4e4e4;stroke-width:1.5px;}.cls-1,.cls-2,.cls-3{fill:#fff;}.cls-4{stroke:#ffb852;stroke-width:1.6px;}.cls-4,.cls-5,.cls-6,.cls-7,.cls-8{fill:none;stroke-miterlimit:10;}.cls-4,.cls-6,.cls-7,.cls-8{stroke-linecap:round;}.cls-5{stroke:#274d79;}.cls-5,.cls-6,.cls-7{stroke-width:.8px;}.cls-9{fill:#f89939;}.cls-10{fill:#03aa99;}.cls-11{fill:#001c45;}.cls-12{fill:#fffff8;}.cls-13{fill:#ff9a8d;}.cls-14{fill:#fafafa;}.cls-15{fill:#ffb852;}.cls-16{fill:#e5f7ff;}.cls-17{fill:#ba5964;}.cls-18{fill:#8fc9c6;}.cls-19{fill:#aaeeed;}.cls-20{fill:#1e4174;}.cls-21{fill:#228c7e;}.cls-22{fill:#3ed9c7;}.cls-23{fill:#1bb9f5;}.cls-24{fill:#17a9e1;}.cls-25{fill:#893a47;}.cls-26{fill:#85b8ed;}.cls-27{fill:#4e7eac;}.cls-3{isolation:isolate;opacity:.3;}.cls-6{stroke:#aaeeed;}.cls-7{stroke:#8fc9c6;}.cls-8{stroke:#001c45;stroke-width:.9px;}</style></defs><rect class="cls-2" width="528" height="492"/><g><path id="Path_56" d="m424.6,42.2h-170c-8.5,0-15.5,6.9-15.5,15.5v357.2c0,8.5,6.9,15.5,15.5,15.5h170c8.5,0,15.5-6.9,15.5-15.5V57.7c0-8.5-6.9-15.5-15.5-15.5Zm4.4,352c0,4.4-3.6,8-8,8h-162.7c-4.4,0-8-3.6-8-8V78.4c0-4.4,3.6-8,8-8h162.7c4.4,0,8,3.6,8,8v315.8Z"/><path id="Path_57" class="cls-3" d="m258.3,70.4h162.7c4.4,0,8,3.6,8,8v315.8c0,4.4-3.6,8-8,8h-162.7c-4.4,0-8-3.6-8-8V78.4c0-4.4,3.6-8,8-8Z"/><path id="Path_58" class="cls-2" d="m330.6,61.5c2.9,0,5.2-2.3,5.2-5.2,0-2.9-2.3-5.2-5.2-5.2-2.9,0-5.2,2.3-5.2,5.2h0c0,2.9,2.3,5.2,5.2,5.2Z"/><path id="Path_59" class="cls-2" d="m371.1,56.3c0-1.7-1.4-3.1-3.1-3.1h-20.6c-1.7,0-3.1,1.4-3.1,3.1,0,1.7,1.4,3.1,3.1,3.1h20.6c1.7,0,3.1-1.4,3.1-3.1Z"/><g id="Group_12"><path id="Path_60" class="cls-14" d="m508,202.7h-196.9c-3.2,0-5.7,2.6-5.7,5.7v65.4c0,3.2,2.6,5.7,5.7,5.7h196.9c3.2,0,5.7-2.6,5.7-5.7v-65.4c0-3.2-2.6-5.7-5.7-5.7Z"/></g><g id="Group_13"><path id="Path_61" class="cls-14" d="m508,105.2h-196.9c-3.2,0-5.7,2.6-5.7,5.7v65.4c0,3.2,2.6,5.7,5.7,5.7h196.9c3.2,0,5.7-2.6,5.7-5.7v-65.4c0-3.2-2.6-5.7-5.7-5.7Z"/></g><g id="Group_14"><path id="Path_62" class="cls-14" d="m508,300.2h-196.9c-3.2,0-5.7,2.6-5.7,5.7v65.4c0,3.2,2.6,5.7,5.7,5.7h196.9c3.2,0,5.7-2.6,5.7-5.7v-65.4c0-3.2-2.6-5.7-5.7-5.7Z"/></g><g id="Group_15"><path id="Path_63" class="cls-2" d="m504.7,100.4h-196.9c-3.2,0-5.7,2.6-5.7,5.7v65.4c0,3.2,2.6,5.7,5.7,5.7h196.9c3.2,0,5.7-2.6,5.7-5.7v-65.4c0-3.2-2.6-5.7-5.7-5.7Z"/></g><path id="Path_64" class="cls-12" d="m363,159.1c11.2-11.2,11.2-29.3,0-40.5-11.2-11.2-29.3-11.2-40.5,0-11.2,11.2-11.2,29.3,0,40.5,0,0,0,0,0,0,11.2,11.2,29.3,11.2,40.5,0Z"/><path id="Path_65" class="cls-24" d="m442.5,118.4h-58.3c-1.6,0-2.8,1.3-2.8,2.8h0v6.6c0,1.6,1.3,2.8,2.8,2.8h58.3c1.6,0,2.8-1.3,2.8-2.8h0v-6.6c0-1.6-1.3-2.8-2.8-2.8h0Z"/><path id="Path_66" class="cls-23" d="m492,141.1h-109.8c-.5,0-.9.4-.9.9h0v.6c0,.5.4.9.9.9h109.8c.5,0,.9-.4.9-.9v-.6c0-.5-.4-.9-.9-.9h0Z"/><path id="Path_67" class="cls-23" d="m492,151.4h-109.8c-.5,0-.9.4-.9.9h0v.6c0,.5.4.9.9.9h109.8c.5,0,.9-.4.9-.9v-.6c0-.5-.4-.9-.9-.9h0Z"/><path id="Path_68" class="cls-23" d="m492,161.7h-109.8c-.5,0-.9.4-.9.9h0v.6c0,.5.4.9.9.9h109.8c.5,0,.9-.4.9-.9h0v-.6c0-.5-.4-.9-.9-.9Z"/><g id="Group_16"><path id="Path_69" class="cls-2" d="m384.4,197.9h-196.9c-3.2,0-5.7,2.6-5.7,5.7h0v65.4c0,3.2,2.6,5.7,5.7,5.7h196.9c3.2,0,5.7-2.6,5.7-5.7v-65.4c0-3.2-2.6-5.7-5.7-5.7Z"/></g><path id="Path_70" class="cls-12" d="m222.4,265c15.8,0,28.7-12.8,28.7-28.7,0-15.8-12.8-28.7-28.7-28.7-15.8,0-28.7,12.8-28.7,28.7h0c0,15.8,12.8,28.7,28.7,28.7Z"/><path id="Path_71" class="cls-24" d="m322.2,215.9h-58.3c-1.6,0-2.8,1.3-2.8,2.8h0v6.6c0,1.6,1.3,2.8,2.8,2.8h58.3c1.6,0,2.8-1.3,2.8-2.8h0v-6.6c0-1.6-1.3-2.8-2.8-2.8Z"/><path id="Path_72" class="cls-23" d="m371.7,238.6h-109.8c-.5,0-.9.4-.9.9h0v.6c0,.5.4.9.9.9h109.8c.5,0,.9-.4.9-.9v-.6c0-.5-.4-.9-.9-.9h0Z"/><path id="Path_73" class="cls-23" d="m371.7,248.9h-109.8c-.5,0-.9.4-.9.9v.6c0,.5.4.9.9.9h109.8c.5,0,.9-.4.9-.9h0v-.6c0-.5-.4-.9-.9-.9Z"/><path id="Path_74" class="cls-23" d="m371.7,259.2h-109.8c-.5,0-.9.4-.9.9v.6c0,.5.4.9.9.9h109.8c.5,0,.9-.4.9-.9h0v-.6c0-.5-.4-.9-.9-.9Z"/><g id="Group_17"><path id="Path_75" class="cls-2" d="m504.7,295.4h-196.9c-3.2,0-5.7,2.6-5.7,5.7v65.4c0,3.2,2.6,5.7,5.7,5.7h196.9c3.2,0,5.7-2.6,5.7-5.7v-65.4c0-3.2-2.6-5.7-5.7-5.7Z"/></g><path id="Path_76" class="cls-12" d="m370.6,340.4c3.7-15.4-5.9-30.9-21.3-34.5-15.4-3.7-30.9,5.9-34.5,21.3-3.7,15.4,5.9,30.9,21.3,34.5,0,0,0,0,0,0,15.4,3.7,30.9-5.9,34.5-21.3Z"/><path id="Path_77" class="cls-24" d="m442.5,313.5h-58.3c-1.6,0-2.8,1.3-2.8,2.8h0v6.6c0,1.6,1.3,2.8,2.8,2.8h58.3c1.6,0,2.8-1.3,2.8-2.8h0v-6.6c0-1.6-1.3-2.8-2.8-2.8h0Z"/><path id="Path_78" class="cls-23" d="m492,336.1h-109.8c-.5,0-.9.4-.9.9h0v.6c0,.5.4.9.9.9h109.8c.5,0,.9-.4.9-.9h0v-.6c0-.5-.4-.9-.9-.9Z"/><path id="Path_79" class="cls-23" d="m492,346.4h-109.8c-.5,0-.9.4-.9.9h0v.6c0,.5.4.9.9.9h109.8c.5,0,.9-.4.9-.9h0v-.6c0-.5-.4-.9-.9-.9Z"/><path id="Path_80" class="cls-23" d="m492,356.7h-109.8c-.5,0-.9.4-.9.9h0v.6c0,.5.4.9.9.9h109.8c.5,0,.9-.4.9-.9h0v-.6c0-.5-.4-.9-.9-.9h0Z"/><path id="Path_81" class="cls-16" d="m370.6,340.4c3.7-15.4-5.9-30.9-21.3-34.5-15.4-3.7-30.9,5.9-34.5,21.3-3.7,15.4,5.9,30.9,21.3,34.5,0,0,0,0,0,0,15.4,3.7,30.9-5.9,34.5-21.3Z"/><g id="Group_18"><path id="Path_82" class="cls-11" d="m344.4,314.8c6.2,0,11.2,5,11.2,11.2h0v29.1h-22.4v-29c0-6.2,5-11.2,11.2-11.2h0,0Z"/><path id="Path_83" class="cls-11" d="m339.6,356h-9.8v-27.4c0-4.8,3.9-8.8,8.8-8.8h1v36.2h0Z"/><path id="Path_84" class="cls-13" d="m332.7,332.5s-2-.9-3.1.4c-1.2,1.3-.6,4.3,1.4,5.1,1.9.8,2.8-.2,2.8-.2l-1.1-5.3h0Z"/><path id="Path_85" class="cls-17" d="m330.7,333.4c.6-.2,1.2,0,1.6.3.1.1-.1.4-.3.3-.8-.4-1.8-.5-2.3.5,0,0,0,0,0,0,.1-.5.5-.9,1-1.1h0Z"/><path id="Path_86" class="cls-17" d="m331,333.5c0,0,.3.2.3.3-.2,0-.4.2-.5.4-.2.3-.3.6-.3.9,0,.8.5,1.5,1.3,1.7,0,0,0,0,0,0-.7.1-1.5-.6-1.6-1.3-.3-.8,0-1.6.8-2h0Z"/><path id="Path_87" class="cls-13" d="m352.7,332.4s2-.9,3.1.5.6,4.3-1.4,5.1c-1.9.8-2.8-.2-2.8-.2l1.1-5.4h0Z"/><path id="Path_88" class="cls-17" d="m354.8,333.4c-.6-.2-1.2,0-1.6.3-.1.1.1.4.3.3.8-.4,1.8-.5,2.3.5,0,0,0,0,0,0-.1-.5-.5-.9-1-1.1h0Z"/><path id="Path_89" class="cls-17" d="m354.4,333.5c0,0-.3.2-.3.3.2,0,.4.2.5.4.2.3.3.6.3.9,0,.8-.5,1.5-1.3,1.7,0,0,0,0,0,0,.7.1,1.5-.6,1.6-1.3.3-.8,0-1.6-.8-2h0Z"/><path id="Path_90" class="cls-13" d="m322.8,362.5c0-4.4.7-7,3-7.8,1.1-.3,7.4-2.3,9.3-2.9,2-.6,2.5-1.8,2.5-2.8v-4.5h10.1v4.5c0,1,.5,2.2,2.5,2.8s8.3,2.6,9.3,2.9c2.3.7,3,3.4,3,7.8h-39.8Z"/><path id="Path_91" class="cls-17" d="m337.7,345.8s1,2.9,5,2.9,5-2.9,5-2.9v-1.3h-10.1v1.3Z"/><path id="Path_92" class="cls-13" d="m347.4,321.2c-2.9-1.8-6.5-1.8-9.4,0-3.3,2-5.4,5.6-5.3,9.4h0c0,1.1,0,2.2.2,3.3l.2,1.5c.1,1.2.4,2.4.7,3.5,1.5,4.5,5.5,7.5,9,7.5s7.5-3,9-7.5c.4-1.1.6-2.3.7-3.5l.2-1.5c.1-1.1.2-2.2.2-3.3,0-3.9-2-7.5-5.3-9.4Z"/><path id="Path_93" class="cls-11" d="m342.7,320.8c1.6,4.5,5.4,7.8,10.1,8.7,0,0,.7-4.6-2.7-7.4-2.1-1.7-4.7-2.6-7.4-2.6v1.3h0Z"/><path id="Path_94" class="cls-11" d="m342.7,320.8c-1.6,4.5-5.4,7.8-10.1,8.7,0,0-.7-4.6,2.7-7.4,2.1-1.7,4.7-2.6,7.4-2.6v1.3h0Z"/><path id="Path_95" class="cls-9" d="m359.6,354.7c-1.1-.3-7.4-2.3-9.3-2.9-.5-.1-.9-.3-1.3-.6,0,.2,0,.5,0,.7,0,1.8-2.9,3.2-6.4,3.2s-6.4-1.4-6.4-3.2c0-.2,0-.5,0-.7-.4.2-.8.4-1.2.5-2,.6-8.3,2.6-9.3,2.9-2.3.7-3,3.4-3,7.8h39.8c0-4.4-.7-7-3-7.8h0Z"/><path id="Path_96" class="cls-22" d="m327.9,354c-1,.3-1.8.6-2.1.7-2.3.7-3,3.4-3,7.8h5.2v-8.5h0Z"/><path id="Path_97" class="cls-22" d="m357.5,354c1,.3,1.8.6,2.1.7,2.3.7,3,3.4,3,7.8h-5.2v-8.5h0Z"/><path id="Path_98" class="cls-21" d="m342.7,355.8c4,0,7.1-1.7,7.1-3.9v-.3c-.6-.2-1-.5-1.4-1,0,.4,0,1,0,1.3,0,1.2-2.3,2.5-5.7,2.5s-5.7-1.3-5.7-2.5,0-.8,0-1.2c-.4.4-.9.7-1.4.9v.3c0,2.2,3.1,3.9,7.1,3.9h0Z"/><path id="Path_99" class="cls-8" d="m329.9,319.3s3.8,0,4.9,2.2"/><path id="Path_100" class="cls-8" d="m330.5,315.6s4.4,1.7,4.3,6.2"/></g><path id="Path_101" class="cls-16" d="m222.4,265c15.8,0,28.7-12.8,28.7-28.7,0-15.8-12.8-28.7-28.7-28.7-15.8,0-28.7,12.8-28.7,28.7h0c0,15.8,12.8,28.7,28.7,28.7Z"/><g id="Group_19"><path id="Path_102" class="cls-13" d="m212.4,234.7s-1.9-.7-3.1.6-.6,4.3,1.4,5.1c1.9.8,2.8-.2,2.8-.2l-1.1-5.5h0Z"/><path id="Path_103" class="cls-17" d="m210.4,235.9c.6-.2,1.2,0,1.6.3.1.1-.1.4-.3.3-.8-.4-1.8-.5-2.3.5,0,0,0,0,0,0,.1-.5.5-.9,1-1.1h0Z"/><path id="Path_104" class="cls-17" d="m210.8,236c0,0,.3.2.3.3-.2,0-.4.2-.5.4-.2.3-.3.6-.3.9,0,.8.5,1.5,1.3,1.7,0,0,0,0,0,0-.7.1-1.5-.6-1.6-1.3-.3-.8,0-1.6.8-2h0Z"/><path id="Path_105" class="cls-13" d="m232.4,234.7s1.9-.7,3.1.6c1.2,1.3.6,4.3-1.4,5.1-1.9.8-2.8-.2-2.8-.2l1.1-5.5h0Z"/><path id="Path_106" class="cls-17" d="m234.5,235.9c-.6-.2-1.2,0-1.6.3-.1.1.1.4.3.3.8-.4,1.8-.5,2.3.5,0,0,0,0,0,0-.1-.5-.5-.9-1-1.1h0Z"/><path id="Path_107" class="cls-17" d="m234.1,236c0,0-.3.2-.3.3.2,0,.4.2.5.4.2.3.3.6.3.9,0,.8-.5,1.5-1.3,1.7,0,0,0,0,0,0,.7.1,1.5-.6,1.6-1.3.3-.8,0-1.6-.8-2h0Z"/><path id="Path_108" class="cls-13" d="m198.8,265c0-4.4,2.1-7,4.4-7.8,1.1-.3,8.7-2.3,10.7-2.9s2.5-1.8,2.5-2.8v-5.4h11.9v5.4c0,1,.5,2.2,2.5,2.8,2,.6,9.7,2.6,10.7,2.9,2.3.7,4.4,3.4,4.4,7.8h-47.2,0Z"/><path id="Path_109" class="cls-17" d="m216.5,246v1.9s2.2,3.4,6,3.4,5.9-3.4,5.9-3.4v-1.9h-11.9Z"/><path id="Path_110" class="cls-22" d="m241.6,257.2c-1.1-.3-8.7-2.3-10.7-2.9-.2,0-.4-.1-.7-.2.2.5.3,1,.3,1.5,0,2.9-3.6,5.2-8.1,5.2s-8.1-2.3-8.1-5.2c0-.5.1-1,.3-1.5-.2,0-.4.2-.7.2-2,.6-9.7,2.6-10.7,2.9-2.3.7-4.4,3.4-4.4,7.8h47.2c0-4.4-2.1-7-4.4-7.8h0Z"/><path id="Path_111" class="cls-13" d="m227.2,223.7c-1.4-.8-3.1-1.3-4.7-1.3-1.7,0-3.3.4-4.8,1.2-3.3,2-5.3,5.6-5.3,9.5,0,1.1,0,2.2.2,3.3l.2,1.5c.2,2,.7,3.9,1.4,5.7,1.6,4.6,6.7,6.9,11.2,5.3,2.5-.9,4.4-2.8,5.3-5.3.7-1.8,1.2-3.8,1.4-5.7l.2-1.5c.1-1.1.2-2.2.2-3.3,0-3.9-2-7.5-5.3-9.4h0Z"/><path id="Path_112" class="cls-11" d="m212.4,235c.2,0,.4-.2.6-.3.2-.2.8-.8.8-2.8s.5-5.8,2.5-7.1c0,0,0-1-.4-1.2-.7-.3-2.4,0-3.6,1.2-2.5,2.4-1.5,9.8-1.5,9.8.6,0,1.1,0,1.6.4h0Z"/><path id="Path_113" class="cls-11" d="m232.8,234.9c-.3,0-.5-.1-.8-.3-.3-.2-.9-.8-.9-2.8s-.5-5.8-2.5-7.1c0,0,1.6-1.6,3.8,0,2.3,1.6,1.7,9.9,1.7,9.9-.5,0-.9,0-1.3.3Z"/><path id="Path_114" class="cls-11" d="m232.8,229v5.9c.4-.2.9-.3,1.3-.3,1.3-14.5-5.5-17.6-12.7-16.2-3.1.5-5.5,2.9-6,5.9l.8.5c.9,0,1.4.6,2.1,1.2.7.6,1.5,1.1,2.3,1.6,1.4.8,2.9,1.2,4.5,1.3.4,0,.8,0,1.1-.4.3-.4.3-1,0-1.4-.2-.6-.5-1.1-.9-1.6,1.1,1,2.4,1.7,3.9,1.8.9,0,1.5-.5,1.2-1.5,0,0,2.3,2.1,2.3,3.3Z"/><path id="Path_115" class="cls-11" d="m214.9,224.2s.2-4.8,6.5-6.6c5.3-1.6,10.9.6,12.6,2.2,2.2,2.2.4,4.3-1.9,3.9-1.1-.2-17.2.6-17.2.6Z"/><path id="Path_116" class="cls-8" d="m210.5,221.7s3.8,0,4.9,2.2"/><path id="Path_117" class="cls-8" d="m211.1,218.1s4.4,1.7,4.3,6.2"/></g><path id="Path_118" class="cls-16" d="m363,159.1c11.2-11.2,11.2-29.3,0-40.5-11.2-11.2-29.3-11.2-40.5,0-11.2,11.2-11.2,29.3,0,40.5,0,0,0,0,0,0,11.2,11.2,29.3,11.2,40.5,0Z"/><g id="Group_20"><path id="Path_119" class="cls-11" d="m354.1,137.1s3.3-15.6-11.3-15.6-11.7,15.6-11.7,15.6h23Z"/><path id="Path_120" class="cls-11" d="m335.1,121.9c-.3-2.8,2.2-5.3,5.5-5.7,3.4-.4,6.3,1.6,6.6,4.4.3,2.8-2.2,5.3-5.5,5.7-3.4.4-6.3-1.6-6.6-4.4Z"/><path id="Path_121" class="cls-17" d="m332.7,136.9s-1.9-.8-3.1.5-.6,4.3,1.4,5.1c1.9.8,2.8-.2,2.8-.2l-1.1-5.4h0Z"/><path id="Path_122" class="cls-25" d="m330.7,137.9c.6-.2,1.2,0,1.6.3.1.1-.1.4-.3.3-.8-.4-1.8-.5-2.3.5,0,0,0,0,0,0,.1-.5.5-.9,1-1.1h0Z"/><path id="Path_123" class="cls-25" d="m331,138c0,0,.3.2.3.3-.2,0-.4.2-.5.4-.2.3-.3.6-.3.9,0,.8.5,1.5,1.3,1.7,0,0,0,0,0,0-.7.1-1.5-.6-1.6-1.3-.3-.8,0-1.6.8-2h0Z"/><path id="Path_124" class="cls-17" d="m352.7,136.9s1.9-.8,3.1.5.6,4.3-1.4,5.1c-1.9.8-2.8-.2-2.8-.2l1.1-5.4Z"/><path id="Path_125" class="cls-25" d="m354.8,137.9c-.6-.2-1.2,0-1.6.3-.1.1.1.4.3.3.8-.4,1.8-.5,2.3.5,0,0,0,0,0,0-.1-.5-.5-.9-1-1.1h0Z"/><path id="Path_126" class="cls-25" d="m354.4,138c0,0-.3.2-.3.3.2,0,.4.2.5.4.2.3.3.6.3.9,0,.8-.5,1.5-1.3,1.7,0,0,0,0,0,0,.7.1,1.5-.6,1.6-1.3.3-.8,0-1.6-.8-2h0Z"/><path id="Path_127" class="cls-22" d="m353.6,157.8l-5-4.1h-11.8l-4.9,4.1h21.7Z"/><path id="Path_128" class="cls-21" d="m336.8,153.7l-.3,2.5h12.6l-.4-2.5h-11.8Z"/><path id="Path_129" class="cls-17" d="m322.8,167.4c0-4.4.7-7,3-7.8,1.1-.3,7.4-2.3,9.3-2.9,2-.6,2.5-1.8,2.5-2.8v-4.5h10.1v4.5c0,1,.5,2.2,2.5,2.8,2,.6,8.3,2.6,9.3,2.9,2.3.7,3,3.4,3,7.8h-39.8Z"/><path id="Path_130" class="cls-25" d="m337.7,150.8s1,2.9,5,2.9,5-2.9,5-2.9v-1.3h-10.1v1.3Z"/><path id="Path_131" class="cls-9" d="m337.9,162.3c1.5.8,3.1,1.2,4.8,1.1,1.7,0,3.3-.4,4.8-1.1l-1.4,5.2h-6.9l-1.4-5.2Z"/><path id="Path_132" class="cls-21" d="m336.3,156.9c0-.2,0-.5,0-.7-.4.2-.8.4-1.2.5-2,.6-8.3,2.6-9.3,2.9-2.3.7-3,3.4-3,7.8h16.4l-2.1-8.2c-1.3-.6-.8-1.5-.8-2.4h0Z"/><path id="Path_133" class="cls-21" d="m359.6,159.7c-1.1-.3-7.4-2.3-9.3-2.9-.5-.1-.9-.3-1.3-.6,0,.2,0,.5,0,.7,0,1,.5,1.8-.8,2.4l-2.1,8.2h16.5c0-4.4-.7-7-3-7.8h0Z"/><path id="Path_134" class="cls-22" d="m349,156.2l4.6,1.6-1.7,2.2-3,.8,2.3,1.8-5.1,4.9,2.8-11.3Z"/><path id="Path_135" class="cls-22" d="m336.4,156.2l-4.6,1.6,1.7,2.2,3,.8-2.3,1.4,5.1,5.2-2.8-11.3Z"/><path id="Path_136" class="cls-17" d="m347.4,126.2c-2.9-1.8-6.5-1.8-9.4,0-3.3,2-5.4,5.6-5.3,9.4h0c0,1.1,0,2.2.2,3.3l.2,1.5c.1,1.2.4,2.4.7,3.5,1.5,4.5,5.5,7.9,9,7.9s7.5-3.4,9-7.9c.4-1.1.6-2.3.7-3.5l.2-1.5c.1-1.1.2-2.2.2-3.3,0-3.9-2-7.5-5.3-9.4Z"/><path id="Path_137" class="cls-11" d="m332.5,133h6.7c.2-1.9.7-3.8,1.6-5.6v5.6h5v-5.6s1.4,3.3,1.4,5.6h5.6s-.5-9.2-10.2-9.2-10.2,9.2-10.2,9.2h0Z"/><path id="Path_138" class="cls-8" d="m347.5,116.9s1.4,3.6-.3,5.3"/><path id="Path_139" class="cls-8" d="m351.1,116.9s0,4.7-4.2,6.2"/></g><path id="Path_140" class="cls-17" d="m124.7,244.2l13.6-3.8s.2-4.8,2-7.9c2-3.5,2.5-6.2,3.5-5,1,1.2.9,2.2.1,4.4-.4,1.5-.4,3.1.1,4.5l7.2-8.4c-.7,3.4-1.6,6.7-2.7,10-1.4,3.8-2.9,5.9-7.6,8.7-5.6,3.3-13.8,6.1-13.8,6.1l-2.4-8.6h0Z"/><path id="Path_141" class="cls-24" d="m102.7,210.2c3.7,3.2,3.4,5.1,7.1,17,3.1,10.1,5.5,19.1,5.5,19.1l10.5-3,1.4,9.8s-15.4,7-19,6c-4.5-1.2-16.6-41.1-16.6-41.1-.9-7.1,6.3-12.6,11.3-7.9h0Z"/><path id="Path_142" class="cls-4" d="m125.8,243.7c.9,3.1,1.3,6.3,1.3,9.5"/><path id="Path_143" class="cls-18" d="m125.1,427.5c.5.9.1,2.6-3.4,4.1-3.5,1.5-9.8.8-12.3.3s-4-1.2-7.7-.5c-3.7.8-9.8.4-11.6-1.1-.6-.7-.2-2.3-.2-2.3l35.3-.6h0Z"/><path id="Path_144" class="cls-21" d="m91.8,416.6c-.5,2.6-2.6,8.5-2,11.5,2.6,2.2,8.2,2.4,12.4,1.3,4.2-1.1,7.1,1.1,12.4,1.4,5.2.3,9.5-1.1,10.5-3.3,1.1-2.4-7.9-4.2-14-6.1-6.9-2.1-10.4-5.5-10.4-5.5l-8.9.7h0Z"/><g id="Group_21"><path id="Path_145" class="cls-7" d="m102.7,421.6s1.2-3.5,2.9-4.6"/><path id="Path_146" class="cls-7" d="m107.4,423.4s1.2-3.5,2.9-4.6"/><path id="Path_147" class="cls-7" d="m112.1,425.3s1.2-3.5,2.9-4.6"/></g><path id="Path_148" class="cls-13" d="m91.3,407.2l.5,9.4c.6.2,1.2.5,1.7,1,.5.6,1.2,2.5,2,2.5,3.3.1,5.2-4.2,5.2-4.2v-9.7l-9.4,1h0Z"/><path id="Path_149" class="cls-19" d="m39.8,429.8c-.6.8-2.3,1.2-5.1-1.3s-5-8.5-5.6-11c-.6-2.5-.6-4.2-2.9-7.2-2.3-3-4.6-8.7-4-11,.4-.9,2-1.2,2-1.2l15.7,31.6h0Z"/><path id="Path_150" class="cls-10" d="m35.4,395c-2.5.6-8.8,1.3-11.2,3.1-.9,3.3,1.4,8.4,4.1,11.8s2.1,6.9,4,11.8c1.9,4.8,5.1,8.1,7.5,8.1,2.6,0,.4-8.9-.5-15.3-1-7.1.5-11.8.5-11.8l-4.4-7.7h0Z"/><g id="Group_22"><path id="Path_151" class="cls-6" d="m35.6,407s3.7-.4,5.4.6"/><path id="Path_152" class="cls-6" d="m36,412s3.7-.4,5.4.6"/><path id="Path_153" class="cls-6" d="m36.3,417s3.7-.4,5.4.6"/></g><path id="Path_154" class="cls-13" d="m41,389.2l-5.6,5.8c0,.6,0,1.3-.2,1.9-.3.7-1.8,2.1-1.4,2.9,1.3,3,6,2.9,6,2.9l8.1-6.4-6.9-7.1Z"/><path id="Path_155" class="cls-20" d="m110.8,261.7c-11.4,0-21.1.9-21.1.9-3.6,1.6-9.9,9.9-11.7,15.1s-1.1,14-.1,18.6c5.3,25.2,10,40.4,12.1,50.4,1.3,6.1-5,8.9-4,20.1,1.2,13.8,5.4,40.5,5.4,40.5,3,1.4,6.4,1.5,9.4.1,0,0,5.1-49.4,5.8-55,.9-7.5,2-12.4,2.8-28,1.1-20.9,1.6-62.6,1.6-62.6Z"/><path id="Path_156" class="cls-26" d="m48,396.3s43.9-32.2,46.5-35.1c2.6-2.9,4.2-70.3,4.9-74.7,0,0,11.1-15.8,11.4-24.9l-23.2-3c-1.5,5.6-9.3,5.7-15.3,19-5.2,11.6,2.8,43.8,5.5,75.7,0,0-4.6,0-10.1,4-5.1,3.6-26.6,31.8-26.6,31.8,0,0,1.6,5.4,6.9,7.1h0Z"/><path id="Path_157" class="cls-27" d="m87.6,258.7c-1.5,5.6-9.3,5.7-15.3,19-5.2,11.6,2.8,43.8,5.5,75.7,0,0-4.6,0-10.1,4-5.1,3.6-26.6,31.8-26.6,31.8.4,1.2,1,2.3,1.8,3.3,4.4-5.6,16.3-19,23.3-26.2,9.2-9.6,15.1-9.9,15.6-11.9.4-2,0-32.2-1.6-51s0-26.4,5.5-33.3c2.3-3,4.3-6.2,5.7-9.7,8.7,7.1,17,5.3,19,4.7.3-1.1.5-2.3.5-3.4l-23.2-3h0Z"/><g id="Group_23"><path id="Path_158" class="cls-5" d="m100.4,255.6c-5.1,9.6-12.6,16.3-15.1,22.7-2.5,6.4-1.5,19.4-1.1,43.2.5,23.3,1,34,0,35.6-1,1.6-7.8,3.1-18.4,13.4-10.6,10.2-23.9,25.9-23.9,25.9"/><path id="Path_159" class="cls-5" d="m107.2,257.6s-1.4,16.9-17.4,13.3"/><path id="Path_160" class="cls-5" d="m42.7,384.3c.7,3.9,4.5,9,10,11.1"/></g><path id="Path_161" class="cls-15" d="m90.5,205.9c-2.6,1.4-4.9,3.2-6.7,5.4-2.6,3.6-3.8,14.3-2.3,22.6.9,5.1,7.5,20.1,4.7,26.6,0,0,15.4,5.2,25.6,1.1.6-3,.5-8.6.9-17.9,2-2.1,3.9-6.1,4.1-8.6.7-9.5-7.9-13.3-14.9-18.9-2.8-2.2-4.9-6.8-7.7-9-1-.8-2.3-1.3-3.7-1.4Z"/><path id="Path_162" class="cls-13" d="m96.8,195.5l-4.4,3.9-1.9,6.5s2.7,1.8,3.8,3.4c1.3,1.9,4.2,6.6,7.6,7,0,0-.3-4.2.2-6.5s2.1-6.7,2.1-6.7l-7.4-7.6h0Z"/><path id="Path_163" class="cls-17" d="m96.8,195.5s-.9,3.6-.8,5.5c.2,1.8,1.8,5.7,6.1,8.8.5-2.3,2.1-6.7,2.1-6.7l-7.4-7.6Z"/><path id="Path_164" class="cls-13" d="m107.8,168.9c4.1.4,8.1,6,8.1,11.1,0,5.1-1.3,7.9-.9,11.5s.3,7.1-1.2,10.9c-1,2.5-3.6,3.1-7.1,2.2-3.2-.8-7.6-3.9-8.6-4.8-1-1-1.2-4.4-1.2-4.4,0,0-4.8-.7-7-5.1s-1.8-23.3,18-21.5h0Z"/><path id="Path_165" class="cls-11" d="m96.8,195.5c-2.6-1.1-4.2-3.7-4-6.6.4-5,7.1-5.2,6.8-.8,0,0,3.9-.3,5-2.1s2.2-10.2,2.2-10.2c.9,1.6,1.6,3.3,2,5.1.7,3,2.9,3.4,6.9,1.5,3.7-1.8,6.5-5.2,7.4-9.2,0,0-3.2,0-5.1-1.1,0,0,4.4-.2,6.3-3,0,0-4.4,1.9-7.3.4-2.9-1.5-7.1-5.3-12.4-4.6-3.1.4-6.1,1.7-8.4,4,0,0-5-2.1-8.8.9s-6.4,10.6-3.2,18.5c3.2,7.9,8.1,11.1,8.1,11.1l4.4-3.9h0Z"/><path id="Path_166" class="cls-11" d="m86.5,171.3s-4.4-5.5-10.8-3.9c-5.8,1.5-9.5,6-9.4,14.7.1,9,11.6,21.8,1.8,29.6,0,0,14.7.2,11.1-17.6-2.8-13.6,2-19.1,6.2-17.4l1.1-5.4h0Z"/><path id="Path_167" class="cls-17" d="m95.6,187.9c.8-.3,1.7-.2,2.4.3.2.2-.2.6-.4.5-1.2-.5-2.8-.5-3.4.9,0,0,0,0,0,0,.1-.8.6-1.4,1.4-1.6Z"/><path id="Path_168" class="cls-17" d="m96.2,188c.1,0,.5.3.4.4-.3.1-.5.3-.7.6-.2.4-.3.9-.3,1.4,0,1.2.9,2.2,2,2.4,0,0,0,0,0,0-1.1.3-2.2-.8-2.5-1.8-.3-1-.2-2.5,1-3.1Z"/><path id="Path_169" class="cls-24" d="m88.4,206.9l2.5-1.5s10.3,12,11.5,21.2c.9,6.6-3.5,31.1-3.5,31.1,0,0-12,1-18.2-3.5,0,0,3.6-5.9,1.6-14.5-1.1-4.8-2-9-2.1-14.9-.1-6.9,2.2-12.9,8.3-18h0Z"/><path id="Path_170" class="cls-24" d="m100.4,247.6l-15.1-15.4c0,.2,7.8,19,10.3,25,2,0,3.3,0,3.3,0,0,0,.7-4.2,1.5-9.5h0Z"/><path id="Path_171" class="cls-24" d="m92,211.7c-5.2,1.8-11.8,9.8-8.4,17.6,2.8,6.6,15,28.8,17.1,30.3,1.7,1.3,18.6-5.2,23.1-6.3-.6-3-1.4-6-2.4-9l-14.5,3s-2.3-5-4.8-11.1c-3.5-8.4-7.6-19.3-10-24.6h0Z"/><path id="Path_172" class="cls-11" d="m140.6,236c.4-.3,13.1-8.5,17.9-11.6,1-.6,1.2-1.9.6-2.8-.6-1-1.9-1.2-2.8-.6,0,0,0,0,0,0l-15.8,10.5s-4.6,4.5.1,4.5h0Z"/><path id="Path_173" class="cls-13" d="m121.3,243.8l13.6-3.8s.2-4.8,2-7.9c2-3.5,2.5-6.2,3.5-5,1,1.2.9,2.2.1,4.4-.4,1.5-.4,3.1.1,4.5l10.6-6.8c-.8,2.7-2,5.3-3.4,7.8-2.1,3.4-3.6,6-9.3,9.2s-14.8,6.3-14.8,6.3l-2.4-8.6h0Z"/><path id="Path_174" class="cls-24" d="m101.9,235.7c0-.4,0-.9.1-1.3l-4.9-9.6,4.8,10.9Z"/><path id="Path_175" class="cls-4" d="m121.3,243.2s2.4,2.7,2.6,10"/><path id="Path_176" class="cls-1" d="m166.1,150.9l-7.5,11.9v-11.9h7.5Z"/><path id="Path_177" class="cls-1" d="m184.1,151.4h-88.5c-5.4,0-9.8-4.4-9.8-9.8s4.4-9.8,9.8-9.8h88.5c5.4,0,9.8,4.4,9.8,9.8s-4.4,9.8-9.8,9.8Z"/><path id="Path_178" class="cls-9" d="m104.9,134.9l2,4,4.5.7-3.2,3.2.8,4.4-4-2.1-4,2.1.8-4.4-3.2-3.2,4.5-.7,2-4Z"/><path id="Path_179" class="cls-9" d="m122.6,134.9l2,4,4.5.7-3.2,3.2.8,4.4-4-2.1-4,2.1.8-4.4-3.2-3.2,4.5-.7,2-4Z"/><path id="Path_180" class="cls-9" d="m140.3,134.9l2,4,4.5.7-3.2,3.2.8,4.4-4-2.1-4,2.1.8-4.4-3.2-3.2,4.5-.7,2-4Z"/><path id="Path_181" class="cls-9" d="m158,134.9l2,4,4.5.7-3.2,3.2.8,4.4-4-2.1-4,2.1.8-4.4-3.2-3.2,4.5-.7,2-4Z"/><path id="Path_182" class="cls-9" d="m175.7,134.9l2,4,4.5.7-3.2,3.2.8,4.4-4-2.1-4,2.1.8-4.4-3.2-3.2,4.5-.7,2-4Z"/><path id="Path_229" class="cls-24" d="m517.1,437.8H12.3c-1.1,0-1.9-1.3-1.9-2.9,0-1.6.9-2.8,1.9-2.9h504.7c1.1,0,1.9,1.3,1.9,2.9,0,1.6-.9,2.8-1.9,2.9Z"/></g></svg>