<svg width="1200" height="1200" viewBox="0 0 1200 1200" fill="none" xmlns="http://www.w3.org/2000/svg">
<rect width="1200" height="1200" fill="white"/>
<path d="M689.713 337H463.611C452.253 337 443.041 346.212 443.041 357.57V832.634C443.041 843.993 452.253 853.204 463.611 853.204H689.713C701.071 853.204 710.283 843.993 710.283 832.634V357.57C710.283 346.212 701.071 337 689.713 337ZM695.5 805.071C695.5 810.955 690.726 815.73 684.842 815.73H468.482C462.598 815.73 457.823 810.955 457.823 805.071V385.133C457.823 379.249 462.598 374.475 468.482 374.475H684.842C690.726 374.475 695.5 379.249 695.5 385.133V805.071Z" fill="url(#paint0_linear_77_5917)"/>
<path opacity="0.3" d="M468.483 374.473H684.842C690.726 374.473 695.501 379.247 695.501 385.131V805.069C695.501 810.953 690.726 815.728 684.842 815.728H468.483C462.599 815.728 457.824 810.953 457.824 805.069V385.131C457.824 379.247 462.599 374.473 468.483 374.473Z" fill="white"/>
<path style="mix-blend-mode:multiply" d="M564.703 362.61C568.499 362.61 571.576 359.533 571.576 355.738C571.576 351.942 568.499 348.865 564.703 348.865C560.907 348.865 557.83 351.942 557.83 355.738C557.83 359.533 560.907 362.61 564.703 362.61Z" fill="url(#paint1_linear_77_5917)"/>
<path style="mix-blend-mode:multiply" d="M618.525 355.735C618.525 353.444 616.668 351.563 614.353 351.563H586.982C584.692 351.563 582.811 353.42 582.811 355.735C582.811 358.026 584.667 359.907 586.982 359.907H614.353C616.644 359.907 618.525 358.05 618.525 355.735Z" fill="url(#paint2_linear_77_5917)"/>
<g style="mix-blend-mode:multiply">
<path d="M800.613 550.418H538.725C534.53 550.418 531.129 553.819 531.129 558.014V644.949C531.129 649.144 534.53 652.545 538.725 652.545H800.613C804.809 652.545 808.21 649.144 808.21 644.949V558.014C808.21 553.819 804.809 550.418 800.613 550.418Z" fill="#FAFAFA"/>
</g>
<g style="mix-blend-mode:multiply">
<path d="M800.613 420.75H538.725C534.53 420.75 531.129 424.151 531.129 428.347V515.281C531.129 519.476 534.53 522.877 538.725 522.877H800.613C804.809 522.877 808.21 519.476 808.21 515.281V428.347C808.21 424.151 804.809 420.75 800.613 420.75Z" fill="#FAFAFA"/>
</g>
<g style="mix-blend-mode:multiply">
<path d="M800.613 680.109H538.725C534.53 680.109 531.129 683.51 531.129 687.706V774.64C531.129 778.835 534.53 782.236 538.725 782.236H800.613C804.809 782.236 808.21 778.835 808.21 774.64V687.706C808.21 683.51 804.809 680.109 800.613 680.109Z" fill="#FAFAFA"/>
</g>
<g filter="url(#filter0_d_77_5917)">
<path d="M796.274 414.354H534.385C530.19 414.354 526.789 417.755 526.789 421.95V508.885C526.789 513.08 530.19 516.481 534.385 516.481H796.274C800.469 516.481 803.87 513.08 803.87 508.885V421.95C803.87 417.755 800.469 414.354 796.274 414.354Z" fill="white"/>
</g>
<path d="M607.766 492.385C622.655 477.496 622.655 453.356 607.766 438.467C592.877 423.578 568.737 423.578 553.848 438.467C538.959 453.356 538.959 477.496 553.848 492.385C568.737 507.274 592.877 507.274 607.766 492.385Z" fill="#FFFFF8"/>
<path d="M713.485 438.348H635.907C633.816 438.348 632.121 440.043 632.121 442.134V450.96C632.121 453.051 633.816 454.746 635.907 454.746H713.485C715.576 454.746 717.271 453.051 717.271 450.96V442.134C717.271 440.043 715.576 438.348 713.485 438.348Z" fill="#17A9E1"/>
<path d="M779.343 468.498H633.375C632.682 468.498 632.121 469.059 632.121 469.752V470.547C632.121 471.24 632.682 471.801 633.375 471.801H779.343C780.035 471.801 780.597 471.24 780.597 470.547V469.752C780.597 469.059 780.035 468.498 779.343 468.498Z" fill="#1BB9F5"/>
<path d="M779.343 482.168H633.375C632.682 482.168 632.121 482.73 632.121 483.422V484.218C632.121 484.911 632.682 485.472 633.375 485.472H779.343C780.035 485.472 780.597 484.911 780.597 484.218V483.422C780.597 482.73 780.035 482.168 779.343 482.168Z" fill="#1BB9F5"/>
<path d="M779.343 495.864H633.375C632.682 495.864 632.121 496.426 632.121 497.118V497.914C632.121 498.607 632.682 499.168 633.375 499.168H779.343C780.035 499.168 780.597 498.607 780.597 497.914V497.118C780.597 496.426 780.035 495.864 779.343 495.864Z" fill="#1BB9F5"/>
<g filter="url(#filter1_d_77_5917)">
<path d="M796.274 544.022H534.385C530.19 544.022 526.789 547.423 526.789 551.618V638.552C526.789 642.748 530.19 646.149 534.385 646.149H796.274C800.469 646.149 803.87 642.748 803.87 638.552V551.618C803.87 547.423 800.469 544.022 796.274 544.022Z" fill="white"/>
</g>
<path d="M580.805 633.222C601.862 633.222 618.931 616.152 618.931 595.096C618.931 574.04 601.862 556.97 580.805 556.97C559.749 556.97 542.68 574.04 542.68 595.096C542.68 616.152 559.749 633.222 580.805 633.222Z" fill="#FFFFF8"/>
<path d="M713.485 568.016H635.907C633.816 568.016 632.121 569.711 632.121 571.802V580.628C632.121 582.719 633.816 584.414 635.907 584.414H713.485C715.576 584.414 717.271 582.719 717.271 580.628V571.802C717.271 569.711 715.576 568.016 713.485 568.016Z" fill="#17A9E1"/>
<path d="M779.343 598.166H633.375C632.682 598.166 632.121 598.727 632.121 599.42V600.215C632.121 600.908 632.682 601.469 633.375 601.469H779.343C780.035 601.469 780.597 600.908 780.597 600.215V599.42C780.597 598.727 780.035 598.166 779.343 598.166Z" fill="#1BB9F5"/>
<path d="M779.343 611.86H633.375C632.682 611.86 632.121 612.422 632.121 613.114V613.91C632.121 614.603 632.682 615.164 633.375 615.164H779.343C780.035 615.164 780.597 614.603 780.597 613.91V613.114C780.597 612.422 780.035 611.86 779.343 611.86Z" fill="#1BB9F5"/>
<path d="M779.343 625.532H633.375C632.682 625.532 632.121 626.094 632.121 626.786V627.582C632.121 628.275 632.682 628.836 633.375 628.836H779.343C780.035 628.836 780.597 628.275 780.597 627.582V626.786C780.597 626.094 780.035 625.532 779.343 625.532Z" fill="#1BB9F5"/>
<g filter="url(#filter2_d_77_5917)">
<path d="M796.274 673.713H534.385C530.19 673.713 526.789 677.114 526.789 681.309V768.243C526.789 772.439 530.19 775.84 534.385 775.84H796.274C800.469 775.84 803.87 772.439 803.87 768.243V681.309C803.87 677.114 800.469 673.713 796.274 673.713Z" fill="white"/>
</g>
<path d="M617.831 733.523C622.7 713.037 610.04 692.483 589.555 687.614C569.069 682.745 548.515 695.405 543.646 715.891C538.777 736.376 551.437 756.93 571.922 761.799C592.408 766.668 612.962 754.008 617.831 733.523Z" fill="#FFFFF8"/>
<path d="M713.485 697.707H635.907C633.816 697.707 632.121 699.402 632.121 701.493V710.319C632.121 712.41 633.816 714.105 635.907 714.105H713.485C715.576 714.105 717.271 712.41 717.271 710.319V701.493C717.271 699.402 715.576 697.707 713.485 697.707Z" fill="#17A9E1"/>
<path d="M779.343 727.856H633.375C632.682 727.856 632.121 728.418 632.121 729.11V729.906C632.121 730.599 632.682 731.16 633.375 731.16H779.343C780.035 731.16 780.597 730.599 780.597 729.906V729.11C780.597 728.418 780.035 727.856 779.343 727.856Z" fill="#1BB9F5"/>
<path d="M779.343 741.528H633.375C632.682 741.528 632.121 742.09 632.121 742.782V743.578C632.121 744.271 632.682 744.832 633.375 744.832H779.343C780.035 744.832 780.597 744.271 780.597 743.578V742.782C780.597 742.09 780.035 741.528 779.343 741.528Z" fill="#1BB9F5"/>
<path d="M779.343 755.223H633.375C632.682 755.223 632.121 755.785 632.121 756.477V757.273C632.121 757.965 632.682 758.527 633.375 758.527H779.343C780.035 758.527 780.597 757.965 780.597 757.273V756.477C780.597 755.785 780.035 755.223 779.343 755.223Z" fill="#1BB9F5"/>
<path d="M617.831 733.535C622.7 713.05 610.04 692.496 589.555 687.627C569.069 682.758 548.515 695.418 543.646 715.903C538.777 736.389 551.437 756.943 571.922 761.812C592.408 766.681 612.962 754.021 617.831 733.535Z" fill="#E5F7FF"/>
<mask id="mask0_77_5917" style="mask-type:luminance" maskUnits="userSpaceOnUse" x="542" y="686" width="77" height="77">
<path d="M617.827 733.535C622.696 713.049 610.036 692.495 589.551 687.626C569.065 682.757 548.511 695.417 543.642 715.903C538.773 736.388 551.433 756.942 571.919 761.811C592.404 766.68 612.958 754.021 617.827 733.535Z" fill="white"/>
</mask>
<g mask="url(#mask0_77_5917)">
<path d="M583.028 699.455C591.275 699.455 597.955 706.134 597.955 714.382V753.014H568.125V714.382C568.125 706.134 574.805 699.455 583.052 699.455H583.028Z" fill="#001C45"/>
<path d="M576.611 754.345H563.564V717.932C563.564 711.493 568.797 706.26 575.236 706.26H576.587V754.345H576.611Z" fill="#001C45"/>
<path d="M567.496 723.034C567.496 723.034 564.891 721.804 563.348 723.516C561.805 725.252 562.552 729.183 565.205 730.316C567.737 731.401 568.894 730.099 568.894 730.099L567.472 723.034H567.496Z" fill="#FF9A8D"/>
<path d="M564.768 724.21C565.444 724.018 566.432 724.09 566.939 724.572C567.132 724.741 566.77 725.079 566.577 724.982C565.492 724.5 564.117 724.379 563.49 725.633C563.466 725.706 563.418 725.633 563.418 725.585C563.611 724.886 564.021 724.403 564.744 724.186L564.768 724.21Z" fill="#BA5964"/>
<path d="M565.276 724.358C565.396 724.309 565.661 724.623 565.637 724.719C565.444 724.792 565.155 724.985 565.01 725.226C564.745 725.636 564.673 725.997 564.673 726.48C564.697 727.589 565.276 728.433 566.361 728.746C566.361 728.746 566.409 728.819 566.361 728.819C565.396 729.012 564.383 727.975 564.215 727.107C564.022 726.166 564.166 724.84 565.276 724.382V724.358Z" fill="#BA5964"/>
<path d="M594.117 722.921C594.117 722.921 596.722 721.788 598.265 723.524C599.809 725.26 599.061 729.191 596.408 730.324C593.876 731.41 592.719 730.107 592.719 730.107L594.142 722.921H594.117Z" fill="#FF9A8D"/>
<path d="M596.843 724.223C596.168 724.03 595.179 724.102 594.649 724.584C594.456 724.753 594.818 725.091 595.01 724.994C596.096 724.512 597.47 724.391 598.097 725.645C598.121 725.718 598.169 725.645 598.169 725.597C597.977 724.898 597.567 724.416 596.843 724.199V724.223Z" fill="#BA5964"/>
<path d="M596.312 724.369C596.191 724.321 595.926 724.635 595.95 724.731C596.143 724.803 596.432 724.996 596.577 725.237C596.842 725.647 596.915 726.009 596.915 726.491C596.89 727.601 596.312 728.445 595.227 728.758C595.227 728.758 595.178 728.831 595.227 728.831C596.191 729.023 597.204 727.986 597.373 727.118C597.566 726.178 597.421 724.852 596.312 724.393V724.369Z" fill="#BA5964"/>
<path d="M554.329 762.897C554.329 757.037 555.269 753.541 558.332 752.528C559.731 752.07 568.122 749.465 570.751 748.669C573.404 747.874 574.103 746.306 574.103 744.956V738.951H587.511V744.956C587.511 746.306 588.234 747.874 590.863 748.669C593.491 749.465 601.883 752.07 603.282 752.528C606.345 753.517 607.285 757.037 607.285 762.897H554.305H554.329Z" fill="#FF9A8D"/>
<path d="M574.127 740.712C574.127 740.712 575.453 744.57 580.831 744.57C586.209 744.57 587.535 740.736 587.535 740.712V738.976H574.127V740.712Z" fill="#BA5964"/>
<path d="M587.076 707.997C585.146 706.887 583 706.236 580.806 706.236C578.611 706.236 576.441 706.887 574.536 707.997C570.026 710.577 567.422 715.448 567.422 720.561V720.609C567.422 722.056 567.518 723.503 567.663 724.925L567.904 726.951C568.097 728.543 568.387 730.11 568.893 731.629C570.822 737.634 576.176 741.661 580.806 741.661C585.436 741.661 590.789 737.634 592.719 731.629C593.201 730.11 593.514 728.543 593.707 726.951L593.948 724.925C594.117 723.479 594.214 722.007 594.189 720.561C594.189 715.448 591.585 710.577 587.076 707.997Z" fill="#FF9A8D"/>
<path d="M580.807 707.481C580.807 707.481 583.58 716.886 594.215 719.057C594.215 719.057 595.155 712.956 590.597 709.242C586.04 705.528 580.807 705.769 580.807 705.769V707.506V707.481Z" fill="#001C45"/>
<path d="M580.807 707.529C580.807 707.529 578.033 716.934 567.399 719.105C567.399 719.105 566.458 713.003 571.016 709.29C575.574 705.576 580.807 705.817 580.807 705.817V707.553V707.529Z" fill="#001C45"/>
<path d="M603.302 752.555C601.904 752.097 593.512 749.493 590.883 748.697C590.184 748.48 589.629 748.239 589.195 747.925C589.267 748.215 589.316 748.528 589.316 748.842C589.316 751.205 585.505 753.11 580.827 753.11C576.149 753.11 572.339 751.205 572.339 748.842C572.339 748.528 572.363 748.239 572.435 747.949C572.001 748.239 571.446 748.48 570.795 748.673C568.143 749.469 559.775 752.073 558.376 752.531C555.313 753.52 554.373 757.041 554.373 762.901H607.354C607.354 757.041 606.413 753.544 603.35 752.531L603.302 752.555Z" fill="#F89939"/>
<path d="M561.127 751.659C559.8 752.069 558.739 752.407 558.329 752.551C555.267 753.54 554.326 757.061 554.326 762.921H561.199V751.683H561.127V751.659Z" fill="#3ED9C7"/>
<path d="M600.504 751.659C601.83 752.069 602.891 752.407 603.301 752.551C606.364 753.54 607.304 757.061 607.304 762.921H600.432V751.683H600.504V751.659Z" fill="#3ED9C7"/>
<path d="M580.804 754.075C586.085 754.075 590.233 751.784 590.233 748.866C590.233 748.866 590.233 748.698 590.233 748.456C589.365 748.119 588.738 747.661 588.328 747.154C588.352 747.685 588.376 748.529 588.376 748.842C588.376 750.434 585.265 752.194 580.804 752.194C576.343 752.194 573.232 750.434 573.232 748.842C573.232 748.529 573.232 747.733 573.28 747.203C572.846 747.685 572.243 748.119 571.375 748.456C571.375 748.673 571.375 748.842 571.375 748.842C571.375 751.76 575.523 754.051 580.804 754.051V754.075Z" fill="#228C7E"/>
<path d="M563.756 705.429C563.756 705.429 568.868 705.429 570.243 708.299" stroke="#001C45" stroke-width="0.894243" stroke-miterlimit="10" stroke-linecap="round"/>
<path d="M564.551 700.563C564.551 700.563 570.459 702.757 570.266 708.786" stroke="#001C45" stroke-width="0.894243" stroke-miterlimit="10" stroke-linecap="round"/>
</g>
<path d="M580.805 633.223C601.862 633.223 618.931 616.153 618.931 595.097C618.931 574.041 601.862 556.971 580.805 556.971C559.749 556.971 542.68 574.041 542.68 595.097C542.68 616.153 559.749 633.223 580.805 633.223Z" fill="#E5F7FF"/>
<mask id="mask1_77_5917" style="mask-type:luminance" maskUnits="userSpaceOnUse" x="542" y="556" width="77" height="78">
<path d="M580.805 633.223C601.862 633.223 618.931 616.154 618.931 595.097C618.931 574.041 601.862 556.972 580.805 556.972C559.749 556.972 542.68 574.041 542.68 595.097C542.68 616.154 559.749 633.223 580.805 633.223Z" fill="white"/>
</mask>
<g mask="url(#mask1_77_5917)">
<path d="M567.495 593.015C567.495 593.015 564.915 592.099 563.371 593.811C561.828 595.523 562.576 599.478 565.228 600.612C567.76 601.697 568.918 600.395 568.918 600.395L567.471 593.015H567.495Z" fill="#FF9A8D"/>
<path d="M564.795 594.532C565.47 594.339 566.459 594.411 566.99 594.893C567.182 595.062 566.821 595.4 566.628 595.303C565.543 594.821 564.168 594.701 563.541 595.955C563.517 596.027 563.469 595.955 563.469 595.906C563.662 595.207 564.072 594.725 564.795 594.508V594.532Z" fill="#BA5964"/>
<path d="M565.322 594.654C565.443 594.606 565.708 594.92 565.684 595.016C565.491 595.088 565.202 595.281 565.057 595.523C564.792 595.933 564.72 596.294 564.72 596.777C564.744 597.886 565.322 598.73 566.408 599.043C566.408 599.043 566.456 599.116 566.408 599.116C565.443 599.309 564.43 598.272 564.261 597.404C564.068 596.463 564.213 595.137 565.322 594.679V594.654Z" fill="#BA5964"/>
<path d="M594.165 593.015C594.165 593.015 596.745 592.099 598.289 593.811C599.832 595.548 599.084 599.478 596.432 600.612C593.9 601.697 592.742 600.395 592.742 600.395L594.189 593.015H594.165Z" fill="#FF9A8D"/>
<path d="M596.867 594.532C596.191 594.339 595.203 594.411 594.672 594.893C594.479 595.062 594.841 595.4 595.034 595.303C596.119 594.821 597.494 594.701 598.121 595.955C598.145 596.027 598.193 595.955 598.193 595.906C598 595.207 597.59 594.725 596.867 594.508V594.532Z" fill="#BA5964"/>
<path d="M596.359 594.654C596.238 594.606 595.973 594.92 595.997 595.016C596.19 595.088 596.479 595.281 596.624 595.523C596.889 595.933 596.961 596.294 596.961 596.777C596.937 597.886 596.359 598.73 595.273 599.043C595.273 599.043 595.225 599.116 595.273 599.116C596.238 599.309 597.251 598.272 597.42 597.404C597.612 596.463 597.468 595.137 596.359 594.679V594.654Z" fill="#BA5964"/>
<path d="M549.409 633.219C549.409 627.359 552.182 623.863 555.245 622.85C556.643 622.392 566.868 619.787 569.521 618.992C572.173 618.196 572.873 616.628 572.873 615.278V608.043H588.74V615.278C588.74 616.628 589.464 618.196 592.092 618.992C594.745 619.787 604.97 622.392 606.368 622.85C609.431 623.839 612.204 627.359 612.204 633.219H549.385H549.409Z" fill="#FF9A8D"/>
<path d="M572.896 608.068V610.6C572.896 610.6 575.766 615.109 580.854 615.109C585.943 615.109 588.764 610.648 588.764 610.648V608.092H572.896V608.068Z" fill="#BA5964"/>
<path d="M606.391 622.851C604.992 622.393 594.768 619.788 592.115 618.993C591.802 618.896 591.512 618.8 591.247 618.679C591.512 619.306 591.633 619.957 591.633 620.633C591.633 624.443 586.786 627.529 580.829 627.529C574.873 627.529 570.026 624.443 570.026 620.633C570.026 619.957 570.171 619.306 570.412 618.679C570.146 618.8 569.857 618.896 569.543 618.993C566.891 619.788 556.666 622.393 555.267 622.851C552.205 623.84 549.432 627.361 549.432 633.221H612.251C612.251 627.361 609.478 623.864 606.415 622.851H606.391Z" fill="#3ED9C7"/>
<path d="M587.124 578.305C585.195 577.196 583.049 576.545 580.854 576.545C578.66 576.545 576.393 577.075 574.464 578.185C569.955 580.765 567.471 585.733 567.471 590.821C567.471 592.292 567.543 593.763 567.712 595.21L567.953 597.236C568.146 598.827 568.652 601.89 569.858 604.832C572.245 610.668 577.575 612.573 580.854 612.573C584.134 612.573 589.463 610.668 591.851 604.832C593.057 601.89 593.563 598.827 593.756 597.236L593.997 595.21C594.166 593.763 594.262 592.292 594.238 590.845C594.238 585.733 591.634 580.861 587.124 578.281V578.305Z" fill="#FF9A8D"/>
<path d="M567.448 593.334C567.448 593.334 567.834 593.213 568.22 592.876C568.534 592.586 569.257 591.839 569.257 589.114C569.257 586.389 569.981 581.445 572.561 579.733C572.561 579.733 572.681 578.431 572.03 578.142C571.138 577.78 568.871 578.262 567.304 579.757C563.928 582.964 565.302 592.828 565.302 592.828C565.881 592.779 566.894 592.924 567.497 593.334H567.448Z" fill="#001C45"/>
<path d="M594.675 593.186C594.675 593.186 594.024 593.114 593.662 592.849C593.3 592.559 592.456 591.836 592.456 589.111C592.456 586.386 591.733 581.442 589.152 579.73C589.152 579.73 591.25 577.632 594.241 579.73C597.255 581.852 596.435 592.825 596.435 592.825C595.808 592.801 595.229 592.921 594.675 593.186Z" fill="#001C45"/>
<path d="M594.675 585.377V593.19C595.206 592.925 595.784 592.804 596.411 592.828C598.196 573.584 589.129 569.485 579.483 571.221C572.369 572.499 571.477 579.083 571.477 579.083L572.538 579.734C573.792 579.734 574.419 580.554 575.383 581.301C576.372 582.073 577.385 582.796 578.494 583.399C580.327 584.412 582.377 585.135 584.45 585.087C584.981 585.087 585.56 584.991 585.897 584.605C586.331 584.098 586.211 583.351 585.994 582.724C585.704 581.928 585.319 581.181 584.812 580.529C586.138 581.615 587.441 582.7 589.997 582.965C591.251 583.086 592.047 582.338 591.588 581.012C591.564 580.939 594.675 583.761 594.675 585.377Z" fill="#001C45"/>
<path d="M570.797 579.007C570.797 579.007 571.11 572.688 579.406 570.181C586.496 568.034 593.947 570.928 596.142 573.098C599.108 576.016 596.696 578.814 593.61 578.235C592.114 577.946 570.797 579.007 570.797 579.007Z" fill="#001C45"/>
<path d="M564.984 575.727C564.984 575.727 570.097 575.727 571.471 578.596" stroke="#001C45" stroke-width="0.894243" stroke-miterlimit="10" stroke-linecap="round"/>
<path d="M565.756 570.86C565.756 570.86 571.664 573.054 571.471 579.083" stroke="#001C45" stroke-width="0.894243" stroke-miterlimit="10" stroke-linecap="round"/>
</g>
<path d="M607.764 492.386C622.653 477.497 622.653 453.357 607.764 438.468C592.875 423.579 568.735 423.579 553.846 438.468C538.957 453.357 538.957 477.497 553.846 492.386C568.735 507.275 592.875 507.275 607.764 492.386Z" fill="#E5F7FF"/>
<mask id="mask2_77_5917" style="mask-type:luminance" maskUnits="userSpaceOnUse" x="542" y="427" width="77" height="77">
<path d="M607.764 492.385C622.653 477.496 622.653 453.356 607.764 438.467C592.875 423.578 568.735 423.578 553.846 438.467C538.957 453.356 538.957 477.496 553.846 492.385C568.735 507.274 592.875 507.274 607.764 492.385Z" fill="white"/>
</mask>
<g mask="url(#mask2_77_5917)">
<path d="M595.881 463.183C595.881 463.183 600.27 442.372 580.833 442.372C561.397 442.372 565.279 463.183 565.279 463.183H595.881Z" fill="#001C45"/>
<path d="M570.632 442.931C570.222 439.217 573.502 435.817 577.987 435.334C582.449 434.852 586.403 437.456 586.813 441.146C587.223 444.86 583.944 448.26 579.458 448.742C574.997 449.225 571.042 446.62 570.632 442.931Z" fill="#001C45"/>
<path d="M567.449 462.895C567.449 462.895 564.893 461.809 563.35 463.546C561.807 465.282 562.554 469.213 565.207 470.346C567.739 471.431 568.896 470.129 568.896 470.129L567.425 462.919L567.449 462.895Z" fill="#BA5964"/>
<path d="M564.77 464.249C565.446 464.056 566.434 464.128 566.941 464.611C567.134 464.78 566.772 465.117 566.579 465.021C565.494 464.538 564.119 464.418 563.492 465.672C563.468 465.744 563.42 465.672 563.42 465.624C563.613 464.924 564.023 464.442 564.746 464.225L564.77 464.249Z" fill="#893A47"/>
<path d="M565.278 464.371C565.398 464.323 565.663 464.636 565.639 464.733C565.446 464.805 565.157 464.998 565.012 465.239C564.747 465.649 564.675 466.011 564.675 466.493C564.699 467.603 565.278 468.447 566.363 468.76C566.363 468.76 566.411 468.832 566.363 468.832C565.398 469.025 564.385 467.988 564.216 467.12C564.024 466.18 564.168 464.854 565.278 464.395V464.371Z" fill="#893A47"/>
<path d="M594.146 462.899C594.146 462.899 596.702 461.813 598.246 463.526C599.789 465.238 599.041 469.193 596.389 470.326C593.857 471.411 592.699 470.109 592.699 470.109L594.146 462.899Z" fill="#BA5964"/>
<path d="M596.847 464.249C596.172 464.056 595.183 464.128 594.653 464.611C594.46 464.78 594.821 465.117 595.014 465.021C596.1 464.538 597.474 464.418 598.101 465.672C598.125 465.744 598.173 465.672 598.173 465.624C597.98 464.924 597.571 464.442 596.847 464.225V464.249Z" fill="#893A47"/>
<path d="M596.316 464.371C596.195 464.323 595.93 464.636 595.954 464.733C596.147 464.805 596.436 464.998 596.581 465.239C596.846 465.649 596.918 466.011 596.918 466.493C596.894 467.603 596.316 468.447 595.23 468.76C595.23 468.76 595.182 468.832 595.23 468.832C596.195 469.025 597.208 467.988 597.377 467.12C597.57 466.18 597.425 464.854 596.316 464.395V464.371Z" fill="#893A47"/>
<path d="M595.252 490.654L588.596 485.204H572.873L566.338 490.654H595.252Z" fill="#3ED9C7"/>
<path d="M572.872 485.204L572.414 488.556H589.174L588.595 485.204H572.872Z" fill="#228C7E"/>
<path d="M554.333 503.526C554.333 497.666 555.273 494.169 558.336 493.181C559.734 492.722 568.126 490.118 570.755 489.322C573.408 488.526 574.107 486.959 574.107 485.608V479.628H587.515V485.608C587.515 486.959 588.238 488.526 590.867 489.322C593.519 490.118 601.887 492.722 603.286 493.181C606.349 494.169 607.289 497.69 607.289 503.526H554.309H554.333Z" fill="#BA5964"/>
<path d="M574.131 481.364C574.131 481.364 575.457 485.223 580.835 485.223C586.212 485.223 587.539 481.388 587.539 481.364V479.628H574.131V481.364Z" fill="#893A47"/>
<path d="M574.396 496.707C574.396 496.707 576.856 498.226 580.811 498.226C584.766 498.226 587.202 496.707 587.202 496.707L585.393 503.556H576.205L574.396 496.707Z" fill="#F89939"/>
<path d="M572.296 489.493C572.296 489.179 572.32 488.89 572.392 488.601C571.958 488.89 571.403 489.131 570.752 489.324C568.1 490.12 559.732 492.724 558.333 493.182C555.271 494.171 554.33 497.692 554.33 503.552H576.202L573.405 492.7C571.669 491.904 572.32 490.771 572.32 489.517L572.296 489.493Z" fill="#228C7E"/>
<path d="M603.307 493.183C601.908 492.725 593.516 490.12 590.888 489.324C590.188 489.107 589.634 488.866 589.199 488.553C589.272 488.842 589.32 489.156 589.32 489.469C589.32 490.747 589.947 491.881 588.211 492.652L585.438 503.504H607.358C607.358 497.644 606.418 494.147 603.355 493.135L603.307 493.183Z" fill="#228C7E"/>
<path d="M589.175 488.553L595.252 490.651L593.009 493.593L589.054 494.678L592.165 497.041L585.389 503.528L589.175 488.553Z" fill="#3ED9C7"/>
<path d="M572.417 488.553L566.34 490.651L568.583 493.593L572.537 494.678L569.427 496.559L576.203 503.528L572.417 488.553Z" fill="#3ED9C7"/>
<path d="M587.078 448.649C585.148 447.54 583.002 446.889 580.808 446.889C578.613 446.889 576.443 447.54 574.538 448.649C570.028 451.229 567.424 456.101 567.424 461.213V461.261C567.424 462.708 567.52 464.155 567.665 465.578L567.906 467.603C568.099 469.195 568.388 470.762 568.895 472.282C570.824 478.286 576.178 482.796 580.808 482.796C585.438 482.796 590.791 478.286 592.72 472.282C593.203 470.762 593.516 469.195 593.709 467.603L593.95 465.578C594.119 464.131 594.216 462.66 594.191 461.213C594.191 456.101 591.587 451.229 587.078 448.649Z" fill="#BA5964"/>
<path d="M567.256 457.766H576.202C576.202 457.766 576.492 453.763 578.373 450.338V457.766H585.029V450.338C585.029 450.338 586.837 454.703 586.837 457.766H594.337C594.337 457.766 593.613 445.54 580.808 445.54C568.003 445.54 567.28 457.766 567.28 457.766H567.256Z" fill="#001C45"/>
<path d="M587.176 436.277C587.176 436.277 589.009 441.052 586.814 443.367" stroke="#001C45" stroke-width="0.894243" stroke-miterlimit="10" stroke-linecap="round"/>
<path d="M592 436.277C592 436.277 592.049 442.571 586.357 444.524" stroke="#001C45" stroke-width="0.894243" stroke-miterlimit="10" stroke-linecap="round"/>
</g>
<path d="M290.851 605.639L308.889 600.551C308.889 600.551 309.13 594.208 311.541 590.085C314.242 585.479 314.821 581.813 316.171 583.381C317.546 584.972 317.401 586.275 316.364 589.217C315.327 592.159 316.557 595.245 316.557 595.245L326.131 584.032C326.131 584.032 324.901 590.736 322.489 597.343C320.657 602.359 318.679 605.205 312.433 608.919C305.03 613.332 294.058 617.069 294.058 617.069L290.899 605.639H290.851Z" fill="#BA5964"/>
<path d="M261.575 560.42C266.542 564.616 266.084 567.22 271.003 583.088C275.151 596.544 278.262 608.505 278.262 608.505L292.176 604.574L294.009 617.548C294.009 617.548 273.487 626.808 268.688 625.506C262.684 623.891 246.623 570.886 246.623 570.886C245.369 561.481 255.063 554.102 261.623 560.396L261.575 560.42Z" fill="#17A9E1"/>
<path d="M292.273 604.983C292.273 604.983 293.986 609.903 293.986 617.571" stroke="#FFB852" stroke-width="1.61889" stroke-miterlimit="10" stroke-linecap="round"/>
<path d="M291.407 849.383C292.01 850.541 291.552 852.88 286.922 854.809C282.268 856.738 273.876 855.918 270.548 855.267C267.22 854.616 265.17 853.651 260.251 854.664C255.307 855.701 247.229 855.243 244.769 853.169C243.925 852.18 244.48 850.155 244.48 850.155L291.431 849.359L291.407 849.383Z" fill="#8FC9C6"/>
<path d="M247.107 834.942C246.432 838.342 243.659 846.3 244.455 850.183C247.927 853.125 255.355 853.318 260.925 851.919C266.496 850.52 270.427 853.366 277.42 853.776C284.293 854.186 290.008 852.281 291.407 849.387C292.926 846.252 280.941 843.816 272.79 841.308C263.65 838.511 258.924 834.001 258.924 834.001L247.107 834.918V834.942Z" fill="#228C7E"/>
<mask id="mask3_77_5917" style="mask-type:luminance" maskUnits="userSpaceOnUse" x="244" y="834" width="48" height="20">
<path d="M247.108 834.942C246.433 838.343 243.66 846.301 244.456 850.183C247.928 853.125 255.356 853.318 260.926 851.919C266.497 850.521 270.428 853.366 277.421 853.776C284.294 854.186 290.009 852.281 291.407 849.387C292.927 846.252 280.942 843.817 272.791 841.309C263.651 838.511 258.925 834.002 258.925 834.002L247.108 834.918V834.942Z" fill="white"/>
</mask>
<g mask="url(#mask3_77_5917)">
<path d="M261.673 841.477C261.673 841.477 263.313 836.871 265.507 835.375" stroke="#8FC9C6" stroke-width="0.817153" stroke-miterlimit="10" stroke-linecap="round"/>
<path d="M267.894 843.958C267.894 843.958 269.533 839.352 271.728 837.857" stroke="#8FC9C6" stroke-width="0.817153" stroke-miterlimit="10" stroke-linecap="round"/>
<path d="M274.116 846.416C274.116 846.416 275.756 841.81 277.95 840.314" stroke="#8FC9C6" stroke-width="0.817153" stroke-miterlimit="10" stroke-linecap="round"/>
</g>
<path d="M246.433 822.379L247.108 834.919C247.108 834.919 248.675 835.449 249.326 836.197C249.978 836.968 250.87 839.524 251.979 839.549C256.344 839.717 258.924 833.978 258.924 833.978V821.028L246.457 822.355L246.433 822.379Z" fill="#FF9A8D"/>
<path d="M178.017 852.376C177.245 853.438 174.93 854.016 171.193 850.64C167.455 847.264 164.609 839.33 163.765 836.051C162.921 832.747 162.921 830.504 159.883 826.477C156.82 822.45 153.782 814.95 154.602 811.839C155.132 810.658 157.206 810.296 157.206 810.296L178.041 852.376H178.017Z" fill="#AAEEED"/>
<path d="M172.084 806.152C168.732 806.996 160.34 807.912 157.181 810.3C156.024 814.689 159.014 821.489 162.68 825.926C166.345 830.363 165.429 835.114 168.057 841.625C170.637 847.991 174.809 852.356 178.017 852.38C181.513 852.404 178.547 840.54 177.317 832.1C175.943 822.647 177.993 816.449 177.993 816.449L172.084 806.176V806.152Z" fill="#03AA99"/>
<mask id="mask4_77_5917" style="mask-type:luminance" maskUnits="userSpaceOnUse" x="156" y="806" width="24" height="47">
<path d="M172.083 806.151C168.731 806.995 160.339 807.911 157.18 810.299C156.023 814.688 159.013 821.488 162.679 825.925C166.344 830.362 165.428 835.113 168.056 841.624C170.637 847.99 174.808 852.355 178.016 852.379C181.512 852.403 178.546 840.539 177.316 832.099C175.942 822.646 177.992 816.448 177.992 816.448L172.083 806.175V806.151Z" fill="white"/>
</mask>
<g mask="url(#mask4_77_5917)">
<path d="M172.421 822.136C172.421 822.136 177.292 821.654 179.583 822.98" stroke="#AAEEED" stroke-width="0.817153" stroke-miterlimit="10" stroke-linecap="round"/>
<path d="M172.854 828.821C172.854 828.821 177.725 828.339 180.016 829.665" stroke="#AAEEED" stroke-width="0.817153" stroke-miterlimit="10" stroke-linecap="round"/>
<path d="M173.288 835.471C173.288 835.471 178.159 834.988 180.45 836.315" stroke="#AAEEED" stroke-width="0.817153" stroke-miterlimit="10" stroke-linecap="round"/>
</g>
<path d="M179.584 798.455L172.085 806.148C172.085 806.148 172.278 807.788 171.868 808.704C171.458 809.62 169.529 811.525 169.963 812.538C171.675 816.565 177.969 816.421 177.969 816.421L188.796 807.932L179.584 798.455Z" fill="#FF9A8D"/>
<path d="M272.428 628.857C257.284 628.857 244.334 629.991 244.334 629.991C239.487 632.113 231.192 643.109 228.732 650.103C226.272 657.096 227.285 668.768 228.563 674.772C235.677 708.244 241.899 728.525 244.672 741.788C246.36 749.914 238.016 753.676 239.294 768.459C240.886 786.81 246.432 822.38 246.432 822.38C246.432 822.38 252.196 825.587 258.9 822.525C258.9 822.525 265.7 756.835 266.592 749.384C267.774 739.352 269.221 732.865 270.306 712.102C271.777 684.249 272.428 628.857 272.428 628.857Z" fill="#1E4174"/>
<path d="M188.82 807.939C188.82 807.939 247.178 765.159 250.723 761.277C254.243 757.37 256.293 667.735 257.21 661.971C257.21 661.971 271.992 640.943 272.426 628.837L241.535 624.858C239.557 632.286 229.116 632.382 221.182 650.107C214.261 665.564 224.871 708.296 228.465 750.787C228.465 750.787 222.364 750.859 215.008 756.116C208.256 760.939 179.632 798.438 179.632 798.438C179.632 798.438 181.802 805.576 188.844 807.915L188.82 807.939Z" fill="#85B8ED"/>
<path d="M241.51 624.883C239.533 632.31 229.091 632.406 221.157 650.131C214.236 665.589 224.847 708.32 228.44 750.811C228.44 750.811 222.339 750.883 214.984 756.14C208.232 760.963 179.607 798.462 179.607 798.462C179.607 798.462 180.258 800.56 181.971 802.875C187.879 795.472 203.698 777.627 212.958 767.981C225.209 755.224 233.07 754.814 233.673 752.113C234.252 749.412 233.649 709.333 231.527 684.326C229.405 659.319 231.527 649.19 238.834 640.099C243.898 633.805 246.454 627.198 246.454 627.198C258.029 636.602 269.001 634.215 271.726 633.419C272.112 631.804 272.378 630.26 272.426 628.837L241.535 624.858L241.51 624.883Z" fill="#4E7EAC"/>
<mask id="mask5_77_5917" style="mask-type:luminance" maskUnits="userSpaceOnUse" x="179" y="624" width="94" height="184">
<path d="M188.818 807.939C188.818 807.939 247.176 765.159 250.721 761.276C254.242 757.37 256.291 667.734 257.208 661.971C257.208 661.971 271.99 640.943 272.424 628.837L241.533 624.858C239.556 632.285 229.114 632.382 221.18 650.106C214.259 665.564 224.87 708.296 228.463 750.786C228.463 750.786 222.362 750.858 215.007 756.116C208.254 760.939 179.63 798.437 179.63 798.437C179.63 798.437 181.8 805.575 188.842 807.914L188.818 807.939Z" fill="white"/>
</mask>
<g mask="url(#mask5_77_5917)">
<path d="M258.509 620.835C251.733 633.664 241.749 642.466 238.445 651.003C235.166 659.539 236.396 676.854 237.023 708.42C237.625 739.432 238.373 753.588 237.023 755.71C235.696 757.832 226.653 759.882 212.498 773.507C198.342 787.132 180.738 807.943 180.738 807.943" stroke="#274D79" stroke-width="0.817153" stroke-miterlimit="10"/>
<path d="M267.552 623.389C267.552 623.389 265.695 645.84 244.401 641.113" stroke="#274D79" stroke-width="0.817153" stroke-miterlimit="10"/>
<path d="M181.822 791.878C182.811 797.015 187.755 803.839 195.061 806.661" stroke="#274D79" stroke-width="0.817153" stroke-miterlimit="10"/>
</g>
<path d="M245.418 554.658C245.418 554.658 240.523 557.021 236.447 561.844C232.975 566.643 231.383 580.919 233.409 591.964C234.639 598.692 243.344 618.732 239.703 627.365C239.703 627.365 260.225 634.262 273.729 628.86C274.525 624.809 274.356 617.429 274.911 605.034C277.539 602.189 280.12 596.956 280.361 593.58C281.229 580.992 269.847 575.903 260.586 568.5C256.849 565.51 254.027 559.409 250.289 556.539C247.854 554.658 245.418 554.658 245.418 554.658Z" fill="#FFB852"/>
<path d="M253.765 540.818L247.977 545.979L245.421 554.66C245.421 554.66 249.062 557.096 250.461 559.218C252.173 561.798 255.983 567.972 260.589 568.502C260.589 568.502 260.131 562.932 260.83 559.917C261.53 556.903 263.628 550.947 263.628 550.947L253.789 540.818H253.765Z" fill="#FF9A8D"/>
<path d="M253.764 540.818C253.764 540.818 252.51 545.665 252.727 548.149C252.944 550.609 255.115 555.746 260.806 559.917C261.505 556.903 263.603 550.947 263.603 550.947L253.764 540.818Z" fill="#BA5964"/>
<path d="M268.448 505.508C273.85 505.99 279.252 513.466 279.156 520.291C279.059 527.091 277.492 530.805 277.926 535.604C278.36 540.402 278.336 545.032 276.31 550.072C274.96 553.424 271.463 554.172 266.809 553.063C262.54 552.026 256.704 547.926 255.378 546.624C254.028 545.322 253.787 540.812 253.787 540.812C253.787 540.812 247.42 539.872 244.502 534.06C241.584 528.248 242.115 503.121 268.473 505.532L268.448 505.508Z" fill="#FF9A8D"/>
<path d="M253.764 540.815C253.764 540.815 247.953 538.548 248.483 532.085C249.014 525.454 257.936 525.213 257.574 531.048C257.574 531.048 262.759 530.59 264.254 528.299C265.75 526.008 267.196 514.723 267.196 514.723C267.196 514.723 268.981 517.52 269.897 521.499C270.814 525.478 273.804 525.984 279.013 523.5C284.222 521.017 287.863 516.073 288.876 511.274C288.876 511.274 284.583 511.154 282.075 509.755C282.075 509.755 287.959 509.538 290.419 505.8C290.419 505.8 284.559 508.356 280.725 506.355C276.915 504.353 271.32 499.337 264.182 500.205C257.068 501.074 253.065 505.462 253.065 505.462C253.065 505.462 246.409 502.689 241.418 506.62C236.426 510.551 232.929 520.727 237.197 531.241C241.466 541.755 247.977 545.951 247.977 545.951L253.764 540.791V540.815Z" fill="#001C45"/>
<path d="M240.018 508.672C240.018 508.672 234.11 501.365 225.718 503.511C217.977 505.489 213.082 511.542 213.227 523.117C213.371 535.03 228.709 552.079 215.614 562.448C215.614 562.448 235.171 562.738 230.372 538.984C226.707 520.85 233.097 513.64 238.62 515.906L240.018 508.696V508.672Z" fill="#001C45"/>
<path d="M252.149 530.689C253.114 530.352 254.561 530.4 255.38 531.051C255.694 531.292 255.163 531.799 254.874 531.678C253.234 531.075 251.209 530.979 250.413 532.908C250.365 533.005 250.292 532.908 250.316 532.836C250.533 531.775 251.112 531.051 252.149 530.689Z" fill="#BA5964"/>
<path d="M252.92 530.858C253.113 530.761 253.523 531.22 253.475 531.364C253.21 531.485 252.775 531.798 252.582 532.16C252.245 532.787 252.124 533.318 252.197 534.017C252.341 535.657 253.258 536.838 254.849 537.2C254.873 537.2 254.922 537.297 254.873 537.297C253.475 537.634 251.907 536.211 251.594 534.957C251.232 533.583 251.329 531.606 252.92 530.858Z" fill="#BA5964"/>
<path d="M242.588 555.961L245.964 554.032C245.964 554.032 259.613 569.972 261.229 582.198C262.386 590.928 256.574 623.603 256.574 623.603C256.574 623.603 240.61 624.881 232.339 618.973C232.339 618.973 237.162 611.16 234.485 599.657C232.99 593.243 231.76 587.624 231.64 579.835C231.495 570.647 234.558 562.689 242.612 555.937L242.588 555.961Z" fill="#17A9E1"/>
<path d="M258.511 610.16L238.447 589.614C238.544 589.831 248.841 614.91 252.12 622.892C254.725 622.916 256.461 622.796 256.461 622.796C256.461 622.796 257.45 617.274 258.511 610.184V610.16Z" fill="#17A9E1"/>
<path d="M247.456 562.368C240.511 564.827 231.781 575.342 236.29 585.832C240.052 594.561 256.209 624.102 259.007 626.152C261.249 627.816 283.7 619.279 289.681 617.832C289.681 617.832 288.475 611.49 286.522 605.919L267.182 609.898C267.182 609.898 264.071 603.267 260.743 595.14C256.137 583.926 250.591 569.506 247.48 562.368H247.456Z" fill="#17A9E1"/>
<path d="M312.069 594.683C312.624 594.321 329.528 583.349 335.871 579.225C337.173 578.381 337.486 576.621 336.594 575.367C335.75 574.185 334.11 573.896 332.905 574.692L311.9 588.654C311.9 588.654 305.824 594.683 312.093 594.683H312.069Z" fill="#001C45"/>
<path d="M286.388 605.073L304.426 599.985C304.426 599.985 304.667 593.643 307.078 589.519C309.779 584.913 310.358 581.248 311.708 582.815C313.083 584.407 312.938 585.709 311.901 588.651C310.864 591.593 312.094 594.68 312.094 594.68L326.129 585.589C326.129 585.589 324.272 591.81 321.644 595.982C318.798 600.492 316.821 603.964 309.273 608.16C301.725 612.356 289.595 616.528 289.595 616.528L286.436 605.122L286.388 605.073Z" fill="#FF9A8D"/>
<path d="M260.608 594.302C260.656 593.723 260.729 593.169 260.777 592.614L254.29 579.857L260.608 594.302Z" fill="#17A9E1"/>
<path d="M286.388 604.285C286.388 604.285 289.547 607.854 289.884 617.573" stroke="#FFB852" stroke-width="1.61889" stroke-miterlimit="10" stroke-linecap="round"/>
<path d="M345.887 481.543L335.944 497.428V481.543H345.887Z" fill="white" stroke="#E4E4E4" stroke-width="1.5418"/>
<path d="M369.875 482.269H252.218C245.047 482.269 239.219 476.441 239.219 469.271C239.219 462.1 245.047 456.272 252.218 456.272H369.875C377.045 456.272 382.873 462.1 382.873 469.271C382.873 476.441 377.045 482.269 369.875 482.269Z" fill="white" stroke="#E4E4E4" stroke-width="1.5418"/>
<path d="M264.542 460.319L267.194 465.697L273.127 466.565L268.834 470.761L269.847 476.669L264.542 473.872L259.212 476.669L260.225 470.761L255.933 466.565L261.889 465.697L264.542 460.319Z" fill="#F89939"/>
<path d="M288.078 460.319L290.731 465.697L296.663 466.565L292.371 470.761L293.383 476.669L288.078 473.872L282.773 476.669L283.786 470.761L279.493 466.565L285.425 465.697L288.078 460.319Z" fill="#F89939"/>
<path d="M311.616 460.319L314.269 465.697L320.225 466.565L315.909 470.761L316.946 476.669L311.616 473.872L306.311 476.669L307.324 470.761L303.031 466.565L308.964 465.697L311.616 460.319Z" fill="#F89939"/>
<path d="M335.175 460.319L337.828 465.697L343.76 466.565L339.468 470.761L340.481 476.669L335.175 473.872L329.846 476.669L330.859 470.761L326.566 466.565L332.499 465.697L335.175 460.319Z" fill="#F89939"/>
<path d="M358.712 460.319L361.364 465.697L367.297 466.565L363.004 470.761L364.017 476.669L358.712 473.872L353.382 476.669L354.419 470.761L350.103 466.565L356.059 465.697L358.712 460.319Z" fill="#F89939"/>
<path d="M939.278 587.406L924.182 581.522C924.182 581.522 923.941 576.385 921.698 573.009C918.226 567.776 917.02 562.206 915.549 563.628C914.054 565.099 914.44 567.752 915.211 570.766C915.983 573.781 914.488 576.747 914.488 576.747L901.321 566.426C901.321 566.426 900.863 573.877 903.13 578.242C905.565 582.993 908.58 586.513 915.718 591.361C922.856 596.208 934.503 602.719 934.503 602.719L939.278 587.43V587.406Z" fill="#BA5964"/>
<path d="M939.279 587.409L961.489 594.908V612.199L934.504 602.698L939.279 587.409Z" fill="#17A9E1"/>
<path d="M939.448 586.469L934.625 602.24" stroke="#FFB852" stroke-width="1.61889" stroke-miterlimit="10" stroke-linecap="round"/>
<path d="M943.117 849.394C942.514 850.552 942.972 852.891 947.602 854.82C952.232 856.749 960.649 855.929 963.976 855.278C967.304 854.627 969.354 853.663 974.274 854.675C979.217 855.712 987.296 855.254 989.755 853.18C990.599 852.192 990.045 850.166 990.045 850.166L943.093 849.37L943.117 849.394Z" fill="#8FC9C6"/>
<path d="M987.392 834.954C988.067 838.354 990.84 846.312 990.044 850.194C986.572 853.136 979.144 853.329 973.574 851.931C968.003 850.532 964.072 853.377 957.079 853.787C950.206 854.197 944.491 852.292 943.092 849.399C941.573 846.264 953.558 843.828 961.709 841.32C970.849 838.523 975.575 834.013 975.575 834.013L987.392 834.93V834.954Z" fill="#228C7E"/>
<mask id="mask6_77_5917" style="mask-type:luminance" maskUnits="userSpaceOnUse" x="942" y="834" width="49" height="20">
<path d="M987.392 834.953C988.067 838.353 990.84 846.311 990.044 850.194C986.572 853.136 979.144 853.329 973.574 851.93C968.003 850.531 964.072 853.377 957.079 853.787C950.206 854.197 944.491 852.292 943.092 849.398C941.573 846.263 953.558 843.827 961.709 841.32C970.849 838.522 975.575 834.013 975.575 834.013L987.392 834.929V834.953Z" fill="white"/>
</mask>
<g mask="url(#mask6_77_5917)">
<path d="M972.824 841.487C972.824 841.487 971.185 836.881 968.99 835.386" stroke="#8FC9C6" stroke-width="0.817153" stroke-miterlimit="10" stroke-linecap="round"/>
<path d="M966.604 843.968C966.604 843.968 964.964 839.362 962.77 837.867" stroke="#8FC9C6" stroke-width="0.817153" stroke-miterlimit="10" stroke-linecap="round"/>
<path d="M960.383 846.426C960.383 846.426 958.743 841.82 956.549 840.325" stroke="#8FC9C6" stroke-width="0.817153" stroke-miterlimit="10" stroke-linecap="round"/>
</g>
<path d="M987.392 821.426V834.954C987.392 834.954 985.824 835.484 985.173 836.232C984.522 837.004 983.63 839.56 982.52 839.584C978.156 839.753 975.575 834.014 975.575 834.014L973.936 821.715L987.392 821.401V821.426Z" fill="#FF9A8D"/>
<path d="M1054 852.388C1054.77 853.449 1057.08 854.028 1060.82 850.651C1064.56 847.275 1067.4 839.342 1068.25 836.062C1069.09 832.782 1069.09 830.516 1072.13 826.488C1075.19 822.461 1078.23 814.961 1077.41 811.851C1076.88 810.669 1074.81 810.307 1074.81 810.307L1053.97 852.388H1054Z" fill="#AAEEED"/>
<path d="M1059.92 806.164C1063.28 807.008 1071.67 807.924 1074.83 810.312C1075.98 814.701 1072.99 821.501 1069.33 825.938C1065.66 830.375 1066.58 835.126 1063.95 841.637C1061.37 848.004 1057.2 852.368 1053.99 852.392C1050.5 852.417 1053.46 840.552 1054.69 832.112C1056.07 822.659 1054.02 816.461 1054.02 816.461L1059.92 806.188V806.164Z" fill="#03AA99"/>
<mask id="mask7_77_5917" style="mask-type:luminance" maskUnits="userSpaceOnUse" x="1052" y="806" width="24" height="47">
<path d="M1059.92 806.164C1063.27 807.008 1071.67 807.924 1074.83 810.312C1075.98 814.701 1072.99 821.501 1069.33 825.938C1065.66 830.375 1066.58 835.126 1063.95 841.637C1061.37 848.004 1057.2 852.368 1053.99 852.392C1050.49 852.417 1053.46 840.552 1054.69 832.112C1056.06 822.659 1054.01 816.461 1054.01 816.461L1059.92 806.188V806.164Z" fill="white"/>
</mask>
<g mask="url(#mask7_77_5917)">
<path d="M1059.61 822.149C1059.61 822.149 1054.74 821.667 1052.45 822.994" stroke="#AAEEED" stroke-width="0.817153" stroke-miterlimit="10" stroke-linecap="round"/>
<path d="M1059.15 828.835C1059.15 828.835 1054.28 828.352 1051.99 829.679" stroke="#AAEEED" stroke-width="0.817153" stroke-miterlimit="10" stroke-linecap="round"/>
<path d="M1058.71 835.484C1058.71 835.484 1053.84 835.002 1051.55 836.328" stroke="#AAEEED" stroke-width="0.817153" stroke-miterlimit="10" stroke-linecap="round"/>
</g>
<path d="M1052.43 798.467L1059.93 806.159C1059.93 806.159 1059.73 807.799 1060.14 808.716C1060.55 809.632 1062.48 811.537 1062.05 812.55C1060.34 816.577 1054.04 816.432 1054.04 816.432L1043.21 807.944L1052.43 798.467Z" fill="#FF9A8D"/>
<path d="M961.299 628.868C976.443 628.868 987.705 630.002 987.705 630.002C992.552 632.124 1000.85 643.12 1003.31 650.114C1005.77 657.107 1004.75 668.779 1003.48 674.783C996.362 708.255 984.497 727.547 981.724 740.834C980.036 748.961 988.066 744.596 988.066 765.166C988.066 783.566 987.391 822.825 987.391 822.825C987.391 822.825 981.724 826.129 974.224 823.862C974.224 823.862 962.866 759.137 961.612 751.71C959.586 739.701 958.887 734.661 958.67 713.874C958.357 684.646 961.275 628.844 961.275 628.844L961.299 628.868Z" fill="#1E4174"/>
<path d="M1043.22 807.941C1043.22 807.941 984.86 765.162 981.315 761.279C977.794 757.372 976.251 677.094 975.31 671.33C975.31 671.33 961.01 656.765 960.576 644.683L1007 621.437C1008.97 628.864 1007.75 633.253 1012.59 652.087C1017.99 673.115 1007.14 708.347 1003.57 750.837C1003.57 750.837 1009.67 750.91 1017.03 756.167C1023.78 760.99 1052.41 798.488 1052.41 798.488C1052.41 798.488 1050.24 805.626 1043.19 807.966L1043.22 807.941Z" fill="#85B8ED"/>
<path d="M1052.43 798.464C1052.43 798.464 1051.78 800.562 1050.07 802.877C1044.16 795.45 1028.32 777.629 1019.08 767.983C1006.83 755.226 998.944 754.816 998.365 752.115C997.786 749.415 998.413 709.36 1000.51 684.328C1002.63 659.321 1000.51 649.193 993.204 640.126C990.648 636.942 988.719 633.663 987.465 631.227L1007.02 621.437C1009 628.888 1007.77 633.253 1012.62 652.111C1018.04 673.163 1007.17 708.371 1003.6 750.837C1003.6 750.837 1004.47 750.861 1005.91 751.151C1006.9 751.344 1008.13 751.681 1009.58 752.188C1011 752.718 1012.62 753.442 1014.35 754.43C1015.25 754.937 1016.14 755.516 1017.03 756.167C1018.52 757.228 1021.03 759.832 1024.07 763.281C1029.74 769.695 1037.17 778.955 1043 786.383C1043.89 787.516 1044.74 788.601 1045.56 789.638C1049.61 794.823 1052.43 798.464 1052.43 798.464Z" fill="#4E7EAC"/>
<path d="M963.663 655.147C963.663 655.147 972.754 663.347 987.464 663.347C1002.17 663.347 1011.94 656.98 1011.94 656.98L1007.87 647.117L963.639 655.147H963.663Z" fill="#4E7EAC"/>
<mask id="mask8_77_5917" style="mask-type:luminance" maskUnits="userSpaceOnUse" x="960" y="621" width="93" height="187">
<path d="M1043.22 807.942C1043.22 807.942 984.862 765.163 981.317 761.28C977.796 757.373 976.253 677.095 975.312 671.331C975.312 671.331 961.012 656.766 960.578 644.684L1006.01 621.438C1007.99 628.865 1007.14 633.423 1012.59 652.088C1017.8 669.909 1007.14 708.348 1003.57 750.838C1003.57 750.838 1009.68 750.911 1017.03 756.168C1023.78 760.991 1052.41 798.489 1052.41 798.489C1052.41 798.489 1050.24 805.627 1043.2 807.967L1043.22 807.942Z" fill="white"/>
</mask>
<g mask="url(#mask8_77_5917)">
<path d="M973.523 620.835C980.3 633.664 990.283 642.466 993.587 651.003C996.867 659.539 995.637 676.854 995.01 708.42C994.407 739.432 993.659 753.588 995.01 755.71C996.336 757.832 1005.38 759.882 1019.53 773.507C1033.69 787.132 1051.29 807.943 1051.29 807.943" stroke="#274D79" stroke-width="0.817153" stroke-miterlimit="10"/>
<path d="M981.625 654.887C981.625 654.887 981.721 672.226 995.732 673.215" stroke="#274D79" stroke-width="0.817153" stroke-miterlimit="10"/>
<path d="M1050.18 791.878C1049.2 797.014 1044.25 803.839 1036.95 806.66" stroke="#274D79" stroke-width="0.817153" stroke-miterlimit="10"/>
</g>
<path d="M962.286 550.752C961.297 551.813 960.984 553.839 962.72 560.012L984.351 541.83L962.31 550.752H962.286Z" fill="#17A9E1"/>
<path d="M980.083 541.834L964.336 556.086L958.693 541.279L974.079 525.001L980.083 541.834Z" fill="#FF9A8D"/>
<path d="M961.177 547.79C961.177 547.79 976.394 536.143 974.079 525.001L958.693 541.279L961.177 547.79Z" fill="#BA5964"/>
<path d="M974.032 524.995C974.032 524.995 973.694 527.455 973.163 529.384C972.633 531.313 960.358 540.814 956.838 542.285C953.317 543.756 948.253 544.383 945.793 531.916C943.333 519.449 943.454 508.018 950.061 500.205C956.669 492.392 969.763 495.213 976.901 501.652C984.039 508.09 983.075 524.899 974.032 525.019V524.995Z" fill="#FF9A8D"/>
<path d="M974.031 525.001L976.37 531.44C976.37 531.44 978.998 530.378 981.289 525.001C983.797 519.117 988.548 508.94 986.402 503.924C983.58 497.341 975.068 497.076 975.068 497.076C975.068 497.076 967.52 485.573 950.036 483.258C932.553 480.943 928.815 494.158 943.164 499.126C943.164 499.126 936.001 505.637 942.151 507.325C948.3 509.013 963.251 504.383 963.251 504.383C963.251 504.383 956.644 509.278 959.441 510.749C962.238 512.22 971.523 508.675 971.523 508.675L971.667 513.812C971.667 513.812 975.237 511.521 978.034 513.45C981.386 515.765 979.842 525.049 974.031 524.977V525.001Z" fill="#001C45"/>
<path d="M972.463 481.952C972.463 481.952 979.939 490.706 973.114 499.942C973.114 499.942 981.747 497.217 981.289 488.439" stroke="#001C45" stroke-width="1.21802" stroke-miterlimit="10" stroke-linecap="round"/>
<path d="M918.01 580.142C917.479 579.732 901.636 567.313 895.679 562.635C894.474 561.67 894.305 559.91 895.294 558.728C896.234 557.619 897.898 557.474 899.031 558.391L918.709 574.162C918.709 574.162 924.231 580.697 917.986 580.142H918.01Z" fill="#001C45"/>
<path d="M964.479 558.517C964.479 558.517 962.261 553.164 963.225 551.741C966.457 547.038 976.971 533.196 978.442 534.523C979.913 535.849 984.35 541.805 984.35 541.805L964.504 558.493L964.479 558.517Z" fill="#17A9E1"/>
<path d="M962.721 560.012C961.37 566.234 961.491 576.483 960.647 598.21C960.092 612.197 958.693 652.758 958.693 652.758C958.693 652.758 969.4 659.776 987.366 658.329C1004.54 656.954 1011.96 648.514 1011.96 648.514C1011.96 648.514 1010.18 591.458 1004.54 569.007C996.192 545.857 984.352 541.83 984.352 541.83L962.721 560.012Z" fill="#17A9E1"/>
<path d="M990.233 568.016L974.317 609.108L960.354 605.346C960.113 611.616 959.968 617.259 959.703 624.855C963.007 626.278 967.01 627.676 972.002 629.075C976.366 630.305 977.572 629.485 979.308 626.519C983.746 619.019 997.853 583.04 997.853 583.04L990.233 568.04V568.016Z" fill="#17A9E1"/>
<path d="M980.106 556.079C977.261 558.515 975.934 560.878 973.258 568.595C970.267 577.204 963.877 599.462 963.877 599.462L964.914 599.872L980.106 556.103V556.079Z" fill="#17A9E1"/>
<path d="M994.84 550.846C986.738 546.722 979.744 552.196 974.68 568.209C969.857 583.425 964.914 599.848 964.914 599.848L942.8 591.263L938.025 606.117C938.025 606.117 958.644 618.995 967.807 622.274C976.826 625.482 978.563 623.239 992.308 595.242C1002.56 574.382 1008.1 557.598 994.84 550.87V550.846Z" fill="#17A9E1"/>
<path d="M942.8 591.26L927.704 584.918C927.704 584.918 927.462 579.781 925.22 576.405C921.747 571.172 920.541 565.602 919.07 567.024C917.575 568.495 917.961 571.148 918.733 574.162C919.504 577.177 918.009 580.143 918.009 580.143L904.843 569.822C904.843 569.822 904.384 577.273 906.651 581.638C909.087 586.389 912.101 589.909 919.239 594.757C926.377 599.604 938.025 606.115 938.025 606.115L942.8 591.26Z" fill="#FF9A8D"/>
<path d="M984.329 541.83L964.482 558.517L962.722 560.012C962.143 561.122 962.023 562.134 962.24 563.027L984.353 541.83H984.329Z" fill="#17A9E1"/>
<path d="M942.895 590.3L937.928 607.156" stroke="#FFB852" stroke-width="1.61889" stroke-miterlimit="10" stroke-linecap="round"/>
<path d="M976.562 515.499C975.597 515.161 974.15 515.21 973.33 515.861C973.017 516.102 973.547 516.608 973.837 516.488C975.477 515.885 977.502 515.788 978.298 517.718C978.346 517.814 978.419 517.718 978.395 517.645C978.178 516.584 977.599 515.861 976.562 515.499Z" fill="#BA5964"/>
<path d="M975.79 515.644C975.597 515.547 975.187 516.005 975.236 516.15C975.501 516.271 975.935 516.584 976.128 516.946C976.466 517.573 976.586 518.103 976.514 518.803C976.369 520.442 975.453 521.624 973.861 521.986C973.837 521.986 973.789 522.082 973.837 522.082C975.236 522.42 976.803 520.997 977.117 519.743C977.478 518.369 977.382 516.391 975.79 515.644Z" fill="#BA5964"/>
<path d="M915.524 467.703V483.609L905.581 467.703H915.524Z" fill="white" stroke="#E4E4E4" stroke-width="1.5418"/>
<path d="M999.251 468.453H881.594C874.423 468.453 868.595 462.625 868.595 455.454C868.595 448.284 874.423 442.455 881.594 442.455H999.251C1006.42 442.455 1012.25 448.284 1012.25 455.454C1012.25 462.625 1006.42 468.453 999.251 468.453Z" fill="white" stroke="#E4E4E4" stroke-width="1.5418"/>
<path d="M986.929 449.372L988.448 452.459L988.737 453.062L989.388 453.158L992.789 453.64L990.329 456.028L989.847 456.486L989.967 457.137L990.546 460.513L987.507 458.922L986.929 458.608L986.35 458.922L983.311 460.513L983.89 457.137L984.011 456.486L983.528 456.028L981.069 453.64L984.469 453.158L985.12 453.062L985.409 452.459L986.929 449.372ZM986.929 446.502L984.276 451.88L978.344 452.748L982.636 456.944L981.623 462.852L986.929 460.055L992.234 462.852L991.221 456.944L995.514 452.748L989.581 451.88L986.929 446.502Z" fill="#F89939"/>
<path d="M963.392 446.502L960.74 451.88L954.783 452.748L959.1 456.944L958.087 462.852L963.392 460.055L968.698 462.852L967.685 456.944L971.977 452.748L966.045 451.88L963.392 446.502Z" fill="#F89939"/>
<path d="M939.857 446.502L937.18 451.88L931.248 452.748L935.541 456.944L934.528 462.852L939.857 460.055L945.162 462.852L944.15 456.944L948.442 452.748L942.51 451.88L939.857 446.502Z" fill="#F89939"/>
<path d="M916.294 446.502L913.641 451.88L907.709 452.748L912.002 456.944L910.989 462.852L916.294 460.055L921.623 462.852L920.611 456.944L924.903 452.748L918.947 451.88L916.294 446.502Z" fill="#F89939"/>
<path d="M892.759 446.502L890.106 451.88L884.174 452.748L888.466 456.944L887.453 462.852L892.759 460.055L898.064 462.852L897.051 456.944L901.368 452.748L895.411 451.88L892.759 446.502Z" fill="#F89939"/>
<path d="M1097.38 863.062H102.786C100.688 863.062 99 861.349 99 859.276C99 857.178 100.712 855.465 102.786 855.465H1097.38C1099.48 855.465 1101.17 857.178 1101.17 859.276C1101.17 861.374 1099.46 863.062 1097.38 863.062Z" fill="#17A9E1"/>
<defs>
<filter id="filter0_d_77_5917" x="511.371" y="402.02" width="314.083" height="139.13" filterUnits="userSpaceOnUse" color-interpolation-filters="sRGB">
<feFlood flood-opacity="0" result="BackgroundImageFix"/>
<feColorMatrix in="SourceAlpha" type="matrix" values="0 0 0 0 0 0 0 0 0 0 0 0 0 0 0 0 0 0 127 0" result="hardAlpha"/>
<feOffset dx="3.0836" dy="6.16719"/>
<feGaussianBlur stdDeviation="9.25079"/>
<feColorMatrix type="matrix" values="0 0 0 0 0.109804 0 0 0 0 0.317647 0 0 0 0 0.458824 0 0 0 0.25 0"/>
<feBlend mode="normal" in2="BackgroundImageFix" result="effect1_dropShadow_77_5917"/>
<feBlend mode="normal" in="SourceGraphic" in2="effect1_dropShadow_77_5917" result="shape"/>
</filter>
<filter id="filter1_d_77_5917" x="511.371" y="531.688" width="314.083" height="139.13" filterUnits="userSpaceOnUse" color-interpolation-filters="sRGB">
<feFlood flood-opacity="0" result="BackgroundImageFix"/>
<feColorMatrix in="SourceAlpha" type="matrix" values="0 0 0 0 0 0 0 0 0 0 0 0 0 0 0 0 0 0 127 0" result="hardAlpha"/>
<feOffset dx="3.0836" dy="6.16719"/>
<feGaussianBlur stdDeviation="9.25079"/>
<feColorMatrix type="matrix" values="0 0 0 0 0.109804 0 0 0 0 0.317647 0 0 0 0 0.458824 0 0 0 0.25 0"/>
<feBlend mode="normal" in2="BackgroundImageFix" result="effect1_dropShadow_77_5917"/>
<feBlend mode="normal" in="SourceGraphic" in2="effect1_dropShadow_77_5917" result="shape"/>
</filter>
<filter id="filter2_d_77_5917" x="511.371" y="661.379" width="314.083" height="139.13" filterUnits="userSpaceOnUse" color-interpolation-filters="sRGB">
<feFlood flood-opacity="0" result="BackgroundImageFix"/>
<feColorMatrix in="SourceAlpha" type="matrix" values="0 0 0 0 0 0 0 0 0 0 0 0 0 0 0 0 0 0 127 0" result="hardAlpha"/>
<feOffset dx="3.0836" dy="6.16719"/>
<feGaussianBlur stdDeviation="9.25079"/>
<feColorMatrix type="matrix" values="0 0 0 0 0.109804 0 0 0 0 0.317647 0 0 0 0 0.458824 0 0 0 0.25 0"/>
<feBlend mode="normal" in2="BackgroundImageFix" result="effect1_dropShadow_77_5917"/>
<feBlend mode="normal" in="SourceGraphic" in2="effect1_dropShadow_77_5917" result="shape"/>
</filter>
<linearGradient id="paint0_linear_77_5917" x1="475.277" y1="223.548" x2="850.506" y2="330.161" gradientUnits="userSpaceOnUse">
<stop stop-color="#D8E9FF"/>
<stop offset="1" stop-color="#A7C8FF"/>
</linearGradient>
<linearGradient id="paint1_linear_77_5917" x1="559.842" y1="350.877" x2="569.563" y2="360.598" gradientUnits="userSpaceOnUse">
<stop stop-color="#A7C8FF"/>
<stop offset="1" stop-color="#D8E9FF"/>
</linearGradient>
<linearGradient id="paint2_linear_77_5917" x1="588.039" y1="352.784" x2="590.653" y2="363.975" gradientUnits="userSpaceOnUse">
<stop stop-color="#A7C8FF"/>
<stop offset="1" stop-color="#D8E9FF"/>
</linearGradient>
</defs>
</svg>
