<svg xmlns="http://www.w3.org/2000/svg" xmlns:xlink="http://www.w3.org/1999/xlink" width="1200" height="535" viewBox="0 0 1200 535">
  <defs>
    <clipPath id="clip-Integration_Upgrade">
      <rect width="1200" height="535"/>
    </clipPath>
  </defs>
  <g id="Integration_Upgrade" data-name="Integration/Upgrade" clip-path="url(#clip-Integration_Upgrade)">
    <rect width="1200" height="535" fill="#fff"/>
    <g id="Integration_Upgrade-2" data-name="Integration/Upgrade">
      <rect id="Rectangle_3" data-name="Rectangle 3" width="1200" height="535" fill="#fff"/>
      <path id="Path_56" data-name="Path 56" d="M689.713,3h-226.1a20.573,20.573,0,0,0-20.57,20.57V498.634a20.573,20.573,0,0,0,20.57,20.57h226.1a20.573,20.573,0,0,0,20.57-20.57V23.57A20.573,20.573,0,0,0,689.713,3ZM695.5,471.071a10.662,10.662,0,0,1-10.658,10.659H468.482a10.663,10.663,0,0,1-10.659-10.659V51.133a10.662,10.662,0,0,1,10.659-10.659h216.36A10.662,10.662,0,0,1,695.5,51.133Z"/>
      <path id="Path_57" data-name="Path 57" d="M468.482,40.473H684.841A10.662,10.662,0,0,1,695.5,51.132V471.069a10.662,10.662,0,0,1-10.659,10.659H468.482a10.663,10.663,0,0,1-10.659-10.659V51.132A10.662,10.662,0,0,1,468.482,40.473Z" fill="#fff" opacity="0.3"/>
      <path id="Path_58" data-name="Path 58" d="M564.7,28.61a6.873,6.873,0,1,0-6.873-6.873A6.873,6.873,0,0,0,564.7,28.61Z" fill="#fff" style="mix-blend-mode: multiply;isolation: isolate"/>
      <path id="Path_59" data-name="Path 59" d="M618.525,21.734a4.173,4.173,0,0,0-4.172-4.172h-27.37a4.172,4.172,0,1,0,0,8.344h27.37A4.173,4.173,0,0,0,618.525,21.734Z" fill="#fff" style="mix-blend-mode: multiply;isolation: isolate"/>
      <g id="Group_12" data-name="Group 12" style="mix-blend-mode: multiply;isolation: isolate">
        <path id="Path_60" data-name="Path 60" d="M800.614,216.419H538.725a7.6,7.6,0,0,0-7.6,7.6V310.95a7.6,7.6,0,0,0,7.6,7.6H800.614a7.6,7.6,0,0,0,7.6-7.6V224.015A7.6,7.6,0,0,0,800.614,216.419Z" fill="#fafafa"/>
      </g>
      <g id="Group_13" data-name="Group 13" style="mix-blend-mode: multiply;isolation: isolate">
        <path id="Path_61" data-name="Path 61" d="M800.614,86.751H538.725a7.6,7.6,0,0,0-7.6,7.6v86.935a7.6,7.6,0,0,0,7.6,7.6H800.614a7.6,7.6,0,0,0,7.6-7.6V94.347A7.6,7.6,0,0,0,800.614,86.751Z" fill="#fafafa"/>
      </g>
      <g id="Group_14" data-name="Group 14" style="mix-blend-mode: multiply;isolation: isolate">
        <path id="Path_62" data-name="Path 62" d="M800.614,346.109H538.725a7.6,7.6,0,0,0-7.6,7.6V440.64a7.6,7.6,0,0,0,7.6,7.6H800.614a7.6,7.6,0,0,0,7.6-7.6V353.706A7.6,7.6,0,0,0,800.614,346.109Z" fill="#fafafa"/>
      </g>
      <g id="Group_15" data-name="Group 15">
        <path id="Path_63" data-name="Path 63" d="M796.274,80.354H534.385a7.6,7.6,0,0,0-7.6,7.6v86.934a7.6,7.6,0,0,0,7.6,7.6H796.274a7.6,7.6,0,0,0,7.6-7.6V87.951A7.6,7.6,0,0,0,796.274,80.354Z" fill="#fff"/>
      </g>
      <path id="Path_64" data-name="Path 64" d="M607.766,158.386a38.126,38.126,0,1,0-53.918,0A38.126,38.126,0,0,0,607.766,158.386Z" fill="#fffff8"/>
      <path id="Path_65" data-name="Path 65" d="M713.486,104.349H635.908a3.786,3.786,0,0,0-3.786,3.786v8.826a3.786,3.786,0,0,0,3.786,3.786h77.578a3.786,3.786,0,0,0,3.786-3.786v-8.826A3.786,3.786,0,0,0,713.486,104.349Z" fill="#17a9e1"/>
      <path id="Path_66" data-name="Path 66" d="M779.344,134.5H633.376a1.253,1.253,0,0,0-1.254,1.254v.8a1.254,1.254,0,0,0,1.254,1.254H779.344a1.255,1.255,0,0,0,1.254-1.254v-.8A1.254,1.254,0,0,0,779.344,134.5Z" fill="#1bb9f5"/>
      <path id="Path_67" data-name="Path 67" d="M779.344,148.169H633.376a1.253,1.253,0,0,0-1.254,1.254v.8a1.254,1.254,0,0,0,1.254,1.254H779.344a1.255,1.255,0,0,0,1.254-1.254v-.8A1.254,1.254,0,0,0,779.344,148.169Z" fill="#1bb9f5"/>
      <path id="Path_68" data-name="Path 68" d="M779.344,161.865H633.376a1.254,1.254,0,0,0-1.254,1.254v.8a1.253,1.253,0,0,0,1.254,1.254H779.344a1.254,1.254,0,0,0,1.254-1.254v-.8A1.255,1.255,0,0,0,779.344,161.865Z" fill="#1bb9f5"/>
      <g id="Group_16" data-name="Group 16">
        <path id="Path_69" data-name="Path 69" d="M636.274,210.022H374.385a7.6,7.6,0,0,0-7.6,7.6v86.934a7.6,7.6,0,0,0,7.6,7.6H636.274a7.6,7.6,0,0,0,7.6-7.6V217.619A7.6,7.6,0,0,0,636.274,210.022Z" fill="#fff"/>
      </g>
      <path id="Path_70" data-name="Path 70" d="M420.8,299.222A38.125,38.125,0,1,0,382.679,261.1,38.126,38.126,0,0,0,420.8,299.222Z" fill="#fffff8"/>
      <path id="Path_71" data-name="Path 71" d="M553.486,234.017H475.908a3.786,3.786,0,0,0-3.786,3.786v8.826a3.786,3.786,0,0,0,3.786,3.786h77.578a3.786,3.786,0,0,0,3.786-3.786V237.8A3.786,3.786,0,0,0,553.486,234.017Z" fill="#17a9e1"/>
      <path id="Path_72" data-name="Path 72" d="M619.344,264.166H473.376a1.253,1.253,0,0,0-1.254,1.254v.8a1.254,1.254,0,0,0,1.254,1.254H619.344a1.255,1.255,0,0,0,1.254-1.254v-.8A1.254,1.254,0,0,0,619.344,264.166Z" fill="#1bb9f5"/>
      <path id="Path_73" data-name="Path 73" d="M619.344,277.861H473.376a1.254,1.254,0,0,0-1.254,1.254v.8a1.253,1.253,0,0,0,1.254,1.254H619.344a1.254,1.254,0,0,0,1.254-1.254v-.8A1.255,1.255,0,0,0,619.344,277.861Z" fill="#1bb9f5"/>
      <path id="Path_74" data-name="Path 74" d="M619.344,291.532H473.376a1.254,1.254,0,0,0-1.254,1.254v.8a1.253,1.253,0,0,0,1.254,1.254H619.344a1.254,1.254,0,0,0,1.254-1.254v-.8A1.255,1.255,0,0,0,619.344,291.532Z" fill="#1bb9f5"/>
      <g id="Group_17" data-name="Group 17">
        <path id="Path_75" data-name="Path 75" d="M796.274,339.714H534.385a7.6,7.6,0,0,0-7.6,7.6v86.934a7.6,7.6,0,0,0,7.6,7.6H796.274a7.6,7.6,0,0,0,7.6-7.6V347.31A7.6,7.6,0,0,0,796.274,339.714Z" fill="#fff"/>
      </g>
      <path id="Path_76" data-name="Path 76" d="M617.831,399.524A38.126,38.126,0,1,0,571.922,427.8,38.126,38.126,0,0,0,617.831,399.524Z" fill="#fffff8"/>
      <path id="Path_77" data-name="Path 77" d="M713.486,363.708H635.908a3.786,3.786,0,0,0-3.786,3.786v8.826a3.786,3.786,0,0,0,3.786,3.786h77.578a3.786,3.786,0,0,0,3.786-3.786v-8.826A3.786,3.786,0,0,0,713.486,363.708Z" fill="#17a9e1"/>
      <path id="Path_78" data-name="Path 78" d="M779.344,393.857H633.376a1.254,1.254,0,0,0-1.254,1.254v.8a1.253,1.253,0,0,0,1.254,1.254H779.344a1.254,1.254,0,0,0,1.254-1.254v-.8A1.255,1.255,0,0,0,779.344,393.857Z" fill="#1bb9f5"/>
      <path id="Path_79" data-name="Path 79" d="M779.344,407.529H633.376a1.254,1.254,0,0,0-1.254,1.254v.8a1.253,1.253,0,0,0,1.254,1.254H779.344a1.254,1.254,0,0,0,1.254-1.254v-.8A1.255,1.255,0,0,0,779.344,407.529Z" fill="#1bb9f5"/>
      <path id="Path_80" data-name="Path 80" d="M779.344,421.225H633.376a1.253,1.253,0,0,0-1.254,1.254v.795a1.253,1.253,0,0,0,1.254,1.254H779.344a1.254,1.254,0,0,0,1.254-1.254v-.795A1.254,1.254,0,0,0,779.344,421.225Z" fill="#1bb9f5"/>
      <path id="Path_81" data-name="Path 81" d="M617.831,399.537a38.126,38.126,0,1,0-45.909,28.276A38.126,38.126,0,0,0,617.831,399.537Z" fill="#e5f7ff"/>
      <g id="Group_18" data-name="Group 18">
        <path id="Path_82" data-name="Path 82" d="M583.026,365.456a14.923,14.923,0,0,1,14.927,14.927v38.632h-29.83V380.383a14.923,14.923,0,0,1,14.927-14.927Z" fill="#001c45"/>
        <path id="Path_83" data-name="Path 83" d="M576.609,420.347H563.563V383.933a11.681,11.681,0,0,1,11.672-11.671h1.35v48.085Z" fill="#001c45"/>
        <path id="Path_84" data-name="Path 84" d="M567.494,389.035s-2.6-1.23-4.148.482c-1.543,1.737-.8,5.667,1.857,6.8,2.532,1.085,3.69-.217,3.69-.217l-1.423-7.066Z" fill="#ff9a8d"/>
        <path id="Path_85" data-name="Path 85" d="M564.767,390.212a2.46,2.46,0,0,1,2.171.362c.193.169-.169.507-.362.41-1.085-.482-2.46-.6-3.087.651-.024.073-.072,0-.072-.048a1.863,1.863,0,0,1,1.326-1.4Z" fill="#ba5964"/>
        <path id="Path_86" data-name="Path 86" d="M565.274,390.359c.121-.049.386.265.362.361a1.366,1.366,0,0,0-.627.507,2.1,2.1,0,0,0-.338,1.254,2.255,2.255,0,0,0,1.688,2.266s.049.073,0,.073c-.964.193-1.977-.844-2.146-1.712a2.313,2.313,0,0,1,1.061-2.725Z" fill="#ba5964"/>
        <path id="Path_87" data-name="Path 87" d="M594.117,388.922s2.6-1.133,4.147.6.8,5.667-1.856,6.8c-2.532,1.086-3.69-.217-3.69-.217l1.423-7.186Z" fill="#ff9a8d"/>
        <path id="Path_88" data-name="Path 88" d="M596.841,390.224a2.52,2.52,0,0,0-2.194.362c-.193.169.169.506.362.41,1.085-.482,2.459-.6,3.086.651.025.072.073,0,.073-.048a1.862,1.862,0,0,0-1.327-1.4Z" fill="#ba5964"/>
        <path id="Path_89" data-name="Path 89" d="M596.312,390.37c-.121-.048-.386.265-.362.362a1.364,1.364,0,0,1,.627.506,2.1,2.1,0,0,1,.338,1.254,2.257,2.257,0,0,1-1.688,2.267s-.049.073,0,.073c.964.192,1.977-.845,2.146-1.713a2.314,2.314,0,0,0-1.061-2.725Z" fill="#ba5964"/>
        <path id="Path_90" data-name="Path 90" d="M554.328,428.9c0-5.86.94-9.356,4-10.369,1.4-.458,9.791-3.063,12.419-3.859,2.653-.795,3.352-2.363,3.352-3.713v-6.005H587.51v6.005c0,1.35.723,2.918,3.352,3.713s11.02,3.4,12.419,3.859c3.063.989,4,4.509,4,10.369H554.328Z" fill="#ff9a8d"/>
        <path id="Path_91" data-name="Path 91" d="M574.126,406.714s1.327,3.858,6.7,3.858,6.7-3.834,6.7-3.858v-1.736H574.126Z" fill="#ba5964"/>
        <path id="Path_92" data-name="Path 92" d="M587.074,374a12.043,12.043,0,0,0-12.54,0,14.406,14.406,0,0,0-7.114,12.564v.048a42.652,42.652,0,0,0,.242,4.316l.241,2.026a23.775,23.775,0,0,0,.988,4.678c1.93,6.005,7.283,10.032,11.913,10.032s9.984-4.027,11.913-10.032a25.641,25.641,0,0,0,.989-4.678l.241-2.026a33.089,33.089,0,0,0,.241-4.364A14.4,14.4,0,0,0,587.074,374Z" fill="#ff9a8d"/>
        <path id="Path_93" data-name="Path 93" d="M580.806,373.483a17.89,17.89,0,0,0,13.408,11.575s.94-6.1-3.617-9.815a15.8,15.8,0,0,0-9.791-3.472v1.712Z" fill="#001c45"/>
        <path id="Path_94" data-name="Path 94" d="M580.806,373.531A17.89,17.89,0,0,1,567.4,385.106s-.94-6.1,3.617-9.815a15.8,15.8,0,0,1,9.791-3.472v1.712Z" fill="#001c45"/>
        <path id="Path_95" data-name="Path 95" d="M603.3,418.556c-1.4-.458-9.79-3.063-12.419-3.859a5.813,5.813,0,0,1-1.688-.771,3.831,3.831,0,0,1,.121.916c0,2.363-3.811,4.268-8.489,4.268s-8.488-1.9-8.488-4.268a3.63,3.63,0,0,1,.1-.892,6.112,6.112,0,0,1-1.64.723c-2.652.8-11.02,3.4-12.419,3.859-3.063.988-4,4.509-4,10.369h52.981c0-5.86-.941-9.356-4-10.369Z" fill="#f89939"/>
        <path id="Path_96" data-name="Path 96" d="M561.125,417.66c-1.326.41-2.387.748-2.8.892-3.063.989-4,4.51-4,10.37H561.2V417.684h-.072Z" fill="#3ed9c7"/>
        <path id="Path_97" data-name="Path 97" d="M600.5,417.66c1.326.41,2.387.748,2.8.892,3.063.989,4,4.51,4,10.37h-6.872V417.684h.072Z" fill="#3ed9c7"/>
        <path id="Path_98" data-name="Path 98" d="M580.8,420.076c5.281,0,9.429-2.291,9.429-5.209v-.41a4.489,4.489,0,0,1-1.9-1.3c.024.531.048,1.375.048,1.688,0,1.592-3.111,3.352-7.572,3.352s-7.572-1.76-7.572-3.352c0-.313,0-1.109.048-1.64a4.836,4.836,0,0,1-1.9,1.254v.386c0,2.918,4.148,5.209,9.429,5.209Z" fill="#228c7e"/>
        <path id="Path_99" data-name="Path 99" d="M563.755,371.431s5.112,0,6.487,2.869" fill="none" stroke="#001c45" stroke-linecap="round" stroke-miterlimit="10" stroke-width="0.894"/>
        <path id="Path_100" data-name="Path 100" d="M564.55,366.564s5.908,2.2,5.715,8.224" fill="none" stroke="#001c45" stroke-linecap="round" stroke-miterlimit="10" stroke-width="0.894"/>
      </g>
      <path id="Path_101" data-name="Path 101" d="M420.807,299.223A38.125,38.125,0,1,0,382.681,261.1,38.126,38.126,0,0,0,420.807,299.223Z" fill="#e5f7ff"/>
      <g id="Group_19" data-name="Group 19">
        <path id="Path_102" data-name="Path 102" d="M407.5,259.015s-2.581-.916-4.124.8-.8,5.667,1.857,6.8c2.532,1.085,3.689-.217,3.689-.217l-1.447-7.38Z" fill="#ff9a8d"/>
        <path id="Path_103" data-name="Path 103" d="M404.8,260.532a2.519,2.519,0,0,1,2.194.361c.193.169-.168.507-.361.41-1.085-.482-2.46-.6-3.087.652-.024.072-.072,0-.072-.049a1.862,1.862,0,0,1,1.326-1.4Z" fill="#ba5964"/>
        <path id="Path_104" data-name="Path 104" d="M405.324,260.654c.121-.048.386.266.362.362a1.36,1.36,0,0,0-.627.507,2.1,2.1,0,0,0-.337,1.254,2.254,2.254,0,0,0,1.688,2.266s.048.073,0,.073c-.965.193-1.978-.844-2.147-1.712a2.313,2.313,0,0,1,1.061-2.725Z" fill="#ba5964"/>
        <path id="Path_105" data-name="Path 105" d="M434.166,259.015s2.581-.916,4.124.8c1.543,1.737.8,5.667-1.857,6.8-2.532,1.085-3.689-.217-3.689-.217l1.447-7.38Z" fill="#ff9a8d"/>
        <path id="Path_106" data-name="Path 106" d="M436.867,260.532a2.519,2.519,0,0,0-2.194.361c-.193.169.168.507.361.41,1.086-.482,2.46-.6,3.087.652.024.072.072,0,.072-.049a1.859,1.859,0,0,0-1.326-1.4Z" fill="#ba5964"/>
        <path id="Path_107" data-name="Path 107" d="M436.361,260.654c-.121-.048-.386.266-.362.362a1.355,1.355,0,0,1,.627.507,2.09,2.09,0,0,1,.338,1.254,2.255,2.255,0,0,1-1.688,2.266s-.048.073,0,.073c.964.193,1.977-.844,2.146-1.712a2.313,2.313,0,0,0-1.061-2.725Z" fill="#ba5964"/>
        <path id="Path_108" data-name="Path 108" d="M389.41,299.22c0-5.86,2.774-9.357,5.836-10.369,1.4-.459,11.624-3.063,14.276-3.859s3.352-2.363,3.352-3.714v-7.234h15.868v7.234c0,1.351.723,2.918,3.352,3.714,2.652.8,12.877,3.4,14.276,3.859,3.062.988,5.836,4.509,5.836,10.369h-62.8Z" fill="#ff9a8d"/>
        <path id="Path_109" data-name="Path 109" d="M412.9,274.068V276.6s2.87,4.51,7.958,4.51,7.91-4.461,7.91-4.461v-2.557H412.9Z" fill="#ba5964"/>
        <path id="Path_110" data-name="Path 110" d="M446.393,288.852c-1.4-.459-11.624-3.063-14.276-3.859a7.326,7.326,0,0,1-.869-.313,4.939,4.939,0,0,1,.386,1.953c0,3.81-4.847,6.9-10.8,6.9s-10.8-3.087-10.8-6.9a5.422,5.422,0,0,1,.386-1.953,7.306,7.306,0,0,1-.868.313c-2.653.8-12.877,3.4-14.276,3.859-3.063.988-5.836,4.509-5.836,10.369h62.82c0-5.86-2.774-9.357-5.836-10.369Z" fill="#3ed9c7"/>
        <path id="Path_111" data-name="Path 111" d="M427.125,244.306a12.618,12.618,0,0,0-6.27-1.76,12.928,12.928,0,0,0-6.39,1.64,14.442,14.442,0,0,0-6.993,12.636,37.9,37.9,0,0,0,.241,4.389l.241,2.026a30.7,30.7,0,0,0,1.9,7.6,11.681,11.681,0,0,0,21.993,0,30.693,30.693,0,0,0,1.9-7.6l.241-2.026a33.1,33.1,0,0,0,.241-4.365,14.4,14.4,0,0,0-7.114-12.564Z" fill="#ff9a8d"/>
        <path id="Path_112" data-name="Path 112" d="M407.449,259.334a2.382,2.382,0,0,0,.772-.458c.313-.289,1.037-1.037,1.037-3.762s.723-7.668,3.3-9.38c0,0,.121-1.3-.53-1.592-.892-.362-3.159.121-4.727,1.616-3.376,3.207-2,13.07-2,13.07a3.909,3.909,0,0,1,2.194.506Z" fill="#001c45"/>
        <path id="Path_113" data-name="Path 113" d="M434.675,259.186a2.543,2.543,0,0,1-1.012-.337c-.362-.29-1.206-1.013-1.206-3.738s-.724-7.669-3.3-9.381c0,0,2.1-2.1,5.088,0,3.015,2.122,2.2,13.1,2.2,13.1A3.675,3.675,0,0,0,434.675,259.186Z" fill="#001c45"/>
        <path id="Path_114" data-name="Path 114" d="M434.675,251.377v7.813a3.509,3.509,0,0,1,1.736-.361c1.785-19.244-7.282-23.344-16.928-21.607a9.689,9.689,0,0,0-8.006,7.861l1.061.651c1.254,0,1.881.82,2.845,1.568a22.782,22.782,0,0,0,3.111,2.1,11.974,11.974,0,0,0,5.956,1.688,1.893,1.893,0,0,0,1.447-.483,1.923,1.923,0,0,0,.1-1.881,8.031,8.031,0,0,0-1.182-2.194A8.808,8.808,0,0,0,430,248.966c1.254.12,2.05-.627,1.591-1.954C431.564,246.94,434.675,249.761,434.675,251.377Z" fill="#001c45"/>
        <path id="Path_115" data-name="Path 115" d="M410.8,245.007s.313-6.319,8.609-8.826c7.089-2.147,14.541.747,16.735,2.917,2.966,2.918.555,5.716-2.532,5.137C432.116,243.946,410.8,245.007,410.8,245.007Z" fill="#001c45"/>
        <path id="Path_116" data-name="Path 116" d="M404.987,241.726s5.112,0,6.487,2.869" fill="none" stroke="#001c45" stroke-linecap="round" stroke-miterlimit="10" stroke-width="0.894"/>
        <path id="Path_117" data-name="Path 117" d="M405.758,236.859s5.908,2.2,5.716,8.224" fill="none" stroke="#001c45" stroke-linecap="round" stroke-miterlimit="10" stroke-width="0.894"/>
      </g>
      <path id="Path_118" data-name="Path 118" d="M607.765,158.386a38.126,38.126,0,1,0-53.918,0A38.126,38.126,0,0,0,607.765,158.386Z" fill="#e5f7ff"/>
      <g id="Group_20" data-name="Group 20">
        <path id="Path_119" data-name="Path 119" d="M595.882,129.183s4.389-20.811-15.048-20.811-15.554,20.811-15.554,20.811Z" fill="#001c45"/>
        <path id="Path_120" data-name="Path 120" d="M570.633,108.931c-.41-3.714,2.869-7.114,7.355-7.6,4.461-.482,8.416,2.122,8.826,5.812.41,3.713-2.87,7.113-7.355,7.6C575,115.225,571.042,112.621,570.633,108.931Z" fill="#001c45"/>
        <path id="Path_121" data-name="Path 121" d="M567.449,128.9s-2.556-1.086-4.1.651-.8,5.667,1.857,6.8c2.532,1.085,3.69-.217,3.69-.217l-1.471-7.21Z" fill="#ba5964"/>
        <path id="Path_122" data-name="Path 122" d="M564.77,130.249a2.457,2.457,0,0,1,2.171.361c.193.169-.169.507-.362.41-1.085-.482-2.46-.6-3.087.651-.024.073-.072,0-.072-.048a1.863,1.863,0,0,1,1.326-1.4Z" fill="#893a47"/>
        <path id="Path_123" data-name="Path 123" d="M565.277,130.371c.121-.048.386.265.362.362a1.358,1.358,0,0,0-.627.506,2.092,2.092,0,0,0-.338,1.254,2.255,2.255,0,0,0,1.688,2.267s.048.072,0,.072c-.964.193-1.977-.844-2.146-1.712a2.314,2.314,0,0,1,1.061-2.725Z" fill="#893a47"/>
        <path id="Path_124" data-name="Path 124" d="M594.146,128.9s2.556-1.086,4.1.627.8,5.667-1.856,6.8c-2.533,1.085-3.69-.217-3.69-.217Z" fill="#ba5964"/>
        <path id="Path_125" data-name="Path 125" d="M596.846,130.249a2.519,2.519,0,0,0-2.194.361c-.193.169.168.507.361.41,1.086-.482,2.46-.6,3.087.651.024.073.072,0,.072-.048a1.86,1.86,0,0,0-1.326-1.4Z" fill="#893a47"/>
        <path id="Path_126" data-name="Path 126" d="M596.316,130.371c-.12-.048-.386.265-.361.362a1.368,1.368,0,0,1,.627.506,2.1,2.1,0,0,1,.337,1.254,2.256,2.256,0,0,1-1.688,2.267s-.048.072,0,.072c.965.193,1.978-.844,2.146-1.712a2.313,2.313,0,0,0-1.061-2.725Z" fill="#893a47"/>
        <path id="Path_127" data-name="Path 127" d="M595.252,156.655l-6.656-5.45H572.874l-6.536,5.45Z" fill="#3ed9c7"/>
        <path id="Path_128" data-name="Path 128" d="M572.873,151.205l-.458,3.352h16.76l-.579-3.352Z" fill="#228c7e"/>
        <path id="Path_129" data-name="Path 129" d="M554.333,169.526c0-5.86.94-9.357,4-10.345,1.4-.459,9.79-3.063,12.419-3.859,2.653-.8,3.352-2.363,3.352-3.714v-5.98h13.408v5.98c0,1.351.723,2.918,3.352,3.714,2.652.8,11.02,3.4,12.419,3.859,3.063.988,4,4.509,4,10.345H554.333Z" fill="#ba5964"/>
        <path id="Path_130" data-name="Path 130" d="M574.131,147.364s1.327,3.859,6.7,3.859,6.7-3.835,6.7-3.859v-1.736H574.131Z" fill="#893a47"/>
        <path id="Path_131" data-name="Path 131" d="M574.4,162.708a13.1,13.1,0,0,0,6.415,1.519,12.938,12.938,0,0,0,6.39-1.519l-1.808,6.849h-9.188Z" fill="#f89939"/>
        <path id="Path_132" data-name="Path 132" d="M572.3,155.494a3.625,3.625,0,0,1,.1-.892,6.112,6.112,0,0,1-1.64.723c-2.652.8-11.02,3.4-12.419,3.858-3.062.989-4,4.51-4,10.37H576.2l-2.8-10.852c-1.736-.8-1.085-1.929-1.085-3.183Z" fill="#228c7e"/>
        <path id="Path_133" data-name="Path 133" d="M603.307,159.184c-1.4-.458-9.79-3.063-12.419-3.859a5.813,5.813,0,0,1-1.688-.771,3.834,3.834,0,0,1,.121.916c0,1.278.627,2.412-1.11,3.183l-2.773,10.852h21.921c0-5.86-.941-9.357-4-10.369Z" fill="#228c7e"/>
        <path id="Path_134" data-name="Path 134" d="M589.174,154.554l6.077,2.1-2.242,2.942-3.955,1.085,3.11,2.363-6.776,6.487Z" fill="#3ed9c7"/>
        <path id="Path_135" data-name="Path 135" d="M572.416,154.554l-6.077,2.1,2.243,2.942,3.955,1.085-3.111,1.881,6.776,6.969Z" fill="#3ed9c7"/>
        <path id="Path_136" data-name="Path 136" d="M587.079,114.649a12.048,12.048,0,0,0-12.54,0,14.4,14.4,0,0,0-7.114,12.564v.048a42.67,42.67,0,0,0,.241,4.317l.241,2.025a23.727,23.727,0,0,0,.989,4.679c1.929,6,7.283,10.514,11.913,10.514s9.983-4.51,11.912-10.514a25.587,25.587,0,0,0,.989-4.679l.241-2.025a32.929,32.929,0,0,0,.241-4.365A14.406,14.406,0,0,0,587.079,114.649Z" fill="#ba5964"/>
        <path id="Path_137" data-name="Path 137" d="M567.257,123.766H576.2a20.6,20.6,0,0,1,2.171-7.427v7.427h6.656v-7.427s1.808,4.365,1.808,7.427h7.5s-.724-12.226-13.529-12.226-13.528,12.226-13.528,12.226Z" fill="#001c45"/>
        <path id="Path_138" data-name="Path 138" d="M587.175,102.277s1.833,4.775-.362,7.09" fill="none" stroke="#001c45" stroke-linecap="round" stroke-miterlimit="10" stroke-width="0.894"/>
        <path id="Path_139" data-name="Path 139" d="M592,102.277s.048,6.294-5.643,8.248" fill="none" stroke="#001c45" stroke-linecap="round" stroke-miterlimit="10" stroke-width="0.894"/>
      </g>
      <path id="Path_140" data-name="Path 140" d="M290.851,271.639l18.038-5.088s.241-6.343,2.652-10.466c2.7-4.606,3.28-8.272,4.631-6.7,1.374,1.591,1.229,2.894.192,5.836a9.6,9.6,0,0,0,.193,6.028l9.574-11.213a93.332,93.332,0,0,1-3.641,13.311c-1.833,5.016-3.811,7.862-10.056,11.576-7.4,4.413-18.376,8.15-18.376,8.15l-3.159-11.43Z" fill="#ba5964"/>
      <path id="Path_141" data-name="Path 141" d="M261.575,226.42c4.967,4.2,4.509,6.8,9.428,22.668,4.148,13.456,7.259,25.417,7.259,25.417l13.914-3.931,1.833,12.974s-20.522,9.26-25.321,7.958c-6-1.615-22.065-54.62-22.065-54.62-1.254-9.4,8.44-16.784,15-10.49Z" fill="#17a9e1"/>
      <path id="Path_142" data-name="Path 142" d="M292.273,270.983a41.876,41.876,0,0,1,1.712,12.588" fill="none" stroke="#ffb852" stroke-linecap="round" stroke-miterlimit="10" stroke-width="1.619"/>
      <path id="Path_143" data-name="Path 143" d="M291.407,515.383c.6,1.157.145,3.5-4.485,5.425-4.654,1.93-13.046,1.11-16.374.459s-5.378-1.616-10.3-.6c-4.944,1.037-13.022.578-15.482-1.495-.844-.989-.289-3.015-.289-3.015l46.951-.8Z" fill="#8fc9c6"/>
      <path id="Path_144" data-name="Path 144" d="M247.107,500.941c-.675,3.4-3.448,11.359-2.653,15.241,3.473,2.942,10.9,3.135,16.471,1.736s9.5,1.447,16.5,1.857c6.872.41,12.588-1.495,13.986-4.389,1.52-3.135-10.466-5.57-18.616-8.078-9.14-2.8-13.867-7.307-13.867-7.307l-11.816.916Z" fill="#228c7e"/>
      <g id="Group_21" data-name="Group 21">
        <path id="Path_145" data-name="Path 145" d="M261.673,507.476s1.639-4.606,3.834-6.1" fill="none" stroke="#8fc9c6" stroke-linecap="round" stroke-miterlimit="10" stroke-width="0.817"/>
        <path id="Path_146" data-name="Path 146" d="M267.894,509.958s1.639-4.606,3.834-6.1" fill="none" stroke="#8fc9c6" stroke-linecap="round" stroke-miterlimit="10" stroke-width="0.817"/>
        <path id="Path_147" data-name="Path 147" d="M274.116,512.415s1.64-4.606,3.834-6.1" fill="none" stroke="#8fc9c6" stroke-linecap="round" stroke-miterlimit="10" stroke-width="0.817"/>
      </g>
      <path id="Path_148" data-name="Path 148" d="M246.433,488.379l.675,12.54a6.322,6.322,0,0,1,2.219,1.278c.651.771,1.543,3.327,2.652,3.352,4.365.168,6.945-5.571,6.945-5.571v-12.95l-12.467,1.327Z" fill="#ff9a8d"/>
      <path id="Path_149" data-name="Path 149" d="M178.017,518.376c-.772,1.062-3.087,1.64-6.824-1.736s-6.584-11.31-7.428-14.589c-.844-3.3-.844-5.547-3.882-9.574-3.063-4.027-6.1-11.527-5.281-14.638.53-1.181,2.6-1.543,2.6-1.543l20.835,42.08Z" fill="#aaeeed"/>
      <path id="Path_150" data-name="Path 150" d="M172.085,472.152c-3.352.844-11.744,1.761-14.9,4.148-1.157,4.389,1.833,11.189,5.5,15.627s2.749,9.187,5.378,15.7c2.58,6.367,6.752,10.732,9.959,10.756,3.5.024.531-11.841-.7-20.281-1.375-9.453.675-15.651.675-15.651l-5.908-10.273Z" fill="#03aa99"/>
      <g id="Group_22" data-name="Group 22">
        <path id="Path_151" data-name="Path 151" d="M172.421,488.137s4.872-.482,7.163.844" fill="none" stroke="#aaeeed" stroke-linecap="round" stroke-miterlimit="10" stroke-width="0.817"/>
        <path id="Path_152" data-name="Path 152" d="M172.854,494.822s4.872-.483,7.163.844" fill="none" stroke="#aaeeed" stroke-linecap="round" stroke-miterlimit="10" stroke-width="0.817"/>
        <path id="Path_153" data-name="Path 153" d="M173.289,501.471s4.871-.482,7.162.844" fill="none" stroke="#aaeeed" stroke-linecap="round" stroke-miterlimit="10" stroke-width="0.817"/>
      </g>
      <path id="Path_154" data-name="Path 154" d="M179.584,464.455l-7.5,7.693a6.19,6.19,0,0,1-.217,2.556c-.41.916-2.339,2.821-1.9,3.834,1.712,4.027,8.006,3.883,8.006,3.883l10.828-8.489Z" fill="#ff9a8d"/>
      <path id="Path_155" data-name="Path 155" d="M272.428,294.857c-15.144,0-28.094,1.134-28.094,1.134-4.847,2.122-13.143,13.118-15.6,20.112s-1.447,18.665-.169,24.669c7.114,33.472,13.335,53.753,16.109,67.016,1.688,8.126-6.656,11.888-5.378,26.671,1.592,18.351,7.138,53.921,7.138,53.921a14.654,14.654,0,0,0,12.468.145s6.8-65.69,7.692-73.141c1.182-10.032,2.629-16.519,3.714-37.282C271.777,350.249,272.428,294.857,272.428,294.857Z" fill="#1e4174"/>
      <path id="Path_156" data-name="Path 156" d="M188.82,473.939s58.358-42.78,61.9-46.662c3.52-3.907,5.57-93.542,6.487-99.306,0,0,14.782-21.028,15.216-33.134l-30.891-3.979c-1.977,7.428-12.419,7.524-20.353,25.249-6.921,15.457,3.689,58.189,7.283,100.68,0,0-6.1.072-13.457,5.329-6.752,4.823-35.376,42.322-35.376,42.322s2.17,7.138,9.212,9.477Z" fill="#85b8ed"/>
      <path id="Path_157" data-name="Path 157" d="M241.51,290.883c-1.977,7.427-12.419,7.523-20.353,25.248-6.921,15.458,3.69,58.189,7.283,100.68,0,0-6.1.072-13.456,5.329-6.753,4.823-35.377,42.322-35.377,42.322a16.515,16.515,0,0,0,2.363,4.413c5.908-7.4,21.728-25.248,30.988-34.894,12.25-12.757,20.112-13.167,20.715-15.868.578-2.7-.024-42.78-2.147-67.787s0-35.136,7.307-44.227a54.538,54.538,0,0,0,7.621-12.9c11.575,9.4,22.547,7.017,25.272,6.221a23.486,23.486,0,0,0,.7-4.582l-30.891-3.979Z" fill="#4e7eac"/>
      <g id="Group_23" data-name="Group 23">
        <path id="Path_158" data-name="Path 158" d="M258.51,286.834c-6.777,12.829-16.76,21.631-20.064,30.168-3.28,8.536-2.05,25.851-1.423,57.417.6,31.012,1.351,45.168,0,47.29-1.326,2.122-10.369,4.172-24.525,17.8s-31.759,34.436-31.759,34.436" fill="none" stroke="#274d79" stroke-miterlimit="10" stroke-width="0.817"/>
        <path id="Path_159" data-name="Path 159" d="M267.552,289.388s-1.857,22.451-23.15,17.724" fill="none" stroke="#274d79" stroke-miterlimit="10" stroke-width="0.817"/>
        <path id="Path_160" data-name="Path 160" d="M181.823,457.878c.988,5.136,5.932,11.961,13.239,14.782" fill="none" stroke="#274d79" stroke-miterlimit="10" stroke-width="0.817"/>
      </g>
      <path id="Path_161" data-name="Path 161" d="M245.418,220.658a30.6,30.6,0,0,0-8.97,7.186c-3.473,4.8-5.064,19.075-3.039,30.12,1.23,6.728,9.936,26.768,6.294,35.4,0,0,20.522,6.9,34.026,1.495.8-4.051.627-11.431,1.182-23.826,2.629-2.845,5.209-8.078,5.45-11.454.868-12.588-10.514-17.677-19.774-25.08-3.738-2.99-6.559-9.091-10.3-11.961A8.737,8.737,0,0,0,245.418,220.658Z" fill="#ffb852"/>
      <path id="Path_162" data-name="Path 162" d="M253.765,206.818l-5.788,5.161-2.556,8.681s3.642,2.436,5.04,4.558c1.712,2.58,5.523,8.754,10.128,9.284,0,0-.458-5.57.242-8.585s2.8-8.97,2.8-8.97l-9.839-10.129Z" fill="#ff9a8d"/>
      <path id="Path_163" data-name="Path 163" d="M253.765,206.818s-1.254,4.847-1.037,7.331c.217,2.46,2.387,7.6,8.078,11.768.7-3.014,2.8-8.97,2.8-8.97Z" fill="#ba5964"/>
      <path id="Path_164" data-name="Path 164" d="M268.449,171.508c5.4.482,10.8,7.958,10.707,14.782-.1,6.8-1.664,10.514-1.23,15.313s.41,9.429-1.616,14.469c-1.35,3.352-4.847,4.1-9.5,2.99-4.268-1.037-10.1-5.136-11.431-6.438-1.35-1.3-1.591-5.812-1.591-5.812s-6.367-.941-9.284-6.752-2.388-30.94,23.97-28.528Z" fill="#ff9a8d"/>
      <path id="Path_165" data-name="Path 165" d="M253.764,206.815a8.708,8.708,0,0,1-5.281-8.73c.53-6.631,9.453-6.872,9.091-1.037,0,0,5.185-.458,6.68-2.749s2.942-13.576,2.942-13.576a23.755,23.755,0,0,1,2.7,6.776c.916,3.979,3.907,4.485,9.115,2a18.284,18.284,0,0,0,9.863-12.226s-4.292-.12-6.8-1.519c0,0,5.884-.217,8.344-3.955,0,0-5.86,2.556-9.694.555-3.811-2-9.4-7.018-16.543-6.15a19.1,19.1,0,0,0-11.117,5.257s-6.656-2.773-11.648,1.158-8.488,14.107-4.22,24.621,10.78,14.71,10.78,14.71l5.787-5.16Z" fill="#001c45"/>
      <path id="Path_166" data-name="Path 166" d="M240.018,174.671s-5.908-7.306-14.3-5.16c-7.741,1.977-12.636,8.03-12.491,19.6.144,11.913,15.482,28.962,2.387,39.332,0,0,19.557.289,14.758-23.464-3.665-18.134,2.725-25.345,8.248-23.078l1.4-7.21Z" fill="#001c45"/>
      <path id="Path_167" data-name="Path 167" d="M252.149,196.689a3.718,3.718,0,0,1,3.231.362c.314.241-.217.748-.506.627-1.64-.6-3.666-.7-4.461,1.23-.049.1-.121,0-.1-.072A2.667,2.667,0,0,1,252.149,196.689Z" fill="#ba5964"/>
      <path id="Path_168" data-name="Path 168" d="M252.92,196.858c.193-.1.6.362.555.506a2.126,2.126,0,0,0-.892.8,2.96,2.96,0,0,0-.386,1.857,3.327,3.327,0,0,0,2.653,3.183c.024,0,.072.1.024.1-1.4.337-2.966-1.086-3.28-2.34C251.232,199.583,251.329,197.606,252.92,196.858Z" fill="#ba5964"/>
      <path id="Path_169" data-name="Path 169" d="M242.588,221.961l3.376-1.929s13.649,15.94,15.264,28.166c1.158,8.73-4.654,41.406-4.654,41.406s-15.964,1.278-24.235-4.63c0,0,4.823-7.813,2.146-19.316-1.495-6.415-2.725-12.034-2.846-19.823-.144-9.188,2.918-17.146,10.973-23.9Z" fill="#17a9e1"/>
      <path id="Path_170" data-name="Path 170" d="M258.512,276.159l-20.064-20.546c.1.217,10.393,25.3,13.673,33.279,2.6.024,4.341-.1,4.341-.1s.989-5.522,2.05-12.612Z" fill="#17a9e1"/>
      <path id="Path_171" data-name="Path 171" d="M247.456,228.367c-6.945,2.46-15.675,12.974-11.165,23.464,3.762,8.73,19.919,38.27,22.716,40.32,2.243,1.664,24.694-6.873,30.674-8.319a96.05,96.05,0,0,0-3.159-11.913l-19.34,3.979s-3.111-6.632-6.439-14.759c-4.606-11.213-10.152-25.634-13.263-32.772Z" fill="#17a9e1"/>
      <path id="Path_172" data-name="Path 172" d="M312.069,260.683c.555-.362,17.459-11.334,23.8-15.458a2.709,2.709,0,1,0-2.966-4.533L311.9,254.654s-6.076,6.029.193,6.029Z" fill="#001c45"/>
      <path id="Path_173" data-name="Path 173" d="M286.387,271.072l18.038-5.088s.242-6.342,2.653-10.466c2.7-4.606,3.28-8.271,4.63-6.7,1.375,1.592,1.23,2.894.193,5.836a9.6,9.6,0,0,0,.193,6.029l14.035-9.091a50.493,50.493,0,0,1-4.486,10.393c-2.845,4.51-4.823,7.982-12.37,12.178s-19.678,8.368-19.678,8.368l-3.159-11.406Z" fill="#ff9a8d"/>
      <path id="Path_174" data-name="Path 174" d="M260.609,260.3c.048-.578.12-1.133.168-1.688l-6.486-12.757Z" fill="#17a9e1"/>
      <path id="Path_175" data-name="Path 175" d="M286.387,270.284s3.159,3.569,3.5,13.288" fill="none" stroke="#ffb852" stroke-linecap="round" stroke-miterlimit="10" stroke-width="1.619"/>
      <path id="Path_176" data-name="Path 176" d="M345.886,147.543l-9.943,15.885V147.543Z" fill="#fff" stroke="#e4e4e4" stroke-width="1.542"/>
      <path id="Path_177" data-name="Path 177" d="M369.875,148.269H252.218a13,13,0,1,1,0-26H369.875a13,13,0,0,1,0,26Z" fill="#fff" stroke="#e4e4e4" stroke-width="1.542"/>
      <path id="Path_178" data-name="Path 178" d="M264.541,126.319l2.653,5.378,5.932.868-4.292,4.2,1.013,5.908-5.306-2.8-5.329,2.8,1.013-5.908-4.293-4.2,5.957-.868Z" fill="#f89939"/>
      <path id="Path_179" data-name="Path 179" d="M288.078,126.319l2.652,5.378,5.933.868-4.293,4.2,1.013,5.908-5.3-2.8-5.3,2.8,1.012-5.908-4.292-4.2,5.932-.868Z" fill="#f89939"/>
      <path id="Path_180" data-name="Path 180" d="M311.616,126.319l2.652,5.378,5.957.868-4.317,4.2,1.037,5.908-5.329-2.8-5.306,2.8,1.013-5.908-4.292-4.2,5.932-.868Z" fill="#f89939"/>
      <path id="Path_181" data-name="Path 181" d="M335.175,126.319l2.653,5.378,5.932.868-4.292,4.2,1.013,5.908-5.306-2.8-5.329,2.8,1.013-5.908-4.293-4.2,5.933-.868Z" fill="#f89939"/>
      <path id="Path_182" data-name="Path 182" d="M358.711,126.319l2.653,5.378,5.932.868-4.292,4.2,1.012,5.908-5.3-2.8-5.329,2.8,1.037-5.908-4.317-4.2,5.956-.868Z" fill="#f89939"/>
      <path id="Path_183" data-name="Path 183" d="M939.278,253.4l-15.1-5.884s-.241-5.136-2.484-8.512c-3.473-5.233-4.679-10.8-6.15-9.381-1.495,1.471-1.109,4.124-.337,7.138a9.593,9.593,0,0,1-.724,5.98l-13.166-10.321s-.458,7.452,1.808,11.817c2.436,4.75,5.45,8.271,12.588,13.118S934.5,268.718,934.5,268.718l4.775-15.289Z" fill="#ba5964"/>
      <path id="Path_184" data-name="Path 184" d="M939.279,253.408l22.21,7.5V278.2L934.5,268.7Z" fill="#17a9e1"/>
      <path id="Path_185" data-name="Path 185" d="M939.447,252.469l-4.822,15.771" fill="none" stroke="#ffb852" stroke-linecap="round" stroke-miterlimit="10" stroke-width="1.619"/>
      <path id="Path_186" data-name="Path 186" d="M943.116,515.394c-.6,1.158-.145,3.5,4.485,5.426s13.047,1.109,16.374.458,5.378-1.615,10.3-.6c4.943,1.037,13.022.579,15.481-1.495.844-.988.29-3.014.29-3.014l-46.952-.8Z" fill="#8fc9c6"/>
      <path id="Path_187" data-name="Path 187" d="M987.39,500.953c.676,3.4,3.449,11.358,2.653,15.241-3.473,2.942-10.9,3.135-16.471,1.736s-9.5,1.447-16.494,1.857c-6.873.41-12.588-1.495-13.987-4.389-1.519-3.135,10.466-5.571,18.617-8.078,9.139-2.8,13.866-7.307,13.866-7.307l11.816.916Z" fill="#228c7e"/>
      <g id="Group_24" data-name="Group 24">
        <path id="Path_188" data-name="Path 188" d="M972.824,507.487s-1.64-4.606-3.834-6.1" fill="none" stroke="#8fc9c6" stroke-linecap="round" stroke-miterlimit="10" stroke-width="0.817"/>
        <path id="Path_189" data-name="Path 189" d="M966.6,509.967s-1.64-4.606-3.834-6.1" fill="none" stroke="#8fc9c6" stroke-linecap="round" stroke-miterlimit="10" stroke-width="0.817"/>
        <path id="Path_190" data-name="Path 190" d="M960.382,512.425s-1.64-4.606-3.835-6.1" fill="none" stroke="#8fc9c6" stroke-linecap="round" stroke-miterlimit="10" stroke-width="0.817"/>
      </g>
      <path id="Path_191" data-name="Path 191" d="M987.391,487.426v13.528a6.321,6.321,0,0,0-2.218,1.278c-.651.772-1.544,3.328-2.653,3.352-4.365.169-6.945-5.57-6.945-5.57l-1.64-12.3,13.456-.314Z" fill="#ff9a8d"/>
      <path id="Path_192" data-name="Path 192" d="M1054,518.388c.77,1.061,3.08,1.64,6.82-1.736s6.58-11.31,7.43-14.59.84-5.546,3.88-9.573c3.06-4.027,6.1-11.527,5.28-14.638-.53-1.182-2.6-1.543-2.6-1.543l-20.84,42.08Z" fill="#aaeeed"/>
      <path id="Path_193" data-name="Path 193" d="M1059.92,472.164c3.36.844,11.75,1.76,14.91,4.148,1.15,4.389-1.84,11.189-5.5,15.626s-2.75,9.188-5.38,15.7c-2.58,6.367-6.75,10.731-9.96,10.755-3.49.025-.53-11.84.7-20.28,1.38-9.453-.67-15.651-.67-15.651l5.9-10.273Z" fill="#03aa99"/>
      <g id="Group_25" data-name="Group 25">
        <path id="Path_194" data-name="Path 194" d="M1059.61,488.15s-4.87-.482-7.17.844" fill="none" stroke="#aaeeed" stroke-linecap="round" stroke-miterlimit="10" stroke-width="0.817"/>
        <path id="Path_195" data-name="Path 195" d="M1059.15,494.835s-4.87-.483-7.16.844" fill="none" stroke="#aaeeed" stroke-linecap="round" stroke-miterlimit="10" stroke-width="0.817"/>
        <path id="Path_196" data-name="Path 196" d="M1058.71,501.484s-4.87-.482-7.16.844" fill="none" stroke="#aaeeed" stroke-linecap="round" stroke-miterlimit="10" stroke-width="0.817"/>
      </g>
      <path id="Path_197" data-name="Path 197" d="M1052.43,464.467l7.5,7.692a6.145,6.145,0,0,0,.21,2.557c.41.916,2.34,2.821,1.91,3.834-1.71,4.027-8.01,3.882-8.01,3.882l-10.83-8.488Z" fill="#ff9a8d"/>
      <path id="Path_198" data-name="Path 198" d="M961.3,294.869c15.144,0,26.406,1.133,26.406,1.133,4.847,2.122,13.146,13.119,15.606,20.112s1.44,18.665.16,24.67c-7.109,33.471-18.974,52.763-21.747,66.051-1.688,8.126,6.342,3.761,6.342,24.331,0,18.4-.675,57.659-.675,57.659a17.653,17.653,0,0,1-13.167,1.037s-11.358-64.724-12.612-72.152c-2.025-12.009-2.725-17.049-2.942-37.836-.313-29.227,2.6-85.029,2.6-85.029Z" fill="#1e4174"/>
      <path id="Path_199" data-name="Path 199" d="M1043.22,473.941s-58.362-42.779-61.907-46.662c-3.521-3.907-5.064-84.185-6.005-89.949,0,0-14.3-14.565-14.734-26.647L1007,287.437c1.97,7.427.74,11.816,5.59,30.65,5.4,21.028-5.45,56.26-9.02,98.75,0,0,6.1.073,13.46,5.33,6.75,4.823,35.37,42.321,35.37,42.321s-2.17,7.138-9.21,9.478Z" fill="#85b8ed"/>
      <path id="Path_200" data-name="Path 200" d="M1052.43,464.464a16.516,16.516,0,0,1-2.36,4.413c-5.91-7.427-21.76-25.248-30.99-34.894-12.25-12.757-20.138-13.167-20.717-15.868s.048-42.755,2.147-67.787c2.12-25.007,0-35.135-7.308-44.2a53.906,53.906,0,0,1-5.739-8.9l19.557-9.79c1.98,7.451.75,11.816,5.59,30.674,5.43,21.052-5.45,56.26-9.01,98.726a15.267,15.267,0,0,1,2.31.314,27.115,27.115,0,0,1,3.67,1.037,33.158,33.158,0,0,1,4.77,2.242,28.153,28.153,0,0,1,2.68,1.737,55.363,55.363,0,0,1,7.04,7.114c5.67,6.414,13.09,15.674,18.93,23.1.89,1.133,1.74,2.218,2.56,3.255C1049.61,460.823,1052.43,464.464,1052.43,464.464Z" fill="#4e7eac"/>
      <path id="Path_201" data-name="Path 201" d="M963.663,321.147a37.778,37.778,0,0,0,23.8,8.2,48.319,48.319,0,0,0,24.476-6.367l-4.07-9.863-44.231,8.03Z" fill="#4e7eac"/>
      <g id="Group_26" data-name="Group 26">
        <path id="Path_202" data-name="Path 202" d="M973.523,286.835c6.776,12.829,16.76,21.631,20.063,30.168,3.28,8.536,2.05,25.851,1.423,57.417-.6,31.012-1.35,45.168,0,47.29,1.326,2.122,10.371,4.172,24.521,17.8s31.76,34.436,31.76,34.436" fill="none" stroke="#274d79" stroke-miterlimit="10" stroke-width="0.817"/>
        <path id="Path_203" data-name="Path 203" d="M981.625,320.887s.1,17.338,14.107,18.327" fill="none" stroke="#274d79" stroke-miterlimit="10" stroke-width="0.817"/>
        <path id="Path_204" data-name="Path 204" d="M1050.18,457.878c-.98,5.136-5.93,11.961-13.23,14.782" fill="none" stroke="#274d79" stroke-miterlimit="10" stroke-width="0.817"/>
      </g>
      <path id="Path_205" data-name="Path 205" d="M962.285,216.752c-.988,1.061-1.3,3.086.434,9.26l21.631-18.183-22.041,8.923Z" fill="#17a9e1"/>
      <path id="Path_206" data-name="Path 206" d="M980.082,207.834l-15.747,14.252-5.643-14.806L974.077,191Z" fill="#ff9a8d"/>
      <path id="Path_207" data-name="Path 207" d="M961.176,213.791s15.217-11.648,12.9-22.789L958.692,207.28Z" fill="#ba5964"/>
      <path id="Path_208" data-name="Path 208" d="M974.031,190.995a40.562,40.562,0,0,1-.869,4.389c-.53,1.929-12.8,11.43-16.325,12.9s-8.585,2.1-11.045-10.369-2.339-23.9,4.268-31.711,19.7-4.992,26.84,1.447,6.174,23.247-2.869,23.367Z" fill="#ff9a8d"/>
      <path id="Path_209" data-name="Path 209" d="M974.03,191l2.339,6.439s2.629-1.062,4.92-6.439c2.508-5.884,7.258-16.061,5.112-21.077-2.821-6.583-11.334-6.848-11.334-6.848s-7.548-11.5-25.031-13.818-21.221,10.9-6.873,15.868c0,0-7.162,6.511-1.013,8.2s21.1-2.942,21.1-2.942-6.608,4.9-3.81,6.366,12.081-2.074,12.081-2.074l.145,5.137s3.569-2.291,6.366-.362c3.352,2.315,1.809,11.6-4,11.527Z" fill="#001c45"/>
      <path id="Path_210" data-name="Path 210" d="M972.462,147.952s7.476,8.754.651,17.99c0,0,8.633-2.725,8.175-11.5" fill="none" stroke="#001c45" stroke-linecap="round" stroke-miterlimit="10" stroke-width="1.218"/>
      <path id="Path_211" data-name="Path 211" d="M918.009,246.142c-.53-.41-16.374-12.829-22.33-17.507a2.743,2.743,0,0,1-.386-3.907,2.689,2.689,0,0,1,3.738-.337l19.678,15.771s5.522,6.535-.724,5.98Z" fill="#001c45"/>
      <path id="Path_212" data-name="Path 212" d="M964.48,224.517s-2.219-5.353-1.254-6.776c3.231-4.7,13.745-18.545,15.216-17.218a93.225,93.225,0,0,1,5.908,7.282L964.5,224.493Z" fill="#17a9e1"/>
      <path id="Path_213" data-name="Path 213" d="M962.72,226.012c-1.351,6.221-1.23,16.47-2.074,38.2-.555,13.987-1.954,54.548-1.954,54.548s10.707,7.017,28.673,5.57c17.165-1.374,24.6-9.814,24.6-9.814s-1.78-57.056-7.43-79.507c-8.339-23.151-20.179-27.178-20.179-27.178Z" fill="#17a9e1"/>
      <path id="Path_214" data-name="Path 214" d="M990.232,234.016l-15.915,41.091-13.963-3.761c-.241,6.269-.386,11.912-.651,19.509a98.264,98.264,0,0,0,12.3,4.22c4.365,1.23,5.571.41,7.307-2.557,4.437-7.5,18.545-43.479,18.545-43.479l-7.621-15Z" fill="#17a9e1"/>
      <path id="Path_215" data-name="Path 215" d="M980.107,222.079c-2.846,2.436-4.172,4.8-6.849,12.516-2.99,8.609-9.381,30.867-9.381,30.867l1.037.41L980.107,222.1Z" fill="#17a9e1"/>
      <path id="Path_216" data-name="Path 216" d="M994.84,216.846c-8.1-4.124-15.1,1.35-20.16,17.363-4.823,15.216-9.767,31.639-9.767,31.639L942.8,257.263l-4.775,14.854s20.618,12.878,29.782,16.157c9.019,3.208,10.755.965,24.5-27.032,10.252-20.86,15.792-37.644,2.532-44.372Z" fill="#17a9e1"/>
      <path id="Path_217" data-name="Path 217" d="M942.8,257.26l-15.1-6.342s-.241-5.137-2.484-8.513c-3.473-5.233-4.678-10.8-6.149-9.381-1.495,1.471-1.11,4.124-.338,7.138a9.6,9.6,0,0,1-.723,5.981l-13.167-10.321s-.458,7.451,1.809,11.816c2.435,4.751,5.449,8.271,12.587,13.119s18.786,11.358,18.786,11.358Z" fill="#ff9a8d"/>
      <path id="Path_218" data-name="Path 218" d="M984.328,207.829l-19.846,16.688-1.761,1.495a4.245,4.245,0,0,0-.482,3.014l22.113-21.2Z" fill="#17a9e1"/>
      <path id="Path_219" data-name="Path 219" d="M942.9,256.3l-4.968,16.856" fill="none" stroke="#ffb852" stroke-linecap="round" stroke-miterlimit="10" stroke-width="1.619"/>
      <path id="Path_220" data-name="Path 220" d="M976.561,181.5a3.716,3.716,0,0,0-3.232.362c-.313.241.217.747.507.627,1.64-.6,3.665-.7,4.461,1.23.048.1.121,0,.1-.073A2.666,2.666,0,0,0,976.561,181.5Z" fill="#ba5964"/>
      <path id="Path_221" data-name="Path 221" d="M975.789,181.643c-.193-.1-.6.362-.554.507a2.123,2.123,0,0,1,.892.8,2.96,2.96,0,0,1,.386,1.857,3.327,3.327,0,0,1-2.653,3.183c-.024,0-.072.1-.024.1,1.4.337,2.966-1.085,3.28-2.339C977.477,184.368,977.381,182.391,975.789,181.643Z" fill="#ba5964"/>
      <path id="Path_222" data-name="Path 222" d="M915.525,133.7v15.906L905.582,133.7Z" fill="#fff" stroke="#e4e4e4" stroke-width="1.542"/>
      <path id="Path_223" data-name="Path 223" d="M999.251,134.453H881.594a13,13,0,1,1,0-26H999.251a13,13,0,1,1,0,26Z" fill="#fff" stroke="#e4e4e4" stroke-width="1.542"/>
      <path id="Path_224" data-name="Path 224" d="M986.93,115.372l1.519,3.086.29.6.651.1,3.4.482-2.46,2.387-.482.459.121.651.578,3.376-3.038-1.592-.579-.313-.579.313-3.038,1.592.579-3.376.12-.651-.482-.459-2.46-2.387,3.4-.482.652-.1.289-.6Zm0-2.87-2.653,5.378-5.932.868,4.293,4.2-1.013,5.908,5.3-2.8,5.3,2.8-1.012-5.908,4.292-4.2-5.932-.868Z" fill="#f89939"/>
      <path id="Path_225" data-name="Path 225" d="M963.393,112.5l-2.653,5.378-5.957.868,4.317,4.2-1.013,5.908,5.306-2.8,5.3,2.8-1.013-5.908,4.292-4.2-5.932-.868Z" fill="#f89939"/>
      <path id="Path_226" data-name="Path 226" d="M939.857,112.5l-2.677,5.378-5.932.868,4.292,4.2-1.012,5.908,5.329-2.8,5.3,2.8-1.013-5.908,4.293-4.2-5.932-.868Z" fill="#f89939"/>
      <path id="Path_227" data-name="Path 227" d="M916.295,112.5l-2.653,5.378-5.932.868,4.292,4.2-1.012,5.908,5.3-2.8,5.329,2.8-1.012-5.908,4.292-4.2-5.956-.868Z" fill="#f89939"/>
      <path id="Path_228" data-name="Path 228" d="M892.759,112.5l-2.653,5.378-5.932.868,4.293,4.2-1.013,5.908,5.3-2.8,5.305,2.8-1.012-5.908,4.316-4.2-5.956-.868Z" fill="#f89939"/>
      <path id="Path_229" data-name="Path 229" d="M1097.38,529.061H102.786a3.8,3.8,0,0,1,0-7.6H1097.38a3.8,3.8,0,0,1,0,7.6Z" fill="#17a9e1"/>
    </g>
  </g>
</svg>
