<svg width="1200" height="1200" viewBox="0 0 1200 1200" fill="none" xmlns="http://www.w3.org/2000/svg">
<rect width="1200" height="1200" fill="white"/>
<circle opacity="0.5" cx="600.058" cy="600.058" r="488.032" fill="white" stroke="#A3A3A3" stroke-width="2.05169"/>
<circle opacity="0.5" cx="594.823" cy="600.056" r="400.064" fill="white" stroke="#A3A3A3" stroke-width="2.05169"/>
<circle opacity="0.5" cx="594.823" cy="600.06" r="297.435" fill="white" stroke="#A3A3A3" stroke-width="2.05169"/>
<circle cx="600.057" cy="600.053" r="197.425" fill="white" stroke="#A3A3A3" stroke-width="2.05169"/>
<g filter="url(#filter0_d_77_5064)">
<rect x="503.711" y="487.485" width="192.691" height="193.738" rx="96.3454" fill="#293852" shape-rendering="crispEdges"/>
<path d="M566.688 581.398C564.521 581.398 562.53 580.894 560.713 579.888C558.897 578.859 557.453 577.448 556.38 575.653C555.33 573.837 554.805 571.79 554.805 569.514C554.805 567.238 555.33 565.203 556.38 563.409C557.453 561.592 558.897 560.181 560.713 559.174C562.53 558.167 564.521 557.664 566.688 557.664C568.876 557.664 570.868 558.167 572.662 559.174C574.479 560.181 575.912 561.592 576.963 563.409C578.013 565.203 578.538 567.238 578.538 569.514C578.538 571.79 578.013 573.837 576.963 575.653C575.912 577.448 574.479 578.859 572.662 579.888C570.846 580.894 568.855 581.398 566.688 581.398ZM566.688 575.423C568.329 575.423 569.62 574.887 570.562 573.815C571.524 572.742 572.006 571.309 572.006 569.514C572.006 567.676 571.524 566.232 570.562 565.181C569.62 564.109 568.329 563.573 566.688 563.573C565.025 563.573 563.723 564.109 562.782 565.181C561.84 566.232 561.37 567.676 561.37 569.514C561.37 571.331 561.84 572.775 562.782 573.848C563.723 574.898 565.025 575.423 566.688 575.423ZM605.493 562.588C607.813 562.588 609.629 563.288 610.942 564.689C612.277 566.089 612.945 568.004 612.945 570.434V581.168H606.511V571.287C606.511 570.302 606.237 569.536 605.69 568.989C605.143 568.442 604.399 568.168 603.458 568.168C602.517 568.168 601.773 568.442 601.226 568.989C600.678 569.536 600.405 570.302 600.405 571.287V581.168H593.971V571.287C593.971 570.302 593.697 569.536 593.15 568.989C592.625 568.442 591.892 568.168 590.951 568.168C589.988 568.168 589.233 568.442 588.686 568.989C588.139 569.536 587.865 570.302 587.865 571.287V581.168H581.431V562.752H587.865V565.181C588.434 564.393 589.167 563.77 590.064 563.31C590.984 562.829 592.034 562.588 593.216 562.588C594.573 562.588 595.776 562.883 596.827 563.474C597.899 564.065 598.742 564.897 599.354 565.969C600.011 564.962 600.875 564.153 601.948 563.54C603.02 562.905 604.202 562.588 605.493 562.588ZM628.517 562.588C630.64 562.588 632.325 563.299 633.573 564.722C634.82 566.122 635.444 568.026 635.444 570.434V581.168H629.01V571.287C629.01 570.237 628.736 569.416 628.189 568.825C627.642 568.212 626.909 567.906 625.99 567.906C625.027 567.906 624.272 568.212 623.725 568.825C623.178 569.416 622.904 570.237 622.904 571.287V581.168H616.47V562.752H622.904V565.378C623.473 564.547 624.239 563.879 625.202 563.376C626.165 562.85 627.27 562.588 628.517 562.588ZM642.224 561.045C641.086 561.045 640.167 560.739 639.467 560.126C638.788 559.491 638.449 558.703 638.449 557.762C638.449 556.799 638.788 556.001 639.467 555.366C640.167 554.731 641.086 554.414 642.224 554.414C643.34 554.414 644.238 554.731 644.916 555.366C645.616 556.001 645.967 556.799 645.967 557.762C645.967 558.703 645.616 559.491 644.916 560.126C644.238 560.739 643.34 561.045 642.224 561.045ZM645.408 562.752V581.168H638.974V562.752H645.408ZM529.03 599.547C529.03 597.271 529.501 595.247 530.442 593.474C531.405 591.68 532.762 590.29 534.512 589.305C536.263 588.298 538.276 587.795 540.552 587.795C543.441 587.795 545.87 588.572 547.84 590.126C549.81 591.658 551.079 593.748 551.648 596.396H544.722C544.306 595.52 543.726 594.853 542.982 594.393C542.259 593.934 541.417 593.704 540.454 593.704C538.966 593.704 537.773 594.24 536.876 595.313C536 596.363 535.563 597.775 535.563 599.547C535.563 601.342 536 602.775 536.876 603.848C537.773 604.898 538.966 605.423 540.454 605.423C541.417 605.423 542.259 605.193 542.982 604.734C543.726 604.274 544.306 603.607 544.722 602.731H551.648C551.079 605.379 549.81 607.48 547.84 609.034C545.87 610.566 543.441 611.332 540.552 611.332C538.276 611.332 536.263 610.84 534.512 609.855C532.762 608.848 531.405 607.459 530.442 605.686C529.501 603.891 529.03 601.845 529.03 599.547ZM566.808 592.588C568.909 592.588 570.572 593.299 571.798 594.722C573.045 596.122 573.669 598.026 573.669 600.434V611.168H567.235V601.287C567.235 600.237 566.961 599.416 566.414 598.825C565.867 598.212 565.134 597.906 564.215 597.906C563.252 597.906 562.497 598.212 561.95 598.825C561.402 599.416 561.129 600.237 561.129 601.287V611.168H554.695V586.876H561.129V595.378C561.698 594.547 562.464 593.879 563.427 593.376C564.412 592.85 565.539 592.588 566.808 592.588ZM576.149 601.944C576.149 600.04 576.488 598.376 577.166 596.954C577.867 595.531 578.808 594.437 579.99 593.671C581.193 592.905 582.528 592.522 583.994 592.522C585.264 592.522 586.358 592.774 587.277 593.277C588.196 593.781 588.908 594.459 589.411 595.313V592.752H595.845V611.168H589.411V608.607C588.908 609.461 588.185 610.139 587.244 610.643C586.325 611.146 585.242 611.398 583.994 611.398C582.528 611.398 581.193 611.015 579.99 610.249C578.808 609.483 577.867 608.389 577.166 606.966C576.488 605.522 576.149 603.848 576.149 601.944ZM589.411 601.944C589.411 600.762 589.083 599.832 588.426 599.153C587.791 598.475 587.004 598.136 586.063 598.136C585.1 598.136 584.301 598.475 583.666 599.153C583.032 599.81 582.714 600.74 582.714 601.944C582.714 603.125 583.032 604.066 583.666 604.767C584.301 605.445 585.1 605.784 586.063 605.784C587.004 605.784 587.791 605.445 588.426 604.767C589.083 604.088 589.411 603.147 589.411 601.944ZM611.559 592.588C613.682 592.588 615.367 593.299 616.614 594.722C617.862 596.122 618.485 598.026 618.485 600.434V611.168H612.051V601.287C612.051 600.237 611.778 599.416 611.231 598.825C610.684 598.212 609.95 597.906 609.031 597.906C608.068 597.906 607.313 598.212 606.766 598.825C606.219 599.416 605.945 600.237 605.945 601.287V611.168H599.511V592.752H605.945V595.378C606.514 594.547 607.28 593.879 608.243 593.376C609.206 592.85 610.311 592.588 611.559 592.588ZM634.063 592.588C636.186 592.588 637.871 593.299 639.119 594.722C640.366 596.122 640.99 598.026 640.99 600.434V611.168H634.556V601.287C634.556 600.237 634.282 599.416 633.735 598.825C633.188 598.212 632.455 597.906 631.536 597.906C630.573 597.906 629.818 598.212 629.271 598.825C628.724 599.416 628.45 600.237 628.45 601.287V611.168H622.016V592.752H628.45V595.378C629.019 594.547 629.785 593.879 630.748 593.376C631.711 592.85 632.816 592.588 634.063 592.588ZM662.116 601.747C662.116 602.25 662.083 602.753 662.017 603.257H649.838C649.904 604.263 650.178 605.018 650.659 605.522C651.162 606.003 651.797 606.244 652.563 606.244C653.635 606.244 654.401 605.762 654.861 604.8H661.722C661.437 606.069 660.879 607.207 660.048 608.214C659.238 609.198 658.209 609.975 656.962 610.544C655.714 611.113 654.336 611.398 652.826 611.398C651.009 611.398 649.39 611.015 647.967 610.249C646.567 609.483 645.461 608.389 644.652 606.966C643.864 605.544 643.47 603.869 643.47 601.944C643.47 600.018 643.864 598.354 644.652 596.954C645.439 595.531 646.534 594.437 647.934 593.671C649.357 592.905 650.987 592.522 652.826 592.522C654.642 592.522 656.251 592.894 657.651 593.638C659.052 594.382 660.146 595.455 660.934 596.855C661.722 598.234 662.116 599.865 662.116 601.747ZM655.55 600.138C655.55 599.35 655.288 598.737 654.762 598.3C654.237 597.84 653.581 597.61 652.793 597.61C652.005 597.61 651.359 597.829 650.856 598.267C650.353 598.683 650.024 599.306 649.871 600.138H655.55ZM671.183 586.876V611.168H664.749V586.876H671.183Z" fill="white"/>
</g>
<g filter="url(#filter1_d_77_5064)">
<circle cx="598.277" cy="411.569" r="54.3698" fill="white"/>
<circle cx="598.277" cy="411.569" r="53.3439" stroke="#D0CFCF" stroke-width="2.05169"/>
</g>
<path d="M588.427 406.857C594.21 406.857 598.899 402.168 598.899 396.385C598.899 390.601 594.21 385.924 588.427 385.924C582.643 385.924 577.954 390.613 577.954 396.396C577.954 402.18 582.643 406.857 588.427 406.857Z" fill="#17A9E1"/>
<path d="M592.874 407.562H583.991C576.607 407.562 570.581 413.576 570.581 420.961V431.826L570.616 431.998L571.364 432.229C578.415 434.429 584.544 435.167 589.591 435.167C599.441 435.167 605.144 432.356 605.501 432.183L606.192 431.826H606.261V420.961C606.261 413.576 600.248 407.562 592.863 407.562H592.874Z" fill="#17A9E1"/>
<path d="M613.854 410.808C617.84 410.808 621.066 407.582 621.066 403.607C621.066 399.633 617.84 396.407 613.854 396.407C609.868 396.407 606.653 399.633 606.653 403.607C606.653 407.582 609.879 410.808 613.854 410.808Z" fill="#17A9E1"/>
<path d="M616.904 411.281H610.786C609.104 411.281 607.537 411.742 606.189 412.525C607.791 415.026 608.655 417.929 608.655 420.97V429.807C610.844 430.153 612.849 430.291 614.646 430.291C621.432 430.291 625.36 428.355 625.602 428.229L626.086 427.987H626.132V420.51C626.132 415.429 621.996 411.281 616.904 411.281Z" fill="#17A9E1"/>
<g filter="url(#filter2_d_77_5064)">
<circle cx="867.661" cy="994.416" r="54.3698" fill="white"/>
<circle cx="867.661" cy="994.416" r="53.3439" stroke="#D0CFCF" stroke-width="2.05169"/>
</g>
<path d="M896.496 974.763C896.141 974.347 895.627 974.103 895.076 974.103H850.321C849.746 974.103 849.208 974.372 848.853 974.824C848.51 975.277 848.388 975.877 848.535 976.427L854.432 998.475C854.652 999.282 855.374 999.845 856.218 999.845C856.243 999.845 856.279 999.845 856.316 999.845L891.492 998.071C892.348 998.022 893.058 997.398 893.217 996.566L896.899 976.28C896.997 975.742 896.85 975.191 896.496 974.763ZM863.743 990.693C863.743 991.709 862.911 992.541 861.895 992.541C860.88 992.541 860.048 991.721 860.048 990.693V983.315C860.048 982.3 860.868 981.468 861.895 981.468C862.923 981.468 863.743 982.288 863.743 983.315V990.693ZM874.803 990.693C874.803 991.709 873.983 992.541 872.956 992.541C871.928 992.541 871.108 991.721 871.108 990.693V983.315C871.108 982.3 871.928 981.468 872.956 981.468C873.983 981.468 874.803 982.288 874.803 983.315V990.693ZM885.864 990.693C885.864 991.709 885.032 992.541 884.016 992.541C883.001 992.541 882.169 991.721 882.169 990.693V983.315C882.169 982.3 882.988 981.468 884.016 981.468C885.044 981.468 885.864 982.288 885.864 983.315V990.693Z" fill="#17A9E1"/>
<path d="M861.89 1022.05C864.944 1022.05 867.42 1019.57 867.42 1016.52C867.42 1013.46 864.944 1010.98 861.89 1010.98C858.835 1010.98 856.359 1013.46 856.359 1016.52C856.359 1019.57 858.835 1022.05 861.89 1022.05Z" fill="#17A9E1"/>
<path d="M884.013 1010.98C887.071 1010.98 889.543 1013.46 889.543 1016.52C889.543 1019.57 887.071 1022.05 884.013 1022.05C880.954 1022.05 878.482 1019.57 878.482 1016.52C878.482 1013.46 880.954 1010.98 884.013 1010.98Z" fill="#17A9E1"/>
<path d="M887.694 1007.28H858.196C857.364 1007.28 856.63 1006.72 856.409 1005.91L846.927 970.409H839.758C838.742 970.409 837.91 969.577 837.91 968.561C837.91 967.546 838.73 966.714 839.758 966.714H848.347C849.179 966.714 849.913 967.277 850.133 968.084L859.615 1003.59H887.694C888.71 1003.59 889.542 1004.42 889.542 1005.44C889.542 1006.45 888.722 1007.28 887.694 1007.28Z" fill="#17A9E1"/>
<g filter="url(#filter3_d_77_5064)">
<circle cx="598.277" cy="887.566" r="54.3698" fill="white"/>
<circle cx="598.277" cy="887.566" r="53.3439" stroke="#D0CFCF" stroke-width="2.05169"/>
</g>
<path d="M633.236 912.11H563.74C560.721 912.11 558.269 909.658 558.269 906.638V861.231C558.269 858.211 560.721 855.759 563.74 855.759H633.236C636.255 855.759 638.708 858.211 638.708 861.231V906.638C638.708 909.658 636.255 912.11 633.236 912.11ZM564.841 905.537H632.135V862.315H564.841V905.537Z" fill="#17A9E1"/>
<path d="M613.535 912.117H583.441V921.008H613.535V912.117Z" fill="#17A9E1"/>
<g filter="url(#filter4_d_77_5064)">
<circle cx="200.246" cy="585.971" r="54.3698" fill="white"/>
<circle cx="200.246" cy="585.971" r="53.3439" stroke="#D0CFCF" stroke-width="2.05169"/>
</g>
<mask id="mask0_77_5064" style="mask-type:luminance" maskUnits="userSpaceOnUse" x="176" y="541" width="48" height="90">
<path d="M219.312 541.865H180.493C178.378 541.865 176.654 543.589 176.654 545.704V626.77C176.654 628.886 178.378 630.609 180.493 630.609H219.312C221.427 630.609 223.151 628.886 223.151 626.77V545.704C223.151 543.589 221.427 541.865 219.312 541.865ZM196.618 546.558H203.17C203.392 546.558 203.562 546.728 203.562 546.95C203.562 547.172 203.392 547.342 203.17 547.342H196.618C196.396 547.342 196.225 547.155 196.225 546.95C196.225 546.728 196.396 546.558 196.618 546.558ZM199.894 627.146C198.512 627.146 197.386 626.019 197.386 624.637C197.386 623.255 198.512 622.129 199.894 622.129C201.276 622.129 202.402 623.255 202.402 624.637C202.402 626.019 201.276 627.146 199.894 627.146ZM219.448 619.518H180.323V552.956H219.448V619.518Z" fill="white"/>
</mask>
<g mask="url(#mask0_77_5064)">
<path d="M311.604 498.108H138.519V630.618H311.604V498.108Z" fill="#17A9E1"/>
</g>
<g filter="url(#filter5_d_77_5064)">
<circle cx="308.984" cy="862.954" r="54.3698" fill="white"/>
<circle cx="308.984" cy="862.954" r="53.3439" stroke="#D0CFCF" stroke-width="2.05169"/>
</g>
<path d="M314.645 878.148C317.784 881.287 317.767 886.362 314.645 889.502C311.523 892.624 306.43 892.641 303.29 889.502C300.168 886.38 300.151 881.27 303.29 878.13C306.43 874.991 311.54 875.008 314.662 878.13L314.645 878.148Z" fill="#17A9E1"/>
<path d="M336.484 867.009L329.019 874.474C323.595 869.241 316.497 866.364 308.962 866.364C301.427 866.364 294.329 869.207 288.94 874.421L281.492 866.974C296.753 852.114 321.206 852.132 336.484 867.026V867.009Z" fill="#17A9E1"/>
<path d="M351.027 852.459L343.562 859.923C324.359 841.122 293.541 841.087 274.373 859.836L266.926 852.389C290.21 829.524 327.708 829.559 351.009 852.459H351.027Z" fill="#17A9E1"/>
<g filter="url(#filter6_d_77_5064)">
<circle cx="405.415" cy="253.603" r="54.3698" fill="white"/>
<circle cx="405.415" cy="253.603" r="53.3439" stroke="#D0CFCF" stroke-width="2.05169"/>
</g>
<g filter="url(#filter7_d_77_5064)">
<circle cx="832.166" cy="284.378" r="54.3698" fill="white"/>
<circle cx="832.166" cy="284.378" r="53.3439" stroke="#D0CFCF" stroke-width="2.05169"/>
</g>
<path d="M411.018 247.354C411.018 250.503 408.471 253.05 405.322 253.05C402.174 253.05 399.627 250.503 399.627 247.354C399.627 244.206 402.174 241.659 405.322 241.659C408.471 241.659 411.018 244.206 411.018 247.354Z" fill="#17A9E1"/>
<path d="M405.322 221.799C391.234 221.799 379.769 233.253 379.769 247.353C379.769 258.819 387.358 268.528 397.77 271.765L398.949 267.086C390.582 264.376 384.473 256.611 384.473 247.353C384.473 235.862 393.819 226.516 405.31 226.516C416.801 226.516 426.134 235.862 426.134 247.353C426.134 256.598 420.025 264.376 411.67 267.086L412.849 271.765C423.261 268.541 430.851 258.819 430.851 247.353C430.851 233.265 419.397 221.799 405.31 221.799H405.322Z" fill="#17A9E1"/>
<path d="M405.32 228.483C394.921 228.483 386.453 236.939 386.453 247.351C386.453 255.693 391.923 262.693 399.437 265.189L400.591 260.635C395.122 258.678 391.17 253.498 391.17 247.363C391.17 239.56 397.518 233.213 405.32 233.213C413.123 233.213 419.471 239.56 419.471 247.363C419.471 253.498 415.519 258.678 410.05 260.635L411.204 265.189C418.718 262.705 424.188 255.693 424.188 247.351C424.188 236.951 415.72 228.483 405.32 228.483Z" fill="#17A9E1"/>
<path d="M415.346 287.053L405.323 247.349L395.3 287.053H415.346Z" fill="#17A9E1"/>
<path d="M837.77 278.126C837.77 281.275 835.224 283.821 832.075 283.821C828.926 283.821 826.38 281.275 826.38 278.126C826.38 274.977 828.926 272.431 832.075 272.431C835.224 272.431 837.77 274.977 837.77 278.126Z" fill="#17A9E1"/>
<path d="M832.074 252.571C817.986 252.571 806.521 264.025 806.521 278.125C806.521 289.591 814.11 299.3 824.522 302.537L825.701 297.858C817.334 295.148 811.225 287.383 811.225 278.125C811.225 266.634 820.571 257.288 832.062 257.288C843.552 257.288 852.886 266.634 852.886 278.125C852.886 287.37 846.776 295.148 838.422 297.858L839.601 302.537C850.013 299.313 857.603 289.591 857.603 278.125C857.603 264.037 846.149 252.571 832.062 252.571H832.074Z" fill="#17A9E1"/>
<path d="M832.072 259.255C821.673 259.255 813.205 267.711 813.205 278.123C813.205 286.465 818.675 293.465 826.189 295.961L827.343 291.407C821.873 289.45 817.922 284.269 817.922 278.135C817.922 270.332 824.27 263.985 832.072 263.985C839.875 263.985 846.223 270.332 846.223 278.135C846.223 284.269 842.271 289.45 836.802 291.407L837.956 295.961C845.47 293.477 850.94 286.465 850.94 278.123C850.94 267.723 842.472 259.255 832.072 259.255Z" fill="#17A9E1"/>
<path d="M842.098 317.825L832.075 278.121L822.052 317.825H842.098Z" fill="#17A9E1"/>
<g filter="url(#filter8_d_77_5064)">
<circle cx="984.135" cy="586.749" r="54.3698" fill="white"/>
<circle cx="984.135" cy="586.749" r="53.3439" stroke="#D0CFCF" stroke-width="2.05169"/>
</g>
<path d="M1027.32 579.166H1009.67V597.18C1009.67 598.924 1008.26 600.32 1006.51 600.32H975.771V603.937C975.771 604.617 976.322 605.168 977.002 605.168H1009.17C1009.39 605.168 1009.49 605.186 1009.74 605.443L1012.66 608.363C1012.9 608.601 1013.21 608.712 1013.53 608.712C1013.84 608.712 1014.15 608.583 1014.39 608.363L1017.31 605.443C1017.55 605.204 1017.64 605.168 1017.88 605.168H1027.32C1028 605.168 1028.55 604.617 1028.55 603.937V580.378C1028.55 579.698 1028 579.147 1027.32 579.147V579.166Z" fill="#17A9E1"/>
<path d="M953.777 565.203H941.603C940.74 565.203 940.023 565.919 940.023 566.782V597.172C940.023 598.035 940.74 598.751 941.603 598.751H953.777C954.071 598.751 954.181 598.77 954.512 599.1L958.276 602.865C958.588 603.177 958.992 603.324 959.396 603.324C959.8 603.324 960.204 603.177 960.516 602.865L964.281 599.1C964.593 598.788 964.721 598.751 965.015 598.751H1006.53C1007.4 598.751 1008.11 598.035 1008.11 597.172V566.782C1008.11 565.919 1007.4 565.203 1006.53 565.203H953.796H953.777Z" fill="#17A9E1"/>
<circle cx="438.244" cy="688.551" r="37.727" fill="#F89939" stroke="#F89939" stroke-width="0.458468"/>
<path d="M428.521 701.547C428.521 705.375 425.414 708.482 421.586 708.482C417.758 708.482 414.65 705.375 414.65 701.547C414.65 697.719 417.758 694.611 421.586 694.611C425.414 694.611 428.521 697.719 428.521 701.547Z" fill="white"/>
<path d="M462.576 701.547C462.576 705.375 459.468 708.482 455.641 708.482C451.813 708.482 448.705 705.375 448.705 701.547C448.705 697.719 451.813 694.611 455.641 694.611C459.468 694.611 462.576 697.719 462.576 701.547Z" fill="white"/>
<path d="M445.557 671.894C445.557 675.722 442.449 678.829 438.621 678.829C434.793 678.829 431.686 675.722 431.686 671.894C431.686 668.066 434.793 664.958 438.621 664.958C442.449 664.958 445.557 668.066 445.557 671.894Z" fill="white"/>
<path d="M438.608 713.402C426.591 713.402 416.814 703.625 416.814 691.608C416.814 679.591 426.591 669.815 438.608 669.815C450.625 669.815 460.401 679.591 460.401 691.608C460.401 703.625 450.625 713.402 438.608 713.402ZM438.608 673.963C428.885 673.963 420.962 681.872 420.962 691.608C420.962 701.345 428.872 709.254 438.608 709.254C448.344 709.254 456.253 701.345 456.253 691.608C456.253 681.872 448.344 673.963 438.608 673.963Z" fill="white"/>
<circle cx="333.606" cy="450.562" r="37.727" fill="#F89939" stroke="#F89939" stroke-width="0.458468"/>
<path d="M332.819 424.918C319.097 424.918 307.962 436.053 307.962 449.775C307.962 463.497 319.083 474.633 332.819 474.633C346.555 474.633 357.677 463.511 357.677 449.775C357.677 436.039 346.555 424.918 332.819 424.918ZM332.819 469.183C322.113 469.183 313.398 460.468 313.398 449.762C313.398 439.055 322.113 430.34 332.819 430.34C343.526 430.34 352.24 439.055 352.24 449.762C352.24 460.468 343.526 469.183 332.819 469.183Z" fill="white"/>
<path d="M344.827 449.595H334.369V436.426C334.369 435.14 333.318 434.102 332.046 434.102C330.773 434.102 329.722 435.14 329.722 436.426V453.164C329.722 454.45 330.759 455.488 332.046 455.488C332.557 455.488 333.028 455.322 333.415 455.031H344.841C346.335 455.031 347.552 453.8 347.552 452.306C347.552 450.812 346.335 449.581 344.827 449.581V449.595Z" fill="white"/>
<circle cx="469.022" cy="969.641" r="37.727" fill="#F89939" stroke="#F89939" stroke-width="0.458468"/>
<path d="M470.639 994.599C474.362 994.07 477.625 990.184 479.67 984.457C476.705 983.793 473.672 983.441 470.639 983.387V994.599Z" fill="white"/>
<path d="M476.584 993.707C476.8 993.639 477.017 993.585 477.234 993.504C477.423 993.449 477.599 993.382 477.775 993.314C477.992 993.246 478.208 993.165 478.411 993.084C478.588 993.016 478.777 992.948 478.953 992.867C479.156 992.786 479.373 992.691 479.576 992.61C479.752 992.529 479.928 992.447 480.104 992.366C480.307 992.271 480.51 992.177 480.7 992.068C480.876 991.973 481.052 991.892 481.228 991.797C481.417 991.689 481.62 991.581 481.81 991.472C481.986 991.378 482.149 991.269 482.325 991.175C482.514 991.053 482.704 990.944 482.893 990.823C483.056 990.714 483.232 990.606 483.394 990.498C483.584 990.376 483.76 990.24 483.936 990.118C484.098 989.997 484.261 989.888 484.41 989.766C484.586 989.631 484.762 989.496 484.938 989.36C485.087 989.238 485.249 989.116 485.398 988.981C485.574 988.832 485.737 988.683 485.913 988.534C486.062 988.399 486.211 988.277 486.36 988.142C486.522 987.993 486.685 987.83 486.847 987.668C486.982 987.532 487.131 987.397 487.267 987.248C487.294 987.221 487.321 987.194 487.348 987.167C485.452 986.192 483.448 985.42 481.39 984.878C480.321 988.304 478.412 991.405 475.839 993.896C475.907 993.883 475.974 993.869 476.055 993.842C476.245 993.788 476.421 993.734 476.611 993.68L476.584 993.707Z" fill="white"/>
<path d="M494.091 971.189H483.666C483.625 975.265 483.029 979.314 481.905 983.227C484.207 983.836 486.414 984.716 488.499 985.854C491.925 981.724 493.888 976.565 494.078 971.203L494.091 971.189Z" fill="white"/>
<path d="M470.639 969.457H481.931C481.891 965.53 481.308 961.631 480.225 957.853C477.084 958.571 473.875 958.95 470.639 958.99V969.457Z" fill="white"/>
<path d="M470.639 946.04V957.251C473.685 957.211 476.705 956.859 479.67 956.182C477.612 950.441 474.362 946.568 470.639 946.04Z" fill="white"/>
<path d="M470.639 981.656C473.861 981.697 477.07 982.076 480.225 982.793C481.322 979.016 481.891 975.116 481.931 971.189H470.639V981.656Z" fill="white"/>
<path d="M488.515 954.792C486.43 955.929 484.209 956.809 481.921 957.418C483.045 961.331 483.64 965.38 483.681 969.456H494.107C493.918 964.094 491.954 958.935 488.529 954.805L488.515 954.792Z" fill="white"/>
<path d="M487.338 953.472C487.338 953.472 487.284 953.418 487.257 953.391C487.121 953.256 486.972 953.107 486.837 952.972C486.675 952.809 486.512 952.647 486.35 952.498C486.201 952.362 486.052 952.24 485.903 952.105C485.74 951.956 485.564 951.807 485.388 951.658C485.239 951.536 485.09 951.414 484.928 951.293C484.752 951.157 484.576 951.008 484.4 950.873C484.237 950.751 484.088 950.643 483.926 950.521C483.75 950.385 483.56 950.264 483.371 950.142C483.208 950.033 483.046 949.925 482.883 949.817C482.694 949.695 482.504 949.573 482.315 949.465C482.152 949.37 481.976 949.261 481.814 949.167C481.624 949.058 481.421 948.95 481.231 948.842C481.055 948.761 480.879 948.666 480.703 948.571C480.5 948.476 480.297 948.368 480.094 948.273C479.918 948.192 479.742 948.111 479.566 948.029C479.363 947.935 479.146 947.853 478.943 947.772C478.767 947.704 478.591 947.623 478.401 947.555C478.185 947.474 477.982 947.393 477.765 947.325C477.589 947.258 477.399 947.203 477.223 947.136C477.007 947.068 476.79 947 476.56 946.933C476.384 946.878 476.194 946.824 476.018 946.784C475.951 946.77 475.883 946.743 475.802 946.729C478.374 949.234 480.284 952.335 481.353 955.747C483.425 955.206 485.415 954.434 487.324 953.459L487.338 953.472Z" fill="white"/>
<path d="M445.439 969.456H455.865C455.906 965.38 456.502 961.331 457.626 957.418C455.337 956.809 453.117 955.929 451.032 954.792C447.606 958.921 445.643 964.08 445.453 969.442L445.439 969.456Z" fill="white"/>
<path d="M468.904 994.599V983.387C465.858 983.428 462.838 983.78 459.873 984.457C461.931 990.198 465.181 994.07 468.904 994.599Z" fill="white"/>
<path d="M468.906 971.189H457.613C457.654 975.116 458.236 979.016 459.319 982.793C462.461 982.076 465.67 981.697 468.906 981.656V971.189Z" fill="white"/>
<path d="M468.904 946.04C465.181 946.568 461.918 950.454 459.873 956.182C462.838 956.845 465.871 957.197 468.904 957.251V946.04Z" fill="white"/>
<path d="M468.906 958.99C465.683 958.95 462.474 958.571 459.319 957.853C458.223 961.631 457.654 965.53 457.613 969.457H468.906V958.99Z" fill="white"/>
<path d="M463.724 946.745C463.656 946.759 463.588 946.772 463.507 946.799C463.318 946.853 463.142 946.908 462.952 946.962C462.735 947.029 462.519 947.084 462.302 947.165C462.113 947.219 461.937 947.287 461.761 947.354C461.544 947.436 461.341 947.503 461.124 947.585C460.948 947.652 460.759 947.72 460.583 947.801C460.379 947.883 460.163 947.977 459.96 948.058C459.784 948.14 459.608 948.221 459.432 948.302C459.229 948.397 459.025 948.492 458.836 948.6C458.66 948.695 458.484 948.776 458.308 948.871C458.118 948.979 457.915 949.088 457.726 949.196C457.55 949.291 457.387 949.399 457.211 949.494C457.022 949.602 456.832 949.724 456.656 949.846C456.493 949.954 456.317 950.063 456.155 950.171C455.965 950.293 455.789 950.428 455.613 950.55C455.451 950.672 455.288 950.78 455.126 950.902C454.95 951.037 454.774 951.173 454.598 951.308C454.449 951.43 454.286 951.552 454.137 951.687C453.961 951.836 453.799 951.985 453.636 952.134C453.487 952.269 453.339 952.391 453.19 952.527C453.027 952.676 452.865 952.838 452.702 953.001C452.567 953.136 452.418 953.271 452.282 953.42C452.255 953.448 452.228 953.475 452.201 953.502C454.097 954.477 456.101 955.248 458.159 955.79C459.229 952.364 461.138 949.264 463.71 946.772L463.724 946.745Z" fill="white"/>
<path d="M452.701 987.656C452.864 987.819 453.026 987.981 453.189 988.13C453.338 988.266 453.487 988.387 453.636 988.523C453.798 988.672 453.974 988.821 454.15 988.97C454.299 989.092 454.448 989.213 454.611 989.335C454.787 989.471 454.963 989.62 455.139 989.755C455.301 989.877 455.45 989.985 455.613 990.107C455.789 990.242 455.978 990.364 456.168 990.5C456.33 990.608 456.493 990.716 456.655 990.825C456.845 990.947 457.034 991.068 457.224 991.177C457.386 991.272 457.562 991.38 457.725 991.475C457.914 991.583 458.118 991.691 458.307 991.8C458.483 991.881 458.659 991.976 458.835 992.07C459.038 992.165 459.241 992.273 459.444 992.368C459.62 992.45 459.797 992.531 459.973 992.612C460.176 992.707 460.392 992.788 460.595 992.869C460.771 992.937 460.947 993.018 461.137 993.086C461.354 993.167 461.557 993.248 461.773 993.316C461.949 993.384 462.139 993.438 462.315 993.506C462.532 993.573 462.748 993.641 462.978 993.709C463.154 993.763 463.344 993.817 463.52 993.871C463.588 993.885 463.655 993.912 463.737 993.925C461.164 991.42 459.255 988.32 458.185 984.894C456.127 985.436 454.123 986.207 452.228 987.182C452.255 987.209 452.282 987.236 452.309 987.264C452.444 987.399 452.58 987.548 452.715 987.683L452.701 987.656Z" fill="white"/>
<path d="M451.02 985.854C453.105 984.716 455.326 983.836 457.614 983.227C456.49 979.314 455.894 975.265 455.854 971.189H445.428C445.617 976.551 447.581 981.71 451.006 985.84L451.02 985.854Z" fill="white"/>
<circle cx="620.844" cy="196.147" r="37.727" fill="#F89939" stroke="#F89939" stroke-width="0.458468"/>
<path d="M634.981 202.179C632.28 202.179 629.9 203.465 628.343 205.434L613.909 198.049C614.102 197.342 614.231 196.622 614.231 195.85C614.231 195.014 614.064 194.229 613.845 193.47L628.215 186.124C629.758 188.183 632.203 189.533 634.981 189.533C639.677 189.533 643.485 185.738 643.485 181.043C643.485 176.347 639.69 172.552 634.981 172.552C630.273 172.552 626.491 176.36 626.491 181.043C626.491 181.815 626.632 182.535 626.812 183.243L612.391 190.627C610.835 188.658 608.455 187.359 605.741 187.359C601.045 187.359 597.25 191.167 597.25 195.85C597.25 200.532 601.045 204.34 605.741 204.34C608.519 204.34 610.963 202.989 612.507 200.931L626.864 208.277C626.645 209.036 626.478 209.833 626.478 210.669C626.478 215.365 630.286 219.16 634.968 219.16C639.651 219.16 643.472 215.352 643.472 210.669C643.472 205.974 639.677 202.179 634.981 202.179Z" fill="white"/>
<circle cx="848.579" cy="731.632" r="37.727" fill="#F89939" stroke="#F89939" stroke-width="0.458468"/>
<path d="M857.752 708.035H837.891V724.535H857.752V708.035Z" fill="white"/>
<path d="M840.742 738.137H820.881V754.638H840.742V738.137Z" fill="white"/>
<path d="M874.783 738.137H854.922V754.638H874.783V738.137Z" fill="white"/>
<path d="M866.708 738.135H863.003V734.339H832.671V738.135H828.951V730.619H866.708V738.135Z" fill="white"/>
<path d="M849.698 724.544H845.978V732.479H849.698V724.544Z" fill="white"/>
<defs>
<filter id="filter0_d_77_5064" x="494.637" y="478.412" width="210.838" height="211.885" filterUnits="userSpaceOnUse" color-interpolation-filters="sRGB">
<feFlood flood-opacity="0" result="BackgroundImageFix"/>
<feColorMatrix in="SourceAlpha" type="matrix" values="0 0 0 0 0 0 0 0 0 0 0 0 0 0 0 0 0 0 127 0" result="hardAlpha"/>
<feOffset/>
<feGaussianBlur stdDeviation="4.53683"/>
<feComposite in2="hardAlpha" operator="out"/>
<feColorMatrix type="matrix" values="0 0 0 0 0 0 0 0 0 0 0 0 0 0 0 0 0 0 0.1 0"/>
<feBlend mode="normal" in2="BackgroundImageFix" result="effect1_dropShadow_77_5064"/>
<feBlend mode="normal" in="SourceGraphic" in2="effect1_dropShadow_77_5064" result="shape"/>
</filter>
<filter id="filter1_d_77_5064" x="540.727" y="354.655" width="116.372" height="116.372" filterUnits="userSpaceOnUse" color-interpolation-filters="sRGB">
<feFlood flood-opacity="0" result="BackgroundImageFix"/>
<feColorMatrix in="SourceAlpha" type="matrix" values="0 0 0 0 0 0 0 0 0 0 0 0 0 0 0 0 0 0 127 0" result="hardAlpha"/>
<feOffset dx="0.636052" dy="1.2721"/>
<feGaussianBlur stdDeviation="1.90816"/>
<feColorMatrix type="matrix" values="0 0 0 0 0.109804 0 0 0 0 0.317647 0 0 0 0 0.458824 0 0 0 0.25 0"/>
<feBlend mode="normal" in2="BackgroundImageFix" result="effect1_dropShadow_77_5064"/>
<feBlend mode="normal" in="SourceGraphic" in2="effect1_dropShadow_77_5064" result="shape"/>
</filter>
<filter id="filter2_d_77_5064" x="810.111" y="937.502" width="116.372" height="116.372" filterUnits="userSpaceOnUse" color-interpolation-filters="sRGB">
<feFlood flood-opacity="0" result="BackgroundImageFix"/>
<feColorMatrix in="SourceAlpha" type="matrix" values="0 0 0 0 0 0 0 0 0 0 0 0 0 0 0 0 0 0 127 0" result="hardAlpha"/>
<feOffset dx="0.636052" dy="1.2721"/>
<feGaussianBlur stdDeviation="1.90816"/>
<feColorMatrix type="matrix" values="0 0 0 0 0.109804 0 0 0 0 0.317647 0 0 0 0 0.458824 0 0 0 0.25 0"/>
<feBlend mode="normal" in2="BackgroundImageFix" result="effect1_dropShadow_77_5064"/>
<feBlend mode="normal" in="SourceGraphic" in2="effect1_dropShadow_77_5064" result="shape"/>
</filter>
<filter id="filter3_d_77_5064" x="540.727" y="830.652" width="116.372" height="116.372" filterUnits="userSpaceOnUse" color-interpolation-filters="sRGB">
<feFlood flood-opacity="0" result="BackgroundImageFix"/>
<feColorMatrix in="SourceAlpha" type="matrix" values="0 0 0 0 0 0 0 0 0 0 0 0 0 0 0 0 0 0 127 0" result="hardAlpha"/>
<feOffset dx="0.636052" dy="1.2721"/>
<feGaussianBlur stdDeviation="1.90816"/>
<feColorMatrix type="matrix" values="0 0 0 0 0.109804 0 0 0 0 0.317647 0 0 0 0 0.458824 0 0 0 0.25 0"/>
<feBlend mode="normal" in2="BackgroundImageFix" result="effect1_dropShadow_77_5064"/>
<feBlend mode="normal" in="SourceGraphic" in2="effect1_dropShadow_77_5064" result="shape"/>
</filter>
<filter id="filter4_d_77_5064" x="142.696" y="529.057" width="116.372" height="116.372" filterUnits="userSpaceOnUse" color-interpolation-filters="sRGB">
<feFlood flood-opacity="0" result="BackgroundImageFix"/>
<feColorMatrix in="SourceAlpha" type="matrix" values="0 0 0 0 0 0 0 0 0 0 0 0 0 0 0 0 0 0 127 0" result="hardAlpha"/>
<feOffset dx="0.636052" dy="1.2721"/>
<feGaussianBlur stdDeviation="1.90816"/>
<feColorMatrix type="matrix" values="0 0 0 0 0.109804 0 0 0 0 0.317647 0 0 0 0 0.458824 0 0 0 0.25 0"/>
<feBlend mode="normal" in2="BackgroundImageFix" result="effect1_dropShadow_77_5064"/>
<feBlend mode="normal" in="SourceGraphic" in2="effect1_dropShadow_77_5064" result="shape"/>
</filter>
<filter id="filter5_d_77_5064" x="251.434" y="806.04" width="116.372" height="116.372" filterUnits="userSpaceOnUse" color-interpolation-filters="sRGB">
<feFlood flood-opacity="0" result="BackgroundImageFix"/>
<feColorMatrix in="SourceAlpha" type="matrix" values="0 0 0 0 0 0 0 0 0 0 0 0 0 0 0 0 0 0 127 0" result="hardAlpha"/>
<feOffset dx="0.636052" dy="1.2721"/>
<feGaussianBlur stdDeviation="1.90816"/>
<feColorMatrix type="matrix" values="0 0 0 0 0.109804 0 0 0 0 0.317647 0 0 0 0 0.458824 0 0 0 0.25 0"/>
<feBlend mode="normal" in2="BackgroundImageFix" result="effect1_dropShadow_77_5064"/>
<feBlend mode="normal" in="SourceGraphic" in2="effect1_dropShadow_77_5064" result="shape"/>
</filter>
<filter id="filter6_d_77_5064" x="347.865" y="196.689" width="116.372" height="116.372" filterUnits="userSpaceOnUse" color-interpolation-filters="sRGB">
<feFlood flood-opacity="0" result="BackgroundImageFix"/>
<feColorMatrix in="SourceAlpha" type="matrix" values="0 0 0 0 0 0 0 0 0 0 0 0 0 0 0 0 0 0 127 0" result="hardAlpha"/>
<feOffset dx="0.636052" dy="1.2721"/>
<feGaussianBlur stdDeviation="1.90816"/>
<feColorMatrix type="matrix" values="0 0 0 0 0.109804 0 0 0 0 0.317647 0 0 0 0 0.458824 0 0 0 0.25 0"/>
<feBlend mode="normal" in2="BackgroundImageFix" result="effect1_dropShadow_77_5064"/>
<feBlend mode="normal" in="SourceGraphic" in2="effect1_dropShadow_77_5064" result="shape"/>
</filter>
<filter id="filter7_d_77_5064" x="774.616" y="227.464" width="116.372" height="116.372" filterUnits="userSpaceOnUse" color-interpolation-filters="sRGB">
<feFlood flood-opacity="0" result="BackgroundImageFix"/>
<feColorMatrix in="SourceAlpha" type="matrix" values="0 0 0 0 0 0 0 0 0 0 0 0 0 0 0 0 0 0 127 0" result="hardAlpha"/>
<feOffset dx="0.636052" dy="1.2721"/>
<feGaussianBlur stdDeviation="1.90816"/>
<feColorMatrix type="matrix" values="0 0 0 0 0.109804 0 0 0 0 0.317647 0 0 0 0 0.458824 0 0 0 0.25 0"/>
<feBlend mode="normal" in2="BackgroundImageFix" result="effect1_dropShadow_77_5064"/>
<feBlend mode="normal" in="SourceGraphic" in2="effect1_dropShadow_77_5064" result="shape"/>
</filter>
<filter id="filter8_d_77_5064" x="926.585" y="529.835" width="116.372" height="116.372" filterUnits="userSpaceOnUse" color-interpolation-filters="sRGB">
<feFlood flood-opacity="0" result="BackgroundImageFix"/>
<feColorMatrix in="SourceAlpha" type="matrix" values="0 0 0 0 0 0 0 0 0 0 0 0 0 0 0 0 0 0 127 0" result="hardAlpha"/>
<feOffset dx="0.636052" dy="1.2721"/>
<feGaussianBlur stdDeviation="1.90816"/>
<feColorMatrix type="matrix" values="0 0 0 0 0.109804 0 0 0 0 0.317647 0 0 0 0 0.458824 0 0 0 0.25 0"/>
<feBlend mode="normal" in2="BackgroundImageFix" result="effect1_dropShadow_77_5064"/>
<feBlend mode="normal" in="SourceGraphic" in2="effect1_dropShadow_77_5064" result="shape"/>
</filter>
</defs>
</svg>
