<svg width="1200" height="986" viewBox="0 0 1200 986" fill="none" xmlns="http://www.w3.org/2000/svg">
<rect width="1200" height="986" fill="white"/>
<circle opacity="0.5" cx="600.058" cy="492.058" r="488.032" fill="white" stroke="#A3A3A3" stroke-width="2.05169"/>
<circle opacity="0.5" cx="594.823" cy="492.055" r="400.064" fill="white" stroke="#A3A3A3" stroke-width="2.05169"/>
<circle opacity="0.5" cx="594.823" cy="492.061" r="297.435" fill="white" stroke="#A3A3A3" stroke-width="2.05169"/>
<circle cx="600.057" cy="492.052" r="197.425" fill="white" stroke="#A3A3A3" stroke-width="2.05169"/>
<g filter="url(#filter0_d_306_1909)">
<rect x="503.71" y="379.484" width="192.691" height="193.738" rx="96.3454" fill="#29B7EE" shape-rendering="crispEdges"/>
<path d="M566.687 473.398C564.521 473.398 562.529 472.894 560.713 471.888C558.896 470.859 557.452 469.448 556.38 467.653C555.329 465.837 554.804 463.79 554.804 461.514C554.804 459.238 555.329 457.203 556.38 455.409C557.452 453.592 558.896 452.181 560.713 451.174C562.529 450.167 564.521 449.664 566.687 449.664C568.876 449.664 570.867 450.167 572.662 451.174C574.478 452.181 575.912 453.592 576.962 455.409C578.013 457.203 578.538 459.238 578.538 461.514C578.538 463.79 578.013 465.837 576.962 467.653C575.912 469.448 574.478 470.859 572.662 471.888C570.846 472.894 568.854 473.398 566.687 473.398ZM566.687 467.423C568.329 467.423 569.62 466.887 570.561 465.815C571.524 464.742 572.005 463.309 572.005 461.514C572.005 459.676 571.524 458.232 570.561 457.181C569.62 456.109 568.329 455.573 566.687 455.573C565.024 455.573 563.722 456.109 562.781 457.181C561.84 458.232 561.369 459.676 561.369 461.514C561.369 463.331 561.84 464.775 562.781 465.848C563.722 466.898 565.024 467.423 566.687 467.423ZM605.493 454.588C607.812 454.588 609.629 455.288 610.942 456.689C612.277 458.089 612.944 460.004 612.944 462.434V473.168H606.51V463.287C606.51 462.302 606.237 461.536 605.69 460.989C605.142 460.442 604.398 460.168 603.457 460.168C602.516 460.168 601.772 460.442 601.225 460.989C600.678 461.536 600.404 462.302 600.404 463.287V473.168H593.97V463.287C593.97 462.302 593.697 461.536 593.15 460.989C592.624 460.442 591.891 460.168 590.95 460.168C589.987 460.168 589.232 460.442 588.685 460.989C588.138 461.536 587.864 462.302 587.864 463.287V473.168H581.43V454.752H587.864V457.181C588.433 456.393 589.167 455.77 590.064 455.31C590.983 454.829 592.034 454.588 593.215 454.588C594.572 454.588 595.776 454.883 596.826 455.474C597.899 456.065 598.741 456.897 599.354 457.969C600.01 456.962 600.875 456.153 601.947 455.54C603.02 454.905 604.201 454.588 605.493 454.588ZM628.517 454.588C630.64 454.588 632.325 455.299 633.572 456.722C634.82 458.122 635.443 460.026 635.443 462.434V473.168H629.009V463.287C629.009 462.237 628.736 461.416 628.189 460.825C627.642 460.212 626.908 459.906 625.989 459.906C625.026 459.906 624.271 460.212 623.724 460.825C623.177 461.416 622.903 462.237 622.903 463.287V473.168H616.469V454.752H622.903V457.378C623.472 456.547 624.238 455.879 625.201 455.376C626.164 454.85 627.269 454.588 628.517 454.588ZM642.224 453.045C641.086 453.045 640.167 452.739 639.466 452.126C638.788 451.491 638.449 450.703 638.449 449.762C638.449 448.799 638.788 448.001 639.466 447.366C640.167 446.731 641.086 446.414 642.224 446.414C643.34 446.414 644.237 446.731 644.916 447.366C645.616 448.001 645.966 448.799 645.966 449.762C645.966 450.703 645.616 451.491 644.916 452.126C644.237 452.739 643.34 453.045 642.224 453.045ZM645.408 454.752V473.168H638.974V454.752H645.408ZM529.03 491.547C529.03 489.271 529.5 487.247 530.441 485.474C531.404 483.68 532.761 482.29 534.512 481.305C536.263 480.298 538.276 479.795 540.552 479.795C543.441 479.795 545.87 480.572 547.84 482.126C549.809 483.658 551.079 485.748 551.648 488.396H544.721C544.305 487.52 543.725 486.853 542.981 486.393C542.259 485.934 541.416 485.704 540.454 485.704C538.965 485.704 537.773 486.24 536.875 487.313C536 488.363 535.562 489.775 535.562 491.547C535.562 493.342 536 494.775 536.875 495.848C537.773 496.898 538.965 497.423 540.454 497.423C541.416 497.423 542.259 497.193 542.981 496.734C543.725 496.274 544.305 495.607 544.721 494.731H551.648C551.079 497.379 549.809 499.48 547.84 501.034C545.87 502.566 543.441 503.332 540.552 503.332C538.276 503.332 536.263 502.84 534.512 501.855C532.761 500.848 531.404 499.459 530.441 497.686C529.5 495.891 529.03 493.845 529.03 491.547ZM566.807 484.588C568.908 484.588 570.572 485.299 571.797 486.722C573.045 488.122 573.668 490.026 573.668 492.434V503.168H567.234V493.287C567.234 492.237 566.961 491.416 566.414 490.825C565.866 490.212 565.133 489.906 564.214 489.906C563.251 489.906 562.496 490.212 561.949 490.825C561.402 491.416 561.128 492.237 561.128 493.287V503.168H554.694V478.876H561.128V487.378C561.697 486.547 562.463 485.879 563.426 485.376C564.411 484.85 565.538 484.588 566.807 484.588ZM576.148 493.944C576.148 492.04 576.488 490.376 577.166 488.954C577.866 487.531 578.807 486.437 579.989 485.671C581.193 484.905 582.528 484.522 583.994 484.522C585.263 484.522 586.358 484.774 587.277 485.277C588.196 485.781 588.907 486.459 589.41 487.313V484.752H595.845V503.168H589.41V500.607C588.907 501.461 588.185 502.139 587.244 502.643C586.325 503.146 585.241 503.398 583.994 503.398C582.528 503.398 581.193 503.015 579.989 502.249C578.807 501.483 577.866 500.389 577.166 498.966C576.488 497.522 576.148 495.848 576.148 493.944ZM589.41 493.944C589.41 492.762 589.082 491.832 588.426 491.153C587.791 490.475 587.003 490.136 586.062 490.136C585.099 490.136 584.3 490.475 583.666 491.153C583.031 491.81 582.714 492.74 582.714 493.944C582.714 495.125 583.031 496.066 583.666 496.767C584.3 497.445 585.099 497.784 586.062 497.784C587.003 497.784 587.791 497.445 588.426 496.767C589.082 496.088 589.41 495.147 589.41 493.944ZM611.558 484.588C613.681 484.588 615.366 485.299 616.614 486.722C617.861 488.122 618.485 490.026 618.485 492.434V503.168H612.051V493.287C612.051 492.237 611.777 491.416 611.23 490.825C610.683 490.212 609.95 489.906 609.031 489.906C608.068 489.906 607.313 490.212 606.766 490.825C606.219 491.416 605.945 492.237 605.945 493.287V503.168H599.511V484.752H605.945V487.378C606.514 486.547 607.28 485.879 608.243 485.376C609.206 484.85 610.311 484.588 611.558 484.588ZM634.063 484.588C636.186 484.588 637.871 485.299 639.118 486.722C640.366 488.122 640.989 490.026 640.989 492.434V503.168H634.555V493.287C634.555 492.237 634.282 491.416 633.735 490.825C633.188 490.212 632.454 489.906 631.535 489.906C630.572 489.906 629.817 490.212 629.27 490.825C628.723 491.416 628.449 492.237 628.449 493.287V503.168H622.015V484.752H628.449V487.378C629.018 486.547 629.784 485.879 630.747 485.376C631.71 484.85 632.815 484.588 634.063 484.588ZM662.115 493.747C662.115 494.25 662.082 494.753 662.017 495.257H649.838C649.903 496.263 650.177 497.018 650.658 497.522C651.162 498.003 651.797 498.244 652.562 498.244C653.635 498.244 654.401 497.762 654.86 496.8H661.721C661.437 498.069 660.879 499.207 660.047 500.214C659.237 501.198 658.209 501.975 656.961 502.544C655.714 503.113 654.335 503.398 652.825 503.398C651.009 503.398 649.389 503.015 647.967 502.249C646.566 501.483 645.461 500.389 644.651 498.966C643.863 497.544 643.469 495.869 643.469 493.944C643.469 492.018 643.863 490.354 644.651 488.954C645.439 487.531 646.533 486.437 647.934 485.671C649.356 484.905 650.987 484.522 652.825 484.522C654.642 484.522 656.25 484.894 657.651 485.638C659.051 486.382 660.146 487.455 660.933 488.855C661.721 490.234 662.115 491.865 662.115 493.747ZM655.55 492.138C655.55 491.35 655.287 490.737 654.762 490.3C654.237 489.84 653.58 489.61 652.792 489.61C652.004 489.61 651.359 489.829 650.855 490.267C650.352 490.683 650.024 491.306 649.871 492.138H655.55ZM671.182 478.876V503.168H664.748V478.876H671.182Z" fill="white"/>
</g>
<g filter="url(#filter1_d_306_1909)">
<circle cx="598.277" cy="303.569" r="54.3698" fill="white"/>
<circle cx="598.277" cy="303.569" r="53.3439" stroke="#D0CFCF" stroke-width="2.05169"/>
</g>
<path d="M588.427 298.859C594.21 298.859 598.899 294.17 598.899 288.387C598.899 282.603 594.21 277.926 588.427 277.926C582.643 277.926 577.954 282.615 577.954 288.398C577.954 294.182 582.643 298.859 588.427 298.859Z" fill="#17A9E1"/>
<path d="M592.874 299.564H583.991C576.607 299.564 570.581 305.578 570.581 312.963V323.828L570.616 324L571.364 324.231C578.415 326.431 584.544 327.169 589.591 327.169C599.441 327.169 605.144 324.358 605.501 324.185L606.192 323.828H606.261V312.963C606.261 305.578 600.248 299.564 592.863 299.564H592.874Z" fill="#17A9E1"/>
<path d="M613.854 302.809C617.841 302.809 621.067 299.584 621.067 295.609C621.067 291.634 617.841 288.408 613.854 288.408C609.868 288.408 606.654 291.634 606.654 295.609C606.654 299.584 609.88 302.809 613.854 302.809Z" fill="#17A9E1"/>
<path d="M616.903 303.283H610.786C609.104 303.283 607.537 303.744 606.189 304.527C607.79 307.027 608.654 309.931 608.654 312.972V321.809C610.843 322.155 612.848 322.293 614.645 322.293C621.431 322.293 625.36 320.357 625.602 320.231L626.086 319.989H626.132V312.511C626.132 307.431 621.996 303.283 616.903 303.283Z" fill="#17A9E1"/>
<g filter="url(#filter2_d_306_1909)">
<circle cx="867.661" cy="886.415" r="54.3698" fill="white"/>
<circle cx="867.661" cy="886.415" r="53.3439" stroke="#D0CFCF" stroke-width="2.05169"/>
</g>
<path d="M896.496 866.762C896.141 866.346 895.627 866.102 895.076 866.102H850.321C849.746 866.102 849.208 866.371 848.853 866.823C848.51 867.276 848.388 867.876 848.535 868.426L854.432 890.474C854.652 891.281 855.374 891.844 856.218 891.844C856.243 891.844 856.279 891.844 856.316 891.844L891.492 890.07C892.348 890.021 893.058 889.397 893.217 888.565L896.899 868.279C896.997 867.741 896.85 867.19 896.496 866.762ZM863.743 882.692C863.743 883.708 862.911 884.54 861.895 884.54C860.88 884.54 860.048 883.72 860.048 882.692V875.314C860.048 874.299 860.868 873.467 861.895 873.467C862.923 873.467 863.743 874.287 863.743 875.314V882.692ZM874.803 882.692C874.803 883.708 873.983 884.54 872.956 884.54C871.928 884.54 871.108 883.72 871.108 882.692V875.314C871.108 874.299 871.928 873.467 872.956 873.467C873.983 873.467 874.803 874.287 874.803 875.314V882.692ZM885.864 882.692C885.864 883.708 885.032 884.54 884.016 884.54C883.001 884.54 882.169 883.72 882.169 882.692V875.314C882.169 874.299 882.988 873.467 884.016 873.467C885.044 873.467 885.864 874.287 885.864 875.314V882.692Z" fill="#17A9E1"/>
<path d="M861.89 914.045C864.944 914.045 867.42 911.569 867.42 908.515C867.42 905.46 864.944 902.984 861.89 902.984C858.835 902.984 856.359 905.46 856.359 908.515C856.359 911.569 858.835 914.045 861.89 914.045Z" fill="#17A9E1"/>
<path d="M884.013 902.984C887.071 902.984 889.543 905.456 889.543 908.515C889.543 911.573 887.071 914.045 884.013 914.045C880.954 914.045 878.482 911.573 878.482 908.515C878.482 905.456 880.954 902.984 884.013 902.984Z" fill="#17A9E1"/>
<path d="M887.694 899.284H858.196C857.364 899.284 856.63 898.721 856.409 897.914L846.927 862.408H839.758C838.742 862.408 837.91 861.576 837.91 860.56C837.91 859.545 838.73 858.713 839.758 858.713H848.347C849.179 858.713 849.913 859.276 850.133 860.083L859.615 895.589H887.694C888.71 895.589 889.542 896.421 889.542 897.436C889.542 898.452 888.722 899.284 887.694 899.284Z" fill="#17A9E1"/>
<g filter="url(#filter3_d_306_1909)">
<circle cx="598.277" cy="779.565" r="54.3698" fill="white"/>
<circle cx="598.277" cy="779.565" r="53.3439" stroke="#D0CFCF" stroke-width="2.05169"/>
</g>
<path d="M633.236 804.109H563.74C560.721 804.109 558.269 801.656 558.269 798.637V753.229C558.269 750.21 560.721 747.758 563.74 747.758H633.236C636.255 747.758 638.708 750.21 638.708 753.229V798.637C638.708 801.656 636.255 804.109 633.236 804.109ZM564.841 797.536H632.135V754.314H564.841V797.536Z" fill="#17A9E1"/>
<path d="M613.535 804.115H583.441V813.007H613.535V804.115Z" fill="#17A9E1"/>
<g filter="url(#filter4_d_306_1909)">
<circle cx="200.246" cy="477.971" r="54.3698" fill="white"/>
<circle cx="200.246" cy="477.971" r="53.3439" stroke="#D0CFCF" stroke-width="2.05169"/>
</g>
<mask id="mask0_306_1909" style="mask-type:luminance" maskUnits="userSpaceOnUse" x="176" y="433" width="48" height="90">
<path d="M219.312 433.863H180.494C178.378 433.863 176.655 435.587 176.655 437.702V518.768C176.655 520.884 178.378 522.607 180.494 522.607H219.312C221.428 522.607 223.151 520.884 223.151 518.768V437.702C223.151 435.587 221.428 433.863 219.312 433.863ZM196.618 438.556H203.17C203.392 438.556 203.563 438.726 203.563 438.948C203.563 439.17 203.392 439.34 203.17 439.34H196.618C196.397 439.34 196.226 439.153 196.226 438.948C196.226 438.726 196.397 438.556 196.618 438.556ZM199.894 519.144C198.512 519.144 197.386 518.017 197.386 516.635C197.386 515.253 198.512 514.127 199.894 514.127C201.277 514.127 202.403 515.253 202.403 516.635C202.403 518.017 201.277 519.144 199.894 519.144ZM219.448 511.516H180.323V444.954H219.448V511.516Z" fill="white"/>
</mask>
<g mask="url(#mask0_306_1909)">
<path d="M311.605 390.105H138.519V522.616H311.605V390.105Z" fill="#17A9E1"/>
</g>
<g filter="url(#filter5_d_306_1909)">
<circle cx="308.984" cy="754.954" r="54.3698" fill="white"/>
<circle cx="308.984" cy="754.954" r="53.3439" stroke="#D0CFCF" stroke-width="2.05169"/>
</g>
<path d="M314.644 770.149C317.783 773.288 317.766 778.363 314.644 781.503C311.522 784.625 306.429 784.642 303.29 781.503C300.168 778.381 300.151 773.271 303.29 770.131C306.429 766.992 311.54 767.009 314.661 770.131L314.644 770.149Z" fill="#17A9E1"/>
<path d="M336.483 759.008L329.018 766.473C323.594 761.241 316.496 758.363 308.961 758.363C301.426 758.363 294.328 761.206 288.939 766.421L281.491 758.974C296.752 744.114 321.205 744.131 336.483 759.026V759.008Z" fill="#17A9E1"/>
<path d="M351.026 744.459L343.562 751.923C324.359 733.122 293.54 733.087 274.373 751.836L266.925 744.389C290.209 721.524 327.708 721.559 351.009 744.459H351.026Z" fill="#17A9E1"/>
<g filter="url(#filter6_d_306_1909)">
<circle cx="405.415" cy="145.602" r="54.3698" fill="white"/>
<circle cx="405.415" cy="145.602" r="53.3439" stroke="#D0CFCF" stroke-width="2.05169"/>
</g>
<g filter="url(#filter7_d_306_1909)">
<circle cx="832.167" cy="176.378" r="54.3698" fill="white"/>
<circle cx="832.167" cy="176.378" r="53.3439" stroke="#D0CFCF" stroke-width="2.05169"/>
</g>
<path d="M411.019 139.355C411.019 142.504 408.472 145.051 405.323 145.051C402.175 145.051 399.628 142.504 399.628 139.355C399.628 136.207 402.175 133.66 405.323 133.66C408.472 133.66 411.019 136.207 411.019 139.355Z" fill="#17A9E1"/>
<path d="M405.323 113.799C391.235 113.799 379.77 125.252 379.77 139.352C379.77 150.818 387.359 160.528 397.771 163.764L398.95 159.085C390.583 156.376 384.474 148.61 384.474 139.352C384.474 127.861 393.82 118.516 405.311 118.516C416.801 118.516 426.135 127.861 426.135 139.352C426.135 148.598 420.025 156.376 411.671 159.085L412.85 163.764C423.262 160.54 430.852 150.818 430.852 139.352C430.852 125.265 419.398 113.799 405.311 113.799H405.323Z" fill="#17A9E1"/>
<path d="M405.321 120.484C394.921 120.484 386.454 128.94 386.454 139.352C386.454 147.694 391.923 154.694 399.437 157.19L400.591 152.636C395.122 150.679 391.17 145.498 391.17 139.364C391.17 131.561 397.518 125.214 405.321 125.214C413.124 125.214 419.471 131.561 419.471 139.364C419.471 145.498 415.52 150.679 410.05 152.636L411.204 157.19C418.719 154.706 424.188 147.694 424.188 139.352C424.188 128.952 415.72 120.484 405.321 120.484Z" fill="#17A9E1"/>
<path d="M415.347 179.054L405.324 139.35L395.301 179.054H415.347Z" fill="#17A9E1"/>
<path d="M837.771 170.125C837.771 173.274 835.225 175.82 832.076 175.82C828.927 175.82 826.381 173.274 826.381 170.125C826.381 166.976 828.927 164.43 832.076 164.43C835.225 164.43 837.771 166.976 837.771 170.125Z" fill="#17A9E1"/>
<path d="M832.075 144.57C817.987 144.57 806.521 156.024 806.521 170.124C806.521 181.59 814.111 191.299 824.523 194.536L825.702 189.857C817.335 187.147 811.226 179.382 811.226 170.124C811.226 158.633 820.572 149.287 832.062 149.287C843.553 149.287 852.887 158.633 852.887 170.124C852.887 179.369 846.777 187.147 838.423 189.857L839.602 194.536C850.014 191.312 857.604 181.59 857.604 170.124C857.604 156.036 846.15 144.57 832.062 144.57H832.075Z" fill="#17A9E1"/>
<path d="M832.072 151.254C821.673 151.254 813.205 159.709 813.205 170.121C813.205 178.463 818.675 185.463 826.189 187.96L827.343 183.406C821.873 181.449 817.922 176.268 817.922 170.134C817.922 162.331 824.27 155.983 832.072 155.983C839.875 155.983 846.223 162.331 846.223 170.134C846.223 176.268 842.271 181.449 836.802 183.406L837.956 187.96C845.47 185.476 850.94 178.463 850.94 170.121C850.94 159.722 842.472 151.254 832.072 151.254Z" fill="#17A9E1"/>
<path d="M842.099 209.823L832.076 170.119L822.053 209.823H842.099Z" fill="#17A9E1"/>
<g filter="url(#filter8_d_306_1909)">
<circle cx="984.136" cy="478.749" r="54.3698" fill="white"/>
<circle cx="984.136" cy="478.749" r="53.3439" stroke="#D0CFCF" stroke-width="2.05169"/>
</g>
<path d="M1027.32 471.165H1009.67V489.179C1009.67 490.923 1008.26 492.319 1006.51 492.319H975.772V495.936C975.772 496.616 976.323 497.167 977.003 497.167H1009.17C1009.39 497.167 1009.49 497.185 1009.74 497.442L1012.66 500.362C1012.9 500.6 1013.21 500.711 1013.53 500.711C1013.84 500.711 1014.15 500.582 1014.39 500.362L1017.31 497.442C1017.55 497.203 1017.64 497.167 1017.88 497.167H1027.32C1028 497.167 1028.55 496.616 1028.55 495.936V472.377C1028.55 471.697 1028 471.146 1027.32 471.146V471.165Z" fill="#17A9E1"/>
<path d="M953.778 457.201H941.604C940.741 457.201 940.024 457.917 940.024 458.78V489.171C940.024 490.034 940.741 490.75 941.604 490.75H953.778C954.072 490.75 954.182 490.768 954.513 491.099L958.277 494.863C958.589 495.175 958.993 495.322 959.397 495.322C959.801 495.322 960.205 495.175 960.517 494.863L964.282 491.099C964.594 490.787 964.722 490.75 965.016 490.75H1006.53C1007.4 490.75 1008.11 490.034 1008.11 489.171V458.78C1008.11 457.917 1007.4 457.201 1006.53 457.201H953.797H953.778Z" fill="#17A9E1"/>
<circle cx="438.245" cy="580.552" r="37.727" fill="#F89939" stroke="#F89939" stroke-width="0.458468"/>
<path d="M428.521 593.549C428.521 597.377 425.414 600.484 421.586 600.484C417.758 600.484 414.65 597.377 414.65 593.549C414.65 589.721 417.758 586.613 421.586 586.613C425.414 586.613 428.521 589.721 428.521 593.549Z" fill="white"/>
<path d="M462.576 593.549C462.576 597.377 459.468 600.484 455.64 600.484C451.812 600.484 448.705 597.377 448.705 593.549C448.705 589.721 451.812 586.613 455.64 586.613C459.468 586.613 462.576 589.721 462.576 593.549Z" fill="white"/>
<path d="M445.557 563.896C445.557 567.724 442.449 570.832 438.621 570.832C434.793 570.832 431.686 567.724 431.686 563.896C431.686 560.069 434.793 556.961 438.621 556.961C442.449 556.961 445.557 560.069 445.557 563.896Z" fill="white"/>
<path d="M438.608 605.405C426.591 605.405 416.814 595.629 416.814 583.612C416.814 571.595 426.591 561.818 438.608 561.818C450.625 561.818 460.401 571.595 460.401 583.612C460.401 595.629 450.625 605.405 438.608 605.405ZM438.608 565.966C428.885 565.966 420.962 573.875 420.962 583.612C420.962 593.348 428.872 601.257 438.608 601.257C448.344 601.257 456.253 593.348 456.253 583.612C456.253 573.875 448.344 565.966 438.608 565.966Z" fill="white"/>
<circle cx="333.606" cy="342.562" r="37.727" fill="#F89939" stroke="#F89939" stroke-width="0.458468"/>
<path d="M332.819 316.918C319.097 316.918 307.961 328.053 307.961 341.775C307.961 355.497 319.083 366.633 332.819 366.633C346.555 366.633 357.676 355.511 357.676 341.775C357.676 328.039 346.555 316.918 332.819 316.918ZM332.819 361.183C322.112 361.183 313.398 352.468 313.398 341.762C313.398 331.055 322.112 322.34 332.819 322.34C343.525 322.34 352.24 331.055 352.24 341.762C352.24 352.468 343.525 361.183 332.819 361.183Z" fill="white"/>
<path d="M344.826 341.594H334.368V328.426C334.368 327.139 333.317 326.102 332.045 326.102C330.772 326.102 329.721 327.139 329.721 328.426V345.163C329.721 346.45 330.758 347.487 332.045 347.487C332.556 347.487 333.027 347.321 333.414 347.031H344.84C346.334 347.031 347.551 345.799 347.551 344.306C347.551 342.812 346.334 341.58 344.826 341.58V341.594Z" fill="white"/>
<circle cx="469.021" cy="861.642" r="37.727" fill="#F89939" stroke="#F89939" stroke-width="0.458468"/>
<path d="M470.638 886.598C474.362 886.07 477.625 882.184 479.67 876.456C476.704 875.793 473.671 875.441 470.638 875.387V886.598Z" fill="white"/>
<path d="M476.583 885.707C476.799 885.639 477.016 885.585 477.233 885.504C477.422 885.45 477.598 885.382 477.774 885.314C477.991 885.247 478.207 885.166 478.411 885.084C478.587 885.017 478.776 884.949 478.952 884.868C479.155 884.786 479.372 884.692 479.575 884.61C479.751 884.529 479.927 884.448 480.103 884.367C480.306 884.272 480.509 884.177 480.699 884.069C480.875 883.974 481.051 883.893 481.227 883.798C481.416 883.69 481.62 883.581 481.809 883.473C481.985 883.378 482.148 883.27 482.324 883.175C482.513 883.053 482.703 882.945 482.892 882.823C483.055 882.715 483.231 882.606 483.393 882.498C483.583 882.376 483.759 882.241 483.935 882.119C484.097 881.997 484.26 881.889 484.409 881.767C484.585 881.631 484.761 881.496 484.937 881.361C485.086 881.239 485.248 881.117 485.397 880.982C485.573 880.833 485.736 880.684 485.912 880.535C486.061 880.399 486.21 880.277 486.359 880.142C486.521 879.993 486.684 879.831 486.846 879.668C486.981 879.533 487.13 879.397 487.266 879.248C487.293 879.221 487.32 879.194 487.347 879.167C485.451 878.192 483.447 877.421 481.389 876.879C480.32 880.305 478.411 883.405 475.838 885.897C475.906 885.883 475.973 885.87 476.054 885.843C476.244 885.788 476.42 885.734 476.61 885.68L476.583 885.707Z" fill="white"/>
<path d="M494.091 863.189H483.666C483.625 867.265 483.029 871.314 481.905 875.227C484.207 875.836 486.414 876.716 488.499 877.854C491.925 873.724 493.888 868.565 494.078 863.203L494.091 863.189Z" fill="white"/>
<path d="M470.638 861.459H481.931C481.89 857.533 481.308 853.633 480.225 849.855C477.083 850.573 473.874 850.952 470.638 850.993V861.459Z" fill="white"/>
<path d="M470.638 838.041V849.252C473.685 849.212 476.704 848.86 479.67 848.183C477.611 842.442 474.362 838.569 470.638 838.041Z" fill="white"/>
<path d="M470.638 873.656C473.861 873.697 477.07 874.076 480.225 874.793C481.321 871.016 481.89 867.116 481.931 863.189H470.638V873.656Z" fill="white"/>
<path d="M488.514 846.793C486.429 847.93 484.208 848.81 481.92 849.42C483.044 853.333 483.64 857.381 483.68 861.457H494.106C493.917 856.095 491.953 850.936 488.528 846.807L488.514 846.793Z" fill="white"/>
<path d="M487.338 845.473C487.338 845.473 487.283 845.419 487.256 845.392C487.121 845.257 486.972 845.108 486.837 844.972C486.674 844.81 486.512 844.648 486.349 844.499C486.2 844.363 486.051 844.241 485.902 844.106C485.74 843.957 485.564 843.808 485.388 843.659C485.239 843.537 485.09 843.415 484.927 843.294C484.751 843.158 484.575 843.009 484.399 842.874C484.237 842.752 484.088 842.644 483.925 842.522C483.749 842.386 483.56 842.264 483.37 842.143C483.208 842.034 483.045 841.926 482.883 841.818C482.693 841.696 482.504 841.574 482.314 841.466C482.152 841.371 481.976 841.262 481.813 841.168C481.624 841.059 481.42 840.951 481.231 840.843C481.055 840.761 480.879 840.667 480.703 840.572C480.5 840.477 480.297 840.369 480.093 840.274C479.917 840.193 479.741 840.112 479.565 840.03C479.362 839.936 479.146 839.854 478.943 839.773C478.767 839.705 478.591 839.624 478.401 839.556C478.184 839.475 477.981 839.394 477.765 839.326C477.589 839.259 477.399 839.204 477.223 839.137C477.006 839.069 476.79 839.001 476.56 838.934C476.383 838.879 476.194 838.825 476.018 838.785C475.95 838.771 475.883 838.744 475.801 838.73C478.374 841.235 480.283 844.336 481.353 847.748C483.424 847.207 485.415 846.435 487.324 845.46L487.338 845.473Z" fill="white"/>
<path d="M445.439 861.457H455.865C455.906 857.381 456.501 853.333 457.625 849.42C455.337 848.81 453.116 847.93 451.031 846.793C447.605 850.923 445.642 856.082 445.453 861.443L445.439 861.457Z" fill="white"/>
<path d="M468.904 886.598V875.387C465.858 875.427 462.838 875.779 459.873 876.456C461.931 882.197 465.181 886.07 468.904 886.598Z" fill="white"/>
<path d="M468.906 863.189H457.613C457.654 867.116 458.236 871.016 459.319 874.793C462.461 874.076 465.67 873.697 468.906 873.656V863.189Z" fill="white"/>
<path d="M468.904 838.041C465.181 838.569 461.918 842.455 459.873 848.183C462.838 848.846 465.871 849.198 468.904 849.252V838.041Z" fill="white"/>
<path d="M468.906 850.993C465.683 850.952 462.474 850.573 459.319 849.855C458.223 853.633 457.654 857.533 457.613 861.459H468.906V850.993Z" fill="white"/>
<path d="M463.723 838.746C463.656 838.76 463.588 838.773 463.507 838.8C463.317 838.854 463.141 838.909 462.952 838.963C462.735 839.03 462.518 839.085 462.302 839.166C462.112 839.22 461.936 839.288 461.76 839.355C461.543 839.437 461.34 839.504 461.124 839.586C460.948 839.653 460.758 839.721 460.582 839.802C460.379 839.884 460.162 839.978 459.959 840.059C459.783 840.141 459.607 840.222 459.431 840.303C459.228 840.398 459.025 840.493 458.835 840.601C458.659 840.696 458.483 840.777 458.307 840.872C458.118 840.98 457.915 841.089 457.725 841.197C457.549 841.292 457.387 841.4 457.211 841.495C457.021 841.603 456.831 841.725 456.655 841.847C456.493 841.955 456.317 842.063 456.154 842.172C455.965 842.294 455.789 842.429 455.613 842.551C455.45 842.673 455.288 842.781 455.125 842.903C454.949 843.038 454.773 843.174 454.597 843.309C454.448 843.431 454.286 843.553 454.137 843.688C453.961 843.837 453.798 843.986 453.636 844.135C453.487 844.27 453.338 844.392 453.189 844.528C453.027 844.677 452.864 844.839 452.702 845.002C452.566 845.137 452.417 845.272 452.282 845.421C452.255 845.448 452.228 845.476 452.201 845.503C454.096 846.478 456.1 847.249 458.158 847.791C459.228 844.365 461.137 841.265 463.71 838.773L463.723 838.746Z" fill="white"/>
<path d="M452.7 879.657C452.863 879.819 453.025 879.982 453.188 880.131C453.337 880.266 453.486 880.388 453.635 880.523C453.797 880.672 453.973 880.821 454.149 880.97C454.298 881.092 454.447 881.214 454.61 881.336C454.786 881.471 454.962 881.62 455.138 881.756C455.3 881.877 455.449 881.986 455.612 882.108C455.788 882.243 455.977 882.365 456.167 882.5C456.329 882.609 456.492 882.717 456.654 882.825C456.844 882.947 457.033 883.069 457.223 883.177C457.385 883.272 457.561 883.38 457.724 883.475C457.913 883.583 458.117 883.692 458.306 883.8C458.482 883.881 458.658 883.976 458.834 884.071C459.037 884.166 459.24 884.274 459.443 884.369C459.619 884.45 459.796 884.531 459.972 884.612C460.175 884.707 460.391 884.788 460.594 884.87C460.77 884.937 460.946 885.019 461.136 885.086C461.353 885.168 461.556 885.249 461.772 885.317C461.948 885.384 462.138 885.438 462.314 885.506C462.531 885.574 462.747 885.642 462.977 885.709C463.154 885.763 463.343 885.818 463.519 885.872C463.587 885.885 463.654 885.912 463.736 885.926C461.163 883.421 459.254 880.32 458.184 876.895C456.126 877.436 454.122 878.208 452.227 879.183C452.254 879.21 452.281 879.237 452.308 879.264C452.443 879.399 452.579 879.548 452.714 879.684L452.7 879.657Z" fill="white"/>
<path d="M451.019 877.854C453.105 876.716 455.325 875.836 457.613 875.227C456.49 871.314 455.894 867.265 455.853 863.189H445.427C445.617 868.551 447.58 873.71 451.006 877.84L451.019 877.854Z" fill="white"/>
<circle cx="620.844" cy="88.1477" r="37.727" fill="#F89939" stroke="#F89939" stroke-width="0.458468"/>
<path d="M634.981 94.1794C632.28 94.1794 629.9 95.4659 628.343 97.4341L613.909 90.05C614.102 89.3424 614.231 88.622 614.231 87.8502C614.231 87.014 614.064 86.2293 613.845 85.4703L628.215 78.1247C629.758 80.183 632.203 81.5338 634.981 81.5338C639.677 81.5338 643.485 77.7388 643.485 73.0432C643.485 68.3477 639.69 64.5527 634.981 64.5527C630.273 64.5527 626.491 68.3606 626.491 73.0432C626.491 73.8151 626.632 74.5355 626.812 75.243L612.391 82.6272C610.835 80.659 608.455 79.3597 605.741 79.3597C601.045 79.3597 597.25 83.1675 597.25 87.8502C597.25 92.5328 601.045 96.3407 605.741 96.3407C608.519 96.3407 610.963 94.9899 612.507 92.9316L626.864 100.277C626.645 101.036 626.478 101.834 626.478 102.67C626.478 107.365 630.286 111.16 634.968 111.16C639.651 111.16 643.472 107.353 643.472 102.67C643.472 97.9744 639.677 94.1794 634.981 94.1794Z" fill="white"/>
<circle cx="848.579" cy="623.632" r="37.727" fill="#F89939" stroke="#F89939" stroke-width="0.458468"/>
<path d="M857.752 600.035H837.891V616.536H857.752V600.035Z" fill="white"/>
<path d="M840.742 630.137H820.881V646.638H840.742V630.137Z" fill="white"/>
<path d="M874.783 630.137H854.922V646.638H874.783V630.137Z" fill="white"/>
<path d="M866.708 630.136H863.003V626.341H832.671V630.136H828.951V622.621H866.708V630.136Z" fill="white"/>
<path d="M849.698 616.543H845.978V624.478H849.698V616.543Z" fill="white"/>
<defs>
<filter id="filter0_d_306_1909" x="494.637" y="370.411" width="210.838" height="211.886" filterUnits="userSpaceOnUse" color-interpolation-filters="sRGB">
<feFlood flood-opacity="0" result="BackgroundImageFix"/>
<feColorMatrix in="SourceAlpha" type="matrix" values="0 0 0 0 0 0 0 0 0 0 0 0 0 0 0 0 0 0 127 0" result="hardAlpha"/>
<feOffset/>
<feGaussianBlur stdDeviation="4.53683"/>
<feComposite in2="hardAlpha" operator="out"/>
<feColorMatrix type="matrix" values="0 0 0 0 0 0 0 0 0 0 0 0 0 0 0 0 0 0 0.1 0"/>
<feBlend mode="normal" in2="BackgroundImageFix" result="effect1_dropShadow_306_1909"/>
<feBlend mode="normal" in="SourceGraphic" in2="effect1_dropShadow_306_1909" result="shape"/>
</filter>
<filter id="filter1_d_306_1909" x="540.727" y="246.655" width="116.372" height="116.373" filterUnits="userSpaceOnUse" color-interpolation-filters="sRGB">
<feFlood flood-opacity="0" result="BackgroundImageFix"/>
<feColorMatrix in="SourceAlpha" type="matrix" values="0 0 0 0 0 0 0 0 0 0 0 0 0 0 0 0 0 0 127 0" result="hardAlpha"/>
<feOffset dx="0.636052" dy="1.2721"/>
<feGaussianBlur stdDeviation="1.90816"/>
<feColorMatrix type="matrix" values="0 0 0 0 0.109804 0 0 0 0 0.317647 0 0 0 0 0.458824 0 0 0 0.25 0"/>
<feBlend mode="normal" in2="BackgroundImageFix" result="effect1_dropShadow_306_1909"/>
<feBlend mode="normal" in="SourceGraphic" in2="effect1_dropShadow_306_1909" result="shape"/>
</filter>
<filter id="filter2_d_306_1909" x="810.111" y="829.501" width="116.372" height="116.373" filterUnits="userSpaceOnUse" color-interpolation-filters="sRGB">
<feFlood flood-opacity="0" result="BackgroundImageFix"/>
<feColorMatrix in="SourceAlpha" type="matrix" values="0 0 0 0 0 0 0 0 0 0 0 0 0 0 0 0 0 0 127 0" result="hardAlpha"/>
<feOffset dx="0.636052" dy="1.2721"/>
<feGaussianBlur stdDeviation="1.90816"/>
<feColorMatrix type="matrix" values="0 0 0 0 0.109804 0 0 0 0 0.317647 0 0 0 0 0.458824 0 0 0 0.25 0"/>
<feBlend mode="normal" in2="BackgroundImageFix" result="effect1_dropShadow_306_1909"/>
<feBlend mode="normal" in="SourceGraphic" in2="effect1_dropShadow_306_1909" result="shape"/>
</filter>
<filter id="filter3_d_306_1909" x="540.727" y="722.651" width="116.372" height="116.373" filterUnits="userSpaceOnUse" color-interpolation-filters="sRGB">
<feFlood flood-opacity="0" result="BackgroundImageFix"/>
<feColorMatrix in="SourceAlpha" type="matrix" values="0 0 0 0 0 0 0 0 0 0 0 0 0 0 0 0 0 0 127 0" result="hardAlpha"/>
<feOffset dx="0.636052" dy="1.2721"/>
<feGaussianBlur stdDeviation="1.90816"/>
<feColorMatrix type="matrix" values="0 0 0 0 0.109804 0 0 0 0 0.317647 0 0 0 0 0.458824 0 0 0 0.25 0"/>
<feBlend mode="normal" in2="BackgroundImageFix" result="effect1_dropShadow_306_1909"/>
<feBlend mode="normal" in="SourceGraphic" in2="effect1_dropShadow_306_1909" result="shape"/>
</filter>
<filter id="filter4_d_306_1909" x="142.696" y="421.057" width="116.372" height="116.373" filterUnits="userSpaceOnUse" color-interpolation-filters="sRGB">
<feFlood flood-opacity="0" result="BackgroundImageFix"/>
<feColorMatrix in="SourceAlpha" type="matrix" values="0 0 0 0 0 0 0 0 0 0 0 0 0 0 0 0 0 0 127 0" result="hardAlpha"/>
<feOffset dx="0.636052" dy="1.2721"/>
<feGaussianBlur stdDeviation="1.90816"/>
<feColorMatrix type="matrix" values="0 0 0 0 0.109804 0 0 0 0 0.317647 0 0 0 0 0.458824 0 0 0 0.25 0"/>
<feBlend mode="normal" in2="BackgroundImageFix" result="effect1_dropShadow_306_1909"/>
<feBlend mode="normal" in="SourceGraphic" in2="effect1_dropShadow_306_1909" result="shape"/>
</filter>
<filter id="filter5_d_306_1909" x="251.434" y="698.04" width="116.372" height="116.373" filterUnits="userSpaceOnUse" color-interpolation-filters="sRGB">
<feFlood flood-opacity="0" result="BackgroundImageFix"/>
<feColorMatrix in="SourceAlpha" type="matrix" values="0 0 0 0 0 0 0 0 0 0 0 0 0 0 0 0 0 0 127 0" result="hardAlpha"/>
<feOffset dx="0.636052" dy="1.2721"/>
<feGaussianBlur stdDeviation="1.90816"/>
<feColorMatrix type="matrix" values="0 0 0 0 0.109804 0 0 0 0 0.317647 0 0 0 0 0.458824 0 0 0 0.25 0"/>
<feBlend mode="normal" in2="BackgroundImageFix" result="effect1_dropShadow_306_1909"/>
<feBlend mode="normal" in="SourceGraphic" in2="effect1_dropShadow_306_1909" result="shape"/>
</filter>
<filter id="filter6_d_306_1909" x="347.865" y="88.6882" width="116.372" height="116.373" filterUnits="userSpaceOnUse" color-interpolation-filters="sRGB">
<feFlood flood-opacity="0" result="BackgroundImageFix"/>
<feColorMatrix in="SourceAlpha" type="matrix" values="0 0 0 0 0 0 0 0 0 0 0 0 0 0 0 0 0 0 127 0" result="hardAlpha"/>
<feOffset dx="0.636052" dy="1.2721"/>
<feGaussianBlur stdDeviation="1.90816"/>
<feColorMatrix type="matrix" values="0 0 0 0 0.109804 0 0 0 0 0.317647 0 0 0 0 0.458824 0 0 0 0.25 0"/>
<feBlend mode="normal" in2="BackgroundImageFix" result="effect1_dropShadow_306_1909"/>
<feBlend mode="normal" in="SourceGraphic" in2="effect1_dropShadow_306_1909" result="shape"/>
</filter>
<filter id="filter7_d_306_1909" x="774.617" y="119.464" width="116.372" height="116.373" filterUnits="userSpaceOnUse" color-interpolation-filters="sRGB">
<feFlood flood-opacity="0" result="BackgroundImageFix"/>
<feColorMatrix in="SourceAlpha" type="matrix" values="0 0 0 0 0 0 0 0 0 0 0 0 0 0 0 0 0 0 127 0" result="hardAlpha"/>
<feOffset dx="0.636052" dy="1.2721"/>
<feGaussianBlur stdDeviation="1.90816"/>
<feColorMatrix type="matrix" values="0 0 0 0 0.109804 0 0 0 0 0.317647 0 0 0 0 0.458824 0 0 0 0.25 0"/>
<feBlend mode="normal" in2="BackgroundImageFix" result="effect1_dropShadow_306_1909"/>
<feBlend mode="normal" in="SourceGraphic" in2="effect1_dropShadow_306_1909" result="shape"/>
</filter>
<filter id="filter8_d_306_1909" x="926.586" y="421.835" width="116.372" height="116.373" filterUnits="userSpaceOnUse" color-interpolation-filters="sRGB">
<feFlood flood-opacity="0" result="BackgroundImageFix"/>
<feColorMatrix in="SourceAlpha" type="matrix" values="0 0 0 0 0 0 0 0 0 0 0 0 0 0 0 0 0 0 127 0" result="hardAlpha"/>
<feOffset dx="0.636052" dy="1.2721"/>
<feGaussianBlur stdDeviation="1.90816"/>
<feColorMatrix type="matrix" values="0 0 0 0 0.109804 0 0 0 0 0.317647 0 0 0 0 0.458824 0 0 0 0.25 0"/>
<feBlend mode="normal" in2="BackgroundImageFix" result="effect1_dropShadow_306_1909"/>
<feBlend mode="normal" in="SourceGraphic" in2="effect1_dropShadow_306_1909" result="shape"/>
</filter>
</defs>
</svg>
